<svg width="168" height="23" viewBox="0 0 168 23" fill="none" xmlns="http://www.w3.org/2000/svg">
<path fill-rule="evenodd" clip-rule="evenodd" d="M70.4078 15.7334C65.6187 15.7334 62.1358 12.4422 62.1358 7.91676C62.1358 3.39132 65.6187 0.100098 70.47 0.100098C73.0822 0.100098 75.3212 1.04045 76.7517 2.8036L76.8761 2.97992L74.3261 5.3308L74.1395 5.15448C73.2066 4.03781 71.9627 3.50887 70.5944 3.50887C67.92 3.50887 66.0541 5.3308 66.0541 7.97553C66.0541 10.6203 67.92 12.4422 70.5944 12.4422C72.0249 12.4422 73.2066 11.9132 74.1395 10.7966L74.3261 10.6203L76.8761 12.9711L76.7517 13.1475C75.3212 14.9106 73.0822 15.851 70.4078 15.851V15.7334ZM33.7122 15.4984H25.8134V0.335226H33.339C37.0085 0.335226 39.1854 1.8633 39.1854 4.39049C39.1854 5.74224 38.5634 6.85891 37.5061 7.56417C39.061 8.21066 39.9317 9.56241 39.9317 11.2668C39.9317 13.9703 37.7549 15.4984 33.7744 15.4984H33.7122ZM29.6695 12.501H33.4634C35.7024 12.501 35.9512 11.6194 35.9512 10.9142C35.9512 9.85627 35.1427 9.32733 33.4634 9.32733H29.6695V12.501ZM29.6695 6.38873H32.8414C34.3963 6.38873 35.2049 5.85978 35.2049 4.86066C35.2049 4.50803 35.2049 3.39136 32.8414 3.39136H29.6695V6.38873ZM46.027 15.4984H42.1087V0.335226H46.027V15.4984ZM52.8685 15.4984H56.7247V3.56768H61.5137V0.335226H48.0795V3.56768H52.8685V15.4984ZM77.4358 7.91676C77.4358 12.4422 80.9809 15.7334 85.8322 15.7334C90.6834 15.7334 94.2285 12.4422 94.2285 7.91676C94.2285 3.39132 90.6834 0.100098 85.8322 0.100098C80.9809 0.100098 77.4358 3.39132 77.4358 7.91676ZM81.4163 7.91676C81.4163 5.3308 83.2821 3.45009 85.8322 3.45009C88.3822 3.45009 90.248 5.3308 90.248 7.91676C90.248 10.5027 88.3822 12.3834 85.8322 12.3834C83.2821 12.3834 81.4163 10.5027 81.4163 7.91676ZM100.012 15.4984H96.0941V0.335226H100.012V15.4984ZM113.385 15.4984H116.557V0.335226H112.7V8.79838L105.672 0.335226H102.5V15.4984H106.357V7.03522L113.385 15.4984ZM122.652 15.4984H118.733V0.335226H122.652V15.4984ZM124.704 13.9703C126.135 15.0282 128.56 15.7334 130.924 15.7334V15.7922C135.713 15.7922 137.454 13.2062 137.454 11.0317C137.454 7.76925 134.399 7.04772 131.922 6.46292L131.857 6.44746C130.24 6.09483 128.809 5.7422 128.809 4.80185C128.809 3.8615 129.742 3.33255 131.421 3.33255C132.727 3.33255 134.096 3.74396 135.402 4.44922L135.651 4.56676L136.894 1.56939L136.708 1.45185C135.34 0.570273 133.412 0.100098 131.421 0.100098C127.441 0.100098 124.891 1.9808 124.953 4.86062C124.953 8.1818 128.009 8.90355 130.486 9.4884L130.551 9.5036C132.168 9.85623 133.598 10.2089 133.598 11.1492C133.598 12.3247 131.981 12.501 130.986 12.501C129.307 12.501 127.441 11.972 126.197 11.0317L125.948 10.8554L124.58 13.8527L124.704 13.9703ZM147.032 15.4984H143.176V3.56768H138.387V0.335226H151.821V3.56768H147.032V15.4984ZM153.563 3.21489C153.563 3.50875 154.122 3.74384 154.122 3.74384C154.433 3.74384 154.682 3.50875 154.682 3.21489C154.682 2.92103 154.433 2.68594 154.122 2.68594C153.811 2.68594 153.563 2.92103 153.563 3.21489ZM157.232 3.744C156.113 3.744 155.367 3.03873 155.367 2.03961C155.367 1.04049 156.175 0.335226 157.232 0.335226C157.854 0.335226 158.352 0.570314 158.663 0.922945L158.041 1.51066C158.041 1.51066 157.543 1.09926 157.295 1.09926C156.735 1.09926 156.299 1.51066 156.299 2.03961C156.299 2.56856 156.735 2.97996 157.295 2.97996C157.606 2.97996 157.854 2.86242 158.041 2.62733L158.663 3.0975C158.352 3.50891 157.854 3.744 157.232 3.744ZM158.974 2.03961C158.974 3.03873 159.782 3.744 160.902 3.744C162.021 3.744 162.83 3.03873 162.83 2.03961C162.83 1.04049 162.021 0.335226 160.902 0.335226C159.782 0.335226 158.974 1.04049 158.974 2.03961ZM159.969 2.03961C159.969 1.51066 160.342 1.09926 160.902 1.09926C161.524 1.09926 161.897 1.51066 161.897 2.03961C161.897 2.56856 161.461 2.97996 160.902 2.97996C160.342 2.97996 159.969 2.56856 159.969 2.03961ZM163.452 3.5677V0.45279V0.394008H164.198L165.38 2.27471L166.562 0.394008H167.308V3.68523H166.5V1.98085L165.629 3.3326H165.193L164.323 2.03962V3.68523H163.452V3.5677ZM25.3783 20.0825C25.3783 20.0625 25.3785 20.0425 25.3791 20.0227C25.4107 21.1099 26.3317 21.9044 27.4929 21.9044C28.1149 21.9044 28.6124 21.7281 28.9856 21.3754L28.7368 21.1404C28.4258 21.493 27.9905 21.6105 27.5551 21.6105C26.6222 21.6105 25.8758 20.964 25.8758 20.0237C25.8758 19.0833 26.56 18.4369 27.5551 18.4369C27.9905 18.4369 28.4258 18.6132 28.7368 18.907L28.9856 18.6719C28.6124 18.3193 28.0527 18.143 27.4929 18.143C26.2713 18.143 25.4096 18.9366 25.3791 20.0227C25.3785 20.0035 25.3783 19.9843 25.3783 19.9649V20.0825ZM31.66 20.729L32.5929 21.9632V21.9044H33.0282L32.0331 20.6114C32.6551 20.4351 32.966 20.0237 32.966 19.436C32.966 18.6132 32.3441 18.143 31.349 18.143H29.8563V21.9044H30.2917V20.729H31.349H31.66ZM31.349 18.5544C32.1575 18.5544 32.5929 18.907 32.5929 19.4947C32.5929 20.0825 32.1575 20.4351 31.349 20.4351H30.2917V18.5544H31.349ZM35.3294 20.6702V21.9632H34.8941V20.6702L33.277 18.2018H33.7124L35.0807 20.3176L36.449 18.2018H36.8843L35.2672 20.6702H35.3294ZM38.0036 20.7877H39.061C40.0561 20.7877 40.678 20.3176 40.678 19.4948C40.678 18.672 40.0561 18.2018 39.061 18.2018H37.5683V21.9632H38.0036V20.7877ZM38.9988 18.5544C39.8073 18.5544 40.2427 18.907 40.2427 19.4948C40.2427 20.0825 39.8073 20.4351 38.9988 20.4351H37.9414V18.5544H38.9988ZM42.1709 18.5544H40.8026V18.2018H44.0368V18.5544H42.6063V21.9632H42.1709V18.5544ZM46.4623 18.143C45.2184 18.143 44.3477 18.9658 44.3477 20.0825C44.3477 21.1991 45.2184 22.0219 46.4623 22.0219C47.7062 22.0219 48.577 21.1991 48.577 20.0825C48.577 18.9658 47.7062 18.143 46.4623 18.143ZM46.4623 18.4956C47.4574 18.4956 48.1416 19.2009 48.1416 20.0825C48.1416 21.0228 47.3953 21.6693 46.4623 21.6693C45.5294 21.6693 44.783 21.0228 44.783 20.0825C44.783 19.1421 45.4672 18.4956 46.4623 18.4956ZM49.1991 20.045L49.1996 20.0227C49.2312 21.1099 50.1522 21.9044 51.3135 21.9044C51.9354 21.9044 52.433 21.7281 52.8061 21.3754L52.5574 21.1404C52.2464 21.493 51.811 21.6105 51.3757 21.6105C50.4427 21.6105 49.6964 20.964 49.6964 20.0237C49.6964 19.0833 50.3805 18.4369 51.3757 18.4369C51.811 18.4369 52.2464 18.6132 52.5574 18.907L52.8061 18.6719C52.433 18.3193 51.8732 18.143 51.3135 18.143C50.0918 18.143 49.2301 18.9366 49.1996 20.0227L49.199 19.9888L49.1988 19.9649V20.0825C49.1988 20.0699 49.1989 20.0575 49.1991 20.045ZM53.6148 18.2018V20.3763H53.7392C53.7392 21.4342 54.3612 22.0219 55.3563 22.0219C56.3514 22.0219 56.9734 21.4342 56.9734 20.3763V18.2018H56.538V20.3763C56.538 21.2579 56.1027 21.6693 55.2941 21.6693C54.4856 21.6693 54.0502 21.2579 54.0502 20.3763V18.2018H53.6148ZM60.9538 21.9632L60.0209 20.729H59.7099H58.6526V21.9044H58.2172V18.143H59.7099C60.7051 18.143 61.327 18.6132 61.327 19.436C61.327 20.0237 61.016 20.4351 60.3941 20.6114L61.3892 21.9044H60.9538V21.9632ZM60.9538 19.4947C60.9538 18.907 60.5185 18.5544 59.7099 18.5544H58.6526V20.4351H59.7099C60.5185 20.4351 60.9538 20.0825 60.9538 19.4947ZM64.1882 20.729L65.1211 21.9632V21.9044H65.5565L64.5614 20.6114C65.1833 20.4351 65.4943 20.0237 65.4943 19.436C65.4943 18.6132 64.8723 18.143 63.8772 18.143H62.3845V21.9044H62.8199V20.729H63.8772H64.1882ZM63.8772 18.5544C64.6858 18.5544 65.1211 18.907 65.1211 19.4947C65.1211 20.0825 64.6858 20.4351 63.8772 20.4351H62.8199V18.5544H63.8772ZM69.3502 21.6105V21.6693H66.9868V20.2588H69.0393V19.9062H66.9868V18.5544H69.288V18.2018H66.5514V21.9632H69.3502V21.6693H69.4124L69.3502 21.6105ZM73.7038 21.9632V18.2018H73.2684V21.2579L70.7184 18.2018H70.3453V21.9632H70.7806V18.907L73.3306 21.9632H73.7038ZM74.6995 20.055L74.7001 20.0227C74.7317 21.1098 75.6527 21.9044 76.8139 21.9044C77.4359 21.9044 77.9334 21.7281 78.3066 21.3754L78.0578 21.1404C77.7469 21.493 77.3115 21.6105 76.8761 21.6105C75.9432 21.6105 75.1969 20.964 75.1969 20.0237C75.1969 19.0833 75.881 18.4369 76.8761 18.4369C77.3115 18.4369 77.7469 18.6132 78.0578 18.907L78.3066 18.6719C77.9334 18.3193 77.3737 18.143 76.8139 18.143C75.5923 18.143 74.7306 18.9366 74.7001 20.0227C74.6996 20.0035 74.6993 19.9843 74.6993 19.9649V20.0825L74.6995 20.055ZM80.4832 21.9632V20.6702H80.421L82.0381 18.2018H81.6027L80.2344 20.3176L78.8661 18.2018H78.4307L80.0478 20.6702V21.9632H80.4832ZM88.0088 18.2018V21.9632H87.6357L85.0857 18.907V21.9632H84.6503V18.2018H85.0235L87.5735 21.2579V18.2018H88.0088ZM92.1762 21.6693V21.6105L92.2384 21.6693H92.1762ZM89.8128 21.6693H92.1762V21.9632H89.3774V18.2018H92.114V18.5544H89.8128V19.9062H91.8652V20.2588H89.8128V21.6693ZM98.6445 18.2018L97.2762 21.9632H96.8409L95.6591 18.7307L94.4774 21.9632H94.0421L92.6738 18.2018H93.1091L94.2908 21.4342L95.4726 18.2018H95.8457L97.0275 21.493L98.2092 18.2018H98.6445ZM99.2043 21.1991L99.0177 21.493V21.5518C99.3287 21.8456 99.8884 22.0219 100.51 22.0219C101.506 22.0219 102.003 21.493 102.003 20.964C102.003 20.2468 101.303 20.0921 100.645 19.9469C100.063 19.8185 99.5153 19.6975 99.5153 19.2009C99.5153 18.7895 99.8262 18.4956 100.573 18.4956C100.946 18.4956 101.319 18.5544 101.692 18.7895L101.816 18.4956C101.506 18.2605 101.008 18.143 100.573 18.143C99.5153 18.143 99.0799 18.6719 99.0799 19.2009C99.0799 19.9568 99.7944 20.1219 100.458 20.2752C101.032 20.408 101.568 20.5318 101.568 21.0228C101.568 21.3754 101.257 21.6693 100.51 21.6693C100.013 21.6693 99.2043 21.1991 99.2043 21.1991ZM107.787 22.0219L107.227 21.493C106.916 21.8456 106.419 22.0219 105.921 22.0219C105.112 22.0219 104.553 21.6105 104.553 21.0816C104.553 20.6114 104.801 20.3176 105.548 19.9062C105.175 19.5535 105.05 19.3184 105.05 19.0246C105.05 18.5544 105.423 18.2018 106.045 18.2018C106.605 18.2018 106.978 18.4956 106.978 18.9658C106.978 19.3184 106.73 19.6123 106.108 19.9649L107.227 21.0228C107.227 21.0228 107.414 20.5527 107.476 20.3176L107.787 20.4351C107.725 20.7877 107.6 21.0816 107.414 21.3167L107.973 21.8456L107.787 22.0219ZM106.978 21.2579L105.797 20.0825C105.175 20.4351 104.988 20.6702 104.988 21.0228C104.988 21.4342 105.361 21.7281 105.983 21.7281C106.419 21.7281 106.792 21.6105 107.04 21.3167L106.978 21.2579ZM105.423 18.9658C105.423 18.9658 105.486 19.3184 105.859 19.6711C106.419 19.3772 106.605 19.1421 106.605 18.907C106.605 18.672 106.419 18.4369 106.045 18.4369C105.672 18.4369 105.423 18.672 105.423 18.9658ZM110.026 18.5544H111.394V21.9632H111.83V18.5544H113.26V18.2018H110.026V18.5544ZM116.805 21.6105V21.6693H114.442V20.2588H116.494V19.9062H114.442V18.5544H116.743V18.2018H114.007V21.9632H116.805V21.6693H116.868L116.805 21.6105ZM117.428 20.0227L117.428 20.0514L117.427 20.0825V19.9649L117.427 19.9912L117.428 20.0227ZM117.428 20.0227C117.459 18.9366 118.32 18.143 119.542 18.143C120.102 18.143 120.661 18.3193 121.035 18.6719L120.786 18.907C120.475 18.6132 120.039 18.4369 119.604 18.4369C118.609 18.4369 117.925 19.0833 117.925 20.0237C117.925 20.964 118.671 21.6105 119.604 21.6105C120.039 21.6105 120.475 21.493 120.786 21.1404L121.035 21.3754C120.661 21.7281 120.164 21.9044 119.542 21.9044C118.381 21.9044 117.46 21.1098 117.428 20.0227ZM125.264 21.9632H124.828V20.2H122.341V21.9632H121.905V18.2018H122.341V19.9062H124.828V18.2018H125.264V21.9632ZM129.555 21.9632H129.929V18.2018H129.493V21.2579L126.943 18.2018H126.57V21.9632H127.005V18.907L129.555 21.9632ZM130.924 20.0825C130.924 18.9658 131.794 18.143 133.038 18.143C134.282 18.143 135.153 18.9658 135.153 20.0825C135.153 21.1991 134.282 22.0219 133.038 22.0219C131.794 22.0219 130.924 21.1991 130.924 20.0825ZM134.718 20.0825C134.718 19.2009 134.033 18.4956 133.038 18.4956C132.043 18.4956 131.359 19.1421 131.359 20.0825C131.359 21.0228 132.105 21.6693 133.038 21.6693C133.971 21.6693 134.718 21.0228 134.718 20.0825ZM136.521 18.2018H136.086V21.9632H138.76V21.6105H136.521V18.2018ZM139.072 20.0825C139.072 18.9658 139.942 18.143 141.186 18.143C142.43 18.143 143.301 18.9658 143.301 20.0825C143.301 21.1991 142.43 22.0219 141.186 22.0219C139.942 22.0219 139.072 21.1991 139.072 20.0825ZM142.865 20.0825C142.865 19.2009 142.181 18.4956 141.186 18.4956C140.191 18.4956 139.507 19.1421 139.507 20.0825C139.507 21.0228 140.253 21.6693 141.186 21.6693C142.119 21.6693 142.865 21.0228 142.865 20.0825ZM147.468 20.0825H147.032V21.3167C146.721 21.5518 146.348 21.6105 145.975 21.6105C145.042 21.6105 144.296 20.964 144.296 20.0237C144.296 19.0833 145.042 18.4369 146.037 18.4369C146.473 18.4369 146.908 18.6132 147.219 18.907L147.468 18.6719C147.094 18.3193 146.597 18.143 145.975 18.143C144.731 18.143 143.86 18.9658 143.86 20.0825C143.86 21.1991 144.731 22.0219 145.975 22.0219C146.535 22.0219 147.094 21.8456 147.468 21.5518V20.0825ZM150.018 20.6702V21.9632H149.582V20.6702L147.965 18.2018H148.401L149.769 20.3176L151.137 18.2018H151.573L149.956 20.6702H150.018ZM0.5 17.2615L5.8488 22.1396H23.5745V0.335226H0.5V17.2615ZM17.7903 9.73873C18.0391 8.15189 16.733 7.32908 14.9915 6.74136H15.0537L15.6135 4.5668L14.2452 4.21417L13.6854 6.32996C13.5299 6.30057 13.39 6.27118 13.25 6.2418C13.1101 6.21241 12.9702 6.18303 12.8147 6.15364H12.5659L13.1257 4.03785L11.7574 3.68522L11.1976 5.85978H11.011C10.7622 5.80101 10.3269 5.68347 10.3269 5.68347L8.39881 5.21329L8.02564 6.62382L9.02077 6.85891C9.58052 6.97645 9.64272 7.62294 9.64272 7.62294L9.02077 10.0914L8.08783 13.5001C8.02564 13.6177 7.83905 13.9115 7.46588 13.794L6.47076 13.5589L5.78661 15.0282L7.59027 15.4396C7.72359 15.4396 7.83905 15.4734 7.94622 15.5047C8.03904 15.5318 8.12563 15.5571 8.21223 15.5571C8.33662 15.6159 8.5854 15.6747 8.5854 15.6747L8.02564 17.8492L9.39394 18.2019L9.9537 16.0273C10.3269 16.1449 10.7 16.2624 11.0732 16.3212L10.5135 18.437L11.8818 18.7896L12.4415 16.615C14.8049 17.0264 16.5464 16.8501 17.2927 14.8519C17.9147 13.2063 17.2927 12.2659 16.0488 11.6782C16.9196 11.4431 17.6037 10.9142 17.7903 9.73873ZM14.6183 13.9115C14.2452 15.3808 11.7574 14.7931 10.6378 14.4993H10.5756C10.5135 14.4405 10.3269 14.4405 10.3269 14.4405L11.0732 11.5607C11.1976 11.6194 11.322 11.6194 11.4464 11.6194C11.5178 11.6372 11.5936 11.6556 11.6728 11.6748C12.9038 11.974 14.969 12.4758 14.6183 13.9115ZM11.7176 10.3321L11.6952 10.3264V10.2677H11.4464L12.1305 7.68171C12.2549 7.74048 12.3171 7.74048 12.4415 7.74048C13.4366 7.9168 15.4269 8.3282 15.0537 9.73873C14.6835 11.0798 12.6605 10.5698 11.7176 10.3321Z" fill="#F8F7E7"/>
</svg>
