<svg width="196" height="38" viewBox="0 0 196 38" fill="none" xmlns="http://www.w3.org/2000/svg">
<path fill-rule="evenodd" clip-rule="evenodd" d="M32.1517 0.609653C34.6038 0.786535 36.5698 2.77646 36.7465 5.2307C36.9453 8.17136 34.6479 10.6035 31.7762 10.5814C30.3845 10.5814 29.1253 10.0286 28.2196 9.10001C27.4464 8.30404 26.4082 7.83971 25.3037 7.83971H24.9502C23.8457 7.83971 22.8075 8.30404 22.0343 9.10001C21.1286 10.0065 19.8695 10.5814 18.4778 10.5814C17.0861 10.5814 15.8269 10.0286 14.9212 9.10001C14.148 8.30404 13.1098 7.83971 12.0053 7.83971H11.6077C10.5031 7.83971 9.4649 8.30404 8.69173 9.0779L8.64756 9.12212L8.60338 9.1663C7.83021 9.94016 7.36632 10.9794 7.36632 12.0849V12.4829C7.36632 13.5884 7.83021 14.6275 8.62547 15.4014C9.53117 16.3079 10.1055 17.5682 10.1055 18.9612C10.1055 20.3541 9.55325 21.6144 8.62547 22.5209C7.83021 23.2948 7.36632 24.334 7.36632 25.4395V25.8817C7.36632 26.9872 7.83021 28.0264 8.62547 28.8002L8.66965 28.8445C9.44281 29.6404 10.5031 30.0605 11.5856 30.0605H12.0495C13.1319 30.0605 14.1701 29.5962 14.9433 28.8223C15.849 27.9158 17.1081 27.3631 18.4778 27.3631C21.3716 27.3631 23.669 29.7952 23.4702 32.7359C23.2935 35.2122 21.3053 37.2021 18.8533 37.379C17.2849 37.4896 15.849 36.8926 14.855 35.8534C14.1039 35.0575 13.0877 34.5931 12.0053 34.5931H11.5856C10.5031 34.5931 9.48699 35.0796 8.73591 35.8534C7.78604 36.8484 6.43854 37.4454 4.93638 37.4011C2.3518 37.3127 0.231131 35.2122 0.12068 32.6032C0.0544088 31.1218 0.65085 29.7731 1.62282 28.8223C2.39599 28.0706 2.85988 27.0535 2.85988 25.9701V25.4616C2.85988 24.3561 2.39599 23.3169 1.60073 22.5431C0.69503 21.6365 0.12068 20.3762 0.12068 18.9833C0.12068 17.5903 0.672938 16.3301 1.60073 15.4235C2.39599 14.6497 2.85988 13.6105 2.85988 12.505V12.1291C2.85988 11.0457 2.44017 9.98439 1.64492 9.23264L1.57864 9.1663C-0.45367 7.13219 -0.365309 3.77142 1.82164 1.84783C3.63304 0.233779 6.39436 0.189558 8.27202 1.71517C8.42663 1.84783 8.58129 2.0026 8.73591 2.15737C9.48699 2.93123 10.5253 3.35132 11.6077 3.35132H11.9832C13.0877 3.35132 14.126 2.88701 14.8991 2.09104C15.8048 1.18452 17.064 0.609653 18.4557 0.609653C19.8474 0.609653 21.1065 1.16241 22.0122 2.09104C22.7854 2.88701 23.8237 3.35132 24.9281 3.35132H25.3258C26.4082 3.35132 27.4244 2.88701 28.1754 2.11315C29.1695 1.09608 30.5833 0.499102 32.1517 0.609653ZM93.6911 7.09991C94.8728 8.28284 94.8728 10.2007 93.6911 11.3836C92.5088 12.5666 90.5929 12.5666 89.4111 11.3836C88.2293 10.2007 88.2293 8.28284 89.4111 7.09991C90.5929 5.91698 92.5088 5.91698 93.6911 7.09991ZM54.7285 26.721C51.1279 26.721 48.8967 23.493 48.8967 19.0267C48.8967 14.6046 50.7744 11.3102 54.7064 11.3102C57.2908 11.3102 58.9918 12.9685 59.3014 15.1574H65.31C65.0003 12.4378 63.7855 10.0499 61.665 8.45798C59.9418 7.13134 57.5561 6.3133 54.7285 6.3133C47.4829 6.3133 42.7776 11.7966 42.7776 19.0267C42.7776 26.3009 47.6375 31.6295 54.7729 31.6295C58.1965 31.6295 60.6927 30.6788 62.5485 28.8657C64.2051 27.2738 65.31 25.0628 65.4643 22.6528H59.4557C59.191 25.0186 57.4234 26.721 54.7285 26.721ZM76.5535 13.2342C70.9867 13.2342 67.2534 17.214 67.2534 22.4542C67.2534 27.6943 70.9867 31.6741 76.5535 31.6741C82.1641 31.6741 85.8313 27.6943 85.8313 22.4542C85.8313 17.214 82.1641 13.2342 76.5535 13.2342ZM76.5313 27.7164C74.1233 27.7164 72.8641 25.6159 72.8641 22.4542C72.8641 19.2924 74.1233 17.1477 76.5313 17.1477C78.9392 17.1477 80.2423 19.2924 80.2423 22.4542C80.2206 25.6159 78.9392 27.7164 76.5313 27.7164ZM86.7367 17.6125H89.0559V31.1218H94.5788V13.699H86.7367V17.6125ZM102.797 16.0867C104.078 14.2073 105.757 13.1903 108.164 13.1903C111.964 13.1903 114.217 15.9098 114.217 19.7791V31.0996H108.673V20.9067C108.673 19.0716 107.767 17.8113 105.956 17.8113C104.122 17.8113 102.907 19.3369 102.907 21.4816V31.0996H97.3626V13.6988H102.686V16.0867H102.797ZM127.207 6.80061H116.847V31.0998H126.832C129.88 31.0998 132.332 30.3259 134.232 28.8887C136.949 26.8104 138.451 23.3833 138.451 19.0939C138.451 11.6648 133.923 6.80061 127.207 6.80061ZM126.39 26.0587H122.856V11.8418H126.456C130.234 11.8418 132.376 14.694 132.376 19.116C132.354 23.5602 130.322 26.0587 126.39 26.0587ZM148.921 13.3231C151.395 13.3231 153.361 14.1412 154.863 15.4899C156.94 17.3913 157.956 20.3983 157.934 23.9581H145.431C145.784 26.3018 147.065 27.7611 149.341 27.7611C150.799 27.7611 151.749 27.1199 152.234 26.0365H157.625C157.249 27.6063 156.233 29.0877 154.709 30.149C153.251 31.166 151.484 31.7409 149.275 31.7409C143.531 31.7409 139.996 27.7611 139.996 22.4988C139.996 17.3029 143.619 13.3231 148.921 13.3231ZM149.009 17.2366C146.911 17.2366 145.828 18.5632 145.453 20.6416H152.301C152.102 18.5632 150.799 17.2366 149.009 17.2366ZM168.093 20.0902L168.093 20.0901C166.209 19.7684 164.671 19.5058 164.671 18.4302C164.671 17.3468 165.731 16.8382 167.078 16.8382C168.603 16.8382 169.663 17.3246 169.862 18.8724H174.965C174.7 15.4453 172.049 13.3006 167.123 13.3006C163.014 13.3006 159.612 15.2021 159.612 18.8724C159.612 22.9628 162.837 23.7587 165.864 24.2673C166.087 24.3056 166.308 24.3418 166.525 24.3774C168.567 24.7122 170.282 24.9931 170.282 26.412C170.282 27.5396 169.222 28.1366 167.564 28.1366C165.731 28.1366 164.582 27.2964 164.361 25.5497H159.126C159.303 29.3969 162.484 31.7405 167.587 31.7405C172.137 31.7405 175.495 29.7728 175.495 25.9698C175.517 21.5256 171.916 20.7296 168.846 20.2211C168.591 20.1752 168.339 20.1322 168.093 20.0902ZM194.649 13.699L188.53 20.2437L195.355 31.1219H188.949L184.774 24.0024L183.095 25.7712V31.1219H177.639V6.80061H183.095V19.5804L188.264 13.699H194.649ZM18.4341 20.6418C19.3613 20.6418 20.1129 19.8895 20.1129 18.9614C20.1129 18.0334 19.3613 17.2811 18.4341 17.2811C17.5069 17.2811 16.7552 18.0334 16.7552 18.9614C16.7552 19.8895 17.5069 20.6418 18.4341 20.6418ZM33.4996 18.9614C33.4996 19.8895 32.748 20.6418 31.8208 20.6418C30.8935 20.6418 30.1419 19.8895 30.1419 18.9614C30.1419 18.0334 30.8935 17.2811 31.8208 17.2811C32.748 17.2811 33.4996 18.0334 33.4996 18.9614ZM31.8208 34.0627C32.748 34.0627 33.4996 33.3104 33.4996 32.3823C33.4996 31.4543 32.748 30.702 31.8208 30.702C30.8935 30.702 30.1419 31.4543 30.1419 32.3823C30.1419 33.3104 30.8935 34.0627 31.8208 34.0627Z" fill="#F8F7E7"/>
</svg>
