<svg width="160" height="39" viewBox="0 0 160 39" fill="none" xmlns="http://www.w3.org/2000/svg">
<path fill-rule="evenodd" clip-rule="evenodd" d="M9.63163 0.0440674H28.213L37.5366 9.54824H18.9552L18.8895 9.61565V9.54824L9.6324 0.044854L18.8895 9.61565H0.308105L9.63163 0.0440674ZM18.8894 28.6916H37.4708L28.213 38.1957L9.56598 38.1957L0.308105 28.6914V9.61565L18.8239 9.61567L9.59869 19.0863L9.63164 19.1198V19.1874L18.8894 28.6916ZM28.213 19.12L28.1473 19.1198L18.8895 9.61565L37.4708 9.61567L28.213 19.12ZM28.213 19.12H28.2787L37.5366 28.6241H18.9552L28.213 19.12ZM49.3554 22.2206C49.0927 22.4902 48.6988 22.625 48.2392 22.625L48.1735 22.6924C47.5169 22.6924 46.9916 22.4228 46.729 21.8835C46.4664 21.2769 46.3351 20.468 46.3351 19.4569V19.1873C46.2694 18.3784 46.4007 17.5696 46.729 16.8281C46.9916 16.2215 47.4513 15.9518 48.1735 15.9518C48.6988 15.9518 49.0271 16.154 49.2897 16.4911C49.5523 16.8955 49.6837 17.4348 49.6837 17.9066L53.0979 17.8392C53.1636 16.5585 52.704 15.2104 51.7847 14.3341C50.8655 13.4578 49.6837 13.0534 48.1735 13.0534C46.4007 13.0534 45.0219 13.5926 44.037 14.7385C43.0521 15.8844 42.5925 17.3673 42.5925 19.1873V19.4569C42.4612 21.0747 43.0521 22.625 44.037 23.9057C45.0219 24.9842 46.4007 25.5908 48.2392 25.5908C49.5523 25.5908 50.7999 25.1864 51.7847 24.3101C52.704 23.5013 53.2292 22.288 53.1636 21.0072H49.7493C49.7493 21.5465 49.618 21.9509 49.3554 22.2206ZM59.9921 16.4911H61.3709L61.7649 13.0534C61.3709 12.9186 61.0426 12.9186 60.7143 12.9186C60.1891 12.9186 59.6638 13.1208 59.2698 13.4578C58.8102 13.8623 58.4819 14.3341 58.285 14.9407L58.1536 13.1208H54.6737V25.3212H58.3506V17.2999C58.4819 17.0303 58.6789 16.8281 58.9415 16.6933C59.2042 16.5585 59.5981 16.4911 59.9921 16.4911ZM68.4621 19.9962L68.3964 19.9288L68.2651 19.8614L66.4267 13.0534H62.4871L66.6236 25.3886L66.361 26.1975C66.2297 26.5345 66.0327 26.8041 65.7701 27.0064C65.5074 27.2086 65.1135 27.276 64.5225 27.276L64.3256 27.2086H64.1286L63.669 29.9048C64.1286 30.0396 64.4569 30.107 64.6539 30.107C64.8508 30.1744 65.1135 30.1744 65.4418 30.1744C66.6893 30.1744 67.6085 29.9048 68.1994 29.2981C68.7904 28.6915 69.25 27.95 69.6439 27.0738L74.3714 13.1208H70.4318L68.4621 19.9962ZM82.1848 16.7607C82.5131 17.3673 82.6444 18.2436 82.6444 19.2547L82.5787 19.3221V19.5243C82.6444 20.3332 82.5131 21.0747 82.1848 21.8161C81.9221 22.3554 81.4625 22.625 80.8059 22.625C80.4776 22.625 80.0837 22.5576 79.7554 22.4228C79.4928 22.288 79.0988 21.8161 79.0988 21.8161V16.6933C79.2301 16.4237 79.4928 16.154 79.7554 16.0192C80.018 15.8844 80.412 15.817 80.8059 15.817C81.3969 15.817 81.9221 16.154 82.1848 16.7607ZM85.1394 23.8383C85.9273 22.7598 86.3213 21.2769 86.3213 19.4569V19.3221C86.3869 17.7044 85.993 16.0866 85.1394 14.7385C84.3515 13.5926 83.1696 12.986 81.7252 12.986C80.6089 12.9186 79.5584 13.5252 78.9675 14.5363L78.8362 13.1882H75.3562V29.9722H79.0331V24.2427C79.6897 25.0516 80.6746 25.5234 81.7252 25.5234C83.104 25.5234 84.3515 24.9168 85.1394 23.8383ZM92.3619 13.1208V10.0875L92.2962 10.1549H88.5537V13.1882H86.9122V15.817H88.5537V21.4117C88.5537 22.8946 88.882 23.9057 89.5386 24.5797C90.1295 25.2538 91.0487 25.5908 92.2962 25.5908C93.0841 25.5908 93.872 25.5234 94.5943 25.3212L94.3316 22.4902C94.0033 22.5576 93.6751 22.5576 93.2811 22.5576C93.0841 22.5576 92.8215 22.4902 92.6245 22.288C92.4275 22.0857 92.3619 21.7487 92.3619 21.3443V15.7496H94.3973V13.1208H92.3619ZM99.453 21.7487C99.1247 21.1421 98.9934 20.3332 98.9934 19.3221V19.0525C98.9934 18.1088 99.1247 17.2999 99.453 16.6933C99.7813 16.0866 100.307 15.817 101.029 15.817C101.751 15.817 102.276 16.0866 102.605 16.6933C102.933 17.4348 103.064 18.2436 103.064 19.0525V19.3221C103.064 20.3332 102.933 21.1421 102.605 21.7487C102.276 22.3554 101.751 22.625 101.029 22.625C100.307 22.625 99.7813 22.3554 99.453 21.7487ZM96.8267 14.6711C95.7761 15.8844 95.2509 17.5022 95.3165 19.1199H95.2509V19.3895C95.1852 21.0072 95.7105 22.625 96.761 23.8383C97.8116 24.9168 99.2561 25.5234 101.029 25.5234C102.802 25.5234 104.246 24.9842 105.231 23.8383C106.216 22.6924 106.741 21.2095 106.741 19.3895V19.1199C106.807 17.5022 106.282 15.8844 105.231 14.6711C104.246 13.5252 102.802 12.9186 101.029 12.9186C99.2561 12.9186 97.8116 13.5252 96.8267 14.6711ZM111.868 13.1882L111.863 13.1208L111.994 13.1882H111.868ZM111.868 13.1882H108.514V25.3886H112.191V16.6259C112.585 16.154 113.176 15.8844 113.767 15.8844C114.358 15.8844 114.752 16.0192 115.014 16.2889C115.277 16.5585 115.408 17.0977 115.408 17.7718V25.3212H119.085V17.7718C119.085 16.0866 118.757 14.8733 118.1 14.0645C117.444 13.323 116.524 12.9186 115.342 12.9186C114.686 12.8512 114.029 13.0534 113.438 13.3904C112.847 13.7274 112.388 14.1993 111.994 14.8059L111.868 13.1882ZM125.06 16.4237C125.323 16.0192 125.717 15.817 126.242 15.817C126.833 15.817 127.161 15.9518 127.424 16.2889C127.686 16.6259 127.818 17.0977 127.818 17.7044V17.974H124.6C124.666 17.2999 124.797 16.8281 125.06 16.4237ZM122.302 23.8383C123.353 24.9842 124.732 25.5234 126.504 25.5234V25.5908C127.424 25.5908 128.277 25.456 129.131 25.1864C129.853 24.9168 130.575 24.5797 131.166 24.1753L130.313 21.8835C129.262 22.4228 128.146 22.625 127.03 22.625C126.373 22.625 125.782 22.4228 125.388 22.0183C124.929 21.6139 124.732 21.0747 124.6 20.4006H131.429V18.3784C131.495 16.9629 131.035 15.48 130.05 14.4015C129.131 13.3904 127.883 12.9186 126.242 12.9186C124.469 12.9186 123.156 13.5252 122.171 14.6711C121.186 15.817 120.726 17.2999 120.726 19.1873V19.5917C120.661 21.1421 121.252 22.6924 122.302 23.8383ZM143.247 20.1984H143.182H143.116L141.081 13.1208H138.717L136.747 20.1984H136.682L135.368 13.1208H131.954L134.777 25.3212H137.929L139.899 18.8503H139.965L141.934 25.3212H145.086L147.909 13.1208H144.495L143.247 20.1984ZM155 21.0747C155.263 21.3443 155.46 21.8835 155.46 21.8835V21.9509C155.46 22.3554 155.329 22.625 155.066 22.7598C154.803 22.962 154.409 23.0294 153.95 23.0294C153.359 23.0294 152.899 22.8946 152.571 22.625C152.243 22.4228 152.046 22.0183 152.046 21.4117L148.697 21.4791C148.697 22.4902 149.157 23.5013 150.076 24.3101C150.995 25.1864 152.243 25.5908 153.884 25.5908C155.197 25.6582 156.511 25.2538 157.627 24.5123C158.612 23.8383 159.071 22.8946 159.071 21.8161C159.137 20.805 158.743 19.9288 158.021 19.3221C157.036 18.6481 155.985 18.2436 154.803 18.0414C154.147 17.974 153.556 17.7718 152.965 17.4348C152.702 17.2325 152.505 16.9629 152.505 16.6259C152.505 16.2889 152.637 16.0192 152.899 15.817C153.162 15.5474 153.49 15.48 153.884 15.48C154.409 15.48 154.738 15.6148 155 15.8844C155.263 16.154 155.394 16.4911 155.394 16.9629L159.006 16.8955C159.006 15.7496 158.48 14.6711 157.627 14.0645C156.642 13.323 155.394 12.986 153.819 12.986C152.374 12.986 151.127 13.323 150.273 14.0645C149.419 14.6711 148.96 15.6822 148.96 16.7607C148.96 17.7044 149.288 18.5806 150.01 19.1873C150.93 19.8614 152.046 20.2658 153.162 20.468C153.819 20.5354 154.409 20.7376 155 21.0747Z" fill="#F8F7E7"/>
</svg>
