<svg width="154" height="38" viewBox="0 0 154 38" fill="none" xmlns="http://www.w3.org/2000/svg">
<path fill-rule="evenodd" clip-rule="evenodd" d="M0.147438 26.8878C0.181972 27.364 0.216507 27.8403 0.216507 28.2825V28.3505H0.769057C0.941729 28.1124 1.07987 27.8913 1.218 27.6702C1.35614 27.4491 1.49428 27.2279 1.66695 26.9898C4.09857 23.5613 6.59602 20.1004 9.06841 16.6742C10.1776 15.1371 11.2817 13.607 12.3726 12.0899C12.5798 11.8858 13.0633 11.5457 13.0633 11.5457H19.4176C14.6519 18.1451 9.9552 24.6766 5.32759 31.14C5.32759 31.208 5.46573 31.3441 5.46573 31.3441C6.73453 32.0303 8.01229 32.7341 9.29901 33.4429C11.5846 34.7019 13.8984 35.9764 16.2405 37.1952C16.5858 37.3993 17.2765 37.3993 17.6218 37.1952C20.5758 35.4909 23.5556 33.812 26.5455 32.1274L26.5465 32.1268L26.5482 32.1258L26.5485 32.1256C28.4511 31.0537 30.3578 29.9794 32.2644 28.8948C32.817 28.5546 33.1623 28.0104 33.1623 27.33C33.1838 26.7804 33.2119 26.2176 33.2405 25.6458C33.3039 24.3773 33.3695 23.0642 33.3695 21.7511C33.3464 20.6575 33.331 19.5564 33.3156 18.4527C33.285 16.2603 33.2542 14.058 33.1623 11.8858C33.1623 11.2055 33.0932 10.6612 32.9551 9.84476C32.6788 10.1849 32.6098 10.253 32.4716 10.389C29.7779 14.2162 26.9676 18.1581 24.1573 22.1C23.2206 23.4139 22.2839 24.7277 21.3515 26.0373C21.0062 26.5136 20.6609 26.7177 20.1083 26.7177H14.9972C14.8936 26.7177 14.7727 26.6837 14.6519 26.6496C14.531 26.6156 14.4101 26.5816 14.3065 26.5816C18.2533 20.9531 22.2503 15.3741 26.2118 9.84452L26.2142 9.84124C26.8968 8.88844 27.5784 7.93711 28.2584 6.98725C28.1741 6.90419 28.1241 6.8324 28.0851 6.77646C28.0283 6.69493 27.995 6.64707 27.9131 6.64707C26.7389 6.01208 25.5648 5.36197 24.3906 4.71186L24.3906 4.71183L24.3906 4.71181C22.0422 3.41157 19.6939 2.11133 17.3456 0.932048C16.8621 0.864012 16.2405 0.864012 15.757 1.06812C13.7145 2.17614 11.6721 3.32164 9.62959 4.46714C6.90631 5.99448 4.18302 7.52182 1.45974 8.96029C0.423713 9.57261 0.0783691 10.321 0.0783691 11.3415V25.493C0.0783691 25.9353 0.112904 26.4115 0.147438 26.8878ZM126.129 22.9076C126.198 20.8665 125.438 19.4378 123.504 18.6213C123.541 18.6031 123.573 18.5897 123.603 18.5774C123.684 18.5435 123.748 18.5168 123.849 18.4172C125.369 17.6008 125.922 16.172 125.576 14.6072C125.231 13.1104 124.057 12.2259 122.606 12.0218C121.55 11.8051 120.41 11.7817 119.256 11.758C118.6 11.7446 117.939 11.731 117.288 11.6817H113.765C113.627 11.9538 113.627 12.1579 113.627 12.1579V25.6971C113.627 26.3774 113.973 26.3774 114.456 26.3774H120.465C121.363 26.3774 122.123 26.3774 122.952 26.1733C124.678 25.6971 125.991 24.3363 126.129 22.9076ZM118.595 23.4826C118.119 23.4673 117.638 23.4519 117.15 23.4519C117.15 22.454 117.153 21.4546 117.288 20.3903C118.669 20.3903 120.12 20.4583 121.501 20.5944C122.261 20.6624 122.744 21.2067 122.744 22.0231C122.606 22.7715 122.054 23.3158 121.363 23.4519C120.447 23.5421 119.531 23.5127 118.595 23.4826ZM118.393 17.563C117.979 17.5479 117.564 17.5327 117.15 17.5327H117.081V14.6072C117.498 14.6072 117.922 14.5919 118.345 14.5767C119.181 14.5465 120.007 14.5168 120.741 14.6072C121.432 14.7433 122.123 15.0835 122.123 15.9679C122.123 16.8524 121.777 17.3967 120.879 17.5327C120.051 17.6235 119.222 17.5932 118.393 17.563ZM87.1397 17.7029L87.1398 17.703C87.7441 19.6591 88.3485 21.6151 88.9701 23.5882H89.1773C89.7989 21.6151 90.4033 19.6591 91.0077 17.703L91.0088 17.6992C91.6128 15.7444 92.2168 13.7897 92.838 11.8179H94.9791C94.5003 13.1701 94.0509 14.5222 93.6039 15.8676C93.0836 17.4332 92.5663 18.9897 92.0091 20.5265C91.8064 21.1505 91.5852 21.7653 91.3623 22.3844C90.9777 23.4529 90.5885 24.5342 90.2824 25.6973C90.1046 26.5729 89.4692 26.547 88.8561 26.522C88.7546 26.5178 88.6538 26.5137 88.5557 26.5137C88.0032 26.5137 87.6578 26.3096 87.5197 25.6973C86.4836 22.0914 85.3785 18.6215 84.1353 14.7435C83.6518 15.9681 83.3065 17.1247 83.0302 18.0772C82.6158 19.3699 82.2187 20.6286 81.8215 21.8873L81.8214 21.8876L81.8212 21.8883L81.8206 21.89L81.8206 21.8902L81.8205 21.8903C81.4237 23.1479 81.0269 24.4056 80.6128 25.6973C80.4747 26.2416 80.1293 26.5137 79.5768 26.5137C79.4052 26.4715 79.2071 26.4882 79.0091 26.505C78.5695 26.5422 78.1311 26.5793 77.9882 25.9694C77.194 23.6224 76.4343 21.2924 75.6746 18.9625L75.6746 18.9623L75.6745 18.9622L75.6745 18.962L75.6744 18.9619L75.6744 18.9617C74.9146 16.6315 74.1549 14.3013 73.3606 11.954C73.4415 11.954 73.475 11.9073 73.5028 11.8686C73.5224 11.8413 73.5392 11.8179 73.5678 11.8179C75.5017 11.6819 75.6399 11.6819 76.1924 13.5188C76.3092 13.8871 76.4261 14.2546 76.5427 14.6213L76.5549 14.6597L76.5603 14.6766L76.5628 14.6844L76.5628 14.6846L76.5629 14.6848L76.563 14.685L76.563 14.6851L76.563 14.6852C77.4737 17.5486 78.3716 20.3719 79.1624 23.248C79.1624 23.3129 79.1938 23.3623 79.2342 23.4258C79.2784 23.4954 79.3334 23.5819 79.3696 23.7242C79.9426 21.8051 80.5367 19.9277 81.1286 18.0573C81.6069 16.5459 82.0837 15.0392 82.5467 13.5188C82.6712 13.1816 82.763 12.9073 82.8375 12.6846C83.0038 12.1876 83.084 11.9478 83.2499 11.8397C83.4045 11.739 83.6336 11.7526 84.0761 11.7788C84.3624 11.7957 84.7379 11.8179 85.2404 11.8179H85.3095C85.9311 13.7908 86.5354 15.7467 87.1397 17.7026L87.1397 17.7029ZM152.928 22.7717C152.617 22.4315 152.306 22.0914 151.961 21.7512C148.645 23.9964 146.573 23.9964 144.777 21.8873C143.396 20.2544 143.534 17.533 144.985 15.9681C145.675 15.1517 146.573 14.7435 147.609 14.6074C149.336 14.3353 150.717 15.1517 151.961 16.3763C152.119 16.1888 152.278 16.0049 152.435 15.8229C152.961 15.2126 153.469 14.624 153.895 13.9951C150.994 10.7294 145.537 10.6613 142.498 13.6549C139.528 16.7165 139.528 21.8873 143.189 24.8808C146.366 27.4662 151.201 27.058 153.895 23.7923C153.549 23.4522 153.239 23.1122 152.928 22.7721L152.928 22.7717ZM46.9071 15.492V26.3777H44.835V11.8861C46.2164 11.5459 47.1143 11.8861 47.874 12.9746C49.3182 15.0856 50.8881 17.1965 52.5201 19.391C53.3077 20.45 54.1097 21.5285 54.919 22.6357V11.75H56.9911V26.1736C55.5407 26.6499 55.1953 26.3777 54.3665 25.2891C53.9849 24.7737 53.605 24.2616 53.2269 23.7518C51.2094 21.032 49.241 18.3783 47.3215 15.628C47.2556 15.628 47.2054 15.5971 47.1409 15.5573C47.0703 15.5137 46.9825 15.4595 46.838 15.4239L46.9071 15.492ZM63.1381 19.982H70.1831L70.1141 19.914C70.1141 19.2336 70.1141 18.6213 70.2522 17.8049H63.2072V13.4506H71.1501V11.6817H61.066V26.2414H71.2882V24.3363H63.1381V19.982ZM139.666 11.6818L139.804 11.8859C139.942 13.7456 139.068 14.6754 137.18 14.6754H135.453V26.2415H132.069V14.6754H128.546C127.717 14.6754 127.51 14.4713 127.51 13.6549C127.51 12.2942 128.201 11.6138 129.582 11.6138H139.666V11.6818ZM96.3712 23.463C96.2564 23.6734 96.1357 23.8946 96.0149 24.1325H95.8768C97.9488 26.0375 100.366 26.7859 103.06 26.5818C104.718 26.3777 106.237 25.5612 106.79 23.9964C107.618 21.7512 107.135 19.8462 104.303 18.7577C103.612 18.4855 102.939 18.2304 102.266 17.9753C101.592 17.7201 100.919 17.465 100.228 17.1928C99.3993 16.8526 98.9849 16.2403 99.1921 15.4239C99.3993 14.8796 99.9518 14.4033 100.435 14.0632C100.781 13.8591 101.333 13.723 101.817 13.8591C102.697 13.9891 103.577 14.2297 104.475 14.4751C104.987 14.6149 105.504 14.7562 106.03 14.8796C106.187 14.6079 106.323 14.3141 106.474 13.9855C106.588 13.7381 106.71 13.4709 106.859 13.1787C104.718 11.9541 102.438 11.4098 99.9518 12.0901C98.156 12.4983 97.0509 13.723 96.9128 15.0837C96.7056 17.465 97.6035 18.5535 99.5374 19.37C100.005 19.5324 100.483 19.6841 100.968 19.8379C101.701 20.0705 102.45 20.3079 103.198 20.5946C103.958 20.9348 104.649 21.343 104.787 22.3636C104.925 23.4521 103.958 24.3366 102.507 24.4727C100.297 24.6087 98.5014 23.7923 96.9128 22.3636C96.7781 22.7175 96.5849 23.0715 96.3712 23.463Z" fill="#F8F7E7"/>
</svg>
