<svg width="201" height="40" viewBox="0 0 201 40" fill="none" xmlns="http://www.w3.org/2000/svg">
<path fill-rule="evenodd" clip-rule="evenodd" d="M22.9985 14.5136L22.3545 14.2789L5.44262 8.15206L13.3839 5.18195L13.739 5.30834L14.4041 5.55209L23.0135 8.66662L30.0069 11.1884L30.66 11.4231L31.0692 11.5705L23.6364 14.2789L22.9985 14.5136ZM18.6231 8.08886L16.9198 7.38168L14.8795 8.10389L16.5828 8.81407L18.6231 8.08886ZM17.1184 10.1141L15.7161 9.53027L14.043 10.1261L15.4393 10.7159L17.1184 10.1141ZM20.7295 9.51223L19.3272 8.92845L17.648 9.53027L19.0504 10.1141L20.7295 9.51223ZM15.2136 6.62939L13.7842 6.04259L12.1291 6.63842L13.5555 7.23123L15.2136 6.62939ZM12.1261 7.49305L9.21018 8.51918L11.6416 9.53027L14.5576 8.50114L12.1261 7.49305ZM8.91829 4.18289L10.5312 3.64123L11.8884 4.19493L10.2724 4.7396L8.91829 4.18289ZM5.77364 4.95927L3.59495 4.06553L6.19495 3.19586L8.3736 4.0866L5.77364 4.95927ZM3.47158 4.95325L5.37341 5.73265L3.10445 6.49398L1.20262 5.71459L3.47158 4.95325ZM2.12646 2.54286L3.7063 3.18985L1.82252 3.82179L0.242676 3.1748L2.12646 2.54286ZM6.17685 1.36625L7.21807 1.79356L5.97826 2.20883L4.94008 1.78454L6.17685 1.36625ZM2.25886 0.436401L3.29705 0.860702L2.06025 1.27898L1.01905 0.851675L2.25886 0.436401ZM117.692 33.8149C113.013 33.8149 110.57 30.6582 110.57 26.3941V23.9867C110.57 19.7227 113.013 16.5629 117.692 16.5629C122.372 16.5629 124.824 19.7166 124.824 23.9807V26.3881C124.824 30.6582 122.372 33.8149 117.692 33.8149ZM120.883 23.9807C120.883 21.5342 119.781 19.9544 117.692 19.9544C115.604 19.9544 114.503 21.5342 114.503 23.9807V26.3881C114.503 28.8316 115.607 30.4114 117.692 30.4114C119.778 30.4114 120.883 28.8316 120.883 26.3881V23.9807ZM134.981 33.8149C134.024 33.8073 133.067 33.738 132.119 33.6072V38.8854C132.119 39.045 132.055 39.1981 131.943 39.311C131.83 39.4238 131.677 39.4873 131.517 39.4873H128.776C128.616 39.4873 128.463 39.4238 128.35 39.311C128.237 39.1981 128.174 39.045 128.174 38.8854V18.1368C128.174 17.6914 128.294 17.5109 128.98 17.3333C130.939 16.8363 132.951 16.5757 134.972 16.5569C139.769 16.5569 142.095 19.3886 142.095 24.0379V26.3339C142.104 30.9832 139.778 33.8149 134.981 33.8149ZM138.168 24.0379C138.168 21.5944 137.541 19.7768 134.981 19.7768C134.023 19.7678 133.065 19.8373 132.119 19.9844V30.3873C133.068 30.5131 134.024 30.5835 134.981 30.598C137.541 30.598 138.168 28.7925 138.168 26.3339V24.0379ZM158.528 26.5446H148.808V26.6318C148.808 28.3622 149.525 30.4174 152.386 30.4174C154.562 30.4174 156.617 30.2399 157.869 30.1165H157.959C158.26 30.1165 158.495 30.267 158.495 30.5649V32.5329C158.495 33.0084 158.408 33.216 157.869 33.3063C155.966 33.6861 154.028 33.8556 152.088 33.8119C149.106 33.8119 144.866 32.205 144.866 26.3309V24.1281C144.866 19.4789 147.46 16.5569 152.022 16.5569C156.584 16.5569 159.13 19.6955 159.13 24.1281V25.7983C159.13 26.2737 158.943 26.5446 158.528 26.5446ZM155.158 23.6226C155.158 21.2965 153.876 19.9544 152.028 19.9544C150.18 19.9544 148.838 21.2664 148.838 23.6226V23.74H155.158V23.6226ZM175.007 33.0415C173.047 33.536 171.036 33.7957 169.015 33.8149C164.2 33.8149 161.892 30.9832 161.892 26.3339V24.0379C161.892 19.3886 164.216 16.5569 169.015 16.5569C169.973 16.5658 170.928 16.6362 171.877 16.7676V11.4894C171.877 11.3298 171.94 11.1767 172.053 11.0638C172.166 10.951 172.319 10.8876 172.478 10.8876H175.22C175.38 10.8876 175.533 10.951 175.646 11.0638C175.759 11.1767 175.822 11.3298 175.822 11.4894V32.2531C175.813 32.6834 175.681 32.864 175.007 33.0415ZM171.877 19.9965C170.928 19.8731 169.972 19.8039 169.015 19.7888C166.451 19.7888 165.825 21.5944 165.825 24.0499V26.3459C165.825 28.7895 166.451 30.61 169.015 30.61C169.973 30.6197 170.93 30.5493 171.877 30.3994V19.9965ZM183.203 14.5317H180.312C180.15 14.5319 179.994 14.4692 179.878 14.357C179.761 14.2448 179.692 14.0917 179.686 13.9299V11.3119C179.692 11.1498 179.76 10.9962 179.876 10.8839C179.993 10.7715 180.15 10.7092 180.312 10.71H183.203C183.363 10.71 183.516 10.7734 183.629 10.8863C183.742 10.9991 183.805 11.1522 183.805 11.3119V13.9359C183.804 14.0944 183.74 14.246 183.627 14.3576C183.514 14.4692 183.362 14.5317 183.203 14.5317ZM183.113 33.5771H180.369C180.207 33.5716 180.054 33.5032 179.941 33.3863C179.828 33.2695 179.766 33.1134 179.767 32.9512V17.3634C179.767 17.2038 179.83 17.0507 179.944 16.9379C180.056 16.825 180.209 16.7616 180.369 16.7616H183.113C183.273 16.7616 183.426 16.825 183.539 16.9379C183.652 17.0507 183.715 17.2038 183.715 17.3634V32.9512C183.716 33.1134 183.654 33.2695 183.541 33.3863C183.429 33.5032 183.276 33.5716 183.113 33.5771ZM199.535 33.5771H197.001C196.842 33.5771 196.688 33.5138 196.575 33.4009C196.462 33.288 196.399 33.1349 196.399 32.9753V32.4999C195.143 33.3187 193.685 33.7719 192.186 33.8088C189.713 33.8088 187.031 32.8579 187.031 28.8316V28.7233C187.031 25.3228 189.117 23.5654 194.305 23.5654H196.183V22.2504C196.183 20.3125 195.318 19.843 193.558 19.843C191.936 19.8378 190.315 19.9172 188.702 20.0808H188.551C188.25 20.0808 188.015 19.9904 188.015 19.5752V17.6613C188.015 17.3333 188.193 17.1227 188.581 17.0354C190.221 16.7133 191.888 16.5531 193.558 16.5569C197.792 16.5569 200.116 18.4347 200.116 22.2504V32.9813C200.114 33.1363 200.053 33.2847 199.945 33.3957C199.837 33.5067 199.689 33.5717 199.535 33.5771ZM196.197 26.1865H194.32C191.611 26.1865 191.01 27.0501 191.01 28.7203V28.8376C191.01 30.3001 191.666 30.6852 193.155 30.6852C194.222 30.6611 195.267 30.3748 196.197 29.8517V26.1865ZM24.2923 14.9771L23.6363 15.2148V39.8032L31.5867 35.3736V20.8842L40.3646 17.6974L41.1048 17.4266L41.159 8.87134L24.2923 14.9771ZM31.3038 10.7311L31.9418 10.9628L32.3631 11.1163L40.5481 8.15213L32.6068 5.17904L31.5867 5.55218L24.3074 8.1973L30.6598 10.4993L31.3038 10.7311ZM59.127 33.6072C58.459 33.7329 57.7815 33.8024 57.1018 33.8148C53.7345 33.8148 52.3623 33.0716 52.3623 29.0783V19.7166L49.5607 19.3013C49.4044 19.2914 49.257 19.2248 49.1462 19.114C49.0354 19.0032 48.9688 18.8558 48.9589 18.6994V17.3633C48.9589 17.2037 49.0223 17.0507 49.1351 16.9378C49.248 16.8249 49.4011 16.7615 49.5607 16.7615H52.3623V14.321C52.3716 14.1644 52.438 14.0167 52.5489 13.9058C52.6599 13.7949 52.8076 13.7285 52.9641 13.7192L55.7357 13.2437H55.856C55.9176 13.2366 55.98 13.2431 56.0388 13.2626C56.0977 13.282 56.1516 13.314 56.1968 13.3564C56.242 13.3987 56.2775 13.4505 56.3008 13.5079C56.324 13.5654 56.3345 13.6272 56.3315 13.6891V16.7675H59.0157C59.1753 16.7675 59.3284 16.8309 59.4412 16.9438C59.5541 17.0567 59.6175 17.2097 59.6175 17.3693V19.1268C59.6175 19.2864 59.5541 19.4394 59.4412 19.5523C59.3284 19.6652 59.1753 19.7286 59.0157 19.7286H56.3315V29.0783C56.3315 30.5678 56.4217 30.7454 57.496 30.7454H59.0759C59.4641 30.7454 59.7018 30.8959 59.7018 31.1938V33.0716C59.6958 33.3695 59.5243 33.538 59.127 33.6072ZM75.5216 26.5445H65.8048V26.6318C65.8048 28.3621 66.5174 30.4174 69.3826 30.4174C71.5581 30.4174 73.6134 30.2399 74.8653 30.1165H74.9555C75.2568 30.1165 75.4909 30.2669 75.4909 30.5648V32.5329C75.4909 33.0084 75.4007 33.216 74.8653 33.3063C72.9616 33.6861 71.0221 33.8556 69.0813 33.8118C66.1022 33.8118 61.8594 32.2048 61.8594 26.3309V24.1281C61.8594 19.4788 64.4531 16.5569 69.0154 16.5569C73.5776 16.5569 76.1172 19.6955 76.1172 24.1281V25.7983C76.1172 26.2737 75.9394 26.5445 75.5216 26.5445ZM72.1633 23.6225C72.1633 21.2965 70.8813 19.9543 69.0333 19.9543C67.1859 19.9543 65.8438 21.2663 65.8438 23.6225V23.7399H72.1633V23.6225ZM89.5295 33.4297C88.2668 33.7085 86.9759 33.8378 85.6837 33.8148C81.8078 33.8148 78.8857 31.4315 78.8857 26.5716V23.8001C78.8857 18.9432 81.8078 16.5569 85.6837 16.5569C86.9765 16.5344 88.2674 16.6647 89.5295 16.9451C90.0349 17.0654 90.1551 17.246 90.1551 17.7184V19.6564C90.1551 19.9573 89.9172 20.1048 89.6197 20.1048H89.5295C88.2546 19.9386 86.9688 19.8691 85.6837 19.8971C84.2809 19.8971 82.8218 20.7006 82.8218 23.8091V26.5807C82.8218 29.6831 84.2809 30.4926 85.6837 30.4926C86.9688 30.519 88.254 30.4496 89.5295 30.285H89.6197C89.9204 30.285 90.1551 30.4325 90.1551 30.7304V32.6683C90.1551 33.1317 90.0349 33.3093 89.5295 33.4297ZM106.607 33.5771H103.866C103.703 33.5716 103.55 33.5032 103.438 33.3863C103.325 33.2694 103.262 33.1133 103.264 32.9512V23.1441C103.264 20.5531 102.815 19.8971 100.817 19.8971C99.8061 19.8971 98.6112 20.2552 97.3593 20.9082V32.9452C97.3599 33.1073 97.2979 33.2634 97.1853 33.3803C97.0733 33.4971 96.9198 33.5656 96.7573 33.5711H94.0163C93.8538 33.5656 93.7003 33.4971 93.5883 33.3803C93.4757 33.2634 93.413 33.1073 93.4143 32.9452V11.4893C93.4143 11.3297 93.4777 11.1767 93.5902 11.0638C93.7035 10.9509 93.8564 10.8875 94.0163 10.8875H96.7573C96.9173 10.8875 97.0701 10.9509 97.1827 11.0638C97.296 11.1767 97.3593 11.3297 97.3593 11.4893V17.6613C98.4941 16.9752 99.7453 16.5569 101.873 16.5569C105.987 16.5569 107.209 19.4788 107.209 23.1441V32.9512C107.209 33.1133 107.147 33.2694 107.035 33.3863C106.922 33.5032 106.768 33.5716 106.607 33.5771ZM21.7001 14.9771L22.3561 15.2148V39.8002L14.4058 35.3736V12.338L21.7001 14.9771ZM13.1208 11.8744L4.83042 8.87116L4.88459 17.4264L5.62486 17.6973L13.1208 20.4206V11.8744Z" fill="#F8F7E7"/>
</svg>
