<svg width="24" height="24" viewBox="0 0 24 24" fill="none" xmlns="http://www.w3.org/2000/svg">
<path d="M23.5741 11.929C23.5741 18.2412 18.4573 23.358 12.1451 23.358C5.83289 23.358 0.716064 18.2412 0.716064 11.929C0.716064 5.61682 5.83289 0.5 12.1451 0.5C18.4573 0.5 23.5741 5.61682 23.5741 11.929Z" fill="#462B12"/>
<path d="M15.1524 6.6458L8.49129 13.307L11.1865 14.7734L14.1406 14.204L16.6739 12.8234L17.1757 10.5458L16.6739 8.10439L15.1524 6.6458Z" fill="white"/>
<path d="M3.71606 16.9629C3.75993 16.9127 3.78794 16.8752 3.82144 16.8431C4.91068 15.7982 6.00186 14.7552 7.08947 13.7088C7.61606 13.2021 8.1342 12.6873 8.65997 12.1797C10.296 10.6005 11.9342 9.02316 13.5708 7.44475C14.0427 6.9897 14.51 6.53029 14.9848 6.0782C15.2236 5.85075 15.4636 5.62252 15.722 5.41676C16.1726 5.05765 16.7068 4.95687 17.2761 5.01568C17.7732 5.06701 18.2179 5.25062 18.6073 5.55295C18.9084 5.78679 19.1563 6.06603 19.3358 6.39722C19.4151 6.54355 19.4996 6.6905 19.5522 6.8465C19.611 7.02059 19.6367 7.20514 19.6754 7.38548C19.6819 7.41574 19.6929 7.46847 19.681 7.47486C19.6359 7.49904 19.5831 7.51308 19.5315 7.52275C19.379 7.55115 19.2236 7.56768 19.073 7.60341C18.7113 7.68905 18.4202 7.88592 18.1787 8.15517C18.0003 8.35407 17.875 8.58324 17.7684 8.82302C17.6387 9.11425 17.5019 9.40365 17.4663 9.72391C17.4581 9.79863 17.4548 9.87431 17.4567 9.94947C17.4713 10.519 17.4207 11.0819 17.2606 11.6319C17.1395 12.0477 16.9645 12.44 16.7406 12.8172C16.4355 13.3316 16.0454 13.7721 15.5894 14.1619C14.8752 14.7725 14.0476 15.1653 13.1097 15.3388C12.6485 15.4241 12.1825 15.4699 11.7125 15.4427C11.0476 15.4042 10.409 15.2575 9.79971 14.9948C9.59381 14.9061 9.39068 14.8006 9.17456 14.7466C8.37588 14.547 7.652 14.7162 7.01275 15.2123C6.785 15.389 6.57149 15.5831 6.35604 15.774C6.1448 15.9616 5.94326 16.1594 5.73057 16.3452C5.35907 16.6698 4.93237 16.8968 4.43057 16.9623C4.22645 16.989 4.01666 16.976 3.80946 16.9798C3.78664 16.9802 3.76349 16.9717 3.71606 16.9629ZM14.8349 9.89052C14.7876 9.89052 14.7635 9.89349 14.7405 9.89004C14.2724 9.82032 13.8334 10.0638 13.6272 10.4371C13.3206 10.9923 13.6458 11.7316 14.2771 11.8906C14.3451 11.9078 14.3561 11.9304 14.3113 11.9793C14.105 12.2041 13.8831 12.4115 13.6089 12.5602C13.1642 12.8013 12.6867 12.9029 12.1783 12.8729C11.6501 12.8419 11.1826 12.6614 10.7758 12.3367C10.6515 12.2375 10.5361 12.128 10.4124 12.0279C10.3442 11.9728 10.2836 11.9778 10.2164 12.0343C10.1575 12.0837 10.1014 12.1364 10.0448 12.1884C9.87692 12.3425 9.70775 12.4954 9.54217 12.6519C9.3981 12.7881 9.39649 12.9064 9.54006 13.0403C9.65436 13.1467 9.77317 13.249 9.89571 13.3464C10.8456 14.1022 11.9209 14.3658 13.1286 14.108C13.5819 14.0112 14.0137 13.8612 14.4144 13.6336C14.9793 13.3125 15.4269 12.8806 15.7414 12.3232C15.9837 11.8937 16.127 11.4341 16.2087 10.9535C16.3203 10.2988 16.2477 9.66353 15.9965 9.04843C15.8108 8.59401 15.531 8.19418 15.1854 7.83912C14.9893 7.63773 14.8951 7.64319 14.6996 7.82461C14.4958 8.01384 14.2899 8.20105 14.0871 8.39137C13.95 8.52005 13.9483 8.52521 14.0897 8.65189C14.3839 8.91551 14.5931 9.23235 14.7345 9.59226C14.7713 9.68569 14.7991 9.78242 14.8349 9.89052Z" fill="white"/>
</svg>
