<svg width="24" height="24" viewBox="0 0 24 24" fill="none" xmlns="http://www.w3.org/2000/svg">
<path d="M17.7191 3.3575L10.2182 2.28594L5.57473 2.64312L4.14597 18.3594L10.9325 22.2884H14.5044L20.5766 18.3594L19.8622 5.50062L17.7191 3.3575Z" fill="white"/>
<path d="M11.6057 0.5C11.8789 0.5 12.1549 0.5 12.4281 0.5C12.4476 0.502788 12.4671 0.511153 12.4866 0.511153C12.5563 0.513942 12.6233 0.511153 12.6929 0.51673C13.178 0.547401 13.6575 0.605955 14.1342 0.695181C15.1741 0.890363 16.1666 1.2166 17.1089 1.69618C19.5093 2.91467 21.2851 4.74659 22.4142 7.19193C23.0554 8.57772 23.3955 10.036 23.429 11.564C23.4429 12.1579 23.4318 12.7518 23.3538 13.343C23.2924 13.8225 23.2087 14.2966 23.0861 14.7622C22.509 16.9733 21.3827 18.8582 19.6876 20.3918C17.672 22.2126 15.2996 23.1912 12.587 23.3446C12.0294 23.3753 11.4746 23.3586 10.9226 23.3083C10.3678 23.2582 9.8214 23.1661 9.28062 23.0295C7.15624 22.4997 5.33019 21.4485 3.80523 19.8787C2.51723 18.5543 1.60561 17.0012 1.07034 15.2306C0.802701 14.3523 0.646581 13.4545 0.601975 12.5371C0.599187 12.4702 0.585248 12.4033 0.574097 12.3363C0.574097 12.0631 0.574097 11.787 0.574097 11.5138C0.58246 11.4496 0.5964 11.3856 0.601975 11.3186C0.624278 11.0732 0.638218 10.8279 0.663309 10.5825C0.71349 10.1113 0.797125 9.64285 0.914216 9.18279C1.48852 6.89637 2.65384 4.96408 4.41019 3.39147C5.81806 2.13673 7.44618 1.28351 9.28341 0.82902C9.75454 0.711911 10.2312 0.622685 10.7135 0.575284C10.9923 0.547401 11.2739 0.53346 11.5555 0.511153C11.5722 0.511153 11.5889 0.502788 11.6057 0.5ZM12.3082 21.482C13.1445 20.1352 13.9726 18.8024 14.8061 17.464C15.3302 17.9465 15.8432 18.4204 16.3674 18.9C16.8664 18.1053 17.3598 17.3191 17.8561 16.5272C18.4834 17.0179 19.1022 17.5031 19.7211 17.991C19.7211 17.991 19.7267 17.991 19.7267 17.9938C19.7267 17.9938 19.7323 17.9938 19.7351 17.9938C19.7351 17.9938 19.7351 17.991 19.7407 17.9855C19.7351 17.9632 19.7267 17.9409 19.7184 17.9157C19.5957 17.5728 19.4786 17.2326 19.3531 16.8897C19.1189 16.2484 18.8987 15.6014 18.8346 14.9156C18.8067 14.606 18.7677 14.2994 18.737 13.9926C18.712 13.7249 18.6896 13.4573 18.6701 13.1868C18.645 12.841 18.6199 12.4925 18.6004 12.1467C18.5809 11.8261 18.5641 11.5027 18.5502 11.182C18.5251 10.7108 18.5001 10.2396 18.4806 9.76551C18.4638 9.40303 18.4359 9.04056 18.3746 8.68366C18.2575 8.00057 18.0345 7.35366 17.6915 6.74859C17.6804 6.72629 17.6665 6.70677 17.647 6.6761C17.6191 6.70956 17.594 6.73744 17.5717 6.76811C17.371 7.01348 17.1758 7.26443 16.9472 7.4847C16.9109 7.52095 16.8803 7.56278 16.8524 7.6046C16.7771 7.71611 16.7381 7.84163 16.7409 7.97821C16.7409 8.09816 16.7688 8.20967 16.8078 8.32119C16.8775 8.52192 16.9305 8.72831 16.9472 8.94298C16.9974 9.54527 16.8078 10.0528 16.345 10.4514C16.0941 10.6662 15.8014 10.8056 15.4864 10.8948C15.2829 10.9506 15.0794 10.9979 14.873 11.0482C14.8173 11.0621 14.7615 11.076 14.703 11.0927C14.6946 11.235 14.6974 11.3716 14.7225 11.5082C14.781 11.8065 14.9428 12.0324 15.1853 12.2081C15.3358 12.3168 15.5031 12.3977 15.6676 12.4841C15.8488 12.5761 16.03 12.6682 16.2056 12.7685C16.3311 12.841 16.4426 12.9358 16.5346 13.0473C16.5541 13.0725 16.5736 13.0976 16.5932 13.1254C16.4314 13.2286 16.2809 13.329 16.1081 13.3987C15.3107 13.7194 14.6723 14.238 14.204 14.9629C13.9251 15.3951 13.7245 15.8636 13.5711 16.3515C13.4261 16.8116 13.2896 17.2744 13.1306 17.7289C12.8686 18.4929 12.5925 19.2541 12.3221 20.0181C12.3166 20.0349 12.3082 20.0488 12.2999 20.0711C12.2915 20.0544 12.2831 20.0432 12.2804 20.0321C12.2023 19.823 12.1186 19.6166 12.049 19.4047C11.6921 18.3368 11.3352 17.2689 10.9812 16.1982C10.8641 15.8468 10.7331 15.5011 10.5546 15.172C10.142 14.4164 9.54823 13.8616 8.74813 13.5325C8.6394 13.4879 8.53346 13.4266 8.4303 13.368C8.31879 13.3039 8.21006 13.2342 8.09854 13.1645C8.07625 13.1506 8.05675 13.1366 8.02882 13.1199C8.05111 13.092 8.0679 13.0669 8.0874 13.0446C8.2017 12.9108 8.34386 12.8048 8.49717 12.7212C8.66169 12.6319 8.83178 12.5483 8.99901 12.4646C9.16353 12.3838 9.3252 12.3001 9.47293 12.1914C9.72946 12.0018 9.88277 11.7508 9.91063 11.4301C9.92177 11.3019 9.91899 11.1736 9.89113 11.0454C9.87162 11.0398 9.85769 11.037 9.84376 11.0342C9.7071 11.0119 9.5733 10.9924 9.43671 10.9729C9.19975 10.9339 8.97115 10.8753 8.75091 10.7749C7.98146 10.4208 7.57721 9.66235 7.7166 8.83146C7.74171 8.68366 7.77515 8.53871 7.80301 8.39091C7.83087 8.23753 7.84208 8.08416 7.83372 7.92807C7.81694 7.67153 7.71381 7.45403 7.54097 7.26722C7.36812 7.0804 7.16181 6.93262 6.94436 6.796C6.94158 6.796 6.936 6.796 6.92763 6.796C6.91927 6.80993 6.90812 6.82388 6.89976 6.83782C6.4537 7.59345 6.21116 8.41041 6.16655 9.28595C6.14703 9.67628 6.15261 10.0667 6.14982 10.4598C6.14425 10.9868 6.14703 11.5166 6.13867 12.0436C6.1303 12.6096 6.09685 13.1756 6.02994 13.7389C5.98255 14.146 5.91564 14.5475 5.82086 14.9462C5.69818 15.4676 5.53649 15.9778 5.36364 16.4853C5.19916 16.9761 5.0291 17.464 4.86183 17.9548C4.85346 17.9827 4.8451 18.0077 4.83674 18.0357C4.84231 18.0357 4.8451 18.0413 4.85068 18.0413C5.4891 17.5393 6.12473 17.0374 6.76873 16.53C7.26218 17.3247 7.75007 18.1138 8.24349 18.9084C8.77041 18.4288 9.29177 17.9548 9.81862 17.4752C10.6494 18.8136 11.4746 20.1436 12.3082 21.4904V21.482ZM6.57915 4.4343C6.58194 4.45939 6.58194 4.46776 6.58472 4.47612C6.69067 4.78284 6.8217 5.07561 7.00291 5.34329C7.38205 5.90095 7.81694 6.414 8.30207 6.88522C8.85685 7.42336 9.46457 7.90013 10.1142 8.32119C10.3316 8.46063 10.5519 8.60001 10.7777 8.72274C11.0899 8.89561 11.4189 8.91233 11.7534 8.78124C11.8733 8.73388 11.9987 8.71159 12.127 8.71716C12.2999 8.72552 12.4699 8.74224 12.6428 8.75895C12.8296 8.77846 13.0163 8.79803 13.2031 8.82032C13.2505 8.82589 13.2979 8.83704 13.3453 8.84539C13.4651 8.86211 13.5794 8.85375 13.6882 8.78403C13.9419 8.62515 14.204 8.47735 14.4548 8.3184C15.0933 7.91692 15.6954 7.47355 16.2502 6.9605C17.003 6.26343 17.6163 5.46039 18.0819 4.54583C18.0958 4.51516 18.1125 4.48449 18.1264 4.45382C18.0457 4.48449 17.9759 4.52631 17.9034 4.56256C17.8031 4.61554 17.7083 4.67688 17.6219 4.75496C17.5215 4.84139 17.4128 4.91389 17.2901 4.96966C17.1619 5.02542 17.0309 5.0533 16.8914 5.04215C16.7326 5.031 16.5876 4.97802 16.4565 4.89437C16.3144 4.80236 16.175 4.70476 16.0412 4.59881C15.0738 3.8376 13.9837 3.39147 12.7515 3.29667C12.2776 3.26042 11.8064 3.28273 11.3408 3.36638C10.5351 3.50858 9.79076 3.80693 9.10774 4.25585C8.92372 4.37853 8.74534 4.5068 8.56132 4.63227C8.39965 4.74101 8.23235 4.84418 8.05389 4.92225C7.93681 4.97244 7.81694 5.01148 7.68872 5.02263C7.45454 5.04773 7.24266 4.98359 7.04473 4.85812C6.88861 4.75774 6.75758 4.63227 6.6377 4.49285C6.62097 4.47334 6.60424 4.45661 6.57915 4.42872V4.4343ZM9.83262 13.0223C9.86327 13.0418 9.88277 13.0586 9.90227 13.0697C10.4153 13.3847 10.839 13.7974 11.1736 14.2994C11.4328 14.6869 11.6336 15.1052 11.8036 15.5402C11.9709 15.9751 12.1298 16.4156 12.2915 16.8506C12.2999 16.8757 12.311 16.9008 12.3277 16.9398C12.3389 16.9036 12.3472 16.8841 12.3556 16.8617C12.4197 16.6638 12.4838 16.4658 12.5507 16.2707C12.7125 15.7883 12.8881 15.3087 13.1195 14.8514C13.4931 14.1097 14.0088 13.4963 14.7142 13.0473C14.7281 13.039 14.7392 13.0278 14.7615 13.0111C14.7253 13 14.7002 12.9916 14.6751 12.9833C14.5274 12.9414 14.3852 12.8885 14.2541 12.8104C13.9865 12.6542 13.8165 12.4256 13.7384 12.1244C13.6965 11.9627 13.6798 11.7982 13.6854 11.6337C13.6965 11.2852 13.6241 10.9534 13.507 10.6271C13.4206 10.3845 13.2923 10.1615 13.1139 9.97189C12.6455 9.46997 11.904 9.51741 11.483 9.95517C11.2962 10.1503 11.1736 10.3789 11.0871 10.6327C10.984 10.9367 10.945 11.2489 10.9198 11.5668C10.9059 11.762 10.8892 11.9571 10.8418 12.1467C10.7665 12.4646 10.5964 12.7128 10.2982 12.8605C10.195 12.9108 10.0863 12.9442 9.98035 12.9833C9.9357 13 9.89113 13.0083 9.83262 13.0223ZM8.79827 8.60279C8.78992 8.61679 8.78434 8.62515 8.78156 8.63351C8.73141 8.79524 8.68955 8.95969 8.67283 9.12979C8.65333 9.32495 8.6979 9.49783 8.84849 9.63449C8.96558 9.74322 9.0966 9.82966 9.23876 9.89938C9.42 9.98861 9.61516 10.0388 9.81862 10.036C10.0751 10.036 10.3149 9.96075 10.5435 9.84916C10.5825 9.82966 10.6216 9.80737 10.6745 9.77951C10.0444 9.38075 9.42557 8.99041 8.80385 8.59722L8.79827 8.60279ZM13.9475 9.79065C14.059 9.8408 14.1538 9.88824 14.2513 9.92724C14.5051 10.0276 14.7699 10.0806 15.0403 10.0248C15.4278 9.94674 15.7234 9.75158 15.8599 9.36124C15.8739 9.31938 15.8906 9.2748 15.9045 9.23294C15.952 9.09635 15.9965 8.95969 16.044 8.8231C16.0495 8.80639 16.0523 8.7896 16.0579 8.7701C15.9687 8.71995 15.8822 8.67251 15.7986 8.62237C15.1853 9.00991 14.5747 9.39468 13.9475 9.79065Z" fill="#462B12"/>
</svg>
