<svg width="1440" height="5187" viewBox="0 0 1440 5187" fill="none" xmlns="http://www.w3.org/2000/svg">
<g clip-path="url(#clip0_0_122)">
<rect width="1440" height="5187" transform="matrix(-1 0 0 1 1440 0)" fill="#613317"/>
<g clip-path="url(#clip1_0_122)">
<path fill-rule="evenodd" clip-rule="evenodd" d="M1439.97 1039.12C1084.33 954.08 1255.08 1092.39 941.34 1092.39C684.244 1092.39 572.086 932.128 409.832 1001.35C274.08 1059.23 178.71 985.117 110.999 1023.21C70.0886 1046.22 31.5572 1057.24 -4 1060.89V1467H1440V1039.12H1439.97Z" fill="#613317"/>
<path fill-rule="evenodd" clip-rule="evenodd" d="M1445 1166.88C1088.13 1228.07 1259.47 1128.55 944.646 1128.55C686.66 1128.55 574.114 1243.87 411.298 1194.06C275.076 1152.41 179.376 1205.74 111.431 1178.33C70.3783 1161.77 31.7135 1153.84 -3.96686 1151.22V858.996H1445.03V1166.88H1445Z" fill="#733C1B"/>
<path fill-rule="evenodd" clip-rule="evenodd" d="M1445 958.915C1303.21 917.069 1220.31 1008.59 1043.7 980.186C928.995 961.736 857.037 1018.61 665.902 980.949C377.077 924.071 363.481 988.549 173.208 1016.16C106.622 1025.81 52.6044 1013.07 -4 998.969V795.813H1445V958.882V958.915Z" fill="#804520"/>
<path fill-rule="evenodd" clip-rule="evenodd" d="M-4 847.481C41.5621 865.932 100.355 839.384 158.982 843.698C249.841 850.368 301.969 806.2 386.66 826.177C408.91 831.42 432.255 837.094 446.017 837.094C540.888 837.094 657.744 871.208 730.067 826.907C756.23 810.879 787.102 833.71 818.571 836.53C864.399 840.645 911.486 829.163 947.034 816.055C1008.55 793.39 1103.45 861.319 1180.61 826.94C1268.02 787.981 1362.7 845.191 1445 863.742V778.026H-4V847.481Z" fill="#5D3922"/>
<path fill-rule="evenodd" clip-rule="evenodd" d="M-4 817.847C29.4586 831.055 72.5668 811.841 115.542 814.96C187.202 820.17 211.011 818.577 276.104 807.66C289.932 805.337 306.446 803.512 326.64 803.512C396.409 803.512 480.105 826.475 535.549 815.159C585.853 804.905 650.35 825.845 695.116 809.817C740.413 793.589 778.547 819.573 835.284 794.552C866.256 780.88 899.913 807.726 936.787 796.178C1005.73 774.575 1109.35 831.121 1190.1 808.29C1278.2 783.335 1333.42 830.225 1444.97 812.637V782.373H-4V817.914V817.847Z" fill="#592D10"/>
<path fill-rule="evenodd" clip-rule="evenodd" d="M1002.08 858.067C1000.59 866.927 987.854 865.633 983.311 864.803C978.867 863.974 981.056 849.306 994.353 852.558C1000.85 854.151 1001.81 859.859 1002.11 858.067H1002.08Z" fill="#703B1A"/>
<path fill-rule="evenodd" clip-rule="evenodd" d="M1018.89 866.728C1011.73 865.268 1014.81 851.629 1026.42 855.379C1031.82 857.138 1025.42 868.022 1018.89 866.728Z" fill="#703B1A"/>
<path fill-rule="evenodd" clip-rule="evenodd" d="M1094.86 858.797C1091.15 859.361 1073.77 873.398 1076.79 881.661C1078.85 887.236 1088.23 877.812 1092.74 877.812C1093.6 877.812 1100.9 876.883 1101.23 875.29C1103.65 874.062 1101.23 857.868 1094.83 858.797H1094.86Z" fill="#703B1A"/>
<path fill-rule="evenodd" clip-rule="evenodd" d="M1113.03 871.905C1109.72 867.126 1105.37 878.343 1113.63 877.314C1115.22 877.115 1115.12 874.925 1113.03 871.905Z" fill="#703B1A"/>
<path fill-rule="evenodd" clip-rule="evenodd" d="M943.784 883.387C929.989 887.037 920.373 879.471 938.014 872.403C951.61 866.961 955.523 880.301 943.784 883.387Z" fill="#703B1A"/>
<path fill-rule="evenodd" clip-rule="evenodd" d="M950.98 863.012C954.362 853.687 967.759 863.841 960.928 868.719C958.076 870.744 948.294 870.345 950.98 863.012Z" fill="#703B1A"/>
<path fill-rule="evenodd" clip-rule="evenodd" d="M972.567 880.367C968.024 885.544 965.769 877.845 966.333 876.119C966.963 874.195 971.473 874.858 972.567 880.367Z" fill="#703B1A"/>
<path fill-rule="evenodd" clip-rule="evenodd" d="M1220.34 929.779C1205.15 939.602 1204.06 955.066 1225.71 944.546C1242.39 936.449 1233.24 921.383 1220.34 929.779Z" fill="#703B1A"/>
<path fill-rule="evenodd" clip-rule="evenodd" d="M1245.54 940.398C1257.15 945.143 1259.07 923.938 1248.69 926.228C1244.38 927.157 1236.42 936.681 1245.54 940.398Z" fill="#703B1A"/>
<path fill-rule="evenodd" clip-rule="evenodd" d="M1247.66 905.388C1238.94 905.255 1244.25 913.883 1246.3 914.846C1248.63 915.908 1251.87 911.129 1247.66 905.388Z" fill="#703B1A"/>
<path fill-rule="evenodd" clip-rule="evenodd" d="M102.113 976.735C100.852 969.202 90.0091 970.297 86.1625 971.027C82.3823 971.724 84.2392 984.202 95.5137 981.414C101.018 980.053 101.847 975.242 102.079 976.735H102.113Z" fill="#703B1A"/>
<path fill-rule="evenodd" clip-rule="evenodd" d="M116.371 969.368C110.27 970.596 112.923 982.177 122.771 978.992C127.347 977.498 121.942 968.24 116.371 969.368Z" fill="#703B1A"/>
<path fill-rule="evenodd" clip-rule="evenodd" d="M180.868 976.071C177.718 975.607 162.961 963.66 165.548 956.658C167.272 951.913 175.264 959.944 179.077 959.944C179.807 959.944 186.008 960.707 186.306 962.101C188.362 963.163 186.306 976.901 180.901 976.105L180.868 976.071Z" fill="#703B1A"/>
<path fill-rule="evenodd" clip-rule="evenodd" d="M196.321 964.955C193.502 969.003 189.821 959.479 196.818 960.342C198.144 960.508 198.078 962.366 196.321 964.955Z" fill="#703B1A"/>
<path fill-rule="evenodd" clip-rule="evenodd" d="M52.6376 955.231C40.8989 952.145 32.7415 958.55 47.7299 964.556C59.2696 969.202 62.6188 957.853 52.6376 955.231Z" fill="#703B1A"/>
<path fill-rule="evenodd" clip-rule="evenodd" d="M58.739 972.521C61.624 980.419 72.9979 971.824 67.1949 967.676C64.7742 965.95 56.4841 966.315 58.739 972.521Z" fill="#703B1A"/>
<path fill-rule="evenodd" clip-rule="evenodd" d="M77.0435 957.787C73.1637 953.406 71.2736 959.91 71.7378 961.404C72.2684 963.03 76.0818 962.499 77.0435 957.787Z" fill="#703B1A"/>
<path fill-rule="evenodd" clip-rule="evenodd" d="M773.142 862.381C800.267 863.642 817.411 851.496 782.36 846.751C755.335 843.101 750.062 861.352 773.142 862.381Z" fill="#703B1A"/>
<path fill-rule="evenodd" clip-rule="evenodd" d="M755.898 837.858C747.807 826.674 723.833 843.134 737.76 847.713C743.563 849.605 762.265 846.652 755.898 837.858Z" fill="#703B1A"/>
<path fill-rule="evenodd" clip-rule="evenodd" d="M717.433 865.666C727.049 871.208 730.034 860.722 728.707 858.631C727.215 856.308 718.626 858.266 717.433 865.666Z" fill="#703B1A"/>
<path fill-rule="evenodd" clip-rule="evenodd" d="M547.586 909.47C541.85 908.541 537.671 904.891 538.268 901.34C538.832 897.789 543.939 895.632 549.675 896.561C555.412 897.49 559.59 901.141 558.993 904.691C558.396 908.242 553.323 910.399 547.586 909.47Z" fill="#703B1A"/>
<path fill-rule="evenodd" clip-rule="evenodd" d="M559.325 925.498C576.502 925.166 564.73 909.603 548.084 917.799C544.536 919.558 527.955 922.412 543.74 933.462C549.576 937.544 559.192 925.498 559.292 925.498H559.325Z" fill="#703B1A"/>
<path fill-rule="evenodd" clip-rule="evenodd" d="M522.152 919.823C524.076 919.392 522.55 912.589 514.26 917.169C512.138 918.33 518.14 920.719 522.152 919.823Z" fill="#703B1A"/>
<path fill-rule="evenodd" clip-rule="evenodd" d="M334.333 858.996C316.858 863.609 304.688 854.052 327.038 845.092C344.248 838.19 349.222 855.114 334.333 858.996Z" fill="#703B1A"/>
<path fill-rule="evenodd" clip-rule="evenodd" d="M343.452 833.212C347.763 821.398 364.708 834.274 356.053 840.413C352.439 842.968 340.07 842.47 343.452 833.212Z" fill="#703B1A"/>
<path fill-rule="evenodd" clip-rule="evenodd" d="M370.776 855.18C365.006 861.717 362.188 851.994 362.884 849.804C363.647 847.382 369.383 848.178 370.776 855.18Z" fill="#703B1A"/>
<path fill-rule="evenodd" clip-rule="evenodd" d="M30.8182 1177.44C37.1186 1177.44 42.2584 1174.25 42.2584 1170.3C42.2584 1166.35 37.1186 1163.17 30.8182 1163.17C24.5178 1163.17 19.3779 1166.38 19.3779 1170.3C19.3779 1174.22 24.5178 1177.44 30.8182 1177.44Z" fill="#542B11"/>
<path fill-rule="evenodd" clip-rule="evenodd" d="M15.3987 1192.63C-3.03835 1189.28 12.348 1174.61 28.7954 1186.33C32.3104 1188.82 49.62 1194.79 30.7519 1203.92C23.7882 1207.3 15.5313 1192.67 15.3987 1192.63Z" fill="#542B11"/>
<path fill-rule="evenodd" clip-rule="evenodd" d="M56.3515 1192.97C54.3619 1192.17 57.1805 1185.1 65.3048 1191.47C67.3939 1193.1 60.5297 1194.62 56.3515 1192.97Z" fill="#542B11"/>
<path fill-rule="evenodd" clip-rule="evenodd" d="M345.906 1354.77C344.016 1365.99 327.867 1364.36 322.13 1363.3C316.493 1362.24 319.278 1343.69 336.091 1347.8C344.314 1349.8 345.508 1357.03 345.906 1354.77Z" fill="#542B11"/>
<path fill-rule="evenodd" clip-rule="evenodd" d="M367.195 1365.76C358.109 1363.93 362.022 1346.68 376.712 1351.39C383.543 1353.61 375.452 1367.42 367.195 1365.76Z" fill="#542B11"/>
<path fill-rule="evenodd" clip-rule="evenodd" d="M62.3535 1334.07C59.4686 1336.29 45.0771 1337.55 47.8957 1325.64C51.079 1312.3 85.8972 1315.91 62.3535 1334.07Z" fill="#542B11"/>
<path fill-rule="evenodd" clip-rule="evenodd" d="M45.276 1315.95C44.2812 1315.88 39.1082 1315.95 40.5009 1312.89C41.1642 1311.43 49.9184 1310.04 49.9848 1312.63C50.0842 1315.62 47.0998 1316.05 45.276 1315.95Z" fill="#542B11"/>
<path fill-rule="evenodd" clip-rule="evenodd" d="M2.23411 1324.71C1.96883 1316.64 3.85896 1317.21 8.03714 1311.83C11.8837 1306.89 31.7135 1303.67 30.1218 1321.92C29.5581 1328.52 18.0515 1326.87 14.3376 1331.58C12.4474 1333.93 8.89931 1333.17 6.11385 1331.05L2.26727 1324.71H2.23411Z" fill="#542B11"/>
<path fill-rule="evenodd" clip-rule="evenodd" d="M299.88 1192.17C294.641 1192.57 270.135 1202.62 274.413 1208.53C277.298 1212.54 290.562 1205.77 296.895 1205.77C298.089 1205.77 308.369 1205.11 308.866 1203.98C312.282 1203.09 308.866 1191.51 299.847 1192.17H299.88Z" fill="#542B11"/>
<path fill-rule="evenodd" clip-rule="evenodd" d="M325.546 1201.56C320.87 1198.14 314.769 1206.17 326.408 1205.44C328.63 1205.31 328.53 1203.75 325.546 1201.56Z" fill="#542B11"/>
<path fill-rule="evenodd" clip-rule="evenodd" d="M385.897 1199.74C374.159 1198.14 346.238 1217.69 378.901 1217.95C399.327 1218.12 422.672 1204.81 385.897 1199.74Z" fill="#542B11"/>
<path fill-rule="evenodd" clip-rule="evenodd" d="M422.175 1208.1C413.619 1207.04 407.12 1211.18 415.808 1221.84C426.054 1234.41 434.377 1211.65 422.175 1208.1Z" fill="#542B11"/>
<path fill-rule="evenodd" clip-rule="evenodd" d="M878.425 1283.79C860.784 1281.77 850.969 1272.14 874.115 1272.74C891.955 1273.21 893.447 1285.55 878.425 1283.79Z" fill="#542B11"/>
<path fill-rule="evenodd" clip-rule="evenodd" d="M892.087 1269.75C898.487 1263.38 912.249 1276.52 902.798 1278.02C898.852 1278.65 887.08 1274.77 892.087 1269.75Z" fill="#542B11"/>
<path fill-rule="evenodd" clip-rule="evenodd" d="M914.073 1291.72C907.308 1294.31 906.446 1287.21 907.54 1286.02C908.767 1284.65 914.073 1286.84 914.073 1291.72Z" fill="#542B11"/>
<path fill-rule="evenodd" clip-rule="evenodd" d="M785.245 1158.75C790.02 1158.75 793.9 1156.73 793.9 1154.24C793.9 1151.75 790.02 1149.73 785.245 1149.73C780.47 1149.73 776.59 1151.75 776.59 1154.24C776.59 1156.73 780.47 1158.75 785.245 1158.75Z" fill="#542B11"/>
<path fill-rule="evenodd" clip-rule="evenodd" d="M723.203 1185.1C707.584 1191.61 713.752 1174.81 731.128 1174.68C734.842 1174.68 750.626 1170.37 739.55 1185.2C735.472 1190.68 723.302 1185.03 723.203 1185.1Z" fill="#542B11"/>
<path fill-rule="evenodd" clip-rule="evenodd" d="M759.579 1184.11C753.942 1182.25 761.934 1165.46 784.914 1180.55C790.783 1184.44 771.351 1187.99 759.579 1184.11Z" fill="#542B11"/>
<path fill-rule="evenodd" clip-rule="evenodd" d="M521.357 1367.82C503.881 1363.2 491.711 1372.76 514.061 1381.72C531.271 1388.62 536.245 1371.7 521.357 1367.82Z" fill="#542B11"/>
<path fill-rule="evenodd" clip-rule="evenodd" d="M530.476 1393.6C534.786 1405.41 551.731 1392.54 543.077 1386.4C539.462 1383.84 527.093 1384.34 530.476 1393.6Z" fill="#542B11"/>
<path fill-rule="evenodd" clip-rule="evenodd" d="M557.8 1371.63C552.03 1365.09 549.211 1374.82 549.907 1377.01C550.67 1379.43 556.407 1378.63 557.8 1371.63Z" fill="#542B11"/>
<path fill-rule="evenodd" clip-rule="evenodd" d="M779.807 1275.5C779.21 1277.35 785.809 1279.51 786.074 1270.09C786.141 1267.66 781.067 1271.61 779.807 1275.5Z" fill="#542B11"/>
<path fill-rule="evenodd" clip-rule="evenodd" d="M463.359 1355.74C458.651 1356.43 436.666 1374.22 440.512 1384.67C443.099 1391.74 455.003 1379.79 460.707 1379.79C461.768 1379.79 471.019 1378.63 471.451 1376.61C474.534 1375.05 471.451 1354.54 463.359 1355.74Z" fill="#542B11"/>
<path fill-rule="evenodd" clip-rule="evenodd" d="M486.373 1372.33C482.194 1366.26 476.69 1380.49 487.135 1379.16C489.125 1378.93 489.025 1376.14 486.373 1372.33Z" fill="#542B11"/>
<path fill-rule="evenodd" clip-rule="evenodd" d="M634.532 1391.28C623.987 1393.37 598.951 1367.65 628.265 1367.32C646.603 1367.12 667.56 1384.57 634.532 1391.28Z" fill="#542B11"/>
<path fill-rule="evenodd" clip-rule="evenodd" d="M675.12 1372.89C667.46 1374.29 661.624 1368.84 669.417 1354.81C678.602 1338.25 686.096 1368.21 675.12 1372.89Z" fill="#542B11"/>
<path fill-rule="evenodd" clip-rule="evenodd" d="M586.251 1285.75C553.754 1284.22 533.162 1298.82 575.209 1304.5C607.606 1308.88 613.907 1287.01 586.251 1285.75Z" fill="#542B11"/>
<path fill-rule="evenodd" clip-rule="evenodd" d="M606.91 1315.15C616.593 1328.56 645.376 1308.81 628.663 1303.34C621.732 1301.05 599.283 1304.6 606.91 1315.15Z" fill="#542B11"/>
<path fill-rule="evenodd" clip-rule="evenodd" d="M653.069 1281.8C641.562 1275.16 637.948 1287.74 639.573 1290.23C641.363 1293.02 651.643 1290.66 653.069 1281.8Z" fill="#542B11"/>
<path fill-rule="evenodd" clip-rule="evenodd" d="M887.18 1216.86C884.892 1217.36 886.715 1225.55 896.63 1220.04C899.184 1218.65 891.988 1215.8 887.18 1216.86Z" fill="#542B11"/>
<path fill-rule="evenodd" clip-rule="evenodd" d="M1323.5 1224.16C1314.42 1225.98 1318.33 1243.24 1333.02 1238.53C1339.85 1236.3 1331.76 1222.5 1323.5 1224.16Z" fill="#542B11"/>
<path fill-rule="evenodd" clip-rule="evenodd" d="M1245.84 1329.25C1241.16 1332.67 1235.06 1324.64 1246.7 1325.37C1248.92 1325.5 1248.82 1327.06 1245.84 1329.25Z" fill="#542B11"/>
<path fill-rule="evenodd" clip-rule="evenodd" d="M1090.32 1299.89C1094 1295.45 1099.24 1293.72 1102 1296.01C1104.75 1298.3 1104.02 1303.78 1100.34 1308.22C1096.66 1312.67 1091.42 1314.4 1088.67 1312.11C1085.91 1309.82 1086.64 1304.34 1090.32 1299.89Z" fill="#542B11"/>
<path fill-rule="evenodd" clip-rule="evenodd" d="M756.164 1308.58C747.774 1323.48 767.04 1321.26 768.433 1302.84C768.731 1298.93 774.667 1283.26 757.225 1291.23C750.792 1294.15 756.263 1308.48 756.197 1308.58H756.164Z" fill="#542B11"/>
<path fill-rule="evenodd" clip-rule="evenodd" d="M768.76 1227.25C775.624 1228.35 780.631 1232.73 779.935 1237.01C779.238 1241.29 773.104 1243.85 766.24 1242.75C759.375 1241.66 754.368 1237.27 755.065 1232.99C755.761 1228.71 761.896 1226.16 768.76 1227.25Z" fill="#542B11"/>
<path fill-rule="evenodd" clip-rule="evenodd" d="M1155.42 1220.28C1153.53 1209.07 1137.39 1210.69 1131.65 1211.75C1126.01 1212.82 1128.8 1231.37 1145.61 1227.25C1153.83 1225.26 1155.03 1218.03 1155.42 1220.28Z" fill="#542B11"/>
<path fill-rule="evenodd" clip-rule="evenodd" d="M1220.17 1338.65C1214.93 1338.25 1190.43 1328.19 1194.71 1322.29C1197.59 1318.27 1210.86 1325.04 1217.19 1325.04C1218.38 1325.04 1228.66 1325.7 1229.16 1326.83C1232.58 1327.73 1229.16 1339.31 1220.14 1338.65H1220.17Z" fill="#542B11"/>
<path fill-rule="evenodd" clip-rule="evenodd" d="M1306.16 1331.08C1294.42 1332.67 1266.5 1313.13 1299.16 1312.86C1319.59 1312.7 1342.93 1326 1306.16 1331.08Z" fill="#542B11"/>
<path fill-rule="evenodd" clip-rule="evenodd" d="M1431.48 1312.49C1422.92 1313.55 1416.42 1309.41 1425.11 1298.75C1435.36 1286.18 1443.68 1308.94 1431.48 1312.49Z" fill="#542B11"/>
<path fill-rule="evenodd" clip-rule="evenodd" d="M1419.63 1234.18C1414.92 1233.48 1392.94 1215.7 1396.79 1205.24C1399.37 1198.18 1411.28 1210.12 1416.98 1210.12C1418.04 1210.12 1427.29 1211.28 1427.72 1213.31C1430.81 1214.87 1427.72 1235.38 1419.63 1234.18Z" fill="#542B11"/>
<path fill-rule="evenodd" clip-rule="evenodd" d="M1442.68 1217.62C1438.5 1223.69 1433 1209.46 1443.44 1210.79C1445.43 1211.02 1445.33 1213.81 1442.68 1217.62Z" fill="#542B11"/>
<path fill-rule="evenodd" clip-rule="evenodd" d="M147.144 1224.19C141.905 1223.79 117.399 1213.74 121.677 1207.83C124.562 1203.82 137.826 1210.59 144.16 1210.59C145.353 1210.59 155.633 1211.25 156.131 1212.38C159.546 1213.27 156.13 1224.86 147.111 1224.19H147.144Z" fill="#542B11"/>
<path fill-rule="evenodd" clip-rule="evenodd" d="M172.81 1214.8C168.134 1218.22 162.033 1210.19 173.672 1210.92C175.894 1211.05 175.794 1212.61 172.81 1214.8Z" fill="#542B11"/>
<path fill-rule="evenodd" clip-rule="evenodd" d="M949.388 1149.29C947.498 1160.51 931.349 1158.89 925.612 1157.82C919.975 1156.76 922.76 1138.21 939.573 1142.33C947.796 1144.32 948.99 1151.55 949.388 1149.33V1149.29Z" fill="#542B11"/>
<path fill-rule="evenodd" clip-rule="evenodd" d="M970.644 1160.28C961.558 1158.45 965.471 1141.2 980.161 1145.91C986.992 1148.13 978.901 1161.94 970.644 1160.28Z" fill="#542B11"/>
<path fill-rule="evenodd" clip-rule="evenodd" d="M1228.43 1203.09C1210.96 1198.47 1198.79 1208.03 1221.14 1216.99C1238.35 1223.89 1243.32 1206.97 1228.43 1203.09Z" fill="#542B11"/>
<path fill-rule="evenodd" clip-rule="evenodd" d="M1237.55 1228.9C1241.86 1240.72 1258.81 1227.84 1250.15 1221.7C1246.54 1219.15 1234.17 1219.65 1237.55 1228.9Z" fill="#542B11"/>
<path fill-rule="evenodd" clip-rule="evenodd" d="M1264.84 1206.9C1259.07 1200.37 1256.25 1210.09 1256.95 1212.28C1257.71 1214.7 1263.45 1213.91 1264.84 1206.9Z" fill="#542B11"/>
<path fill-rule="evenodd" clip-rule="evenodd" d="M1081.1 1146.18C1077.05 1143.65 1048.8 1143.06 1044.99 1153.48C1042.4 1160.54 1059.21 1159.12 1063.56 1162.8C1064.39 1163.5 1072.18 1168.58 1073.84 1167.31C1077.19 1168.11 1088.1 1150.46 1081.13 1146.18H1081.1Z" fill="#542B11"/>
<path fill-rule="evenodd" clip-rule="evenodd" d="M1088 1173.72C1088.73 1166.38 1075.36 1173.69 1084.15 1179.43C1085.84 1180.52 1087.53 1178.36 1088 1173.72Z" fill="#542B11"/>
<path fill-rule="evenodd" clip-rule="evenodd" d="M1144.64 1042.27C1116.35 1040.95 1098.41 1053.66 1135.02 1058.6C1163.2 1062.42 1168.71 1043.37 1144.64 1042.27Z" fill="#663414"/>
<path fill-rule="evenodd" clip-rule="evenodd" d="M1162.61 1067.89C1171.06 1079.57 1196.1 1062.38 1181.54 1057.61C1175.51 1055.61 1155.98 1058.7 1162.61 1067.89Z" fill="#663414"/>
<path fill-rule="evenodd" clip-rule="evenodd" d="M1202.8 1038.86C1192.78 1033.08 1189.63 1044.03 1191.06 1046.19C1192.62 1048.61 1201.57 1046.56 1202.8 1038.86Z" fill="#663414"/>
<path fill-rule="evenodd" clip-rule="evenodd" d="M1380.04 993.161C1386.01 994.124 1390.39 997.94 1389.79 1001.66C1389.19 1005.37 1383.85 1007.63 1377.88 1006.63C1371.92 1005.67 1367.54 1001.86 1368.13 998.139C1368.73 994.422 1374.07 992.166 1380.04 993.161Z" fill="#663414"/>
<path fill-rule="evenodd" clip-rule="evenodd" d="M1367.77 976.436C1349.83 976.801 1362.13 993.029 1379.48 984.467C1383.19 982.642 1400.47 979.655 1383.99 968.107C1377.92 963.859 1367.87 976.436 1367.74 976.436H1367.77Z" fill="#663414"/>
<path fill-rule="evenodd" clip-rule="evenodd" d="M1406.57 982.343C1404.58 982.775 1406.17 989.909 1414.79 985.131C1417.01 983.903 1410.75 981.447 1406.57 982.343Z" fill="#663414"/>
<path fill-rule="evenodd" clip-rule="evenodd" d="M451.853 975.54C446.614 975.938 422.108 985.993 426.386 991.9C429.271 995.915 442.535 989.146 448.868 989.146C450.062 989.146 460.342 988.482 460.839 987.354C464.255 986.458 460.839 974.876 451.82 975.54H451.853Z" fill="#663414"/>
<path fill-rule="evenodd" clip-rule="evenodd" d="M477.519 984.932C472.843 981.514 466.742 989.544 478.381 988.814C480.603 988.681 480.503 987.122 477.519 984.932Z" fill="#663414"/>
<path fill-rule="evenodd" clip-rule="evenodd" d="M537.837 983.106C526.098 981.514 498.178 1001.06 530.84 1001.32C551.267 1001.49 574.612 988.184 537.837 983.106Z" fill="#663414"/>
<path fill-rule="evenodd" clip-rule="evenodd" d="M574.148 991.469C565.592 990.407 559.093 994.555 567.781 1005.21C578.027 1017.78 586.351 995.02 574.148 991.469Z" fill="#663414"/>
<path fill-rule="evenodd" clip-rule="evenodd" d="M499.935 1163.3C498.045 1152.08 481.896 1153.71 476.159 1154.77C470.522 1155.83 473.308 1174.38 490.12 1170.27C498.343 1168.28 499.537 1161.04 499.935 1163.3Z" fill="#663414"/>
<path fill-rule="evenodd" clip-rule="evenodd" d="M521.191 1152.31C512.105 1154.14 516.018 1171.4 530.708 1166.68C537.539 1164.46 529.448 1150.66 521.191 1152.31Z" fill="#663414"/>
<path fill-rule="evenodd" clip-rule="evenodd" d="M617.355 1162.34C612.647 1161.64 590.661 1143.85 594.508 1133.4C597.094 1126.33 608.999 1138.28 614.703 1138.28C615.764 1138.28 625.015 1139.44 625.446 1141.46C628.53 1143.02 625.446 1163.53 617.355 1162.34Z" fill="#663414"/>
<path fill-rule="evenodd" clip-rule="evenodd" d="M640.368 1145.74C636.19 1151.82 630.686 1137.58 641.131 1138.87C643.121 1139.11 643.021 1141.89 640.368 1145.74Z" fill="#663414"/>
<path fill-rule="evenodd" clip-rule="evenodd" d="M426.121 1131.24C408.645 1126.63 396.475 1136.19 418.825 1145.15C436.035 1152.05 441.01 1135.12 426.121 1131.24Z" fill="#663414"/>
<path fill-rule="evenodd" clip-rule="evenodd" d="M435.24 1157.03C439.55 1168.84 456.495 1155.96 447.84 1149.83C444.226 1147.27 431.857 1147.77 435.24 1157.03Z" fill="#663414"/>
<path fill-rule="evenodd" clip-rule="evenodd" d="M462.564 1135.06C456.794 1128.52 453.975 1138.24 454.671 1140.43C455.434 1142.86 461.171 1142.06 462.564 1135.06Z" fill="#663414"/>
<path fill-rule="evenodd" clip-rule="evenodd" d="M987.953 1079.37C1020.45 1077.85 1041.04 1092.45 998.996 1098.12C966.598 1102.5 960.298 1080.64 987.953 1079.37Z" fill="#663414"/>
<path fill-rule="evenodd" clip-rule="evenodd" d="M967.295 1108.78C957.612 1122.18 928.829 1102.44 945.542 1096.96C952.472 1094.67 974.921 1098.22 967.295 1108.78Z" fill="#663414"/>
<path fill-rule="evenodd" clip-rule="evenodd" d="M921.136 1075.43C932.642 1068.79 936.257 1081.37 934.632 1083.85C932.841 1086.64 922.562 1084.29 921.136 1075.43Z" fill="#663414"/>
<path fill-rule="evenodd" clip-rule="evenodd" d="M717.499 1022.93C710.635 1024.02 705.628 1028.4 706.324 1032.68C707.02 1036.96 713.155 1039.52 720.019 1038.43C726.883 1037.33 731.891 1032.95 731.194 1028.67C730.498 1024.39 724.363 1021.83 717.499 1022.93Z" fill="#663414"/>
<path fill-rule="evenodd" clip-rule="evenodd" d="M731.592 1003.71C752.218 1004.11 738.091 1022.76 718.129 1012.94C713.885 1010.85 693.988 1007.4 712.923 994.157C719.92 989.279 731.426 1003.71 731.559 1003.71H731.592Z" fill="#663414"/>
<path fill-rule="evenodd" clip-rule="evenodd" d="M687.025 1010.52C689.313 1011.01 687.489 1019.21 677.574 1013.7C675.021 1012.31 682.217 1009.45 687.025 1010.52Z" fill="#663414"/>
<path fill-rule="evenodd" clip-rule="evenodd" d="M35.4274 1063.31C33.5373 1052.1 17.3883 1053.72 11.6516 1054.79C6.01436 1055.85 8.79982 1074.4 25.612 1070.28C33.8357 1068.29 35.0295 1061.06 35.4274 1063.31Z" fill="#663414"/>
<path fill-rule="evenodd" clip-rule="evenodd" d="M56.6831 1052.33C47.5972 1054.15 51.5101 1071.41 66.2001 1066.7C73.0311 1064.47 64.94 1050.67 56.6831 1052.33Z" fill="#663414"/>
<path fill-rule="evenodd" clip-rule="evenodd" d="M210.878 1050.27C193.402 1054.88 181.233 1045.33 203.583 1036.37C220.793 1029.47 225.767 1046.39 210.878 1050.27Z" fill="#663414"/>
<path fill-rule="evenodd" clip-rule="evenodd" d="M219.964 1024.49C224.275 1012.67 241.219 1025.55 232.565 1031.69C228.95 1034.24 216.581 1033.75 219.964 1024.49Z" fill="#663414"/>
<path fill-rule="evenodd" clip-rule="evenodd" d="M247.288 1046.46C241.518 1052.99 238.699 1043.27 239.396 1041.08C240.158 1038.66 245.895 1039.45 247.288 1046.46Z" fill="#663414"/>
<path fill-rule="evenodd" clip-rule="evenodd" d="M152.848 1062.35C148.139 1061.65 126.154 1043.87 130 1033.41C132.587 1026.35 144.491 1038.29 150.195 1038.29C151.256 1038.29 160.508 1039.45 160.939 1041.48C164.023 1043.04 160.939 1063.55 152.848 1062.35Z" fill="#663414"/>
<path fill-rule="evenodd" clip-rule="evenodd" d="M175.894 1045.76C171.716 1051.83 166.211 1037.6 176.657 1038.89C178.646 1039.12 178.547 1041.91 175.894 1045.76Z" fill="#663414"/>
<path fill-rule="evenodd" clip-rule="evenodd" d="M324.02 1026.81C313.475 1024.72 288.44 1050.44 317.753 1050.77C336.091 1050.97 357.048 1033.51 324.02 1026.81Z" fill="#663414"/>
<path fill-rule="evenodd" clip-rule="evenodd" d="M155.103 1157.49C153.809 1149.79 142.734 1150.92 138.788 1151.65C134.908 1152.38 136.831 1165.12 148.371 1162.3C154.008 1160.91 154.837 1155.96 155.103 1157.52V1157.49Z" fill="#663414"/>
<path fill-rule="evenodd" clip-rule="evenodd" d="M169.726 1149.96C163.492 1151.22 166.178 1163.07 176.259 1159.81C180.967 1158.29 175.397 1148.83 169.726 1149.96Z" fill="#663414"/>
<path fill-rule="evenodd" clip-rule="evenodd" d="M104.467 1135.49C92.4629 1132.3 84.1066 1138.87 99.4597 1145.05C111.265 1149.79 114.68 1138.18 104.467 1135.49Z" fill="#663414"/>
<path fill-rule="evenodd" clip-rule="evenodd" d="M110.734 1153.21C113.685 1161.31 125.325 1152.48 119.389 1148.27C116.935 1146.51 108.413 1146.87 110.734 1153.21Z" fill="#663414"/>
<path fill-rule="evenodd" clip-rule="evenodd" d="M129.47 1138.11C125.524 1133.63 123.567 1140.3 124.065 1141.79C124.595 1143.45 128.541 1142.89 129.47 1138.11Z" fill="#663414"/>
<path fill-rule="evenodd" clip-rule="evenodd" d="M1015.34 988.814C1023.9 991.27 1036.07 992.232 1042.47 990.971C1048.9 989.71 1047.14 986.657 1038.59 984.202C1030.03 981.746 1017.86 980.784 1011.46 982.045C1005.03 983.306 1006.79 986.359 1015.34 988.814Z" fill="#663414"/>
<path fill-rule="evenodd" clip-rule="evenodd" d="M969.649 987.719C950.151 979.456 994.917 980.684 998.134 990.905C998.83 993.095 1012.59 1001.76 972.037 997.343C957.081 995.717 969.782 987.752 969.649 987.719Z" fill="#663414"/>
<path fill-rule="evenodd" clip-rule="evenodd" d="M1024.56 1003.78C1023.14 1002.75 1038.52 1001.56 1039.12 1006.8C1039.29 1008.13 1027.51 1005.94 1024.56 1003.78Z" fill="#663414"/>
<path fill-rule="evenodd" clip-rule="evenodd" d="M1284.27 1135.16C1266.8 1130.55 1254.63 1140.1 1276.98 1149.06C1294.19 1155.96 1299.16 1139.04 1284.27 1135.16Z" fill="#663414"/>
<path fill-rule="evenodd" clip-rule="evenodd" d="M1293.39 1160.98C1297.7 1172.79 1314.65 1159.91 1305.99 1153.77C1302.38 1151.22 1290.01 1151.72 1293.39 1160.98Z" fill="#663414"/>
<path fill-rule="evenodd" clip-rule="evenodd" d="M1320.72 1138.97C1314.95 1132.44 1312.13 1142.16 1312.82 1144.35C1313.59 1146.77 1319.32 1145.98 1320.72 1138.97Z" fill="#663414"/>
<path fill-rule="evenodd" clip-rule="evenodd" d="M703.108 1134.36C707.286 1138.31 719.853 1138.24 718.328 1128.99C717.632 1124.87 713.255 1123.01 710.37 1123.01C705.13 1123.01 693.591 1125.4 703.108 1134.36Z" fill="#9D5A30"/>
<path fill-rule="evenodd" clip-rule="evenodd" d="M703.837 1129.75C705.595 1131.71 710.9 1131.64 710.237 1127.09C709.938 1125.07 708.082 1124.14 706.888 1124.14C704.666 1124.14 699.825 1125.3 703.837 1129.75Z" fill="#A86338"/>
<path fill-rule="evenodd" clip-rule="evenodd" d="M703.107 1134.36C707.219 1138.24 719.489 1138.24 718.361 1129.35C718.361 1129.22 718.295 1128.82 718.295 1128.95C718.759 1132.97 699.427 1136.82 701.416 1125.14C701.416 1125 701.25 1125.24 701.151 1125.3C698.83 1127.03 698.332 1129.85 703.074 1134.33L703.107 1134.36Z" fill="#94522A"/>
<path fill-rule="evenodd" clip-rule="evenodd" d="M687.622 1133.4C680.26 1139.94 656.418 1142.26 657.977 1128.55C658.673 1122.45 666.731 1118.93 672.169 1118.37C682.15 1117.34 704.368 1118.53 687.622 1133.4Z" fill="#9D5A30"/>
<path fill-rule="evenodd" clip-rule="evenodd" d="M685.599 1126.86C682.548 1130.01 672.501 1131.01 673.031 1124.27C673.263 1121.29 676.679 1119.59 678.934 1119.36C683.145 1118.93 692.529 1119.69 685.566 1126.86H685.599Z" fill="#A86338"/>
<path fill-rule="evenodd" clip-rule="evenodd" d="M687.622 1133.4C680.36 1139.84 657.114 1142.19 657.91 1129.12C657.91 1128.92 657.977 1128.36 657.977 1128.55C657.678 1134.49 694.917 1136.25 689.446 1119.73C689.379 1119.56 689.777 1119.86 689.943 1119.93C694.619 1121.95 695.978 1125.97 687.622 1133.37V1133.4Z" fill="#94522A"/>
<path fill-rule="evenodd" clip-rule="evenodd" d="M66.1338 1027.67C61.7898 1030.56 60.2976 1035.51 63.4478 1039.89C68.8529 1047.39 76.0155 1049.91 84.9025 1047.45C103.141 1042.41 84.4382 1015.49 66.1006 1027.67H66.1338Z" fill="#9D5A30"/>
<path fill-rule="evenodd" clip-rule="evenodd" d="M71.6052 1026.28C69.6819 1027.18 69.0519 1028.74 70.4446 1030.1C72.8321 1032.42 75.9823 1033.22 79.8621 1032.45C87.8868 1030.89 79.6631 1022.5 71.6052 1026.28Z" fill="#A86338"/>
<path fill-rule="evenodd" clip-rule="evenodd" d="M62.9504 1030.86C62.7846 1030.49 62.5525 1031.52 62.4198 1031.89C61.3256 1034.38 61.5245 1037.23 63.4478 1039.89C68.8529 1047.38 76.0155 1049.91 84.9024 1047.45C88.3511 1046.49 90.4733 1044.76 91.5345 1042.64C91.6671 1042.37 92.1645 1041.94 91.8661 1041.84C82.2165 1038.19 69.5824 1045.83 62.9172 1030.86H62.9504Z" fill="#94522A"/>
<path fill-rule="evenodd" clip-rule="evenodd" d="M54.3619 1041.68C59.7007 1037.13 57.7111 1032.98 53.1681 1029.4C51.1453 1027.81 41.0647 1030.66 42.5237 1036.33C43.3195 1039.42 45.475 1049.28 54.3619 1041.68Z" fill="#9D5A30"/>
<path fill-rule="evenodd" clip-rule="evenodd" d="M44.8118 1033.25C46.8677 1030.56 49.4211 1029.93 51.9081 1030.1C53.0024 1030.16 52.3391 1033.61 48.99 1034.84C47.1662 1035.5 41.3631 1037.73 44.8118 1033.25Z" fill="#A86338"/>
<path fill-rule="evenodd" clip-rule="evenodd" d="M54.3619 1041.68C56.9484 1039.45 57.8106 1037.33 57.5121 1035.34C57.5121 1035.17 57.4126 1034.58 57.4126 1034.84C57.2468 1037.99 48.791 1043.2 43.7838 1040.32C43.4854 1040.15 43.9828 1040.78 44.0823 1041.01C45.6408 1044.2 48.5589 1046.69 54.3951 1041.71L54.3619 1041.68Z" fill="#94522A"/>
<path fill-rule="evenodd" clip-rule="evenodd" d="M105.561 1055.45C113.487 1058.6 97.6028 1070.55 88.5832 1060.69C83.3108 1054.92 99.3934 1052.99 105.561 1055.45Z" fill="#94522A"/>
<path fill-rule="evenodd" clip-rule="evenodd" d="M106.357 1055.65C112.094 1057.94 100.587 1066.6 94.0546 1059.43C90.2412 1055.25 101.88 1053.86 106.357 1055.65Z" fill="#9D5A30"/>
<path fill-rule="evenodd" clip-rule="evenodd" d="M105.827 1055.52C108.347 1056.58 103.306 1060.56 100.455 1057.27C98.7966 1055.35 103.87 1054.69 105.827 1055.52Z" fill="#A86338"/>
<path fill-rule="evenodd" clip-rule="evenodd" d="M1233.77 990.971C1238.28 993.958 1239.84 999.135 1236.56 1003.68C1230.92 1011.48 1223.49 1014.1 1214.24 1011.55C1195.27 1006.3 1214.74 978.328 1233.77 990.971Z" fill="#9D5A30"/>
<path fill-rule="evenodd" clip-rule="evenodd" d="M1228.07 989.544C1230.06 990.473 1230.72 992.099 1229.29 993.493C1226.84 995.915 1223.56 996.745 1219.51 995.949C1211.19 994.323 1219.71 985.595 1228.1 989.544H1228.07Z" fill="#A86338"/>
<path fill-rule="evenodd" clip-rule="evenodd" d="M1237.05 994.29C1237.22 993.925 1237.45 994.987 1237.62 995.352C1238.74 997.94 1238.54 1000.93 1236.56 1003.68C1230.92 1011.48 1223.49 1014.1 1214.24 1011.55C1210.66 1010.55 1208.44 1008.76 1207.34 1006.53C1207.21 1006.27 1206.71 1005.8 1206.98 1005.71C1216.99 1001.89 1230.16 1009.85 1237.05 994.29Z" fill="#94522A"/>
<path fill-rule="evenodd" clip-rule="evenodd" d="M1247.66 1002.69C1245.01 1004.05 1244.12 1006.4 1246.04 1008.46C1249.32 1012.01 1253.7 1013.2 1259.1 1012.04C1270.21 1009.65 1258.81 996.944 1247.66 1002.69Z" fill="#9D5A30"/>
<path fill-rule="evenodd" clip-rule="evenodd" d="M1250.98 1002.05C1249.82 1002.49 1249.42 1003.22 1250.25 1003.85C1251.71 1004.94 1253.6 1005.34 1255.99 1004.98C1260.86 1004.24 1255.85 1000.26 1250.95 1002.05H1250.98Z" fill="#A86338"/>
<path fill-rule="evenodd" clip-rule="evenodd" d="M1245.71 1004.21C1245.61 1004.05 1245.48 1004.54 1245.38 1004.71C1244.71 1005.87 1244.85 1007.23 1246.01 1008.49C1249.29 1012.04 1253.67 1013.24 1259.07 1012.08C1261.16 1011.61 1262.49 1010.82 1263.12 1009.79C1263.18 1009.65 1263.48 1009.45 1263.32 1009.42C1257.45 1007.7 1249.75 1011.31 1245.67 1004.21H1245.71Z" fill="#94522A"/>
<path fill-rule="evenodd" clip-rule="evenodd" d="M1193.81 1027.54C1198.95 1023.16 1197.03 1019.18 1192.65 1015.73C1190.69 1014.2 1181.01 1016.95 1182.44 1022.4C1183.2 1025.35 1185.26 1034.84 1193.81 1027.54Z" fill="#9D5A30"/>
<path fill-rule="evenodd" clip-rule="evenodd" d="M1184.63 1019.41C1186.62 1016.82 1189.07 1016.22 1191.42 1016.39C1192.49 1016.46 1191.86 1019.78 1188.64 1020.94C1186.88 1021.57 1181.31 1023.69 1184.63 1019.41Z" fill="#A86338"/>
<path fill-rule="evenodd" clip-rule="evenodd" d="M1193.81 1027.54C1196.3 1025.42 1197.13 1023.36 1196.83 1021.43C1196.83 1021.27 1196.73 1020.7 1196.73 1020.94C1196.56 1023.96 1188.44 1028.97 1183.6 1026.21C1183.3 1026.05 1183.8 1026.64 1183.9 1026.88C1185.39 1029.93 1188.21 1032.32 1193.81 1027.54Z" fill="#94522A"/>
<path fill-rule="evenodd" clip-rule="evenodd" d="M377.242 954.468C382.482 957.488 395.348 954.335 391.501 945.243C389.81 941.194 384.836 940.365 381.918 941.061C376.546 942.356 365.305 947.599 377.242 954.468Z" fill="#A86033"/>
<path fill-rule="evenodd" clip-rule="evenodd" d="M376.845 949.59C379.133 951.15 384.538 949.822 382.78 945.309C381.984 943.318 379.862 942.82 378.635 943.119C376.38 943.65 371.672 946.039 376.845 949.59Z" fill="#B36A3C"/>
<path fill-rule="evenodd" clip-rule="evenodd" d="M377.242 954.468C382.415 957.455 394.983 954.468 391.667 945.641C391.634 945.508 391.468 945.11 391.501 945.243C392.96 949.258 374.092 957.886 373.263 945.442C373.263 945.309 373.131 945.608 373.064 945.674C371.108 947.997 371.274 951.017 377.242 954.468Z" fill="#9E582D"/>
<path fill-rule="evenodd" clip-rule="evenodd" d="M350.748 957.521C343.917 967.277 316.427 976.735 314.404 960.143C313.509 952.776 322.031 946.305 328.265 944.148C339.738 940.132 366.3 935.32 350.714 957.521H350.748Z" fill="#A86033"/>
<path fill-rule="evenodd" clip-rule="evenodd" d="M346.536 950.386C343.817 954.966 332.244 958.948 330.984 950.851C330.42 947.234 333.968 944.314 336.588 943.384C341.429 941.692 352.737 939.933 346.536 950.386Z" fill="#B36A3C"/>
<path fill-rule="evenodd" clip-rule="evenodd" d="M350.748 957.521C344.016 967.145 317.223 976.469 314.503 960.84C314.47 960.607 314.371 959.91 314.404 960.143C315.697 967.244 360.132 958.882 349.056 940.896C348.957 940.697 349.487 940.962 349.686 940.995C355.788 942.09 358.507 946.437 350.748 957.521Z" fill="#9E582D"/>
<path fill-rule="evenodd" clip-rule="evenodd" d="M311.751 934.093C320.704 937.644 302.765 951.15 292.585 940C286.649 933.496 304.788 931.305 311.751 934.093Z" fill="#9E582D"/>
<path fill-rule="evenodd" clip-rule="evenodd" d="M312.613 934.325C319.08 936.914 306.114 946.67 298.752 938.606C294.442 933.894 307.573 932.301 312.613 934.325Z" fill="#A86033"/>
<path fill-rule="evenodd" clip-rule="evenodd" d="M312.016 934.192C314.868 935.387 309.165 939.9 305.948 936.183C304.058 933.993 309.828 933.263 312.016 934.192Z" fill="#B36A3C"/>
<path fill-rule="evenodd" clip-rule="evenodd" d="M285.124 966.647C289.965 962.532 288.174 958.782 284.029 955.53C282.205 954.103 273.053 956.692 274.38 961.802C275.109 964.59 277.032 973.516 285.124 966.647Z" fill="#A86033"/>
<path fill-rule="evenodd" clip-rule="evenodd" d="M276.469 958.948C278.359 956.526 280.647 955.928 282.902 956.094C283.897 956.161 283.3 959.28 280.249 960.408C278.591 961.006 273.319 963.03 276.469 958.948Z" fill="#B36A3C"/>
<path fill-rule="evenodd" clip-rule="evenodd" d="M285.124 966.647C287.478 964.623 288.274 962.698 287.975 960.906C287.975 960.74 287.876 960.209 287.876 960.441C287.743 963.295 280.05 968.008 275.507 965.419C275.242 965.253 275.673 965.851 275.772 966.05C277.198 968.937 279.851 971.193 285.124 966.68V966.647Z" fill="#9E582D"/>
<path fill-rule="evenodd" clip-rule="evenodd" d="M843.972 860.091C848.946 863.376 850.637 869.018 847.023 874.029C840.855 882.59 832.664 885.477 822.55 882.657C801.759 876.916 823.081 846.22 843.972 860.091Z" fill="#A86033"/>
<path fill-rule="evenodd" clip-rule="evenodd" d="M837.705 858.498C839.893 859.527 840.623 861.286 839.031 862.846C836.312 865.5 832.731 866.429 828.287 865.533C819.168 863.742 828.519 854.151 837.705 858.498Z" fill="#B36A3C"/>
<path fill-rule="evenodd" clip-rule="evenodd" d="M847.553 863.708C847.719 863.31 847.984 864.472 848.183 864.87C849.443 867.691 849.211 870.976 847.023 873.996C840.855 882.557 832.664 885.444 822.55 882.624C818.604 881.529 816.184 879.537 814.957 877.148C814.791 876.849 814.26 876.352 814.559 876.219C825.568 872.038 839.993 880.765 847.553 863.675V863.708Z" fill="#9E582D"/>
<path fill-rule="evenodd" clip-rule="evenodd" d="M859.192 872.934C856.274 874.427 855.279 877.015 857.402 879.272C861.016 883.155 865.824 884.482 871.76 883.188C883.963 880.566 871.462 866.595 859.192 872.901V872.934Z" fill="#A86033"/>
<path fill-rule="evenodd" clip-rule="evenodd" d="M862.84 872.237C861.58 872.701 861.116 873.498 862.044 874.228C863.636 875.456 865.725 875.854 868.345 875.456C873.683 874.626 868.212 870.279 862.84 872.237Z" fill="#B36A3C"/>
<path fill-rule="evenodd" clip-rule="evenodd" d="M857.07 874.593C856.971 874.394 856.805 874.958 856.705 875.124C855.976 876.418 856.108 877.911 857.402 879.272C861.016 883.155 865.824 884.482 871.76 883.188C874.081 882.69 875.507 881.794 876.204 880.699C876.303 880.566 876.602 880.334 876.436 880.267C870.003 878.376 861.547 882.325 857.103 874.56L857.07 874.593Z" fill="#9E582D"/>
<path fill-rule="evenodd" clip-rule="evenodd" d="M1409.68 921.914C1404.61 925.299 1402.85 931.073 1406.57 936.217C1412.9 944.977 1421.29 947.931 1431.67 945.077C1452.99 939.17 1431.11 907.711 1409.68 921.947V921.914Z" fill="#A86033"/>
<path fill-rule="evenodd" clip-rule="evenodd" d="M1416.12 920.321C1413.9 921.383 1413.13 923.175 1414.76 924.768C1417.54 927.489 1421.22 928.418 1425.77 927.522C1435.12 925.697 1425.54 915.874 1416.12 920.288V920.321Z" fill="#B36A3C"/>
<path fill-rule="evenodd" clip-rule="evenodd" d="M1406 925.664C1405.8 925.233 1405.54 926.46 1405.37 926.859C1404.08 929.779 1404.35 933.13 1406.57 936.217C1412.9 944.977 1421.29 947.931 1431.67 945.077C1435.72 943.949 1438.2 941.924 1439.43 939.469C1439.6 939.17 1440.16 938.639 1439.83 938.54C1428.55 934.259 1413.76 943.185 1406 925.697V925.664Z" fill="#9E582D"/>
<path fill-rule="evenodd" clip-rule="evenodd" d="M1384.08 933.529C1391.31 927.356 1388.63 921.748 1382.46 916.903C1379.71 914.746 1366.08 918.629 1368.04 926.295C1369.1 930.476 1372.01 943.816 1384.08 933.529Z" fill="#A86033"/>
<path fill-rule="evenodd" clip-rule="evenodd" d="M1371.12 922.047C1373.94 918.43 1377.35 917.534 1380.7 917.799C1382.19 917.899 1381.3 922.578 1376.76 924.237C1374.27 925.133 1366.41 928.12 1371.09 922.08L1371.12 922.047Z" fill="#B36A3C"/>
<path fill-rule="evenodd" clip-rule="evenodd" d="M1384.08 933.529C1387.6 930.509 1388.79 927.655 1388.33 924.934C1388.3 924.702 1388.2 923.905 1388.16 924.237C1387.93 928.485 1376.49 935.586 1369.69 931.67C1369.3 931.438 1369.96 932.301 1370.12 932.599C1372.25 936.913 1376.19 940.265 1384.08 933.529Z" fill="#9E582D"/>
<path fill-rule="evenodd" clip-rule="evenodd" d="M1360.18 911.594C1369.46 915.277 1350.86 929.281 1340.31 917.733C1334.15 910.996 1352.95 908.74 1360.18 911.594Z" fill="#9E582D"/>
<path fill-rule="evenodd" clip-rule="evenodd" d="M1361.07 911.859C1367.77 914.514 1354.34 924.635 1346.71 916.306C1342.27 911.428 1355.87 909.769 1361.07 911.859Z" fill="#A86033"/>
<path fill-rule="evenodd" clip-rule="evenodd" d="M1360.47 911.726C1363.43 912.954 1357.52 917.633 1354.17 913.784C1352.22 911.527 1358.19 910.764 1360.47 911.726Z" fill="#B36A3C"/>
<path fill-rule="evenodd" clip-rule="evenodd" d="M1293.69 924.038C1299.92 918.728 1297.6 913.883 1292.3 909.702C1289.94 907.844 1278.17 911.195 1279.86 917.799C1280.79 921.416 1283.31 932.931 1293.69 924.038Z" fill="#A86033"/>
<path fill-rule="evenodd" clip-rule="evenodd" d="M1282.55 914.149C1284.97 911.03 1287.92 910.266 1290.84 910.465C1292.13 910.565 1291.37 914.58 1287.42 916.007C1285.27 916.77 1278.5 919.359 1282.55 914.149Z" fill="#B36A3C"/>
<path fill-rule="evenodd" clip-rule="evenodd" d="M1293.69 924.038C1296.74 921.449 1297.74 918.961 1297.37 916.604C1297.37 916.405 1297.27 915.709 1297.24 916.007C1297.04 919.691 1287.16 925.797 1281.29 922.412C1280.96 922.213 1281.52 922.943 1281.65 923.208C1283.48 926.925 1286.89 929.812 1293.69 924.038Z" fill="#9E582D"/>
<path fill-rule="evenodd" clip-rule="evenodd" d="M102.875 823.124C98.7634 825.845 97.3375 830.524 100.355 834.672C105.462 841.773 112.26 844.163 120.649 841.84C137.892 837.061 120.218 811.609 102.875 823.124Z" fill="#A86033"/>
<path fill-rule="evenodd" clip-rule="evenodd" d="M108.048 821.796C106.258 822.659 105.627 824.119 106.921 825.413C109.176 827.637 112.16 828.367 115.841 827.637C123.401 826.143 115.642 818.212 108.048 821.796Z" fill="#B36A3C"/>
<path fill-rule="evenodd" clip-rule="evenodd" d="M99.8908 826.143C99.725 825.812 99.526 826.774 99.3934 827.106C98.3654 829.462 98.5644 832.183 100.355 834.672C105.462 841.773 112.26 844.163 120.649 841.84C123.932 840.944 125.922 839.285 126.95 837.293C127.082 837.061 127.546 836.63 127.281 836.53C118.162 833.079 106.191 840.28 99.8908 826.143Z" fill="#9E582D"/>
<path fill-rule="evenodd" clip-rule="evenodd" d="M90.2412 833.776C92.6619 835.004 93.4909 837.161 91.7334 839.019C88.749 842.238 84.7697 843.333 79.8289 842.271C69.715 840.114 80.0942 828.533 90.2412 833.743V833.776Z" fill="#A86033"/>
<path fill-rule="evenodd" clip-rule="evenodd" d="M87.1905 833.179C88.2516 833.577 88.6164 834.24 87.8537 834.805C86.5273 835.8 84.803 836.165 82.6144 835.833C78.1709 835.17 82.7139 831.553 87.1905 833.179Z" fill="#B36A3C"/>
<path fill-rule="evenodd" clip-rule="evenodd" d="M91.9987 835.17C91.9987 835.17 92.1976 835.468 92.2971 835.601C92.894 836.663 92.7945 837.891 91.7334 839.052C88.749 842.271 84.7698 843.366 79.8289 842.304C77.9056 841.906 76.745 841.143 76.1481 840.247C76.0818 840.147 75.8165 839.948 75.9492 839.915C81.288 838.322 88.3179 841.641 91.9987 835.17Z" fill="#9E582D"/>
<path fill-rule="evenodd" clip-rule="evenodd" d="M139.219 856.408C134.543 852.426 136.268 848.809 140.28 845.656C142.037 844.262 150.858 846.784 149.598 851.729C148.902 854.417 147.011 863.045 139.219 856.408Z" fill="#A86033"/>
<path fill-rule="evenodd" clip-rule="evenodd" d="M147.575 848.974C145.751 846.618 143.53 846.054 141.374 846.22C140.413 846.286 140.976 849.306 143.928 850.368C145.519 850.932 150.593 852.89 147.575 848.974Z" fill="#B36A3C"/>
<path fill-rule="evenodd" clip-rule="evenodd" d="M139.219 856.408C136.931 854.45 136.201 852.592 136.466 850.866C136.466 850.7 136.566 850.202 136.566 850.401C136.699 853.156 144.093 857.735 148.504 855.18C148.769 855.047 148.338 855.578 148.238 855.777C146.879 858.565 144.325 860.722 139.219 856.375V856.408Z" fill="#9E582D"/>
<path fill-rule="evenodd" clip-rule="evenodd" d="M-4.96057 1456C351.415 1378.88 175.697 1437.01 490.083 1437.01C747.712 1437.01 850.322 1437.01 1030.95 1437.01C1100.73 1439.43 1159.24 1442.37 1209.59 1443.64C1286.19 1445.59 1365.71 1434.5 1442 1441.57V1844.01H-4.99365V1456H-4.96057Z" fill="#733C1B"/>
<path fill-rule="evenodd" clip-rule="evenodd" d="M1440.96 1760.29C1084.58 1691.98 1255.69 1803.08 941.3 1803.08C683.671 1803.08 577.591 1735.89 415 1791.5C278.967 1837.99 177.089 1716.91 109.238 1747.51C68.2422 1766 29.6309 1774.85 -6 1777.78V2104.01H1440.99V1760.29H1440.96Z" fill="#613317"/>
<path fill-rule="evenodd" clip-rule="evenodd" d="M-1.96704 2192.13C353.179 2113.25 182.668 2241.53 495.97 2241.53C752.71 2241.53 864.711 2092.89 1026.74 2157.09C1162.31 2210.78 1257.54 2142.04 1325.16 2177.37C1366.01 2198.71 1404.49 2208.94 1440 2212.32V2589H-2V2192.13H-1.96704Z" fill="#733C1B"/>
<path fill-rule="evenodd" clip-rule="evenodd" d="M395.268 1950.89C398.949 1946.44 404.188 1944.71 406.941 1947C409.693 1949.29 408.964 1954.77 405.283 1959.22C401.602 1963.66 396.363 1965.39 393.61 1963.1C390.858 1960.81 391.588 1955.33 395.268 1950.89Z" fill="#542B11"/>
<path fill-rule="evenodd" clip-rule="evenodd" d="M61.1081 1959.57C52.7185 1974.47 71.9846 1972.25 73.3773 1953.83C73.6758 1949.92 79.6114 1934.25 62.1692 1942.22C55.7361 1945.14 61.2075 1959.47 61.1412 1959.57H61.1081Z" fill="#542B11"/>
<path fill-rule="evenodd" clip-rule="evenodd" d="M73.7042 1878.25C80.5683 1879.34 85.5755 1883.72 84.8791 1888C84.1828 1892.28 78.0481 1894.84 71.184 1893.74C64.3198 1892.65 59.3126 1888.27 60.009 1883.99C60.7054 1879.71 66.84 1877.15 73.7042 1878.25Z" fill="#542B11"/>
<path fill-rule="evenodd" clip-rule="evenodd" d="M428.369 1887.27C426.479 1876.06 410.33 1877.68 404.593 1878.75C398.956 1879.81 401.741 1898.36 418.553 1894.24C426.777 1892.25 427.971 1885.02 428.369 1887.27Z" fill="#542B11"/>
<path fill-rule="evenodd" clip-rule="evenodd" d="M525.118 1989.64C519.879 1989.24 495.374 1979.18 499.651 1973.28C502.536 1969.26 515.8 1976.03 522.134 1976.03C523.328 1976.03 533.607 1976.7 534.105 1977.82C537.52 1978.72 534.105 1990.3 525.085 1989.64H525.118Z" fill="#542B11"/>
<path fill-rule="evenodd" clip-rule="evenodd" d="M611.103 1982.07C599.364 1983.66 571.443 1964.12 604.106 1963.85C624.533 1963.69 647.877 1976.99 611.103 1982.07Z" fill="#542B11"/>
<path fill-rule="evenodd" clip-rule="evenodd" d="M736.423 1963.48C727.868 1964.55 721.368 1960.4 730.056 1949.75C740.303 1937.17 748.626 1959.93 736.423 1963.48Z" fill="#542B11"/>
<path fill-rule="evenodd" clip-rule="evenodd" d="M724.577 1885.17C719.868 1884.48 697.883 1866.69 701.73 1856.24C704.316 1849.17 716.221 1861.11 721.924 1861.11C722.985 1861.11 732.237 1862.28 732.668 1864.3C735.752 1865.86 732.668 1886.37 724.577 1885.17Z" fill="#542B11"/>
<path fill-rule="evenodd" clip-rule="evenodd" d="M900.686 2392.12C902.577 2380.9 918.726 2382.53 924.462 2383.59C930.1 2384.65 927.314 2403.2 910.502 2399.09C902.278 2397.1 901.084 2389.86 900.686 2392.12Z" fill="#663414"/>
<path fill-rule="evenodd" clip-rule="evenodd" d="M879.431 2381.14C888.517 2382.96 884.604 2400.22 869.914 2395.51C863.083 2393.28 871.174 2379.48 879.431 2381.14Z" fill="#663414"/>
<path fill-rule="evenodd" clip-rule="evenodd" d="M783.266 2391.16C787.975 2390.46 809.96 2372.67 806.114 2362.22C803.527 2355.15 791.623 2367.1 785.919 2367.1C784.858 2367.1 775.606 2368.26 775.175 2370.29C772.091 2371.84 775.175 2392.35 783.266 2391.16Z" fill="#663414"/>
<path fill-rule="evenodd" clip-rule="evenodd" d="M965.382 2385.85C961.071 2397.66 944.126 2384.79 952.781 2378.65C956.396 2376.09 968.764 2376.59 965.382 2385.85Z" fill="#663414"/>
<path fill-rule="evenodd" clip-rule="evenodd" d="M1365.19 2292.14C1367.08 2280.92 1383.23 2282.55 1388.97 2283.61C1394.61 2284.67 1391.82 2303.22 1375.01 2299.1C1366.79 2297.11 1365.59 2289.88 1365.19 2292.14Z" fill="#663414"/>
<path fill-rule="evenodd" clip-rule="evenodd" d="M1343.94 2281.15C1353.02 2282.98 1349.11 2300.23 1334.42 2295.52C1327.59 2293.3 1335.68 2279.49 1343.94 2281.15Z" fill="#663414"/>
<path fill-rule="evenodd" clip-rule="evenodd" d="M1247.77 2291.17C1252.48 2290.48 1274.47 2272.69 1270.62 2262.24C1268.04 2255.17 1256.13 2267.11 1250.43 2267.11C1249.37 2267.11 1240.11 2268.28 1239.68 2270.3C1236.6 2271.86 1239.68 2292.37 1247.77 2291.17Z" fill="#663414"/>
<path fill-rule="evenodd" clip-rule="evenodd" d="M1245.52 2386.31C1246.81 2378.61 1257.89 2379.74 1261.83 2380.47C1265.71 2381.2 1263.79 2393.95 1252.25 2391.13C1246.61 2389.73 1245.78 2384.79 1245.52 2386.35V2386.31Z" fill="#663414"/>
<path fill-rule="evenodd" clip-rule="evenodd" d="M1230.9 2378.78C1237.13 2380.04 1234.44 2391.89 1224.36 2388.64C1219.65 2387.11 1225.23 2377.65 1230.9 2378.78Z" fill="#663414"/>
<path fill-rule="evenodd" clip-rule="evenodd" d="M1296.15 2364.31C1308.16 2361.13 1316.52 2367.7 1301.16 2373.87C1289.36 2378.61 1285.94 2367 1296.15 2364.31Z" fill="#663414"/>
<path fill-rule="evenodd" clip-rule="evenodd" d="M1289.89 2382.03C1286.94 2390.13 1275.3 2381.3 1281.23 2377.09C1283.69 2375.33 1292.21 2375.69 1289.89 2382.03Z" fill="#663414"/>
<path fill-rule="evenodd" clip-rule="evenodd" d="M1271.15 2366.93C1275.1 2362.45 1277.05 2369.12 1276.56 2370.62C1276.03 2372.28 1272.08 2371.71 1271.15 2366.93Z" fill="#663414"/>
<path fill-rule="evenodd" clip-rule="evenodd" d="M1286.93 1646.12C1285.04 1634.9 1268.89 1636.53 1263.16 1637.59C1257.52 1638.65 1260.3 1657.2 1277.12 1653.09C1285.34 1651.1 1286.53 1643.86 1286.93 1646.12Z" fill="#663414"/>
<path fill-rule="evenodd" clip-rule="evenodd" d="M1308.19 1635.14C1299.1 1636.96 1303.01 1654.22 1317.7 1649.51C1324.54 1647.28 1316.44 1633.48 1308.19 1635.14Z" fill="#663414"/>
<path fill-rule="evenodd" clip-rule="evenodd" d="M1404.35 1645.16C1399.64 1644.46 1377.66 1626.67 1381.5 1616.22C1384.09 1609.15 1396 1621.1 1401.7 1621.1C1402.76 1621.1 1412.01 1622.26 1412.44 1624.29C1415.53 1625.84 1412.44 1646.35 1404.35 1645.16Z" fill="#663414"/>
<path fill-rule="evenodd" clip-rule="evenodd" d="M1222.24 1639.85C1226.55 1651.66 1243.49 1638.79 1234.84 1632.65C1231.22 1630.09 1218.85 1630.59 1222.24 1639.85Z" fill="#663414"/>
<path fill-rule="evenodd" clip-rule="evenodd" d="M822.424 1546.14C820.534 1534.92 804.385 1536.55 798.649 1537.61C793.011 1538.67 795.797 1557.22 812.609 1553.1C820.833 1551.11 822.026 1543.88 822.424 1546.14Z" fill="#663414"/>
<path fill-rule="evenodd" clip-rule="evenodd" d="M843.68 1535.15C834.594 1536.98 838.507 1554.23 853.197 1549.52C860.028 1547.3 851.937 1533.49 843.68 1535.15Z" fill="#663414"/>
<path fill-rule="evenodd" clip-rule="evenodd" d="M939.844 1545.17C935.136 1544.48 913.151 1526.69 916.997 1516.24C919.584 1509.17 931.488 1521.11 937.192 1521.11C938.253 1521.11 947.505 1522.28 947.936 1524.3C951.019 1525.86 947.936 1546.37 939.844 1545.17Z" fill="#663414"/>
<path fill-rule="evenodd" clip-rule="evenodd" d="M942.1 1640.31C940.806 1632.61 929.731 1633.74 925.785 1634.47C921.905 1635.2 923.828 1647.95 935.368 1645.13C941.005 1643.73 941.834 1638.79 942.1 1640.35V1640.31Z" fill="#663414"/>
<path fill-rule="evenodd" clip-rule="evenodd" d="M956.723 1632.78C950.489 1634.04 953.175 1645.89 963.256 1642.64C967.964 1641.11 962.393 1631.65 956.723 1632.78Z" fill="#663414"/>
<path fill-rule="evenodd" clip-rule="evenodd" d="M891.464 1618.31C879.46 1615.13 871.103 1621.7 886.457 1627.87C898.262 1632.61 901.677 1621 891.464 1618.31Z" fill="#663414"/>
<path fill-rule="evenodd" clip-rule="evenodd" d="M897.731 1636.03C900.682 1644.13 912.321 1635.3 906.386 1631.09C903.932 1629.33 895.41 1629.69 897.731 1636.03Z" fill="#663414"/>
<path fill-rule="evenodd" clip-rule="evenodd" d="M916.467 1620.93C912.521 1616.45 910.564 1623.12 911.061 1624.62C911.592 1626.28 915.538 1625.71 916.467 1620.93Z" fill="#663414"/>
<path fill-rule="evenodd" clip-rule="evenodd" d="M1441.97 2514.43C1086.33 2398.05 1257.08 2587.33 943.34 2587.33C686.244 2587.33 574.086 2368.01 411.832 2462.74C276.08 2541.95 180.71 2440.53 112.999 2492.66C72.0886 2524.15 33.5572 2539.24 -2 2544.22V3100H1442V2514.43H1441.97Z" fill="#613317"/>
<path fill-rule="evenodd" clip-rule="evenodd" d="M-0.967013 3122.18C354.179 3007.73 183.668 3193.86 496.97 3193.86C753.71 3193.86 865.711 2978.19 1027.74 3071.35C1163.31 3149.24 1258.54 3049.5 1326.16 3100.77C1367.01 3131.74 1405.49 3146.57 1441 3151.47V3698H-1.00005V3122.18H-0.967013Z" fill="#733C1B"/>
<path fill-rule="evenodd" clip-rule="evenodd" d="M4.03287 3613.32C357.947 3529.51 188.028 3665.82 500.243 3665.82C756.093 3665.82 867.706 3507.88 1029.17 3576.1C1164.27 3633.14 1259.18 3560.1 1326.56 3597.64C1367.27 3620.32 1405.62 3631.18 1441 3634.77V4035H3.99995V3613.32H4.03287Z" fill="#613317"/>
<path fill-rule="evenodd" clip-rule="evenodd" d="M1.03296 4088.66C356.179 3971.93 185.668 4161.78 498.97 4161.78C755.71 4161.78 867.711 3941.8 1029.74 4036.82C1165.31 4116.26 1260.54 4014.53 1328.16 4066.82C1369.01 4098.41 1407.49 4113.54 1443 4118.54V4676H1V4088.66H1.03296Z" fill="#733C1B"/>
</g>
</g>
<defs>
<clipPath id="clip0_0_122">
<rect width="1440" height="5187" fill="white" transform="matrix(-1 0 0 1 1440 0)"/>
</clipPath>
<clipPath id="clip1_0_122">
<rect width="1440" height="5187" fill="white"/>
</clipPath>
</defs>
</svg>
