<svg width="86" height="77" viewBox="0 0 86 77" fill="none" xmlns="http://www.w3.org/2000/svg">
<path fill-rule="evenodd" clip-rule="evenodd" d="M9.5 60.9712C8.34578 117.556 138.078 3.13834 61 0.47123C61 -4.73875 41 34.9713 15.1542 34.9712C6.79786 34.9712 0 39.2188 0 44.4288C0 49.6388 1.14364 60.9712 9.5 60.9712Z" fill="#542B11"/>
<path fill-rule="evenodd" clip-rule="evenodd" d="M23.2851 38.0672C23.2851 38.0672 29.8481 36.8998 31.7254 35.3221C33.6028 33.7445 48.4167 23.4899 51.3511 19.8614C54.2855 16.2328 55.453 13.188 55.8001 11.7839C56.1471 10.3798 56.9675 2.88605 62.7101 2.06568C68.4527 1.24531 69.1468 6.04129 67.7427 8.97569C66.3386 11.9101 64.6979 16.4695 67.2695 17.1794C69.841 17.8893 76.0569 12.8409 79.9221 17.1794C83.7872 21.5179 82.1465 27.1342 75.9464 28.1912C69.7463 29.2483 58.2612 33.1134 52.0453 36.3949C45.8294 39.6764 32.246 48.7004 28.4913 53.6227C24.7365 58.5449 26.5035 64.9816 23.5691 66.7486C20.6347 68.4997 13.2671 68.8626 13.7247 63.4671C14.1979 58.0716 18.1735 54.6797 15.0183 52.4552C11.863 50.2308 8.10827 53.386 5.17388 47.0597C2.23948 40.7334 5.06344 37.9252 10.7902 37.5781C16.517 37.2311 23.2693 38.1145 23.2693 38.1145L23.2851 38.0672Z" fill="#F5E1C7"/>
</svg>
