<svg width="328" height="136" viewBox="0 0 328 136" fill="none" xmlns="http://www.w3.org/2000/svg">
<path fill-rule="evenodd" clip-rule="evenodd" d="M48.9688 1.45736C48.867 1.23861 48.8335 0.995496 48.8669 0.758001C48.878 0.518644 48.9993 0.318529 49.1624 0.181962C49.3255 0.0453955 49.5067 0.00045012 49.6837 0.0452622C49.8622 0.0601551 50.0114 0.222776 50.1355 0.443382C51.385 2.95051 52.2707 6.53859 52.7732 10.6654C53.2882 15.0034 53.3962 19.9083 53.1028 24.7796C52.819 29.4414 52.1338 34.0698 51.0971 38.0681C50.1204 41.7411 48.8313 44.9074 47.2297 47.0864C46.774 47.7392 46.0952 48.854 45.3663 50.0847C45.0025 50.6851 44.6359 51.3453 44.2708 51.9756C44.2017 56.355 43.8578 59.9006 43.1431 63.2349C42.9425 64.1793 42.721 65.092 42.4548 66.0008L42.5916 66.9133C44.1194 76.4419 44.7111 80.0956 42.6173 91.4245C42.4641 92.3128 42.725 93.4459 42.9705 94.4275C43.0263 94.6724 43.082 94.9174 43.1406 95.1025C43.1574 95.224 43.0849 95.3381 42.9706 95.3886C42.8563 95.4392 42.7475 95.37 42.7294 95.2784C42.6736 95.0335 42.6164 94.8184 42.5815 94.6053C42.3374 93.5937 42.057 92.399 42.2367 91.4228C44.304 80.1818 43.711 76.5581 42.2041 67.0612L42.2068 67.0013C40.6476 72.1274 38.1444 77.3249 34.3773 85.1502L34.1793 85.5542C33.3849 87.2299 32.8512 89.0777 32.4514 90.9365C32.0501 92.8253 31.8023 94.787 31.5823 96.6308C31.3706 98.2951 31.1868 99.8417 30.8971 101.259C30.8413 101.495 30.7201 101.695 30.5793 101.833C30.4399 101.942 30.2363 101.985 30.0593 101.94C29.8836 101.865 29.7344 101.703 29.6312 101.514C29.5517 101.297 29.5182 101.054 29.5516 100.817C29.6938 100.168 29.794 99.4551 29.9194 98.6846C30.0196 97.9721 30.1241 97.1699 30.2299 96.3377C30.475 94.4359 30.7257 92.4144 31.1325 90.406C31.5407 88.3676 32.1259 86.374 33.0179 84.5261L33.2158 84.1221C37.8011 74.5931 40.4784 69.0196 41.8228 62.7343C42.3648 60.2265 42.6656 57.6084 42.8296 54.5585C42.438 55.2767 42.1467 55.763 42.0282 55.9033C41.886 56.0716 41.7034 56.1465 41.525 56.1316C41.3465 56.1167 41.1722 56.0121 41.069 55.8232C40.9449 55.6026 40.9114 55.3596 40.9212 55.1501C40.9323 54.9108 41.0089 54.7069 41.1511 54.5386C41.388 54.258 41.979 53.1059 42.1992 52.7038L42.9546 51.3852C43.0043 47.4246 42.8182 42.7535 42.4423 36.8652C42.4298 36.6539 42.3991 36.351 42.3697 36.0182C42.08 37.4357 41.7553 38.6401 41.4376 39.6948C40.7827 41.7427 40.09 43.1566 39.4224 44.5126C38.8064 45.7227 38.2378 46.8766 37.8086 48.4027C37.3571 49.9268 37.0437 51.853 36.9131 54.6654C36.902 54.9048 36.8015 55.1367 36.6817 55.3069C36.5395 55.4753 36.3792 55.552 36.1784 55.5353C35.9777 55.5185 35.8271 55.3858 35.7002 55.225C35.5733 55.0642 35.5175 54.8193 35.53 54.55C35.8122 48.4763 36.9732 46.1404 38.2833 43.4864C38.9021 42.2165 39.5696 40.8605 40.173 38.9586C40.7764 37.0566 41.3393 34.5806 41.7487 31.0706C41.5156 29.3391 41.2268 27.3627 40.9212 25.2647C40.1244 19.7618 39.1671 13.3744 38.4666 8.69048L38.4694 8.63062C37.8498 4.61422 37.441 1.84685 37.5218 1.55324C37.5775 1.31761 37.7211 1.11936 37.8814 1.04263C38.0431 0.935987 38.2229 0.920965 38.3986 0.995697C38.5743 1.07043 38.7221 1.26296 38.7792 1.47798C38.8587 1.69486 38.8699 1.9361 38.8128 2.20165C38.7836 2.34939 38.93 2.57182 39.0681 3.45439C39.2203 4.51833 39.463 6.04037 39.8035 8.35149L39.7952 8.53104C40.173 9.07319 40.774 10.1145 41.4503 11.4625C42.3735 13.2816 43.5589 15.7233 44.6801 18.0995C45.5767 20.0065 46.4107 21.8182 47.0159 23.2504C47.5612 24.5274 47.9405 25.5201 48.0507 26.0399C48.1065 26.2849 48.0731 26.5224 47.9951 26.7562C47.9184 26.96 47.7539 27.1265 47.5936 27.2032C47.411 27.2781 47.2339 27.2333 47.0819 27.1305C46.9313 26.9978 46.8059 26.8071 46.7501 26.5622C46.6776 26.1957 46.3372 25.3263 45.8324 24.1428C45.2481 22.7424 44.4128 20.9607 43.5579 19.1172C42.519 16.898 41.395 14.5816 40.4942 12.7643C41.0761 16.6274 41.7249 20.9766 42.2999 24.9893C42.6041 27.1172 42.8916 29.1235 43.1233 30.8849L43.1177 31.0046C43.5043 33.7701 43.7638 35.8943 43.8114 36.7993C44.1034 41.5993 44.2754 45.6084 44.3149 49.0958C45.069 47.8072 45.7952 46.6363 46.2747 45.9555C47.7563 43.9466 48.945 41.0123 49.8438 37.5731C50.8498 33.7524 51.4821 29.2998 51.7589 24.7875C52.044 20.0957 51.9514 15.3424 51.4503 11.1857C50.9813 7.30204 50.1751 3.93083 49.0274 1.64245L48.9688 1.45736ZM323.151 26.3221C323.151 26.3221 323.006 26.0697 322.991 25.9183C322.975 25.7668 323.003 25.649 323.01 25.4994C323.038 25.3816 323.087 25.2955 323.134 25.2394C323.134 25.2394 323.368 25.0187 323.527 24.9719C323.686 24.9251 323.842 24.9381 323.975 24.9792C324.152 25.024 324.304 25.1268 324.431 25.2876C325.525 26.7906 326.335 29.1109 326.875 31.9492C327.433 34.8792 327.72 38.3572 327.724 42.1121C327.732 45.8071 327.436 49.7771 326.895 53.6967C326.365 57.4068 325.589 61.0965 324.538 64.4329C324.459 64.6966 324.294 64.863 324.067 64.9342C323.93 64.9829 323.773 64.9998 323.596 64.955C323.506 64.9475 323.418 64.9101 323.353 64.8746C323.244 64.8055 323.136 64.7363 323.074 64.6111C322.949 64.4204 322.891 64.2054 322.925 63.9679L322.933 63.7884C323.981 60.5118 324.729 56.9399 325.254 53.3495C325.79 49.5196 326.059 45.6675 326.071 42.0342C326.082 38.4308 325.812 35.0743 325.27 32.2958C324.763 29.7005 324.053 27.6288 323.106 26.3184L323.151 26.3221ZM291.394 32.2019L291.374 31.6596C291.274 28.0469 291.643 24.924 292.597 22.6909C292.624 22.603 292.65 22.5151 292.653 22.4553C292.663 22.2458 292.649 22.0645 292.568 21.8775C292.507 21.7522 292.421 21.655 292.335 21.5877C292.249 21.5204 292.138 21.4812 292.028 21.442C291.872 21.429 291.694 21.4141 291.557 21.4628C291.352 21.5358 291.189 21.6723 291.089 21.9042C290.034 24.3692 289.63 27.7596 289.718 31.6415C289.837 35.8264 290.532 40.63 291.652 45.4391C292.848 50.5548 294.49 55.7078 296.383 60.251C298.217 64.6391 300.28 68.4455 302.374 71.0832C303.643 72.6909 304.694 74.1603 305.481 75.5475C306.245 76.9328 306.789 78.2397 307.041 79.5523L307.038 79.6121C307.271 80.863 307.258 82.1234 306.973 83.4212C306.664 84.7771 306.059 86.2284 305.114 87.7714C305.066 87.8575 305.015 87.9734 305.01 88.0931C305.001 88.2726 304.995 88.4222 305.054 88.5774C305.094 88.7008 305.156 88.7961 305.241 88.8933C305.241 88.8933 305.456 89.0915 305.611 89.1344C305.766 89.1774 305.923 89.1605 306.079 89.1735C306.26 89.1286 306.445 89.0238 306.543 88.8218C307.586 87.1067 308.266 85.4814 308.63 83.9199C308.741 83.4486 308.807 83.0036 308.85 82.5566C309.041 82.7828 309.233 82.9791 309.447 83.2071C310.662 84.51 312.228 85.9923 313.88 87.5419L313.925 87.5456C316.97 90.4429 320.231 93.5084 321.666 95.8808C322.333 96.9576 322.56 97.8476 322.089 98.3489C321.994 98.4612 321.944 98.5771 321.894 98.6931C321.865 98.8408 321.881 98.9623 321.874 99.1119C321.874 99.1119 321.93 99.3569 321.993 99.4522C322.077 99.5794 322.205 99.7102 322.358 99.7831C322.512 99.856 322.668 99.869 322.804 99.8203C322.984 99.8053 323.145 99.7285 323.285 99.5901C324.724 98.0282 323.842 95.7921 321.897 93.317C320.142 91.098 317.502 88.6251 315.014 86.2848C311.882 83.3203 308.986 80.5857 308.71 79.3011C308.422 77.7754 307.82 76.2833 306.95 74.769C306.102 73.2565 305.009 71.7236 303.676 70.0505C301.665 67.5399 299.688 63.8307 297.914 59.5978C297.571 58.7883 297.251 57.9507 296.91 57.1112C298.464 58.3523 300.447 60.0195 302.664 61.9466C305.139 64.1054 307.869 66.5559 310.532 69.0008C311.67 70.0569 312.807 71.113 313.902 72.1354C316.926 75.0009 319.688 77.7244 321.607 79.8068C323.206 81.5321 324.224 82.7584 324.273 83.153C324.305 83.4259 324.451 83.6485 324.669 83.7867C324.8 83.8578 324.955 83.9007 325.111 83.9137L325.312 83.9305C325.45 83.8519 325.564 83.8014 325.657 83.7191C325.822 83.5526 325.921 83.3506 325.911 83.0794L325.918 82.9298C325.796 82.1688 324.657 80.662 322.846 78.6787C320.886 76.5328 318.08 73.7757 314.992 70.8447L314.348 70.2504C314.96 70.5718 315.593 70.9249 316.247 71.3099C317.444 72.0406 318.66 72.8629 319.699 73.6404C320.65 74.3806 321.446 75.0778 321.934 75.6591L322.103 75.8834C322.207 76.0423 322.381 76.147 322.559 76.1918C322.715 76.2049 322.871 76.2179 323.005 76.2291C323.164 76.1823 323.302 76.1037 323.398 75.9615C323.469 75.8773 323.519 75.7613 323.545 75.6734C323.575 75.5257 323.58 75.406 323.565 75.2546C323.55 75.1031 323.488 74.9779 323.405 74.8508L323.151 74.5292C322.6 73.8525 321.719 73.0581 320.68 72.2806C319.6 71.4396 318.318 70.5817 317.055 69.8155C315.749 69.0157 314.435 68.3654 313.337 67.9133C312.545 67.6069 311.837 67.4277 311.3 67.4129C308.68 65.0017 306.035 62.6484 303.624 60.555C300.289 57.6335 297.399 55.2598 295.772 54.1328C294.766 51.1955 293.902 48.1198 293.192 45.087C292.332 41.411 291.718 37.7555 291.449 34.3991C292.666 35.1915 293.9 36.1054 295.065 37.0437C296.316 38.0791 297.429 39.1932 298.25 40.313C298.903 41.2085 299.375 42.1189 299.514 43.0015C299.638 43.7027 299.537 44.4151 299.147 45.1034C299.098 45.1895 299.07 45.3073 299.043 45.4251C299.034 45.6046 299.027 45.7542 299.087 45.9094C299.087 45.9094 299.189 46.1282 299.274 46.2254C299.359 46.3226 299.49 46.3936 299.645 46.4365C299.8 46.4795 299.957 46.4626 300.091 46.4738C300.272 46.4288 300.458 46.2941 300.579 46.094C301.188 45.0335 301.33 43.904 301.158 42.7784C300.967 41.591 300.394 40.4319 299.573 39.3121C298.667 38.0951 297.469 36.8838 296.132 35.7811C294.601 34.5119 292.91 33.3195 291.32 32.3459L291.394 32.2019ZM267.139 81.929C267.139 81.929 267.188 81.8429 267.212 81.8149C264.451 75.6975 264.721 71.3348 265.224 62.9068L265.227 62.8469C265.3 61.2612 265.426 59.5296 265.534 57.1959C265.631 55.1015 266.23 51.8475 267.165 48.111C268.1 44.3746 269.396 40.0975 270.816 36.0411C272.082 32.4223 273.496 28.9661 274.881 26.1382C276.143 23.5703 277.403 21.5129 278.578 20.3195C278.696 20.1792 278.879 20.1043 279.036 20.0874C279.193 20.1005 279.349 20.1135 279.481 20.1546C279.657 20.2293 279.785 20.3602 279.869 20.4873C279.931 20.5826 279.95 20.6742 279.966 20.7958C279.983 20.9173 279.976 21.0669 279.947 21.2146C279.918 21.3624 279.845 21.4765 279.75 21.5887C278.692 22.6718 277.505 24.6151 276.318 27.039C274.957 29.8089 273.592 33.1791 272.353 36.71C270.935 40.7066 269.688 44.8976 268.755 48.6041C268.207 50.751 267.802 52.7296 267.523 54.3883C269.546 54.7073 270.95 56.2963 271.942 58.5716C272.972 60.9704 273.521 64.1098 273.803 67.197C273.951 68.8313 274.033 70.43 274.076 71.9054C274.119 73.4107 274.147 74.7346 274.141 75.8154L274.167 78.1603L274.228 78.2855C274.228 78.2855 274.285 78.5006 274.28 78.6203C274.274 78.7399 274.268 78.8596 274.218 78.9755C274.167 79.1214 274.071 79.2636 273.933 79.3422C273.795 79.4208 273.636 79.4676 273.456 79.4826C273.3 79.4696 273.144 79.4565 273.014 79.3556C272.71 79.15 272.576 78.6583 272.52 77.9328C272.478 77.3887 272.467 76.6668 272.463 75.7954C272.446 74.7128 272.441 73.3608 272.395 71.9453C272.35 70.4998 272.267 68.931 272.116 67.3565C271.845 64.5106 271.394 61.6797 270.531 59.5352C269.79 57.6412 268.732 56.3214 267.24 56.1369C267.197 56.5838 267.156 57.0008 267.139 57.3598C267.053 59.2148 266.937 61.2176 266.83 63.0408L266.827 63.1006C266.445 69.4062 266.218 73.322 267.346 77.471C268.132 80.3298 269.561 83.3025 272.063 87.2957C272.429 87.5967 272.883 87.9649 273.445 88.4022C274.612 89.3106 276.193 90.4637 277.903 91.7178C281.454 94.3269 285.699 97.4444 288.865 100.142C292.333 103.104 294.519 105.689 293.34 106.973C293.221 107.113 293.061 107.19 292.881 107.205C292.747 107.194 292.59 107.21 292.457 107.169C292.323 107.158 292.216 107.059 292.13 106.992C292.043 106.925 291.959 106.797 291.92 106.674C291.841 106.457 291.849 106.278 291.903 106.072C291.903 106.072 291.98 105.868 292.051 105.784C292.359 105.419 290.407 103.574 287.605 101.238C284.501 98.636 280.345 95.5559 276.859 92.9823L274.803 91.4591C275.264 92.1283 275.747 92.8294 276.251 93.5323C276.819 94.3306 277.141 95.5889 277.295 97.1035C277.465 98.7397 277.418 100.718 277.231 102.805C277.021 105.401 276.602 108.159 276.13 110.612C275.571 113.479 274.919 115.948 274.437 117.169C274.337 117.401 274.172 117.567 273.969 117.611C273.832 117.659 273.674 117.676 273.497 117.631C273.386 117.622 273.277 117.553 273.189 117.515C273.08 117.446 272.995 117.349 272.933 117.254C272.83 117.065 272.793 116.882 272.825 116.674C272.829 116.584 272.834 116.495 272.881 116.438C273.338 115.275 273.939 112.953 274.493 110.175C274.963 107.782 275.355 105.111 275.584 102.607C275.742 100.638 275.805 98.8113 275.651 97.2967C275.53 96.0551 275.305 95.1053 274.906 94.5313C273.247 92.1702 271.844 90.0708 270.677 88.2013C270.333 87.9022 270.076 87.6406 269.951 87.4499C269.888 87.3545 269.847 87.261 269.829 87.1694C269.792 87.0161 269.797 86.8964 269.825 86.7786C269.202 85.7354 268.643 84.7577 268.17 83.8472C267.905 85.2067 268.356 86.5959 268.808 87.9552L268.845 88.1085C269.432 89.9296 269.996 91.7788 269.34 93.8565C268.685 95.9044 266.817 98.0312 262.519 100.406C262.403 100.486 262.246 100.503 262.09 100.49C261.956 100.479 261.8 100.466 261.691 100.397C261.56 100.326 261.474 100.258 261.388 100.161C261.305 100.034 261.245 99.8789 261.231 99.6975C261.239 99.518 261.248 99.3385 261.344 99.1963C261.344 99.1963 261.487 98.998 261.602 98.9475C269.184 94.8046 268.256 91.6336 267.257 88.5467L267.217 88.4532C266.884 87.4342 266.55 86.4152 266.444 85.325C266.319 84.1732 266.438 83.0419 267.054 81.8318L267.139 81.929ZM173.569 16.2113L173.573 16.1215C173.516 15.9065 173.548 15.6989 173.622 15.5549C173.622 15.5549 173.791 15.2986 173.905 15.2481L174.041 15.1994C174.178 15.1508 174.333 15.1937 174.465 15.2348C174.619 15.3077 174.746 15.4684 174.803 15.6835C176.245 20.3092 173.715 26.5557 170.588 32.1817C170.892 35.2707 171.192 38.4495 171.409 41.5012C171.713 45.5513 171.941 49.3248 171.968 52.1204C171.986 53.1731 171.966 54.1025 171.906 54.9085L171.973 54.914C171.973 54.914 172.123 55.0467 172.187 55.1122C172.187 55.1122 172.334 55.3347 172.349 55.4861L176.054 63.4544L182.327 76.8932C182.327 76.8932 182.451 77.1138 182.468 77.2353C182.524 77.4803 182.469 77.686 182.348 77.8861C182.348 77.8861 182.206 78.0545 182.114 78.1069C181.999 78.1574 181.82 78.1725 181.64 78.1875C181.461 78.1726 181.283 78.1577 181.13 78.0848C180.932 78.0082 180.757 77.9036 180.651 77.7746C180.61 77.711 179.711 75.8339 178.468 73.2071L174.168 64.0479C173.048 61.6417 172.03 59.4542 171.339 57.9548L171.217 57.6744C169.573 60.7809 168.208 63.16 167.07 65.0173C165.881 66.9905 164.919 68.4121 164.173 69.5212C162.993 71.3149 162.294 72.368 161.851 73.7126C161.536 74.7076 161.325 75.8913 161.151 77.7089C160.974 79.5864 160.814 82.066 160.584 85.5611L160.168 92.1041C160.154 92.4033 160.008 92.6614 159.8 92.7943C159.662 92.8728 159.504 92.9197 159.325 92.9048C159.147 92.8899 158.993 92.817 158.887 92.688C158.693 92.5217 158.594 92.2431 158.608 91.9439C158.71 89.7598 158.924 87.555 159.024 85.4008C159.469 78.2294 159.673 75.3029 160.38 73.0793C160.903 71.4709 161.649 70.3618 162.902 68.454C163.647 67.3448 164.587 65.9214 165.774 63.9781C166.962 62.0348 168.399 59.5416 170.119 56.2611C170.339 55.859 170.411 54.3031 170.359 52.0461C170.307 49.3086 170.098 45.6268 169.789 41.6663C169.605 39.3682 169.404 36.9486 169.177 34.5869C167.989 36.5602 166.804 38.4437 165.743 40.0672C164.851 41.4345 164.079 42.6315 163.542 43.5779C163.031 44.4663 162.71 45.1003 162.675 45.3677C162.663 45.637 162.542 45.8371 162.38 45.9438C162.264 46.0242 162.105 46.071 161.949 46.058C161.793 46.045 161.663 45.9441 161.557 45.8151C161.43 45.6543 161.373 45.4393 161.384 45.1999L161.387 45.1401C161.526 44.0704 162.904 41.9026 164.738 39.0522C166.017 37.0564 167.538 34.6904 168.951 32.2253C168.725 29.8636 168.472 27.5899 168.232 25.5274C167.643 20.3722 167.127 16.5447 166.92 16.167C166.88 16.0735 166.84 15.98 166.823 15.8585C166.787 15.6752 166.817 15.4976 166.869 15.3517C166.919 15.2358 166.992 15.1217 167.085 15.0394C167.178 14.957 167.27 14.9047 167.383 14.884C167.542 14.8372 167.698 14.8503 167.852 14.9231C168.027 14.9979 168.2 15.1324 168.281 15.3194C168.568 15.884 169.164 19.9285 169.766 25.295C169.924 26.7198 170.099 28.2363 170.272 29.8126C170.689 29.0364 171.085 28.2285 171.457 27.4486C173.325 23.3994 174.474 19.3805 173.517 16.3572L173.52 16.2973L173.569 16.2113ZM241.957 85.1136C241.712 86.5348 241.482 89.0687 241.302 91.9672C241.072 95.4921 240.86 99.5593 240.685 102.849L240.681 102.938C240.571 105.302 240.479 107.277 240.382 108.41C240.279 109.663 239.949 110.987 239.508 112.272C239.068 113.556 238.516 114.832 237.986 116.109L237.984 116.169C236.628 119.33 235.32 122.405 236.069 124.6C236.202 125.121 236.288 125.669 236.375 126.217L236.478 126.886L237.304 131.28C237.575 132.685 237.79 133.844 237.845 134.089C237.843 134.149 237.861 134.24 237.88 134.302C237.869 134.541 237.815 134.747 237.695 134.917C237.623 135.031 237.507 135.112 237.393 135.162C237.302 135.185 237.211 135.207 237.121 135.23C236.942 135.215 236.764 135.2 236.633 135.129C236.414 135.021 236.267 134.798 236.212 134.553C236.082 133.972 235.329 129.944 234.844 127.351L234.45 125.245C233.466 122.31 234.924 118.887 236.431 115.379C237.462 112.942 238.517 110.477 238.663 108.296C238.688 107.758 238.746 106.982 238.789 106.054L238.942 102.763C239.097 99.9227 239.277 96.5137 239.469 93.346L238.84 95.3359C237.767 98.6704 236.518 102.411 235.257 105.94C234.279 108.681 233.306 111.303 232.419 113.512C231.635 115.459 230.91 117.081 230.298 118.201C230.199 118.403 230.014 118.538 229.809 118.611C229.65 118.657 229.472 118.643 229.318 118.57C229.186 118.529 229.055 118.458 228.97 118.36C228.885 118.263 228.8 118.166 228.761 118.043C228.702 117.857 228.666 117.674 228.696 117.497C228.702 117.377 228.751 117.291 228.799 117.205C229.386 116.142 230.064 114.577 230.847 112.66C231.732 110.481 232.681 107.887 233.635 105.174C234.873 101.673 236.121 97.9323 237.193 94.6278C238.658 90.0945 239.82 86.2868 240.221 84.8786L240.302 84.585C240.359 84.3195 240.392 84.082 240.447 83.8763C240.688 82.5448 240.912 80.6111 241.083 78.3727C241.26 76.0147 241.41 73.264 241.518 70.4497L241.346 70.7957C240.502 72.5575 239.51 74.1566 238.538 75.307C237.567 76.4574 236.995 77.6712 236.628 78.8419C236.258 80.0425 236.066 81.288 235.898 82.5054C235.767 83.3956 235.636 84.2857 235.439 85.1403C235.241 86.0249 234.956 86.8721 234.492 87.7044C234.393 87.9064 234.207 88.0411 234.002 88.1141C233.844 88.1609 233.665 88.146 233.489 88.0713C233.357 88.0302 233.248 87.961 233.141 87.8619C233.056 87.7647 232.971 87.6675 232.932 87.5441C232.873 87.359 232.837 87.1758 232.868 86.9982C232.868 86.9982 232.922 86.7924 232.971 86.7064C233.337 86.0462 233.573 85.3149 233.741 84.5781C233.935 83.7833 234.039 82.9811 234.169 82.1208C234.364 80.8155 234.56 79.4804 234.981 78.1338C235.426 76.7593 236.095 75.3734 237.21 74.0247C238.11 72.9585 239.006 71.5015 239.799 69.8556C240.544 68.2958 241.207 66.5491 241.646 64.8136C241.68 62.1433 241.69 59.531 241.641 57.2142C241.641 57.2142 241.562 56.9674 241.546 56.8458C241.532 56.6645 241.562 56.4868 241.614 56.3409L241.577 55.1965C241.488 52.3056 241.295 50.187 241.036 49.5046C240.995 49.4111 240.977 49.3195 240.961 49.198C240.97 48.9885 240.979 48.809 241.075 48.6669C241.075 48.6669 241.22 48.4387 241.312 48.3863C241.312 48.3863 241.519 48.2534 241.677 48.2365C241.857 48.2215 242.034 48.2664 242.166 48.3074C242.363 48.414 242.534 48.5784 242.614 48.7953C242.954 49.6647 243.159 51.9946 243.285 55.0687C243.305 55.611 243.323 56.1832 243.341 56.7554C243.764 57.7818 243.955 58.9692 243.962 60.2613C243.981 61.7946 243.748 63.4272 243.358 65.0766C243.329 65.705 243.344 66.337 243.315 66.9653C243.215 71.0418 243.047 75.1426 242.778 78.5142C242.558 81.3192 242.272 83.638 241.937 85.0519L241.957 85.1136ZM107.014 95.3572C107.222 96.1855 107.463 96.7763 107.712 97.2175C107.981 97.6905 108.257 98.0139 108.512 98.3055C109.594 99.5972 110.167 100.276 108.563 103.956L108.513 104.072C108.415 104.244 108.274 104.383 108.117 104.4C107.958 104.447 107.78 104.432 107.629 104.299L107.565 104.234C107.416 104.071 107.314 103.852 107.303 103.611C107.268 103.398 107.325 103.132 107.402 102.928C107.928 101.711 108.117 101.036 108.114 100.615C108.104 100.344 107.892 100.086 107.637 99.7943C107.467 99.5999 107.298 99.3756 107.108 99.1195L107.093 99.4486C107.133 102.936 107.058 106.955 106.903 110.276C106.856 111.293 106.812 112.25 106.728 113.084C106.668 113.89 106.589 114.635 106.517 115.229C106.415 115.972 106.274 116.591 106.118 117.058C105.912 117.642 105.628 117.978 105.268 118.008C105.201 118.003 105.134 117.997 105.045 117.99C105.045 117.99 104.912 117.949 104.847 117.913C104.673 117.809 104.525 117.616 104.469 117.371C104.412 117.156 104.401 116.915 104.456 116.679L104.46 116.589C104.559 116.387 104.679 116.217 104.819 116.109L104.957 116.03C105.014 115.765 105.1 115.351 105.169 114.846C105.24 114.282 105.316 113.597 105.373 112.851C105.434 112.015 105.498 111.119 105.543 110.162C105.693 106.931 105.743 102.97 105.746 99.5164C105.743 98.1345 105.738 96.8125 105.701 95.6681L105.707 95.5484C105.667 93.5027 105.602 92.0255 105.494 91.4458C104.698 86.4235 104.468 82.6799 104.579 79.3252C104.69 75.9705 105.117 73.0626 105.632 69.6815L105.635 69.6217C105.986 67.3683 106.347 64.9054 106.664 61.9284C106.942 59.3085 107.671 55.6749 108.433 51.8038L108.464 51.6262C108.471 51.4766 108.479 51.2971 108.551 51.183C109.34 47.224 110.161 43.0575 110.566 39.6372C110.97 36.2468 110.978 33.6644 110.162 32.9055C110.013 32.7429 109.911 32.5241 109.876 32.311C109.841 32.0978 109.875 31.8603 109.953 31.6266L110.003 31.5106C110.1 31.3386 110.241 31.2001 110.378 31.1515C110.537 31.1046 110.715 31.1195 110.867 31.2223L110.931 31.2877C112.24 32.5083 112.384 35.6741 111.931 39.661C111.539 43.2626 110.687 47.6367 109.844 51.8014C109.875 52.1043 109.883 52.4054 109.915 52.6784C110.086 54.7951 110.405 58.9967 110.704 63.6472L110.831 65.7303C110.971 66.5829 111.247 67.3869 111.59 68.1964C111.953 69.0677 112.384 69.9146 112.795 70.6998C113.103 71.2962 113.39 71.8608 113.655 72.4236C113.919 73.0162 114.117 73.5734 114.227 74.0932C114.283 74.3382 114.25 74.5757 114.195 74.7814C114.117 75.0151 113.975 75.1835 113.813 75.2902L113.746 75.2846C113.562 75.3894 113.385 75.3446 113.256 75.2436C113.126 75.1427 113.001 74.952 112.942 74.7669L112.946 74.6771C112.779 73.9423 112.264 72.9682 111.709 71.9007C111.524 71.5549 111.317 71.1772 111.133 70.8014C111.245 73.2136 111.337 75.5641 111.354 77.6079C111.388 79.7733 111.345 81.662 111.194 83.0009C111.028 84.639 110.624 85.6265 109.995 85.6642C109.794 85.6474 109.619 85.5727 109.493 85.382C109.388 85.2231 109.309 85.0062 109.298 84.765C109.31 84.4957 109.366 84.26 109.464 84.088C109.585 83.8878 109.77 83.7532 109.95 83.7381C110.039 83.7456 109.857 83.3398 109.912 82.6236C109.989 81.4586 110.001 79.7476 109.984 77.7038C109.939 74.336 109.729 70.1737 109.49 66.159L109.495 66.0692C109.495 66.0692 109.46 65.8561 109.464 65.7663L109.346 63.9543C109.196 61.4188 109.015 59.0309 108.883 57.0675L108.732 57.896C108.43 59.5828 108.181 61.0938 108.055 62.3448C107.739 65.292 107.353 67.8128 107.023 70.098L107.019 70.1877C106.53 73.4809 106.108 76.2991 105.982 79.5023C105.879 82.6775 106.093 86.2696 106.853 91.1087C106.96 91.7183 107.042 93.3171 107.077 95.4525L107.014 95.3572ZM13.0349 94.8426C13.3027 95.8261 13.9136 98.5803 14.7088 102.191C15.6881 106.658 16.938 112.529 18.0764 117.91C18.9553 122.128 19.7589 126.04 20.3029 128.789C20.808 131.414 21.0187 133.143 20.7818 133.424C20.6396 133.592 20.4109 133.694 20.1628 133.733C19.9606 133.746 19.7362 133.757 19.5159 133.679C19.3389 133.634 19.1869 133.531 19.0795 133.432C18.9722 133.333 18.8885 133.206 18.8285 133.051C18.749 132.834 18.7379 132.593 18.8145 132.389C18.8145 132.389 18.9148 132.157 18.9859 132.073C19.1267 131.934 18.5425 131.015 18.124 128.937C17.5799 126.189 16.7735 122.337 15.9114 118.24C14.7939 112.891 13.5413 107.079 12.562 102.612L11.7668 99.0018C10.5502 102.535 9.1761 105.604 7.69869 108.003C7.57743 108.204 7.34602 108.364 7.09787 108.404C6.91664 108.449 6.67126 108.428 6.44959 108.38C6.20562 108.329 5.98816 108.191 5.85988 108.06C5.77483 107.963 5.73437 107.869 5.67162 107.774C5.61166 107.619 5.59765 107.438 5.60599 107.258C5.61155 107.138 5.66309 106.993 5.73418 106.908C7.91407 103.366 9.89857 98.2452 11.3797 92.3917C12.8315 86.686 13.8246 80.2512 14.1165 73.9681C14.3723 68.4629 14.0398 63.0888 13.0075 58.317C12.3253 55.1664 11.3169 52.289 9.95177 49.8623C9.81668 50.8422 9.61324 51.8464 9.36384 52.8769C8.58777 56.086 7.23883 59.5777 5.34065 63.8044C5.06471 64.4422 4.83617 65.5044 4.68579 66.8134C4.53402 68.1524 4.48545 69.6801 4.55118 71.1573C4.60433 72.4233 4.77182 73.6387 5.01454 74.6801C5.22099 75.5384 5.52219 76.2844 5.88055 76.7648C5.9656 76.862 6.00607 76.9555 6.04512 77.0789C6.10092 77.3239 6.09119 77.5333 6.01454 77.7372C5.96298 77.883 5.86817 77.9952 5.75247 78.0757C5.63677 78.1561 5.47649 78.2329 5.29527 78.2778C5.09173 78.3209 4.84635 78.3004 4.64838 78.2238C4.4044 78.1734 4.20925 78.037 4.06145 77.8445C3.53299 77.1696 3.15081 76.2367 2.86625 75.1316C2.56357 73.935 2.38078 72.5681 2.31227 71.1507C2.22979 69.552 2.2839 67.9045 2.43984 66.4758C2.59856 64.9873 2.88137 63.7194 3.23257 62.9077C5.08058 58.7968 6.38084 55.3912 7.12765 52.3298C7.87308 49.2984 8.0874 46.6131 7.81237 43.8569C7.53874 41.0708 6.75482 38.182 5.47735 34.8315C4.20127 31.4511 2.41211 27.5474 0.169724 22.7948C0.108365 22.6696 0.0915969 22.548 0.0748507 22.4265C0.0831901 22.247 0.0915218 22.0675 0.187695 21.9253C0.237867 21.8094 0.30897 21.7251 0.400973 21.6728C0.541758 21.5343 0.769028 21.4632 1.01578 21.4538C1.24023 21.4424 1.46184 21.491 1.6612 21.5377C1.9024 21.6479 2.11852 21.8161 2.22032 22.0349C4.48362 26.8192 6.29373 30.7548 7.61025 34.2286C8.92539 37.7324 9.76928 40.7763 10.0569 43.7438C10.149 44.6526 10.1756 45.5258 10.1799 46.3972L10.2217 46.4608C12.567 49.4799 14.1513 53.4567 15.1292 57.9535C16.1978 62.9084 16.5429 68.4938 16.2788 74.1785C15.98 80.6113 14.9814 87.1658 13.5003 93.0192C13.3372 93.6364 13.1728 94.2835 13.0097 94.9006L13.0349 94.8426Z" fill="#985931"/>
</svg>
