<svg width="375" height="695" viewBox="0 0 375 695" fill="none" xmlns="http://www.w3.org/2000/svg">
<g clip-path="url(#clip0_12_2787)">
<mask id="mask0_12_2787" style="mask-type:luminance" maskUnits="userSpaceOnUse" x="0" y="0" width="375" height="695">
<path d="M0 0H375V695H0V0Z" fill="white"/>
</mask>
<g mask="url(#mask0_12_2787)">
<path d="M0 0H375V695H0V0Z" fill="#613317"/>
<mask id="mask1_12_2787" style="mask-type:luminance" maskUnits="userSpaceOnUse" x="-441" y="0" width="1257" height="4529">
<path d="M815.407 0H-440.407V4528.85H815.407V0Z" fill="white"/>
</mask>
<g mask="url(#mask1_12_2787)">
<path d="M1090.12 0H-167.442V616.42H1090.12V0Z" fill="url(#paint0_linear_12_2787)"/>
<path opacity="0.23" fill-rule="evenodd" clip-rule="evenodd" d="M1090.12 0H-40.6532H-165.698V303.75L286.726 331.962C554.523 345.351 789.662 324.113 1090.12 303.75V0Z" fill="white"/>
<path opacity="0.23" fill-rule="evenodd" clip-rule="evenodd" d="M816.488 427.213L-166.134 416.039V404.689L1090.55 330.474V382.861L816.488 427.213Z" fill="white"/>
<path opacity="0.55" fill-rule="evenodd" clip-rule="evenodd" d="M133.346 581.685C165.515 566.408 198.377 564.643 231.931 576.295C251.892 538.288 279.611 534.129 315.123 563.721C347.431 534.542 374.038 533.2 394.944 559.692C418.096 502.883 443.417 490.456 470.943 522.361C511.389 416.7 624.882 418.394 644.021 515.65C705.249 485.718 740.73 500.242 722.383 555.798C796.497 540.334 851.131 549.609 886.221 583.573L133.346 581.685Z" fill="#4E3322" fill-opacity="0.38"/>
<path opacity="0.55" fill-rule="evenodd" clip-rule="evenodd" d="M140.407 86.4385C146.474 82.6995 152.677 82.2498 159.018 85.0659C162.769 75.8011 168.001 74.7717 174.72 81.954C180.807 74.8308 185.829 74.4877 189.789 80.9246C194.134 67.0806 198.909 64.0397 204.121 71.79C211.708 46.0426 233.137 46.3857 236.797 70.0505C248.343 62.7263 255.049 66.2405 251.611 79.7768C265.598 75.9668 275.917 78.1913 282.558 86.4385H140.407Z" fill="black" fill-opacity="0.42"/>
<path d="M436.084 605.484C435.135 606.978 462.228 593.038 448.942 573.727C435.656 554.415 450.229 556.563 450.229 556.563C450.229 556.563 448.087 550.125 442.087 552.273C436.087 554.418 435.228 564.29 435.228 564.29C435.228 564.29 433.086 557.423 427.941 555.278C422.798 553.133 417.653 548.839 428.369 546.266C439.086 543.693 445.944 539.399 441.228 529.103C436.515 518.803 430.939 531.677 426.655 528.246C422.369 524.813 415.939 521.808 422.798 514.944C429.657 508.078 426.655 503.788 426.655 503.788C426.655 503.788 424.512 509.366 419.796 511.511C415.08 513.656 408.225 519.663 411.651 524.813C415.08 529.963 422.367 532.536 419.796 535.97C417.222 539.403 413.365 535.11 410.367 541.119C407.369 547.126 406.938 549.274 401.366 546.27C395.794 543.265 396.221 535.97 400.079 535.113C404.848 534.051 407.366 528.675 402.65 526.101C398.494 523.83 394.503 523.957 394.503 523.957L396.58 526.035C398.391 527.848 398.096 530.876 395.96 532.294C393.512 533.918 391.503 534.967 392.362 538.118C393.648 542.839 390.219 543.696 390.219 543.696C390.219 543.696 383.327 543.63 382.933 547.986L382.504 552.708C382.504 552.708 394.507 544.985 392.792 554.854C392.792 554.854 385.078 579.315 378.22 568.587C371.361 557.858 376.933 555.714 376.933 555.714C376.933 555.714 369.218 553.996 370.505 561.72C371.792 569.443 374.79 575.022 369.65 573.736C364.505 572.449 362.791 578.458 362.791 578.458C362.791 578.458 367.58 578.605 368.791 581.032C371.361 586.182 365.361 597.767 382.508 603.345C399.651 608.924 391.081 597.338 403.08 595.622C415.083 593.905 416.798 603.345 416.798 603.345C416.798 603.345 421.083 599.911 418.085 595.191C415.083 590.469 411.919 589.629 411.919 589.629C411.919 589.629 418.944 585.75 423.228 593.045C427.514 600.34 429.228 599.484 433.086 599.484C436.943 599.484 439.086 600.772 436.087 605.491L436.084 605.484Z" fill="#FF4D49"/>
<path d="M433.082 595.184C433.082 595.184 426.804 595.044 424.718 589.412C421.56 580.876 403.728 587.52 403.728 587.52C403.728 587.52 405.196 589.412 409.813 590.462C413.076 591.206 413.365 593.038 413.365 593.038C413.365 593.038 403.077 590.033 398.792 593.467C394.507 596.9 394.507 602.05 388.076 601.619C381.649 601.19 373.503 599.046 373.075 590.89C372.648 582.735 379.075 576.729 376.504 572.438C376.504 572.438 381.218 575.011 381.649 579.305C382.077 583.595 392.365 581.022 392.365 574.583C392.365 568.145 394.503 557.666 397.937 555.703C403.936 552.27 409.508 551.841 410.795 547.98C412.081 544.118 412.51 541.541 420.224 539.828C427.939 538.112 423.653 530.816 423.653 530.816C423.653 530.816 431.537 529.574 430.084 534.678C428.92 538.766 428.798 539.828 428.798 539.828C428.798 539.828 433.513 536.823 434.369 533.39C434.369 533.39 437.799 536.823 434.369 539.828C430.94 542.833 421.083 541.545 418.937 545.834C416.794 550.125 417.651 556.992 423.653 559.996C429.653 563.002 432.655 565.147 433.082 569.865C433.51 574.587 439.592 576.709 438.227 572.01C436.684 566.714 438.654 560.425 438.654 560.425C438.654 560.425 439.513 572.87 442.94 575.015C446.369 577.16 447.656 582.738 442.94 582.738C438.223 582.738 436.511 589.177 440.369 589.177C444.226 589.177 445.94 589.605 444.654 593.467C443.367 597.329 440.369 600.333 440.369 600.333C440.369 600.333 444.654 595.184 433.082 595.184Z" fill="#FCA638"/>
<mask id="mask2_12_2787" style="mask-type:luminance" maskUnits="userSpaceOnUse" x="-120" y="509" width="462" height="165">
<path d="M-119.602 518.318L338.592 509.383L341.603 664.149L-116.591 673.084L-119.602 518.318Z" fill="white"/>
</mask>
<g mask="url(#mask2_12_2787)">
<path d="M366.842 624.315C366.842 624.315 367.429 610.199 340.446 606.085C313.462 601.972 299.057 606.892 299.057 606.892C299.057 606.892 297.178 598.885 290.827 599.869C284.439 600.854 284.11 605.126 284.11 605.126C284.11 605.126 275.531 580.15 269.975 581.531C264.419 582.911 266.45 594.881 266.45 594.881C266.45 594.881 259.252 577.399 252.369 585.653C245.485 593.906 252.619 598.519 252.619 598.519C252.619 598.519 229.428 585.202 213.265 586.415C197.102 587.629 189.061 590.329 189.061 590.329C189.061 590.329 175.821 556.914 160.601 558.483C145.381 560.052 140.866 568.671 140.866 568.671C140.866 568.671 138.869 554.679 131.69 557.363C124.474 560.048 124.162 565.18 124.162 565.18C124.162 565.18 114.779 539.359 93.6078 539.36C72.4377 539.362 61.2158 563.451 61.2158 563.451C61.2158 563.451 54.2584 548.659 48.3946 553.487C42.5301 558.279 44.2358 568.908 44.2358 568.908C44.2358 568.908 27.2577 551.355 16.2202 550.261C5.18355 549.204 0.671529 559.955 0.671529 559.955C0.671529 559.955 -2.7149 543.82 -15.3509 549.156C-27.986 554.528 -31.6781 563.131 -31.6781 563.131L-30.7008 613.36C-30.7008 613.36 76.8425 654.067 89.4218 653.522C101.888 652.98 366.842 624.315 366.842 624.315Z" fill="#202020"/>
</g>
<path d="M1711.12 605.24L1703.29 876.617L-161.337 822.71L-156.339 649.417C-35.5812 621.953 101.822 602.891 246.692 590.142C420.92 574.819 605.942 568.651 785.759 568.03C790.736 568 795.712 568.005 800.667 567.992C828.637 567.949 856.467 568.025 884.11 568.232C891.183 568.281 898.247 568.347 905.302 568.411C920.014 568.541 934.692 568.722 949.264 568.918C990.288 569.478 1030.74 570.318 1070.45 571.327C1341.1 578.265 1576.38 594.449 1711.07 605.239L1711.12 605.24Z" fill="#606060"/>
<path fill-rule="evenodd" clip-rule="evenodd" d="M819.767 837.244C696.111 800.707 623.814 880.616 469.793 855.816C369.763 839.707 307.009 889.364 140.321 856.482C-111.561 806.821 -123.418 863.117 -289.354 887.225C-347.423 895.651 -394.531 884.527 -443.895 872.215V694.837H819.767V837.215V837.244Z" fill="#804520"/>
<path fill-rule="evenodd" clip-rule="evenodd" d="M-443.895 739.949C-404.161 756.059 -352.888 732.879 -301.76 736.646C-222.522 742.47 -177.062 703.906 -103.203 721.348C-83.799 725.926 -63.4403 730.88 -51.4389 730.88C31.2976 730.88 133.207 760.665 196.279 721.985C219.096 707.991 246.019 727.925 273.463 730.387C313.429 733.98 354.494 723.955 385.495 712.51C439.139 692.721 521.904 752.031 589.198 722.014C665.428 687.999 747.992 737.949 819.767 754.147V679.307H-443.895V739.949Z" fill="#5D3922"/>
<path fill-rule="evenodd" clip-rule="evenodd" d="M-443.895 714.075C-414.716 725.607 -377.122 708.831 -339.644 711.554C-277.149 716.103 -256.386 714.712 -199.619 705.181C-187.559 703.152 -173.158 701.559 -155.547 701.559C-94.7015 701.559 -21.7105 721.608 26.6417 711.728C70.5114 702.775 126.759 721.058 165.799 707.064C205.302 692.895 238.558 715.582 288.038 693.736C315.049 681.799 344.401 705.238 376.558 695.155C436.68 676.293 527.052 725.665 597.469 705.731C674.306 683.942 722.456 724.882 819.739 709.526V683.102H-443.895V714.133V714.075Z" fill="#592D10"/>
<path fill-rule="evenodd" clip-rule="evenodd" d="M-398.637 701.511C-398.637 701.511 -398.753 701.337 -398.782 701.221C-398.84 701.047 -398.811 700.873 -398.753 700.728C-398.696 700.612 -398.608 700.496 -398.492 700.41C-398.377 700.322 -398.261 700.265 -398.117 700.236C-397.914 700.177 -397.683 700.177 -397.51 700.236C-397.279 700.294 -397.047 700.41 -396.931 700.583C-396.527 701.105 -395.514 704.959 -394.415 710.087C-394.126 711.449 -393.808 712.897 -393.49 714.404C-392.998 713.622 -392.535 712.811 -392.102 712.028C-389.933 707.972 -388.689 704.003 -390.078 701.163V701.105L-390.135 701.018C-390.194 700.815 -390.135 700.641 -390.078 700.467C-390.078 700.467 -389.875 700.207 -389.731 700.149L-389.557 700.091C-389.383 700.032 -389.181 700.062 -389.036 700.091C-388.834 700.149 -388.661 700.294 -388.574 700.496C-386.434 704.842 -389.326 711.072 -393.027 716.751C-392.449 719.706 -391.871 722.748 -391.408 725.675C-390.772 729.558 -390.251 733.179 -390.049 735.874C-389.962 736.888 -389.933 737.786 -389.962 738.54H-389.875C-389.875 738.54 -389.643 738.655 -389.586 738.742C-389.471 738.829 -389.383 738.945 -389.355 739.09L-384.092 746.478L-375.155 758.937C-375.155 758.937 -374.982 759.111 -374.924 759.256C-374.837 759.487 -374.895 759.72 -375.069 759.922C-375.127 760.009 -375.243 760.067 -375.358 760.125C-375.502 760.183 -375.734 760.212 -375.994 760.241C-376.225 760.241 -376.456 760.241 -376.66 760.183C-376.92 760.153 -377.151 760.038 -377.295 759.922C-377.295 759.922 -378.684 758.068 -380.477 755.547L-386.463 747.174C-388.054 744.943 -389.499 742.915 -390.454 741.553L-390.627 741.292C-394.589 747.695 -397.25 751.056 -399.013 753.287V753.345C-399.766 754.243 -400.315 754.938 -400.777 755.634C-401.212 756.272 -401.529 756.88 -401.79 757.546C-402.137 758.531 -402.339 759.69 -402.454 761.458C-402.599 763.283 -402.628 765.688 -402.715 769.078L-402.86 775.423C-402.86 775.713 -403.033 775.973 -403.293 776.118C-403.467 776.206 -403.669 776.263 -403.9 776.263H-403.93C-404.161 776.263 -404.363 776.206 -404.508 776.09C-404.768 775.945 -404.913 775.684 -404.913 775.394C-404.913 773.308 -404.797 771.135 -404.768 769.049C-404.682 765.601 -404.623 763.138 -404.508 761.313C-404.363 759.43 -404.161 758.125 -403.756 757.024C-403.177 755.431 -402.281 754.301 -400.777 752.36C-399.881 751.201 -398.753 749.781 -397.365 747.811C-395.948 745.841 -394.242 743.32 -392.218 740.017C-391.957 739.612 -391.957 738.105 -392.159 735.932C-392.391 733.295 -392.882 729.76 -393.519 725.965C-393.895 723.763 -394.299 721.445 -394.734 719.184C-396.151 721.184 -397.567 723.067 -398.84 724.748C-400.893 727.442 -402.426 729.499 -402.484 730.108C-402.484 730.369 -402.628 730.571 -402.831 730.688C-402.975 730.774 -403.177 730.833 -403.381 730.833H-403.409C-403.612 730.833 -403.785 730.745 -403.9 730.629C-404.074 730.484 -404.161 730.282 -404.161 730.05V729.992C-404.074 728.949 -402.397 726.747 -400.199 723.849C-398.666 721.792 -396.844 719.417 -395.167 716.925C-395.601 714.665 -396.064 712.492 -396.497 710.521C-397.567 705.596 -398.464 701.946 -398.753 701.568L-398.637 701.511ZM419.821 659.267C419.676 659.064 419.619 658.832 419.648 658.601C419.648 658.368 419.792 658.166 419.995 658.021C420.197 657.876 420.428 657.818 420.659 657.847C420.891 657.847 421.094 657.992 421.267 658.195C423.031 660.513 424.39 663.902 425.287 667.842C426.212 671.986 426.646 676.709 426.559 681.432C426.473 685.952 425.865 690.472 424.766 694.412C423.725 698.034 422.25 701.192 420.313 703.423C419.763 704.089 418.953 705.219 418.086 706.465C417.652 707.073 417.218 707.74 416.785 708.378C416.958 712.608 416.727 716.056 416.004 719.329C415.802 720.256 415.57 721.155 415.281 722.053L415.512 722.922C418.057 731.991 419.041 735.468 417.016 746.565C416.872 747.434 417.276 748.506 417.652 749.433C417.739 749.666 417.826 749.897 417.912 750.071C417.941 750.187 417.855 750.303 417.71 750.361C417.565 750.418 417.421 750.361 417.392 750.273C417.305 750.042 417.218 749.839 417.16 749.636C416.785 748.68 416.351 747.55 416.525 746.594C418.52 735.584 417.536 732.136 415.02 723.096V723.038C413.314 728.108 410.394 733.324 405.998 741.176L405.766 741.581C404.841 743.262 404.263 745.087 403.858 746.913C403.453 748.767 403.251 750.679 403.077 752.476C402.903 754.098 402.759 755.605 402.47 756.995C402.412 757.228 402.268 757.43 402.094 757.575C401.921 757.691 401.66 757.749 401.429 757.72C401.198 757.663 400.995 757.518 400.851 757.344C400.735 757.14 400.677 756.909 400.706 756.677C400.851 756.039 400.937 755.344 401.053 754.591C401.139 753.896 401.226 753.114 401.313 752.302C401.515 750.448 401.718 748.477 402.123 746.508C402.528 744.508 403.164 742.538 404.205 740.683L404.437 740.278C409.786 730.716 412.91 725.124 414.269 718.953C414.818 716.49 415.049 713.94 415.079 710.985C414.616 711.71 414.269 712.202 414.124 712.347C413.95 712.521 413.719 712.608 413.488 712.608C413.257 712.608 413.025 712.521 412.88 712.347C412.707 712.144 412.649 711.912 412.649 711.71C412.649 711.477 412.736 711.275 412.91 711.101C413.199 710.811 413.893 709.652 414.153 709.246L415.049 707.914C414.876 704.089 414.356 699.599 413.517 693.949C413.488 693.745 413.43 693.456 413.372 693.138C413.083 694.528 412.736 695.716 412.389 696.759C411.666 698.787 410.856 700.207 410.076 701.568C409.353 702.785 408.687 703.944 408.225 705.451C407.733 706.958 407.444 708.841 407.444 711.565C407.444 711.796 407.328 712.028 407.184 712.202C407.01 712.376 406.808 712.463 406.547 712.463C406.287 712.463 406.085 712.347 405.911 712.202C405.738 712.057 405.651 711.826 405.651 711.565C405.651 705.682 407.01 703.336 408.542 700.671C409.265 699.395 410.047 698.034 410.711 696.151C411.377 694.267 411.955 691.833 412.273 688.414C411.869 686.763 411.377 684.88 410.856 682.88C409.497 677.636 407.878 671.551 406.692 667.09V667.031C405.651 663.207 404.957 660.57 405.044 660.28C405.101 660.049 405.275 659.846 405.477 659.759C405.68 659.643 405.911 659.614 406.142 659.672C406.374 659.73 406.576 659.904 406.663 660.107C406.779 660.309 406.808 660.541 406.749 660.803C406.721 660.947 406.923 661.15 407.155 661.99C407.415 663.005 407.819 664.453 408.398 666.655V666.829C408.918 667.321 409.757 668.277 410.711 669.523C412.013 671.204 413.69 673.464 415.281 675.666C416.553 677.433 417.739 679.113 418.606 680.447C419.387 681.634 419.936 682.561 420.11 683.054C420.197 683.286 420.168 683.518 420.081 683.75C419.995 683.952 419.792 684.126 419.59 684.213C419.358 684.3 419.127 684.271 418.925 684.185C418.722 684.068 418.549 683.895 418.462 683.662C418.346 683.315 417.855 682.504 417.132 681.403C416.293 680.099 415.107 678.447 413.893 676.738C412.418 674.681 410.827 672.536 409.555 670.856C410.538 674.536 411.637 678.679 412.62 682.504C413.141 684.532 413.633 686.444 414.037 688.125V688.24C414.703 690.877 415.165 692.905 415.281 693.775C415.946 698.381 416.409 702.234 416.669 705.596C417.565 704.292 418.433 703.104 419.011 702.409C420.804 700.352 422.164 697.425 423.118 694.035C424.188 690.268 424.737 685.923 424.824 681.548C424.911 676.999 424.506 672.421 423.61 668.451C422.771 664.743 421.527 661.555 419.907 659.44L419.821 659.267ZM775.406 661.179C775.406 661.179 775.203 660.947 775.175 660.803C775.146 660.658 775.175 660.541 775.175 660.397C775.203 660.28 775.262 660.194 775.319 660.135C775.319 660.135 775.608 659.904 775.811 659.846C776.014 659.788 776.216 659.788 776.39 659.817C776.621 659.846 776.823 659.933 776.996 660.078C778.5 661.44 779.686 663.612 780.554 666.308C781.45 669.088 782.028 672.421 782.26 676.043C782.492 679.606 782.347 683.46 781.884 687.284C781.421 690.906 780.64 694.528 779.484 697.831C779.396 698.092 779.194 698.265 778.906 698.353C778.732 698.41 778.53 698.439 778.298 698.41C778.183 698.41 778.067 698.381 777.979 698.353C777.835 698.294 777.691 698.236 777.604 698.12C777.431 697.947 777.344 697.744 777.372 697.512V697.338C778.53 694.094 779.281 690.587 779.744 687.082C780.207 683.344 780.323 679.606 780.119 676.1C779.917 672.624 779.368 669.407 778.501 666.771C777.691 664.308 776.649 662.367 775.348 661.179H775.406ZM734.746 669.407L734.689 668.886C734.341 665.409 734.63 662.367 735.73 660.135C735.759 660.049 735.787 659.962 735.787 659.904C735.787 659.702 735.759 659.527 735.643 659.353C735.556 659.238 735.44 659.151 735.324 659.093C735.209 659.034 735.065 659.006 734.92 658.977C734.717 658.977 734.486 658.977 734.313 659.034C734.052 659.122 733.85 659.267 733.734 659.498C732.52 661.961 732.201 665.264 732.549 669.002C732.953 673.029 734.139 677.607 735.874 682.156C737.725 686.994 740.154 691.833 742.872 696.063C745.504 700.149 748.396 703.655 751.259 706.031C752.994 707.479 754.44 708.812 755.539 710.087C756.609 711.362 757.39 712.578 757.795 713.824V713.883C758.171 715.07 758.228 716.287 757.94 717.562C757.621 718.895 756.927 720.344 755.799 721.908C755.741 721.995 755.683 722.111 755.683 722.227C755.683 722.401 755.683 722.546 755.771 722.691C755.828 722.807 755.914 722.893 756.03 722.981C756.03 722.981 756.32 723.154 756.522 723.183C756.725 723.212 756.927 723.183 757.129 723.183C757.36 723.126 757.592 723.009 757.707 722.807C758.951 721.068 759.732 719.445 760.108 717.91C760.223 717.446 760.282 717.012 760.311 716.577C760.571 716.78 760.831 716.953 761.12 717.157C762.768 718.316 764.88 719.619 767.106 720.981H767.164C771.27 723.531 775.667 726.225 777.662 728.398C778.587 729.383 778.934 730.224 778.356 730.745C778.24 730.861 778.183 730.977 778.124 731.093C778.095 731.238 778.124 731.354 778.124 731.499C778.124 731.499 778.211 731.73 778.298 731.817C778.414 731.934 778.587 732.049 778.789 732.107C778.992 732.165 779.194 732.165 779.368 732.107C779.6 732.078 779.802 731.991 779.976 731.846C781.739 730.224 780.467 728.138 777.807 725.906C775.406 723.908 771.849 721.735 768.494 719.678C764.273 717.07 760.368 714.665 759.935 713.448C759.472 711.999 758.604 710.609 757.39 709.218C756.204 707.827 754.701 706.436 752.879 704.93C750.131 702.669 747.355 699.25 744.81 695.31C744.318 694.557 743.855 693.775 743.364 692.993C745.446 694.064 748.107 695.513 751.086 697.193C754.411 699.076 758.083 701.221 761.669 703.365C763.202 704.292 764.735 705.22 766.21 706.117C770.287 708.638 774.018 711.043 776.621 712.897C778.789 714.433 780.178 715.534 780.264 715.911C780.323 716.171 780.525 716.375 780.814 716.49C780.987 716.548 781.189 716.577 781.392 716.577H781.653C781.826 716.49 781.971 716.432 782.086 716.345C782.288 716.171 782.404 715.969 782.376 715.708V715.563C782.173 714.839 780.611 713.477 778.153 711.71C775.493 709.797 771.705 707.363 767.54 704.785L766.673 704.263C767.482 704.524 768.321 704.814 769.189 705.132C770.779 705.741 772.399 706.436 773.786 707.102C775.059 707.74 776.129 708.348 776.794 708.87L777.025 709.073C777.17 709.218 777.401 709.305 777.633 709.334C777.835 709.334 778.038 709.334 778.211 709.334C778.414 709.275 778.587 709.189 778.703 709.044C778.789 708.957 778.847 708.841 778.876 708.754C778.905 708.609 778.905 708.493 778.876 708.348C778.847 708.203 778.761 708.088 778.645 707.972L778.298 707.682C777.546 707.073 776.361 706.378 774.972 705.712C773.526 704.987 771.82 704.263 770.143 703.625C768.408 702.959 766.673 702.438 765.227 702.09C764.185 701.858 763.26 701.742 762.566 701.772C759.038 699.656 755.481 697.599 752.242 695.773C747.76 693.224 743.885 691.167 741.716 690.211C740.241 687.458 738.939 684.561 737.84 681.693C736.51 678.215 735.498 674.738 734.949 671.523C736.568 672.189 738.216 672.971 739.778 673.782C741.455 674.681 742.96 675.666 744.087 676.68C744.984 677.491 745.648 678.331 745.88 679.172C746.082 679.838 745.995 680.533 745.533 681.229C745.476 681.316 745.446 681.432 745.417 681.548C745.417 681.722 745.417 681.866 745.504 682.011C745.504 682.011 745.648 682.214 745.764 682.301C745.88 682.388 746.054 682.445 746.256 682.475C746.458 682.504 746.661 682.475 746.834 682.475C747.065 682.417 747.297 682.272 747.441 682.069C748.164 680.997 748.28 679.896 747.991 678.824C747.673 677.694 746.863 676.622 745.735 675.608C744.492 674.507 742.872 673.435 741.079 672.479C739.026 671.378 736.77 670.363 734.66 669.552L734.746 669.407ZM706.406 719.329C706.406 719.329 706.463 719.243 706.493 719.214C702.56 713.534 702.646 709.305 702.791 701.134V701.076C702.791 699.54 702.848 697.86 702.848 695.6C702.848 693.571 703.427 690.385 704.41 686.705C705.393 683.025 706.81 678.795 708.401 674.768C709.818 671.175 711.438 667.727 713.057 664.888C714.532 662.309 716.035 660.223 717.482 658.977C717.626 658.832 717.858 658.745 718.06 658.716C718.263 658.716 718.465 658.716 718.639 658.745C718.87 658.803 719.043 658.919 719.159 659.034C719.246 659.122 719.274 659.208 719.304 659.324C719.333 659.44 719.333 659.585 719.304 659.73C719.274 659.875 719.188 659.991 719.072 660.107C717.771 661.236 716.354 663.207 714.966 665.64C713.375 668.422 711.814 671.784 710.425 675.289C708.835 679.258 707.476 683.402 706.493 687.053C705.914 689.167 705.509 691.109 705.249 692.731C707.88 692.876 709.789 694.296 711.207 696.411C712.681 698.643 713.578 701.627 714.127 704.581C714.417 706.146 714.619 707.682 714.763 709.102C714.908 710.55 715.024 711.826 715.081 712.868L715.255 715.129L715.342 715.244C715.342 715.244 715.428 715.447 715.428 715.563C715.428 715.679 715.428 715.795 715.371 715.911C715.312 716.056 715.197 716.2 715.024 716.287C714.85 716.375 714.648 716.432 714.417 716.461C714.214 716.461 714.011 716.461 713.838 716.375C713.433 716.2 713.231 715.737 713.115 715.041C713.028 714.52 712.97 713.824 712.912 712.984C712.826 711.941 712.739 710.637 712.594 709.275C712.45 707.884 712.247 706.378 711.958 704.871C711.438 702.148 710.686 699.454 709.442 697.454C708.372 695.687 706.926 694.499 704.989 694.441C704.96 694.876 704.931 695.281 704.931 695.628C704.931 697.425 704.902 699.366 704.873 701.134V701.192C704.757 707.306 704.7 711.101 706.406 715.013C707.592 717.707 709.616 720.46 713.086 724.11C713.578 724.371 714.185 724.69 714.937 725.066C716.498 725.849 718.61 726.834 720.894 727.906C725.637 730.137 731.305 732.802 735.556 735.149C740.212 737.728 743.191 740.046 741.745 741.379C741.6 741.524 741.398 741.61 741.166 741.639C740.993 741.639 740.791 741.669 740.617 741.639C740.444 741.639 740.299 741.553 740.183 741.495C740.068 741.437 739.952 741.32 739.894 741.205C739.778 741.002 739.778 740.828 739.836 740.625C739.836 740.625 739.923 740.423 740.009 740.336C740.385 739.959 737.754 738.336 733.994 736.309C729.83 734.048 724.278 731.411 719.622 729.209L716.874 727.906C717.511 728.514 718.176 729.152 718.87 729.789C719.65 730.514 720.142 731.701 720.432 733.15C720.75 734.714 720.807 736.627 720.692 738.655C720.576 741.176 720.201 743.871 719.737 746.275C719.188 749.086 718.494 751.519 717.944 752.736C717.828 752.969 717.626 753.142 717.366 753.2C717.193 753.259 716.99 753.287 716.759 753.258C716.614 753.258 716.47 753.2 716.354 753.171C716.209 753.114 716.094 753.026 716.007 752.939C715.862 752.765 715.804 752.591 715.833 752.389C715.833 752.302 715.833 752.215 715.891 752.157C716.411 750.998 717.048 748.71 717.597 745.985C718.06 743.639 718.408 741.031 718.551 738.597C718.639 736.685 718.61 734.918 718.32 733.468C718.089 732.281 717.742 731.383 717.193 730.861C714.908 728.717 712.971 726.805 711.351 725.095C710.888 724.834 710.541 724.603 710.368 724.429C710.281 724.342 710.223 724.255 710.194 724.168C710.137 724.023 710.137 723.908 710.165 723.792C709.298 722.836 708.517 721.937 707.852 721.097C707.592 722.43 708.256 723.733 708.922 725.009L708.979 725.153C709.847 726.862 710.686 728.601 709.963 730.659C709.24 732.686 706.955 734.888 701.547 737.525C701.403 737.612 701.2 737.641 700.998 737.641C700.824 737.641 700.622 737.641 700.477 737.583C700.304 737.525 700.189 737.467 700.073 737.38C699.957 737.265 699.87 737.12 699.841 736.946C699.841 736.771 699.842 736.598 699.957 736.453C699.957 736.453 700.13 736.25 700.275 736.193C709.818 731.585 708.43 728.601 706.955 725.704L706.898 725.617C706.406 724.66 705.914 723.704 705.712 722.662C705.48 721.561 705.568 720.46 706.291 719.243L706.406 719.329ZM581.622 663.468V663.381C581.535 663.178 581.564 662.975 581.65 662.83C581.65 662.83 581.853 662.57 581.997 662.511L582.171 662.454C582.344 662.396 582.547 662.425 582.72 662.454C582.923 662.511 583.096 662.656 583.183 662.86C585.323 667.205 582.431 673.435 578.73 679.114C579.308 682.069 579.886 685.111 580.349 688.038C580.985 691.92 581.505 695.542 581.709 698.236C581.795 699.25 581.824 700.149 581.795 700.931H581.881C581.881 700.931 582.085 701.047 582.171 701.105C582.171 701.105 582.373 701.308 582.402 701.453L587.665 708.841L596.573 721.3C596.573 721.3 596.746 721.502 596.775 721.619C596.861 721.85 596.804 722.053 596.659 722.256C596.659 722.256 596.485 722.43 596.37 722.487C596.225 722.546 595.994 722.575 595.762 722.603C595.531 722.603 595.3 722.603 595.098 722.546C594.837 722.488 594.606 722.401 594.461 722.285C594.404 722.227 593.131 720.489 591.367 718.055L585.265 709.565C583.674 707.334 582.228 705.306 581.246 703.915L581.072 703.655C579.134 706.783 577.515 709.189 576.156 711.072C574.739 713.072 573.582 714.52 572.686 715.65C571.269 717.476 570.43 718.547 569.938 719.88C569.591 720.865 569.389 722.025 569.274 723.792C569.158 725.617 569.1 728.022 569.013 731.411L568.868 737.757C568.868 738.047 568.694 738.307 568.435 738.452C568.261 738.54 568.059 738.597 567.828 738.597C567.596 738.597 567.393 738.54 567.248 738.423C566.989 738.278 566.844 738.017 566.844 737.728C566.844 735.613 566.989 733.468 566.989 731.383C567.133 724.429 567.22 721.59 568.001 719.388C568.579 717.794 569.476 716.664 570.979 714.723C571.876 713.593 573.003 712.144 574.421 710.174C575.838 708.204 577.544 705.682 579.569 702.379C579.828 701.974 579.828 700.467 579.626 698.294C579.395 695.658 578.903 692.123 578.266 688.327C577.891 686.125 577.486 683.807 577.053 681.548C575.635 683.546 574.218 685.459 572.946 687.11C571.876 688.501 570.951 689.718 570.314 690.674C569.707 691.573 569.331 692.21 569.302 692.47C569.302 692.732 569.157 692.934 568.955 693.05C568.81 693.138 568.608 693.195 568.406 693.195C568.203 693.195 568.03 693.108 567.885 692.993C567.712 692.848 567.624 692.644 567.624 692.413V692.355C567.74 691.312 569.389 689.11 571.586 686.212C573.119 684.184 574.941 681.779 576.618 679.287C576.185 677.028 575.722 674.854 575.288 672.885C574.218 667.959 573.322 664.308 573.032 663.961C572.975 663.873 572.917 663.787 572.888 663.671C572.83 663.497 572.859 663.323 572.917 663.178C572.975 663.062 573.062 662.946 573.177 662.86C573.293 662.772 573.408 662.715 573.553 662.686C573.755 662.627 573.958 662.627 574.161 662.686C574.392 662.743 574.623 662.86 574.739 663.033C575.144 663.555 576.156 667.409 577.255 672.536C577.544 673.898 577.862 675.347 578.18 676.854C578.672 676.072 579.134 675.26 579.569 674.478C581.738 670.422 582.98 666.452 581.564 663.612V663.555L581.622 663.468ZM674.075 724.429C673.844 725.82 673.699 728.282 673.641 731.093C673.554 734.512 673.525 738.452 673.496 741.639V741.726C673.496 744.016 673.496 745.928 673.439 747.029C673.38 748.246 673.033 749.55 672.542 750.824C672.05 752.099 671.414 753.374 670.807 754.649V754.707C669.245 757.865 667.742 760.936 668.84 762.993C669.043 763.486 669.187 764.007 669.332 764.529L669.506 765.166L670.836 769.339C671.27 770.671 671.616 771.772 671.703 772.004C671.703 772.062 671.732 772.149 671.761 772.207C671.761 772.439 671.703 772.642 671.559 772.815C671.472 772.932 671.328 773.018 671.183 773.076C671.067 773.105 670.952 773.134 670.836 773.163C670.605 773.163 670.373 773.163 670.2 773.105C669.91 773.018 669.708 772.815 669.621 772.584C669.419 772.033 668.205 768.209 667.423 765.746L666.787 763.746C665.342 760.994 667.018 757.575 668.754 754.07C669.939 751.635 671.154 749.172 671.212 747.058C671.212 746.536 671.24 745.783 671.24 744.884V741.698C671.27 738.945 671.299 735.642 671.356 732.571L670.662 734.541C669.477 737.844 668.089 741.553 666.671 745.058C665.573 747.782 664.474 750.389 663.461 752.591C662.565 754.533 661.727 756.155 661.004 757.285C660.888 757.488 660.657 757.633 660.396 757.72C660.194 757.778 659.962 757.778 659.76 757.72C659.587 757.691 659.413 757.633 659.297 757.546C659.182 757.459 659.066 757.373 659.008 757.257C658.921 757.083 658.864 756.909 658.892 756.735C658.892 756.619 658.95 756.532 659.008 756.445C659.702 755.373 660.483 753.809 661.38 751.896C662.391 749.723 663.461 747.145 664.531 744.45C665.92 740.973 667.308 737.265 668.493 733.991C670.113 729.499 671.385 725.733 671.819 724.342L671.906 724.052C671.963 723.792 671.993 723.559 672.051 723.357C672.282 722.053 672.455 720.17 672.542 717.997C672.629 715.708 672.658 713.042 672.629 710.319L672.426 710.666C671.444 712.433 670.257 714.056 669.071 715.244C667.886 716.432 667.221 717.649 666.816 718.808C666.412 719.996 666.238 721.213 666.093 722.401C665.977 723.27 665.862 724.139 665.659 724.979C665.457 725.849 665.139 726.689 664.589 727.53C664.474 727.732 664.243 727.877 663.982 727.963C663.78 728.022 663.549 728.022 663.317 727.963C663.144 727.935 662.999 727.877 662.854 727.79C662.738 727.703 662.623 727.616 662.565 727.5C662.478 727.326 662.421 727.152 662.45 726.979C662.45 726.979 662.507 726.776 662.565 726.689C662.999 726.023 663.259 725.298 663.433 724.574C663.635 723.792 663.722 723.009 663.837 722.169C664.011 720.894 664.184 719.59 664.647 718.258C665.139 716.896 665.92 715.505 667.278 714.114C668.377 713.013 669.447 711.536 670.373 709.884C671.24 708.319 671.993 706.581 672.455 704.871C672.339 702.293 672.195 699.772 671.993 697.542C671.993 697.542 671.877 697.309 671.848 697.193C671.819 697.019 671.848 696.846 671.906 696.701L671.79 695.6C671.501 692.819 671.125 690.791 670.749 690.153C670.691 690.066 670.662 689.979 670.633 689.863C670.633 689.66 670.633 689.486 670.749 689.341C670.749 689.341 670.923 689.11 671.038 689.052C671.038 689.052 671.299 688.907 671.501 688.878C671.732 688.849 671.963 688.878 672.137 688.907C672.398 688.994 672.629 689.139 672.745 689.341C673.236 690.153 673.641 692.384 673.988 695.339C674.046 695.861 674.103 696.411 674.162 696.962C674.769 697.918 675.087 699.048 675.174 700.294C675.29 701.772 675.087 703.365 674.682 704.987C674.682 705.596 674.74 706.205 674.74 706.813C674.855 710.754 674.885 714.723 674.74 717.997C674.624 720.72 674.393 722.981 674.046 724.371L674.075 724.429ZM261.838 679.867C262.012 679.664 262.271 679.52 262.561 679.461C262.792 679.403 263.082 679.403 263.342 679.461C263.544 679.52 263.746 679.606 263.862 679.722C263.978 679.809 264.064 679.925 264.123 680.07C264.18 680.243 264.209 680.418 264.18 680.592C264.18 680.592 264.093 680.823 264.007 680.939C262.937 682.272 263.544 687.98 264.412 695.6C265.222 702.988 266.233 712.115 265.973 721.039C265.713 730.021 264.123 738.8 259.785 745.435C259.438 745.985 258.744 747.348 257.934 749.057C257.096 750.853 256.141 752.997 255.303 755.054C254.58 756.793 253.914 758.502 253.451 759.864C253.046 761.023 252.787 761.95 252.728 762.414C252.699 762.733 252.497 762.994 252.179 763.167C251.976 763.283 251.717 763.341 251.427 763.312H251.282C251.022 763.283 250.791 763.196 250.618 763.08C250.357 762.906 250.183 762.645 250.183 762.327V762.269C250.242 761.66 250.53 760.647 250.965 759.371C251.456 757.952 252.121 756.213 252.873 754.446C253.769 752.302 254.724 750.129 255.534 748.332C256.373 746.536 257.066 745.146 257.471 744.537C265.829 731.817 263.458 710.406 261.838 695.832C261.404 691.892 261.028 688.444 260.913 685.748C260.797 682.939 261.028 680.91 261.809 679.925L261.838 679.867ZM241.537 697.019C234.684 707.334 240.438 717.968 245.151 726.602V726.66C247.667 731.238 249.866 735.294 249.866 738.626C249.866 738.945 249.663 739.234 249.374 739.379C249.172 739.496 248.94 739.553 248.68 739.553C248.42 739.553 248.159 739.496 247.986 739.379C247.667 739.206 247.494 738.945 247.494 738.626C247.494 737.149 246.974 735.468 246.164 733.613C245.325 731.701 244.197 729.615 243.012 727.413V727.356C238.703 719.445 233.555 709.971 237.286 700.265L236.794 700.671C234.48 702.698 231.56 705.567 227.83 709.826C226.817 710.985 226.644 712.231 226.846 713.506C227.048 714.868 227.714 716.316 228.35 717.707C229.652 720.546 230.837 723.154 228.784 725.356C228.61 725.53 228.35 725.675 228.061 725.733C227.83 725.791 227.54 725.761 227.28 725.704C227.077 725.646 226.875 725.559 226.76 725.443C226.644 725.328 226.557 725.211 226.528 725.095C226.47 724.922 226.47 724.748 226.528 724.603C226.557 724.487 226.644 724.342 226.73 724.255C227.338 723.589 227.453 722.748 227.251 721.85C227.048 720.807 226.499 719.648 225.95 718.432C224.504 715.302 222.971 711.912 225.719 708.754C229.507 704.379 232.514 701.453 234.886 699.366C237.286 697.28 239.05 696.092 240.38 695.195C241.046 694.76 241.566 694.383 242 694.035C242.404 693.716 242.723 693.398 242.954 693.021C243.446 692.297 243.705 691.254 243.937 689.486C244.169 687.603 244.313 684.967 244.544 681.084L244.602 680.041C244.602 679.693 244.834 679.432 245.151 679.287C245.355 679.172 245.614 679.114 245.904 679.114H245.962C246.221 679.114 246.482 679.201 246.656 679.317C246.944 679.491 247.118 679.751 247.118 680.098L247.06 681.199C246.829 685.169 246.684 687.835 246.425 689.805C246.164 691.804 245.817 693.021 245.181 693.977C244.487 695.05 243.532 695.716 242.057 696.73L241.508 697.107L241.537 697.019ZM500.417 745.174C500.736 745.957 501.083 746.508 501.43 746.913C501.806 747.347 502.182 747.637 502.529 747.898C504.003 749.057 504.784 749.666 502.933 753.345L502.876 753.461C502.76 753.635 502.586 753.78 502.384 753.809C502.182 753.866 501.95 753.866 501.748 753.751L501.661 753.692C501.459 753.547 501.314 753.345 501.285 753.114C501.228 752.91 501.285 752.65 501.372 752.446C501.979 751.23 502.182 750.563 502.153 750.158C502.124 749.897 501.835 749.666 501.487 749.405C501.256 749.231 501.025 749.028 500.764 748.796V749.115C501.025 752.476 501.169 756.358 501.169 759.575C501.169 760.559 501.169 761.487 501.112 762.298C501.083 763.08 501.025 763.805 500.967 764.384C500.88 765.108 500.736 765.717 500.562 766.181C500.331 766.76 499.984 767.108 499.521 767.165C499.435 767.165 499.347 767.165 499.232 767.165C499.232 767.165 499.059 767.137 498.971 767.108C498.74 767.021 498.538 766.847 498.451 766.615C498.364 766.412 498.336 766.181 498.393 765.948V765.862C498.509 765.658 498.653 765.485 498.827 765.369L499 765.282C499.059 765.021 499.145 764.616 499.203 764.124C499.261 763.573 499.319 762.906 499.347 762.182C499.377 761.371 499.406 760.502 499.406 759.575C499.406 756.445 499.232 752.62 499.03 749.288C498.943 747.956 498.856 746.681 498.74 745.58V745.464C498.567 743.494 498.393 742.074 498.22 741.524C496.89 736.743 496.369 733.15 496.312 729.905C496.253 726.66 496.629 723.821 497.092 720.518V720.46C497.41 718.258 497.728 715.852 497.96 712.955C498.162 710.406 498.885 706.842 499.637 703.046L499.666 702.873C499.666 702.728 499.666 702.554 499.753 702.438C500.533 698.555 501.343 694.47 501.661 691.138C501.979 687.835 501.835 685.343 500.736 684.677C500.533 684.532 500.389 684.329 500.331 684.126C500.273 683.924 500.302 683.691 500.389 683.46L500.446 683.344C500.562 683.17 500.736 683.025 500.909 682.967C501.112 682.909 501.343 682.909 501.545 682.996L501.632 683.054C503.396 684.126 503.772 687.168 503.425 691.051C503.136 694.557 502.298 698.845 501.459 702.93C501.516 703.22 501.546 703.51 501.603 703.77C501.95 705.799 502.615 709.826 503.28 714.288L503.57 716.287C503.801 717.098 504.206 717.852 504.698 718.605C505.218 719.417 505.825 720.199 506.404 720.924C506.838 721.474 507.242 721.995 507.618 722.517C507.994 723.067 508.284 723.589 508.457 724.082C508.544 724.313 508.515 724.545 508.457 724.748C508.37 724.979 508.197 725.153 507.994 725.269H507.908C507.676 725.385 507.445 725.356 507.271 725.269C507.098 725.183 506.924 725.009 506.838 724.834V724.748C506.577 724.052 505.854 723.154 505.073 722.169C504.814 721.85 504.524 721.502 504.264 721.155C504.553 723.473 504.814 725.733 504.957 727.703C505.131 729.789 505.189 731.615 505.073 732.918C504.957 734.512 504.495 735.497 503.685 735.584C503.425 735.584 503.194 735.526 503.021 735.352C502.876 735.208 502.76 735.004 502.731 734.773C502.731 734.512 502.789 734.28 502.905 734.106C503.049 733.903 503.28 733.758 503.511 733.729C503.627 733.729 503.368 733.353 503.397 732.657C503.425 731.528 503.338 729.876 503.194 727.906C502.933 724.66 502.413 720.662 501.863 716.809V716.722C501.863 716.722 501.806 716.519 501.806 716.432L501.545 714.694C501.199 712.26 500.822 709.971 500.533 708.088L500.389 708.899C500.1 710.55 499.868 712.028 499.782 713.245C499.551 716.114 499.203 718.577 498.914 720.807V720.894C498.48 724.11 498.104 726.862 498.133 729.963C498.191 733.035 498.683 736.482 499.955 741.089C500.129 741.669 500.331 743.204 500.505 745.262L500.417 745.174ZM379.017 752.244C379.421 753.171 380.376 755.779 381.619 759.197C383.152 763.428 385.119 768.991 386.912 774.09C388.299 778.089 389.572 781.797 390.44 784.405C391.25 786.897 391.626 788.548 391.336 788.838C391.162 789.012 390.873 789.128 390.555 789.185C390.295 789.215 390.006 789.244 389.717 789.185C389.485 789.157 389.283 789.07 389.138 788.983C388.994 788.896 388.878 788.78 388.791 788.635C388.675 788.433 388.646 788.201 388.734 787.998C388.734 787.998 388.849 787.766 388.936 787.679C389.11 787.534 388.299 786.694 387.635 784.724C386.767 782.116 385.495 778.465 384.135 774.583C382.371 769.512 380.405 764.007 378.872 759.777L377.628 756.358C376.27 759.865 374.679 762.935 372.915 765.369C372.77 765.572 372.481 765.746 372.163 765.803C371.932 765.862 371.614 765.862 371.324 765.833C371.006 765.803 370.717 765.688 370.544 765.572C370.428 765.485 370.37 765.398 370.283 765.311C370.196 765.166 370.168 764.992 370.168 764.819C370.168 764.702 370.225 764.557 370.312 764.471C372.915 760.878 375.17 755.779 376.732 750.013C378.265 744.392 379.162 738.105 379.162 732.02C379.162 726.689 378.409 721.531 376.79 717.012C375.72 714.028 374.245 711.332 372.337 709.102C372.221 710.058 372.018 711.043 371.758 712.057C370.948 715.215 369.416 718.692 367.218 722.922C366.9 723.559 366.668 724.603 366.553 725.878C366.437 727.181 366.466 728.659 366.639 730.079C366.784 731.296 367.073 732.455 367.449 733.44C367.768 734.251 368.201 734.947 368.693 735.381C368.808 735.468 368.867 735.555 368.924 735.67C369.01 735.903 369.01 736.105 368.924 736.309C368.867 736.453 368.751 736.569 368.606 736.656C368.461 736.743 368.259 736.83 368.028 736.888C367.768 736.946 367.449 736.946 367.189 736.888C366.871 736.859 366.61 736.743 366.408 736.569C365.685 735.96 365.136 735.092 364.702 734.048C364.239 732.918 363.921 731.615 363.747 730.253C363.545 728.717 363.516 727.124 363.632 725.733C363.747 724.284 364.037 723.038 364.442 722.227C366.582 718.113 368.056 714.723 368.837 711.71C369.618 708.725 369.733 706.117 369.214 703.48C368.693 700.815 367.507 698.092 365.656 694.962C363.806 691.804 361.261 688.183 358.08 683.779C357.992 683.662 357.964 683.546 357.935 683.431C357.935 683.257 357.935 683.084 358.051 682.939C358.108 682.822 358.196 682.735 358.311 682.678C358.484 682.533 358.774 682.445 359.092 682.417C359.381 682.388 359.67 682.416 359.93 682.445C360.249 682.533 360.538 682.678 360.682 682.88C363.892 687.313 366.466 690.964 368.375 694.209C370.283 697.483 371.556 700.351 372.105 703.191C372.279 704.06 372.365 704.9 372.423 705.741L372.481 705.799C375.691 708.523 377.976 712.231 379.509 716.49C381.186 721.184 381.966 726.544 381.966 732.049C381.966 738.278 381.07 744.682 379.509 750.448C379.335 751.056 379.162 751.694 378.988 752.302L379.017 752.244ZM109.407 702.757C109.523 702.554 109.696 702.409 109.927 702.322C110.13 702.264 110.362 702.264 110.564 702.322H110.65C110.824 702.467 110.969 702.612 111.056 702.785C111.142 702.988 111.142 703.191 111.056 703.394V703.48C110.564 704.379 110.824 708.233 111.201 713.39C111.894 723.473 112.935 738.192 109.204 747.174C109.06 747.55 108.771 748.448 108.424 749.636C108.077 750.824 107.672 752.302 107.296 753.692C106.978 754.852 106.718 756.011 106.516 756.938C106.342 757.72 106.226 758.357 106.197 758.676C106.197 758.937 106.053 759.14 105.879 759.285C105.734 759.401 105.503 759.487 105.301 759.487H105.272C105.04 759.487 104.838 759.371 104.694 759.256C104.52 759.082 104.433 758.879 104.433 758.647C104.433 758.213 104.578 757.518 104.78 756.648C104.983 755.692 105.272 754.533 105.589 753.316C105.966 751.868 106.371 750.389 106.718 749.172C107.065 747.956 107.382 747 107.556 746.594C109.349 742.306 109.986 736.54 110.102 730.6C110.217 724.66 109.783 718.518 109.436 713.564C109.263 710.898 109.089 708.58 109.032 706.726C108.973 704.814 109.089 703.423 109.436 702.757H109.407ZM99.5171 714.433C96.6252 721.416 99.0828 728.601 101.079 734.454V734.541C101.628 736.048 102.091 737.438 102.467 738.8C102.842 740.191 103.074 741.465 103.074 742.596C103.074 742.827 102.958 743.06 102.785 743.204C102.64 743.349 102.438 743.407 102.207 743.407C101.975 743.407 101.772 743.32 101.628 743.204C101.455 743.06 101.339 742.827 101.339 742.596C101.339 740.597 100.442 737.96 99.4299 734.975V734.859C97.6953 729.905 95.6999 724.052 96.7116 717.997C95.8735 719.272 94.861 720.894 93.6461 723.096C93.2415 723.849 93.1552 724.719 93.2415 725.588C93.3287 726.515 93.6174 727.5 93.8782 728.427C94.4276 730.34 94.9482 732.136 94.0517 733.643C93.9357 733.846 93.7334 733.991 93.5311 734.048C93.3287 734.107 93.0967 734.106 92.8944 734.019L92.8081 733.962C92.6345 733.846 92.4898 733.701 92.4322 733.527C92.3738 733.324 92.3738 733.121 92.4322 732.918L92.4898 732.831C92.7496 732.397 92.7793 731.846 92.6921 731.209C92.6057 730.514 92.3738 729.702 92.1427 728.891C91.8531 727.848 91.5357 726.776 91.4197 725.704C91.3037 724.545 91.4197 723.415 92.0267 722.314C95.2944 716.375 97.2034 714.317 98.331 713.072C98.5918 712.752 98.8229 712.521 98.9964 712.318C99.17 712.115 99.286 711.912 99.3723 711.681C99.5747 711.188 99.6906 710.492 99.777 709.275C99.8642 707.972 99.9505 706.205 100.038 703.568V702.843C100.067 702.583 100.182 702.379 100.385 702.206C100.529 702.09 100.761 702.003 100.963 702.003C101.194 702.003 101.396 702.09 101.541 702.235C101.715 702.379 101.831 702.612 101.801 702.843V703.568C101.686 706.291 101.599 708.117 101.512 709.391C101.396 710.753 101.252 711.565 100.992 712.231C100.673 712.984 100.269 713.448 99.6034 714.143L99.4011 714.375L99.5171 714.433ZM33.6689 720.373C33.6689 720.373 33.7268 720.489 33.7268 720.546C34.1895 722.227 34.6233 724.168 34.9992 726.225C35.3752 728.282 35.7511 730.455 36.1271 732.716C37.4863 740.973 38.961 749.955 42.1999 755.228C42.6916 756.039 43.0676 757.169 43.3278 758.502C43.5881 759.893 43.7327 761.516 43.7327 763.167C43.7327 764.645 43.6748 766.152 43.5013 767.542C43.3567 768.875 43.1254 770.121 42.8362 771.135V771.193C42.8362 771.193 42.8362 771.396 42.7784 771.483L42.4024 772.409C42.3157 772.642 42.1422 772.787 41.9108 772.873C41.7084 772.96 41.5059 772.96 41.3035 772.873H41.2167C41.0143 772.758 40.8697 772.613 40.783 772.439C40.6962 772.236 40.6673 772.033 40.7251 771.802L40.8408 771.541C41.1879 770.642 41.477 769.367 41.6794 767.919C41.8818 766.441 41.9975 764.761 41.9686 763.138C41.9686 761.603 41.824 760.096 41.5927 758.821C41.3903 757.691 41.0721 756.735 40.6673 756.098C38.961 753.316 37.7176 749.636 36.7633 745.58C35.78 741.553 35.086 737.177 34.3919 733.006L34.0449 730.861C34.016 731.991 33.9581 733.092 33.9003 734.193C33.5533 739.234 32.7725 744.218 31.5 749.115C30.2565 753.78 28.5503 758.357 26.3525 762.761C26.2368 762.964 26.0633 763.109 25.8609 763.196C25.6585 763.254 25.4271 763.254 25.2246 763.196H25.1379C24.9644 763.051 24.8198 762.906 24.7331 762.733C24.6463 762.53 24.6463 762.327 24.7331 762.124V762.037C26.9309 757.749 28.5792 753.287 29.7939 748.738C31.0662 743.957 31.8182 739.061 32.1652 734.136C32.5122 728.978 32.3676 723.792 31.7892 718.634C31.2108 713.274 30.1409 707.972 28.6949 702.814V702.757C28.637 702.524 28.6949 702.293 28.8395 702.119C28.9552 701.945 29.1287 701.829 29.3311 701.772H29.389C29.6203 701.713 29.8227 701.772 29.9963 701.829C30.1987 701.946 30.3722 702.119 30.43 702.351C31.9049 707.595 32.9749 712.984 33.5822 718.432C33.6689 719.098 33.7267 719.764 33.7845 720.43L33.6689 720.373ZM6.25397 701.656V701.539C6.19614 701.337 6.25395 701.163 6.36964 701.018C6.45638 700.931 6.54314 700.845 6.68773 700.786C6.7745 700.757 6.86126 700.728 6.97695 700.7C7.15044 700.7 7.32396 700.7 7.46856 700.757C7.69989 700.844 7.87342 700.989 7.96018 701.192C11.3437 708.87 12.7029 713.158 12.5872 716.23C12.4716 719.417 10.8521 721.242 8.33613 724.023C6.22507 726.399 3.44881 729.528 0.44128 734.831C0.325616 735.004 0.152091 735.149 -0.0503365 735.208C-0.194932 735.237 -0.36843 735.265 -0.541953 735.208C-0.657619 735.208 -0.77331 735.149 -0.860046 735.092C-0.975733 735.033 -1.06247 734.947 -1.12031 734.831C-1.20706 734.657 -1.26491 734.483 -1.20707 734.309C-1.20707 734.222 -1.17816 734.164 -1.12031 734.077C0.441311 731.325 1.91616 729.152 3.30425 727.385C4.6056 725.704 5.79127 724.342 6.83235 723.183L6.97695 723.009C11.5461 717.91 12.8764 716.432 6.36964 701.684V701.597L6.25397 701.656ZM-296.467 692.529C-296.612 692.325 -296.67 692.094 -296.641 691.862C-296.641 691.631 -296.497 691.428 -296.294 691.283C-296.091 691.138 -295.86 691.08 -295.629 691.109C-295.397 691.138 -295.195 691.254 -295.051 691.457C-293.258 693.775 -291.927 697.164 -291.031 701.105C-290.105 705.248 -289.672 709.971 -289.758 714.694C-289.845 719.214 -290.452 723.733 -291.551 727.674C-292.593 731.296 -294.067 734.454 -296.005 736.685C-296.843 737.67 -298.26 739.727 -299.533 741.639C-299.359 745.869 -299.591 749.317 -300.314 752.591C-300.516 753.519 -300.747 754.417 -301.037 755.316L-300.805 756.184C-298.26 765.253 -297.277 768.73 -299.302 779.827C-299.446 780.696 -299.042 781.768 -298.666 782.696C-298.579 782.927 -298.492 783.159 -298.405 783.333C-298.376 783.449 -298.463 783.565 -298.607 783.623C-298.752 783.68 -298.897 783.623 -298.926 783.535C-299.012 783.304 -299.099 783.102 -299.157 782.898C-299.533 781.942 -299.967 780.812 -299.793 779.856C-297.798 768.846 -298.781 765.398 -301.297 756.358V756.3C-303.004 761.371 -305.924 766.586 -310.32 774.438L-310.551 774.844C-311.477 776.524 -312.055 778.349 -312.46 780.175C-312.864 782.029 -313.067 783.942 -313.24 785.738C-313.327 786.52 -313.414 787.273 -313.501 788.084C-313.587 788.809 -313.703 789.534 -313.848 790.2V790.286C-313.906 790.519 -314.05 790.721 -314.253 790.866C-314.426 790.982 -314.6 791.04 -314.802 791.011H-314.888C-315.12 790.953 -315.323 790.809 -315.467 790.605C-315.583 790.431 -315.641 790.171 -315.583 789.939C-315.438 789.302 -315.352 788.607 -315.265 787.882C-315.178 787.187 -315.092 786.405 -315.004 785.593C-314.802 783.739 -314.6 781.768 -314.195 779.799C-313.79 777.799 -313.154 775.829 -312.113 773.974L-311.881 773.569C-306.531 764.007 -303.408 758.415 -302.049 752.244C-301.499 749.781 -301.268 747.231 -301.239 744.276C-301.702 745.001 -302.049 745.493 -302.193 745.638C-302.367 745.812 -302.598 745.899 -302.83 745.899C-303.061 745.899 -303.292 745.812 -303.437 745.638C-303.611 745.435 -303.668 745.203 -303.668 745.001C-303.668 744.768 -303.582 744.566 -303.408 744.392C-303.235 744.218 -302.338 742.799 -302.165 742.537L-301.268 741.205C-301.442 737.38 -301.962 732.89 -302.8 727.24C-302.83 727.036 -302.888 726.747 -302.945 726.429C-303.235 727.819 -303.582 729.007 -303.929 730.05C-304.652 732.078 -305.461 733.498 -306.242 734.859C-307.659 737.294 -308.902 739.437 -308.902 744.856C-308.902 745.087 -309.018 745.319 -309.163 745.493C-309.337 745.667 -309.539 745.754 -309.799 745.754C-310.06 745.754 -310.262 745.638 -310.436 745.493C-310.609 745.319 -310.695 745.117 -310.695 744.856C-310.695 738.974 -309.337 736.627 -307.804 733.962C-307.081 732.686 -306.3 731.325 -305.635 729.442C-304.969 727.558 -304.391 725.124 -304.074 721.676C-305.548 715.679 -308.006 706.523 -309.625 700.41L-309.684 700.177C-310.667 696.44 -311.361 693.861 -311.274 693.571C-311.216 693.34 -311.042 693.138 -310.84 693.05C-310.638 692.934 -310.407 692.905 -310.175 692.963C-309.944 693.021 -309.741 693.195 -309.654 693.398C-309.539 693.601 -309.51 693.832 -309.568 694.094C-309.597 694.238 -309.394 694.441 -309.163 695.281C-308.902 696.296 -308.498 697.744 -307.92 699.946V700.12C-307.399 700.612 -306.56 701.568 -305.606 702.814C-304.305 704.495 -302.628 706.755 -301.037 708.957C-299.793 710.695 -298.607 712.376 -297.711 713.738C-296.93 714.925 -296.381 715.852 -296.207 716.345C-296.12 716.577 -296.15 716.809 -296.236 717.041C-296.323 717.243 -296.526 717.417 -296.728 717.504C-296.959 717.591 -297.19 717.562 -297.393 717.476C-297.596 717.388 -297.769 717.186 -297.856 716.953C-297.972 716.606 -298.463 715.795 -299.186 714.694C-300.024 713.39 -301.211 711.738 -302.424 710.029C-303.9 707.972 -305.49 705.799 -306.762 704.147C-305.779 707.827 -304.681 711.971 -303.697 715.795C-303.177 717.823 -302.685 719.735 -302.281 721.416V721.502C-301.615 724.168 -301.152 726.167 -301.037 727.036C-300.372 731.644 -299.908 735.497 -299.649 738.858C-298.752 737.554 -297.884 736.366 -297.306 735.67C-295.513 733.613 -294.154 730.688 -293.199 727.297C-292.129 723.531 -291.58 719.184 -291.494 714.81C-291.406 710.261 -291.812 705.682 -292.708 701.713C-293.547 698.005 -294.79 694.817 -296.41 692.703L-296.467 692.529ZM-196.293 698.816C-196.293 698.816 -196.496 698.584 -196.524 698.439C-196.524 698.294 -196.524 698.179 -196.524 698.034C-196.496 697.918 -196.437 697.831 -196.351 697.744C-196.235 697.628 -196.061 697.512 -195.859 697.454C-195.657 697.397 -195.454 697.397 -195.281 697.425C-195.05 697.454 -194.847 697.542 -194.674 697.686C-193.17 699.048 -191.984 701.221 -191.088 703.915C-190.191 706.697 -189.613 710.029 -189.381 713.65C-189.15 717.215 -189.295 721.068 -189.757 724.893C-190.22 728.514 -191.001 732.136 -192.158 735.439C-192.244 735.7 -192.447 735.874 -192.736 735.96C-192.91 736.019 -193.112 736.048 -193.343 736.019C-193.459 736.019 -193.575 735.989 -193.69 735.96C-193.835 735.903 -193.951 735.845 -194.066 735.729C-194.24 735.555 -194.327 735.352 -194.298 735.12V734.947C-193.141 731.701 -192.389 728.196 -191.926 724.69C-191.464 720.952 -191.348 717.215 -191.55 713.709C-191.752 710.231 -192.302 707.016 -193.17 704.379C-193.98 701.916 -195.021 699.975 -196.322 698.787L-196.293 698.816ZM-236.953 707.044L-237.011 706.523C-237.358 703.046 -237.068 700.004 -235.969 697.773C-235.94 697.686 -235.912 697.599 -235.912 697.542C-235.912 697.338 -235.94 697.136 -236.085 696.991C-236.172 696.874 -236.288 696.817 -236.404 696.73C-236.519 696.672 -236.663 696.643 -236.808 696.614C-237.011 696.614 -237.242 696.614 -237.415 696.672C-237.676 696.759 -237.878 696.904 -237.994 697.135C-239.208 699.599 -239.527 702.902 -239.151 706.639C-238.746 710.666 -237.56 715.244 -235.825 719.793C-234.668 722.836 -233.28 725.878 -231.719 728.746C-230.793 730.455 -229.838 732.107 -228.827 733.672C-226.195 737.757 -223.303 741.263 -220.44 743.638C-218.705 745.087 -217.259 746.42 -216.161 747.695C-215.09 748.97 -214.309 750.187 -213.904 751.433V751.49C-213.529 752.679 -213.471 753.896 -213.788 755.171C-214.107 756.503 -214.801 757.952 -215.929 759.516C-215.987 759.603 -216.045 759.72 -216.045 759.835C-216.045 760.009 -216.045 760.154 -215.958 760.298C-215.9 760.415 -215.813 760.502 -215.697 760.588C-215.697 760.588 -215.408 760.762 -215.234 760.791C-215.032 760.821 -214.83 760.791 -214.627 760.791C-214.396 760.733 -214.165 760.617 -214.02 760.415C-212.777 758.676 -211.996 757.054 -211.62 755.518C-211.504 755.054 -211.446 754.62 -211.417 754.185C-211.157 754.388 -210.897 754.562 -210.608 754.765C-208.96 755.953 -206.791 757.257 -204.563 758.619C-200.458 761.139 -196.061 763.834 -194.066 766.007C-193.141 766.992 -192.794 767.832 -193.372 768.354C-193.488 768.469 -193.574 768.585 -193.604 768.73C-193.633 768.846 -193.604 768.991 -193.604 769.106C-193.604 769.106 -193.517 769.339 -193.43 769.425C-193.314 769.541 -193.141 769.657 -192.91 769.715C-192.707 769.773 -192.505 769.773 -192.302 769.715C-192.071 769.686 -191.868 769.6 -191.695 769.455C-189.931 767.832 -191.203 765.746 -193.864 763.515C-196.264 761.516 -199.821 759.342 -203.147 757.285H-203.176C-207.427 754.648 -211.331 752.244 -211.736 751.027C-212.199 749.578 -213.065 748.216 -214.28 746.797C-215.466 745.406 -216.97 744.016 -218.792 742.509C-221.539 740.219 -224.315 736.83 -226.86 732.89C-227.352 732.136 -227.814 731.354 -228.306 730.543C-226.224 731.615 -223.564 733.063 -220.585 734.744C-217.288 736.598 -213.616 738.742 -210.03 740.886L-209.971 740.915C-208.439 741.843 -206.936 742.741 -205.46 743.638C-201.354 746.159 -197.652 748.565 -195.05 750.418C-192.881 751.954 -191.493 753.055 -191.406 753.432C-191.348 753.692 -191.145 753.896 -190.856 754.011C-190.682 754.07 -190.48 754.098 -190.249 754.098H-190.018C-189.844 754.011 -189.699 753.954 -189.583 753.866C-189.381 753.692 -189.266 753.49 -189.295 753.229V753.114C-189.497 752.389 -191.059 751.027 -193.517 749.288C-196.177 747.376 -199.966 744.943 -204.13 742.364L-204.998 741.843C-204.188 742.103 -203.349 742.393 -202.482 742.711C-200.891 743.32 -199.272 744.016 -197.913 744.682C-196.64 745.319 -195.57 745.928 -194.905 746.449L-194.674 746.652C-194.529 746.797 -194.298 746.884 -194.095 746.913C-193.893 746.913 -193.69 746.913 -193.488 746.884C-193.286 746.826 -193.112 746.739 -192.967 746.594C-192.881 746.508 -192.822 746.42 -192.794 746.304C-192.736 746.159 -192.736 746.044 -192.794 745.899C-192.822 745.754 -192.91 745.609 -193.025 745.522C-193.112 745.435 -193.257 745.29 -193.372 745.232C-194.124 744.624 -195.31 743.928 -196.698 743.262C-198.144 742.538 -199.85 741.814 -201.528 741.176C-203.262 740.509 -204.998 739.988 -206.444 739.641C-207.485 739.408 -208.41 739.293 -209.104 739.322C-212.603 737.206 -216.189 735.149 -219.399 733.324C-223.911 730.774 -227.757 728.717 -229.926 727.761C-231.4 725.009 -232.702 722.111 -233.8 719.243C-235.131 715.766 -236.143 712.26 -236.692 709.073C-235.073 709.739 -233.424 710.521 -231.863 711.332C-230.186 712.231 -228.682 713.216 -227.554 714.23C-226.658 715.041 -225.992 715.881 -225.761 716.722C-225.559 717.388 -225.645 718.083 -226.108 718.779C-226.166 718.866 -226.195 718.953 -226.224 719.069C-226.224 719.272 -226.224 719.417 -226.137 719.561C-226.08 719.678 -225.993 719.764 -225.877 719.823C-225.761 719.909 -225.588 719.967 -225.414 719.996C-225.212 720.025 -225.01 719.996 -224.806 719.996C-224.547 719.938 -224.344 719.793 -224.228 719.59C-223.505 718.518 -223.39 717.417 -223.679 716.345C-223.997 715.215 -224.806 714.143 -225.935 713.129C-227.179 712.028 -228.798 710.956 -230.591 710C-232.644 708.899 -234.899 707.884 -236.982 707.073L-236.953 707.044ZM-265.293 756.967C-265.293 756.967 -265.235 756.88 -265.206 756.85C-269.111 751.172 -269.053 746.97 -268.908 738.8V738.626C-268.908 737.12 -268.85 735.468 -268.85 733.266C-268.85 731.238 -268.272 728.051 -267.289 724.371C-266.305 720.691 -264.888 716.461 -263.298 712.433C-261.881 708.841 -260.261 705.393 -258.642 702.553C-257.167 699.975 -255.663 697.918 -254.217 696.643C-254.073 696.498 -253.841 696.411 -253.61 696.382C-253.408 696.382 -253.205 696.382 -253.032 696.411C-252.829 696.469 -252.656 696.585 -252.54 696.701C-252.454 696.788 -252.395 696.874 -252.366 696.991C-252.338 697.107 -252.338 697.252 -252.366 697.397C-252.395 697.541 -252.482 697.657 -252.597 697.773C-253.899 698.903 -255.316 700.873 -256.704 703.307C-258.295 706.088 -259.857 709.449 -261.244 712.955C-262.835 716.925 -264.195 721.068 -265.177 724.719C-265.756 726.834 -266.161 728.775 -266.421 730.398C-263.789 730.543 -261.881 731.962 -260.464 734.077C-258.989 736.309 -258.093 739.293 -257.543 742.248C-256.965 745.348 -256.733 748.39 -256.589 750.477L-256.415 752.795L-256.328 752.91C-256.328 752.91 -256.242 753.114 -256.242 753.2C-256.242 753.316 -256.242 753.432 -256.299 753.519C-256.357 753.692 -256.473 753.837 -256.647 753.925C-256.82 754.011 -257.022 754.07 -257.225 754.098C-257.427 754.098 -257.658 754.098 -257.832 754.011C-258.237 753.837 -258.44 753.374 -258.526 752.679C-258.613 752.157 -258.642 751.462 -258.728 750.622C-258.815 749.578 -258.902 748.275 -259.047 746.913C-259.191 745.522 -259.394 744.016 -259.683 742.509C-260.204 739.785 -260.956 737.091 -262.199 735.092C-263.269 733.324 -264.715 732.136 -266.652 732.078C-266.681 732.512 -266.711 732.918 -266.711 733.266C-266.711 735.004 -266.739 736.916 -266.768 738.655V738.829C-266.942 749.057 -266.999 752.795 -258.526 761.748C-258.035 762.008 -257.427 762.327 -256.675 762.704C-255.113 763.486 -253.003 764.471 -250.718 765.543C-242.968 769.223 -232.789 774.004 -230.244 776.727C-229.405 777.625 -229.231 778.408 -229.897 779.045C-230.041 779.19 -230.244 779.276 -230.475 779.305C-230.649 779.305 -230.851 779.335 -231.024 779.305C-231.198 779.305 -231.343 779.219 -231.458 779.16C-231.574 779.103 -231.69 778.987 -231.747 778.871C-231.834 778.668 -231.863 778.465 -231.776 778.263C-231.747 778.175 -231.69 778.089 -231.603 778.002C-231.227 777.625 -233.859 776.002 -237.617 773.974C-241.783 771.714 -247.334 769.078 -251.99 766.876L-254.738 765.572C-254.102 766.181 -253.436 766.818 -252.742 767.455C-251.962 768.18 -251.47 769.367 -251.181 770.816C-250.863 772.381 -250.804 774.322 -250.92 776.321C-251.036 778.842 -251.412 781.537 -251.874 783.942C-252.424 786.752 -253.118 789.185 -253.668 790.403C-253.784 790.635 -253.986 790.809 -254.247 790.866C-254.42 790.924 -254.622 790.954 -254.825 790.924C-254.97 790.924 -255.113 790.866 -255.229 790.809C-255.374 790.75 -255.489 790.664 -255.548 790.576C-255.693 790.403 -255.75 790.229 -255.721 790.026C-255.721 789.939 -255.721 789.853 -255.663 789.794C-255.143 788.635 -254.506 786.346 -253.957 783.623C-253.494 781.276 -253.147 778.668 -253.003 776.235C-252.916 774.322 -252.945 772.554 -253.234 771.106C-253.465 769.918 -253.812 769.02 -254.362 768.499C-256.647 766.354 -258.584 764.442 -260.204 762.733C-260.666 762.472 -261.013 762.24 -261.187 762.066C-261.187 762.066 -261.303 761.922 -261.36 761.805C-261.418 761.689 -261.418 761.544 -261.418 761.429C-262.286 760.472 -263.066 759.575 -263.731 758.734C-263.963 760.067 -263.327 761.313 -262.69 762.617V762.674C-261.765 764.442 -260.84 766.209 -261.62 768.324C-262.343 770.352 -264.628 772.554 -270.036 775.191C-270.181 775.25 -270.383 775.307 -270.585 775.307C-270.759 775.307 -270.961 775.307 -271.106 775.25C-271.279 775.191 -271.395 775.134 -271.511 775.046C-271.627 774.931 -271.713 774.786 -271.742 774.612C-271.742 774.438 -271.742 774.264 -271.627 774.119C-271.627 774.119 -271.453 773.916 -271.308 773.859C-261.65 769.194 -263.182 766.209 -264.686 763.283C-265.177 762.327 -265.669 761.371 -265.872 760.328C-266.103 759.226 -266.016 758.096 -265.293 756.909V756.967Z" fill="#202020"/>
<path fill-rule="evenodd" clip-rule="evenodd" d="M-62.405 654.068H1201.26V718.966C1199.09 718.701 1196.97 718.317 1194.86 717.787C1109.97 695.466 1042.53 713.777 960.419 719.586C862.503 726.515 813.544 716.902 722.016 706.465C663.803 699.83 599.546 710.062 570.887 715.015C477.537 729.434 443.615 721.237 366.749 715.075C300.439 711.536 233.203 697.353 160.298 717.787C119.147 729.346 48.6141 705.108 15.3286 711.801C-21.6295 719.232 -37.0143 717.257 -62.405 714.455V654.097V654.068Z" fill="#202020"/>
<path fill-rule="evenodd" clip-rule="evenodd" d="M20.3315 658.418C20.3315 658.418 22.8474 650.219 28.8914 648.567C28.8914 648.567 20.6495 647.35 17.2371 657.81C17.2371 657.81 17.0925 647.147 25.7971 639.15C25.7971 639.15 16.3696 640.396 12.8415 657.201C12.8415 657.201 12.2632 641.613 18.5963 635.876C18.5963 635.876 9.31338 640.396 8.73501 657.201C8.73501 657.201 9.31338 649.002 2.40182 643.468C2.40182 643.468 6.39261 650.044 5.20694 657.201C5.20694 657.201 3.4429 650.219 -2.74572 646.336C-2.74572 646.336 1.07156 649.407 1.67886 657.404C1.67886 657.404 -0.837077 651.464 -6.2738 651.87C-6.2738 651.87 -3.75788 650.624 -1.27086 658.853C-1.27086 658.853 -1.99382 659.577 -3.55544 659.374C-4.48084 659.258 -4.68327 660.04 -3.15058 660.475H2.92236C6.71072 659.954 7.20234 660.128 7.83855 660.475H27.3298C27.4455 660.069 25.9417 659.403 20.3893 658.447L20.3315 658.418Z" fill="#202020"/>
<path fill-rule="evenodd" clip-rule="evenodd" d="M281.034 650.827C281.034 650.827 285.922 634.804 297.72 631.617C297.72 631.617 281.613 629.213 274.99 649.639C274.99 649.639 274.701 628.835 291.676 613.219C291.676 613.219 273.284 615.623 266.372 648.451C266.372 648.451 265.216 618.028 277.592 606.815C277.592 606.815 259.489 615.623 258.333 648.451C258.333 648.451 259.489 632.428 245.955 621.621C245.955 621.621 253.735 634.428 251.421 648.451C251.421 648.451 247.98 634.833 235.892 627.242C235.892 627.242 243.382 633.239 244.51 648.857C244.51 648.857 239.622 637.238 228.98 638.049C228.98 638.049 233.867 635.645 238.755 651.667C238.755 651.667 237.309 653.058 234.302 652.652C232.509 652.42 232.074 653.956 235.111 654.825H246.968C254.371 653.811 255.325 654.159 256.54 654.825H294.568C294.8 654.043 291.879 652.71 281.034 650.856V650.827Z" fill="#202020"/>
<path fill-rule="evenodd" clip-rule="evenodd" d="M334.939 652.014C334.939 652.014 338.322 640.889 346.535 638.657C346.535 638.657 335.343 636.977 330.746 651.174C330.746 651.174 330.543 636.716 342.342 625.851C342.342 625.851 329.56 627.532 324.76 650.334C324.76 650.334 323.949 629.183 332.567 621.388C332.567 621.388 319.987 627.502 319.178 650.334C319.178 650.334 319.987 639.208 310.589 631.675C310.589 631.675 315.997 640.57 314.377 650.334C314.377 650.334 311.977 640.889 303.59 635.586C303.59 635.586 308.796 639.758 309.576 650.624C309.576 650.624 306.194 642.568 298.79 643.119C298.79 643.119 302.203 641.439 305.586 652.594C305.586 652.594 304.574 653.578 302.492 653.289C301.248 653.116 300.959 654.187 303.07 654.796H311.312C316.46 654.101 317.124 654.332 317.963 654.796H344.395C344.54 654.246 342.515 653.318 334.967 652.044L334.939 652.014Z" fill="#202020"/>
<path fill-rule="evenodd" clip-rule="evenodd" d="M377.218 652.565C377.218 652.565 379.936 643.641 386.53 641.845C386.53 641.845 377.536 640.512 373.864 651.899C373.864 651.899 373.69 640.28 383.175 631.559C383.175 631.559 372.909 632.892 369.063 651.204C369.063 651.204 368.426 634.224 375.31 627.967C375.31 627.967 365.187 632.892 364.551 651.204C364.551 651.204 365.187 642.28 357.64 636.224C357.64 636.224 361.978 643.381 360.677 651.204C360.677 651.204 358.739 643.612 352 639.353C352 639.353 356.165 642.714 356.801 651.406C356.801 651.406 354.083 644.916 348.125 645.38C348.125 645.38 350.844 644.047 353.591 652.971C353.591 652.971 352.782 653.753 351.105 653.521C350.092 653.376 349.861 654.246 351.567 654.738H358.189C362.325 654.188 362.846 654.362 363.539 654.738H384.766C384.882 654.303 383.262 653.551 377.218 652.536V652.565Z" fill="#202020"/>
<path fill-rule="evenodd" clip-rule="evenodd" d="M333.204 672.393C335.257 667.699 339.971 659.354 348.01 657.181C348.01 657.181 333.666 655.037 326.9 672.393H333.204ZM289.884 672.393H296.13C294.51 669.437 289.884 662.744 281.873 663.323C281.873 663.323 285.69 661.44 289.912 672.393H289.884ZM296.679 672.393C295.262 658.369 288.495 652.922 288.495 652.922C298.241 659.064 302.145 669.234 303.157 672.393H296.679ZM303.591 672.393H310.127C310.127 668.886 309.288 656.399 298.212 647.532C298.212 647.532 305.326 659.296 303.62 672.393H303.591ZM310.127 672.393C311.544 641.593 328.634 633.278 328.634 633.278C318.022 642.897 317.761 667.264 317.819 672.393H310.127ZM318.051 672.393C324.846 641.709 342.197 639.449 342.197 639.449C329.069 651.531 326.668 666.859 326.234 672.393H318.051Z" fill="#202020"/>
<path fill-rule="evenodd" clip-rule="evenodd" d="M367.762 672.479C367.762 672.479 365.766 665.96 360.965 664.656C360.965 664.656 367.53 663.671 370.219 671.986C370.219 671.986 370.335 663.526 363.424 657.152C363.424 657.152 370.913 658.137 373.719 671.494C373.719 671.494 374.181 659.122 369.15 654.544C369.15 654.544 376.523 658.137 376.987 671.494C376.987 671.494 376.523 664.974 382.019 660.57C382.019 660.57 378.866 665.786 379.791 671.494C379.791 671.494 381.208 665.96 386.096 662.86C386.096 662.86 383.06 665.294 382.597 671.668C382.597 671.668 384.592 666.945 388.901 667.264C388.901 667.264 386.906 666.279 384.91 672.798C384.91 672.798 385.489 673.377 386.732 673.204C387.455 673.116 387.629 673.725 386.414 674.072H381.584C378.577 673.667 378.172 673.812 377.681 674.072H362.209C362.123 673.754 363.308 673.204 367.733 672.45L367.762 672.479Z" fill="#202020"/>
<path fill-rule="evenodd" clip-rule="evenodd" d="M348.964 672.798C348.964 672.798 347.374 667.554 343.528 666.51C343.528 666.51 348.791 665.728 350.96 672.393C350.96 672.393 351.046 665.583 345.523 660.484C345.523 660.484 351.538 661.266 353.793 671.987C353.793 671.987 354.169 662.049 350.121 658.398C350.121 658.398 356.049 661.266 356.425 671.987C356.425 671.987 356.049 666.771 360.473 663.236C360.473 663.236 357.929 667.409 358.681 671.987C358.681 671.987 359.809 667.554 363.742 665.062C363.742 665.062 361.312 667.032 360.937 672.131C360.937 672.131 362.527 668.336 365.997 668.597C365.997 668.597 364.407 667.815 362.816 673.03C362.816 673.03 363.279 673.494 364.262 673.349C364.841 673.261 364.985 673.783 364.002 674.044H360.127C357.698 673.725 357.408 673.812 357.003 674.044H344.568C344.482 673.783 345.436 673.349 348.993 672.74L348.964 672.798Z" fill="#202020"/>
<path fill-rule="evenodd" clip-rule="evenodd" d="M255.586 672.479C255.586 672.479 253.591 665.96 248.79 664.656C248.79 664.656 255.354 663.671 258.044 671.986C258.044 671.986 258.16 663.526 251.248 657.152C251.248 657.152 258.738 658.137 261.543 671.494C261.543 671.494 262.005 659.122 256.974 654.544C256.974 654.544 264.348 658.137 264.811 671.494C264.811 671.494 264.348 664.974 269.843 660.57C269.843 660.57 266.69 665.786 267.616 671.494C267.616 671.494 269.033 665.96 273.92 662.86C273.92 662.86 270.883 665.294 270.421 671.668C270.421 671.668 272.417 666.945 276.726 667.264C276.726 667.264 274.73 666.279 272.735 672.798C272.735 672.798 273.313 673.377 274.557 673.204C275.28 673.116 275.453 673.725 274.238 674.072H269.409C266.402 673.667 265.996 673.812 265.505 674.072H250.033C249.946 673.754 251.132 673.204 255.556 672.45L255.586 672.479Z" fill="#202020"/>
<path fill-rule="evenodd" clip-rule="evenodd" d="M294.044 666.353C294.044 666.353 295.381 665.413 295.765 665.233C296.15 665.054 296.777 664.994 296.512 664.627C296.247 664.26 294.32 663.994 292.684 663.069C291.049 662.147 290.798 662.942 290.187 663.396C289.578 663.853 289.08 664.169 289.591 664.652C290.1 665.133 291.997 666.784 292.583 666.743C293.168 666.7 294.044 666.349 294.044 666.349L294.044 666.353Z" fill="black"/>
<path fill-rule="evenodd" clip-rule="evenodd" d="M288.039 669.212C288.039 669.212 288.913 668.812 289.578 668.485C290.242 668.159 291.116 667.87 290.942 667.625C290.765 667.381 289.193 666.691 288.726 665.901C288.258 665.113 288.818 664.176 288.269 664.117C287.717 664.055 286.296 663.627 285.843 663.762C285.389 663.897 284.67 665.517 284.757 665.861C284.843 666.206 285.648 666.224 285.953 666.79C286.258 667.355 286.247 668.684 286.574 669.072C286.9 669.46 288.04 669.207 288.04 669.207L288.039 669.212Z" fill="black"/>
<path fill-rule="evenodd" clip-rule="evenodd" d="M283.814 670.163C284.427 669.998 286.015 669.423 285.83 668.779C285.646 668.133 285.364 666.71 284.578 667.021C283.792 667.332 282.102 666.991 282.012 667.946C281.922 668.901 281.749 670.495 281.997 670.768C282.246 671.041 283.17 670.204 283.814 670.163Z" fill="black"/>
<path fill-rule="evenodd" clip-rule="evenodd" d="M285.602 668.053C285.417 667.431 285.126 666.769 284.562 666.997C283.78 667.313 282.111 667.003 282.009 667.94C281.906 668.878 281.712 670.445 281.955 670.709C282.652 670.79 282.655 668.752 283.029 668.397C283.402 668.042 284.548 668.063 285.603 668.056L285.602 668.053Z" fill="black"/>
<path fill-rule="evenodd" clip-rule="evenodd" d="M284.258 665.969C284.035 665.455 284.396 664.465 284.552 663.956C284.71 663.445 284.362 663.345 283.163 663.226C281.964 663.107 280.402 662.411 280.234 662.792C280.066 663.173 280.352 666.205 280.552 666.619C280.753 667.035 281.489 666.593 282.342 666.392C283.194 666.19 284.524 666.136 284.253 665.968L284.258 665.969Z" fill="black"/>
<path fill-rule="evenodd" clip-rule="evenodd" d="M278.564 663.198C278.949 662.778 279.596 662.539 279.109 661.96C278.622 661.382 277.329 660.672 274.818 660.47C272.307 660.268 270.761 661.107 270.761 661.107C270.761 661.107 274.818 660.47 278.566 663.2L278.564 663.198Z" fill="black"/>
<path fill-rule="evenodd" clip-rule="evenodd" d="M277.7 666.466C278.181 666.247 278.986 665.656 278.83 665.325C278.674 664.995 277.489 664.234 274.607 665.189C271.725 666.145 269.215 668.604 269.215 668.604C269.215 668.604 275.986 663.869 277.697 666.467L277.7 666.466Z" fill="black"/>
<path fill-rule="evenodd" clip-rule="evenodd" d="M278.74 669.259C279.117 669.067 279.464 668.462 279.303 668.115C279.142 667.768 276.714 668.079 273.916 669.005C271.116 669.932 268.182 672.215 268.126 672.445C268.069 672.675 274.518 668.814 278.74 669.259Z" fill="black"/>
<path fill-rule="evenodd" clip-rule="evenodd" d="M280.21 670.452C280.006 670.081 279.139 669.756 278.467 670.099C277.796 670.442 272.304 672.876 271.339 673.211C270.376 673.545 269.486 673.971 269.364 674.141C269.241 674.311 271.454 673.945 274.629 672.695C277.804 671.444 280.538 670.601 280.21 670.452Z" fill="black"/>
<path fill-rule="evenodd" clip-rule="evenodd" d="M281.483 672.23C281.263 672.01 280.437 672.022 279.854 672.477C279.27 672.932 274.467 676.373 273.617 676.905C272.766 677.438 271.988 678.022 271.892 678.183C271.797 678.344 273.79 677.421 276.581 675.551C279.371 673.68 281.798 672.246 281.485 672.228L281.483 672.23Z" fill="black"/>
<path fill-rule="evenodd" clip-rule="evenodd" d="M281.02 672.63C280.919 672.48 280.34 672.417 279.756 672.944C279.173 673.471 275.56 675.88 274.449 676.646C273.339 677.413 272.065 677.821 272.124 677.982C272.182 678.144 273.875 677.266 275.465 676.327C277.053 675.385 280.848 672.851 281.02 672.63Z" fill="black"/>
<path fill-rule="evenodd" clip-rule="evenodd" d="M279.746 670.866C279.574 670.673 279.214 670.581 278.51 670.847C277.8 671.113 273.256 672.669 271.981 673.069C270.706 673.469 269.853 673.77 269.853 673.77C269.853 673.77 278.065 671.771 279.746 670.866Z" fill="black"/>
<path fill-rule="evenodd" clip-rule="evenodd" d="M218.744 672.276C218.744 672.276 216.516 664.946 211.108 663.468C211.108 663.468 218.483 662.367 221.519 671.725C221.519 671.725 221.664 662.193 213.885 655.037C213.885 655.037 222.3 656.138 225.481 671.175C225.481 671.175 226.002 657.239 220.333 652.11C220.333 652.11 228.633 656.138 229.154 671.175C229.154 671.175 228.633 663.845 234.822 658.89C234.822 658.89 231.265 664.743 232.306 671.175C232.306 671.175 233.896 664.946 239.42 661.469C239.42 661.469 236.008 664.222 235.458 671.378C235.458 671.378 237.685 666.075 242.572 666.424C242.572 666.424 240.345 665.323 238.09 672.653C238.09 672.653 238.755 673.29 240.143 673.116C240.982 673.001 241.156 673.725 239.767 674.102H234.33C230.947 673.638 230.513 673.782 229.934 674.102H212.526C212.41 673.754 213.769 673.145 218.714 672.276H218.744Z" fill="#202020"/>
<path fill-rule="evenodd" clip-rule="evenodd" d="M348.964 672.798C348.964 672.798 347.374 667.554 343.528 666.51C343.528 666.51 348.791 665.728 350.96 672.393C350.96 672.393 351.046 665.583 345.523 660.484C345.523 660.484 351.538 661.266 353.793 671.987C353.793 671.987 354.169 662.049 350.121 658.398C350.121 658.398 356.049 661.266 356.425 671.987C356.425 671.987 356.049 666.771 360.473 663.236C360.473 663.236 357.929 667.409 358.681 671.987C358.681 671.987 359.809 667.554 363.742 665.062C363.742 665.062 361.312 667.032 360.937 672.131C360.937 672.131 362.527 668.336 365.997 668.597C365.997 668.597 364.407 667.815 362.816 673.03C362.816 673.03 363.279 673.494 364.262 673.349C364.841 673.261 364.985 673.783 364.002 674.044H360.127C357.698 673.725 357.408 673.812 357.003 674.044H344.568C344.482 673.783 345.436 673.349 348.993 672.74L348.964 672.798Z" fill="#202020"/>
<path fill-rule="evenodd" clip-rule="evenodd" d="M148.47 668.712C148.47 668.712 146.301 661.614 141.096 660.194C141.096 660.194 148.239 659.122 151.16 668.162C151.16 668.162 151.276 658.948 143.785 652.023C143.785 652.023 151.941 653.096 155.007 667.64C155.007 667.64 155.526 654.168 150.032 649.184C150.032 649.184 158.071 653.096 158.563 667.64C158.563 667.64 158.042 660.542 164.028 655.761C164.028 655.761 160.587 661.44 161.6 667.64C161.6 667.64 163.132 661.614 168.482 658.253C168.482 658.253 165.157 660.919 164.665 667.843C164.665 667.843 166.834 662.715 171.548 663.062C171.548 663.062 169.379 661.99 167.21 669.089C167.21 669.089 167.846 669.698 169.176 669.523C169.986 669.408 170.159 670.103 168.801 670.48H163.537C160.27 670.045 159.835 670.19 159.286 670.48H142.427C142.311 670.132 143.612 669.553 148.442 668.712H148.47Z" fill="#202020"/>
<path fill-rule="evenodd" clip-rule="evenodd" d="M121.518 669.061C121.518 669.061 119.783 663.352 115.59 662.222C115.59 662.222 121.316 661.382 123.658 668.626C123.658 668.626 123.773 661.237 117.73 655.674C117.73 655.674 124.265 656.544 126.724 668.191C126.724 668.191 127.128 657.383 122.733 653.385C122.733 653.385 129.181 656.515 129.587 668.191C129.587 668.191 129.181 662.483 133.982 658.659C133.982 658.659 131.235 663.207 132.044 668.191C132.044 668.191 133.259 663.352 137.568 660.658C137.568 660.658 134.908 662.802 134.503 668.336C134.503 668.336 136.238 664.222 140.026 664.483C140.026 664.483 138.291 663.613 136.556 669.321C136.556 669.321 137.076 669.814 138.146 669.669C138.783 669.582 138.927 670.133 137.857 670.451H133.635C131.004 670.103 130.657 670.219 130.223 670.451H116.689C116.602 670.162 117.644 669.698 121.518 669.032V669.061Z" fill="#202020"/>
<path fill-rule="evenodd" clip-rule="evenodd" d="M69.5225 672.393C67.4693 667.699 62.7555 659.354 54.7161 657.181C54.7161 657.181 69.0598 655.037 75.8268 672.393H69.5225ZM112.843 672.393H106.596C108.215 669.437 112.843 662.744 120.853 663.323C120.853 663.323 117.036 661.44 112.814 672.393H112.843ZM106.047 672.393C107.464 658.369 114.231 652.922 114.231 652.922C104.485 659.064 100.581 669.234 99.5695 672.393H106.047ZM99.1352 672.393H92.5997C92.5997 668.886 93.4387 656.399 104.514 647.532C104.514 647.532 97.4006 659.296 99.1064 672.393H99.1352ZM92.5997 672.393C91.1825 641.593 74.0917 633.278 74.0917 633.278C84.7048 642.897 84.9651 667.264 84.9073 672.393H92.5997ZM84.676 672.393C77.88 641.709 60.5287 639.449 60.5287 639.449C73.6579 651.531 76.0582 666.859 76.492 672.393H84.676Z" fill="#202020"/>
<path fill-rule="evenodd" clip-rule="evenodd" d="M-23.3936 674.565C-26.6325 667.176 -34.0068 654.109 -46.6154 650.69C-46.6154 650.69 -24.0876 647.33 -13.5034 674.565H-23.4226H-23.3936ZM44.5944 674.565H34.791C37.3358 669.929 44.5944 659.412 57.174 660.368C57.174 660.368 51.1589 657.412 44.5655 674.565H44.5944ZM33.9234 674.565C36.1501 652.545 46.7633 644.027 46.7633 644.027C31.4942 653.646 25.3635 669.611 23.7729 674.565H33.9234ZM23.1078 674.565H12.8705C12.8705 669.031 14.2007 649.444 31.581 635.566C31.581 635.566 20.4183 653.993 23.1078 674.565ZM12.8416 674.565C10.6149 626.237 -16.1928 613.199 -16.1928 613.199C0.464366 628.323 0.869231 666.539 0.782472 674.565H12.8416ZM0.406527 674.565C-10.2645 626.44 -37.477 622.875 -37.477 622.875C-16.858 641.854 -13.1274 665.902 -12.4334 674.565H0.406527Z" fill="#202020"/>
</g>
</g>
</g>
<defs>
<linearGradient id="paint0_linear_12_2787" x1="461.323" y1="0" x2="461.323" y2="616.42" gradientUnits="userSpaceOnUse">
<stop stop-color="#FD7900"/>
<stop offset="0.23" stop-color="#AB6033"/>
<stop offset="0.665" stop-color="#B3C8C7"/>
<stop offset="1" stop-color="#EBFFFA"/>
</linearGradient>
<clipPath id="clip0_12_2787">
<rect width="375" height="695" fill="white"/>
</clipPath>
</defs>
</svg>
