<svg width="40" height="47" viewBox="0 0 40 47" fill="none" xmlns="http://www.w3.org/2000/svg">
<path d="M29.6105 45.0873C29.6105 45.0873 39.6381 41.6771 35.2803 33.0645C30.9226 24.4519 36.5549 25.7956 36.5549 25.7956C36.5549 25.7956 36.001 22.9916 33.5464 23.7295C31.0919 24.466 30.3121 28.6434 30.3121 28.6434C30.3121 28.6434 29.7775 25.657 27.8515 24.5924C25.9255 23.5277 24.0957 21.5485 28.4233 20.7685C32.7508 19.9884 35.6391 18.3626 34.2464 13.8402C32.8551 9.31651 30.0871 14.6329 28.5563 13.0465C27.0257 11.4587 24.6324 9.99003 27.6358 7.27008C30.6394 4.54871 29.6517 2.63398 29.6517 2.63398C29.6517 2.63398 28.5597 4.94573 26.6097 5.72006C24.6598 6.49439 21.696 8.84973 22.8121 11.1431C23.9295 13.4365 26.6785 14.7466 25.5143 16.1325C24.3489 17.5184 23.0249 15.5771 21.5772 18.0474C20.1297 20.5163 19.864 21.4182 17.8083 19.9749C15.7527 18.5315 16.2476 15.4385 17.8022 15.1873C19.7245 14.8754 20.9548 12.6609 19.2161 11.4265C17.6843 10.3373 16.1103 10.2735 16.1103 10.2735L16.8333 11.2196C17.464 12.0447 17.2123 13.3252 16.3092 13.8659C15.2743 14.4851 14.4373 14.8726 14.6339 16.2394C14.9282 18.2874 13.5418 18.5512 13.5418 18.5512C13.5418 18.5512 10.8357 18.32 10.4854 20.163L10.1058 22.1605C10.1058 22.1605 15.1698 19.2259 14.0538 23.3766C14.0538 23.3766 9.92585 33.5633 7.71027 28.7941C5.49469 24.0249 7.781 23.2758 7.781 23.2758C7.781 23.2758 4.82544 22.3178 4.98538 25.6437C5.14532 28.9696 6.07406 31.4327 4.11086 30.7343C2.14651 30.0344 1.20331 32.5425 1.20331 32.5425C1.20331 32.5425 3.07933 32.7457 3.44647 33.8146C4.2262 36.0828 1.34892 40.8382 7.83925 43.7178C14.3283 46.5973 17.412 43.4083 17.412 43.4083L20.0306 41.8784L22.1894 41.2935C22.1894 41.2935 25.9692 41.2365 29.6105 45.0873Z" fill="#F24A27"/>
<path d="M19.4834 18.2057C19.4834 18.2057 21.1123 17.3533 20.6775 16.6136C20.6775 16.6136 20.0562 16.8328 19.5647 16.6188C19.0746 16.405 18.3405 16.8814 18.8214 17.1832C19.3023 17.4849 19.4833 18.2071 19.4833 18.2071L19.4834 18.2057Z" fill="#F24A27"/>
<path d="M28.139 41.719C28.139 41.719 25.6744 41.4746 25.1059 39.0136C24.2461 35.283 16.9301 37.5886 16.9301 37.5886C16.9301 37.5886 17.4234 38.4383 19.1932 39.0215C20.4442 39.4345 20.4756 40.224 20.4756 40.224C20.4756 40.224 16.5615 38.6405 14.7212 39.9771C12.8809 41.3138 12.65 43.5082 10.1386 43.1348C7.62824 42.7629 4.51879 41.6089 4.71607 38.1214C4.91335 34.634 7.7122 32.2639 6.89301 30.3602C6.89301 30.3602 8.63235 31.5956 8.60953 33.4377C8.58555 35.2783 12.7497 34.4849 13.0384 31.7416C13.3271 28.9982 14.6388 24.596 16.0777 23.861C18.5928 22.5748 20.8048 22.5565 21.4843 20.949C22.1639 19.3414 22.4478 18.2561 25.5606 17.7534C28.6735 17.2492 27.3143 14.0146 27.3143 14.0146C27.3143 14.0146 30.4725 13.7177 29.672 15.8495C29.0305 17.5569 28.9346 18.006 28.9346 18.006C28.9346 18.006 30.9254 16.8645 31.4161 15.4268C31.4161 15.4268 32.6117 16.9908 31.1274 18.1702C29.643 19.3496 25.8217 18.5101 24.7848 20.2749C23.7493 22.0397 23.7782 24.9908 26.0059 26.4481C28.2323 27.9054 29.3174 28.9078 29.2742 30.9309C29.2309 32.9554 31.5295 34.0387 31.2024 31.9964C30.8329 29.6943 31.8902 27.0727 31.8902 27.0727C31.8902 27.0727 31.6703 32.4008 32.9224 33.4157C34.1758 34.4308 34.4321 36.8456 32.5761 36.7067C30.7201 36.5677 29.7579 39.2606 31.2759 39.3743C32.7938 39.4879 33.4494 39.721 32.7699 41.3285C32.0903 42.9361 30.7756 44.1281 30.7756 44.1281C30.7756 44.1281 32.6929 42.06 28.139 41.719Z" fill="#FDAC3A"/>
<path d="M8.46332 39.6802C8.46332 39.6802 11.5737 42.4978 15.5513 37.0719C19.529 31.646 21.8283 35.6959 21.8283 35.6959C21.8283 35.6959 23.2959 34.6985 22.0981 33.1314C22.0981 33.1314 26.1158 33.8009 26.0145 36.3795C25.9134 38.9566 25.8555 39.5067 27.6957 39.8288L29.5358 40.1509C29.5358 40.1509 26.9667 38.6654 28.1356 37.2756C29.3032 35.8857 28.5935 34.5394 28.5935 34.5394C28.5935 34.5394 28.1212 35.7971 30.3553 35.5944C30.3553 35.5944 28.9309 34.5647 28.1873 31.9243C27.4437 29.2839 25.2953 31.8921 25.2953 31.8921C25.2953 31.8921 27.4631 29.0996 24.7059 27.7858C21.9487 26.472 21.5234 24.0384 22.1463 22.9777C22.1463 22.9777 19.5338 23.5208 19.4725 25.7322C19.4098 27.9436 20.9463 29.5361 19.7437 29.6303C18.5411 29.7246 16.8564 27.9367 17.3673 26.3133C17.3673 26.3133 14.997 27.7975 15.8176 29.7064C16.6382 31.6138 14.4669 36.0677 12.3086 35.5374C10.1505 35.0057 12.153 30.5407 12.153 30.5407C12.153 30.5407 9.63332 31.8294 9.75859 33.8705C9.88385 35.9116 8.45118 38.2047 7.79933 36.3085C7.79933 36.3085 6.23517 38.2231 8.46579 39.6818L8.46332 39.6802Z" fill="#FFE663"/>
</svg>
