<svg width="118" height="43" viewBox="0 0 118 43" fill="none" xmlns="http://www.w3.org/2000/svg">
<path d="M117.863 30.3935C118.471 35.4837 117.044 39.7622 113.824 39.9411C77.5925 41.7803 41.3609 42.7992 5.12925 42.9999C1.90249 43.0185 -0.236712 38.6309 0.491746 32.5121C1.15791 26.8427 2.16192 20.6082 1.62401 14.9388L10.8015 16.4268C6.25565 15.2966 1.65405 11.0454 0.0894083 9.88686C-0.359832 4.31674 2.10989 2.05531 5.12925 2.07276C41.3609 2.27349 76.9908 1.6364 113.222 3.47565C116.442 3.65456 118.471 9.58904 117.863 14.6792C117.653 16.4617 117.515 18.2453 117.449 20.0278H107.388L116.192 22.8336C116.17 22.4049 116.155 21.8038 116.18 21.1471L117.406 23.2198C117.43 25.611 117.582 28.0023 117.863 30.3935Z" fill="#202020"/>
<path d="M116.638 28.3208C117.246 33.411 115.818 37.6895 112.599 37.8684C76.3672 39.7076 40.1356 40.7265 3.90394 40.9272C0.677175 40.9458 -0.522509 35.9931 0.205949 29.8743C0.872114 24.2049 0.936605 18.5355 0.39869 12.8661L9.57623 14.3541C5.03033 13.2239 1.65405 11.0454 0.0894083 9.88686C-0.359832 4.31674 0.885306 -0.0174018 3.90394 5.25326e-05C40.1356 0.200778 76.3672 1.21968 112.599 3.05893C115.818 3.23783 117.246 7.51633 116.638 12.6065C116.428 14.389 116.29 16.1726 116.223 17.9551L112.636 19L116.18 21.1471C116.204 23.5383 116.357 25.9296 116.638 28.3208Z" fill="#804520"/>
<path d="M21.6068 0.163692C19.5225 1.24368 17.3797 2.21894 15.1547 2.82766C14.8095 2.90839 14.457 3.00766 14.0855 3.1113C13.2529 3.34475 12.3933 3.58584 11.5696 3.63274C8.45934 4.68982 4.7958 5.77418 1.19602 5.80908C0.821531 5.81236 0.452904 5.80472 0.0901412 5.78618C0.103333 5.65309 0.117257 5.52109 0.132647 5.39127C3.84236 5.57454 7.72796 4.55128 11.5256 3.25966L11.5483 3.25529C12.3567 3.21057 13.2126 2.97057 14.0393 2.7393C14.4138 2.63457 14.767 2.5353 15.1137 2.45458C17.0806 1.91567 18.9861 1.08768 20.8446 0.153874C21.0989 0.157146 21.3532 0.160419 21.6068 0.163692Z" fill="#603113"/>
<path d="M24.6129 0.204055C21.3876 1.58186 18.1536 3.15711 14.8901 4.78364L14.8733 4.79019C13.7447 5.10873 12.6418 5.37818 11.1203 5.73599C10.7561 5.8429 10.3868 5.95308 10.0152 6.06435C6.69243 7.05707 3.30957 8.06615 0.00366428 8.11851C0.00146571 7.98979 0 7.86324 0 7.73779C3.28612 7.68652 6.65652 6.68071 9.96756 5.69236C10.3384 5.58218 10.7092 5.47091 11.0771 5.36291C12.5985 5.00509 13.6971 4.73673 14.8198 4.42037C17.8084 2.93021 20.7728 1.48368 23.7284 0.192055C24.023 0.195328 24.3176 0.199691 24.6129 0.204055Z" fill="#603113"/>
<path d="M29.4776 0.278236C25.0263 1.82731 20.6394 3.9611 16.4423 6.1429C15.5358 6.51707 14.3735 6.88689 13.6069 7.04507C12.0093 7.40288 10.3479 7.90688 8.74076 8.39342C6.06364 9.20505 3.34402 10.0298 0.651508 10.2905C0.48002 10.1705 0.322456 10.057 0.178084 9.95122C3.00617 9.74613 5.8731 8.87669 8.69239 8.02251C10.3025 7.53379 11.9661 7.0298 13.5717 6.6698C14.3302 6.5138 15.4794 6.14726 16.3683 5.78072C20.2576 3.75929 24.3125 1.77713 28.434 0.261872C28.7821 0.266236 29.1295 0.271691 29.4776 0.278236Z" fill="#603113"/>
<path d="M71.6776 1.32986C71.5618 1.37568 71.446 1.42368 71.3302 1.47277C70.5813 1.85131 69.7304 1.98767 68.8759 1.86549C67.7788 1.85895 66.5572 1.63204 65.2461 1.1935C65.1706 1.16841 65.0951 1.14223 65.0189 1.11495C65.4996 1.13023 65.9797 1.1455 66.4597 1.16077C67.3201 1.37241 68.1313 1.48259 68.8825 1.48695H68.8942C69.5523 1.58295 70.2068 1.51859 70.8121 1.3015C71.1001 1.31132 71.3889 1.32113 71.6776 1.32986Z" fill="#603113"/>
<path d="M45.1006 0.581505C44.5033 0.657868 43.8812 0.736413 43.0589 0.736413H43.0406C35.7523 0.51496 27.8038 2.56803 18.0246 7.19452C17.1276 7.61997 16.1624 8.09997 15.3115 8.52433C15.0528 8.65196 14.8044 8.77632 14.5692 8.89305L14.5508 8.89959C13.154 9.25523 11.7169 9.68177 10.3267 10.0963C8.00791 10.7858 5.65984 11.4839 3.30957 11.9181C3.12856 11.821 2.95341 11.7239 2.78338 11.6279C5.29195 11.2079 7.80197 10.4607 10.2783 9.72431C11.6671 9.31086 13.1027 8.88432 14.4995 8.5276C14.7326 8.41305 14.9781 8.29087 15.2324 8.16433C16.0847 7.73997 17.0506 7.25998 17.9498 6.83344C26.0339 3.00875 32.8737 0.938228 39.1235 0.45387C41.1154 0.493143 43.108 0.535688 45.1006 0.581505Z" fill="#603113"/>
<path d="M81.119 1.66804C78.1861 2.24294 75.2034 2.86803 72.2353 3.64256C71.1075 3.99601 69.7026 4.1891 68.3534 4.34401C65.1882 4.668 61.8412 4.06256 58.4056 2.54185C57.3723 2.09458 56.3126 1.55786 55.2565 0.946956C55.1297 0.904411 55.0052 0.862957 54.8828 0.823684C55.1862 0.831321 55.4903 0.838957 55.7945 0.847684C56.6951 1.35059 57.5951 1.79676 58.4752 2.17858C61.8845 3.6862 65.2021 4.28728 68.3373 3.96656C69.6769 3.81165 71.0723 3.62074 72.1899 3.27057C74.6318 2.63348 77.0802 2.09785 79.503 1.60804C80.0424 1.62658 80.5811 1.64731 81.1205 1.66804H81.119Z" fill="#603113"/>
<path d="M4.06002 13.4595L5.07722 13.6243C3.56314 13.9679 2.04393 14.233 0.525457 14.3519C0.51593 14.2254 0.506403 14.0999 0.496143 13.9744C1.68483 13.8817 2.87279 13.6995 4.06002 13.4595Z" fill="#603113"/>
<path d="M87.7828 1.92876C82.3077 2.96839 76.8237 4.39746 71.5853 7.00471C70.9433 7.70724 69.5853 8.24178 68.5227 8.51014C65.814 9.15377 62.6342 8.30505 59.0696 5.98799C58.1931 5.57345 57.0381 5.05964 55.8626 4.74655C54.6409 4.32764 53.6311 4.02329 52.767 3.81274C50.5648 3.27493 48.5729 3.0862 46.6777 3.23566C45.3637 3.38075 43.9947 3.56511 42.4946 3.80074H42.4807C41.2649 3.79529 40.0212 3.83565 38.7834 3.92183C32.0302 4.39419 25.0622 6.19853 17.4815 9.4385C15.9924 10.0821 14.5758 10.7312 13.1511 11.4228L13.1342 11.4283C12.2416 11.6716 11.3263 11.9356 10.441 12.1908C9.08374 12.5814 7.71696 12.9752 6.34433 13.321C6.14426 13.2435 5.94639 13.1639 5.75438 13.0832C7.3095 12.7068 8.85802 12.2606 10.3948 11.8177C11.2779 11.5636 12.191 11.3007 13.0829 11.0574C14.5076 10.3669 15.9235 9.71777 17.4134 9.07414C25.0131 5.82545 31.9986 4.01674 38.7717 3.54329C40.0109 3.45711 41.2568 3.41566 42.4748 3.4222C43.9757 3.18766 45.3454 3.00221 46.6616 2.85712C48.5773 2.70657 50.586 2.89748 52.8066 3.43856C53.675 3.6502 54.69 3.95674 55.911 4.37455C57.0975 4.69091 58.2649 5.21127 59.1487 5.62909L59.1612 5.63563C62.6848 7.9276 65.8199 8.76869 68.4816 8.13597C69.5238 7.87306 70.8524 7.35379 71.4512 6.6818L71.4673 6.66326L71.4871 6.65453C76.2484 4.28183 81.2069 2.88221 86.1757 1.86331C86.7114 1.88404 87.2471 1.90585 87.7828 1.92876Z" fill="#603113"/>
<path d="M116.278 6.63926C113.701 4.74546 111.023 3.10584 108.111 3.07639H108.097C107.276 2.93457 106.443 2.81348 105.607 2.71421H105.6C105.031 2.64657 104.462 2.58876 103.892 2.54076C102.071 2.38803 100.236 2.33458 98.3968 2.3793C98.3916 2.37821 98.3865 2.3793 98.3814 2.3793C89.0411 2.60512 79.5375 5.34545 70.5967 10.429C69.833 11.0661 68.9814 11.5047 68.0661 11.7337C65.3333 12.4145 62.3513 11.1567 60.0589 9.98504C59.5298 9.75268 58.9868 9.50395 58.4115 9.23995C57.949 9.02832 57.4785 8.81232 57.0095 8.60396C55.8443 8.09233 54.9597 7.74761 54.1419 7.48579C52.7465 6.96543 51.5124 6.61198 50.3633 6.40362C49.0016 6.15708 47.7374 6.10472 46.4967 6.24544C45.4267 6.39162 44.3861 6.57707 43.138 6.80507H43.1249C42.0153 6.83125 40.6925 6.86616 39.2986 6.93707C32.4362 7.28725 25.6822 8.83196 19.2228 11.5287L19.0198 11.5974C17.8348 11.9999 16.4922 12.457 15.28 12.7668C10.1354 14.8646 5.23845 15.9741 0.636851 16.0897C0.630255 15.9632 0.622927 15.8366 0.615598 15.7101C3.47227 15.6402 6.44473 15.1853 9.52052 14.3454C9.52052 14.3454 9.52711 14.3443 9.53005 14.3432C11.39 13.8359 13.2874 13.1879 15.2214 12.3992L15.2331 12.3948C16.4401 12.0861 17.782 11.6301 18.9656 11.2276L19.1627 11.161C25.6353 8.45887 32.4083 6.9098 39.2913 6.55853C40.6837 6.48762 42.005 6.45271 43.1146 6.42762C44.3626 6.20071 45.4026 6.01526 46.4762 5.86799C47.7352 5.72508 49.0155 5.77745 50.394 6.02726C51.5527 6.23781 52.7978 6.59453 54.1976 7.11707C55.0176 7.37888 55.908 7.72579 57.0806 8.2396C57.5504 8.45014 58.0201 8.66505 58.4848 8.87778C59.0593 9.14068 59.6016 9.38941 60.1344 9.62286C62.4048 10.7836 65.3479 12.0272 68.0265 11.3596C68.9162 11.137 69.7429 10.7105 70.4838 10.0909L70.5006 10.0799C78.2982 5.64327 86.5231 2.98475 94.6981 2.21785C97.7834 1.92767 100.861 1.90694 103.906 2.16221C105.316 2.28003 106.734 2.46112 108.118 2.69785C108.751 2.70439 109.373 2.78621 109.984 2.92802C112.122 3.42438 114.135 4.66582 116.086 6.07963C116.155 6.25962 116.22 6.44617 116.278 6.63926Z" fill="#603113"/>
<path d="M116.773 10.1389C111.65 7.54252 106.065 5.47527 100.249 5.09236C98.7676 4.95491 97.2718 4.89273 95.801 4.90473C86.6689 4.98218 77.7523 7.98433 70.0162 13.585C68.8554 14.5221 67.4791 15.0206 65.9306 15.061C64.6723 15.0959 63.2872 14.8363 61.6954 14.2734C60.4774 13.9199 59.2653 13.4879 58.1967 13.1061C57.2492 12.7548 56.3089 12.3752 55.4339 12.0163C54.1543 11.5112 52.8044 11.0367 51.6348 10.6821C48.7957 9.82031 46.4667 9.71013 44.3047 10.3352L44.2916 10.3385C42.8962 10.5098 41.4847 10.6178 40.0974 10.6581C38.7842 10.7312 37.4848 10.825 36.2389 10.9363C30.678 11.4327 25.6448 12.3174 20.8505 13.6417C19.5716 13.9941 18.2899 14.3868 17.0381 14.8057C11.3768 16.9155 5.9178 17.9802 0.721129 17.9911C0.717465 17.8646 0.713068 17.7391 0.708671 17.6126C5.88922 17.6017 11.3321 16.5424 16.981 14.437C18.2386 14.0159 19.524 13.6232 20.8058 13.2686C25.6096 11.9421 30.6539 11.0552 36.2236 10.5578C37.4716 10.4465 38.7724 10.3527 40.0901 10.2796C41.473 10.2392 42.8764 10.1323 44.2644 9.96104C46.4571 9.32941 48.8155 9.44068 51.6839 10.3101C52.8579 10.6668 54.2129 11.1425 55.4984 11.6508C56.3734 12.0087 57.3115 12.3883 58.2554 12.7374C59.3209 13.1181 60.5302 13.5501 61.7474 13.9024C63.3238 14.461 64.6899 14.7141 65.9269 14.6824C67.4351 14.6432 68.7726 14.1599 69.9034 13.2468C73.8659 10.3789 78.1143 8.18397 82.5363 6.71998C86.8191 5.30291 91.2815 4.56437 95.8003 4.52619C97.277 4.51419 98.7786 4.57637 100.263 4.71382C106.071 5.09673 111.646 7.15089 116.763 9.73413C116.768 9.86722 116.771 10.0025 116.773 10.1389Z" fill="#603113"/>
<path d="M116.558 13.3134C116.544 13.4388 116.532 13.5632 116.52 13.6886C114.759 13.1246 113.008 12.5574 111.28 11.9977C107.247 10.693 103.077 9.34359 98.9787 8.08469C97.9131 7.84579 96.8036 7.64506 95.6882 7.49016C94.5618 7.33416 93.4559 7.22398 92.3991 7.16289C86.655 6.86289 80.9548 9.69049 75.4416 12.4243C74.0257 13.1268 72.5607 13.8534 71.128 14.509C69.7759 15.2453 68.4157 16.0417 67.0892 16.873C65.9855 17.5886 64.8804 17.533 63.71 17.473L63.4206 17.4588C62.5441 17.3486 61.6236 17.1359 60.517 16.7879C59.436 16.4901 58.3272 16.1115 57.1546 15.7101L56.5134 15.4919C55.3665 15.0784 54.0693 14.6104 52.8117 14.2657C50.9298 13.7246 49.2479 13.3908 47.6678 13.2446C46.2937 13.1552 45.2201 13.3199 44.1882 13.777L44.167 13.7835C43.451 13.9101 42.6177 14.0355 41.3763 14.1032C39.8651 14.2199 38.3386 14.3595 36.8436 14.5177C30.4025 15.2006 24.0736 16.2795 18.0341 17.726C16.8659 17.9988 15.667 18.2966 14.1456 18.6904C11.1379 19.5467 8.09365 19.8467 5.05157 19.8467C3.61737 19.8467 2.18391 19.7802 0.754841 19.6744C0.754841 19.5467 0.752642 19.4202 0.749711 19.2937C5.2018 19.6242 9.69494 19.5729 14.1016 18.3173C15.6259 17.9224 16.8264 17.6246 17.9953 17.3519C24.0413 15.9042 30.3768 14.8232 36.826 14.1403C38.3232 13.981 39.8512 13.8414 41.366 13.7246C42.5943 13.6581 43.4195 13.5337 44.1274 13.4094C45.1834 12.9425 46.2798 12.7756 47.6803 12.8672C49.2735 13.0134 50.9657 13.3494 52.8579 13.8937C54.1206 14.2395 55.4214 14.7086 56.5691 15.1232L57.2096 15.3413C58.38 15.7406 59.4858 16.1181 60.5646 16.4159C61.6646 16.7617 62.5756 16.9722 63.4352 17.0813L63.7188 17.0944C64.8606 17.1522 65.9394 17.2068 66.9925 16.5239C68.3226 15.6893 69.6879 14.8908 71.0488 14.149C72.4852 13.4912 73.948 12.7657 75.3624 12.0643C80.8962 9.31959 86.6183 6.48108 92.4072 6.78435C93.4676 6.84544 94.5793 6.95562 95.7101 7.11271C96.8299 7.2687 97.9439 7.47052 99.0212 7.71161C103.127 8.97268 107.299 10.3221 111.332 11.6279C113.055 12.1854 114.802 12.7505 116.558 13.3134Z" fill="#603113"/>
<path d="M116.238 17.5864C116.232 17.7086 116.228 17.8319 116.223 17.9551L114.14 17.9551C113.733 17.9431 113.327 17.9257 112.921 17.8973C112.736 17.8973 112.546 17.8995 112.355 17.9028C111.22 17.918 110.047 17.9333 108.884 17.3835C107.228 16.5621 105.612 15.5824 104.051 14.6366C100.946 12.7537 98.0135 10.9756 94.7508 10.3036C93.6003 10.0025 92.5845 9.80176 91.6421 9.68831C87.6282 9.20286 83.7653 11.2756 80.03 13.2817C77.9589 14.3934 75.8168 15.5442 73.6483 16.2675C72.7454 16.5762 71.7663 16.969 70.8194 17.3486C70.3138 17.5515 69.836 17.7435 69.3706 17.9224C68.0771 18.4809 66.7455 19.1049 65.4161 19.7747L65.3978 19.7846H65.3773C65.0519 19.79 64.6964 19.8129 64.3198 19.8369C63.4623 19.8915 62.4898 19.9537 61.6141 19.8162C60.2517 19.6013 58.9252 19.1889 57.9212 18.854C56.9348 18.5246 55.9784 18.1515 55.0836 17.7969C53.8179 17.3246 52.5516 16.9657 51.4222 16.7595C49.3629 16.3995 47.1622 16.1126 44.916 16.8828C44.5935 16.9711 44.2916 17.0617 43.9713 17.1577C43.3733 17.3355 42.6939 17.5384 41.7669 17.7642C41.4708 17.8362 41.174 17.9093 40.8779 17.9824C39.7801 18.2508 38.6456 18.53 37.5236 18.7788C32.8883 19.6984 28.2889 20.0715 23.8412 20.4315C22.6782 20.5264 21.4749 20.6235 20.2898 20.7293C19.0139 20.8438 17.8927 20.9551 16.8608 21.0718C14.3478 21.8605 11.8136 22.1398 9.28747 22.1398C6.42128 22.1398 3.56314 21.7809 0.750444 21.4013C0.751909 21.2747 0.753375 21.1493 0.754108 21.0227C6.03653 21.7351 11.4809 22.3776 16.8183 20.6976L16.8344 20.6944C17.8699 20.5776 18.9949 20.4664 20.2752 20.3518C21.4617 20.246 22.665 20.1478 23.8288 20.054C28.2713 19.6929 32.8656 19.3209 37.4899 18.4035C38.6075 18.1548 39.7413 17.8766 40.8383 17.6082C41.1352 17.5351 41.4312 17.462 41.728 17.39C42.6514 17.1653 43.3271 16.9635 43.9237 16.7857C44.2454 16.6897 44.5481 16.5991 44.8669 16.5119C47.1453 15.7297 49.3702 16.0188 51.4523 16.3831C52.5919 16.5915 53.8685 16.9537 55.1459 17.4304C56.0392 17.7839 56.9927 18.1559 57.9754 18.4842C58.9728 18.8169 60.2905 19.226 61.6397 19.4387C62.4971 19.574 63.4594 19.5129 64.308 19.4584C64.6789 19.4344 65.0292 19.4115 65.3538 19.406C66.6803 18.7373 68.0089 18.1155 69.3039 17.5559C69.7707 17.3759 70.2478 17.185 70.7535 16.982C71.7025 16.6024 72.6838 16.2086 73.5918 15.8977C75.7457 15.1788 77.8798 14.0334 79.9435 12.925C83.7038 10.9058 87.593 8.81778 91.6604 9.31086C92.6102 9.42541 93.6332 9.62722 94.7875 9.92831C98.0765 10.6068 101.023 12.3926 104.142 14.2843C105.7 15.229 107.311 16.2053 108.959 17.0224C110.083 17.5548 111.236 17.5384 112.351 17.5231C112.542 17.521 112.734 17.5188 112.925 17.5188C114.026 17.594 115.137 17.6017 116.237 17.5864H116.238Z" fill="#603113"/>
<path d="M116.201 22.2489C114.517 22.8358 112.784 23.4249 111.026 23.8307C109.209 24.1743 107.41 23.6474 105.364 22.1725C104.82 21.7689 104.278 21.3631 103.739 20.9595C100.504 18.5333 97.4485 16.2424 94.018 14.7523C92.7054 14.1784 91.5138 13.7192 90.3749 13.3472C89.6179 13.117 88.9385 13.4279 88.1522 13.7868L88.0093 13.8512C85.9448 14.5515 83.9471 15.4712 82.0145 16.3602C79.3352 17.593 76.8047 18.7569 74.0814 19.4082C72.8898 19.6024 71.6974 19.8697 70.6729 20.1064C69.5758 20.3595 68.4831 20.6616 67.4234 21.0042L67.4021 21.0086C66.2838 21.0642 65.0827 21.2671 63.9211 21.4645L63.4389 21.5453C62.2971 21.6685 61.0688 21.8049 59.5657 21.9751H59.5525C58.6196 21.9315 57.757 21.8104 56.7274 21.6565C55.2771 21.4209 53.8685 21.0751 52.6813 20.7686C51.3915 20.3475 50.1207 19.8467 48.8998 19.2773C48.3274 19.0406 47.6957 19.2838 47.0845 19.5184C46.7686 19.6406 46.4432 19.7649 46.1288 19.8217C45.717 20.0017 45.2164 20.2275 44.6866 20.4664C44.293 20.6431 43.8914 20.8242 43.5162 20.9911C42.787 21.3151 41.8262 21.6991 40.8603 21.8016C39.4862 22.1082 38.0616 22.3907 36.6259 22.6427C30.4978 23.7162 24.5543 24.1754 19.0447 24.5103C18.6468 24.5332 18.2305 24.5507 17.8142 24.5692C16.9854 24.6052 16.1279 24.6423 15.4794 24.7132C14.5047 24.9172 13.475 25.0187 12.4021 25.0187C11.5857 25.0187 10.7437 24.9598 9.88108 24.8409C7.47659 24.6423 5.05523 24.0783 2.71376 23.534C2.05126 23.3791 1.38436 23.2242 0.713801 23.0769C0.718198 22.9493 0.722595 22.8227 0.725526 22.6951C1.40488 22.8456 2.08058 23.0027 2.75187 23.1587C5.08748 23.702 7.50224 24.2649 9.89941 24.4634C11.8796 24.7361 13.7469 24.6925 15.453 24.3358C16.1155 24.2638 16.9751 24.2267 17.8069 24.1907C18.2217 24.1722 18.638 24.1547 19.0344 24.1318C24.5396 23.7969 30.478 23.3387 36.5973 22.2664C38.0322 22.0144 39.4554 21.7318 40.8288 21.4264H40.8383C41.7823 21.3249 42.7276 20.9464 43.4458 20.6278C43.8211 20.4609 44.2227 20.2798 44.6155 20.1031C45.1497 19.862 45.6539 19.634 46.0695 19.454L46.09 19.4475C46.3905 19.3951 46.6975 19.2762 47.0222 19.1518C47.6649 18.9042 48.3303 18.6489 48.9694 18.9129C50.1874 19.4813 51.4508 19.9798 52.7282 20.3966C53.9059 20.7009 55.31 21.0456 56.7523 21.2802C57.7732 21.4318 58.6299 21.5518 59.5518 21.5955C61.0512 21.4253 62.2788 21.2889 63.4139 21.1678L63.8918 21.0871C65.0541 20.8896 66.2552 20.6867 67.3809 20.63C68.4413 20.2864 69.5355 19.9842 70.634 19.7311C71.6608 19.4933 72.8568 19.2249 74.0477 19.0318C76.7475 18.386 79.27 17.2253 81.9405 15.997C83.8753 15.1057 85.876 14.1861 87.9485 13.4825L88.0774 13.4235C88.8623 13.0646 89.604 12.7265 90.424 12.9752C91.571 13.3494 92.7677 13.8108 94.0854 14.3868C97.5371 15.8868 100.603 18.1853 103.848 20.6191C104.388 21.0227 104.928 21.4275 105.472 21.83C107.472 23.2722 109.226 23.7882 110.992 23.4543C112.753 23.0474 114.497 22.4529 116.19 21.8627C116.193 21.9915 116.196 22.1191 116.2 22.2478L116.201 22.2489Z" fill="#603113"/>
<path d="M116.38 25.6841C115.836 25.9961 115.294 26.3103 114.756 26.6223C113.68 27.2463 112.567 27.8921 111.468 28.4943C110.321 29.103 109.215 29.3615 108.135 29.3615C105.165 29.3615 102.389 27.4034 99.4939 25.3623C97.5489 23.99 95.5372 22.5718 93.4588 21.8071C92.0261 21.2965 90.6703 21.4471 89.4178 21.686C88.918 21.7962 88.394 21.9053 87.8862 22.0089C87.4538 22.0984 87.0207 22.1878 86.5934 22.2805L86.496 22.3013C81.7397 23.3322 77.2473 24.3063 72.5497 23.5405C71.1199 23.3638 69.8147 23.2929 68.5622 23.3256C67.1515 23.3605 65.8375 23.5242 64.5477 23.8252L64.5367 23.8274C63.7144 23.9147 62.8614 23.9605 62.0354 24.0052L61.5334 24.0325C60.4444 24.0925 59.4653 24.1012 58.5383 24.0587C57.3935 24.0238 56.3793 23.9496 55.4361 23.8318C55.2653 23.7991 55.0938 23.7663 54.9172 23.7325C54.1037 23.5776 53.1804 23.4009 52.3368 23.1663C52.0159 23.078 51.6963 22.9853 51.3746 22.8925C50.6828 22.694 49.9668 22.4878 49.253 22.3144C48.1559 21.9598 47.0808 22.3907 46.0409 22.8074L45.9082 22.8609C45.4627 23.0518 44.9694 23.2918 44.4462 23.5449C43.4041 24.05 42.2227 24.6227 41.2084 24.8998C39.8314 25.4038 38.3356 25.9307 36.7813 26.355C32.3145 27.495 27.9064 27.495 23.6434 27.495C21.99 27.495 20.2803 27.495 18.594 27.5616L18.5163 27.5648C17.288 27.6052 16.0187 27.6477 14.9598 27.8234L14.948 27.8256C14.7289 27.8321 14.5098 27.8397 14.2914 27.8474C12.8543 27.8997 11.497 27.9499 10.043 27.6194C8.43956 27.2038 6.8478 26.7118 5.30734 26.235C3.7273 25.7463 2.17731 25.2663 0.637584 24.8725C0.644912 24.746 0.651508 24.6194 0.658104 24.4929C2.20809 24.89 3.76834 25.3721 5.35864 25.8641C6.89617 26.3398 8.48646 26.8318 10.0834 27.2452C11.5139 27.5703 12.8601 27.5212 14.2863 27.4688C14.5032 27.4612 14.7201 27.4525 14.9385 27.4459C16.0063 27.2692 17.28 27.2267 18.5112 27.1863L18.5889 27.183C20.2774 27.1165 21.9886 27.1165 23.6434 27.1165C27.8961 27.1165 32.2932 27.1165 36.738 25.9819C38.2851 25.5598 39.7764 25.034 41.1564 24.5289C42.1626 24.2551 43.3352 23.6856 44.37 23.1838C44.8954 22.9296 45.3908 22.6896 45.8423 22.4954L45.9771 22.442C46.9958 22.0329 48.1508 21.5704 49.2992 21.9424C50.0108 22.1147 50.7275 22.3209 51.4215 22.5205C51.7425 22.6133 52.062 22.7049 52.3823 22.7943C53.2192 23.0267 54.1382 23.2023 54.9495 23.3562C55.1261 23.39 55.2976 23.4227 55.4625 23.4554C56.3954 23.5711 57.4053 23.6452 58.5456 23.6802C59.4675 23.7227 60.4415 23.714 61.5254 23.654L62.0274 23.6267C62.8489 23.582 63.6983 23.5362 64.5154 23.45C65.8155 23.1467 67.1376 22.982 68.5593 22.946C69.8206 22.9143 71.1338 22.9853 72.5746 23.1631C77.2436 23.9245 81.7214 22.9536 86.4622 21.926L86.5597 21.9053C86.9877 21.8125 87.4216 21.7231 87.8539 21.6336C88.3603 21.53 88.8843 21.422 89.3856 21.3107C90.6637 21.0664 92.0466 20.9136 93.5189 21.4384C95.6222 22.2129 97.6449 23.6398 99.6016 25.0187C103.501 27.7688 107.184 30.3674 111.386 28.1376C112.482 27.5365 113.593 26.8918 114.668 26.2689C115.226 25.9449 115.788 25.6187 116.353 25.2969C116.362 25.4256 116.372 25.5554 116.382 25.6841H116.38Z" fill="#603113"/>
<path d="M116.679 28.6939C114.411 30.2757 112.067 31.9012 109.631 33.1677C108.745 33.58 107.838 34.0022 106.884 34.0022C106.67 34.0022 106.454 33.9815 106.235 33.9335C104.499 33.6924 102.737 33.3586 101.032 33.0357C96.5492 32.187 91.9132 31.3099 87.3277 32.0397C86.4849 32.1892 85.5557 32.2077 84.5671 32.0942C82.7723 31.8881 80.9768 31.2706 79.2407 30.6728C78.3363 30.3619 77.4005 30.0401 76.4866 29.7848C75.3404 29.3768 74.2888 29.0256 73.262 28.7103C69.7099 27.6194 66.5227 26.9845 63.518 26.7685C62.8387 26.727 62.1674 26.7019 61.5188 26.6779C61.0021 26.6583 60.4679 26.6387 59.9461 26.6114C58.7185 26.6103 57.4434 26.6114 56.1887 26.4838C55.0521 26.2939 54.1338 26.0812 53.3753 25.8336L53.1767 25.7681C52.342 25.4943 51.4787 25.2107 50.597 25.095C49.3307 24.8332 48.1706 25.2336 46.9423 25.6558C46.4264 25.8336 45.8929 26.0169 45.3571 26.1445C44.7665 26.3398 44.1875 26.5787 43.5169 26.8558C43.0362 27.0554 42.5386 27.2616 41.9662 27.4798C40.6119 27.9957 39.2114 28.5303 37.7867 29.0059C32.4325 30.7514 27.2014 31.2881 21.7951 30.6477C21.5584 30.6434 21.3173 30.6346 21.0762 30.627C20.3257 30.5997 19.5496 30.5724 18.6629 30.6772C17.4507 30.8223 16.2562 30.9041 15.1115 30.9204C11.5388 31.0841 8.23802 29.6255 4.74304 28.083C3.37773 27.4808 1.97358 26.8612 0.543778 26.3419C0.553306 26.2154 0.562833 26.0889 0.570161 25.9623C2.01828 26.4859 3.43562 27.1121 4.81266 27.7197C8.28786 29.2535 11.5696 30.7023 15.1056 30.5419C16.2474 30.5255 17.4361 30.4437 18.6424 30.2997C19.5423 30.1928 20.325 30.2212 21.082 30.2474C21.3217 30.2561 21.5628 30.2648 21.8061 30.2692C27.1962 30.9084 32.4032 30.3739 37.7325 28.6361C39.1528 28.1616 40.5518 27.6281 41.9047 27.1121C42.4748 26.895 42.971 26.6888 43.451 26.4903C44.1237 26.2121 44.7056 25.9721 45.3102 25.7725C45.8459 25.6449 46.3743 25.4627 46.8866 25.287C48.0819 24.8747 49.319 24.4492 50.6242 24.7187C51.5161 24.8354 52.3874 25.1212 53.2302 25.3983L53.4281 25.4627C54.1785 25.7081 55.0887 25.9187 56.2115 26.1063C57.4522 26.2318 58.7229 26.2318 59.9512 26.2318C60.4759 26.2601 61.0102 26.2798 61.5261 26.2994C62.1754 26.3234 62.8482 26.3485 63.5297 26.3899C66.5476 26.607 69.748 27.2441 73.3126 28.3394C74.3408 28.6557 75.3961 29.007 76.5386 29.4139C77.4525 29.6692 78.3898 29.9921 79.2971 30.3041C81.0245 30.8986 82.8112 31.5128 84.5869 31.7168C85.5601 31.8281 86.4725 31.8106 87.3014 31.6633C91.9169 30.9281 96.5668 31.8084 101.064 32.6593C102.766 32.9822 104.526 33.315 106.265 33.5571C107.411 33.8059 108.5 33.2975 109.553 32.8077C111.998 31.5368 114.355 29.8983 116.637 28.3056C116.637 28.311 116.636 28.3154 116.638 28.3208C116.653 28.4452 116.666 28.5706 116.679 28.6939Z" fill="#603113"/>
<path d="M116.772 30.8288C116.77 30.9739 116.766 31.1179 116.759 31.2597C115.389 32.2699 113.977 33.3062 112.562 34.2968C107.442 37.8553 101.855 37.8662 96.4518 37.8771C93.1972 37.8836 89.8326 37.8902 86.6161 38.6756L86.6051 38.6778H86.5949C85.5938 38.6636 84.7136 38.5622 83.906 38.3691C82.9673 38.1433 82.1032 37.8051 81.2641 37.3338C74.3613 33.3837 67.5773 29.763 60.4693 28.8532L59.6559 28.7506C58.569 28.6143 57.4456 28.4725 56.3492 28.3121C54.9722 28.0961 53.601 27.9619 52.276 27.9096C50.8843 27.855 49.4934 27.891 48.1413 28.0154C47.234 28.1648 46.3377 28.4005 45.3242 28.7561C44.4308 29.0692 43.5931 29.4085 42.6236 29.8012C42.3033 29.9299 41.9728 30.0641 41.6254 30.2026C40.8002 30.5332 39.9582 30.8801 39.144 31.2161C38.5833 31.4473 38.0205 31.6797 37.457 31.9088C32.2896 33.9946 27.0893 33.9324 22.0597 33.8735C20.9787 33.8604 19.8604 33.8473 18.7582 33.856C17.557 33.9095 16.3625 33.892 15.2104 33.8037C11.8759 33.5495 8.80086 32.0528 5.54625 30.4688C4.04756 29.739 2.49757 28.9841 0.935123 28.3732C0.752642 28.2957 0.570161 28.2227 0.388413 28.1561C0.400872 28.0307 0.411865 27.9052 0.42359 27.7797C0.616331 27.8496 0.808339 27.9259 1.00108 28.0077C2.56792 28.6208 4.12084 29.3768 5.62246 30.1077C8.86095 31.6841 11.9214 33.1742 15.2236 33.4251C16.369 33.5124 17.557 33.5299 18.7545 33.4764C19.8604 33.4677 20.9802 33.4819 22.0626 33.495C27.0753 33.5539 32.2588 33.615 37.3925 31.5423C37.956 31.3132 38.5181 31.0819 39.0788 30.8506C39.893 30.5146 40.7357 30.1666 41.5624 29.8372C41.909 29.6975 42.2396 29.5645 42.5591 29.4346C43.5316 29.0408 44.37 28.7016 45.2677 28.3863C46.2901 28.0274 47.1966 27.7896 48.1193 27.6379C49.4846 27.5125 50.8836 27.4765 52.2819 27.531C53.6135 27.5834 54.9912 27.7187 56.3741 27.9347C57.4676 28.0961 58.5903 28.2368 59.6764 28.3732L60.4899 28.4757C67.6301 29.3888 74.4324 33.0193 81.352 36.9782C82.1743 37.4407 83.0229 37.7735 83.9449 37.9949C84.7378 38.1847 85.6026 38.284 86.5861 38.2982C89.8187 37.5105 93.1906 37.504 96.451 37.4985C101.827 37.4876 107.387 37.4767 112.457 33.9531C113.911 32.9342 115.365 31.8662 116.772 30.8288Z" fill="#603113"/>
<path d="M76.6017 39.4251C76.3913 39.4338 76.181 39.4403 75.9707 39.448C75.0026 38.8556 74.0447 38.2425 73.103 37.6404C68.5923 34.7549 63.9291 31.7724 58.9135 31.4572H58.9032C57.7167 31.2292 56.5163 31.0699 55.4984 30.9433C53.28 30.6673 50.9935 30.6063 48.7026 30.759C47.7968 30.8113 47.0148 30.8572 46.1508 31.0972C45.3425 31.3437 44.5319 31.6295 43.7492 31.9055L43.5331 31.9808C42.565 32.3124 41.4943 32.7095 40.0608 33.267C39.3983 33.5244 38.7358 33.7873 38.0704 34.0502C37.5339 34.2629 36.996 34.4757 36.4559 34.6873C31.9781 36.4709 27.6667 36.4687 23.0996 36.4677H22.218L22.1373 36.472C21.3202 36.5124 20.4745 36.5549 19.631 36.5647C18.3023 36.5822 16.9788 36.5113 15.6992 36.3564C14.2386 36.1797 12.9481 35.9015 11.6407 35.4815C9.44064 34.6939 7.28385 33.5026 5.19741 32.3495C4.16115 31.7768 3.08898 31.1844 2.01315 30.6423C1.41368 30.3466 0.807606 30.1164 0.199337 29.9419C0.202268 29.919 0.204467 29.8972 0.207398 29.8743C0.219856 29.7728 0.230849 29.6703 0.241842 29.5688C0.861837 29.7455 1.47963 29.9801 2.09157 30.2823C3.17033 30.8266 4.24396 31.4201 5.28315 31.9939C7.36226 33.1426 9.51172 34.3306 11.6949 35.1117C12.9899 35.5273 14.2694 35.8033 15.7183 35.9789C16.992 36.1327 18.3067 36.2026 19.6295 36.1862C20.4701 36.1753 21.3129 36.1338 22.1286 36.0935L22.2136 36.0891C22.5118 36.0891 22.8057 36.0891 23.0996 36.0891C27.6492 36.0913 31.9459 36.0935 36.3928 34.3219C36.933 34.1102 37.4701 33.8975 38.0066 33.6848C38.6728 33.4219 39.3353 33.159 39.9978 32.9015C41.4342 32.343 42.5071 31.9459 43.4774 31.6132L43.6921 31.5379C44.477 31.2608 45.2882 30.975 46.1024 30.7263C46.987 30.4808 47.7763 30.435 48.6909 30.3815C50.9921 30.2277 53.2895 30.2899 55.5174 30.567C56.5368 30.6935 57.7394 30.8528 58.9281 31.0797C63.9863 31.3993 68.6693 34.3949 73.199 37.2924C74.3152 38.0069 75.4525 38.7334 76.6017 39.4251Z" fill="#603113"/>
<path d="M116.473 33.544C116.435 33.7164 116.393 33.8833 116.348 34.047C114.255 35.5066 112.113 36.8626 109.903 38.0036C109.609 38.0178 109.315 38.0331 109.02 38.0473C111.586 36.7949 114.062 35.2349 116.473 33.544Z" fill="#603113"/>
<path d="M70.1584 39.6465C69.9364 39.6552 69.7143 39.6618 69.493 39.6683C67.4395 38.4662 65.3795 37.096 63.3165 35.5578C61.9695 34.5989 60.4041 34.0633 58.7904 34.0109L58.772 34.0077C57.705 33.736 56.5808 33.5353 55.4288 33.4142C53.4537 33.2048 51.3211 33.2091 48.7187 33.4284H48.7019L48.6858 33.424C47.9441 33.1851 46.6176 33.5746 45.4473 33.9171C45.2501 33.975 45.0567 34.0317 44.8712 34.084C43.5287 34.4615 42.1985 34.9284 41.056 35.3375C40.6397 35.4837 40.2227 35.6309 39.805 35.7782C39.1315 36.016 38.4346 36.2626 37.7435 36.5004C36.4295 36.9531 35.3551 37.3011 34.3621 37.5945C31.5956 38.5109 28.9514 38.6091 26.4802 38.632C25.8471 38.656 25.2014 38.668 24.5785 38.6789C24.0347 38.6887 23.4726 38.6985 22.9083 38.7171C20.8622 38.8283 18.7963 38.7727 16.7677 38.5513C15.7227 38.4378 14.6923 38.2807 13.7051 38.0844C10.8133 37.7778 8.06287 36.0837 5.40407 34.4451C4.91892 34.1462 4.41838 33.8375 3.9259 33.543C2.7079 32.8568 1.41588 32.3812 0.0241842 32.1172C0.0293142 31.9917 0.0359099 31.8641 0.0432384 31.7375C1.45911 32.0059 2.77532 32.4902 4.01605 33.1895C4.51146 33.4862 5.01273 33.795 5.49861 34.0939C8.13982 35.7215 10.8712 37.4036 13.7308 37.7069C14.7209 37.9044 15.7469 38.0604 16.786 38.1738C18.8051 38.3942 20.8629 38.4487 22.9017 38.3385C23.4689 38.32 24.0318 38.3102 24.5756 38.3004C25.1992 38.2894 25.8434 38.2775 26.4766 38.2535C28.9368 38.2305 31.567 38.1324 34.3123 37.2236C35.3053 36.9302 36.3767 36.5833 37.6878 36.1317C38.3789 35.8938 39.0758 35.6473 39.7493 35.4095C40.1663 35.2611 40.584 35.1138 40.9996 34.9688C42.1443 34.5586 43.4781 34.0906 44.8258 33.712C45.0112 33.6597 45.2032 33.603 45.4004 33.5451C46.5861 33.1982 47.9294 32.8055 48.7217 33.0477C51.327 32.8295 53.4647 32.8262 55.4471 33.0357C56.6028 33.1579 57.7321 33.3586 58.805 33.6324C60.4503 33.687 62.0472 34.2346 63.4242 35.2164C65.6748 36.8931 67.921 38.3713 70.1584 39.6465Z" fill="#603113"/>
<path d="M115.123 36.5549C114.583 37.2018 113.914 37.6371 113.12 37.8007C113.787 37.4015 114.454 36.9858 115.123 36.5549Z" fill="#603113"/>
<path d="M15.4068 40.2454C16.4563 40.4974 17.5284 40.6829 18.6211 40.8007C17.8501 40.8094 17.0799 40.8181 16.3082 40.8258H16.306C15.9909 40.7636 15.6787 40.6938 15.368 40.6196C14.2438 40.348 13.1218 39.9956 12.0335 39.5713L12.0247 39.5669L11.2816 39.1873C7.72063 37.3633 3.89952 35.4051 0.045437 34.5924C0.0366428 34.4648 0.0293142 34.336 0.0234514 34.2051C3.91711 35.0146 7.77046 36.988 11.3615 38.8284L12.0994 39.2058C13.1782 39.6269 14.2914 39.9771 15.4068 40.2454Z" fill="#603113"/>
<path d="M66.3051 39.7709C66.0911 39.7785 65.8771 39.7851 65.6631 39.7916C65.2109 39.5178 64.7653 39.2451 64.3249 38.9734C62.1366 37.648 59.916 37.0295 58.0319 36.5997C56.7941 36.304 55.5409 36.1077 54.309 36.0149C53.047 35.9211 51.7703 35.9331 50.5128 36.052H50.5003L50.4878 36.0509C49.7814 35.9069 48.9481 35.8807 47.939 35.9691C47.0185 36.0509 46.0511 36.232 45.2736 36.3771C43.7654 36.6596 42.1384 37.0982 40.1531 37.7571C39.7398 37.8869 39.3265 38.0167 38.9131 38.1476C38.1825 38.3778 37.4254 38.6156 36.675 38.8458C35.3009 39.2669 34.1679 39.592 33.1089 39.868L32.8238 39.94C31.6667 40.2334 30.5615 40.5127 29.4161 40.6502C28.0449 40.6731 26.6723 40.6938 25.3011 40.7134C25.3275 40.7101 25.3553 40.7069 25.3817 40.7036C25.9445 40.6294 26.5044 40.5727 27.046 40.5181C27.5707 40.4647 28.1131 40.4101 28.6488 40.3403C30.0602 40.2563 31.383 39.9214 32.7835 39.5669L33.0686 39.4949C34.1239 39.2189 35.2555 38.8949 36.6266 38.4749C37.3778 38.2447 38.1326 38.0069 38.8633 37.7767C39.2774 37.6458 39.6907 37.516 40.1026 37.3873C42.0937 36.7262 43.728 36.2855 45.2443 36.0018C46.0255 35.8557 46.9973 35.6735 47.9258 35.5917C48.9445 35.5011 49.7902 35.5284 50.5106 35.6724C51.7725 35.5546 53.055 35.5415 54.3221 35.6364C55.5636 35.7291 56.8248 35.9277 58.0714 36.2255C59.9688 36.6586 62.2077 37.2815 64.4202 38.6222C65.0379 39.0029 65.6667 39.3869 66.3065 39.7709H66.3051Z" fill="#603113"/>
<path d="M11.3732 40.8738C11.0141 40.8771 10.655 40.8803 10.2959 40.8836C10.205 40.852 10.1134 40.8192 10.0203 40.7854C9.73891 40.6851 9.44943 40.5814 9.1475 40.4745L9.12844 40.4647C6.25492 38.6734 3.31324 37.5585 0.415529 37.1331C0.384016 37.0055 0.353969 36.8735 0.327586 36.7404C3.28246 37.1571 6.28423 38.284 9.21419 40.1091C9.51246 40.2138 9.79974 40.3174 10.0775 40.4167C10.5311 40.5792 10.9584 40.732 11.3732 40.8738Z" fill="#603113"/>
<path d="M61.4638 39.9192C61.178 39.928 60.8907 39.9367 60.6049 39.9443H60.6034C60.111 39.7578 59.6471 39.6323 59.1876 39.5614L59.1766 39.5593C58.3646 39.3193 56.7779 38.9004 55.2719 38.7825C53.9894 38.6811 52.7113 38.7411 51.4757 38.9582L51.4567 38.9614L51.4384 38.9571C50.5032 38.7083 49.4692 38.6516 48.4703 38.596L48.279 38.5862C45.9932 38.4574 43.961 38.776 42.0651 39.5593L42.0549 39.5625C41.0604 39.8407 40.0505 40.1396 39.0744 40.4276L38.9534 40.4636C38.9366 40.468 38.9205 40.4734 38.9036 40.4789H38.9014C38.4346 40.4887 37.967 40.4974 37.4995 40.5061C37.97 40.3687 38.4382 40.2302 38.9058 40.0916L39.0267 40.0556C40.0014 39.7676 41.0098 39.4698 42.0043 39.1916C43.9229 38.3996 45.9779 38.0778 48.2871 38.2076L48.4791 38.2174C49.4802 38.2731 50.5164 38.3298 51.464 38.5796C52.7077 38.3614 53.9938 38.3025 55.2844 38.404C56.8029 38.5229 58.3983 38.944 59.2176 39.1851C59.9307 39.2963 60.6511 39.5309 61.4638 39.9192Z" fill="#603113"/>
<path d="M6.77305 40.9098C6.44766 40.912 6.12227 40.9141 5.79762 40.9152H5.79615C4.45576 40.4178 3.08239 40.0731 1.68996 39.8811C1.57344 39.7469 1.46278 39.6007 1.35871 39.4425C3.20697 39.664 5.01713 40.1549 6.77305 40.9098Z" fill="#603113"/>
</svg>
