<svg width="411" height="460" viewBox="0 0 411 460" fill="none" xmlns="http://www.w3.org/2000/svg">
<path d="M407.585 390.625C407.485 390.625 407.385 390.625 407.285 390.629C406.287 390.309 403.427 391.426 403.242 392.281C403.175 392.587 403.408 393.064 403.675 393.291C404.07 393.628 404.592 393.899 405.106 394.043C407.23 394.631 407.363 395.939 407.093 397.743C406.768 399.928 406.668 402.178 406.812 404.379C407.045 407.907 407.607 411.414 407.937 414.935C408.321 419.044 408.281 419.051 403.948 420.315C403.545 420.432 403.097 420.438 402.705 420.576C402.235 420.741 401.799 420.991 401.347 421.204C401.347 421.39 401.344 421.572 401.34 421.757C403.36 422.266 405.358 422.884 407.408 423.245C409.113 423.544 408.947 424.365 408.221 425.251C407.411 426.244 406.527 427.295 405.421 427.951C401.562 430.252 397.688 432.554 393.641 434.55C389.76 436.463 385.631 437.943 381.665 439.719C380.055 440.441 378.542 441.44 378.261 443.282C377.858 445.892 378.109 448.348 380.514 450.196C380.806 450.42 380.984 450.773 381.273 451.141C379.512 451.708 377.795 452.845 376.348 452.597C373.655 452.137 371.091 452.882 368.394 452.584C363.163 452 357.82 452.041 352.537 452.171C341.989 452.436 331.545 451.962 321.289 449.458C320.068 449.159 318.954 449.269 318.399 450.323C317.733 449.997 317.071 449.375 316.524 449.454C314.759 449.708 313.039 450.22 311.052 450.691C312.265 452.429 312.809 454.03 310.101 455.4C309.313 453.951 308.58 452.56 307.796 451.192C307.585 450.825 307.215 450.258 306.93 450.265C306.483 450.279 305.917 450.605 305.639 450.962C305.147 451.594 304.833 452.347 304.562 452.834C303.071 452.834 301.784 452.742 300.511 452.848C292.742 453.501 284.95 454.019 277.21 454.926C266.611 456.17 256.015 456.561 245.356 455.926C233.938 455.246 222.506 454.713 210.967 454.112C211.322 452.7 211.751 451.285 212.01 449.846C212.106 449.313 211.803 448.719 211.681 448.156C211.126 448.273 210.415 448.228 210.045 448.534C208.258 450.031 206.253 449.97 204.17 449.392C202.061 448.808 200.001 448.067 197.873 447.555C196.956 447.335 195.927 447.517 194.803 447.517C194.584 447.345 194.114 446.641 193.619 446.627C190.452 446.531 187.27 446.442 184.118 446.651C182.671 446.747 181.972 448.365 182.697 449.571C183.204 450.413 184.092 451.055 185.069 452.051C184.277 452.611 183.315 453.291 182.235 454.054C180.736 452.213 179.426 450.564 178.061 448.953C177.802 448.647 177.318 448.506 176.94 448.286C176.737 448.664 176.415 449.025 176.356 449.42C176.082 451.278 175.76 453.144 175.69 455.016C175.642 456.293 174.939 456.534 173.844 456.565C170.762 456.651 167.68 456.871 164.602 456.812C159.181 456.709 153.769 456.338 148.349 456.252C136.824 456.07 125.296 456.077 113.775 455.85C106.079 455.699 98.3875 455.036 90.6958 455.033C82.1457 455.026 73.5882 455.431 65.0455 455.806C59.951 456.029 54.8713 456.829 49.7841 456.843C41.0491 456.871 32.3103 456.496 23.5789 456.235C23.0721 456.221 22.4061 455.819 22.1064 455.411C19.6387 452.031 17.1821 448.64 14.8439 445.178C13.7747 443.594 13.7229 443.529 12.2504 444.686C10.5929 445.988 8.9761 447.4 6.69337 447.764C5.69444 444.489 6.80066 442.085 10.012 440.551C10.4745 440.327 10.7446 439.761 11.1071 439.352C10.6595 439.025 10.2636 438.531 9.76045 438.407C8.00677 437.974 6.2198 437.669 4.37363 437.301C4.48092 435.824 4.68441 434.412 4.66221 433C4.60302 429.455 4.46983 425.91 4.29594 422.369C4.22565 420.96 4.8287 419.988 6.00152 419.16C6.62307 418.721 7.07074 418.065 7.5998 417.505C6.84135 417.124 6.09401 416.722 5.32077 416.375C5.06919 416.261 4.73991 416.289 4.25894 416.227C4.15535 414.242 4.03696 412.311 3.95926 410.384C3.92227 409.422 3.5819 408.22 4.06656 407.553C4.65482 406.736 5.92382 406.3 6.96715 405.829C7.6035 405.541 8.39524 405.554 9.06859 405.314C9.60135 405.125 10.2155 404.85 10.4893 404.438C10.6151 404.245 10.1082 403.541 9.72714 403.242C8.69492 402.432 7.5258 401.772 6.51948 400.938C6.02741 400.529 5.49836 399.883 5.46506 399.32C5.04329 391.848 4.55492 384.374 4.39953 376.896C4.25894 370.204 4.8694 363.489 4.51053 356.811C3.71508 341.858 5.13578 327.067 7.10773 312.265C7.72929 307.59 7.48511 302.815 6.2161 298.133C5.65744 296.065 5.66484 293.863 5.45396 291.72C5.00259 287.186 4.54382 282.651 4.17385 278.11C4.11095 277.337 4.26634 276.441 4.64741 275.764C6.10141 273.198 7.78478 270.742 9.19438 268.155C10.1896 266.331 9.71605 265.771 7.6072 265.806C4.76581 265.85 4.66591 265.778 4.16275 263.202C4.08506 262.81 3.97777 262.412 3.97407 262.017C3.84458 253.78 3.5042 245.539 3.68178 237.309C3.79708 231.891 4.26079 181.123 4.68136 153.947C4.8141 145.369 4.94255 139.142 5.05439 137.432C5.28377 133.894 5.63894 130.356 5.62784 126.818C5.60564 120.243 5.51315 113.662 5.14688 107.097C4.899 102.659 3.88527 98.2555 3.64849 93.8174C3.20822 85.5527 3.00103 77.2742 2.88264 69.0026C2.84564 66.4607 3.67808 63.905 3.64109 61.363C3.59669 58.4638 4.8324 56.8322 7.79219 56.1005C8.31015 55.9734 8.66162 55.2795 9.09079 54.8467C8.65052 54.4895 8.27315 53.9845 7.76259 53.799C6.14211 53.2116 4.46983 52.741 2.70875 52.188C2.85304 50.68 3.05283 49.2682 3.11203 47.8461C3.22672 45.1461 3.70398 42.7278 6.72666 41.3469C7.94757 40.787 7.6701 39.8561 6.40479 39.3683C5.39106 38.9802 4.37364 38.5577 3.31921 38.2966C1.85412 37.9394 1.68393 37.1424 1.82452 35.868C2.15749 32.8177 2.42757 29.7502 2.44237 26.6896C2.44977 25.0407 1.88002 23.385 1.56554 21.6984C5.00629 20.7091 8.76152 20.9118 12.0136 19.4141C12.0062 19.1496 11.9988 18.8817 11.9914 18.6172C8.965 18.3767 5.94232 18.1363 2.84565 17.8924C3.26002 16.3054 3.62629 14.7012 4.12205 13.1348C4.27374 12.6573 4.68811 12.1318 5.14318 11.8741C7.48881 10.5551 9.07229 11.1871 10.2488 13.7222C10.5189 14.3027 11.096 14.763 11.5326 15.2783C12.0654 14.8558 12.7128 14.5088 13.1124 13.9936C14.9142 11.6852 16.6937 9.36312 18.3882 6.98606C20.1345 4.53686 22.0842 3.47543 25.636 3.82237C33.8309 4.62274 42.0998 4.78075 50.3428 5.0796C63.7062 5.56395 77.0696 6.23035 90.4368 6.29905C102.505 6.36088 114.578 5.6773 126.65 5.40937C135.895 5.20326 145.145 5.16891 154.39 4.98342C156.906 4.93189 159.415 4.6193 161.923 4.38916C164.309 4.16931 166.681 3.78459 169.071 3.6884C172.071 3.56818 172.634 4.03534 173.581 6.61507C173.858 7.36735 174.147 8.11619 174.487 8.84443C175.253 10.4898 176.193 10.641 177.495 9.29098C178.065 8.70015 178.572 8.03375 178.968 7.333C179.586 6.23378 180.64 6.03111 181.569 6.5292C182.209 6.87614 182.475 7.82421 182.908 8.50435C182.153 8.72076 181.857 8.59023 181.569 8.60054C179.907 8.64863 179.486 9.90586 179.278 11.0154C179.179 11.5616 179.87 12.7363 180.318 12.7913C184.454 13.2757 188.613 13.5573 192.446 11.3211C193.341 12.9974 194.936 12.8772 196.538 12.4478C198.062 12.039 199.516 11.4001 201.048 11.0223C202.787 10.5963 204.577 9.89556 206.327 11.194C206.512 11.3314 207.559 10.8917 207.744 10.5173C208.062 9.87838 208.122 9.07801 208.107 8.34978C208.077 6.82461 210.619 4.61243 212.236 4.70174C217.393 4.99372 222.554 5.28571 227.719 5.45746C241.693 5.92806 255.674 6.22348 269.641 6.81774C278.701 7.20247 287.736 7.44292 296.693 5.95211C299.623 5.46433 301.876 5.55364 303.001 8.55244C303.145 8.93717 303.793 9.15701 304.207 9.45586C304.507 9.07114 304.858 8.71389 305.099 8.29825C305.78 7.12003 306.298 5.83875 307.112 4.74984C307.692 3.97351 309.009 4.29984 309.009 5.16204C309.009 5.58456 308.277 6.0105 307.859 6.41927C307.548 6.72156 307.204 6.99636 306.878 7.28491C307.2 7.59063 307.522 7.89291 307.848 8.19863C309.705 9.94364 312.236 9.29785 314.448 9.76502C315.702 10.0295 316.949 9.88868 317.441 8.28108C318.27 9.73754 319.387 9.85433 320.9 9.60357C324.034 9.08144 327.205 8.60741 330.375 8.48031C338.929 8.12993 347.494 8.00627 356.055 7.7246C359.74 7.60093 363.425 7.37422 367.095 7.04102C367.957 6.96201 368.753 6.27157 369.578 5.8628C370.033 5.68074 370.732 5.86967 371.443 5.94867C372.874 6.10325 374.358 6.04142 375.742 6.36088C377.388 6.73873 378.897 7.27804 379.219 5.05556C381.513 5.49524 383.988 5.24792 385.146 7.64216C386.105 9.62762 387.011 11.589 386.023 13.8012C382.797 13.231 383.193 10.2906 382.02 8.4013C379.475 9.22572 377.991 10.6856 377.61 13.0799C377.273 15.1718 378.05 16.7588 379.952 17.8821C388.802 23.1171 396.66 29.496 404.274 36.1531C404.548 36.3936 404.751 36.7027 405.021 37.0222C402.923 37.4653 401 37.8707 399.076 38.276C399.091 38.5474 399.105 38.8187 399.12 39.0901C401.429 39.3546 403.741 39.6225 406.113 39.8939C406.113 41.8107 406.079 43.7549 406.12 45.6992C406.22 50.4395 406.079 55.204 406.59 59.9066C406.878 62.5859 406.927 64.6779 403.956 65.9007C403.848 65.9454 403.771 66.0519 403.682 66.1309C402.217 67.4774 402.184 68.2812 403.268 69.8923C403.871 70.7888 404.496 71.7678 404.703 72.7777C405.084 74.6773 405.169 76.6284 405.376 78.5589C405.461 79.3524 405.942 80.4173 405.561 80.8879C404.437 82.2791 405.317 83.3508 405.78 84.5394C406.009 85.1233 406.383 85.7348 406.346 86.3153C406.194 88.6443 406.024 90.9835 405.65 93.2885C404.303 101.612 404.984 109.955 405.502 118.272C405.928 125.046 406.705 210.316 407.674 217.042C408.077 219.834 408.051 222.047 405.165 223.63C404.744 223.86 404.407 225.138 404.625 225.32C406.164 226.598 405.458 228.061 405.421 229.569C405.236 237.058 404.98 244.553 405.18 252.038C405.491 263.762 405.868 275.493 404.481 287.165C403.36 296.598 403.767 305.979 404.274 315.401C404.64 322.196 404.5 329.014 404.574 335.823C404.574 335.974 404.444 336.128 404.374 336.283C404.296 336.121 404.222 335.96 404.144 335.799C401.725 336.664 399.298 337.506 396.904 338.43C396.549 338.567 396.153 339.103 396.175 339.433C396.194 339.704 396.763 340.044 397.156 340.175C398.628 340.663 400.13 341.075 401.111 341.363C401.44 342.895 401.666 343.95 401.891 345.004C403.038 350.415 404.07 355.849 405.362 361.228C406.383 365.491 407.1 369.744 406.79 374.123C406.69 375.494 405.791 377.088 407.8 378.033C407.94 378.101 407.896 378.565 407.888 378.843C407.792 382.763 407.689 386.682 407.589 390.601L407.585 390.625Z" fill="#F7F6E6"/>
<path d="M407.585 390.625C407.689 386.706 407.792 382.787 407.885 378.867C407.892 378.589 407.937 378.125 407.796 378.057C405.787 377.109 406.69 375.518 406.786 374.147C407.1 369.768 406.383 365.515 405.358 361.252C404.067 355.873 403.034 350.439 401.888 345.029C401.666 343.974 401.436 342.923 401.107 341.387C400.126 341.099 398.624 340.687 397.152 340.199C396.76 340.068 396.19 339.728 396.171 339.457C396.149 339.131 396.545 338.591 396.9 338.454C399.294 337.53 401.725 336.692 404.141 335.823C404.218 335.984 404.292 336.145 404.37 336.307C404.44 336.152 404.57 336.001 404.57 335.847C404.496 329.038 404.633 322.22 404.27 315.425C403.763 305.999 403.36 296.618 404.477 287.189C405.861 275.52 405.487 263.789 405.177 252.062C404.977 244.577 405.232 237.082 405.417 229.593C405.454 228.085 406.161 226.622 404.622 225.344C404.407 225.166 404.74 223.888 405.162 223.654C408.044 222.071 408.073 219.858 407.67 217.066C406.701 210.34 405.92 125.07 405.499 118.296C404.977 109.979 404.296 101.639 405.646 93.3125C406.02 91.0076 406.19 88.6683 406.342 86.3393C406.379 85.7588 406.005 85.1474 405.776 84.5634C405.31 83.3749 404.433 82.3031 405.558 80.9119C405.935 80.4448 405.458 79.3765 405.373 78.583C405.166 76.6525 405.08 74.7014 404.699 72.8018C404.496 71.7884 403.871 70.8129 403.264 69.9163C402.18 68.3053 402.217 67.5015 403.678 66.1549C403.767 66.0759 403.845 65.9694 403.952 65.9248C406.923 64.7019 406.875 62.6099 406.586 59.9306C406.076 55.228 406.22 50.4636 406.116 45.7232C406.076 43.779 406.109 41.8347 406.109 39.918C403.737 39.6466 401.425 39.3787 399.116 39.1142C399.102 38.8428 399.087 38.5714 399.072 38.3C400.996 37.8947 402.92 37.4894 405.018 37.0462C404.747 36.7268 404.544 36.4176 404.27 36.1772C396.656 29.5235 388.802 23.1446 379.948 17.9061C378.05 16.7828 377.273 15.1993 377.606 13.1039C377.991 10.7131 379.471 9.24976 382.016 8.42535C383.189 10.3146 382.793 13.255 386.019 13.8253C387.007 11.6131 386.101 9.64823 385.143 7.6662C383.985 5.27196 381.506 5.51585 379.216 5.0796C378.894 7.30208 377.388 6.76278 375.738 6.38492C374.354 6.06546 372.871 6.13073 371.439 5.97272C370.725 5.89371 370.025 5.70478 369.574 5.88684C368.749 6.29561 367.954 6.98606 367.092 7.06506C363.421 7.39826 359.737 7.62498 356.052 7.74864C347.494 8.03031 338.929 8.15741 330.372 8.50435C327.201 8.63488 324.027 9.10892 320.897 9.62761C319.38 9.87837 318.266 9.76158 317.437 8.30512C316.945 9.91273 315.699 10.0501 314.444 9.78906C312.232 9.32189 309.701 9.96769 307.844 8.22268C307.522 7.92039 307.197 7.61467 306.875 7.30895C307.204 7.02041 307.544 6.7456 307.855 6.44332C308.273 6.03455 309.006 5.60516 309.006 5.18609C309.006 4.32045 307.689 3.99756 307.108 4.77388C306.294 5.86279 305.776 7.14063 305.095 8.32229C304.855 8.73794 304.503 9.09518 304.204 9.47991C303.789 9.18449 303.142 8.96121 302.997 8.57649C301.873 5.57768 299.62 5.48837 296.689 5.97615C287.732 7.46696 278.698 7.22995 269.637 6.84178C255.67 6.24752 241.689 5.95211 227.715 5.4815C222.55 5.30631 217.389 5.01433 212.232 4.72579C210.611 4.63304 208.07 6.84865 208.103 8.37382C208.118 9.10205 208.059 9.89899 207.74 10.5413C207.555 10.9123 206.508 11.3555 206.323 11.218C204.573 9.9196 202.787 10.6203 201.044 11.0463C199.512 11.4207 198.058 12.0631 196.534 12.4718C194.932 12.9012 193.337 13.0215 192.442 11.3451C188.609 13.5814 184.451 13.2997 180.314 12.8153C179.867 12.7638 179.171 11.5856 179.275 11.0394C179.482 9.92647 179.904 8.66924 181.565 8.62458C181.853 8.61771 182.149 8.74824 182.904 8.5284C182.471 7.84826 182.209 6.89674 181.565 6.55324C180.64 6.05516 179.582 6.25782 178.964 7.35704C178.572 8.0578 178.061 8.72763 177.491 9.31503C176.189 10.665 175.253 10.5104 174.484 8.86847C174.143 8.14024 173.851 7.39139 173.577 6.63912C172.63 4.05595 172.068 3.58878 169.067 3.71245C166.677 3.80863 164.306 4.19336 161.919 4.4132C159.411 4.64335 156.902 4.95594 154.387 5.00746C145.141 5.19639 135.892 5.23074 126.646 5.43341C114.574 5.70135 102.502 6.38492 90.4331 6.32309C77.066 6.25439 63.7025 5.58799 50.3391 5.10365C42.0961 4.8048 33.8235 4.64678 25.6323 3.84641C22.0805 3.49947 20.1308 4.55747 18.3845 7.0101C16.69 9.38716 14.9105 11.7093 13.1087 14.0176C12.7091 14.5294 12.0617 14.8764 11.5289 15.3023C11.0923 14.7871 10.5152 14.3302 10.2451 13.7463C9.07229 11.2112 7.48511 10.5791 5.13948 11.8982C4.68441 12.1558 4.27004 12.6814 4.11835 13.1589C3.62259 14.7252 3.25631 16.326 2.84194 17.9164C5.93862 18.1603 8.965 18.4008 11.9877 18.6412C11.9951 18.9057 12.0025 19.1736 12.0099 19.4381C8.75781 20.9393 5.00259 20.7332 1.56184 21.7225C1.87632 23.4091 2.44607 25.0648 2.43867 26.7136C2.42387 29.7742 2.15379 32.8417 1.82082 35.8921C1.68023 37.1665 1.85041 37.9634 3.31551 38.3207C4.37363 38.5783 5.38736 39.0008 6.40109 39.3924C7.6701 39.8802 7.94757 40.8145 6.72296 41.371C3.70028 42.7519 3.22671 45.1702 3.10832 47.8701C3.04913 49.2888 2.84934 50.704 2.70505 52.212C4.46613 52.7616 6.13841 53.2322 7.75889 53.8231C8.26945 54.0086 8.65052 54.5135 9.08709 54.8708C8.65792 55.3036 8.30275 55.994 7.78849 56.1246C4.8287 56.8562 3.59299 58.4879 3.63739 61.3871C3.67808 63.929 2.84564 66.4847 2.87894 69.0266C2.99733 77.3017 3.20451 85.5802 3.64478 93.8415C3.88157 98.2796 4.89529 102.683 5.14318 107.121C5.50945 113.686 5.60194 120.267 5.62414 126.842C5.63524 130.38 5.28007 133.918 5.05068 137.456C4.83104 140.813 4.54732 161.597 4.29282 183.387C4.19284 191.946 4.09738 200.66 4.01207 208.533C3.85363 223.157 3.73023 234.882 3.67808 237.333C3.5005 245.563 3.84457 253.804 3.97036 262.041C3.97776 262.436 4.08136 262.834 4.15905 263.226C4.66221 265.802 4.76211 265.874 7.6035 265.83C9.70865 265.795 10.1822 266.355 9.19068 268.179C7.78108 270.766 6.09771 273.222 4.64371 275.788C4.25894 276.465 4.10355 277.361 4.17015 278.134C4.54382 282.675 5.00259 287.21 5.45025 291.744C5.66484 293.887 5.65374 296.089 6.2124 298.157C7.48141 302.839 7.72559 307.61 7.10403 312.289C5.13208 327.091 3.70768 341.885 4.50682 356.835C4.862 363.509 4.25524 370.225 4.39583 376.92C4.55122 384.398 5.03958 391.872 5.46135 399.344C5.49465 399.907 6.02371 400.553 6.51578 400.962C7.5221 401.796 8.69122 402.456 9.72344 403.267C10.1045 403.565 10.6114 404.27 10.4856 404.462C10.2118 404.874 9.59765 405.149 9.06489 405.338C8.39154 405.575 7.5998 405.561 6.96344 405.853C5.92012 406.327 4.65111 406.763 4.06285 407.577C3.58189 408.247 3.91857 409.446 3.95556 410.408C4.02956 412.338 4.15165 414.266 4.25524 416.251C4.73621 416.313 5.06178 416.282 5.31706 416.399C6.09401 416.746 6.84135 417.148 7.5961 417.529C7.07074 418.089 6.62307 418.741 5.99781 419.185C4.825 420.012 4.22194 420.985 4.29224 422.393C4.46612 425.934 4.59562 429.479 4.65851 433.024C4.68441 434.436 4.47722 435.848 4.36993 437.325C6.2161 437.693 8.00307 437.998 9.75674 438.431C10.2599 438.555 10.6595 439.05 11.1034 439.376C10.7446 439.785 10.4708 440.351 10.0083 440.575C6.80189 442.12 5.69567 444.525 6.68967 447.788C8.9724 447.424 10.5929 446.012 12.2467 444.71C13.7229 443.549 13.771 443.615 14.8402 445.202C17.1784 448.661 19.635 452.051 22.1027 455.435C22.3987 455.844 23.0647 456.242 23.5752 456.259C32.3103 456.52 41.0454 456.891 49.7804 456.867C54.8676 456.853 59.9473 456.05 65.0418 455.83C73.5882 455.455 82.142 455.053 90.6921 455.057C98.3838 455.06 106.076 455.723 113.771 455.874C125.292 456.101 136.82 456.094 148.345 456.276C153.765 456.362 159.178 456.733 164.598 456.836C167.676 456.895 170.758 456.675 173.84 456.589C174.935 456.558 175.638 456.318 175.686 455.04C175.756 453.168 176.074 451.306 176.352 449.444C176.411 449.049 176.733 448.685 176.936 448.31C177.318 448.527 177.799 448.671 178.058 448.977C179.423 450.584 180.732 452.233 182.231 454.078C183.311 453.315 184.273 452.635 185.065 452.075C184.088 451.079 183.196 450.437 182.693 449.595C181.968 448.389 182.667 446.772 184.114 446.675C187.266 446.466 190.452 446.552 193.615 446.651C194.111 446.665 194.581 447.369 194.799 447.541C195.924 447.541 196.952 447.359 197.87 447.579C199.997 448.091 202.058 448.833 204.167 449.417C206.249 449.994 208.255 450.055 210.042 448.558C210.408 448.249 211.122 448.297 211.677 448.18C211.799 448.747 212.102 449.338 212.006 449.87C211.747 451.309 211.322 452.724 210.963 454.136C222.502 454.741 233.931 455.27 245.352 455.95C256.015 456.585 266.607 456.194 277.207 454.95C284.943 454.044 292.734 453.525 300.508 452.872C301.78 452.766 303.068 452.858 304.559 452.858C304.829 452.374 305.14 451.618 305.635 450.986C305.913 450.629 306.483 450.299 306.927 450.289C307.208 450.282 307.581 450.845 307.792 451.216C308.573 452.584 309.305 453.971 310.097 455.424C312.805 454.054 312.262 452.453 311.048 450.715C313.035 450.244 314.755 449.733 316.52 449.478C317.068 449.399 317.73 450.021 318.396 450.347C318.951 449.293 320.064 449.183 321.285 449.482C331.541 451.989 341.985 452.46 352.533 452.195C357.82 452.065 363.163 452.024 368.39 452.608C371.087 452.91 373.651 452.165 376.345 452.621C377.788 452.869 379.504 451.732 381.269 451.165C380.977 450.794 380.799 450.444 380.511 450.22C378.109 448.372 377.858 445.913 378.257 443.306C378.542 441.461 380.055 440.461 381.661 439.743C385.627 437.967 389.756 436.487 393.637 434.574C397.681 432.578 401.558 430.276 405.417 427.975C406.523 427.315 407.408 426.268 408.218 425.275C408.939 424.389 409.109 423.568 407.404 423.269C405.354 422.908 403.356 422.29 401.336 421.781C401.336 421.596 401.34 421.414 401.344 421.228C401.795 421.015 402.232 420.765 402.702 420.6C403.094 420.462 403.541 420.459 403.945 420.339C408.277 419.075 408.321 419.068 407.933 414.959C407.604 411.435 407.038 407.928 406.808 404.403C406.664 402.202 406.76 399.952 407.089 397.767C407.359 395.967 407.223 394.655 405.103 394.067C404.585 393.923 404.067 393.652 403.671 393.315C403.404 393.088 403.171 392.611 403.238 392.305C403.423 391.45 406.279 390.334 407.282 390.653C406.66 391.254 406.039 391.852 405.358 392.511C405.983 392.814 406.62 393.099 407.234 393.422C408.651 394.17 409.065 395.108 408.917 396.785C408.606 400.34 408.732 403.947 408.895 407.522C409.05 410.885 409.498 414.235 409.794 417.594C409.905 418.869 409.372 419.782 408 420.229C407.178 420.497 406.39 420.864 405.321 421.294C407.415 421.898 409.172 422.407 411 422.932C406.494 438.046 398.532 450.272 382.001 456.094C382.309 458.612 381.01 460.014 377.665 460C374.117 459.986 370.566 459.591 367.021 459.313C363.351 459.024 359.696 458.54 356.022 458.382C346.003 457.953 335.981 457.588 325.954 457.331C322.395 457.238 318.825 457.602 315.258 457.623C311.418 457.647 308.221 456.534 306.79 452.515C306.342 453.202 306.12 453.738 305.717 454.109C305.373 454.425 304.829 454.724 304.363 454.737C300.086 454.868 295.794 454.772 291.532 455.064C286.519 455.411 281.535 456.166 276.526 456.585C270.344 457.101 264.154 457.678 257.957 457.805C251.997 457.929 246.014 457.619 240.058 457.307C230.853 456.822 221.655 456.149 212.454 455.627C211.344 455.565 210.208 455.977 209.076 456.091C208.366 456.163 207.607 456.214 206.93 456.056C203.452 455.242 199.945 454.507 196.545 453.463C192.202 452.13 188.165 453.068 184.266 454.648C182.442 455.39 181.298 455.211 180.174 453.8C179.46 452.903 178.649 452.075 177.584 450.883C177.421 452.814 177.247 454.322 177.181 455.833C177.125 457.118 176.53 457.898 175.12 457.99C172.974 458.135 170.825 458.372 168.679 458.337C157.343 458.145 146.007 457.836 134.671 457.661C128.015 457.558 121.352 457.76 114.696 457.599C103.678 457.334 92.6603 456.603 81.6462 456.61C73.3588 456.613 65.0825 457.64 56.7877 457.881C49.4808 458.09 42.1553 457.819 34.8372 457.791C31.3262 457.777 27.8114 457.767 24.3078 457.905C22.7317 457.966 21.385 457.788 19.931 457.104C16.7159 455.593 13.3344 454.384 10.0601 452.975C5.67964 451.093 3.82237 447.668 3.64849 443.374C3.62259 442.753 4.23304 441.952 4.7991 441.506C5.60564 440.863 6.64157 440.472 8.12146 439.685C6.50838 439.455 5.43176 439.228 4.34774 439.163C3.01953 439.08 2.57557 438.52 2.58667 437.294C2.62366 432.554 2.63476 427.813 2.50897 423.073C2.45717 421.115 2.97883 419.487 4.7695 417.982C2.61256 417.714 2.44977 416.478 2.42017 414.932C2.37578 412.672 1.93181 410.418 1.81712 408.155C1.78752 407.602 2.22039 406.818 2.71245 406.489C4.19235 405.492 5.80913 404.671 7.49251 403.71C6.91905 403.304 6.2753 402.731 5.51685 402.342C4.18125 401.655 3.62259 400.622 3.58189 399.265C3.22671 388.297 2.77535 377.328 2.54967 366.36C2.37948 358.181 2.51637 349.996 2.48307 341.813C2.45347 334.668 3.37841 327.616 4.54012 320.561C5.65744 313.783 6.42328 306.896 4.95819 300.119C4.14795 296.374 4.06286 292.682 3.89637 288.927C3.74468 285.523 3.21192 282.126 2.63846 278.753C2.37208 277.186 2.54226 275.929 3.50049 274.579C5.14687 272.271 6.56387 269.818 8.18435 267.255C7.4999 267.152 7.15213 267.039 6.81546 267.06C3.20452 267.29 2.92704 266.039 2.52007 263.432C2.1057 260.78 1.79862 258.084 1.80602 255.408C1.82082 247.456 1.72462 239.49 2.20559 231.558C2.39901 228.352 2.28009 219.728 2.52007 208.533C2.68108 201.022 2.85255 192.353 3 183.387C3.16169 173.554 2.38941 165.819 2.5 154.56C2.57061 147.371 2 146.632 3 136.773C4 126.914 4.00487 119.444 3.89267 116.427C3.65959 110.161 2.64956 103.92 2.29808 97.6544C1.89111 90.3549 1.82822 83.0382 1.60254 75.7284C1.54334 73.8563 1.28806 71.9808 1.39535 70.119C1.55444 67.3366 1.95401 64.5645 2.24999 61.789C2.30548 61.2771 2.49417 60.7447 2.39428 60.2604C1.86892 57.6669 3.37101 56.3513 5.72404 55.5234C5.99782 55.4272 6.2457 55.2521 6.80805 54.9532C5.37996 54.5719 4.25524 54.2353 3.10832 53.9742C1.92811 53.7063 1.25106 53.1086 1.36205 51.9338C1.62103 49.2682 1.79122 46.5854 2.23889 43.9473C2.37208 43.1675 3.24151 42.4599 3.87787 41.8004C4.30334 41.3572 4.9064 41.0653 5.56865 40.6118C4.8213 40.392 4.31444 40.234 3.80387 40.0931C0.0893443 39.0558 -0.476716 38.3344 0.311327 34.7963C1.23996 30.6467 1.38425 26.5453 0.11894 22.4473C-0.228835 21.324 0.181839 20.6954 1.40645 20.4687C2.0613 20.3484 2.70506 20.1801 3.25632 20.053C2.74945 19.792 1.91331 19.6133 1.65803 19.1565C1.37315 18.6446 1.55444 17.8718 1.65803 17.226C1.78012 16.4428 2.0502 15.6836 2.22039 14.9073C3.04913 11.0772 5.34296 8.36008 9.15739 6.65286C12.0543 5.35784 14.7588 3.65405 17.7297 2.55483C19.2207 2.00179 21.1223 2.30064 22.8279 2.37277C32.055 2.76437 41.2748 3.2865 50.5019 3.61283C64.7865 4.11778 79.0786 4.77044 93.367 4.84945C104.381 4.90785 115.403 4.11435 126.424 3.81893C135.359 3.57848 144.301 3.60252 153.232 3.32772C158.512 3.16627 163.773 2.6304 169.049 2.31438C169.885 2.26285 170.739 2.51361 171.59 2.59262C173.548 2.76781 174.435 3.93229 174.898 5.56051C175.175 6.53606 175.56 7.48071 176 8.74137C176.97 7.50132 177.643 6.42271 178.553 5.56738C179.038 5.11052 180.048 4.6777 180.636 4.83571C186.301 6.35057 191.854 6.4021 197.359 4.24488C201.251 2.71972 204.784 2.92582 207.652 6.64599C209.405 3.45138 212.228 3.51321 215.392 3.61283C227.83 4.00099 240.283 4.04908 252.722 4.4132C263.185 4.71892 273.633 5.45402 284.092 5.66356C288.731 5.75631 293.397 5.05899 298.04 4.64335C301.64 4.32045 301.725 4.31358 303.416 7.37078C303.549 7.6078 303.711 7.83452 303.919 8.15741C304.459 7.08567 304.918 6.06546 305.48 5.09334C307.06 2.36934 308.081 2.00179 311.363 2.30751C313.867 2.54109 316.468 2.18385 318.914 2.62353C323.845 3.51321 328.411 1.38004 333.235 1.50714C337.601 1.62393 341.978 1.31134 346.347 1.41439C354.287 1.60332 362.226 2.01553 370.129 0.923179C371.331 0.754861 372.515 0.445707 373.71 0.225863C377.603 -0.488629 378.875 0.401052 379.26 4.2071C380.437 4.30328 381.676 4.27236 382.845 4.52312C387.111 5.44372 390.252 8.01658 392.827 11.0738C399.142 18.5656 403.197 27.1705 406.553 36.081C407.03 37.3451 406.945 37.3966 404.662 38.3481C407.186 39.2378 407.171 39.2378 407.234 42.0614C407.348 47.2072 407.448 52.3494 407.626 57.4951C407.674 58.8554 407.863 60.2329 408.203 61.5554C408.725 63.5752 408.347 65.1553 406.242 66.1652C406.135 66.2168 406.024 66.2717 405.924 66.337C403.786 67.7866 403.708 67.9308 405.165 69.9438C406.856 72.2831 406.479 74.9933 406.805 77.5559C407.012 79.1772 406.671 80.857 406.601 82.5127C406.594 82.6638 406.73 82.8321 406.83 82.973C408.961 85.9649 407.789 89.1939 407.441 92.2957C406.742 98.551 406.168 104.786 406.753 111.085C407.163 115.527 407.204 119.996 407.626 124.434C408.151 129.999 408.802 214.067 409.601 219.604C409.838 221.246 409.446 222.369 408.122 223.338C407.5 223.795 406.897 224.276 406.849 224.795C407.008 225.921 407.267 227.048 407.3 228.178C407.348 229.659 407.211 231.143 407.167 232.627C407.06 236.281 406.849 239.936 406.875 243.591C406.941 253.433 407.3 263.278 407.163 273.116C407.075 279.381 406.12 285.633 405.902 291.902C405.672 298.521 405.791 305.154 405.876 311.781C405.972 319.214 406.198 326.648 406.364 334.081C406.364 334.139 406.353 334.194 406.349 334.253C406.246 335.441 406.59 337.018 405.905 337.708C405.277 338.34 403.523 337.956 402.283 338.134C401.403 338.261 400.552 338.581 399.216 338.942C400.774 339.625 401.939 340.061 403.012 340.649C403.456 340.893 404.063 341.58 403.959 341.865C402.92 344.716 404.044 347.385 404.659 350.075C406.394 357.697 408.91 365.189 408.747 373.11C408.714 374.738 407.94 376.446 409.287 378.033C409.605 378.41 409.128 379.334 409.098 380.011C408.958 383.261 408.847 386.514 408.714 389.763C408.688 390.402 408.961 391.429 407.6 390.656L407.585 390.625ZM407.304 428.792C407.112 428.792 406.853 428.713 406.731 428.799C404.903 430.125 403.09 431.475 401.373 432.746C401.884 434.213 402.383 435.645 402.861 437.013C404.925 435.618 403.948 433.674 403.885 431.898C404.041 431.887 404.196 431.877 404.348 431.867L404.803 433.615C404.936 433.656 405.069 433.698 405.199 433.739C405.883 432.083 406.564 430.428 407.245 428.772L407.456 428.401C407.367 428.418 407.278 428.439 407.193 428.456L407.3 428.792H407.304ZM18.7878 454.494C18.7767 454.576 18.7656 454.658 18.7545 454.741C18.8322 454.724 18.9136 454.707 18.9913 454.689C18.9099 454.634 18.8285 454.579 18.7471 454.521C16.8454 451.691 14.9401 448.86 13.0384 446.033C11.3476 447.108 9.56805 448.242 7.73299 449.406C9.03529 450.684 10.123 449.183 11.8138 449.207C10.9814 449.908 10.4227 450.378 9.86404 450.852C9.90103 450.959 9.93803 451.069 9.97873 451.175C11.3143 450.921 12.6536 450.663 13.9892 450.409L14.1594 450.787C13.3899 451.172 12.624 451.557 11.9618 451.886C12.6499 452.268 13.2419 452.707 13.9189 452.944C15.5246 453.511 17.171 453.985 18.7989 454.494H18.7878ZM198.358 449.183C197.548 449.015 196.834 448.207 195.92 449.228C194.817 450.457 194.433 450.313 193.726 448.771C193.552 448.386 193.297 448.032 192.964 447.469C192.331 448.925 191.802 450.131 191.303 451.289C192.953 451.522 194.514 451.745 195.972 451.955C196.712 451.093 197.448 450.234 198.188 449.375L197.444 452.34C197.618 452.408 197.796 452.477 197.969 452.542C198.317 452.044 198.665 451.543 199.283 450.653C199.594 451.8 198.876 454.14 201.029 452.329C202.195 454.521 204.585 453.796 206.268 454.387C206.834 453.793 207.333 453.274 207.833 452.752C207.925 452.828 208.018 452.903 208.107 452.979C207.885 453.566 207.663 454.153 207.422 454.786C209.328 454.72 210.408 452.855 210.29 450.615C208.406 450.766 206.468 451.227 204.636 450.986C202.494 450.705 200.448 449.812 198.358 449.186V449.183ZM333.417 4.22427C332.248 2.8846 330.882 2.67506 329.295 3.14223C327.974 3.53039 325.958 2.70941 325.755 5.18952C325.011 3.40673 323.723 4.05939 322.599 4.10061C320.438 4.17961 318.27 4.34106 316.117 4.25175C314.1 4.16587 312.099 3.79832 310.415 3.59565C310.782 5.26166 311.115 6.77652 311.488 8.47C312.11 8.47 313.105 8.36695 314.067 8.49748C315.232 8.6555 316.006 8.49748 316.535 7.37422C316.979 6.43301 317.785 6.4708 318.255 7.42574C318.692 8.31199 319.158 8.72076 320.342 8.51809C323.046 8.05779 325.78 7.5975 328.518 7.46697C337.435 7.04789 346.355 6.75591 355.275 6.46393C359.489 6.32653 363.71 6.30935 367.846 6.24065C368.224 4.00786 368.335 3.95977 370.185 4.72922C370.51 4.86319 370.873 4.96281 371.224 4.98342C373.307 5.11051 375.39 5.21357 377.658 5.33379C378.368 4.2174 378.32 2.54109 376.981 1.79912C375.849 1.17394 374.066 1.55867 372.249 1.47966C372.874 2.60636 373.218 3.23154 373.566 3.85672C372.049 3.44108 371.465 1.91248 369.574 2.2869C367.369 2.72315 365.072 2.89147 362.811 2.93956C358.331 3.03574 353.847 2.96704 349.218 2.96704C349.599 3.54756 349.914 4.02504 350.232 4.50594C349.122 4.09374 348.256 3.00826 347.342 2.97391C342.573 2.79872 337.793 2.89147 332.899 2.89147C333.08 3.35177 333.25 3.78458 333.424 4.2174L333.417 4.22427ZM319.942 450.605C319.495 451.282 319.106 451.869 318.721 452.457C318.211 452.02 317.733 451.539 317.175 451.165C316.838 450.938 316.361 450.725 315.976 450.766C314.977 450.873 314 451.12 312.706 451.368C314.518 453.051 313.109 454.39 312.421 455.943C315.177 455.696 314.111 453.377 315.284 451.955V456.359C316.102 456.201 317.079 456.263 317.611 455.84C318.192 455.376 318.362 454.466 318.714 453.748L319.18 453.889C319.102 454.624 319.028 455.356 318.94 456.204C320.357 456.015 321.663 455.84 323.02 455.658C323.29 454.947 323.601 454.129 323.916 453.315C324.064 453.353 324.212 453.387 324.36 453.425C324.256 454.191 324.152 454.957 324.06 455.627C327.186 455.627 330.198 455.524 333.195 455.651C338.781 455.885 344.364 456.228 349.947 456.572C354.786 456.867 359.622 457.235 364.465 457.547C365.948 457.643 367.547 458.093 368.616 456.585C368.642 456.548 368.834 456.61 369.108 456.651C368.993 457.056 368.886 457.444 368.634 458.341C369.914 458.035 370.847 457.808 371.838 457.571C371.861 457.747 371.901 458.052 371.942 458.358C372.071 458.41 372.201 458.458 372.334 458.509C373.122 457.279 373.906 456.05 374.695 454.82C374.85 454.882 375.009 454.944 375.164 455.005C374.757 456.177 374.354 457.351 373.951 458.513C375.875 459.268 375.516 457.166 376.689 456.582C376.622 457.365 376.574 457.966 376.504 458.767C377.458 458.598 378.269 458.561 378.979 458.296C379.586 458.069 380.548 457.564 380.533 457.211C380.477 455.85 380.096 454.5 379.926 453.611C377.784 453.611 376.001 453.614 374.217 453.611C373.855 453.611 373.311 453.415 373.163 453.566C371.931 454.858 370.629 453.941 369.274 453.889C363.381 453.676 357.476 453.776 351.579 453.631C345.685 453.491 339.773 453.425 333.912 452.893C329.203 452.463 324.559 451.385 319.946 450.605H319.942ZM383.415 18.0538C390.544 23.6014 397.825 29.2693 405.136 34.9577C403.874 32.1547 402.572 29.2624 401.192 26.1983C400.9 26.9437 400.7 27.4556 400.496 27.9674C400.352 27.9468 400.208 27.9227 400.064 27.9021C399.89 26.243 399.716 24.5804 399.509 22.6087C398.88 23.3163 398.569 23.6701 398.158 24.1304V20.3141C398.025 20.3141 397.892 20.3141 397.759 20.3141C397.596 20.8053 397.433 21.2965 397.156 22.1312C396.689 20.053 396.312 18.3801 395.938 16.7107C395.831 16.7588 395.724 16.8069 395.617 16.855C395.232 17.9508 394.847 19.05 394.462 20.1458C394.118 17.8718 395.084 15.6184 393.145 13.2997C392.768 15.718 393.071 17.8718 391.11 19.3763C392.194 16.6008 392.572 13.8596 391.273 11.1219C390.79 13.8195 390.211 15.3997 389.538 15.8622C390.596 11.0875 389.875 9.02305 386.626 7.52536C388.254 14.0898 387.522 16.247 383.411 18.0538H383.415ZM394.181 447.434C396.852 444.535 396.116 441.042 395.861 437.38C397.736 439.791 397.167 442.306 396.819 445.047C399.853 442.643 399.649 439.603 399.923 436.71L400.448 436.703C400.508 437.937 400.567 439.173 400.648 440.839C402.62 437.93 401.525 435.525 400.811 433.169C395.691 435.34 390.685 437.459 385.601 439.613C388.039 440.317 390.067 441.605 390.478 443.982C390.833 446.054 390.552 448.218 390.552 450.279C394.717 447.751 393.041 443.986 392.461 440.389C394.262 442.467 394.222 444.889 394.177 447.434H394.181ZM206.446 9.32877C206.264 5.85592 202.816 3.75367 199.99 5.22387C200.219 5.68761 200.448 6.15134 200.681 6.61851C199.486 6.10325 198.843 4.85976 197.082 5.67386C195.672 6.32653 194.825 6.88987 195.043 8.48031C194.662 7.88948 194.277 7.30208 193.948 6.79713C191.869 7.05476 189.934 7.29865 188.261 7.50819C187.917 8.63832 187.599 9.69288 187.277 10.7474C187.118 10.7062 186.955 10.665 186.796 10.6203C187.066 7.26773 186.933 7.06506 184.998 7.22651C184.406 8.75168 183.877 10.1257 183.319 11.5616C186.042 11.4001 189.005 11.8398 191.513 9.89212C191.861 9.62075 193.09 9.67914 193.219 9.91273C194.344 11.9428 195.898 11.0841 197.429 10.5963C200.308 9.67571 203.131 8.42878 206.449 9.32877H206.446ZM388.95 447.819C386.415 447.465 384.432 448.606 383.899 450.766C383.644 451.8 383.193 452.185 382.146 451.457C381.913 451.292 381.561 451.271 381.169 451.158C381.273 452.353 381.361 453.381 381.45 454.425C385.442 453.597 388.643 450.722 388.946 447.816L388.95 447.819ZM14.9919 4.76014C15.7059 5.24792 16.1536 5.55364 16.5975 5.85936C16.5273 6.0002 16.4533 6.14447 16.383 6.2853C14.7995 5.06242 13.5083 6.07233 12.058 6.41584C12.5463 6.93797 12.9274 7.34674 13.6082 8.07497C11.8878 7.7452 10.7039 6.25783 9.66055 7.80017C10.9666 8.72076 12.2504 9.62762 13.4269 10.4589C15.236 8.34291 17.1858 6.05859 19.1356 3.77428C19.0616 3.65062 18.9839 3.53039 18.9099 3.40673C17.7001 3.82237 16.4902 4.24145 14.9882 4.76014H14.9919ZM189.09 451.704C189.19 451.752 189.294 451.8 189.393 451.845C190.259 450.519 191.125 449.197 192.179 447.589H186.245C186.46 449.283 186.652 450.818 186.878 452.608C187.766 451.55 188.576 450.588 189.386 449.623C189.482 449.671 189.578 449.722 189.678 449.77L189.09 451.701V451.704ZM11.7805 13.1829C12.2948 12.3585 12.5944 11.8776 12.8793 11.4207C11.022 9.18793 8.58762 8.34978 6.91165 9.44212C9.10189 9.95395 11.059 10.6856 11.7805 13.1829Z" fill="#272727"/>
<path d="M333.417 4.22427C333.246 3.79145 333.073 3.3552 332.891 2.89834C337.786 2.89834 342.566 2.80559 347.335 2.98078C348.245 3.01513 349.111 4.10405 350.224 4.51282C349.91 4.03191 349.592 3.55444 349.211 2.97391C353.843 2.97391 358.327 3.04261 362.804 2.94643C365.068 2.89834 367.362 2.73002 369.567 2.29377C371.457 1.91935 372.046 3.44795 373.559 3.86359C373.211 3.23841 372.867 2.61323 372.242 1.48653C374.062 1.5621 375.841 1.18081 376.974 1.80599C378.313 2.54796 378.361 4.22427 377.651 5.34067C375.383 5.22044 373.296 5.12082 371.217 4.99029C370.865 4.96968 370.503 4.87006 370.177 4.7361C368.327 3.96664 368.216 4.01473 367.839 6.24752C363.699 6.31622 359.481 6.33683 355.267 6.4708C346.347 6.75935 337.423 7.05476 328.511 7.47384C325.773 7.60093 323.039 8.06467 320.334 8.52497C319.15 8.72763 318.684 8.31886 318.248 7.43262C317.778 6.47767 316.975 6.44332 316.527 7.38109C315.995 8.50435 315.225 8.66237 314.06 8.50435C313.098 8.37382 312.099 8.47687 311.481 8.47687C311.107 6.78339 310.774 5.26853 310.408 3.60253C312.091 3.8052 314.097 4.17275 316.109 4.25862C318.263 4.34793 320.431 4.18649 322.591 4.10748C323.712 4.06626 325.003 3.4136 325.747 5.19639C325.954 2.71628 327.967 3.53726 329.288 3.1491C330.871 2.68193 332.24 2.89147 333.409 4.23114L333.417 4.22427Z" fill="#F2F1E2"/>
<path d="M319.939 450.605C324.552 451.385 329.195 452.463 333.905 452.893C339.765 453.425 345.678 453.491 351.571 453.631C357.469 453.772 363.373 453.673 369.267 453.889C370.625 453.937 371.923 454.854 373.155 453.566C373.303 453.411 373.847 453.607 374.21 453.611C375.993 453.618 377.776 453.611 379.919 453.611C380.089 454.5 380.474 455.85 380.525 457.211C380.54 457.564 379.574 458.069 378.971 458.296C378.261 458.561 377.451 458.598 376.496 458.767C376.563 457.966 376.615 457.365 376.681 456.582C375.508 457.163 375.867 459.268 373.944 458.513C374.347 457.351 374.75 456.18 375.157 455.005C375.002 454.944 374.843 454.882 374.687 454.82C373.899 456.05 373.115 457.279 372.327 458.509C372.197 458.458 372.068 458.41 371.935 458.358C371.894 458.052 371.853 457.743 371.831 457.571C370.839 457.808 369.907 458.035 368.627 458.341C368.879 457.444 368.986 457.056 369.101 456.651C368.827 456.613 368.634 456.548 368.608 456.585C367.539 458.093 365.941 457.643 364.457 457.547C359.618 457.231 354.783 456.867 349.94 456.572C344.357 456.232 338.774 455.885 333.187 455.651C330.187 455.524 327.179 455.627 324.053 455.627C324.145 454.957 324.249 454.191 324.352 453.425C324.204 453.387 324.056 453.353 323.908 453.315C323.598 454.129 323.287 454.947 323.013 455.658C321.655 455.84 320.349 456.015 318.932 456.204C319.021 455.359 319.099 454.624 319.173 453.889L318.707 453.748C318.359 454.463 318.189 455.376 317.604 455.84C317.071 456.263 316.094 456.201 315.277 456.359V451.955C314.104 453.377 315.17 455.696 312.413 455.943C313.101 454.39 314.507 453.047 312.698 451.368C313.993 451.117 314.973 450.87 315.969 450.766C316.353 450.725 316.831 450.938 317.167 451.165C317.726 451.539 318.203 452.02 318.714 452.457C319.102 451.869 319.487 451.285 319.935 450.605H319.939Z" fill="#F2F1E2"/>
<path d="M383.411 18.0538C387.518 16.247 388.25 14.0863 386.626 7.52536C389.871 9.02305 390.592 11.0875 389.538 15.8622C390.211 15.3997 390.79 13.8195 391.273 11.1219C392.572 13.8596 392.198 16.6008 391.11 19.3763C393.071 17.8718 392.768 15.718 393.145 13.2997C395.084 15.6218 394.118 17.8718 394.462 20.1458C394.847 19.05 395.232 17.9508 395.617 16.855C395.724 16.8069 395.831 16.7588 395.938 16.7107C396.312 18.3801 396.689 20.053 397.156 22.1312C397.433 21.2999 397.596 20.8053 397.759 20.3141C397.892 20.3141 398.025 20.3141 398.158 20.3141V24.1304C398.565 23.6701 398.88 23.3163 399.509 22.6087C399.716 24.5804 399.89 26.2396 400.064 27.9021C400.208 27.9227 400.352 27.9468 400.496 27.9674C400.696 27.4556 400.896 26.9472 401.192 26.1983C402.572 29.2624 403.871 32.1513 405.136 34.9577C397.829 29.2693 390.548 23.6049 383.415 18.0538H383.411Z" fill="#F2F1E2"/>
<path d="M394.177 447.431C394.222 444.889 394.262 442.464 392.461 440.386C393.041 443.986 394.717 447.751 390.552 450.275C390.552 448.214 390.833 446.05 390.478 443.979C390.067 441.602 388.039 440.314 385.601 439.609C390.685 437.456 395.691 435.333 400.811 433.165C401.525 435.522 402.62 437.926 400.648 440.836C400.567 439.17 400.508 437.937 400.448 436.7L399.923 436.707C399.649 439.599 399.853 442.639 396.819 445.044C397.167 442.303 397.736 439.788 395.861 437.377C396.112 441.042 396.852 444.532 394.181 447.431H394.177Z" fill="#F2F1E2"/>
<path d="M206.446 9.32877C203.127 8.42878 200.308 9.67571 197.426 10.5963C195.894 11.0841 194.34 11.9428 193.215 9.91273C193.086 9.67914 191.858 9.62075 191.51 9.89212C189.001 11.8398 186.042 11.4001 183.315 11.5616C183.873 10.1223 184.403 8.75168 184.995 7.22651C186.929 7.0685 187.063 7.27117 186.793 10.6203C186.952 10.6616 187.114 10.7028 187.274 10.7474C187.595 9.69289 187.914 8.63832 188.258 7.50819C189.93 7.29865 191.869 7.0582 193.944 6.79713C194.273 7.30209 194.655 7.89291 195.039 8.48031C194.821 6.88644 195.668 6.32653 197.078 5.67387C198.839 4.85976 199.483 6.10325 200.678 6.61851C200.448 6.15134 200.215 5.68417 199.986 5.22387C202.812 3.75367 206.261 5.85592 206.442 9.32877L206.446 9.32877Z" fill="#F2F1E2"/>
<path d="M198.358 449.176C200.445 449.805 202.494 450.698 204.636 450.979C206.468 451.22 208.406 450.76 210.29 450.608C210.408 452.852 209.328 454.713 207.422 454.779C207.663 454.147 207.885 453.559 208.107 452.972C208.014 452.896 207.922 452.821 207.833 452.745C207.333 453.267 206.838 453.786 206.268 454.38C204.585 453.789 202.195 454.514 201.029 452.323C198.872 454.133 199.594 451.794 199.283 450.646C198.661 451.536 198.317 452.037 197.969 452.536C197.796 452.467 197.618 452.398 197.444 452.333L198.188 449.368C198.254 449.31 198.314 449.248 198.362 449.179L198.358 449.176Z" fill="#F2F1E2"/>
<path d="M18.7878 454.494C17.1599 453.982 15.5135 453.511 13.9078 452.944C13.2308 452.707 12.6388 452.264 11.9507 451.886C12.6129 451.557 13.3788 451.172 14.1483 450.787L13.9781 450.409C12.6425 450.663 11.3032 450.921 9.96763 451.175C9.93063 451.069 9.89364 450.959 9.85294 450.852C10.4116 450.382 10.9703 449.908 11.8027 449.207C10.1156 449.183 9.0242 450.681 7.72189 449.406C9.55696 448.238 11.3365 447.108 13.0273 446.033C14.929 448.863 16.8343 451.691 18.736 454.521L18.7804 454.494H18.7878Z" fill="#F2F1E2"/>
<path d="M388.95 447.819C388.646 450.725 385.442 453.597 381.454 454.428C381.365 453.384 381.276 452.357 381.173 451.161C381.565 451.275 381.916 451.295 382.15 451.46C383.197 452.189 383.648 451.8 383.903 450.77C384.436 448.609 386.419 447.469 388.953 447.823L388.95 447.819Z" fill="#F7F6E6"/>
<path d="M14.9919 4.76014C16.494 4.24145 17.7038 3.8258 18.9136 3.40673C18.9876 3.53039 19.0653 3.65062 19.1393 3.77428C17.1895 6.05859 15.236 8.34291 13.4306 10.4589C12.2504 9.62762 10.9703 8.72076 9.66425 7.80017C10.7076 6.25783 11.8915 7.74177 13.6119 8.07497C12.9311 7.34674 12.55 6.93797 12.0617 6.41584C13.512 6.07233 14.8032 5.06242 16.3867 6.28531C16.457 6.14447 16.531 6.0002 16.6012 5.85936C16.1536 5.55364 15.7059 5.24792 14.9956 4.76014L14.9919 4.76014Z" fill="#F2F1E2"/>
<path d="M407.252 428.772C406.568 430.428 405.887 432.083 405.203 433.739C405.069 433.698 404.936 433.656 404.807 433.615L404.352 431.867C404.196 431.877 404.041 431.887 403.889 431.898C403.948 433.674 404.925 435.618 402.864 437.013C402.387 435.645 401.888 434.213 401.377 432.746C403.097 431.472 404.907 430.125 406.734 428.799C406.853 428.713 407.112 428.789 407.308 428.792L407.256 428.775L407.252 428.772Z" fill="#F2F1E2"/>
<path d="M189.094 451.704L189.682 449.774C189.586 449.726 189.49 449.674 189.39 449.626C188.58 450.591 187.769 451.553 186.881 452.611C186.656 450.821 186.463 449.286 186.249 447.592H192.183C191.132 449.2 190.263 450.526 189.397 451.849C189.297 451.8 189.194 451.752 189.094 451.708V451.704Z" fill="#F2F1E2"/>
<path d="M198.18 449.368C197.444 450.227 196.704 451.089 195.964 451.948C194.507 451.739 192.945 451.519 191.295 451.282C191.798 450.128 192.324 448.918 192.956 447.462C193.289 448.029 193.545 448.383 193.718 448.764C194.425 450.306 194.81 450.45 195.912 449.221C196.826 448.2 197.544 449.008 198.351 449.173C198.299 449.241 198.243 449.303 198.177 449.362L198.18 449.368Z" fill="#F2F1E2"/>
<path d="M11.7805 13.1829C11.059 10.6856 9.10189 9.95395 6.91165 9.44212C8.59132 8.34978 11.022 9.18793 12.8793 11.4207C12.5944 11.8776 12.2948 12.3619 11.7805 13.1829Z" fill="#F2F1E2"/>
<path d="M407.304 428.792L407.197 428.456C407.285 428.439 407.374 428.418 407.459 428.401C407.389 428.524 407.319 428.648 407.252 428.775L407.304 428.796V428.792Z" fill="#F2F1E2"/>
<path d="M18.7434 454.521C18.8248 454.576 18.9062 454.631 18.9876 454.689C18.9099 454.707 18.8285 454.724 18.7508 454.741C18.7619 454.658 18.773 454.576 18.7841 454.494L18.7397 454.521H18.7434Z" fill="#F2F1E2"/>
</svg>
