<svg width="170" height="64" viewBox="0 0 170 64" fill="none" xmlns="http://www.w3.org/2000/svg">
<path d="M169.802 45.0301C170.679 52.4877 168.622 58.7562 163.984 59.0183C111.786 61.713 59.5877 63.2058 7.3896 63.4999C2.74088 63.5271 -0.341026 57.0988 0.708447 48.1339C1.66818 39.8276 3.11463 30.6934 2.33967 22.3871L15.5616 24.5671C9.01238 22.9113 2.38296 16.6828 0.128809 14.9854C-0.518402 6.82452 3.03967 3.51126 7.3896 3.53684C59.5877 3.83092 110.919 2.89752 163.117 5.59224C167.755 5.85436 170.679 14.5491 169.802 22.0067C169.5 24.6183 169.302 27.2315 169.206 29.8431H154.712L167.395 33.9539C167.364 33.3258 167.341 32.4451 167.378 31.4829L169.144 34.5197C169.178 38.0232 169.398 41.5266 169.802 45.0301Z" fill="#202020"/>
<path d="M168.037 41.9933C168.913 49.4509 166.857 55.7194 162.219 55.9815C110.02 58.6763 57.8224 60.1691 5.62431 60.4632C0.97559 60.4903 -0.752767 53.2341 0.296706 44.2693C1.25644 35.963 1.34935 27.6566 0.574383 19.3503L6.83319 20.3818C0.284013 18.726 2.38296 16.6828 0.128809 14.9854C-0.518402 6.82452 1.27544 0.474504 5.62431 0.500077C57.8224 0.794162 110.02 2.28697 162.219 4.98168C166.857 5.2438 168.913 11.5123 168.037 18.9699C167.735 21.5815 167.537 24.1947 167.441 26.8063L164.863 28.3654L167.378 31.4829C167.413 34.9864 167.633 38.4898 168.037 41.9933Z" fill="#B77537"/>
<path d="M5.84918 20.2198H7.47253C5.29123 20.7233 2.94465 21.353 0.757014 21.5272C0.743289 21.3418 0.729563 21.158 0.714782 20.9742C2.4273 20.8383 4.13877 20.5714 5.84918 20.2198Z" fill="#804520"/>
<path d="M167.667 38.1302C166.882 38.5874 166.102 39.0477 165.326 39.5048C163.776 40.419 162.172 41.3652 160.589 42.2474C158.937 43.1393 157.344 43.5181 155.788 43.5181C151.51 43.5181 147.51 40.6491 143.339 37.6587C140.536 35.6481 137.638 33.5703 134.644 32.4499C132.58 31.7019 130.627 31.9225 128.822 32.2725C128.102 32.4339 127.347 32.5938 126.616 32.7456C125.993 32.8767 125.369 33.0077 124.753 33.1436L124.613 33.1739C117.761 34.6843 111.289 36.1116 104.521 34.9896C102.461 34.7307 100.58 34.6268 98.7761 34.6747C96.7437 34.7259 94.8506 34.9656 92.9924 35.4068L92.9766 35.41C91.792 35.5378 90.563 35.6049 89.3731 35.6705L88.6499 35.7104C87.0809 35.7983 85.6704 35.8111 84.3348 35.7488C82.6856 35.6976 81.2244 35.589 79.8655 35.4163C79.6195 35.3684 79.3725 35.3204 79.118 35.2709C77.9461 35.0439 76.6158 34.785 75.4005 34.4414C74.9381 34.3119 74.4778 34.1761 74.0143 34.0402C73.0176 33.7493 71.986 33.4472 70.9577 33.1931C69.3771 32.6737 67.8283 33.305 66.3301 33.9156L66.139 33.9939C65.4971 34.2736 64.7865 34.6252 64.0326 34.996C62.5313 35.736 60.8293 36.5751 59.3681 36.9811C57.3842 37.7195 55.2293 38.4915 52.9899 39.1132C46.5548 40.7834 40.2041 40.7834 34.0625 40.7834C31.6806 40.7834 29.2174 40.7834 26.788 40.8809L26.676 40.8857C24.9065 40.9448 23.0779 41.0072 21.5522 41.2645L21.5353 41.2677C21.2196 41.2773 20.9039 41.2885 20.5893 41.2997C18.5189 41.3764 16.5635 41.4499 14.4688 40.9656C12.1587 40.3567 9.86547 39.6358 7.64616 38.9374C5.36984 38.2213 3.13681 37.5181 0.918553 36.9411C0.929111 36.7557 0.938613 36.5703 0.948116 36.3849C3.18115 36.9667 5.42897 37.6731 7.72007 38.394C9.93515 39.0908 12.2263 39.8116 14.5269 40.4174C16.5878 40.8937 18.5273 40.8218 20.5819 40.745C20.8944 40.7339 21.207 40.7211 21.5216 40.7115C23.0599 40.4526 24.8949 40.3902 26.6687 40.3311L26.7806 40.3263C29.2132 40.2288 31.6785 40.2288 34.0625 40.2288C40.1893 40.2288 46.5242 40.2288 52.9277 38.5666C55.1565 37.948 57.305 37.1777 59.2931 36.4377C60.7428 36.0365 62.432 35.2022 63.9228 34.467C64.6799 34.0946 65.3936 33.7429 66.044 33.4584L66.2382 33.3801C67.7058 32.7808 69.3698 32.1031 71.0242 32.6481C72.0494 32.9006 73.082 33.2027 74.0818 33.4952C74.5443 33.6311 75.0046 33.7653 75.466 33.8964C76.6717 34.2368 77.9957 34.4941 79.1645 34.7195C79.4189 34.769 79.666 34.817 79.9035 34.8649C81.2476 35.0344 82.7025 35.143 84.3453 35.1942C85.6735 35.2565 87.0767 35.2437 88.6383 35.1558L89.3615 35.1159C90.545 35.0503 91.7687 34.9832 92.9459 34.8569C94.8189 34.4126 96.7236 34.1713 98.7719 34.1185C100.589 34.0722 102.481 34.1761 104.557 34.4366C111.283 35.5522 117.734 34.1297 124.564 32.6241L124.705 32.5938C125.321 32.4579 125.946 32.3268 126.569 32.1958C127.299 32.0439 128.054 31.8857 128.776 31.7227C130.617 31.3647 132.61 31.1409 134.731 31.9097C137.761 33.0445 140.675 35.135 143.494 37.1553C149.112 41.1846 154.418 44.9917 160.471 41.7248C162.05 40.8441 163.65 39.8995 165.199 38.9869C166.004 38.5122 166.813 38.0343 167.627 37.5628C167.64 37.7514 167.655 37.9416 167.669 38.1302H167.667Z" fill="#804520"/>
<path d="M168.096 42.5399C164.83 44.8574 161.453 47.2389 157.943 49.0945C156.667 49.6987 155.36 50.3172 153.985 50.3172C153.677 50.3172 153.366 50.2868 153.05 50.2165C150.549 49.8633 148.011 49.3742 145.555 48.9011C139.096 47.6577 132.417 46.3726 125.811 47.4419C124.597 47.6608 123.258 47.688 121.834 47.5218C119.248 47.2197 116.662 46.3151 114.16 45.4392C112.857 44.9837 111.509 44.5122 110.193 44.1382C108.541 43.5405 107.026 43.0258 105.547 42.5639C100.43 40.9656 95.8378 40.0354 91.509 39.7189C90.5303 39.6582 89.5632 39.6214 88.6288 39.5863C87.8844 39.5575 87.1147 39.5287 86.363 39.4888C84.5945 39.4872 82.7574 39.4888 80.9499 39.3018C79.3123 39.0237 77.9894 38.712 76.8966 38.3492L76.6105 38.2533C75.4079 37.8521 74.1642 37.4366 72.8941 37.2672C71.0696 36.8836 69.3983 37.4701 67.6287 38.0887C66.8854 38.3492 66.1168 38.6177 65.345 38.8047C64.4941 39.0908 63.66 39.4408 62.6939 39.8468C62.0013 40.1393 61.2844 40.4414 60.4598 40.761C58.5087 41.517 56.491 42.3002 54.4385 42.997C46.7248 45.5543 39.1884 46.3407 31.3997 45.4025C31.0587 45.3961 30.7113 45.3833 30.364 45.3721C29.2828 45.3321 28.1647 45.2922 26.8872 45.4456C25.1409 45.6582 23.4199 45.7781 21.7708 45.802C16.6237 46.0418 11.8683 43.9049 6.83319 41.6449C4.86622 40.7626 2.84329 39.8548 0.78341 39.094C0.797135 38.9086 0.810861 38.7232 0.821419 38.5378C2.9077 39.305 4.94963 40.2224 6.93349 41.1126C11.9401 43.3598 16.668 45.4824 21.7623 45.2474C23.4073 45.2235 25.1198 45.1036 26.8576 44.8926C28.1542 44.736 29.2818 44.7775 30.3724 44.8159C30.7177 44.8287 31.065 44.8415 31.4156 44.8479C39.181 45.7845 46.6826 45.0013 54.3604 42.4552C56.4065 41.76 58.4221 40.9784 60.3711 40.2224C61.1925 39.9043 61.9073 39.6023 62.5989 39.3114C63.5681 38.9038 64.4064 38.5522 65.2775 38.2597C66.0492 38.0727 66.8105 37.8058 67.5485 37.5485C69.2705 36.9443 71.0527 36.321 72.9331 36.7158C74.218 36.8868 75.4734 37.3055 76.6876 37.7115L76.9726 37.8058C78.0538 38.1654 79.3651 38.4739 80.9826 38.7488C82.7701 38.9326 84.6009 38.9326 86.3704 38.9326C87.1264 38.9741 87.896 39.0029 88.6393 39.0317C89.5748 39.0668 90.544 39.1036 91.5259 39.1643C95.8737 39.4824 100.484 40.4158 105.62 42.0205C107.101 42.484 108.622 42.9986 110.268 43.5948C111.584 43.9688 112.935 44.4419 114.242 44.899C116.73 45.7701 119.304 46.6699 121.862 46.9688C123.265 47.1318 124.579 47.1062 125.773 46.8905C132.423 45.8132 139.122 47.103 145.6 48.3497C148.053 48.8228 150.589 49.3103 153.093 49.6651C154.745 50.0295 156.313 49.2847 157.831 48.5671C161.353 46.7051 164.749 44.3044 168.036 41.9709C168.036 41.9789 168.035 41.9853 168.037 41.9933C168.059 42.1755 168.078 42.3593 168.096 42.5399Z" fill="#804520"/>
<path d="M168.231 45.6678C168.228 45.8804 168.222 46.0913 168.212 46.2991C166.238 47.7791 164.203 49.2975 162.166 50.7487C154.79 55.9624 146.74 55.9784 138.956 55.9943C134.267 56.0039 129.42 56.0135 124.786 57.1643L124.77 57.1675H124.755C123.313 57.1467 122.045 56.9981 120.882 56.7152C119.529 56.3843 118.284 55.8888 117.075 55.1984C107.131 49.411 97.3571 44.1063 87.1168 42.7733L85.9449 42.623C84.3791 42.4233 82.7606 42.2155 81.1811 41.9805C79.1972 41.6641 77.2218 41.4675 75.3129 41.3908C73.3079 41.3108 71.304 41.3636 69.356 41.5458C68.049 41.7648 66.7577 42.11 65.2975 42.631C64.0105 43.0897 62.8037 43.5868 61.4069 44.1622C60.9455 44.3508 60.4693 44.5474 59.9688 44.7504C58.78 45.2346 57.5669 45.7429 56.3939 46.2352C55.5862 46.574 54.7753 46.9145 53.9634 47.2501C46.5189 50.306 39.0269 50.2149 31.7809 50.1286C30.2236 50.1094 28.6124 50.0903 27.0245 50.103C25.294 50.1814 23.573 50.1558 21.9133 50.0263C17.1094 49.6539 12.6792 47.4611 7.99036 45.1403C5.83123 44.0711 3.59819 42.9651 1.34721 42.07C1.08432 41.9566 0.821419 41.8495 0.559578 41.752C0.577527 41.5682 0.593364 41.3844 0.610257 41.2006C0.887935 41.3028 1.16456 41.4147 1.44223 41.5346C3.69955 42.4328 5.93681 43.5405 8.10016 44.6113C12.7658 46.9208 17.1748 49.1041 21.9323 49.4717C23.5825 49.5996 25.294 49.6251 27.0192 49.5468C28.6124 49.534 30.2257 49.5548 31.7851 49.574C39.0068 49.6603 46.4746 49.7498 53.8705 46.7131C54.6824 46.3774 55.4922 46.0386 56.2999 45.6997C57.4729 45.2075 58.6871 44.6976 59.8781 44.2149C60.3774 44.0104 60.8536 43.8154 61.3139 43.6252C62.715 43.0482 63.9228 42.5511 65.2162 42.0892C66.6891 41.5634 67.9951 41.2149 69.3244 40.9928C71.2913 40.809 73.3069 40.7562 75.3214 40.8361C77.2398 40.9129 79.2247 41.1111 81.217 41.4275C82.7923 41.6641 84.4098 41.8702 85.9745 42.07L87.1464 42.2203C97.4331 43.558 107.233 48.8771 117.202 54.6773C118.387 55.355 119.609 55.8425 120.938 56.167C122.08 56.4451 123.326 56.5905 124.743 56.6113C129.4 55.4573 134.258 55.4477 138.955 55.4397C146.7 55.4237 154.711 55.4078 162.014 50.2453C164.108 48.7525 166.203 47.1878 168.231 45.6678Z" fill="#804520"/>
<path d="M110.358 58.2623C110.055 58.2751 109.752 58.2847 109.449 58.2959C108.055 57.428 106.675 56.5298 105.318 55.6475C98.8194 51.42 92.1013 47.0503 84.8754 46.5884H84.8606C83.1512 46.2544 81.4218 46.021 79.9553 45.8356C76.7594 45.4312 73.4652 45.3417 70.1648 45.5655C68.8598 45.6422 67.7333 45.7093 66.4885 46.061C65.3239 46.4222 64.1562 46.8409 63.0286 47.2453L62.7171 47.3556C61.3224 47.8415 59.7799 48.4232 57.7147 49.24C56.7602 49.6172 55.8058 50.0023 54.8471 50.3875C54.0743 50.6992 53.2993 51.0109 52.5212 51.3209C46.0702 53.9341 39.8589 53.9309 33.2791 53.9293H32.0089L31.8928 53.9357C30.7156 53.9949 29.4972 54.0572 28.2819 54.0716C26.3677 54.0972 24.461 53.9933 22.6175 53.7663C20.5133 53.5074 18.654 53.0998 16.7705 52.4845C13.6009 51.3305 10.4937 49.5852 7.48779 47.8958C5.99488 47.0567 4.45023 46.1888 2.9003 45.3945C2.03665 44.9613 1.1635 44.6241 0.28718 44.3684C0.291403 44.3348 0.29457 44.3028 0.298794 44.2693C0.316742 44.1206 0.33258 43.9704 0.348417 43.8218C1.24163 44.0807 2.13168 44.4243 3.01328 44.867C4.56743 45.6646 6.11418 46.5341 7.61132 47.3748C10.6066 49.0578 13.7033 50.7983 16.8486 51.9427C18.7142 52.5516 20.5576 52.956 22.645 53.2133C24.48 53.4387 26.3741 53.541 28.2798 53.517C29.4908 53.501 30.705 53.4403 31.8801 53.3811L32.0026 53.3747C32.4323 53.3747 32.8557 53.3747 33.2791 53.3747C39.8335 53.3779 46.0237 53.3811 52.4304 50.7855C53.2085 50.4754 53.9824 50.1638 54.7553 49.8521C55.715 49.4669 56.6694 49.0817 57.6239 48.7045C59.6933 47.8862 61.239 47.3044 62.6369 46.817L62.9462 46.7067C64.077 46.3007 65.2458 45.882 66.4188 45.5175C67.6931 45.1579 68.8302 45.0908 70.1479 45.0125C73.4631 44.7871 76.7731 44.8782 79.9827 45.2842C81.4514 45.4696 83.184 45.7029 84.8965 46.0354C92.1837 46.5037 98.9303 50.8926 105.456 55.1377C107.064 56.1845 108.703 57.249 110.358 58.2623Z" fill="#804520"/>
<path d="M167.801 49.6459C167.746 49.8985 167.686 50.143 167.62 50.3827C164.605 52.5213 161.519 54.5079 158.335 56.1797C157.911 56.2005 157.488 56.2229 157.062 56.2437C160.759 54.4088 164.326 52.1233 167.801 49.6459Z" fill="#804520"/>
<path d="M101.076 58.5868C100.756 58.5995 100.436 58.6091 100.117 58.6187C97.1586 56.8574 94.1907 54.85 91.2186 52.5964C89.2781 51.1915 87.0229 50.4067 84.698 50.33L84.6716 50.3252C83.1343 49.9272 81.5147 49.6331 79.855 49.4557C77.0096 49.1489 73.9372 49.1552 70.188 49.4765H70.1637L70.1405 49.4701C69.072 49.1201 67.161 49.6907 65.4749 50.1925C65.1909 50.2773 64.9121 50.3604 64.645 50.4371C62.7108 50.9901 60.7945 51.6742 59.1485 52.2735C58.5488 52.4877 57.948 52.7035 57.3462 52.9192C56.3759 53.2677 55.3719 53.6289 54.3762 53.9773C52.4832 54.6406 50.9354 55.1504 49.5047 55.5804C45.5191 56.9229 41.7097 57.0668 38.1495 57.1004C37.2373 57.1355 36.3071 57.1531 35.4097 57.1691C34.6263 57.1835 33.8165 57.1978 33.0035 57.225C30.0557 57.388 27.0794 57.3065 24.1569 56.9821C22.6513 56.8159 21.1668 56.5857 19.7447 56.298C15.5784 55.8489 11.616 53.3667 7.78553 50.9661C7.08658 50.5282 6.36547 50.0759 5.65596 49.6443C3.90121 48.639 2.03982 47.9421 0.0348417 47.5554C0.0422323 47.3716 0.0517346 47.1846 0.0622927 46.9992C2.10211 47.3923 3.99834 48.102 5.78583 49.1265C6.49955 49.5612 7.22173 50.0135 7.92173 50.4515C11.7269 52.8361 15.6619 55.3007 19.7816 55.745C21.208 56.0343 22.6861 56.2628 24.1833 56.4291C27.092 56.7519 30.0567 56.8318 32.994 56.6704C33.8112 56.6432 34.6221 56.6289 35.4055 56.6145C36.304 56.5985 37.232 56.5809 38.1442 56.5458C41.6886 56.5122 45.4779 56.3683 49.4329 55.037C50.8636 54.607 52.4071 54.0988 54.296 53.4371C55.2916 53.0886 56.2957 52.7274 57.266 52.379C57.8667 52.1616 58.4685 51.9459 59.0672 51.7333C60.7164 51.1323 62.6379 50.4467 64.5796 49.8921C64.8467 49.8153 65.1233 49.7322 65.4073 49.6475C67.1156 49.1393 69.0509 48.5639 70.1922 48.9187C73.9456 48.5991 77.0254 48.5943 79.8814 48.9011C81.5464 49.0801 83.1734 49.3742 84.7191 49.7754C87.0894 49.8553 89.39 50.6576 91.3738 52.0961C94.6162 54.5527 97.8523 56.7184 101.076 58.5868Z" fill="#804520"/>
<path d="M165.855 54.0572C165.077 55.005 164.114 55.6427 162.969 55.8825C163.93 55.2975 164.891 54.6885 165.855 54.0572Z" fill="#804520"/>
<path d="M22.1963 59.4642C23.7082 59.8334 25.2528 60.1051 26.827 60.2778C25.7163 60.2905 24.6067 60.3033 23.4949 60.3145H23.4917C23.0377 60.2234 22.588 60.1211 22.1403 60.0124C20.5207 59.6145 18.9042 59.0982 17.3364 58.4765L17.3237 58.4701L16.2531 57.9139C11.1229 55.2415 5.61796 52.3726 0.0654601 51.1819C0.0527904 50.9949 0.0422323 50.8063 0.0337859 50.6145C5.64329 51.8004 11.1947 54.6917 16.3682 57.388L17.4314 57.9411C18.9855 58.558 20.5893 59.071 22.1963 59.4642Z" fill="#804520"/>
<path d="M95.5242 58.769C95.2159 58.7802 94.9076 58.7897 94.5993 58.7993C93.9479 58.3982 93.306 57.9986 92.6714 57.6006C89.5188 55.6587 86.3197 54.7525 83.6052 54.1227C81.822 53.6896 80.0165 53.4019 78.2417 53.2661C76.4236 53.1286 74.5844 53.1462 72.7726 53.3204H72.7547L72.7367 53.3188C71.7189 53.1078 70.5185 53.0695 69.0646 53.1989C67.7385 53.3188 66.3449 53.5841 65.2247 53.7967C63.0518 54.2106 60.7079 54.8532 57.8477 55.8185C57.2522 56.0087 56.6568 56.1989 56.0613 56.3907C55.0087 56.728 53.918 57.0764 52.8369 57.4136C50.8572 58.0306 49.2249 58.5068 47.6993 58.9112L47.2886 59.0167C45.6215 59.4466 44.0293 59.8558 42.3791 60.0572C40.4037 60.0908 38.4261 60.1211 36.4507 60.1499C36.4887 60.1451 36.5289 60.1403 36.5669 60.1355C37.3777 60.0268 38.1844 59.9437 38.9646 59.8638C39.7206 59.7855 40.5019 59.7056 41.2737 59.6033C43.3071 59.4802 45.2129 58.9895 47.2305 58.4701L47.6412 58.3646C49.1616 57.9602 50.7918 57.4855 52.7672 56.8702C53.8494 56.533 54.9369 56.1845 55.9895 55.8473C56.586 55.6555 57.1815 55.4653 57.7749 55.2767C60.6435 54.3081 62.998 53.6624 65.1824 53.2469C66.3079 53.0327 67.7079 52.7658 69.0456 52.6459C70.5132 52.5133 71.7316 52.5532 72.7695 52.7642C74.5876 52.5916 76.4352 52.5724 78.2607 52.7114C80.0493 52.8473 81.8663 53.1382 83.6622 53.5745C86.3957 54.209 89.6212 55.1217 92.8087 57.086C93.6987 57.6438 94.6046 58.2064 95.5264 58.769H95.5242Z" fill="#804520"/>
<path d="M16.3851 60.3848C15.8677 60.3896 15.3504 60.3944 14.833 60.3992C14.7021 60.3529 14.5702 60.3049 14.4361 60.2554C14.0306 60.1083 13.6136 59.9565 13.1786 59.7999L13.1511 59.7855C9.01132 57.1611 4.77331 55.5276 0.598643 54.9043C0.553243 54.7173 0.509955 54.5239 0.471946 54.3289C4.72896 54.9395 9.05356 56.5905 13.2747 59.2644C13.7044 59.4179 14.1183 59.5697 14.5184 59.7152C15.172 59.9533 15.7875 60.1771 16.3851 60.3848Z" fill="#804520"/>
<path d="M88.5496 58.9863C88.1378 58.9991 87.7239 59.0119 87.3121 59.0231H87.31C86.6005 58.7498 85.9322 58.566 85.2702 58.4621L85.2544 58.4589C84.0846 58.1073 81.7987 57.4935 79.629 57.3209C77.7814 57.1723 75.9401 57.2602 74.16 57.5782L74.1325 57.583L74.1061 57.5766C72.7589 57.2122 71.2692 57.1291 69.8301 57.0476L69.5545 57.0332C66.2615 56.8446 63.3337 57.3113 60.6023 58.4589L60.5875 58.4637C59.1548 58.8713 57.6999 59.3092 56.2936 59.7311L56.1194 59.7839C56.0951 59.7903 56.0719 59.7983 56.0476 59.8063H56.0444C55.3719 59.8206 54.6982 59.8334 54.0246 59.8462C54.7025 59.6448 55.3771 59.4419 56.0507 59.2389L56.225 59.1861C57.6292 58.7642 59.082 58.3278 60.5147 57.9203C63.2788 56.7599 66.2393 56.2884 69.5661 56.4786L69.8428 56.493C71.285 56.5745 72.7779 56.6576 74.1431 57.0236C75.9348 56.704 77.7877 56.6177 79.647 56.7663C81.8346 56.9405 84.1331 57.5575 85.3135 57.9107C86.3408 58.0737 87.3787 58.4173 88.5496 58.9863Z" fill="#804520"/>
<path d="M9.75778 60.4376C9.289 60.4408 8.82022 60.444 8.3525 60.4456H8.35039C6.41931 59.7168 4.44073 59.2117 2.43469 58.9304C2.26682 58.7338 2.10739 58.5196 1.95747 58.2879C4.62022 58.6123 7.22806 59.3316 9.75778 60.4376Z" fill="#804520"/>
</svg>
