<svg width="96" height="172" viewBox="0 0 96 172" fill="none" xmlns="http://www.w3.org/2000/svg">
<path d="M88.3006 66.9016C87.3287 47.4313 76.1883 28.2864 57.9585 21.5208C29.956 11.1282 16.3734 1.86451 -21.3772 0.949806C-28.8461 0.768836 -36.3618 3.14263 -41.5117 8.57585C-68.2429 36.7777 -47.8685 70.0348 -44.1533 109.638C-42.3327 129.046 -31.1024 148.515 -12.2329 153.206C12.7869 159.427 26.9292 162.943 55.469 170.039C69.3781 173.497 84.8293 168.434 90.1523 155.084C102.417 124.323 89.9124 99.1926 88.3006 66.9016ZM-31.0825 74.6884C-24.0693 73.8096 -17.7182 72.7358 -11.3275 72.2934C-7.0362 71.996 -4.33835 70.0519 -3.14691 66.2021C-1.8081 61.8812 -1.10279 57.3725 0.193319 53.0409C1.8676 47.4315 3.41725 41.7154 5.79094 36.3936C8.99792 29.2097 15.1608 25.8532 22.8354 27.208C29.3748 28.3564 35.8418 30.3735 42.0634 32.739C46.2278 34.32 50.1711 35.2701 54.5172 34.2966C56.5416 33.845 58.5518 33.2684 60.5977 32.913C67.2388 31.7674 73.9174 36.5506 74.4233 43.2098C74.818 48.4317 74.4673 53.7031 74.5774 58.9452C74.7516 67.1819 75.479 75.2908 78.9035 82.9789C80.3057 86.1243 80.9519 89.4532 78.4613 92.6919C73.176 99.5712 73.2732 101.369 77.9909 108.689C80.3258 112.309 82.3423 116.145 84.8412 120.473C79.4681 120.592 75.0717 120.674 70.6753 120.786C68.462 120.842 65.7795 121.782 64.1349 120.858C59.7743 118.394 56.5278 119.323 53.4035 122.222C51.6008 121.751 49.6085 122.408 48.1616 121.783C43.7658 119.886 38.677 122.358 34.5259 119.355C34.0204 118.987 33.0971 119.235 32.3783 119.117C29.8462 118.692 27.2039 118.558 24.8246 117.701C21.308 116.433 17.9869 114.621 14.5591 113.087C11.4108 111.675 10.365 112.264 9.52565 115.792C9.10685 117.537 8.66135 119.268 8.22832 121.01C7.78357 121.097 7.33882 121.183 6.88695 121.268C6.42867 119.646 5.39386 117.941 5.6153 116.412C6.15205 112.672 7.1461 108.978 8.18999 105.326C9.19126 101.816 8.49737 98.9829 6.17369 96.139C4.43406 94.0162 2.84007 91.4901 2.08226 88.8838C-0.278539 80.7478 -5.17916 76.8993 -13.6781 77.5527C-18.3786 77.9151 -23.0503 78.7394 -27.763 79.3641C-28.6819 78.0745 -29.583 76.8045 -31.0896 74.6867L-31.0825 74.6884ZM29.6803 24.726C28.0272 24.4439 26.9827 24.2372 25.9258 24.0805C13.9505 22.3614 6.66518 26.0982 1.78105 37.1399C-0.276357 41.7975 -1.47949 46.8495 -2.84283 51.7858C-3.95232 55.7924 -4.5938 59.9229 -5.68194 63.9347C-6.54995 67.1524 -8.47048 68.7971 -12.212 69.1327C-19.115 69.7509 -26.039 70.8186 -32.7741 72.4336C-36.3836 73.3022 -38.4037 72.2467 -40.1224 69.5531C-43.4688 64.3175 -44.6627 58.6013 -44.0759 52.3805C-43.733 48.7518 -44.0414 45.0673 -44.001 41.4089C-43.9623 37.7576 -44.0038 34.0941 -43.7107 30.453C-43.4441 27.1616 -41.5079 25.0584 -38.502 23.4864C-33.6463 20.9494 -29.0365 17.942 -24.2966 15.1715C-21.1823 13.3461 -18.1928 11.1409 -14.8558 9.87867C-8.43433 7.4581 -1.85428 8.23 4.56285 10.2347C13.7668 13.0991 23.1449 15.6884 29.6768 24.71L29.6803 24.726ZM79.881 146.29C80.0698 146.686 80.2516 147.08 80.4404 147.476C76.9449 151.382 73.6186 155.458 69.9183 159.154C65.6224 163.453 60.2824 165.293 54.1684 164.47C48.236 163.678 42.2185 163.258 36.4067 161.949C28.4418 160.151 19.7994 159.101 12.9665 155.121C3.46552 149.59 -6.47709 146.232 -16.8304 143.309C-18.9908 142.696 -21.4614 141.021 -22.5462 139.121C-27.8986 129.764 -31.9488 120.215 -28.1964 108.831C-25.483 100.593 -21.8783 92.022 -27.5454 83.0487C-25.0246 82.4855 -23.034 81.9269 -21.0112 81.6642C-20.4099 81.5864 -19.253 82.2226 -19.1175 82.7414C-17.4 89.1789 -14.2843 95.3426 -15.6267 102.384C-16.7209 108.122 -15.4153 110.349 -10.133 112.875C-6.72123 114.504 -2.95923 115.667 -0.00965511 117.908C2.64799 119.926 5.43608 122.817 6.36141 125.874C8.06055 131.504 7.57853 131.74 13.0139 131.553C13.7262 135.255 15.6385 137.534 19.3387 136.604C20.5141 138.413 21.2059 140.646 22.6564 141.378C24.1336 142.124 26.3465 141.401 28.4246 141.312C30.0229 145.127 32.1843 147.287 35.6197 146.845C37.6425 146.582 39.4597 144.715 41.9283 143.236C42.2187 143.832 42.8086 145.35 43.6616 146.692C44.2155 147.564 45.0274 148.494 45.9404 148.865C51 150.919 56.0678 151.785 60.3891 148.357C62.2968 148.831 64.6479 150.014 65.1884 149.451C67.9568 146.555 70.9318 146.688 74.3022 147.693C74.8717 147.865 75.6435 147.253 76.3426 147.086C77.5114 146.793 78.7015 146.566 79.8757 146.312L79.881 146.29ZM-15.9782 81.0283C-14.7364 80.8974 -13.902 80.7638 -13.0694 80.7283C-6.6199 80.4142 -3.0169 83.3716 -1.10038 89.4948C-0.139451 92.5608 1.95461 95.2643 3.51324 98.1455C4.19191 99.3981 5.51832 100.812 5.31976 101.945C4.56099 106.304 3.30043 110.584 2.23736 114.859C-1.89337 113.021 -5.56135 111.389 -9.2347 109.748C-12.0573 108.486 -12.9553 106.534 -12.6406 103.293C-12.2818 99.5999 -12.6009 95.7763 -13.1654 92.0887C-13.7139 88.4886 -14.9438 84.9843 -15.98 81.0354L-15.9782 81.0283ZM51.7164 124.478C54.2438 131.488 56.6195 137.862 58.8298 144.293C59.68 146.771 57.6898 147.905 55.907 147.932C52.6315 147.974 49.3502 147.371 46.1065 147.042L51.7164 124.478ZM43.6222 140.497C43.1613 140.496 42.7005 140.495 42.2397 140.494C41.5163 136.017 40.6203 131.565 40.1514 127.067C39.9115 124.81 41.0633 122.974 43.7909 123.129C46.5133 123.275 48.4283 124.236 48.3467 127.513C48.2271 132.463 45.938 136.472 43.6275 140.506L43.6222 140.497ZM65.0699 147.709C64.4471 147.63 63.819 147.542 63.1962 147.463C61.8877 143.454 60.5793 139.445 59.0765 134.85C63.5801 135.492 67.0712 135.981 71.4432 136.606C69.1398 140.611 67.1013 144.159 65.0627 147.707L65.0699 147.709ZM65.603 132.554C63.0318 132.225 61.1349 131.86 59.2169 131.762C56.5159 131.621 55.3457 129.61 55.5277 127.631C55.6921 125.845 57.0324 123.89 58.414 122.619C58.9421 122.136 61.736 122.937 62.249 123.853C63.6473 126.345 64.3786 129.21 65.603 132.554ZM36.6603 135.151C38.6817 135.593 39.4123 137.366 38.4828 141.713C38.041 143.763 37.1256 145.074 34.7233 144.522C31.5255 143.796 30.1823 141.021 30.7918 137.049C31.3376 133.456 33.5712 134.534 36.6674 135.152L36.6603 135.151ZM73.6287 131.98C68.2507 132.939 68.0816 132.859 66.3857 126.579C66.1306 125.629 66.7135 124.44 66.9049 123.365C68.0901 123.705 69.8711 123.686 70.336 124.461C71.6682 126.672 72.4651 129.212 73.6287 131.98ZM23.3104 128.838C25.5638 130.353 28.2048 131.373 28.1609 132.249C28.0396 134.531 27.1551 137.055 25.7898 138.898C24.3587 140.824 22.721 139.386 22.622 137.595C22.4851 135.014 22.9906 132.404 23.3104 128.838ZM36.8986 129.389C36.1836 129.833 35.4369 130.678 34.823 130.593C33.9244 130.468 32.5523 129.817 32.381 129.137C31.9173 127.294 31.7292 125.284 31.9611 123.409C32.0425 122.747 33.7926 121.636 34.5275 121.811C39.1666 122.911 36.0446 126.501 36.8968 129.396L36.8986 129.389ZM77.3871 135.832C76.6859 144.003 75.1124 145.802 70.6879 143.687C71.6328 141.132 72.576 138.555 73.5955 135.792C74.7858 135.807 75.9619 135.819 77.3871 135.832ZM16.6234 125C18.4893 127.01 20.7017 128.356 20.6278 129.565C20.5274 131.185 18.5667 134.055 17.5703 133.989C14.7519 133.804 15.5401 131.029 15.6438 129.061C15.6895 128.148 16.0644 127.248 16.6216 125.007L16.6234 125ZM29.437 127.208C24.6046 127.158 23.5969 126.104 24.8186 122.255C25.108 121.334 26.3333 120.479 27.3153 120.147C27.687 120.019 28.9707 121.392 29.1563 122.227C29.5078 123.822 29.3701 125.531 29.437 127.208ZM79.9541 123.866C83.4924 122.949 84.4698 123.943 85.4423 128.512C85.992 131.105 84.6364 131.359 82.5991 131.345C81.7329 128.901 80.8952 126.525 79.9612 123.868L79.9541 123.866ZM76.3528 132.21C75.3598 129.03 74.4666 126.178 73.4718 122.974C78.8419 123.658 78.0175 128.281 79.8503 131.457C78.509 131.746 77.607 131.938 76.3528 132.21ZM79.1141 143.417C79.5961 137.465 80.273 135.898 82.5323 135.474C82.7222 140.304 81.8765 142.277 79.1141 143.417ZM12.3844 115.086C15.7585 116.106 15.8369 116.399 13.822 120.764C10.5407 119.978 10.5085 119.834 12.3844 115.086ZM9.25266 123.061C12.5981 123.863 13.9511 125.078 12.5718 127.373C12.0564 128.23 10.6012 128.52 9.57848 129.077C9.48123 127.218 9.37686 125.358 9.25088 123.068L9.25266 123.061ZM21.5731 124.79C20.3983 124.074 19.1526 123.703 19.09 123.195C18.9058 121.656 19.1076 120.054 19.3629 118.511C19.4019 118.263 21.0048 117.987 21.0315 118.062C21.4521 119.136 21.8691 120.256 21.9855 121.399C22.0857 122.303 21.7803 123.258 21.5713 124.797L21.5731 124.79Z" fill="#613317"/>
<path d="M-31.0825 74.6884C-29.5759 76.8063 -28.6749 78.0763 -27.756 79.3658C-23.045 78.7484 -18.3804 77.9223 -13.671 77.5545C-5.17922 76.8993 -0.271464 80.7495 2.08934 88.8856C2.84714 91.4919 4.43402 94.0162 6.18077 96.1407C8.50622 98.9776 9.19834 101.818 8.19707 105.328C7.15496 108.972 6.16804 112.668 5.62239 116.413C5.40095 117.942 6.42863 119.646 6.89403 121.27C7.33878 121.183 7.78353 121.097 8.2354 121.012C8.66843 119.27 9.11393 117.539 9.53273 115.794C10.3721 112.266 11.4108 111.675 14.5662 113.089C17.994 114.623 21.3134 116.441 24.8317 117.703C27.211 118.56 29.8533 118.693 32.3854 119.118C33.1042 119.236 34.0257 118.996 34.533 119.357C38.6823 122.367 43.7729 119.888 48.1687 121.784C49.6156 122.409 51.6097 121.745 53.4106 122.224C56.5349 119.324 59.7814 118.396 64.142 120.859C65.7848 121.791 68.4691 120.844 70.6824 120.788C75.0788 120.676 79.4752 120.594 84.8483 120.474C82.3494 116.147 80.3329 112.31 77.998 108.691C73.2732 101.369 73.1759 99.5712 78.4684 92.6937C80.9608 89.4478 80.3128 86.1261 78.9106 82.9807C75.4861 75.2926 74.7533 67.1747 74.5844 58.9469C74.4744 53.7049 74.8251 48.4335 74.4304 43.2116C73.9245 36.5524 67.2459 31.7691 60.6047 32.9148C58.5589 33.2702 56.5576 33.8414 54.5242 34.2984C50.1853 35.2737 46.2349 34.3218 42.0705 32.7407C35.8488 30.3753 29.3801 28.3653 22.8425 27.2098C15.1679 25.855 9.00499 29.2115 5.79801 36.3953C3.42432 41.7171 1.86932 47.4244 0.200387 53.0427C-1.0886 57.376 -1.80279 61.8901 -3.13983 66.2039C-4.33127 70.0536 -7.02913 71.9978 -11.3204 72.2952C-17.7111 72.7376 -24.0605 73.8042 -31.0754 74.6902L-31.0825 74.6884ZM31.6892 64.6765C32.0986 64.8541 32.515 65.0334 32.9226 65.2181C33.8596 64.1853 35.3304 63.2852 35.6357 62.0878C36.6279 58.2188 37.1004 54.2206 37.9875 50.318C38.2413 49.2063 39.2157 48.2661 39.8556 47.2428C40.5982 48.2991 42.0561 49.4271 41.9588 50.3958C41.5362 54.4973 40.6776 58.5587 39.9311 62.6251C39.1385 66.9075 36.2468 68.9626 32.1956 69.1454C21.7874 69.6046 14.3207 67.8392 11.8061 55.6402C11.5598 54.442 11.1694 53.2762 10.9071 52.0817C8.99616 43.4435 14.4725 34.7623 23.1236 32.8885C28.8342 31.6555 33.4615 33.8064 37.1401 38.0711C37.733 38.7567 37.451 40.1949 37.5726 41.2862C36.4926 41.192 35.2473 41.3978 34.3663 40.9287C33.172 40.2907 32.2496 39.1367 31.2118 38.204C33.8275 47.1084 37.1387 55.6475 31.6981 64.6711L31.6892 64.6765ZM65.1902 78.7963C69.1321 80.2387 70.7968 82.0851 70.8846 85.927C71.0054 91.2778 71.112 96.6251 71.0744 101.974C71.0355 107.998 65.4406 112.079 60.7382 109.288C53.4104 104.927 48.5402 98.4638 46.8873 89.9731C45.9127 84.9861 48.3851 81.1517 53.3236 80.0753C57.1911 79.233 61.2299 79.1912 65.192 78.7892L65.1902 78.7963ZM49.2267 47.1852C50.6584 40.5453 53.2119 38.3 57.7561 38.3838C62.9034 38.4736 66.6952 41.675 67.5522 46.4964C68.5343 52.0007 69.4576 57.5283 70.6958 62.975C72.0357 68.8639 68.9406 72.8618 62.9458 71.9247C59.7803 71.4332 56.7511 69.8767 53.7398 68.6126C50.0879 67.068 48.3246 64.0374 48.4129 60.1862C48.529 55.3112 49.0135 50.4444 49.232 47.1941L49.2267 47.1852Z" fill="#F0D1AD"/>
<path d="M29.6803 24.726C23.1485 15.7045 13.7614 13.1205 4.56639 10.2507C-1.85252 8.25312 -8.43791 7.47231 -14.8523 9.89465C-18.1893 11.1569 -21.1788 13.3621 -24.293 15.1875C-29.0258 17.9597 -33.6356 20.9672 -38.4984 23.5024C-41.5026 25.0672 -43.4388 27.1704 -43.7072 30.469C-43.9985 34.1029 -43.957 37.7665 -43.9974 41.4249C-44.0378 45.0833 -43.7295 48.7678 -44.0723 52.3965C-44.6609 58.6244 -43.4653 64.3334 -40.1188 69.5691C-38.4002 72.2627 -36.3872 73.3164 -32.7706 72.4496C-26.0337 70.8275 -19.1114 69.7669 -12.2084 69.1487C-8.46692 68.8131 -6.5464 67.1684 -5.67839 63.9507C-4.59025 59.9388 -3.94877 55.8084 -2.83927 51.8018C-1.47593 46.8655 -0.271033 41.8064 1.7846 37.1559C6.67051 26.1071 13.9541 22.3774 25.9293 24.0965C26.988 24.2461 28.0397 24.4545 29.6839 24.742L29.6803 24.726Z" fill="#F0D1AD"/>
<path d="M79.881 146.29C78.6998 146.543 77.5167 146.771 76.348 147.064C75.647 147.239 74.877 147.843 74.3076 147.671C70.9371 146.667 67.9604 146.54 65.1937 149.43C64.6532 149.993 62.3021 148.81 60.3945 148.335C56.0802 151.765 51.0053 150.897 45.9457 148.844C45.0328 148.473 44.2137 147.541 43.667 146.67C42.8156 145.322 42.224 143.81 41.9336 143.215C39.465 144.693 37.6478 146.561 35.625 146.823C32.1878 147.272 30.0283 145.106 28.4299 141.29C26.3589 141.382 24.1389 142.103 22.6617 141.357C21.2129 140.618 20.5194 138.391 19.344 136.583C15.6349 137.518 13.7315 135.233 13.0193 131.532C7.59096 131.721 8.06764 131.475 6.36673 125.853C5.44139 122.796 2.66042 119.906 -0.00433885 117.887C-2.95392 115.645 -6.7177 114.49 -10.1277 112.854C-15.41 110.328 -16.7085 108.102 -15.6214 102.362C-14.2808 95.3283 -17.4036 89.1629 -19.1122 82.7201C-19.2477 82.2013 -20.4046 81.565 -21.0059 81.6429C-23.0287 81.9055 -25.0122 82.4659 -27.5401 83.0274C-21.873 92.0006 -25.4777 100.571 -28.1911 108.81C-31.9363 120.195 -27.8933 129.743 -22.5408 139.1C-21.4561 140.999 -18.9873 142.682 -16.8251 143.288C-6.47178 146.21 3.47084 149.569 12.9718 155.099C19.8047 159.08 28.4471 160.129 36.412 161.928C42.2238 163.236 48.2414 163.656 54.1738 164.449C60.2877 165.272 65.6206 163.429 69.9237 159.133C73.6257 155.43 76.9503 151.36 80.4457 147.454C80.2569 147.059 80.0752 146.665 79.8863 146.269L79.881 146.29Z" fill="#F0D1AD"/>
<path d="M-15.9765 81.0212C-14.9421 84.9772 -13.7104 88.4743 -13.1619 92.0745C-12.5974 95.762 -12.2801 99.5927 -12.6371 103.279C-12.9518 106.52 -12.0556 108.479 -9.23122 109.734C-5.55787 111.375 -1.88987 113.007 2.24086 114.845C3.3057 110.562 4.55737 106.288 5.32325 101.93C5.52004 100.805 4.19363 99.391 3.51673 98.1312C1.9581 95.2501 -0.143083 92.5448 -1.0969 89.4805C-3.01341 83.3573 -6.61641 80.3999 -13.0659 80.714C-13.9003 80.7567 -14.7329 80.8832 -15.9747 81.0141L-15.9765 81.0212Z" fill="#F0D1AD"/>
<path d="M51.7254 124.473L46.1154 147.036C49.3592 147.365 52.6404 147.969 55.9159 147.927C57.6987 147.9 59.6889 146.765 58.8387 144.288C56.6284 137.857 54.2545 131.476 51.7254 124.473Z" fill="#F0D1AD"/>
<path d="M43.631 140.491C45.9397 136.465 48.2288 132.456 48.3503 127.499C48.4318 124.222 46.5168 123.261 43.7945 123.115C41.0651 122.967 39.9222 124.797 40.1549 127.053C40.6239 131.55 41.5252 136.011 42.2432 140.48C42.7041 140.481 43.1649 140.482 43.6257 140.483L43.631 140.491Z" fill="#F0D1AD"/>
<path d="M65.0788 147.704C67.1174 144.155 69.1559 140.607 71.4592 136.602C67.0855 135.984 63.589 135.487 59.0926 134.846C60.5882 139.44 61.9038 143.45 63.2123 147.459C63.835 147.538 64.4632 147.626 65.0859 147.705L65.0788 147.704Z" fill="#F0D1AD"/>
<path d="M65.6066 132.539C64.3821 129.196 63.6508 126.331 62.2526 123.838C61.7396 122.922 58.9457 122.122 58.4176 122.604C57.0359 123.875 55.6885 125.829 55.5313 127.617C55.3564 129.597 56.5213 131.599 59.2204 131.748C61.1367 131.853 63.0354 132.211 65.6066 132.539Z" fill="#F0D1AD"/>
<path d="M36.6692 135.145C33.5729 134.527 31.3393 133.449 30.7936 137.042C30.1912 141.016 31.5344 143.79 34.725 144.515C37.1362 145.062 38.0517 143.751 38.4845 141.706C39.4141 137.359 38.6835 135.586 36.6621 135.144L36.6692 135.145Z" fill="#F0D1AD"/>
<path d="M73.6394 131.967C72.4776 129.192 71.6789 126.659 70.3467 124.448C69.8818 123.673 68.0937 123.691 66.9157 123.353C66.7224 124.434 66.1342 125.614 66.3964 126.566C68.0924 132.847 68.2686 132.928 73.6394 131.967Z" fill="#F0D1AD"/>
<path d="M23.3211 128.825C23.0031 132.384 22.4887 135 22.6327 137.583C22.7317 139.373 24.3677 140.818 25.8005 138.886C27.1658 137.042 28.0503 134.518 28.1716 132.237C28.2155 131.361 25.5745 130.34 23.3211 128.825Z" fill="#F0D1AD"/>
<path d="M36.9092 129.376C36.057 126.481 39.179 122.892 34.5399 121.792C33.805 121.616 32.0549 122.727 31.9735 123.389C31.7487 125.266 31.9297 127.274 32.3934 129.118C32.5646 129.797 33.9368 130.449 34.8354 130.574C35.4493 130.658 36.196 129.813 36.911 129.369L36.9092 129.376Z" fill="#F0D1AD"/>
<path d="M77.3977 135.82C75.9726 135.806 74.7965 135.795 73.6062 135.779C72.5866 138.542 71.6364 141.118 70.6986 143.674C75.123 145.79 76.6965 143.99 77.3977 135.82Z" fill="#F0D1AD"/>
<path d="M16.6341 124.987C16.075 127.236 15.7019 128.128 15.6562 129.042C15.5525 131.009 14.7643 133.785 17.5827 133.97C18.5791 134.036 20.5398 131.165 20.6402 129.546C20.7141 128.336 18.5017 126.99 16.6358 124.98L16.6341 124.987Z" fill="#F0D1AD"/>
<path d="M29.4476 127.195C29.3807 125.519 29.5256 123.812 29.1669 122.214C28.9832 121.373 27.6977 120.007 27.3259 120.134C26.344 120.466 25.1169 121.328 24.8292 122.242C23.6075 126.092 24.6152 127.146 29.4476 127.195Z" fill="#F0D1AD"/>
<path d="M79.9665 123.846C80.9005 126.504 81.7453 128.882 82.6045 131.324C84.6488 131.339 85.9973 131.083 85.4476 128.491C84.4804 123.93 83.5048 122.93 79.9594 123.845L79.9665 123.846Z" fill="#F0D1AD"/>
<path d="M76.3564 132.196C77.6088 131.931 78.5125 131.731 79.8539 131.443C78.021 128.266 78.8366 123.649 73.4753 122.96C74.4719 126.156 75.3634 129.015 76.3564 132.196Z" fill="#F0D1AD"/>
<path d="M79.1248 143.404C81.8855 142.271 82.7329 140.292 82.543 135.462C80.2837 135.885 79.6139 137.455 79.1248 143.404Z" fill="#F0D1AD"/>
<path d="M12.3951 115.073C10.5192 119.821 10.5531 119.959 13.8327 120.751C15.8476 116.386 15.7691 116.094 12.3951 115.073Z" fill="#F0D1AD"/>
<path d="M9.26332 123.049C9.38753 125.346 9.48655 127.197 9.59092 129.057C10.619 128.509 12.076 128.212 12.5843 127.353C13.9635 125.058 12.6105 123.843 9.26509 123.041L9.26332 123.049Z" fill="#F0D1AD"/>
<path d="M21.5838 124.778C21.7928 123.238 22.0964 122.29 21.998 121.379C21.8727 120.241 21.4557 119.122 21.044 118.042C21.0155 117.974 19.4144 118.243 19.3754 118.491C19.1201 120.034 18.9254 121.638 19.1025 123.176C19.1651 123.684 20.4055 124.045 21.5856 124.771L21.5838 124.778Z" fill="#F0D1AD"/>
<path d="M31.6892 64.6765C37.1298 55.6529 33.8187 47.1138 31.2029 38.2094C32.2408 39.142 33.1632 40.296 34.3574 40.934C35.2384 41.4032 36.4838 41.1974 37.5638 41.2916C37.4421 40.2002 37.7241 38.762 37.1312 38.0765C33.4527 33.8118 28.8271 31.6537 23.1148 32.8939C14.4636 34.7677 8.9802 43.4471 10.8983 52.0871C11.1606 53.2816 11.551 54.4474 11.7973 55.6455C14.3119 67.8445 21.7786 69.61 32.1867 69.1508C36.245 68.9698 39.1368 66.9146 39.9223 62.6305C40.6688 58.564 41.5273 54.5027 41.95 50.4012C42.0472 49.4324 40.5893 48.3045 39.8467 47.2482C39.1998 48.2697 38.2325 49.2116 37.9787 50.3233C37.0916 54.226 36.619 58.2241 35.6269 62.0931C35.3216 63.2906 33.8508 64.1906 32.9138 65.2234C32.5044 65.0459 32.088 64.8665 31.6804 64.6818L31.6892 64.6765Z" fill="#613317"/>
<path d="M65.1902 78.7963C61.2281 79.1983 57.1894 79.2401 53.3219 80.0824C48.3834 81.1588 45.9109 84.9932 46.8855 89.9802C48.5402 98.4637 53.4105 104.927 60.7365 109.295C65.4372 112.094 71.0267 108.003 71.0727 101.981C71.1103 96.6322 71.0055 91.2778 70.8829 85.9341C70.7969 82.0851 69.1304 80.2458 65.1885 78.8034L65.1902 78.7963ZM65.4474 105.79C65.1057 105.644 64.764 105.499 64.4152 105.351C64.4089 98.1418 64.4008 90.9393 64.3874 83.728C65.6848 84.3461 66.6587 85.3841 66.7074 86.4649C66.933 91.5765 67.0056 96.6955 66.8843 101.804C66.8531 103.146 65.9448 104.458 65.4403 105.788L65.4474 105.79Z" fill="#613317"/>
<path d="M49.2267 47.1852C49.0063 50.4426 48.5219 55.3095 48.4076 60.1774C48.3192 64.0286 50.0826 67.0591 53.7345 68.6038C56.744 69.875 59.775 71.4244 62.9405 71.9158C68.9353 72.853 72.0375 68.8568 70.6905 62.9662C69.4523 57.5194 68.529 51.9919 67.5469 46.4876C66.6899 41.6662 62.8963 38.4719 57.7508 38.375C53.2066 38.2912 50.6602 40.5382 49.2214 47.1764L49.2267 47.1852ZM61.1855 42.526C62.2741 44.8355 63.2214 46.1625 63.5373 47.6281C64.7168 53.0981 65.585 58.6347 66.7823 64.094C67.4781 67.2533 66.1656 68.0336 63.1461 67.8058C66.3327 59.3057 59.825 51.9198 61.1802 42.5171L61.1855 42.526Z" fill="#613317"/>
<path d="M65.4385 105.795C65.943 104.466 66.8514 103.153 66.8825 101.811C66.9968 96.7009 66.9241 91.5819 66.7056 86.4721C66.6569 85.3913 65.6759 84.3515 64.3856 83.7351C64.3919 90.9447 64.4 98.1472 64.4134 105.359C64.7551 105.504 65.0968 105.65 65.4457 105.797L65.4385 105.795Z" fill="#F0D1AD"/>
<path d="M61.1855 42.526C59.8321 51.9215 66.3398 59.3073 63.1514 67.8146C66.1709 68.0423 67.4835 67.262 66.7876 64.1027C65.5903 58.6434 64.7221 53.1068 63.5426 47.6368C63.2268 46.1712 62.2794 44.8443 61.1908 42.5348L61.1855 42.526Z" fill="#F0D1AD"/>
</svg>
