<svg width="219" height="46" viewBox="0 0 219 46" fill="none" xmlns="http://www.w3.org/2000/svg">
<path d="M218.745 32.514C219.874 37.9593 217.225 42.5363 211.25 42.7276C144.006 44.6952 76.763 45.7852 9.51954 45.9999C3.5309 46.0198 -0.439322 41.3261 0.912647 34.7803C2.149 28.7154 4.01238 22.046 3.01405 15.981L20.0469 17.5728C11.6101 16.3638 3.06981 11.816 0.165936 10.5766C-0.667823 4.6179 3.91581 2.1987 9.51954 2.21737C76.763 2.4321 142.89 1.75057 210.133 3.71814C216.108 3.90953 219.874 10.258 218.745 15.7033C218.357 17.6102 218.101 19.5182 217.977 21.4251H199.305L215.644 24.4267C215.604 23.968 215.575 23.325 215.623 22.6225L217.897 24.8398C217.942 27.3979 218.225 29.9559 218.745 32.514Z" fill="#202020"/>
<path d="M216.471 30.2967C217.6 35.7419 214.951 40.3189 208.976 40.5103C141.732 42.4779 74.4889 43.5679 7.24544 43.7826C1.25679 43.8025 -0.969741 38.5042 0.382227 31.9585C1.61858 25.8936 1.73828 19.8287 0.739941 13.7637L17.7728 15.3555C9.33596 14.1465 3.06981 11.816 0.165936 10.5766C-0.667823 4.6179 1.64307 -0.0186159 7.24544 5.61976e-05C74.4889 0.214785 141.732 1.30477 208.976 3.27234C214.951 3.46373 217.6 8.04073 216.471 13.486C216.082 15.3929 215.827 17.3009 215.703 19.2078H197.031L215.623 22.6225C215.668 25.1805 215.95 27.7386 216.471 30.2967Z" fill="#804520"/>
<path d="M40.1007 0.175112C36.2325 1.33045 32.2555 2.37375 28.1261 3.02494C27.4855 3.1113 26.8313 3.2175 26.1417 3.32836C24.5966 3.5781 23.0011 3.83601 21.4724 3.88619C15.7 5.01702 8.90068 6.17702 2.21973 6.21437C1.5247 6.21787 0.84056 6.2097 0.167296 6.18986C0.191778 6.04749 0.217621 5.90628 0.246183 5.7674C7.13116 5.96346 14.3426 4.86881 21.3908 3.48708L21.4329 3.48241C22.9331 3.43456 24.5218 3.17782 26.056 2.93041C26.751 2.81838 27.4066 2.71218 28.0499 2.62582C31.7005 2.04932 35.2369 1.16357 38.6861 0.164609C39.1581 0.16811 39.6301 0.171611 40.1007 0.175112Z" fill="#603113"/>
<path d="M45.6799 0.218291C39.694 1.69222 33.6918 3.37738 27.6351 5.11738L27.6038 5.12438C25.5092 5.46515 23.4622 5.7534 20.6386 6.13618C19.9626 6.25055 19.2771 6.36841 18.5875 6.48745C12.4207 7.54942 6.14234 8.6289 0.00680065 8.68492C0.00272026 8.54721 0 8.41184 0 8.27763C6.09882 8.22278 12.3541 7.14681 18.4991 6.0895C19.1873 5.97163 19.8756 5.8526 20.5584 5.73706C23.382 5.35428 25.4208 5.0672 27.5045 4.72877C33.0511 3.13464 38.5529 1.58719 44.0383 0.205454C44.585 0.208955 45.1318 0.213623 45.6799 0.218291Z" fill="#603113"/>
<path d="M54.7085 0.297648C46.4471 1.9548 38.3053 4.23746 30.5159 6.57147C28.8334 6.97175 26.6762 7.36737 25.2535 7.53659C22.2884 7.91936 19.205 8.45852 16.2223 8.979C11.2537 9.84726 6.20627 10.7295 1.20915 11.0084C0.890885 10.8801 0.598457 10.7587 0.330511 10.6455C5.57925 10.4261 10.9001 9.49599 16.1325 8.58222C19.1207 8.0594 22.2082 7.52025 25.1882 7.13514C26.596 6.96825 28.7287 6.57614 30.3785 6.18403C37.5967 4.02156 45.1223 1.90111 52.7717 0.280143C53.4177 0.284811 54.0624 0.290646 54.7085 0.297648Z" fill="#603113"/>
<path d="M133.029 1.42264C132.814 1.47166 132.599 1.523 132.384 1.57552C130.994 1.98047 129.415 2.12635 127.829 1.99564C125.793 1.98864 123.526 1.7459 121.092 1.27677C120.952 1.24992 120.812 1.22192 120.671 1.19274C121.563 1.20908 122.454 1.22542 123.345 1.24176C124.941 1.46815 126.447 1.58602 127.841 1.59069H127.863C129.084 1.69339 130.299 1.62453 131.422 1.3923C131.957 1.4028 132.493 1.41331 133.029 1.42264Z" fill="#603113"/>
<path d="M83.7037 0.622075C82.5952 0.703766 81.4405 0.78779 79.9144 0.78779H79.8804C66.3539 0.550888 51.6019 2.74719 33.4524 7.69646C31.7876 8.1516 29.9963 8.66508 28.4172 9.11905C27.9371 9.25558 27.476 9.38862 27.0394 9.51349L27.0054 9.5205C24.413 9.90094 21.7457 10.3572 19.1656 10.8007C14.8621 11.5382 10.5043 12.2851 6.14234 12.7496C5.80639 12.6457 5.48132 12.5419 5.16577 12.4392C9.82149 11.9899 14.4799 11.1905 19.0758 10.4028C21.6533 9.96046 24.3178 9.50416 26.9102 9.12255C27.3427 9.00001 27.7983 8.86931 28.2703 8.73393C29.8521 8.27997 31.6448 7.76649 33.3136 7.31019C48.3172 3.21866 61.0113 1.00369 72.6105 0.485536C76.3073 0.527548 80.0055 0.573061 83.7037 0.622075Z" fill="#603113"/>
<path d="M150.551 1.78441C145.108 2.39943 139.572 3.06812 134.064 3.89669C131.971 4.2748 129.363 4.48136 126.859 4.64708C120.985 4.99368 114.773 4.34599 108.397 2.71918C106.479 2.24071 104.512 1.66655 102.552 1.01302C102.317 0.967509 102.086 0.923163 101.859 0.881151C102.422 0.88932 102.986 0.897489 103.551 0.906825C105.222 1.44481 106.893 1.92212 108.526 2.33057C114.853 3.94337 121.011 4.58639 126.829 4.24329C129.316 4.07758 131.905 3.87335 133.98 3.49874C138.511 2.81721 143.056 2.24421 147.552 1.72023C148.553 1.74007 149.553 1.76224 150.554 1.78441H150.551Z" fill="#603113"/>
<path d="M7.53512 14.3986L9.42298 14.5748C6.61295 14.9424 3.7934 15.226 0.975213 15.3532C0.957531 15.2178 0.939849 15.0836 0.920808 14.9494C3.12694 14.8502 5.33171 14.6553 7.53512 14.3986Z" fill="#603113"/>
<path d="M162.919 2.06333C152.757 3.17548 142.58 4.70426 132.857 7.49341C131.666 8.24496 129.146 8.81679 127.173 9.10387C122.146 9.79241 116.245 8.88448 109.629 6.40576C108.002 5.96229 105.859 5.41263 103.677 5.0777C101.41 4.62957 99.5356 4.30398 97.932 4.07875C93.8448 3.50341 90.148 3.30152 86.6307 3.4614C84.192 3.61661 81.6513 3.81384 78.8671 4.06591H78.8412C76.5848 4.06007 74.2767 4.10325 71.9794 4.19545C59.4458 4.70076 46.5137 6.63099 32.4445 10.097C29.6807 10.7855 27.0516 11.4799 24.4075 12.2198L24.3762 12.2256C22.7196 12.4859 21.0208 12.7683 19.3778 13.0414C16.8588 13.4591 14.3222 13.8804 11.7746 14.2504C11.4033 14.1675 11.0361 14.0823 10.6797 13.996C13.5659 13.5933 16.4399 13.116 19.2921 12.6422C20.931 12.3703 22.6257 12.0891 24.281 11.8288C26.9251 11.0901 29.5529 10.3958 32.318 9.70722C46.4226 6.23187 59.3873 4.29698 71.9576 3.7905C74.2576 3.6983 76.5698 3.65396 78.8304 3.66096C81.6159 3.41005 84.158 3.21166 86.6008 3.05645C90.1562 2.8954 93.8843 3.09963 98.0055 3.67846C99.6172 3.90486 101.501 4.23279 103.767 4.67975C105.969 5.01819 108.136 5.57485 109.776 6.02181L109.799 6.02881C116.339 8.48069 122.157 9.38046 127.097 8.70359C129.031 8.42234 131.497 7.86685 132.609 7.14797L132.638 7.12813L132.675 7.1188C141.512 4.58056 150.715 3.08329 159.936 1.99331C160.93 2.01548 161.925 2.03882 162.919 2.06333Z" fill="#603113"/>
<path d="M216.723 10.8462C207.214 8.06874 196.849 5.85726 186.055 5.44765C183.306 5.3006 180.53 5.23408 177.8 5.24692C160.852 5.32978 144.303 8.54138 129.945 14.5328C127.791 15.5352 125.237 16.0686 122.363 16.1117C120.027 16.1491 117.457 15.8713 114.502 15.2692C112.242 14.8911 109.992 14.4289 108.009 14.0205C106.251 13.6447 104.506 13.2386 102.882 12.8546C100.507 12.3143 98.0014 11.8067 95.8306 11.4274C90.5615 10.5054 86.239 10.3876 82.2266 11.0563L82.2021 11.0598C79.6124 11.243 76.9928 11.3585 74.4181 11.4017C71.9808 11.4799 69.5692 11.5803 67.257 11.6993C56.9364 12.2303 47.595 13.1767 38.697 14.5935C36.3236 14.9704 33.9447 15.3905 31.6216 15.8387C21.1146 18.0957 10.983 19.2347 1.33837 19.2463C1.33157 19.111 1.32341 18.9767 1.31525 18.8414C10.93 18.8297 21.0317 17.6965 31.5156 15.4442C33.8495 14.9938 36.2352 14.5736 38.6141 14.1944C47.5297 12.7753 56.8915 11.8265 67.2285 11.2943C69.5448 11.1753 71.959 11.0749 74.4045 10.9968C76.9711 10.9536 79.5757 10.8392 82.1518 10.656C86.2213 9.9803 90.5982 10.0993 95.9217 11.0294C98.1007 11.411 100.616 11.9199 103.001 12.4637C104.625 12.8465 106.366 13.2526 108.118 13.626C110.096 14.0333 112.34 14.4954 114.599 14.8724C117.525 15.4699 120.06 15.7406 122.356 15.7068C125.155 15.6648 127.637 15.1478 129.736 14.171C137.09 11.103 144.975 8.75494 153.182 7.18882C161.13 5.67288 169.412 4.88281 177.799 4.84197C180.539 4.82913 183.326 4.89565 186.082 5.04269C196.861 5.45231 207.208 7.64978 216.704 10.4133C216.713 10.5556 216.719 10.7003 216.723 10.8462Z" fill="#603113"/>
<path d="M216.323 14.2422C216.299 14.3764 216.275 14.5094 216.252 14.6437C212.985 14.0403 209.735 13.4335 206.529 12.8348C199.044 11.4391 191.304 9.99547 183.698 8.64874C181.72 8.39317 179.661 8.17844 177.591 8.01272C175.5 7.84584 173.448 7.72797 171.486 7.66262C160.826 7.3417 150.247 10.3666 140.014 13.2911C137.387 14.0426 134.668 14.8199 132.009 15.5212C129.499 16.309 126.975 17.1609 124.513 18.0501C122.465 18.8157 120.414 18.7562 118.241 18.692L117.704 18.6768C116.078 18.559 114.369 18.3314 112.315 17.9591C110.309 17.6405 108.251 17.2356 106.075 16.8061L104.885 16.5727C102.756 16.1304 100.349 15.6298 98.015 15.261C94.5222 14.6822 91.4007 14.3251 88.4683 14.1687C85.918 14.073 83.9254 14.2492 82.0104 14.7382L81.9709 14.7452C80.6421 14.8806 79.0956 15.0148 76.7915 15.0871C73.987 15.212 71.1538 15.3614 68.3791 15.5306C56.425 16.2611 44.6789 17.4153 33.4701 18.9627C31.302 19.2545 29.0768 19.5731 26.2532 19.9944C20.6712 20.9105 15.0213 21.2314 9.37537 21.2314C6.7136 21.2314 4.05319 21.1602 1.40093 21.047C1.40093 20.9105 1.39685 20.7751 1.39141 20.6397C9.6542 20.9933 17.9932 20.9385 26.1716 19.5953C29.0007 19.1728 31.2286 18.8542 33.398 18.5625C44.619 17.0138 56.3774 15.8573 68.3465 15.1268C71.1252 14.9564 73.9611 14.807 76.7725 14.6822C79.0521 14.611 80.5836 14.4779 81.8975 14.3449C83.8574 13.8454 85.8922 13.6669 88.4914 13.7649C91.4483 13.9213 94.5888 14.2807 98.1007 14.863C100.444 15.233 102.858 15.7348 104.988 16.1783L106.177 16.4117C108.349 16.8388 110.402 17.2426 112.404 17.5612C114.445 17.9311 116.136 18.1563 117.731 18.273L118.258 18.287C120.377 18.3489 122.379 18.4072 124.334 17.6767C126.802 16.7839 129.336 15.9297 131.862 15.1361C134.528 14.4324 137.242 13.6564 139.868 12.906C150.138 9.96979 160.758 6.93324 171.501 7.25767C173.47 7.32302 175.533 7.44089 177.632 7.60894C179.71 7.77582 181.777 7.99172 183.777 8.24963C191.397 9.59869 199.139 11.0423 206.624 12.4392C209.822 13.0355 213.064 13.64 216.323 14.2422Z" fill="#603113"/>
<path d="M215.73 18.8134C215.719 18.9441 215.711 19.0759 215.703 19.2078L211.836 19.2078C211.08 19.195 210.326 19.1763 209.573 19.146C209.23 19.146 208.878 19.1483 208.524 19.1518C206.417 19.1681 204.24 19.1845 202.081 18.5963C199.007 17.7175 196.01 16.6696 193.111 15.6578C187.35 13.6435 181.906 11.7413 175.851 11.0224C173.716 10.7003 171.831 10.4856 170.081 10.3642C162.632 9.84492 155.463 12.0622 148.53 14.2084C144.686 15.3975 140.711 16.6287 136.686 17.4025C135.011 17.7327 133.193 18.1528 131.436 18.559C130.498 18.776 129.611 18.9814 128.747 19.1728C126.346 19.7703 123.875 20.4378 121.408 21.1544L121.374 21.1649H121.336C120.732 21.1707 120.072 21.1952 119.373 21.2209C117.782 21.2792 115.977 21.3458 114.352 21.1987C111.823 20.9688 109.361 20.5277 107.498 20.1694C105.667 19.817 103.892 19.4179 102.231 19.0386C99.8825 18.5333 97.5322 18.1493 95.4362 17.9288C91.6142 17.5437 87.5298 17.2367 83.361 18.0606C82.7625 18.1552 82.2021 18.252 81.6078 18.3547C80.4979 18.545 79.2371 18.762 77.5165 19.0036C76.967 19.0806 76.4161 19.1588 75.8667 19.237C73.8292 19.5241 71.7237 19.8228 69.6413 20.0889C61.0385 21.0727 52.5023 21.4718 44.2477 21.8569C42.0892 21.9584 39.8559 22.0623 37.6565 22.1755C35.2886 22.298 33.2076 22.4171 31.2925 22.5419C26.6286 23.3857 21.9253 23.6844 17.2369 23.6844C11.9175 23.6844 6.61295 23.3005 1.39277 22.8944C1.39549 22.759 1.39821 22.6248 1.39957 22.4894C11.2034 23.2515 21.3078 23.9389 31.2136 22.1417L31.2435 22.1382C33.1654 22.0133 35.2532 21.8943 37.6293 21.7717C39.8314 21.6585 42.0647 21.5535 44.2246 21.4531C52.4697 21.0669 60.9964 20.6689 69.5788 19.6875C71.653 19.4214 73.7571 19.1238 75.7932 18.8367C76.3441 18.7585 76.8936 18.6803 77.4444 18.6033C79.1582 18.3629 80.4122 18.147 81.5193 17.9568C82.1164 17.8541 82.6782 17.7572 83.2698 17.6639C87.4985 16.8271 91.6278 17.1364 95.492 17.5262C97.607 17.7491 99.9763 18.1365 102.347 18.6465C104.005 19.0246 105.775 19.4225 107.598 19.7738C109.45 20.1297 111.895 20.5674 114.399 20.7949C115.99 20.9396 117.776 20.8743 119.351 20.8159C120.04 20.7903 120.69 20.7658 121.292 20.7599C123.754 20.0446 126.22 19.3794 128.623 18.7807C129.49 18.5881 130.375 18.3839 131.314 18.1668C133.075 17.7607 134.896 17.3394 136.581 17.0068C140.579 16.2378 144.54 15.0124 148.37 13.8267C155.349 11.6666 162.567 9.43297 170.115 9.96046C171.878 10.083 173.777 10.2989 175.919 10.621C182.023 11.3469 187.492 13.2572 193.281 15.2808C196.173 16.2915 199.162 17.3359 202.22 18.21C204.306 18.7795 206.446 18.762 208.516 18.7457C208.871 18.7433 209.226 18.741 209.581 18.741C211.624 18.8215 213.687 18.8297 215.727 18.8134H215.73Z" fill="#603113"/>
<path d="M215.661 23.8011C212.537 24.429 209.32 25.0592 206.057 25.4933C202.684 25.8609 199.346 25.2972 195.548 23.7195C194.538 23.2877 193.533 22.8535 192.533 22.4217C186.529 19.8263 180.858 17.3756 174.491 15.7815C172.055 15.1676 169.843 14.6763 167.73 14.2784C166.325 14.0321 165.064 14.3647 163.604 14.7487L163.339 14.8175C159.508 15.5668 155.8 16.5505 152.213 17.5016C147.241 18.8204 142.544 20.0656 137.49 20.7623C135.278 20.97 133.066 21.2559 131.164 21.5091C129.128 21.7799 127.1 22.1032 125.133 22.4696L125.094 22.4743C123.018 22.5338 120.789 22.7508 118.633 22.9621L117.738 23.0484C115.619 23.1803 113.34 23.3262 110.55 23.5082H110.525C108.794 23.4615 107.193 23.332 105.282 23.1675C102.59 22.9154 99.9763 22.5455 97.7729 22.2175C95.3791 21.7671 93.0206 21.2314 90.7546 20.6222C89.6924 20.369 88.5199 20.6292 87.3856 20.8801C86.7994 21.0108 86.1955 21.1439 85.612 21.2046C84.8476 21.3971 83.9186 21.6387 82.9352 21.8943C82.2048 22.0833 81.4595 22.277 80.7631 22.4556C79.4098 22.8022 77.6266 23.213 75.834 23.3227C73.2838 23.6506 70.6397 23.9529 67.9752 24.2224C56.6018 25.3708 45.5711 25.8621 35.3457 26.2204C34.6071 26.2449 33.8346 26.2635 33.062 26.2834C31.5237 26.3219 29.9324 26.3616 28.7286 26.4374C26.9197 26.6556 25.0087 26.7642 23.0175 26.7642C21.5023 26.7642 19.9395 26.7012 18.3386 26.574C13.876 26.3616 9.38217 25.7582 5.03656 25.1759C3.807 25.0102 2.56928 24.8444 1.32477 24.6869C1.33293 24.5504 1.34109 24.415 1.34653 24.2785C2.60737 24.4395 3.86141 24.6075 5.10729 24.7744C9.44202 25.3556 13.9236 25.9578 18.3726 26.1702C22.0477 26.4619 25.5133 26.4152 28.6797 26.0336C29.9092 25.9566 31.5047 25.9169 33.0484 25.8784C33.8182 25.8586 34.5908 25.8399 35.3266 25.8154C45.5439 25.4571 56.5651 24.967 67.9221 23.8198C70.5853 23.5502 73.2266 23.248 75.7755 22.9212H75.7932C77.545 22.8127 79.2996 22.4077 80.6325 22.067C81.3289 21.8884 82.0743 21.6947 82.8033 21.5056C83.7948 21.2477 84.7306 21.0038 85.5018 20.8113L85.5399 20.8043C86.0975 20.7483 86.6674 20.6211 87.27 20.488C88.4628 20.2231 89.6978 19.95 90.8838 20.2324C93.1444 20.8405 95.4892 21.3738 97.8599 21.8196C100.046 22.1452 102.652 22.5139 105.328 22.7648C107.223 22.9271 108.813 23.0554 110.524 23.1021C113.307 22.9201 115.585 22.7742 117.692 22.6446L118.579 22.5583C120.736 22.3471 122.965 22.13 125.054 22.0693C127.022 21.7017 129.053 21.3784 131.092 21.1077C132.998 20.8533 135.217 20.5662 137.427 20.3596C142.438 19.6688 147.12 18.4271 152.076 17.113C155.667 16.1596 159.38 15.1758 163.226 14.4231L163.466 14.3601C164.922 13.9761 166.299 13.6144 167.821 13.8804C169.949 14.2807 172.171 14.7744 174.616 15.3905C181.022 16.9952 186.713 19.4541 192.736 22.0576C193.737 22.4894 194.739 22.9224 195.748 23.353C199.462 24.8958 202.716 25.4478 205.993 25.0907C209.261 24.6554 212.498 24.0194 215.642 23.388C215.646 23.5257 215.651 23.6623 215.659 23.8L215.661 23.8011Z" fill="#603113"/>
<path d="M215.994 27.476C214.983 27.8098 213.978 28.1459 212.979 28.4797C210.982 29.1472 208.916 29.8381 206.877 30.4823C204.748 31.1334 202.696 31.41 200.691 31.41C195.18 31.41 190.028 29.3153 184.654 27.1318C181.044 25.6637 177.311 24.1466 173.453 23.3285C170.794 22.7824 168.278 22.9434 165.953 23.199C165.026 23.3168 164.053 23.4335 163.111 23.5444C162.308 23.6401 161.504 23.7358 160.712 23.835L160.531 23.8572C151.703 24.96 143.366 26.0021 134.647 25.1829C131.994 24.9938 129.571 24.918 127.247 24.953C124.629 24.9903 122.19 25.1654 119.796 25.4875L119.776 25.4898C118.25 25.5832 116.666 25.6322 115.134 25.68L114.202 25.7092C112.181 25.7734 110.364 25.7827 108.643 25.7372C106.519 25.6999 104.636 25.6205 102.886 25.4945C102.569 25.4595 102.25 25.4245 101.923 25.3883C100.413 25.2226 98.6991 25.0335 97.1336 24.7826C96.5379 24.6881 95.9449 24.5889 95.3478 24.4897C94.0638 24.2773 92.735 24.0567 91.4102 23.8712C89.3741 23.4919 87.3788 23.9529 85.4488 24.3987L85.2026 24.4558C84.3756 24.6601 83.4602 24.9168 82.4891 25.1876C80.555 25.7279 78.3625 26.3406 76.4801 26.637C73.9244 27.1761 71.1484 27.7398 68.2635 28.1938C59.9735 29.4133 51.7924 29.4133 43.8805 29.4133C40.812 29.4133 37.6389 29.4133 34.5092 29.4845L34.365 29.488C32.0854 29.5311 29.7297 29.5767 27.7643 29.7645L27.7426 29.7669C27.3359 29.7739 26.9292 29.7821 26.5239 29.7902C23.8567 29.8462 21.3377 29.8999 18.6392 29.5463C15.6632 29.1017 12.709 28.5754 9.85006 28.0654C6.91762 27.5426 4.04094 27.0291 1.18331 26.6078C1.19691 26.4724 1.20915 26.3371 1.2214 26.2017C4.09807 26.6265 6.99378 27.1423 9.94526 27.6686C12.7988 28.1774 15.7503 28.7037 18.714 29.146C21.369 29.4938 23.8675 29.4413 26.5144 29.3853C26.917 29.3771 27.3196 29.3678 27.7249 29.3608C29.7066 29.1717 32.0705 29.1262 34.3555 29.083L34.4997 29.0795C37.6334 29.0083 40.8093 29.0083 43.8805 29.0083C51.7733 29.0083 59.9341 29.0083 68.1833 27.7946C71.0545 27.343 73.8224 26.7805 76.3835 26.2402C78.251 25.9473 80.4272 25.3381 82.3477 24.8013C83.3229 24.5294 84.2423 24.2726 85.0802 24.0649L85.3304 24.0077C87.221 23.5701 89.3646 23.0753 91.4959 23.4732C92.8166 23.6576 94.1468 23.8782 95.4348 24.0917C96.0305 24.1909 96.6236 24.289 97.218 24.3847C98.7712 24.6332 100.477 24.8211 101.982 24.9857C102.31 25.0218 102.629 25.0568 102.935 25.0919C104.666 25.2156 106.54 25.2949 108.657 25.3323C110.368 25.3778 112.175 25.3684 114.187 25.3043L115.119 25.2751C116.643 25.2272 118.22 25.1782 119.736 25.086C122.149 24.7616 124.603 24.5854 127.241 24.5469C129.582 24.513 132.02 24.5889 134.694 24.7791C143.359 25.5937 151.669 24.555 160.468 23.4557L160.649 23.4335C161.443 23.3343 162.248 23.2386 163.051 23.143C163.991 23.0321 164.963 22.9166 165.894 22.7975C168.266 22.5361 170.832 22.3727 173.565 22.9341C177.468 23.7626 181.222 25.2891 184.854 26.7642C192.091 29.7062 198.927 32.486 206.725 30.1006C208.758 29.4576 210.82 28.7679 212.815 28.1016C213.852 27.755 214.895 27.406 215.944 27.0618C215.96 27.1995 215.979 27.3383 215.997 27.476H215.994Z" fill="#603113"/>
<path d="M216.548 30.6958C212.339 32.388 207.99 34.1268 203.467 35.4817C201.824 35.9228 200.14 36.3745 198.369 36.3745C197.972 36.3745 197.571 36.3523 197.164 36.3009C193.942 36.043 190.672 35.6859 187.509 35.3405C179.189 34.4326 170.585 33.4943 162.074 34.275C160.51 34.4349 158.786 34.4547 156.951 34.3334C153.62 34.1128 150.287 33.4523 147.065 32.8128C145.387 32.4802 143.65 32.1359 141.954 31.8628C139.827 31.4264 137.875 31.0506 135.969 30.7133C129.377 29.5463 123.462 28.8671 117.885 28.6361C116.624 28.5917 115.378 28.5649 114.175 28.5392C113.216 28.5182 112.224 28.4972 111.256 28.468C108.978 28.4668 106.611 28.468 104.282 28.3315C102.173 28.1284 100.469 27.9008 99.0609 27.6359L98.6923 27.5659C97.1432 27.273 95.5409 26.9696 93.9047 26.8459C91.5544 26.5658 89.4013 26.9941 87.1217 27.4457C86.1642 27.6359 85.174 27.832 84.1798 27.9685C83.0835 28.1774 82.009 28.433 80.7645 28.7294C79.8722 28.943 78.9487 29.1635 77.8865 29.3969C75.3729 29.9489 72.7737 30.5208 70.1296 31.0296C60.1925 32.8968 50.4839 33.471 40.4502 32.7859C40.0109 32.7813 39.5634 32.7719 39.116 32.7638C37.7232 32.7346 36.2828 32.7054 34.6371 32.8174C32.3874 32.9726 30.1704 33.0602 28.0459 33.0777C21.4152 33.2527 15.2892 31.6924 8.80276 30.0423C6.26884 29.3981 3.66283 28.7352 1.00922 28.1798C1.0269 28.0444 1.04458 27.909 1.05818 27.7736C3.7458 28.3338 6.37629 29.0037 8.93197 29.6537C15.3817 31.2945 21.4724 32.8443 28.035 32.6727C30.1541 32.6552 32.3602 32.5677 34.599 32.4137C36.2692 32.2993 37.7218 32.3296 39.1268 32.3576C39.5716 32.367 40.0191 32.3763 40.4706 32.381C50.4744 33.0648 60.1381 32.493 70.029 30.634C72.6649 30.1263 75.2614 29.5557 77.7722 29.0037C78.8304 28.7714 79.7512 28.5509 80.6421 28.3385C81.8907 28.0409 82.9706 27.7841 84.0927 27.5706C85.087 27.434 86.0676 27.2391 87.0184 27.0513C89.2367 26.6101 91.5326 26.155 93.955 26.4432C95.6103 26.5681 97.2275 26.8739 98.7916 27.1703L99.1589 27.2391C100.552 27.5017 102.241 27.727 104.325 27.9277C106.627 28.0619 108.986 28.0619 111.265 28.0619C112.239 28.0922 113.231 28.1132 114.188 28.1342C115.393 28.1599 116.642 28.1868 117.907 28.2311C123.508 28.4633 129.448 29.1449 136.063 30.3165C137.972 30.655 139.93 31.0307 142.051 31.466C143.747 31.7391 145.486 32.0846 147.17 32.4183C150.376 33.0543 153.692 33.7114 156.987 33.9296C158.794 34.0486 160.487 34.03 162.025 33.8724C170.592 33.0858 179.222 34.0276 187.567 34.9379C190.727 35.2833 193.994 35.6393 197.22 35.8983C199.347 36.1644 201.368 35.6206 203.323 35.0966C207.86 33.737 212.236 31.9842 216.47 30.2804C216.47 30.2862 216.469 30.2909 216.471 30.2967C216.5 30.4297 216.524 30.5639 216.548 30.6958Z" fill="#603113"/>
<path d="M216.722 32.9797C216.718 33.1349 216.709 33.2889 216.697 33.4406C214.154 34.5213 211.533 35.6299 208.908 36.6896C199.406 40.4963 189.036 40.508 179.008 40.5197C172.968 40.5267 166.723 40.5337 160.754 41.3739L160.733 41.3763H160.714C158.856 41.3611 157.223 41.2526 155.724 41.046C153.982 40.8044 152.378 40.4427 150.821 39.9385C138.01 35.7128 125.419 31.8395 112.227 30.8662L110.717 30.7565C108.7 30.6106 106.615 30.4589 104.58 30.2874C102.025 30.0563 99.4799 29.9128 97.0208 29.8567C94.4379 29.7984 91.8563 29.8369 89.3469 29.9699C87.6631 30.1298 85.9996 30.3819 84.1186 30.7623C82.4606 31.0973 80.9059 31.4602 79.1065 31.8803C78.5121 32.018 77.8987 32.1616 77.254 32.3098C75.7225 32.6634 74.1597 33.0345 72.6486 33.3939C71.6081 33.6413 70.5635 33.8899 69.5176 34.135C59.9273 36.3663 50.2758 36.2998 40.9413 36.2368C38.9351 36.2228 36.8595 36.2088 34.8139 36.2181C32.5846 36.2753 30.3676 36.2566 28.2295 36.1621C22.0409 35.8902 16.3338 34.289 10.2935 32.5945C7.51199 31.8138 4.63532 31.0062 1.73553 30.3527C1.39685 30.2699 1.05818 30.1917 0.720868 30.1205C0.743991 29.9863 0.764393 29.8521 0.786155 29.7179C1.14387 29.7926 1.50022 29.8742 1.85794 29.9618C4.76589 30.6176 7.64801 31.4264 10.4349 32.2083C16.4453 33.8946 22.1252 35.4887 28.254 35.7571C30.3798 35.8505 32.5846 35.8692 34.8071 35.812C36.8595 35.8026 38.9378 35.8178 40.9467 35.8318C50.25 35.8948 59.8702 35.9602 69.3979 33.7429C70.4438 33.4978 71.487 33.2504 72.5275 33.003C74.0386 32.6436 75.6028 32.2713 77.137 31.9188C77.7804 31.7695 78.3938 31.6271 78.9868 31.4882C80.7917 31.0669 82.3477 30.704 84.0138 30.3667C85.9112 29.9828 87.5937 29.7284 89.3061 29.5662C91.84 29.432 94.4365 29.3934 97.0316 29.4518C99.503 29.5078 102.06 29.6525 104.627 29.8836C106.656 30.0563 108.74 30.2068 110.755 30.3527L112.265 30.4624C125.517 31.4392 138.142 35.323 150.984 39.5581C152.51 40.0529 154.085 40.4088 155.796 40.6457C157.268 40.8488 158.873 40.955 160.698 40.9701C166.697 40.1276 172.955 40.1206 179.007 40.1147C188.985 40.1031 199.304 40.0914 208.712 36.322C211.41 35.232 214.109 34.0895 216.722 32.9797Z" fill="#603113"/>
<path d="M142.167 42.1757C141.777 42.185 141.387 42.192 140.996 42.2002C139.2 41.5665 137.422 40.9106 135.674 40.2664C127.303 37.1797 118.648 33.9891 109.339 33.6518H109.32C107.118 33.4079 104.89 33.2376 103.001 33.1022C98.8841 32.8069 94.6405 32.7416 90.3887 32.905C88.7076 32.961 87.2564 33.01 85.6528 33.2667C84.1526 33.5305 82.6482 33.8362 81.1956 34.1315L80.7944 34.212C78.9977 34.5668 77.0105 34.9916 74.3501 35.5879C73.1206 35.8633 71.891 36.1446 70.656 36.4258C69.6604 36.6534 68.662 36.881 67.6596 37.1073C59.3492 39.0154 51.3476 39.0131 42.8713 39.0119H41.235L41.0854 39.0166C39.5689 39.0597 37.9993 39.1053 36.4338 39.1158C33.9679 39.1344 31.5115 39.0586 29.1367 38.8929C26.426 38.7038 24.0308 38.4062 21.6043 37.9569C17.5212 37.1143 13.5183 35.84 9.64604 34.6065C7.72281 33.9938 5.73294 33.3601 3.73627 32.7801C2.62369 32.4638 1.49886 32.2176 0.369955 32.0309C0.375396 32.0064 0.379476 31.983 0.384917 31.9585C0.408039 31.85 0.428441 31.7403 0.448843 31.6318C1.59951 31.8208 2.7461 32.0717 3.88181 32.395C5.88392 32.9773 7.87651 33.6122 9.80517 34.226C13.6639 35.4549 17.6531 36.7257 21.7049 37.5613C24.1083 38.0059 26.4831 38.3012 29.1721 38.4891C31.536 38.6536 33.976 38.7283 36.4311 38.7108C37.9911 38.6991 39.5553 38.6548 41.0691 38.6116L41.2269 38.607C41.7804 38.607 42.3259 38.607 42.8713 38.607C51.315 38.6093 59.2894 38.6116 67.5427 36.7164C68.5451 36.49 69.542 36.2624 70.5377 36.0349C71.774 35.7536 73.0036 35.4724 74.2331 35.197C76.899 34.5995 78.8902 34.1747 80.691 33.8187L81.0895 33.7382C82.5462 33.4418 84.0519 33.136 85.563 32.8699C87.2047 32.6074 88.6695 32.5584 90.367 32.5012C94.6378 32.3366 98.9018 32.4031 103.037 32.6996C104.929 32.8349 107.161 33.0053 109.367 33.2481C118.754 33.59 127.445 36.7946 135.852 39.8942C137.924 40.6586 140.035 41.4358 142.167 42.1757Z" fill="#603113"/>
<path d="M216.167 35.8843C216.096 36.0687 216.018 36.2473 215.934 36.4223C212.05 37.9838 208.074 39.4344 203.973 40.655C203.426 40.6702 202.881 40.6866 202.333 40.7017C207.096 39.362 211.691 37.6932 216.167 35.8843Z" fill="#603113"/>
<path d="M130.209 42.4126C129.797 42.4219 129.385 42.4289 128.974 42.4359C125.163 41.1499 121.34 39.6841 117.511 38.0386C115.011 37.0128 112.106 36.4398 109.111 36.3838L109.077 36.3803C107.097 36.0897 105.01 35.875 102.872 35.7455C99.2065 35.5214 95.2485 35.5261 90.4187 35.7606H90.3874L90.3575 35.756C88.981 35.5004 86.5192 35.917 84.3471 36.2834C83.9812 36.3453 83.6221 36.406 83.278 36.462C80.7862 36.8658 78.3176 37.3653 76.1972 37.8029C75.4246 37.9593 74.6507 38.1168 73.8754 38.2744C72.6255 38.5288 71.332 38.7925 70.0494 39.0469C67.6107 39.5312 65.6167 39.9035 63.7737 40.2174C58.6393 41.1977 53.7319 41.3027 49.1455 41.3272C47.9704 41.3529 46.7721 41.3658 45.616 41.3774C44.6068 41.3879 43.5636 41.3984 42.5163 41.4183C38.7188 41.5373 34.8846 41.4778 31.1198 41.2409C29.1802 41.1195 27.2679 40.9515 25.4358 40.7414C20.0687 40.4135 14.9641 38.6011 10.0296 36.8483C9.12919 36.5285 8.20022 36.1982 7.28621 35.8832C5.02568 35.1491 2.62777 34.6403 0.0448843 34.3579C0.0544052 34.2237 0.0666463 34.0871 0.0802476 33.9518C2.70802 34.2388 5.15081 34.757 7.45351 35.5051C8.37296 35.8225 9.30328 36.1527 10.205 36.4725C15.107 38.2137 20.1762 40.0132 25.4834 40.3376C27.3209 40.5489 29.2251 40.7157 31.1538 40.8371C34.9009 41.0728 38.7202 41.1312 42.504 41.0133C43.5568 40.9935 44.6014 40.983 45.6106 40.9725C46.768 40.9608 47.9636 40.948 49.1388 40.9223C53.7047 40.8978 58.5862 40.7928 63.6813 39.8206C65.5242 39.5067 67.5127 39.1356 69.946 38.6525C71.2286 38.3981 72.5221 38.1343 73.772 37.8799C74.546 37.7212 75.3212 37.5636 76.0924 37.4084C78.2169 36.9696 80.6924 36.469 83.1937 36.064C83.5378 36.008 83.8941 35.9473 84.26 35.8855C86.4607 35.5144 88.9538 35.0943 90.4241 35.3533C95.2594 35.1199 99.2269 35.1164 102.906 35.3405C105.051 35.4712 107.147 35.6859 109.138 35.9789C112.192 36.0372 115.155 36.623 117.711 37.6733C121.888 39.467 126.057 41.0483 130.209 42.4126Z" fill="#603113"/>
<path d="M213.66 39.1053C212.658 39.7973 211.417 40.2629 209.943 40.438C211.18 40.0109 212.418 39.5662 213.66 39.1053Z" fill="#603113"/>
<path d="M28.594 43.0532C30.5417 43.3228 32.5316 43.5212 34.5595 43.6472C33.1287 43.6566 31.6992 43.6659 30.267 43.6741H30.2629C29.678 43.6076 29.0986 43.5329 28.5219 43.4535C26.4355 43.1629 24.3531 42.786 22.3333 42.332L22.317 42.3274L20.9378 41.9212C14.329 39.97 7.23725 37.8752 0.084328 37.0058C0.0680065 36.8693 0.0544052 36.7316 0.0435241 36.5915C7.26989 37.4574 14.4214 39.5686 21.0861 41.5373L22.4557 41.9411C24.4578 42.3916 26.5239 42.7662 28.594 43.0532Z" fill="#603113"/>
<path d="M123.058 42.5456C122.661 42.5538 122.263 42.5608 121.866 42.5678C121.027 42.2749 120.2 41.9831 119.383 41.6925C115.321 40.2746 111.2 39.6129 107.703 39.1531C105.406 38.8369 103.08 38.6268 100.794 38.5276C98.4516 38.4272 96.0823 38.4401 93.7483 38.5673H93.7252L93.702 38.5661C92.3909 38.4121 90.8444 38.3841 88.9715 38.4786C87.2632 38.5661 85.4678 38.7598 84.0247 38.915C81.2256 39.2173 78.2061 39.6864 74.5215 40.3913C73.7544 40.5302 72.9873 40.6691 72.2201 40.8091C70.8641 41.0553 69.4591 41.3097 68.0663 41.556C65.5161 42.0064 63.4133 42.3542 61.4479 42.6495L60.9188 42.7265C58.7712 43.0404 56.7201 43.3392 54.5942 43.4862C52.0494 43.5107 49.5019 43.5329 46.9571 43.5539C47.0061 43.5504 47.0578 43.5469 47.1067 43.5434C48.1513 43.464 49.1904 43.4033 50.1956 43.345C51.1694 43.2878 52.1759 43.2295 53.1702 43.1548C55.7898 43.0649 58.2448 42.7066 60.844 42.3274L61.3731 42.2503C63.3317 41.9551 65.4317 41.6085 67.9765 41.1592C69.3707 40.913 70.7716 40.6586 72.1277 40.4123C72.8961 40.2723 73.6632 40.1334 74.4276 39.9957C78.1231 39.2885 81.1562 38.817 83.9703 38.5136C85.4202 38.3572 87.2237 38.1623 88.947 38.0748C90.8376 37.9779 92.4072 38.0071 93.7442 38.1612C96.0863 38.0351 98.4665 38.0211 100.818 38.1226C103.122 38.2218 105.463 38.4342 107.777 38.7528C111.298 39.2161 115.453 39.8825 119.559 41.3167C120.706 41.724 121.873 42.1348 123.06 42.5456H123.058Z" fill="#603113"/>
<path d="M21.1078 43.7254C20.4414 43.7289 19.7749 43.7324 19.1085 43.7359C18.9398 43.7021 18.7698 43.6671 18.597 43.6309C18.0748 43.5235 17.5375 43.4127 16.9771 43.2983L16.9418 43.2878C11.6087 41.3716 6.14915 40.1789 0.771193 39.7238C0.712708 39.5872 0.656942 39.446 0.607978 39.3037C6.09202 39.7495 11.6631 40.955 17.1009 42.9074C17.6545 43.0194 18.1876 43.1303 18.7031 43.2365C19.5451 43.4104 20.338 43.5737 21.1078 43.7254Z" fill="#603113"/>
<path d="M114.073 42.7043C113.542 42.7136 113.009 42.723 112.479 42.7312H112.476C111.562 42.5316 110.701 42.3974 109.848 42.3215L109.828 42.3192C108.321 42.0625 105.376 41.6143 102.581 41.4883C100.201 41.3798 97.8287 41.4439 95.5355 41.6762L95.5001 41.6797L95.4661 41.675C93.7306 41.4089 91.8114 41.3482 89.9576 41.2887L89.6026 41.2782C85.3604 41.1405 81.5887 41.4813 78.0701 42.3192L78.051 42.3227C76.2053 42.6203 74.3311 42.94 72.5194 43.2481L72.295 43.2866C72.2637 43.2913 72.2337 43.2971 72.2025 43.303H72.1984C71.332 43.3135 70.4642 43.3228 69.5965 43.3322C70.4697 43.1851 71.3388 43.0369 72.2065 42.8887L72.431 42.8502C74.2399 42.5421 76.1115 42.2235 77.9572 41.9259C81.518 41.0787 85.3318 40.7344 89.6176 40.8733L89.9739 40.8838C91.8318 40.9433 93.7551 41.004 95.5137 41.2712C97.8218 41.0378 100.209 40.9748 102.604 41.0833C105.422 41.2105 108.383 41.661 109.904 41.9189C111.227 42.0379 112.564 42.2889 114.073 42.7043Z" fill="#603113"/>
<path d="M12.5703 43.764C11.9664 43.7663 11.3625 43.7686 10.76 43.7698H10.7573C8.26958 43.2376 5.7207 42.8689 3.13646 42.6635C2.9202 42.5199 2.71482 42.3635 2.52168 42.1943C5.95193 42.4312 9.31145 42.9564 12.5703 43.764Z" fill="#603113"/>
</svg>
