<svg width="350" height="41" viewBox="0 0 350 41" fill="none" xmlns="http://www.w3.org/2000/svg">
<mask id="mask0_26_2079" style="mask-type:alpha" maskUnits="userSpaceOnUse" x="0" y="0" width="350" height="41">
<path fill-rule="evenodd" clip-rule="evenodd" d="M341.878 19.0963L344.602 20.1635L348.237 22.1398C348.309 24.4198 348.761 26.6999 349.593 28.9799C351.397 33.8333 347.163 37.9128 337.614 38.0833C230.147 39.837 122.681 40.8086 15.2139 40.9999C8.83456 41.0117 3.88838 39.1571 1.93878 36.1912C1.67703 35.9428 1.44194 35.6806 1.23342 35.406L1.2325 35.406C1.14981 35.2983 1.07052 35.1874 0.999155 35.0754C0.573159 34.4296 0.284012 33.7216 0.130663 32.9641C0.106396 32.8487 0.0860276 32.7324 0.0695591 32.6142L0.069983 32.6142C-0.113853 31.3463 0.0679925 29.9506 0.610865 28.4848C0.810429 27.9388 0.991789 27.3928 1.15494 26.8469L1.15207 26.8465C1.17671 26.7668 1.19941 26.687 1.22211 26.6073L1.22213 26.6072C1.23347 26.5674 1.24482 26.5275 1.25641 26.4877L1.25955 26.488C1.68436 24.9934 1.97272 23.4987 2.12458 22.0041L2.11721 22.0035L2.11816 21.9946C2.13088 21.876 2.1435 21.7582 2.15199 21.6395L2.15887 21.64C2.19455 21.2287 2.2199 20.8175 2.23492 20.4063L2.22589 20.4059L2.22611 20.3998L2.22611 20.3998C2.23038 20.2812 2.23462 20.1636 2.23676 20.0449L2.24544 20.0453C2.25479 19.6166 2.2529 19.188 2.23979 18.7593L2.23893 18.7593L2.23878 18.7271C2.23633 18.6502 2.23352 18.5733 2.23034 18.4964C2.22836 18.463 2.22612 18.4297 2.22372 18.3963L2.226 18.3963C2.17979 17.378 2.0702 16.3596 1.8972 15.3413L1.88896 15.3413C1.8694 15.2207 1.84767 15.1 1.82593 14.9794L1.82593 14.9794L1.83304 14.9793C1.75335 14.5477 1.66226 14.116 1.55978 13.6843L1.55856 13.6844C1.5303 13.5637 1.50204 13.4441 1.47161 13.3245L1.47171 13.3245C1.38291 12.9722 1.28653 12.6199 1.18255 12.2677L12.044 12.8335H12.8135C5.03328 12.1452 3.96609 11.363 2.93337 10.6061C2.37879 10.1996 1.83415 9.80045 0.265194 9.427C0.101113 8.77301 0.0132368 8.13688 0.00200431 7.52417C0.00071652 7.47519 0 7.42646 0 7.37789L0.000779768 7.37789C0.00787009 3.09032 3.81645 -0.0143795 11.5795 5.00892e-05C31.519 0.0355607 51.4586 0.0979275 71.3981 0.187164L72.1731 0.190646C76.6998 0.211062 81.2264 0.232863 85.753 0.256049L86.3021 0.258868C121.819 0.441669 157.336 0.709732 192.853 1.06313L192.971 1.06431C199.353 1.12784 205.734 1.19413 212.116 1.26317L212.603 1.26801L212.6 1.26841C235.368 1.51523 258.136 1.79713 280.903 2.11411C290.048 1.83799 299.171 1.81842 308.197 2.06165C312.379 2.17398 316.583 2.34665 320.689 2.57236C322.565 2.5786 324.406 2.65642 326.217 2.79134C328.804 2.83266 331.392 2.87443 333.979 2.91665C336.778 2.96664 339.119 3.35225 340.987 3.9946C347.43 5.66333 351.045 10.0906 349.593 13.9964C348.972 15.696 348.563 17.3967 348.365 19.0963H341.878ZM313.205 2.58739C306.073 2.47769 298.941 2.37144 291.809 2.26864L291.824 2.26841C291.835 2.26818 291.845 2.26794 291.855 2.26864C297.311 2.22599 302.752 2.27696 308.156 2.42258C309.84 2.46821 311.523 2.52315 313.205 2.58739ZM14.0683 12.939L14.0044 12.9357L14.0159 12.9348L14.0683 12.939ZM19.3578 11.8445H336L335.992 12H336L335.504 21.5667L331.91 22.4393L335.504 25.0906L335.422 25.1859L335.504 25.2462L330.452 31.1333H11L11.1088 30.9778H11L14.1863 26.4223L17.3725 21.4111L26.6117 16.364L21.343 14.9436L19.3578 12H19.4627L19.3578 11.8445Z" fill="#804520"/>
</mask>
<g mask="url(#mask0_26_2079)">
<path d="M349.593 28.9799C351.397 33.8333 347.163 37.9128 337.614 38.0833C230.147 39.837 122.681 40.8086 15.2139 40.9999C5.64298 41.0176 -0.702112 36.8341 1.45857 30.9999C3.43448 25.5942 6.41248 19.6497 4.81697 14.244L32.0385 15.6627C18.5549 14.5851 4.90609 10.5316 0.265194 9.427C-1.0673 4.11596 6.25815 1.95971 15.2139 1.97635C122.681 2.16774 228.363 1.56029 335.829 3.314C345.378 3.48458 351.397 9.14304 349.593 13.9964C348.972 15.696 348.563 17.3967 348.365 19.0963H318.524L344.637 21.7716C344.572 21.3628 344.526 20.7897 344.602 20.1635L348.237 22.1398C348.309 24.4198 348.761 26.6999 349.593 28.9799Z" fill="#202020"/>
<path d="M345.959 27.0036C347.763 31.857 343.529 35.9365 333.979 36.107C226.513 37.8607 119.046 38.8323 11.5795 39.0236C2.00857 39.0413 -1.54982 34.319 0.610865 28.4848C2.58678 23.0791 2.77807 17.6734 1.18255 12.2677L14.0683 12.939C0.584733 11.8614 4.90609 10.5316 0.265194 9.427C-1.0673 4.11596 2.62591 -0.0165924 11.5795 5.00892e-05C119.046 0.191439 226.513 1.16295 333.979 2.91665C343.529 3.08724 347.763 7.16674 345.959 12.0201C345.337 13.7197 344.929 15.4204 344.731 17.12L339.423 18.1346L344.602 20.1635C344.674 22.4435 345.126 24.7236 345.959 27.0036Z" fill="#B77537"/>
<path d="M64.0879 0.156078C57.9058 1.18583 51.5498 2.11574 44.9504 2.69614C43.9266 2.77311 42.881 2.86777 41.7789 2.96658C39.3096 3.18918 36.7598 3.41905 34.3166 3.46378C25.0913 4.47169 14.2248 5.50561 3.54751 5.53889C2.43674 5.54201 1.34336 5.53473 0.267368 5.51705C0.306495 5.39015 0.347796 5.26429 0.393444 5.14051C11.3968 5.31526 22.9219 4.33959 34.1861 3.10805L34.2535 3.10389C36.6511 3.06124 39.19 2.8324 41.642 2.61189C42.7528 2.51204 43.8005 2.41738 44.8287 2.34041C50.6629 1.82657 56.3146 1.03709 61.8272 0.146717C62.5815 0.149837 63.3358 0.152958 64.0879 0.156078Z" fill="#804520"/>
<path d="M73.0045 0.194564C63.4379 1.50828 53.8453 3.01027 44.1657 4.56115L44.1157 4.56739C40.7682 4.87111 37.4967 5.12803 32.9841 5.4692C31.9037 5.57114 30.8082 5.67619 29.7061 5.78229C19.8504 6.72883 9.81653 7.69098 0.0108686 7.74091C0.00434744 7.61817 0 7.49751 0 7.37789C9.74697 7.329 19.7439 6.36998 29.5648 5.4276C30.6647 5.32254 31.7646 5.21644 32.8558 5.11347C37.3685 4.7723 40.6269 4.51642 43.957 4.21477C52.8215 2.79392 61.6142 1.41467 70.3808 0.183122C71.2546 0.186243 72.1285 0.190403 73.0045 0.194564Z" fill="#804520"/>
<path d="M87.4336 0.265295C74.2304 1.74232 61.2185 3.77687 48.7696 5.85718C46.0807 6.21395 42.6332 6.56657 40.3595 6.71739C35.6208 7.05856 30.693 7.53912 25.926 8.00303C17.9854 8.7769 9.91869 9.56326 1.93244 9.81186C1.42379 9.69744 0.956438 9.58927 0.528215 9.48837C8.91661 9.29282 17.4202 8.46382 25.7825 7.64937C30.5582 7.18338 35.4925 6.70283 40.2552 6.35958C42.505 6.21084 45.9134 5.86134 48.5501 5.51185C60.086 3.58444 72.1132 1.69447 84.3383 0.249692C85.3708 0.253853 86.4011 0.259054 87.4336 0.265295Z" fill="#804520"/>
<path d="M212.603 1.26801C212.26 1.31169 211.916 1.35746 211.573 1.40427C209.351 1.7652 206.828 1.89522 204.293 1.77872C201.039 1.77248 197.415 1.55613 193.527 1.13799C193.303 1.11406 193.079 1.0891 192.853 1.0631C194.279 1.07766 195.702 1.09222 197.126 1.10678C199.678 1.30857 202.084 1.41363 204.313 1.41779H204.347C206.299 1.50932 208.24 1.44795 210.036 1.24096C210.89 1.25032 211.747 1.25969 212.603 1.26801Z" fill="#804520"/>
<path d="M133.773 0.554458C132.001 0.62727 130.156 0.702161 127.717 0.702161H127.663C106.045 0.491009 82.4689 2.44858 53.4627 6.85989C50.8021 7.26555 47.9393 7.72322 45.4156 8.12785C44.6483 8.24954 43.9114 8.36812 43.2136 8.47942L43.1593 8.48566C39.0161 8.82475 34.7535 9.23145 30.6299 9.62671C23.7523 10.2841 16.7877 10.9498 9.81653 11.3638C9.27962 11.2712 8.7601 11.1786 8.2558 11.0871C15.6964 10.6866 23.1414 9.97412 30.4865 9.27202C34.6057 8.8778 38.864 8.4711 43.0071 8.13097C43.6983 8.02175 44.4265 7.90525 45.1808 7.78459C47.7089 7.37997 50.5738 6.9223 53.241 6.5156C77.2193 2.86881 97.5067 0.89459 116.044 0.43276C121.952 0.470206 127.863 0.510772 133.773 0.554458Z" fill="#804520"/>
<path d="M240.607 1.59046C231.908 2.13862 223.061 2.73463 214.257 3.47314C210.912 3.81015 206.745 3.99426 202.743 4.14196C193.355 4.45089 183.427 3.8736 173.237 2.42362C170.172 1.99716 167.029 1.4854 163.896 0.902911C163.52 0.862345 163.151 0.822819 162.788 0.785373C163.688 0.792655 164.59 0.799936 165.492 0.808257C168.164 1.28777 170.833 1.71319 173.443 2.07725C183.556 3.51475 193.396 4.08787 202.695 3.78207C206.669 3.63436 210.808 3.45234 214.123 3.11845C221.365 2.51099 228.628 2.00028 235.814 1.53325C237.414 1.55093 239.012 1.57069 240.612 1.59046H240.607Z" fill="#804520"/>
<path d="M12.0424 12.8335H15.3846C10.8937 13.1612 6.06251 13.571 1.55856 13.6844C1.5303 13.5637 1.50204 13.4441 1.47161 13.3245C4.99739 13.2361 8.52099 13.0624 12.0424 12.8335Z" fill="#804520"/>
<path d="M260.373 1.83905C244.133 2.83032 227.867 4.19293 212.329 6.67891C210.425 7.34877 206.397 7.85844 203.245 8.11432C195.211 8.72802 185.779 7.91877 175.206 5.70948C172.607 5.31422 169.181 4.8243 165.694 4.52578C162.071 4.12636 159.075 3.83616 156.512 3.63541C149.98 3.12261 144.072 2.94266 138.451 3.08516C134.553 3.2235 130.493 3.39929 126.043 3.62396H126.002C122.396 3.61876 118.707 3.65725 115.036 3.73942C95.0047 4.18981 74.337 5.91023 51.852 8.9995C47.435 9.61319 43.2332 10.2321 39.0074 10.8915L38.9575 10.8967C36.3099 11.1287 33.5949 11.3804 30.969 11.6238C26.9433 11.9962 19.456 12.5038 15.3846 12.8335C14.7912 12.7597 17.6376 12.5516 17.0681 12.4747C21.6807 12.1158 26.2738 11.6904 30.8321 11.2681C33.4514 11.0257 36.1599 10.775 38.8053 10.5431C43.031 9.88467 47.2306 9.26578 51.6498 8.65208C74.1913 5.55449 94.9112 3.82991 115.001 3.37849C118.677 3.29631 122.372 3.25679 125.985 3.26303C130.436 3.03939 134.499 2.86257 138.403 2.72423C144.085 2.58069 150.043 2.76271 156.63 3.27863C159.206 3.48042 162.216 3.77271 165.838 4.17109C169.357 4.47273 172.82 4.96889 175.441 5.36727L175.478 5.37351C185.929 7.55888 195.229 8.36084 203.123 7.75755C206.215 7.50687 210.155 7.01176 211.931 6.37102L211.979 6.35334L212.038 6.34502C226.161 4.08267 240.868 2.74815 255.606 1.77664C257.195 1.79641 258.784 1.81721 260.373 1.83905Z" fill="#804520"/>
<path d="M344.894 6.33045C337.249 4.52474 329.306 2.96138 320.668 2.9333H320.626C318.192 2.79808 315.72 2.68262 313.24 2.58797H313.22C311.534 2.52348 309.845 2.46835 308.156 2.42258C302.752 2.27696 297.311 2.22599 291.855 2.26864C291.84 2.2676 291.824 2.26864 291.809 2.26864C264.105 2.48395 235.916 5.09683 209.397 9.94396C207.132 10.5514 204.606 10.9696 201.891 11.188C193.785 11.837 184.94 10.6377 178.141 9.52062C176.571 9.29906 174.961 9.06191 173.254 8.81019C171.883 8.6084 170.487 8.40245 169.096 8.20378C165.64 7.71594 163.016 7.38725 160.59 7.13762C156.452 6.64146 152.791 6.30445 149.383 6.10578C145.344 5.8707 141.594 5.82078 137.914 5.95496C134.74 6.09434 131.654 6.27116 127.952 6.48856H127.913C124.622 6.51352 120.698 6.54681 116.564 6.61442C96.2089 6.94831 76.1759 8.42117 57.0167 10.9924L56.4146 11.058C52.8997 11.4418 48.9175 11.8776 45.3221 12.173C30.0626 14.1732 15.5378 15.2311 1.88896 15.3413C1.8694 15.2207 1.84766 15.1 1.82593 14.9794C10.2991 14.9128 19.1157 14.479 28.2388 13.6781C28.2388 13.6781 28.2584 13.6771 28.2671 13.676C33.784 13.1924 39.4118 12.5745 45.1482 11.8225L45.183 11.8183C48.7631 11.524 52.7432 11.0892 56.2538 10.7054L56.8385 10.6419C76.0368 8.06544 96.1263 6.58841 116.542 6.25348C120.672 6.18587 124.591 6.15259 127.882 6.12866C131.584 5.91231 134.669 5.73548 137.853 5.59506C141.588 5.4588 145.385 5.50873 149.474 5.74692C152.911 5.94767 156.604 6.28781 160.755 6.78604C163.188 7.03568 165.829 7.36645 169.307 7.85636C170.7 8.05711 172.094 8.26203 173.472 8.46486C175.176 8.71553 176.784 8.95269 178.365 9.17528C185.099 10.282 193.829 11.4678 201.774 10.8312C204.412 10.619 206.864 10.2123 209.062 9.62151L209.112 9.61111C232.24 5.38079 256.636 2.84593 280.884 2.11469C290.035 1.83801 299.165 1.81825 308.197 2.06165C312.379 2.17398 316.583 2.34665 320.689 2.57236C322.567 2.5786 324.411 2.65662 326.224 2.79184C332.566 3.26511 338.536 4.44881 344.324 5.79685C344.528 5.96848 344.72 6.14634 344.894 6.33045Z" fill="#804520"/>
<path d="M346.361 9.66728C331.164 7.1917 314.598 5.22061 297.348 4.85551C292.955 4.72445 288.518 4.66516 284.156 4.6766C257.069 4.75045 230.621 7.61297 207.675 12.9531C204.232 13.8466 200.15 14.322 195.557 14.3605C191.824 14.3938 187.716 14.1462 182.995 13.6095C179.382 13.2725 175.787 12.8606 172.617 12.4965C169.807 12.1616 167.018 11.7996 164.423 11.4574C160.627 10.9758 156.623 10.5233 153.154 10.1853C144.733 9.36355 137.825 9.2585 131.412 9.85451L131.373 9.85763C127.235 10.0209 123.048 10.1239 118.933 10.1624C115.038 10.2321 111.184 10.3215 107.488 10.4276C90.9942 10.9009 76.0651 11.7445 61.8446 13.0072C58.0514 13.3432 54.2496 13.7177 50.5369 14.1171C33.7449 16.1287 17.5528 17.1439 2.13894 17.1543C2.12807 17.0337 2.11503 16.9141 2.10199 16.7934C17.468 16.783 33.6123 15.773 50.3673 13.7655C54.0974 13.364 57.9101 12.9895 61.712 12.6515C75.9607 11.3867 90.9225 10.541 107.443 10.0667C111.145 9.9606 115.003 9.87115 118.911 9.80146C123.013 9.76297 127.176 9.66104 131.293 9.49773C137.797 8.89548 144.792 9.00158 153.3 9.83058C156.782 10.1707 160.801 10.6242 164.614 11.1089C167.209 11.4501 169.992 11.8121 172.791 12.1449C175.952 12.5079 179.539 12.9199 183.149 13.2558C187.825 13.7884 191.877 14.0297 195.546 13.9995C200.019 13.9621 203.986 13.5013 207.34 12.6307C219.094 9.89611 231.695 7.80332 244.811 6.40742C257.514 5.05626 270.75 4.35207 284.153 4.31567C288.533 4.30423 292.987 4.36352 297.391 4.49458C314.618 4.85967 331.154 6.81829 346.33 9.28138C346.346 9.40828 346.354 9.53726 346.361 9.66728Z" fill="#804520"/>
<path d="M345.722 12.6941C345.683 12.8138 345.646 12.9323 345.609 13.052C340.388 12.5142 335.192 11.9733 330.069 11.4397C318.107 10.1957 305.736 8.909 293.581 7.70866C290.42 7.48087 287.129 7.28948 283.821 7.14178C280.48 6.99303 277.2 6.88798 274.065 6.82973C257.027 6.54369 240.12 9.23977 223.767 11.8464C219.568 12.5163 215.222 13.209 210.973 13.8341C206.962 14.5363 202.928 15.2956 198.993 16.0882C195.72 16.7705 192.442 16.7175 188.97 16.6603L188.112 16.6467C185.512 16.5417 182.782 16.3389 179.499 16.007C176.293 15.7231 173.004 15.3621 169.526 14.9794L167.624 14.7713C164.223 14.3771 160.375 13.9309 156.645 13.6022C151.063 13.0863 146.074 12.768 141.388 12.6286C137.312 12.5433 134.127 12.7004 131.067 13.1362L131.004 13.1424C128.88 13.2631 126.409 13.3827 122.726 13.4472C118.244 13.5585 113.716 13.6916 109.282 13.8425C90.1769 14.4936 71.4046 15.5223 53.491 16.9016C50.026 17.1616 46.4698 17.4456 41.9572 17.8211C33.0362 18.6376 24.0066 18.9236 14.9835 18.9236C10.7295 18.9236 6.47769 18.8602 2.23893 18.7593C2.23893 18.6376 2.23241 18.5169 2.22372 18.3963C15.4291 18.7114 28.7562 18.6626 41.8268 17.4653C46.3481 17.0888 49.9087 16.8048 53.3758 16.5448C71.309 15.1645 90.1008 14.1337 109.23 13.4826C113.67 13.3307 118.203 13.1976 122.696 13.0863C126.339 13.0228 128.787 12.9042 130.886 12.7857C134.019 12.3405 137.271 12.1813 141.425 12.2687C146.15 12.4081 151.169 12.7285 156.782 13.2475C160.527 13.5772 164.386 14.0245 167.79 14.4198L169.689 14.6278C173.161 15.0085 176.441 15.3684 179.641 15.6523C182.904 15.9821 185.605 16.1828 188.155 16.2868L188.996 16.2993C192.383 16.3545 195.583 16.4065 198.707 15.7553C202.652 14.9596 206.701 14.1982 210.738 13.4909C214.999 12.8637 219.337 12.172 223.533 11.5032C239.946 8.88612 256.919 6.17963 274.089 6.46879C277.234 6.52704 280.532 6.6321 283.886 6.78188C287.207 6.93062 290.512 7.12305 293.707 7.35293C305.886 8.55535 318.259 9.84202 330.221 11.0871C335.332 11.6186 340.514 12.1574 345.722 12.6941Z" fill="#804520"/>
<path d="M344.774 16.7684C344.757 16.8849 344.744 17.0025 344.731 17.12L338.551 17.12C337.342 17.1086 336.138 17.0919 334.934 17.0649C334.386 17.0649 333.823 17.067 333.258 17.0701C329.891 17.0846 326.411 17.0992 322.961 16.575C318.048 15.7917 313.257 14.8577 308.625 13.9558C299.417 12.1605 290.718 10.4651 281.041 9.82434C277.628 9.53726 274.615 9.34587 271.82 9.23769C259.914 8.77482 248.457 10.7511 237.377 12.664C231.234 13.7239 224.88 14.8213 218.448 15.5109C215.77 15.8052 212.866 16.1797 210.058 16.5417C208.558 16.7351 207.141 16.9182 205.76 17.0888C201.924 17.6214 197.974 18.2163 194.031 18.855L193.976 18.8644H193.916C192.95 18.8696 191.896 18.8914 190.779 18.9143C188.236 18.9663 185.351 19.0256 182.754 18.8945C178.713 18.6896 174.778 18.2964 171.8 17.9771C168.874 17.663 166.038 17.3072 163.384 16.9692C159.629 16.5188 155.873 16.1766 152.524 15.98C146.415 15.6367 139.888 15.3632 133.225 16.0975C132.269 16.1818 131.373 16.2681 130.423 16.3597C128.65 16.5292 126.635 16.7227 123.885 16.938C123.007 17.0066 122.126 17.0763 121.248 17.146C117.992 17.4019 114.627 17.6682 111.299 17.9053C97.5502 18.7822 83.9079 19.1379 70.7155 19.4812C67.2658 19.5717 63.6966 19.6642 60.1817 19.7651C56.3972 19.8743 53.0714 19.9804 50.0108 20.0917C42.5571 20.8438 35.0404 21.1101 27.5476 21.1101C19.0462 21.1101 10.5686 20.7678 2.22589 20.4059C2.23024 20.2852 2.23459 20.1656 2.23676 20.0449C17.905 20.7242 34.0535 21.3368 49.8848 19.735L49.9326 19.7318C53.0041 19.6205 56.3407 19.5145 60.1382 19.4052C63.6575 19.3043 67.2267 19.2107 70.6786 19.1213C83.8557 18.777 97.4828 18.4223 111.199 17.5475C114.514 17.3104 117.877 17.0451 121.131 16.7892C122.011 16.7195 122.889 16.6499 123.77 16.5812C126.508 16.3669 128.513 16.1745 130.282 16.005C131.236 15.9134 132.134 15.8271 133.08 15.7439C139.838 14.9981 146.437 15.2737 152.613 15.6211C155.993 15.8198 159.779 16.1651 163.568 16.6197C166.218 16.9567 169.046 17.3114 171.961 17.6245C174.919 17.9417 178.828 18.3318 182.83 18.5346C185.373 18.6636 188.227 18.6054 190.744 18.5533C191.844 18.5305 192.883 18.5086 193.846 18.5034C197.781 17.8658 201.721 17.2729 205.562 16.7393C206.947 16.5677 208.362 16.3857 209.862 16.1922C212.677 15.8302 215.588 15.4547 218.281 15.1583C224.669 14.4728 230.999 13.3806 237.121 12.3238C248.274 10.3985 259.81 8.40765 271.874 8.8778C274.691 8.98702 277.726 9.17944 281.149 9.46653C290.905 10.1135 299.646 11.8162 308.897 13.6199C313.518 14.5207 318.296 15.4516 323.183 16.2307C326.517 16.7383 329.936 16.7227 333.245 16.7081C333.812 16.706 334.379 16.7039 334.947 16.7039C338.212 16.7757 341.509 16.783 344.77 16.7684H344.774Z" fill="#804520"/>
<path d="M344.663 21.2141C339.67 21.7737 334.529 22.3354 329.315 22.7223C323.924 23.0499 318.589 22.5476 312.52 21.1413C310.905 20.7564 309.299 20.3695 307.701 19.9846C298.106 17.6713 289.042 15.487 278.867 14.0661C274.974 13.519 271.439 13.0811 268.061 12.7264C265.816 12.5069 263.801 12.8034 261.468 13.1456L261.045 13.2069C254.921 13.8747 248.996 14.7516 243.263 15.5993C235.316 16.7747 227.81 17.8845 219.733 18.5055C216.198 18.6906 212.662 18.9455 209.623 19.1712C206.369 19.4125 203.128 19.7006 199.985 20.0272L199.922 20.0314C196.605 20.0845 193.042 20.2779 189.596 20.4662L188.166 20.5432C184.779 20.6607 181.136 20.7907 176.678 20.953H176.639C173.872 20.9114 171.313 20.7959 168.259 20.6493C163.957 20.4246 159.779 20.0949 156.258 19.8026C152.432 19.4011 148.663 18.9236 145.042 18.3807C143.344 18.155 141.47 18.3869 139.657 18.6106C138.72 18.7271 137.755 18.8456 136.823 18.8997C135.601 19.0713 134.117 19.2867 132.545 19.5145C131.378 19.683 130.186 19.8556 129.073 20.0148C126.911 20.3237 124.061 20.6898 121.196 20.7876C117.12 21.0799 112.894 21.3493 108.636 21.5896C90.4595 22.6131 72.8306 23.051 56.4885 23.3703C55.3082 23.3922 54.0735 23.4088 52.8388 23.4265C50.3804 23.4608 47.8371 23.4962 45.9134 23.5638C43.0223 23.7583 39.9682 23.855 36.7859 23.855C34.3644 23.855 31.8668 23.7989 29.3083 23.6855C22.1763 23.4962 14.9943 22.9584 8.04929 22.4394C6.08425 22.2917 4.10616 22.144 2.11721 22.0035C2.13025 21.8818 2.14329 21.7612 2.15199 21.6395C4.16703 21.783 6.1712 21.9328 8.16233 22.0816C15.09 22.5996 22.2524 23.1363 29.3626 23.3256C35.236 23.5856 40.7747 23.544 45.8351 23.2039C47.8002 23.1352 50.3499 23.0999 52.8171 23.0655C54.0474 23.0479 55.2821 23.0312 56.4581 23.0094C72.7871 22.6901 90.4008 22.2532 108.551 21.2307C112.808 20.9904 117.029 20.721 121.102 20.4298H121.131C123.93 20.3331 126.735 19.9721 128.865 19.6684C129.978 19.5092 131.169 19.3366 132.334 19.1681C133.919 18.9382 135.414 18.7208 136.647 18.5492L136.708 18.5429C137.599 18.493 138.51 18.3796 139.473 18.2611C141.379 18.0249 143.353 17.7815 145.248 18.0333C148.861 18.5752 152.608 19.0505 156.397 19.4479C159.89 19.7381 164.055 20.0668 168.333 20.2904C171.361 20.435 173.902 20.5494 176.637 20.591C181.084 20.4288 184.725 20.2987 188.092 20.1833L189.509 20.1063C192.957 19.918 196.52 19.7246 199.859 19.6705C203.004 19.3428 206.249 19.0547 209.508 18.8134C212.553 18.5866 216.101 18.3308 219.633 18.1466C227.641 17.5309 235.123 16.4241 243.044 15.2529C248.783 14.4031 254.717 13.5263 260.864 12.8554L261.247 12.7992C263.575 12.457 265.775 12.1345 268.207 12.3717C271.609 12.7285 275.158 13.1685 279.067 13.7177C289.305 15.1479 298.4 17.3395 308.025 19.6601C309.625 20.0449 311.227 20.4308 312.84 20.8146C318.774 22.1897 323.976 22.6817 329.212 22.3634C334.436 21.9755 339.609 21.4086 344.633 20.8459C344.639 20.9686 344.648 21.0903 344.661 21.213L344.663 21.2141Z" fill="#804520"/>
<path d="M345.196 24.4895C343.581 24.787 341.974 25.0866 340.377 25.3841C337.186 25.979 333.884 26.5948 330.625 27.169C327.223 27.7494 323.943 27.9959 320.739 27.9959C311.931 27.9959 303.697 26.1288 295.109 24.1827C289.34 22.8742 283.373 21.522 277.208 20.7928C272.959 20.306 268.937 20.4496 265.222 20.6773C263.74 20.7824 262.186 20.8864 260.679 20.9852C259.397 21.0705 258.112 21.1558 256.845 21.2442L256.556 21.264C242.448 22.2469 229.123 23.1758 215.19 22.4456C210.949 22.2771 207.077 22.2095 203.363 22.2407C199.178 22.274 195.281 22.43 191.455 22.7171L191.422 22.7192C188.983 22.8024 186.453 22.8461 184.003 22.8887L182.514 22.9147C179.284 22.9719 176.38 22.9803 173.63 22.9397C170.235 22.9064 167.227 22.8357 164.429 22.7233C163.923 22.6921 163.414 22.6609 162.89 22.6287C160.477 22.481 157.738 22.3125 155.236 22.0888C154.284 22.0046 153.337 21.9162 152.382 21.8278C150.33 21.6385 148.207 21.4419 146.089 21.2765C142.835 20.9384 139.646 21.3493 136.562 21.7466L136.168 21.7976C134.847 21.9796 133.384 22.2085 131.832 22.4498C128.741 22.9314 125.237 23.4774 122.228 23.7416C118.144 24.2222 113.707 24.7246 109.097 25.1292C95.8481 26.2162 82.7732 26.2162 70.1286 26.2162C65.2247 26.2162 60.1534 26.2162 55.1517 26.2796L54.9213 26.2828C51.2781 26.3212 47.5132 26.3618 44.3722 26.5293L44.3374 26.5314C43.6875 26.5376 43.0375 26.5449 42.3898 26.5522C38.1271 26.6021 34.1014 26.6499 29.7887 26.3348C25.0326 25.9385 20.3113 25.4694 15.7421 25.0148C11.0556 24.5488 6.45813 24.0911 1.89114 23.7156C1.91288 23.595 1.93244 23.4743 1.952 23.3537C6.54943 23.7323 11.1773 24.192 15.8943 24.6611C20.4547 25.1147 25.1717 25.5838 29.9082 25.978C34.1514 26.288 38.1445 26.2412 42.3745 26.1912C43.018 26.1839 43.6614 26.1756 44.3092 26.1694C47.4763 26.0009 51.2542 25.9603 54.9061 25.9218L55.1365 25.9187C60.1447 25.8553 65.2204 25.8552 70.1286 25.8552C82.7427 25.8552 95.7851 25.8553 108.969 24.7735C113.557 24.3709 117.981 23.8696 122.074 23.388C125.059 23.1269 128.537 22.584 131.606 22.1055C133.164 21.8631 134.634 21.6343 135.973 21.4491L136.373 21.3982C139.394 21.0081 142.82 20.5671 146.226 20.9218C148.337 21.0861 150.463 21.2827 152.521 21.4731C153.473 21.5615 154.421 21.6489 155.371 21.7341C157.854 21.9557 160.579 22.1232 162.986 22.2698C163.51 22.3021 164.018 22.3333 164.507 22.3645C167.274 22.4747 170.27 22.5455 173.652 22.5788C176.387 22.6193 179.276 22.611 182.491 22.5538L183.979 22.5278C186.416 22.4851 188.936 22.4415 191.359 22.3593C195.215 22.0701 199.137 21.9131 203.354 21.8787C207.095 21.8486 210.99 21.9162 215.264 22.0857C229.112 22.8117 242.394 21.886 256.456 20.9062L256.745 20.8864C258.014 20.798 259.301 20.7127 260.584 20.6274C262.086 20.5286 263.64 20.4256 265.127 20.3195C268.918 20.0865 273.02 19.9409 277.387 20.4412C283.625 21.1797 289.625 22.5403 295.428 23.855C306.995 26.4773 317.92 28.9549 330.382 26.8288C333.632 26.2557 336.927 25.641 340.116 25.047C341.772 24.7381 343.439 24.4271 345.115 24.1203C345.142 24.243 345.172 24.3668 345.2 24.4895H345.196Z" fill="#804520"/>
<path d="M346.081 27.3593C339.355 28.8675 332.403 30.4174 325.176 31.625C322.55 32.0182 319.859 32.4207 317.029 32.4207C316.394 32.4207 315.753 32.401 315.103 32.3552C309.953 32.1253 304.728 31.807 299.672 31.4991C286.375 30.6899 272.624 29.8536 259.023 30.5495C256.523 30.692 253.767 30.7097 250.835 30.6015C245.511 30.4049 240.185 29.8162 235.036 29.2462C232.354 28.9497 229.578 28.6429 226.867 28.3995C223.467 28.0105 220.348 27.6755 217.303 27.3749C206.767 26.3348 197.313 25.7294 188.401 25.5234C186.386 25.4839 184.395 25.46 182.471 25.4371C180.939 25.4184 179.354 25.3997 177.806 25.3737C174.165 25.3726 170.383 25.3737 166.661 25.252C163.29 25.071 160.566 24.8681 158.317 24.632L157.727 24.5696C155.252 24.3085 152.691 24.0381 150.076 23.9278C146.32 23.6782 142.879 24.0599 139.236 24.4625C137.705 24.632 136.123 24.8068 134.534 24.9285C132.782 25.1147 131.065 25.3425 129.076 25.6067C127.65 25.797 126.174 25.9936 124.476 26.2016C120.459 26.6936 116.305 27.2033 112.079 27.6568C96.1981 29.3211 80.6821 29.8328 64.6465 29.2222C63.9444 29.2181 63.2292 29.2098 62.5141 29.2025C60.2882 29.1765 57.9862 29.1505 55.356 29.2503C51.7607 29.3887 48.2175 29.4667 44.8222 29.4823C34.2253 29.6383 24.4348 28.2476 14.0683 26.7768C10.0187 26.2027 5.85383 25.6119 1.6129 25.1167C1.64116 24.9961 1.66942 24.8754 1.69116 24.7548C5.98643 25.254 10.1904 25.8511 14.2748 26.4305C24.5826 27.8929 34.3166 29.2742 44.8048 29.1213C48.1914 29.1057 51.7172 29.0277 55.2952 28.8904C57.9645 28.7885 60.286 28.8155 62.5315 28.8405C63.2423 28.8488 63.9574 28.8571 64.6791 28.8613C80.6668 29.4708 96.1111 28.9612 111.918 27.3042C116.131 26.8517 120.281 26.3431 124.293 25.8511C125.985 25.6441 127.456 25.4475 128.88 25.2582C130.876 24.993 132.601 24.7641 134.395 24.5738C135.984 24.4521 137.551 24.2784 139.07 24.1109C142.616 23.7177 146.285 23.3121 150.156 23.569C152.802 23.6803 155.386 23.9528 157.886 24.217L158.473 24.2784C160.699 24.5124 163.399 24.7132 166.729 24.8921C170.409 25.0117 174.178 25.0117 177.821 25.0117C179.378 25.0387 180.962 25.0575 182.493 25.0762C184.419 25.0991 186.414 25.123 188.436 25.1625C197.387 25.3695 206.88 25.9769 217.453 27.0213C220.502 27.3229 223.633 27.6578 227.021 28.0458C229.732 28.2892 232.512 28.5971 235.203 28.8946C240.327 29.4615 245.626 30.0471 250.893 30.2416C253.78 30.3477 256.486 30.331 258.945 30.1906C272.635 29.4896 286.427 30.329 299.765 31.1403C304.815 31.4482 310.036 31.7654 315.192 31.9963C318.592 32.2335 321.822 31.7488 324.945 31.2818C332.197 30.07 339.19 28.5077 345.957 26.989C345.957 26.9942 345.955 26.9984 345.959 27.0036C346.005 27.1222 346.044 27.2418 346.081 27.3593Z" fill="#804520"/>
<path d="M346.359 29.3949C346.352 29.5332 346.339 29.6705 346.32 29.8058C342.255 30.769 338.066 31.7571 333.871 32.7016C318.685 36.0946 302.113 36.105 286.086 36.1154C276.432 36.1216 266.453 36.1278 256.912 36.8768L256.88 36.8788H256.849C253.88 36.8653 251.269 36.7686 248.874 36.5845C246.089 36.3692 243.526 36.0467 241.038 35.5974C220.563 31.831 200.441 28.3787 179.358 27.5112L176.945 27.4134C173.722 27.2834 170.389 27.1482 167.138 26.9953C163.053 26.7893 158.986 26.6614 155.056 26.6114C150.928 26.5594 146.802 26.5938 142.792 26.7123C140.101 26.8548 137.442 27.0795 134.436 27.4186C131.786 27.7171 129.302 28.0406 126.426 28.4151C125.476 28.5378 124.496 28.6658 123.465 28.7979C121.018 29.113 118.52 29.4438 116.105 29.7642C114.442 29.9847 112.773 30.2062 111.101 30.4247C95.7742 32.4134 80.3495 32.3542 65.4312 32.298C62.225 32.2855 58.9079 32.273 55.6386 32.2813C52.0759 32.3323 48.5327 32.3157 45.1156 32.2314C35.2252 31.9891 26.1042 30.562 16.4507 29.0517C12.0055 28.3558 7.40805 27.636 2.77367 27.0535C2.23241 26.9797 1.69116 26.91 1.15207 26.8465C1.18903 26.7269 1.22163 26.6073 1.25641 26.4877C1.8281 26.5542 2.39762 26.627 2.9693 26.7051C7.61672 27.2896 12.2228 28.0105 16.6768 28.7074C26.2825 30.2104 35.3599 31.6312 45.1547 31.8705C48.5523 31.9537 52.0759 31.9703 55.6277 31.9194C58.9079 31.911 62.2293 31.9246 65.4399 31.9371C80.3082 31.9932 95.6829 32.0515 110.91 30.0752C112.581 29.8567 114.249 29.6362 115.912 29.4157C118.327 29.0953 120.826 28.7635 123.278 28.4494C124.307 28.3163 125.287 28.1894 126.235 28.0656C129.119 27.6901 131.606 27.3666 134.269 27.066C137.301 26.7238 139.99 26.497 142.727 26.3524C146.776 26.2328 150.926 26.1985 155.073 26.2505C159.023 26.3004 163.11 26.4294 167.211 26.6354C170.455 26.7893 173.785 26.9235 177.006 27.0535L179.419 27.1513C200.598 28.0219 220.774 31.4835 241.298 35.2583C243.737 35.6993 246.254 36.0165 248.989 36.2277C251.341 36.4087 253.906 36.5033 256.823 36.5169C266.411 35.7659 276.413 35.7596 286.084 35.7544C302.03 35.744 318.522 35.7336 333.558 32.3739C337.87 31.4024 342.183 30.3841 346.359 29.3949Z" fill="#804520"/>
<path d="M227.208 37.5913C226.584 37.5997 225.961 37.6059 225.337 37.6132C222.465 37.0484 219.624 36.4638 216.831 35.8897C203.452 33.1384 189.62 30.2946 174.743 29.994H174.713C171.194 29.7766 167.633 29.6248 164.614 29.5041C158.034 29.241 151.252 29.1827 144.457 29.3283C141.77 29.3783 139.451 29.4219 136.888 29.6508C134.49 29.8859 132.086 30.1584 129.765 30.4215L129.123 30.4933C126.252 30.8095 123.076 31.1881 118.824 31.7197C116.859 31.9651 114.894 32.2158 112.921 32.4665C111.329 32.6693 109.734 32.8722 108.132 33.0739C94.8504 34.7746 82.0624 34.7725 68.5157 34.7715H65.9007L65.6616 34.7756C63.2379 34.8141 60.7295 34.8547 58.2275 34.8641C54.2865 34.8807 50.3608 34.8131 46.5655 34.6654C42.2333 34.4969 38.4053 34.2316 34.5274 33.8312C28.0019 33.0802 21.6046 31.9443 15.416 30.8449C12.3424 30.2988 9.16224 29.734 5.97122 29.217C4.19311 28.9352 2.39544 28.7157 0.591252 28.5493C0.599947 28.5274 0.606469 28.5066 0.615163 28.4848C0.652117 28.388 0.684723 28.2903 0.717328 28.1935C2.5563 28.362 4.38875 28.5857 6.2038 28.8738C9.40352 29.3928 12.588 29.9587 15.6704 30.5058C21.8372 31.6011 28.2127 32.7338 34.6883 33.4786C38.5292 33.8749 42.3246 34.138 46.622 34.3055C50.3999 34.4522 54.2996 34.5187 58.2232 34.5031C60.7164 34.4927 63.2162 34.4532 65.6356 34.4147L65.8877 34.4105C66.7724 34.4105 67.6441 34.4105 68.5157 34.4105C82.0102 34.4126 94.7547 34.4147 107.945 32.7255C109.547 32.5237 111.14 32.3209 112.731 32.118C114.707 31.8674 116.672 31.6167 118.637 31.3712C122.898 30.8386 126.08 30.46 128.958 30.1428L129.595 30.071C131.923 29.8068 134.33 29.5343 136.745 29.2971C139.368 29.0631 141.709 29.0194 144.422 28.9684C151.248 28.8218 158.062 28.8811 164.67 29.1453C167.694 29.2659 171.261 29.4178 174.787 29.6341C189.79 29.9389 203.68 32.7952 217.116 35.5578C220.426 36.2391 223.8 36.9319 227.208 37.5913Z" fill="#804520"/>
<path d="M345.472 31.9839C345.359 32.1482 345.235 32.3073 345.1 32.4634C338.892 33.8551 332.538 35.148 325.984 36.236C325.111 36.2495 324.239 36.2641 323.363 36.2776C330.975 35.0835 338.318 33.5961 345.472 31.9839Z" fill="#804520"/>
<path d="M208.097 37.8025C207.438 37.8108 206.78 37.8171 206.123 37.8233C200.032 36.6771 193.922 35.3706 187.803 33.904C183.808 32.9897 179.165 32.479 174.378 32.429L174.324 32.4259C171.159 32.1669 167.824 31.9755 164.407 31.8601C158.549 31.6604 152.224 31.6645 144.505 31.8736H144.455L144.407 31.8694C142.207 31.6416 138.273 32.013 134.801 32.3396C134.216 32.3947 133.643 32.4488 133.093 32.4987C129.11 32.8586 125.165 33.3038 121.776 33.6939C120.542 33.8333 119.305 33.9737 118.066 34.1141C116.068 34.3409 114.001 34.5759 111.951 34.8027C108.054 35.2344 104.867 35.5662 101.922 35.846C93.7157 36.7197 85.8729 36.8133 78.5431 36.8352C76.665 36.858 74.75 36.8695 72.9023 36.8799C71.2894 36.8892 69.6222 36.8986 67.9484 36.9163C61.8794 37.0224 55.7516 36.9693 49.7348 36.7582C46.635 36.65 43.5788 36.5002 40.6508 36.313C32.0733 36.0207 23.9153 34.4053 16.029 32.843C14.59 32.558 13.1054 32.2637 11.6446 31.9828C8.0319 31.3286 4.19963 30.8751 0.0717328 30.6233C0.0869489 30.5037 0.106512 30.382 0.12825 30.2614C4.32788 30.5172 8.23189 30.9791 11.912 31.6458C13.3814 31.9287 14.8683 32.2231 16.3094 32.5081C24.1435 34.06 32.245 35.6639 40.7269 35.9531C43.6636 36.1414 46.7068 36.2901 49.7891 36.3983C55.7777 36.6084 61.8815 36.6604 67.9288 36.5554C69.6113 36.5377 71.2807 36.5283 72.8936 36.5189C74.7434 36.5085 76.6542 36.4971 78.5323 36.4742C85.8294 36.4524 93.6309 36.3588 101.774 35.4923C104.719 35.2125 107.897 34.8817 111.786 34.4511C113.836 34.2244 115.903 33.9893 117.901 33.7625C119.137 33.6211 120.376 33.4806 121.609 33.3423C125.004 32.9512 128.96 32.505 132.958 32.144C133.508 32.0941 134.077 32.04 134.662 31.9849C138.179 31.6541 142.164 31.2797 144.513 31.5106C152.241 31.3026 158.582 31.2994 164.462 31.4991C167.89 31.6156 171.239 31.807 174.422 32.0681C179.302 32.1201 184.038 32.6423 188.123 33.5784C194.798 35.1771 201.461 36.5866 208.097 37.8025Z" fill="#804520"/>
<path d="M341.466 34.8547C339.864 35.4715 337.881 35.8865 335.525 36.0426C337.503 35.6619 339.481 35.2656 341.466 34.8547Z" fill="#804520"/>
<path d="M45.6982 38.3735C48.8109 38.6138 51.9911 38.7906 55.2321 38.903C52.9454 38.9113 50.6608 38.9196 48.3718 38.9269H48.3653C47.4306 38.8676 46.5046 38.8011 45.583 38.7303C42.2485 38.4713 38.9205 38.1353 35.6925 37.7307L35.6664 37.7266L33.4623 37.3646C22.9002 35.6254 11.5664 33.7584 0.134771 32.9834C0.108686 32.8617 0.0869489 32.739 0.0695591 32.6142C11.6185 33.386 23.048 35.2676 33.6992 37.0224L35.8882 37.3823C39.0879 37.7838 42.3898 38.1177 45.6982 38.3735Z" fill="#804520"/>
<path d="M196.668 37.9211C196.033 37.9284 195.398 37.9346 194.763 37.9408C193.422 37.6798 192.101 37.4197 190.794 37.1607C184.303 35.8969 177.717 35.3072 172.128 34.8973C168.457 34.6155 164.74 34.4282 161.086 34.3398C157.343 34.2504 153.556 34.2618 149.826 34.3752H149.789L149.752 34.3741C147.657 34.2368 145.185 34.2119 142.192 34.2961C139.462 34.3741 136.592 34.5468 134.286 34.6851C129.813 34.9545 124.987 35.3727 119.098 36.0009C117.872 36.1247 116.646 36.2485 115.42 36.3733C113.253 36.5928 111.008 36.8196 108.782 37.039C104.706 37.4405 101.345 37.7505 98.2044 38.0137L97.3589 38.0823C93.9265 38.3621 90.6486 38.6284 87.251 38.7594C83.184 38.7813 79.1126 38.801 75.0456 38.8198C75.1238 38.8166 75.2065 38.8135 75.2847 38.8104C76.9541 38.7397 78.6148 38.6856 80.2212 38.6336C81.7776 38.5826 83.3862 38.5306 84.9752 38.464C89.1617 38.3839 93.0853 38.0646 97.2393 37.7266L98.0849 37.6579C101.215 37.3948 104.571 37.0858 108.638 36.6854C110.866 36.4659 113.105 36.2391 115.273 36.0197C116.501 35.8949 117.727 35.7711 118.948 35.6483C124.854 35.018 129.702 34.5978 134.199 34.3273C136.516 34.1879 139.399 34.0142 142.153 33.9362C145.174 33.8499 147.683 33.8759 149.819 34.0132C153.563 33.9009 157.367 33.8884 161.125 33.9789C164.807 34.0673 168.548 34.2566 172.246 34.5406C177.874 34.9535 184.514 35.5474 191.077 36.8258C192.909 37.1888 194.774 37.5549 196.672 37.9211H196.668Z" fill="#804520"/>
<path d="M33.734 38.9727C32.6689 38.9758 31.6038 38.9789 30.5386 38.982C30.2691 38.9519 29.9974 38.9207 29.7213 38.8884C28.8866 38.7927 28.028 38.6939 27.1324 38.592L27.0759 38.5826C18.5527 36.8747 9.8274 35.8116 1.2325 35.406C1.13903 35.2843 1.04991 35.1584 0.971654 35.0315C9.7361 35.4289 18.6397 36.5033 27.3302 38.2435C28.2149 38.3434 29.067 38.4422 29.8909 38.5369C31.2364 38.6918 32.5037 38.8375 33.734 38.9727Z" fill="#804520"/>
<path d="M182.308 38.0625C181.46 38.0709 180.608 38.0792 179.76 38.0865H179.756C178.295 37.9086 176.919 37.789 175.556 37.7214L175.524 37.7193C173.115 37.4905 168.409 37.091 163.942 36.9787C160.138 36.882 156.347 36.9392 152.682 37.1462L152.626 37.1493L152.571 37.1451C149.798 36.908 146.731 36.8539 143.768 36.8008L143.2 36.7915C136.421 36.6687 130.393 36.9725 124.769 37.7193L124.739 37.7224C121.789 37.9876 118.794 38.2727 115.899 38.5473L115.54 38.5816C115.49 38.5857 115.442 38.5909 115.392 38.5961H115.386C114.001 38.6055 112.614 38.6138 111.227 38.6221C112.623 38.4911 114.012 38.359 115.399 38.2269L115.757 38.1926C118.648 37.918 121.639 37.634 124.589 37.3688C130.28 36.6136 136.375 36.3068 143.224 36.4305L143.794 36.4399C146.763 36.4929 149.837 36.547 152.647 36.7852C156.336 36.5772 160.151 36.521 163.979 36.6178C168.483 36.7311 173.215 37.1326 175.645 37.3625C177.76 37.4686 179.897 37.6922 182.308 38.0625Z" fill="#804520"/>
<path d="M20.0895 39.007C19.1244 39.0091 18.1593 39.0112 17.1963 39.0122H17.192C13.2162 38.5379 9.14268 38.2092 5.0126 38.0261C4.66698 37.8982 4.33875 37.7588 4.03008 37.608C9.51221 37.8191 14.8813 38.2872 20.0895 39.007Z" fill="#804520"/>
</g>
</svg>
