<svg width="75" height="127" viewBox="0 0 75 127" fill="none" xmlns="http://www.w3.org/2000/svg">
<path d="M73.9888 6.73278C71.7317 4.55132 69.0512 3.37003 66.2726 2.55361C54.0105 -1.05078 42.6993 1.08789 32.5409 8.76304C30.1511 10.5689 27.5197 11.5672 24.8823 12.7647C21.8295 14.1528 18.9224 15.9081 16.0838 17.7099C14.3435 18.8141 13.4468 20.6953 12.7872 22.6427C12.4456 23.6524 12.0735 24.6575 11.6216 25.6223C10.9375 27.0854 10.3238 28.494 11.201 30.1335C11.425 30.5512 11.3056 31.2351 11.1646 31.7495C10.1976 35.2652 9.24235 38.7722 9.3238 42.4715C9.33178 42.8391 9.00957 43.3839 8.68117 43.5666C5.02503 45.6086 5.04675 48.096 5.46104 50.6519C5.67294 51.9591 5.91791 53.2712 6.31068 54.5324C6.63261 55.5701 7.09711 56.5925 7.66967 57.5165C8.43042 58.749 8.69879 59.8853 7.93351 61.2298C6.85619 63.1207 5.91325 65.034 4.16562 66.5035C1.89605 68.4102 0.947532 70.7827 2.64471 73.6582C2.80258 73.9259 2.62069 74.6109 2.36095 74.8739C0.91172 76.346 0.443785 78.262 1.10727 79.9765C3.36297 85.7852 4.38386 92.0558 7.70688 97.4637C11.4716 103.592 16.4399 108.503 22.3998 112.49C35.5322 121.274 50.0608 125.557 65.763 126.261C75.1035 126.679 84.2858 125.636 93.0791 122.605C103.003 119.183 112.052 114.054 119.269 106.209C123.746 101.339 126.575 95.461 128.685 89.2718C130.159 84.9476 131.768 80.5656 132.401 76.0805C133.752 66.5074 132.511 57.1069 128.66 48.17C126.985 44.2843 124.919 40.5668 123.263 36.6735C122.1 33.9315 121.314 31.027 120.391 28.1828C118.003 20.8266 113.97 14.6873 107.348 10.4492C101.833 6.91782 95.8152 4.79846 89.2789 4.37459C83.9907 4.03143 78.7537 4.36105 73.9837 6.73203L73.9888 6.73278ZM54.2632 83.3993C54.0854 84.7944 53.9304 86.1929 53.7247 87.5838C53.5667 88.6518 52.931 89.2256 51.8317 89.3332C49.4196 89.5688 47.2869 88.6713 45.1988 87.6659C44.9319 87.5381 44.7725 86.8597 44.8224 86.4695C44.9569 85.4552 45.1992 84.4491 45.463 83.4565C46.3502 80.1109 49.6731 78.9342 52.3669 81.079C53.1431 81.6979 53.6549 82.6467 54.288 83.442C54.4774 80.5285 50.3905 78.1595 47.7318 79.3772C46.7901 79.807 45.9912 80.0968 45.4173 78.4969C45.2604 79.5573 45.251 80.2705 45.0413 80.9151C44.395 82.8957 43.7211 84.8696 42.9394 86.799C42.7753 87.2061 41.9991 87.7461 41.6809 87.6496C39.8057 87.0838 37.9297 86.4529 36.1689 85.6051C35.5917 85.3274 35.0387 84.3413 35.0217 83.6658C34.9404 80.0886 38.4939 77.7923 41.7616 79.2008C41.9035 79.2608 42.0736 79.2522 42.6533 79.3379C42.1901 78.6406 41.9627 78.1756 41.6265 77.814C39.9865 76.0617 38.097 77.4192 36.2839 77.5225C36.1759 77.0934 36.0846 76.7447 35.9962 76.3938C35.8845 76.3409 35.7703 76.2876 35.6582 76.2373C35.0692 77.1454 34.4828 78.0538 33.826 79.0688C33.5904 78.73 33.4799 78.4226 33.2597 78.2783C32.2859 77.6431 31.3335 76.7045 30.2755 76.5505C29.1362 76.3846 27.8571 77.1802 26.8793 75.8169C27.8769 77.5911 27.8066 77.5391 26.5297 79.2341C25.7441 80.2769 25.1014 81.4602 24.5934 82.6636C24.177 83.6518 23.6199 84.0111 22.6238 83.7546C22.1682 83.6378 21.7064 83.5279 21.2656 83.364C18.2817 82.2495 17.7588 80.0414 20.104 77.9224C21.5254 76.6385 23.1853 75.6212 24.7879 74.4473C24.1701 72.9683 24.1885 73.0022 22.6043 73.841C22.3281 73.9872 21.5522 73.8231 21.4775 73.6249C20.8268 71.9124 19.1845 71.5109 17.8215 70.7844C16.6462 70.1584 15.7722 70.6397 15.0208 71.6797C13.8515 73.2971 12.5289 74.8087 11.2147 76.3163C10.9866 76.5762 10.297 76.812 10.1225 76.6744C9.15044 75.9044 7.93028 75.1782 7.43246 74.1353C6.53326 72.2405 7.60226 70.6342 9.09081 69.4408C10.4086 68.3833 11.8353 67.4146 13.6231 68.5886C13.8101 68.7124 14.0776 68.713 14.3633 68.7838C13.9811 67.5034 12.6332 66.5166 11.094 66.2266C10.4345 66.1004 9.63792 66.006 9.20641 65.5861C8.88413 65.2708 8.80501 64.0846 9.04057 63.9323C9.94092 63.3432 9.94857 61.3772 11.6718 62.0921C12.2594 62.3349 12.7569 62.7827 13.3276 63.0698C14.0382 63.4296 14.7793 63.7237 15.5086 64.0447C15.5863 63.9236 15.6618 63.7997 15.7394 63.6787C13.4786 61.5928 11.8326 59.0912 10.497 56.3704C11.3655 56.7692 12.114 57.2593 12.8756 57.7306C13.6159 58.1883 14.3693 58.6271 15.1166 59.0729C15.1934 58.9751 15.2673 58.8795 15.3441 58.7817C14.9317 58.3206 14.4956 57.8793 14.1098 57.396C12.8047 55.7686 11.2872 54.2604 10.269 52.4675C8.33782 49.0662 9.05032 46.4978 12.4239 43.9774C12.5645 44.7829 12.7553 45.4608 12.7864 46.1462C12.891 48.4769 13.4976 50.5935 15.5251 51.9562C17.2244 53.0963 18.9427 54.3016 20.8183 55.0754C28.8717 58.3975 37.0207 59.1951 45.2051 55.4323C46.058 55.0414 46.4777 55.3477 46.4036 56.2177C46.1697 58.9401 46.8336 61.5121 47.8357 63.9756C48.3542 65.2476 49.1583 66.4502 50.0373 67.5157C50.8173 68.46 51.8725 69.1774 52.819 69.98C55.3876 72.1634 58.3107 73.4429 61.7271 73.4079C62.3647 73.4008 62.9997 73.2531 63.638 73.1708C63.6514 73.0273 63.6645 72.8863 63.6779 72.7428C59.552 72.8496 55.9261 71.965 52.9331 68.8224C51.1589 66.9592 47.7726 59.871 48.5144 58.0709C49.8536 60.7142 51.8495 62.449 54.4179 63.4396C56.9445 64.4137 59.5532 65.062 62.3284 64.8126C61.9244 64.4878 61.4717 64.2987 61.0253 64.1027C58.4467 62.9703 55.8204 61.9321 53.305 60.6713C50.7609 59.3932 48.8384 57.3912 48.3137 54.5098C47.6271 50.7391 47.6945 46.9293 48.4356 43.1489C49.2196 39.1489 48.3463 35.7092 45.1434 32.9668C39.0379 27.7345 31.8527 26.3051 24.1274 27.1398C21.3447 27.4401 18.636 28.4166 15.8804 29.0249C14.6156 29.303 14.166 28.8649 14.3551 27.604C14.6064 25.9053 15.9659 25.2152 17.356 24.8284C18.9978 24.3723 20.72 24.2165 22.4076 23.9256C22.8208 23.8542 23.2309 23.7694 23.6402 23.6896C23.6293 23.5347 23.6163 23.3769 23.6055 23.2219C22.7832 23.1601 21.9573 23.0353 21.1369 23.049C19.9832 23.0681 18.8335 23.2176 17.6793 23.2573C16.7185 23.2893 16.3525 22.7778 16.9202 21.9783C17.757 20.8002 18.5829 19.5556 19.6565 18.6204C22.7784 15.9043 26.6289 14.6914 30.5668 13.7304C32.0439 13.3694 33.5332 13.0493 34.7296 12.7767C34.8545 11.9325 34.7369 11.094 35.0487 10.8828C37.4726 9.23277 39.845 7.40358 42.4927 6.20758C46.8529 4.23591 51.571 3.88409 56.3306 4.23482C61.4859 4.6155 66.433 5.78911 71.1251 8.03714C71.064 8.11645 71.0114 8.24379 70.9115 8.30437C67.8984 10.1791 65.2359 12.4591 63.186 15.3572C62.493 16.3357 62.1854 17.5894 61.7044 18.7162C61.8522 18.8056 62.0026 18.8954 62.1505 18.9848C62.7275 18.5791 63.3447 18.2183 63.8751 17.7588C65.5565 16.2978 67.178 14.768 68.8724 13.3245C72.55 10.189 76.7624 8.17991 81.5972 7.68944C87.044 7.13619 92.3062 8.00563 97.5631 9.52648C102.215 10.872 106.243 13.1986 109.853 16.2428C113.81 19.58 115.796 24.2238 117.448 29.0051C118.27 31.3874 118.914 33.8448 119.925 36.1433C122.055 40.9979 124.448 45.7357 126.577 50.5903C127.385 52.4352 127.768 54.4642 128.34 56.3963C122.589 58.3025 119.413 55.6941 117.941 51.2746C116.575 47.1669 115.849 42.8005 115.273 38.4902C114.989 36.3694 115.683 34.1204 115.927 31.9269C115.996 31.3006 116.037 30.6726 116.094 30.0443C115.532 30.7355 115.342 31.5129 114.911 32.1197C112.762 35.1616 112.574 38.2987 114.363 41.5335C115.764 44.0612 116.441 46.7365 116.546 49.6286C116.611 51.4545 116.757 53.3653 117.358 55.0627C118.441 58.1202 122.543 59.7535 125.604 58.5901C126.532 58.2388 127.409 57.7527 128.506 57.2369C128.646 58.0864 128.853 58.9355 128.91 59.7938C129.191 64.0605 129.656 68.3284 129.635 72.5973C129.602 79.4552 127.298 85.8081 124.523 91.9744C122.321 96.869 119.878 101.707 116.138 105.597C107.868 114.202 97.4957 119.163 86.0341 121.862C77.528 123.865 68.8582 123.725 60.2215 122.783C46.8598 121.326 34.3393 117.431 23.283 109.505C18.6179 106.161 14.5007 102.276 11.349 97.4309C10.9107 96.758 10.9747 96.3959 11.8312 96.3667C12.8029 96.3311 13.6436 96.4789 14.2838 97.4025C15.6345 99.3537 17.375 100.69 19.9208 100.674C20.4096 100.671 20.9399 101.038 21.3844 101.335C22.6577 102.193 23.8545 103.166 25.1519 103.984C26.9128 105.094 28.7307 105.134 30.4216 103.82C31.1583 103.248 31.6473 103.279 32.2401 104.014C32.6613 104.539 33.2261 104.97 33.788 105.352C34.9801 106.163 36.2793 106.425 37.7043 105.872C36.9867 105.384 36.2313 105.046 35.4389 104.835C34.249 104.519 33.4998 103.735 33.0771 102.659C32.5918 101.426 32.2224 100.147 31.806 98.8877C31.5134 98.0025 31.8489 97.5792 32.7692 97.575C33.6223 97.5687 34.4897 97.4476 35.3296 97.5484C36.9203 97.737 38.508 97.9979 40.0747 98.331C41.0144 98.5298 41.3232 99.1991 41.1435 100.186C40.7425 102.387 40.8114 104.749 38.6267 106.328C40.3637 107.266 40.8899 105.675 41.6911 105.16C43.4813 105.194 43.537 107.803 45.4807 107.467C45.4883 107.328 45.5266 107.227 45.4913 107.167C45.386 106.982 45.2637 106.808 45.1326 106.641C43.8221 104.945 43.4195 103.012 43.7697 100.943C43.8491 100.477 44.2903 99.7602 44.6552 99.6998C46.7432 99.3539 48.9584 98.6578 50.9402 99.0471C53.9748 99.6441 54.3722 99.6094 53.1946 102.652C53.1648 102.731 53.1589 102.824 53.1218 102.899C52.0529 105.066 50.9561 107.211 48.3754 107.955C48.0933 108.035 47.788 108.045 47.4934 108.087C47.6081 108.33 47.7224 108.575 47.8372 108.818C48.385 108.803 49.0282 108.969 49.4648 108.74C50.6532 108.118 51.7956 107.385 52.8704 106.582C53.5274 106.092 53.8017 105.748 54.3731 106.768C54.8021 107.539 55.7039 108.257 56.5476 108.543C59.4798 109.533 62.343 108.407 64.0319 105.825C64.2198 105.538 64.429 105.265 64.7208 104.856C64.9468 107.122 65.5481 107.816 67.3695 108.096C71.3547 108.712 74.8366 107.075 76.7401 103.498C77.4061 102.245 77.9332 101.421 79.4251 102.401C79.7446 102.612 80.2563 102.56 80.6825 102.577C84.2205 102.721 88.0567 100.146 89.3442 96.7822C89.883 95.3704 89.9696 95.3468 91.3819 95.9689C92.9551 96.6616 94.5349 96.5549 96.1251 95.9742C98.1245 95.2436 99.1705 93.6703 99.7731 91.7742C100.564 89.2875 101.487 86.7372 100.119 84.1882C99.5218 83.0761 98.76 81.9214 97.7725 81.1855C96.1578 79.9826 94.3908 78.8611 92.517 78.1629C90.7542 77.5045 89.5414 78.4321 88.9137 80.2517C88.8233 80.5112 88.6709 80.7511 88.5934 80.906C87.0538 79.5296 85.5579 78.191 84.0646 76.8527C83.9688 76.9555 83.8702 77.0604 83.7744 77.1632C85.0505 78.9864 86.7963 80.4972 87.5266 82.7438C86.789 82.4606 86.1589 82.0659 85.6928 81.5292C83.9895 79.5726 81.2539 78.8171 78.9044 79.8416C77.9631 80.2506 77.2838 80.1007 76.5985 79.4121C76.2774 79.0891 75.8657 78.8515 75.4959 78.576C75.4108 78.6595 75.3253 78.7456 75.2402 78.8292C75.5194 79.3304 75.8183 79.8216 76.0749 80.3351C76.3411 80.8708 76.5681 81.4266 76.8143 81.975C76.7155 82.0279 76.6168 82.0809 76.5155 82.1335C76.1592 81.7845 75.7818 81.4558 75.4525 81.0823C74.0083 79.4473 72.2646 79.0984 70.585 80.4948C69.4448 81.4408 68.6268 82.7906 67.7367 84.0127C67.3616 84.5289 67.174 85.182 66.8488 85.8874C66.155 84.8 65.6815 83.8204 64.9964 83.0253C62.1243 79.6797 58.804 79.7497 55.9168 82.8462C55.3796 83.4216 54.9336 83.5738 54.2635 83.3968L54.2632 83.3993ZM55.5979 86.1433C55.6216 85.9831 55.6592 85.7288 55.6968 85.4745C56.0324 83.1361 58.5144 80.8295 61.1544 81.7397C64.1355 82.768 66.5839 86.8175 65.7865 89.8723C65.7142 90.1501 65.3151 90.512 65.0351 90.5433C62.8964 90.7752 60.8142 91.0466 58.5925 90.575C55.8872 90.0007 55.1094 88.3915 55.5954 86.1429L55.5979 86.1433ZM66.712 102.934L66.745 102.939C66.7827 102.685 66.8199 102.433 66.8575 102.179C67.3157 99.2921 68.6272 97.9608 71.4958 97.59C72.3752 97.4758 73.284 97.5141 74.1743 97.5549C77.3964 97.7093 77.3949 97.7195 76.2316 100.736C75.2234 103.354 73.5623 105.398 70.9451 106.528C69.7464 107.044 68.412 107.354 67.2687 106.512C66.1208 105.666 66.4842 104.369 66.6722 103.186C66.6846 103.102 66.697 103.018 66.7098 102.931L66.712 102.934ZM68.7079 87.3526C69.1251 85.9201 69.432 84.4428 69.9819 83.0612C70.8211 80.9532 73.0775 80.5231 74.7737 82.0005C76.8593 83.8136 77.2854 86.3946 77.975 88.8457C78.0397 89.0761 77.6314 89.6757 77.3691 89.7279C75.4499 90.1092 73.5185 90.6082 71.5802 90.6618C68.9062 90.7366 68.3914 89.9666 68.7054 87.3522L68.7079 87.3526ZM55.3403 102.039C55.6159 99.9831 55.6177 99.9885 57.6883 99.7778C58.1105 99.7337 58.5416 99.6649 58.945 99.5375C60.8081 98.9556 62.5803 99.3399 64.2987 100.07C64.5823 100.19 64.9795 100.719 64.9085 100.9C64.006 103.225 62.9721 105.507 60.8254 106.969C58.7225 108.399 55.6418 106.956 55.3816 104.465C55.2973 103.665 55.3504 102.849 55.3403 102.039ZM24.1801 94.0099C25.7235 94.7112 27.3058 95.3428 28.7891 96.1521C29.2625 96.4118 29.6406 97.1044 29.773 97.6671C30.0062 98.6552 30.0475 99.693 30.1147 100.714C30.2071 102.092 29.3987 103.253 28.2062 103.534C25.8722 104.085 23.1223 102.249 22.7427 99.8804C22.54 98.6161 22.3479 97.3508 22.1583 96.0858C21.8971 94.3218 22.3423 93.8939 24.1809 94.0048L24.1801 94.0099ZM12.17 76.5148C12.9301 75.5384 13.5872 74.7677 14.1641 73.941C15.5033 72.0187 18.2867 71.942 20.1446 73.1341C21.654 74.1006 21.7607 74.8543 20.5883 76.2114C19.6169 77.3332 18.6967 78.4963 17.7438 79.6338C17.2359 80.2395 16.6716 80.8576 15.8004 80.4065C15.0116 79.9962 14.1716 79.5627 13.5798 78.9269C12.9789 78.2819 12.6578 77.3795 12.17 76.5148ZM87.2943 96.1152C86.6852 99.6006 83.2099 100.947 80.4597 100.764C80.1974 100.746 79.7435 100.512 79.7308 100.352C79.6096 98.7825 79.0227 96.9547 79.6193 95.6969C80.5017 93.824 82.6097 93.1147 84.7545 93.263C86.4956 93.3829 87.5007 94.597 87.2943 96.1152ZM81.0931 88.9483C80.9577 88.8971 80.3812 88.843 80.048 88.5313C78.1939 86.8044 78.6052 83.2689 80.8231 82.0275C81.2987 81.7627 82.0457 81.6835 82.5617 81.8482C84.9807 82.6192 86.3017 84.5608 87.3395 86.7126C87.4687 86.9812 87.2894 87.7186 87.1216 87.764C85.2545 88.2673 83.5083 89.3758 81.0905 88.948L81.0931 88.9483ZM30.3664 85.7887C29.6343 85.5037 28.2239 85.0976 26.9603 84.4195C25.5813 83.6776 25.4318 82.6161 26.5101 81.4738C27.4985 80.4299 28.5921 79.4301 29.8051 78.6767C30.4027 78.3078 31.4666 78.2988 32.1526 78.5614C33.1212 78.9334 33.5119 79.8747 33.3529 81.0023C33.215 81.9694 33.1334 82.9603 33.1765 83.9333C33.2454 85.487 32.5876 86.1407 30.3693 85.7865L30.3664 85.7887ZM20.1685 98.086C20.1652 99.3198 19.5667 99.66 18.3053 99.1953C15.8339 98.2866 13.7011 94.4216 14.2681 91.8186C14.3421 91.4761 14.5529 91.0526 14.8329 90.8809C15.9587 90.1899 20.1795 92.3215 20.22 93.6111C20.267 95.1019 20.1916 96.5952 20.1681 98.0885L20.1685 98.086ZM9.90445 86.2618C11.7782 87.0483 12.732 88.3458 13.6723 89.6464C13.7932 89.8124 13.7614 90.1507 13.6988 90.3805C13.3978 91.4845 13.0641 92.5811 12.7329 93.6781C12.475 94.526 11.9471 94.635 11.2735 94.1482C10.2949 93.4395 9.59391 92.5407 9.63991 91.2638C9.69537 89.6947 9.80243 88.1281 9.90445 86.2618ZM9.29303 81.3329L9.1307 80.8672C8.53789 81.0108 7.92174 81.1015 7.35475 81.3165C6.84858 81.5066 6.39224 81.8341 5.91622 82.1015C5.77233 81.5111 5.59096 80.9282 5.49764 80.3297C5.4473 80.0027 5.50834 79.6427 5.58558 79.3137C5.87717 78.0628 6.53595 77.7367 7.75013 78.2048C8.4285 78.4662 9.20063 78.5856 9.76887 78.9945C10.2875 79.3701 10.5843 80.0506 10.9792 80.595C10.4179 80.8419 9.85691 81.0864 9.29558 81.3333L9.29303 81.3329ZM7.97456 87.4003C7.77889 87.3532 7.5803 87.3082 7.38463 87.2611C7.34549 86.3666 7.15671 85.4474 7.30241 84.5854C7.53614 83.1986 8.82844 82.8753 9.93264 82.7346C10.5524 82.6548 11.3252 83.1381 11.8927 83.5521C12.1462 83.7351 12.0671 84.3756 12.1409 84.8075C11.7513 84.7888 11.3063 84.8815 10.984 84.7247C10.2276 84.3582 9.88332 84.5255 9.51492 85.2947C9.1436 86.0661 8.49853 86.7035 7.97456 87.4003ZM13.7618 36.4265C13.583 36.3533 13.4041 36.2801 13.2253 36.2068C13.1087 34.5187 13.4243 32.8946 14.2225 31.3808C14.403 31.0385 14.8314 30.7771 15.2055 30.6012C15.4682 30.4763 15.9723 30.4235 16.1136 30.5744C16.3197 30.7972 16.4665 31.3152 16.3417 31.5618C15.5244 33.2053 14.6299 34.8087 13.7618 36.4265ZM8.39513 66.6796C8.68414 66.8861 9.03753 67.0085 9.11168 67.2274C9.18186 67.4378 9.03354 67.8083 8.85994 67.9983C8.01907 68.9055 7.16191 69.7999 6.25558 70.6403C6.02662 70.8533 5.5981 70.8522 5.2614 70.9505C5.25229 70.5906 5.0961 70.1361 5.25801 69.8846C5.85548 68.9544 6.52074 68.0576 7.24459 67.2214C7.48916 66.938 7.98056 66.8652 8.39766 66.68L8.39513 66.6796Z" fill="#542B11"/>
<path d="M54.2653 83.4022C54.9387 83.5746 55.3818 83.4245 55.919 82.8491C58.8062 79.7527 62.1261 79.6851 64.9986 83.0282C65.6833 83.8259 66.1571 84.8029 66.851 85.8904C67.1762 85.1849 67.3637 84.5318 67.7389 84.0157C68.6289 82.7935 69.4469 81.4438 70.5872 80.4977C72.2668 79.1013 74.0079 79.4498 75.4547 81.0852C75.7839 81.4588 76.1614 81.7874 76.5176 82.1364C76.6164 82.0834 76.7152 82.0305 76.8165 81.9779C76.5728 81.4299 76.3459 80.8741 76.077 80.338C75.8204 79.8245 75.5216 79.3333 75.2424 78.8321C75.3275 78.7485 75.413 78.6625 75.4981 78.5789C75.8678 78.8545 76.277 79.0917 76.6007 79.415C77.286 80.1037 77.9678 80.2539 78.9065 79.8445C81.256 78.8201 83.9917 79.5756 85.6949 81.5322C86.1611 82.0689 86.7938 82.4639 87.5287 82.7467C86.7985 80.5001 85.0527 78.9893 83.7766 77.1661C83.8723 77.0633 83.971 76.9584 84.0667 76.8556C85.5626 78.1943 87.0563 79.53 88.5956 80.9089C88.6731 80.754 88.8255 80.5141 88.9158 80.2546C89.5435 78.435 90.7567 77.5049 92.5191 78.1658C94.3926 78.8665 96.16 79.9855 97.7746 81.1884C98.7596 81.924 99.524 83.0791 100.121 84.1912C101.487 86.7397 100.564 89.2901 99.7753 91.7771C99.1726 93.6732 98.1267 95.2465 96.1272 95.9771C94.5371 96.5578 92.9573 96.6645 91.384 95.9718C89.9714 95.3523 89.8852 95.3733 89.3464 96.7851C88.0614 100.15 84.2227 102.724 80.6847 102.579C80.2584 102.563 79.7468 102.615 79.4272 102.404C77.9379 101.425 77.4108 102.248 76.7423 103.501C74.8384 107.081 71.3565 108.717 67.3717 108.099C65.5506 107.817 64.9489 107.125 64.7229 104.859C64.4312 105.268 64.2219 105.541 64.034 105.828C62.3423 108.412 59.4794 109.535 56.5497 108.546C55.7061 108.26 54.8043 107.542 54.3753 106.771C53.8039 105.751 53.527 106.095 52.8725 106.585C51.7978 107.388 50.6528 108.12 49.467 108.742C49.0304 108.972 48.3872 108.806 47.8393 108.821C47.7246 108.578 47.6102 108.333 47.4955 108.09C47.7901 108.047 48.0926 108.04 48.3776 107.958C50.9583 107.214 52.0547 105.072 53.1239 102.902C53.161 102.826 53.1644 102.733 53.1968 102.655C54.3744 99.6123 53.9769 99.647 50.9424 99.05C48.9606 98.6607 46.7457 99.3542 44.6573 99.7027C44.2925 99.7631 43.8517 100.477 43.7719 100.946C43.4243 103.015 43.8238 104.951 45.1348 106.644C45.2633 106.811 45.3882 106.985 45.4934 107.17C45.5287 107.23 45.4904 107.33 45.4828 107.47C43.5388 107.808 43.4835 105.196 41.6932 105.163C40.8896 105.678 40.3659 107.269 38.6288 106.331C40.8135 104.752 40.7446 102.39 41.1456 100.189C41.3254 99.202 41.014 98.5323 40.0769 98.3339C38.5102 98.0008 36.922 97.7424 35.3317 97.5514C34.4919 97.4505 33.6266 97.5746 32.7713 97.578C31.8506 97.5847 31.5156 98.0054 31.8081 98.8906C32.2245 100.15 32.594 101.429 33.0792 102.662C33.5024 103.735 34.2512 104.522 35.441 104.838C36.2309 105.049 36.9888 105.387 37.7064 105.875C36.2789 106.428 34.9823 106.166 33.7901 105.355C33.2283 104.973 32.6635 104.542 32.2423 104.017C31.6495 103.282 31.1608 103.249 30.4237 103.823C28.7303 105.137 26.915 105.097 25.1541 103.987C23.8566 103.169 22.6573 102.196 21.3866 101.338C20.945 101.038 20.4118 100.674 19.9229 100.677C17.3746 100.692 15.6345 99.3537 14.2859 97.4054C13.6457 96.4818 12.8051 96.334 11.8333 96.3696C10.9794 96.3992 10.9154 96.7613 11.3511 97.4338C14.5029 102.279 18.6205 106.162 23.2852 109.508C34.3418 117.432 46.8598 121.326 60.2237 122.786C68.8579 123.728 77.5277 123.867 86.0363 121.865C97.5004 119.167 107.871 114.205 116.14 105.6C119.877 101.71 122.323 96.872 124.526 91.9774C127.3 85.8136 129.604 79.4581 129.637 72.6002C129.658 68.3339 129.193 64.0634 128.912 59.7967C128.855 58.9384 128.647 58.0919 128.508 57.2398C127.411 57.7582 126.534 58.2417 125.606 58.593C122.545 59.7564 118.443 58.1232 117.36 55.0656C116.759 53.3682 116.613 51.4575 116.548 49.6315C116.443 46.7394 115.766 44.0641 114.365 41.5365C112.576 38.3016 112.764 35.1645 114.914 32.1226C115.344 31.5158 115.534 30.7384 116.096 30.0472C116.042 30.6759 116.001 31.3039 115.929 31.9299C115.685 34.1233 114.992 36.3723 115.275 38.4931C115.854 42.8038 116.577 47.1698 117.944 51.2776C119.415 55.697 122.591 58.3054 128.342 56.3992C127.77 54.4696 127.387 52.4381 126.579 50.5932C124.45 45.7386 122.06 40.9987 119.927 36.1463C118.919 33.8481 118.275 31.3907 117.45 29.0081C115.798 24.2292 113.812 19.5829 109.855 16.2458C106.245 13.2015 102.217 10.8749 97.5653 9.5294C92.3059 8.00817 87.0461 7.13911 81.5994 7.69236C76.7621 8.18246 72.5525 10.1894 68.8745 13.3274C67.1801 14.771 65.5587 16.3007 63.8772 17.7617C63.3468 18.2212 62.7297 18.582 62.1526 18.9878C62.0048 18.8983 61.8544 18.8085 61.7066 18.7191C62.1901 17.5927 62.4977 16.339 63.1881 15.3601C65.238 12.462 67.9009 10.1795 70.9136 8.30729C71.011 8.24633 71.0665 8.11683 71.1272 8.04006C66.4377 5.7924 61.4877 4.62096 56.3328 4.23774C51.571 3.88409 46.855 4.23883 42.4948 6.2105C39.8472 7.4065 37.4769 9.23861 35.0509 10.8858C34.7416 11.0973 34.8567 11.9354 34.7318 12.7796C33.5353 13.0522 32.0461 13.3724 30.5689 13.7333C26.6336 14.6946 22.781 15.9047 19.6587 18.6234C18.585 19.5585 17.7588 20.8057 16.9224 21.9812C16.3547 22.7807 16.7207 23.2922 17.6815 23.2602C18.8353 23.223 19.9854 23.071 21.1391 23.052C21.962 23.0386 22.7854 23.163 23.6076 23.2249C23.6185 23.3798 23.6315 23.5376 23.6424 23.6925C23.2305 23.7719 22.8205 23.8568 22.4097 23.9285C20.7222 24.2194 19 24.3752 17.3581 24.8313C15.9681 25.2181 14.6086 25.9083 14.3573 27.6069C14.1703 28.8707 14.6199 29.3088 15.8825 29.0279C18.6381 28.4195 21.3468 27.443 24.1296 27.1427C31.8549 26.3081 39.04 27.7374 45.1455 32.9698C48.3481 35.7146 49.2218 39.1518 48.4378 43.1519C47.6967 46.9322 47.6297 50.7395 48.3159 54.5127C48.8405 57.3941 50.7631 59.3962 53.3071 60.6742C55.8225 61.935 58.4489 62.9732 61.0274 64.1056C61.4739 64.3016 61.9244 64.4878 62.3305 64.8155C59.5553 65.065 56.9467 64.4166 54.42 63.4425C51.8491 62.4516 49.8533 60.7167 48.5166 58.0738C47.7744 59.8765 51.1585 66.9618 52.9352 68.8253C55.9283 71.9679 59.5538 72.8551 63.6801 72.7457C63.6666 72.8892 63.6536 73.0302 63.6401 73.1738C63.0044 73.2564 62.3668 73.4037 61.7293 73.4108C58.3125 73.4484 55.3897 72.1663 52.8211 69.9829C51.8751 69.1778 50.8195 68.4629 50.0395 67.5186C49.1605 66.4531 48.3538 65.2502 47.8379 63.9785C46.8361 61.5125 46.1718 58.943 46.4057 56.2206C46.4802 55.3481 46.0605 55.0418 45.2073 55.4352C37.0228 59.198 28.8768 58.3983 20.8205 55.0783C18.9448 54.3045 17.2262 53.1018 15.5273 51.9592C13.4972 50.596 12.8932 48.4798 12.7885 46.1491C12.7574 45.4637 12.5667 44.7858 12.4261 43.9803C9.04996 46.5003 8.3396 49.0717 10.2711 52.4704C11.2893 54.2633 12.8065 55.774 14.112 57.399C14.4981 57.8796 14.9339 58.3235 15.3463 58.7847C15.2695 58.8824 15.1956 58.978 15.1188 59.0758C14.3715 58.6301 13.6181 58.1912 12.8778 57.7335C12.1161 57.2622 11.3651 56.7717 10.4992 56.3734C11.8347 59.0941 13.4807 61.5957 15.7416 63.6816C15.6639 63.8026 15.5884 63.9266 15.5108 64.0476C14.7815 63.7266 14.0378 63.4321 13.3298 63.0727C12.7595 62.7831 12.259 62.3375 11.674 62.095C9.95036 61.3827 9.94308 63.3461 9.04274 63.9353C8.80718 64.0875 8.88628 65.2737 9.20856 65.5891C9.64008 66.0089 10.4367 66.1033 11.0961 66.2295C12.635 66.5221 13.9858 67.5067 14.3654 68.7868C14.0797 68.7159 13.8152 68.7131 13.6253 68.5915C11.8375 67.4175 10.4107 68.3862 9.09296 69.4437C7.60441 70.6371 6.53326 72.2405 7.43462 74.1382C7.92952 75.1832 9.14969 75.9094 10.1247 76.6773C10.2966 76.8145 10.9887 76.5791 11.2168 76.3192C12.5307 74.8141 13.8533 73.3026 15.023 71.6826C15.7744 70.6427 16.6484 70.1613 17.8236 70.7873C19.1866 71.5138 20.8293 71.9128 21.4797 73.6278C21.5543 73.826 22.3302 73.9901 22.6065 73.8439C24.1881 73.0047 24.1723 72.9712 24.7901 74.4502C23.1875 75.6241 21.5275 76.6414 20.1061 77.9253C17.7606 80.0469 18.2835 82.255 21.2678 83.3669C21.7086 83.5309 22.1704 83.6408 22.626 83.7575C23.622 84.014 24.1792 83.6547 24.5956 82.6665C25.1035 81.4632 25.7466 80.2772 26.5318 79.2371C27.8114 77.5424 27.8791 77.594 26.8815 75.8198C27.8619 77.1835 29.1383 76.3875 30.2777 76.5535C31.3357 76.7074 32.2876 77.6486 33.2618 78.2812C33.4799 78.4226 33.5925 78.7329 33.8282 79.0718C34.4849 78.0568 35.0714 77.1483 35.6604 76.2402C35.7721 76.2931 35.8863 76.3464 35.9984 76.3967C36.0867 76.7476 36.1755 77.096 36.286 77.5255C38.0992 77.4221 39.9862 76.0642 41.6286 77.8169C41.9674 78.1789 42.1948 78.6439 42.6554 79.3408C42.0783 79.2555 41.9056 79.2637 41.7638 79.2037C38.496 77.7952 34.94 80.0912 35.0239 83.6687C35.0383 84.3439 35.5938 85.3304 36.1711 85.608C37.9319 86.4558 39.8078 87.0867 41.683 87.6526C42.0038 87.7494 42.7771 87.2116 42.9416 86.8019C43.7233 84.8725 44.3997 82.899 45.0435 80.918C45.2536 80.2709 45.2626 79.5602 45.4194 78.4999C45.9933 80.0997 46.7948 79.8103 47.7339 79.3802C50.3926 78.1624 54.4792 80.5339 54.2902 83.4449L54.2653 83.4022ZM71.3073 31.2688L71.4015 30.8956C74.8761 31.9423 78.4119 32.8214 81.8116 34.0753C86.1572 35.6796 90.3699 37.6904 93.8659 40.7879C96.3808 43.0179 98.6051 45.5791 100.918 48.0338C101.684 48.8461 102.323 49.6683 103.556 49.9027C104.446 50.0733 105.302 50.6079 106.084 51.116C107.781 52.2193 107.615 54.3957 105.771 55.2144C104.884 55.608 103.934 55.9585 102.977 56.0821C100.768 56.3736 98.7056 56.8247 96.751 58.0947C94.8049 59.3607 92.6135 60.3176 90.4253 61.1294C84.5874 63.2905 78.5628 64.413 72.3033 63.8041C69.4936 63.5313 66.6784 63.2785 63.8805 62.9088C58.2257 62.1632 54.7616 58.5169 52.3259 53.7495C51.53 52.1922 50.8668 50.3531 50.8677 48.6434C50.8725 44.4137 51.8289 40.3196 53.7239 36.4839C55.0561 33.7837 57.062 32.1315 60.1083 31.4544C63.8635 30.6223 67.5549 30.3967 71.3098 31.2692L71.3073 31.2688ZM125.175 65.779C125.341 65.8503 125.504 65.9213 125.671 65.9901C125.487 66.6021 125.413 67.2772 125.104 67.8188C121.787 73.6632 117.034 77.4608 110.173 78.2855C109.523 78.3634 108.708 78.7443 108.341 79.254C106.343 82.0324 105.296 85.0529 106.439 88.5143C106.69 89.2739 106.783 90.0879 106.949 90.8765C106.831 90.9057 106.712 90.9349 106.596 90.9645C105.464 89.6746 104.755 88.1977 104.507 86.4511C104.347 85.323 104.17 84.125 103.662 83.1352C102.73 81.3238 101.573 79.6222 100.457 77.9135C99.3367 76.1965 97.7335 75.2499 95.6609 75.1226C95.2361 75.0961 94.8186 74.933 94.294 74.8086C95.7208 73.3125 97.7769 73.2529 99.4813 74.534C100.333 75.1719 101.142 75.8633 101.994 76.4986C102.24 76.6805 102.581 76.8843 102.854 76.8519C104.567 76.6532 106.266 76.2628 107.984 76.1713C113.926 75.8524 118.684 73.212 122.616 68.9007C123.522 67.9069 124.326 66.8229 125.177 65.7819L125.175 65.779ZM66.3427 25.2438C66.3578 25.4227 66.3754 25.602 66.3905 25.781C64.6382 26.2987 62.8887 26.8324 61.131 27.3338C56.5255 28.6455 52.8299 31.0949 50.6538 35.5308C50.4158 36.0153 49.832 36.3265 49.4077 36.7185C49.2222 36.0934 48.9916 35.4746 48.873 34.836C48.826 34.5744 49.0075 34.2609 49.111 33.9825C50.1582 31.2063 52.4518 29.6461 54.7688 28.0686C55.6128 27.4919 56.4286 26.7187 56.9469 25.8495C59.0237 22.3655 61.7297 19.7567 65.7792 18.7265C70.0823 17.6325 74.3448 17.9019 78.5952 18.9724C78.9357 19.0592 79.2425 19.2683 79.5653 19.4226C79.5491 19.5319 79.5329 19.6412 79.5167 19.7506C78.9569 19.7587 78.3929 19.813 77.8381 19.7699C73.508 19.4308 69.1968 19.2451 65.0645 20.9932C63.2269 21.7712 61.5355 22.7553 60.325 24.3874C60.0656 24.7362 59.9865 25.2182 59.8255 25.6387C60.2504 25.7171 60.6889 25.8964 61.1006 25.8533C62.0348 25.7551 62.9516 25.5113 63.8856 25.3974C64.6981 25.2967 65.5221 25.2939 66.3423 25.2463L66.3427 25.2438ZM105.5 59.4358C105.559 59.5797 105.621 59.7265 105.68 59.8704C105.097 61.4601 100.85 63.898 93.6679 66.7126C88.6371 68.6864 84.3318 68.8472 80.0131 68.0446C81.6417 67.836 83.4783 67.6972 85.2755 67.3498C91.2232 66.2028 96.5864 63.5454 101.927 60.8275C103.06 60.2493 104.305 59.893 105.498 59.4329L105.5 59.4358ZM39.744 66.4087C39.3536 66.7121 38.9455 66.9947 38.5775 67.3223C37.4928 68.2792 36.4844 69.3357 35.3268 70.1883C34.4465 70.835 33.4905 70.3428 33.6144 69.2775C33.7102 68.4368 34.2051 67.5148 34.7923 66.8819C36.3469 65.2071 38.6604 65.2687 40.6685 64.6381C40.8727 64.5748 41.347 65.0036 41.5309 65.3062C42.1668 66.3462 42.7204 67.4337 43.3196 68.4942C43.7375 69.2342 44.3251 69.9162 44.5559 70.7091C44.6917 71.1787 44.439 71.991 44.0674 72.3077C43.7641 72.5668 42.8406 72.5393 42.5156 72.26C40.8194 70.8008 39.2043 69.2314 39.7433 66.4138L39.744 66.4087ZM99.1381 38.4289C99.2518 38.3106 99.365 38.1948 99.4812 38.0769C99.7785 38.2976 100.109 38.4868 100.37 38.7436C102.311 40.6549 104.268 42.5476 106.158 44.5059C107.661 46.0612 109.105 47.6756 110.509 49.3228C110.717 49.5666 110.545 50.1336 110.548 50.5524C110.186 50.4339 109.712 50.4261 109.477 50.1836C107.713 48.3452 105.955 46.4949 104.277 44.5784C102.516 42.5692 100.848 40.48 99.1385 38.4263L99.1381 38.4289ZM43.9613 57.904C43.4592 58.313 43.1191 58.785 42.6791 58.9148C39.3528 59.9039 36.7059 61.9549 34.1574 64.1842C33.7427 64.5464 33.2481 64.8163 32.6675 65.2111C32.6445 62.17 41.0451 56.7008 43.9592 57.9011L43.9613 57.904ZM91.8626 23.3856C95.5605 23.8884 103.219 32.1803 103.904 36.3145C101.577 31.3215 98.0451 27.8342 93.7023 25.0869C93.094 24.7033 92.6245 24.1011 91.863 23.383L91.8626 23.3856ZM103.735 93.2646C104.487 95.3688 102.997 96.6036 101.931 97.9296C100.743 99.4066 98.0946 100.434 96.5624 100.025C100.048 98.7528 102.484 96.6473 103.735 93.2646ZM67.1808 82.8885L66.5943 83.2175C65.9286 82.0978 65.2629 80.9781 64.5971 79.8584C64.7397 79.7729 64.8797 79.6871 65.0222 79.6017C65.7437 80.6958 67.5455 81.1079 67.1808 82.8885ZM79.0048 104.75C79.0935 104.818 79.1844 104.888 79.2731 104.956C78.3796 106.131 77.4862 107.306 76.5923 108.483C76.492 108.406 76.3888 108.331 76.2885 108.254C77.194 107.086 78.0994 105.918 79.0044 104.753L79.0048 104.75Z" fill="#F0D1AD"/>
<path d="M55.5979 86.1433C55.1123 88.3894 55.8872 90.0007 58.5951 90.5754C60.8167 91.047 62.899 90.7756 65.0377 90.5437C65.3177 90.5124 65.7164 90.153 65.789 89.8727C66.5836 86.82 64.1381 82.7684 61.157 81.7401C58.5144 80.8295 56.0324 83.1361 55.6994 85.4749C55.6618 85.7292 55.6245 85.9809 55.6004 86.1437L55.5979 86.1433Z" fill="#E5C096"/>
<path d="M66.712 102.934C66.6996 103.018 66.6872 103.102 66.6744 103.189C66.4889 104.372 66.1229 105.669 67.2709 106.515C68.4142 107.357 69.7485 107.047 70.9473 106.531C73.5641 105.403 75.2226 103.359 76.2338 100.739C77.3971 97.7224 77.3986 97.7123 74.1765 97.5578C73.2866 97.5145 72.3774 97.4787 71.4979 97.5929C68.6298 97.9612 67.3179 99.295 66.8597 102.182C66.8195 102.436 66.7848 102.688 66.7472 102.942L66.7142 102.937L66.712 102.934Z" fill="#E5C096"/>
<path d="M54.2877 83.4445C53.6549 82.6467 53.1431 81.6979 52.3666 81.0815C49.6727 78.9368 46.3498 80.1134 45.4626 83.459C45.1988 84.4516 44.9565 85.4577 44.822 86.4721C44.7695 86.8619 44.9315 87.5407 45.1984 87.6685C47.284 88.6734 49.4171 89.5685 51.8313 89.3358C52.9306 89.2281 53.5688 88.6547 53.7243 87.5864C53.9301 86.1954 54.085 84.7969 54.2628 83.4019L54.2873 83.4471L54.2877 83.4445Z" fill="#E5C096"/>
<path d="M68.7083 87.35C68.3917 89.9641 68.9087 90.737 71.5831 90.6597C73.5218 90.6035 75.4554 90.1074 77.372 89.7257C77.6343 89.6736 78.0422 89.0765 77.9779 88.8435C77.2884 86.3924 76.8622 83.8114 74.7766 81.9983C73.08 80.5235 70.824 80.9511 69.9848 83.059C69.4349 84.4407 69.1258 85.9151 68.7108 87.3504L68.7083 87.35Z" fill="#E5C096"/>
<path d="M55.3403 102.039C55.3504 102.849 55.3002 103.663 55.3816 104.465C55.6418 106.956 58.7222 108.402 60.8254 106.969C62.9721 105.507 64.0085 103.225 64.9085 100.9C64.9791 100.721 64.582 100.192 64.2987 100.07C62.5803 99.3399 60.8081 98.9556 58.945 99.5375C58.5391 99.6645 58.1105 99.7337 57.6883 99.7778C55.6173 99.9911 55.6159 99.9831 55.3403 102.039Z" fill="#E5C096"/>
<path d="M24.1805 94.0074C22.3423 93.8939 21.8971 94.3218 22.1579 96.0884C22.3446 97.3555 22.5396 98.6186 22.7423 99.8829C23.1223 102.249 25.8722 104.085 28.2058 103.537C29.3983 103.256 30.2067 102.094 30.1143 100.716C30.0471 99.6955 30.0062 98.6552 29.7726 97.6696C29.6403 97.107 29.2625 96.4118 28.7887 96.1546C27.3054 95.3454 25.7235 94.7112 24.1797 94.0124L24.1805 94.0074Z" fill="#E5C096"/>
<path d="M12.1703 76.5122C12.6556 77.3765 12.9793 78.2794 13.5802 78.9243C14.172 79.5602 15.012 79.9936 15.8008 80.404C16.672 80.8551 17.2384 80.2399 17.7441 79.6313C18.6945 78.4934 19.6173 77.3307 20.5887 76.2089C21.7611 74.8518 21.654 74.1006 20.145 73.1316C18.2871 71.9394 15.5037 72.0162 14.1645 73.9385C13.5872 74.7677 12.9301 75.5384 12.1703 76.5122Z" fill="#E5C096"/>
<path d="M87.2947 96.1126C87.5011 94.5944 86.4956 93.3829 84.7549 93.2605C82.6101 93.1121 80.502 93.8215 79.6196 95.6944C79.0252 96.9551 79.6096 98.7825 79.7312 100.349C79.7438 100.51 80.1977 100.743 80.4601 100.761C83.2102 100.944 86.6855 99.5981 87.2947 96.1126Z" fill="#E5C096"/>
<path d="M81.096 88.9462C83.5138 89.374 85.26 88.2655 87.1271 87.7622C87.2923 87.7165 87.4741 86.9794 87.345 86.7108C86.3075 84.5565 84.9866 82.6149 82.5672 81.8464C82.0512 81.6817 81.3017 81.7605 80.8285 82.0257C78.611 83.2646 78.1993 86.8026 80.0535 88.5295C80.3892 88.8416 80.9632 88.8953 81.0985 88.9465L81.096 88.9462Z" fill="#E5C096"/>
<path d="M30.3693 85.7865C32.5879 86.1382 33.2429 85.4867 33.1765 83.9333C33.1334 82.9603 33.215 81.9694 33.3529 81.0023C33.5119 79.8747 33.1237 78.9338 32.1526 78.5614C31.4666 78.2988 30.4027 78.3078 29.8051 78.6767C28.5921 79.4301 27.4989 80.4273 26.5101 81.4738C25.4318 82.6161 25.5813 83.6776 26.9603 84.4195C28.2235 85.1001 29.6369 85.5041 30.3664 85.7887L30.3693 85.7865Z" fill="#E5C096"/>
<path d="M20.1714 98.0838C20.1949 96.5905 20.2703 95.0972 20.2232 93.6064C20.1803 92.3164 15.9591 90.1874 14.8361 90.8762C14.5561 91.0479 14.3458 91.4689 14.2714 91.8139C13.704 94.4194 15.8372 98.2819 18.3086 99.1906C19.57 99.6553 20.1682 99.3176 20.1718 98.0813L20.1714 98.0838Z" fill="#E5C096"/>
<path d="M9.90738 86.2597C9.80536 88.1259 9.6983 89.6926 9.64284 91.2617C9.59683 92.5385 10.2978 93.4374 11.2764 94.146C11.95 94.6328 12.4779 94.5238 12.7359 93.6759C13.067 92.5789 13.4007 91.4824 13.7017 90.3784C13.7643 90.1486 13.7962 89.8103 13.6752 89.6443C12.7349 88.3436 11.7811 87.0462 9.90738 86.2597Z" fill="#E5C096"/>
<path d="M9.29595 81.3308C9.85729 81.0838 10.4182 80.8394 10.9796 80.5924C10.5851 80.0455 10.2878 79.3675 9.76925 78.992C9.20393 78.5809 8.42925 78.4611 7.7505 78.2022C6.53632 77.7342 5.87754 78.0603 5.58596 79.3112C5.50872 79.6402 5.44768 80.0001 5.49802 80.3272C5.59134 80.9257 5.7727 81.5086 5.91659 82.0989C6.39516 81.8319 6.84858 81.5066 7.35512 81.3139C7.92212 81.099 8.53827 81.0082 9.13108 80.8646L9.29341 81.3304L9.29595 81.3308Z" fill="#E5C096"/>
<path d="M7.97711 87.4007C8.50107 86.7039 9.14652 86.064 9.51747 85.2951C9.88841 84.5263 10.2302 84.3585 10.9866 84.7251C11.3089 84.8819 11.7542 84.7867 12.1434 84.8079C12.0696 84.376 12.1488 83.7355 11.8953 83.5525C11.3252 83.1381 10.5549 82.6552 9.93516 82.735C8.8306 82.8782 7.54087 83.2019 7.30496 84.5858C7.15926 85.4478 7.34803 86.367 7.38717 87.2615C7.58284 87.3086 7.78143 87.3536 7.97711 87.4007Z" fill="#E5C096"/>
<path d="M13.7647 36.4243C14.6353 34.8069 15.5298 33.2035 16.3446 31.5596C16.4668 31.3126 16.32 30.7946 16.1165 30.5722C15.9752 30.4214 15.4737 30.4745 15.2085 30.599C14.8368 30.7753 14.4059 31.0363 14.2254 31.3786C13.4247 32.892 13.1117 34.5166 13.2283 36.2047C13.4071 36.2779 13.5859 36.3511 13.7647 36.4243Z" fill="#E5C096"/>
<path d="M8.39766 66.68C7.98056 66.8652 7.48916 66.938 7.24459 67.2214C6.52074 68.0576 5.85802 68.9548 5.25801 69.8846C5.09648 70.1336 5.25267 70.588 5.2614 70.9505C5.5981 70.8522 6.02662 70.8533 6.25558 70.6403C7.16191 69.7999 8.02161 68.9059 8.85994 67.9983C9.03316 67.8108 9.18186 67.4378 9.11168 67.2274C9.03753 67.0085 8.68414 66.8861 8.39513 66.6796L8.39766 66.68Z" fill="#E5C096"/>
<path d="M71.3048 31.2685C67.5502 30.3934 63.8588 30.6191 60.1032 31.4537C57.0573 32.1282 55.051 33.7829 53.7189 36.4832C51.8238 40.3189 50.8671 44.4155 50.8626 48.6426C50.8617 50.3523 51.5249 52.1914 52.3208 53.7488C54.7565 58.5162 58.2207 62.1625 63.8754 62.9081C66.6733 63.2778 69.4886 63.5306 72.2982 63.8033C78.5577 64.4123 84.5824 63.2897 90.4203 61.1287C92.608 60.3194 94.7998 59.36 96.7459 58.094C98.7005 56.824 100.762 56.3729 102.972 56.0813C103.926 55.9548 104.879 55.6073 105.766 55.2136C107.61 54.395 107.773 52.2182 106.079 51.1152C105.297 50.6071 104.441 50.0725 103.551 49.902C102.316 49.6647 101.676 48.8425 100.913 48.0331C98.6001 45.5784 96.3757 43.0172 93.8608 40.7872C90.3648 37.6897 86.1492 35.681 81.8065 34.0745C78.4097 32.8184 74.8714 31.939 71.3964 30.8948L71.3022 31.2681L71.3048 31.2685Z" fill="#542B11"/>
<path d="M125.175 65.779C124.324 66.8225 123.519 67.9066 122.614 68.8978C118.682 73.2091 113.924 75.8521 107.982 76.1684C106.264 76.2598 104.567 76.6506 102.851 76.849C102.579 76.8814 102.238 76.6776 101.992 76.4957C101.14 75.8604 100.33 75.169 99.4792 74.5311C97.7744 73.2525 95.7183 73.3121 94.2918 74.8057C94.8164 74.9301 95.2336 75.0958 95.6587 75.1197C97.7338 75.2474 99.3345 76.1936 100.455 77.9106C101.573 79.6222 102.728 81.3209 103.66 83.1323C104.171 84.1225 104.344 85.3201 104.505 86.4482C104.753 88.1948 105.46 89.6713 106.594 90.9616C106.712 90.9324 106.831 90.9032 106.947 90.8736C106.78 90.085 106.688 89.2709 106.437 88.5114C105.294 85.05 106.343 82.0299 108.339 79.2511C108.705 78.7414 109.52 78.363 110.171 78.2826C117.032 77.4579 121.785 73.6603 125.102 67.8159C125.411 67.2743 125.485 66.5992 125.669 65.9872C125.502 65.9159 125.339 65.8449 125.172 65.7761L125.175 65.779Z" fill="#552800"/>
<path d="M66.3427 25.2438C65.5224 25.2914 64.6984 25.2942 63.886 25.3949C62.9545 25.5091 62.0348 25.7551 61.101 25.8508C60.6868 25.8934 60.2508 25.7146 59.8259 25.6362C59.9869 25.2156 60.066 24.7336 60.3254 24.3848C61.5359 22.7527 63.2273 21.7687 65.0649 20.9907C69.1975 19.24 73.5088 19.4257 77.8385 19.7674C78.3933 19.8105 78.9573 19.7562 79.5171 19.748C79.5333 19.6387 79.5495 19.5294 79.5656 19.42C79.2425 19.2683 78.9336 19.0563 78.5956 18.9699C74.3451 17.8993 70.0826 17.63 65.7795 18.724C61.7326 19.7546 59.0267 22.3633 56.9473 25.8469C56.429 26.7161 55.6132 27.4893 54.7692 28.0661C52.4518 29.6461 50.1607 31.2067 49.1114 33.98C49.0053 34.2579 48.8238 34.5715 48.8734 34.8335C48.9919 35.4721 49.2226 36.0909 49.4081 36.716C49.8324 36.324 50.4191 36.0106 50.6542 35.5283C52.8281 31.0894 56.5259 28.643 61.1314 27.3312C62.8891 26.8299 64.6382 26.2987 66.3909 25.7784C66.3758 25.5995 66.3581 25.4202 66.343 25.2413L66.3427 25.2438Z" fill="#552800"/>
<path d="M105.503 59.4362C104.31 59.8963 103.065 60.2526 101.932 60.8308C96.5911 63.5487 91.2276 66.2087 85.2802 67.3531C83.483 67.7004 81.6468 67.8368 80.0178 68.0479C84.3368 68.848 88.6396 68.6868 93.6726 66.7159C100.854 63.9013 105.102 61.4634 105.685 59.8737C105.626 59.7298 105.564 59.583 105.505 59.4391L105.503 59.4362Z" fill="#552800"/>
<path d="M39.7466 66.4091C39.2073 69.2292 40.8227 70.796 42.5189 72.2553C42.8439 72.5346 43.7674 72.5621 44.0707 72.303C44.4423 71.9863 44.695 71.174 44.5592 70.7044C44.3305 69.9144 43.7408 69.2295 43.3229 68.4894C42.7237 67.429 42.1676 66.3411 41.5342 65.3015C41.3503 64.9989 40.876 64.5701 40.6717 64.6334C38.6662 65.2644 36.3524 65.2053 34.7956 66.8772C34.2084 67.5101 33.7135 68.4321 33.6177 69.2728C33.4938 70.3381 34.452 70.8332 35.3301 70.1836C36.4877 69.331 37.4965 68.2719 38.5808 67.3176C38.9513 66.9904 39.3594 66.7078 39.7473 66.404L39.7466 66.4091Z" fill="#552800"/>
<path d="M99.1403 38.4318C100.85 40.4855 102.518 42.5746 104.278 44.5838C105.956 46.5003 107.715 48.3481 109.479 50.1891C109.711 50.4312 110.185 50.4416 110.55 50.5579C110.547 50.1391 110.719 49.5721 110.511 49.3282C109.11 47.6814 107.662 46.0667 106.16 44.5114C104.267 42.5553 102.31 40.66 100.372 38.7491C100.111 38.4922 99.7803 38.303 99.483 38.0823C99.3693 38.2006 99.2561 38.3164 99.1399 38.4344L99.1403 38.4318Z" fill="#552800"/>
<path d="M43.9635 57.9069C41.0469 56.7063 32.6463 62.1755 32.6718 65.2169C33.2525 64.8221 33.747 64.5523 34.1617 64.1901C36.7128 61.9611 39.36 59.9076 42.6834 58.9207C43.1235 58.7909 43.461 58.3185 43.9657 57.9098L43.9635 57.9069Z" fill="#552800"/>
<path d="M91.8626 23.3856C92.6245 24.1011 93.0961 24.7062 93.7019 25.0894C98.0447 27.8367 101.574 31.3237 103.904 36.3171C103.217 32.18 95.5605 23.8884 91.8622 23.3881L91.8626 23.3856Z" fill="#552800"/>
<path d="M103.733 93.2643C102.482 96.6469 100.045 98.7524 96.5599 100.025C98.092 100.433 100.741 99.4062 101.928 97.9292C102.995 96.6033 104.484 95.3685 103.733 93.2643Z" fill="#552800"/>
<path d="M67.1808 82.8885C67.5455 81.1079 65.7437 80.6958 65.0222 79.6017C64.8797 79.6871 64.7397 79.7729 64.5971 79.8584C65.2629 80.9781 65.9286 82.0978 66.5943 83.2175L67.1808 82.8885Z" fill="#552800"/>
<path d="M79.0048 104.75C78.0994 105.918 77.194 107.086 76.2889 108.251C76.3892 108.329 76.4924 108.404 76.5927 108.481C77.4862 107.306 78.3796 106.131 79.2735 104.954C79.1848 104.886 79.0939 104.815 79.0052 104.748L79.0048 104.75Z" fill="#552800"/>
</svg>
