<svg width="304" height="553" viewBox="0 0 304 553" fill="none" xmlns="http://www.w3.org/2000/svg">
<path d="M125.627 3.31774C123.181 4.17112 121.952 2.9926 120.896 1.30662C119.681 3.84538 118.464 6.21518 117.949 8.92045C117.952 9.76528 116.552 9.77017 116.549 8.92534C116.367 6.89838 116.185 4.8714 115.828 2.84504C113.033 4.03758 110.063 5.23078 107.268 6.42332C107.268 6.42332 107.269 6.76123 107.094 6.93081C106.919 6.93142 106.57 7.10161 106.396 7.27119C104.997 7.61401 103.599 7.95686 102.2 8.29968C100.453 8.98165 98.706 9.66361 96.9588 10.3456C92.9407 12.0493 89.0988 14.0903 85.4312 15.9618C81.0644 18.0046 76.8737 20.3848 72.6831 22.765C67.4462 26.1626 62.5593 29.559 57.1469 32.7883C52.6098 36.1835 48.6 40.2527 44.2391 43.9853C43.5411 44.4946 42.8436 45.1729 42.3205 45.6816C41.6231 46.36 40.925 46.8693 40.4025 47.547C35.8691 51.9559 31.6861 56.5327 27.8542 61.4461C23.4998 67.0372 20.7206 72.7918 17.5932 79.0545C16.5511 81.2548 15.6846 83.6233 14.9925 85.8223C14.1284 88.8667 13.4398 92.0795 12.9261 95.2917C12.9309 96.6434 12.9362 98.1641 12.9403 99.3469C12.9427 100.023 13.1194 100.529 13.2967 101.204C13.2973 101.373 13.299 101.88 13.299 101.88C13.299 101.88 5.95094 101.906 4.20552 103.095C2.45951 104.115 2.64096 105.973 1.24663 107.498C0.725902 108.683 0.380105 109.867 0.38424 111.049C0.404319 116.794 1.99783 122.196 2.54278 127.939C3.07709 130.64 3.61141 133.342 3.97018 135.875C5.39994 144.487 6.13049 153.271 7.56025 161.883C8.81329 169.989 11.476 180.963 9.58041 189.249C8.03062 196.351 7.00805 204.127 6.68354 211.394C6.51862 214.267 6.35196 216.633 6.36023 218.998C6.36318 219.843 6.54107 220.687 6.89452 221.7C7.60615 225.077 8.66949 228.959 12.1739 230.468C13.2248 230.802 14.2757 231.136 15.3272 231.64C18.3021 231.798 24.9575 233.802 24.4332 233.973C21.2869 234.829 16.0465 237.213 13.0829 240.265C14.4914 242.794 16.0755 245.492 16.0849 248.196C16.105 253.941 15.4253 259.688 15.271 265.602C15.2905 271.178 13.7342 276.421 13.4038 281.998C13.4091 283.519 13.4156 285.378 12.7205 286.732C13.4226 287.405 13.9493 287.91 14.4771 288.753C16.2349 291.113 17.8178 293.473 19.5751 295.663C19.7512 296.001 19.578 296.508 19.4036 296.678C19.0543 296.848 18.705 297.018 18.3557 297.188C15.2177 300.41 11.731 303.97 10.696 308.198C9.66047 312.257 10.8999 316.476 12.3131 320.358C13.7258 324.07 15.139 327.951 16.2017 331.665C18.3225 337.74 20.2682 343.816 21.1655 350.234C22.2471 359.354 21.7541 368.48 19.336 377.444C18.4713 380.319 17.7839 383.87 16.7459 387.253C15.7015 388.778 14.1316 390.135 13.2622 391.658C13.2634 391.996 13.2651 392.503 13.79 392.501C15.5431 393.509 16.7743 395.363 18.1793 396.879C19.4087 398.227 20.8113 399.067 22.215 400.245C23.7938 401.422 25.1976 402.6 26.9489 403.1C26.9489 403.1 26.9489 403.1 26.7739 403.101C24.3245 403.11 21.702 403.626 19.2544 404.141C15.9349 405.504 12.6155 406.868 9.29609 408.231C8.42308 408.741 7.72445 409.081 6.85145 409.591C5.82652 416.692 7.08369 425.98 6.93295 432.909C6.6108 440.851 6.63501 447.779 7.00914 454.705C7.36613 456.731 7.54757 458.589 7.90398 460.447C8.43948 463.486 9.14993 466.525 9.33551 469.566C9.52051 472.438 9.0057 475.312 8.49087 478.186C7.11839 485.963 9.4182 493.221 12.7666 500.137C15.7621 506.209 18.757 512.113 21.7525 518.185C24.9241 524.595 28.4445 530.665 32.4885 536.396C35.6531 540.778 38.635 542.964 44.408 542.775C48.257 542.762 52.2792 542.241 56.3049 542.733C57.7052 542.897 59.8052 543.059 60.8591 544.238C60.8591 544.238 61.0341 544.238 61.2084 544.068C61.7321 543.728 61.7291 542.883 61.7268 542.208C61.1694 532.916 62.1855 523.282 62.5029 513.987C62.1802 521.761 63.9557 529.189 65.0314 536.62C66.1036 543.037 64.7453 554.87 71.2057 551.13C83.6027 543.99 97.9668 549.009 110.907 547.105C114.754 546.584 122.633 548.246 126.123 545.7C126.647 545.36 127.167 544.006 127.165 543.331C127.148 538.431 126.782 533.87 127.641 529.305C129.065 536.396 129.445 545.012 133.309 549.223C138.376 547.178 143.443 545.301 149.216 545.112C156.039 545.088 162.691 546.248 169.512 545.379C169.508 544.365 169.505 543.521 169.502 542.507C169.844 540.309 170.186 538.111 170.528 535.744C171.038 531.519 171.531 522.393 171.883 522.898C173.113 524.415 173.12 526.611 173.302 528.469C173.663 531.678 174.724 534.885 175.785 538.092C176.493 540.455 177.551 542.817 178.434 545.179C184.373 542.624 192.25 543.61 198.201 544.434C205.553 545.422 213.079 546.241 220.599 545.37C227.753 539.769 235.082 534.336 241.709 528.23C249.732 521.105 257.58 513.812 265.077 506.352C272.4 499.229 279.548 491.939 285.819 483.976C287.735 481.603 289.476 479.063 291.216 476.353C293.474 471.783 294.509 467.386 295.018 462.823C296.225 457.918 296.732 452.679 296.715 447.948C296.689 440.513 295.089 433.084 294.538 425.651C294.536 425.145 294.535 424.807 294.533 424.3C294.51 417.541 295.349 407.569 292.525 400.313C292.521 399.3 292.518 398.286 292.69 397.44C292.688 396.934 292.686 396.427 292.161 396.26C290.406 394.914 288.128 393.908 286.026 393.071C285.676 392.903 285.325 392.735 284.974 392.567C284.098 392.064 283.222 391.729 282.52 391.224C282.519 390.886 282.693 390.548 283.043 390.547C287.413 389.517 290.905 387.478 294.396 385.1C291.415 383.083 292.451 379.193 292.614 375.813C292.767 369.392 293.269 362.969 292.722 356.719C292.176 350.469 290.404 344.224 290.557 337.972C290.548 335.268 290.713 332.564 290.879 329.86C290.868 326.65 291.031 323.27 291.369 319.889C291.673 306.709 291.277 293.531 291.231 280.52L291.229 280.014C291.568 276.802 292.082 273.59 292.246 270.379C292.738 261.084 293.23 251.789 293.898 242.494C294.398 235.395 294.901 229.311 290.508 223.75C289.802 221.894 288.571 220.209 287.341 218.692C286.638 217.681 285.758 216.163 285.578 214.981C286.103 214.979 286.803 214.808 287.326 214.468C288.375 214.126 287.32 212.609 286.619 212.443C284.518 211.774 282.765 210.936 281.185 209.252C281.184 209.083 281.183 208.745 281.532 208.574C281.707 208.574 282.057 208.573 282.232 208.572C286.953 207.88 291.675 207.356 296.396 206.495C297.265 204.802 297.431 202.267 296.717 198.214C296.714 197.37 296.712 196.694 296.711 196.525C296.688 189.935 298.587 182.494 300.14 176.406C302.21 167.95 301.479 158.997 300.748 150.045C299.829 137.544 300.31 125.039 300.617 112.535C296.937 111.027 293.605 108.842 290.1 107.164C289.575 106.997 289.572 106.152 290.096 105.982C292.192 104.96 294.642 104.952 296.915 104.775C298.315 104.77 299.888 104.427 301.463 104.252C302.155 102.053 301.268 98.677 301.435 96.3109C302.112 89.8877 300.513 82.9657 300.491 76.545C300.464 68.9416 296.767 62.3648 296.566 54.931C296.557 52.3965 296.899 50.0298 297.415 47.4935C297.415 47.4935 297.414 47.1555 297.588 46.986C297.587 46.648 297.761 46.3095 297.935 45.971C298.456 44.9553 299.152 43.9391 300.025 43.2602C300.374 43.09 300.022 42.5843 300.021 42.2464C297.036 39.0464 295.445 34.4899 292.983 30.9502C292.807 30.6129 292.456 30.2762 292.28 29.9389C291.928 29.4332 291.752 29.0959 291.4 28.5902C289.115 25.3878 286.655 22.524 284.198 20.167C279.983 15.7886 275.247 12.088 270.161 8.55742C267.355 6.7086 264.373 4.6914 261.046 3.68923C259.469 3.18784 257.717 2.3491 255.967 2.35521C255.267 2.35766 254.743 2.35949 254.218 2.36133C253.52 3.03963 252.999 4.05525 252.828 5.06966C252.297 3.55081 251.593 2.20158 250.54 1.36042C244.245 2.22726 237.949 3.09408 231.652 3.45403C226.929 3.80847 222.206 3.99395 217.482 3.8415C214.508 3.85189 211.357 3.35604 208.209 3.70497C207.865 5.56481 207.522 7.59358 207.354 9.62177C207.015 12.4954 205.975 15.3714 206.16 18.2432C206.163 19.0881 204.938 19.0923 204.76 18.2481C203.699 14.8725 203.161 11.3261 202.1 7.9505C201.569 6.26268 200.688 4.57608 199.983 3.05784C194.037 3.58553 187.559 2.42537 181.783 1.76969C177.932 1.27625 173.733 1.12196 169.707 0.629135C157.11 0.673164 144.514 0.886188 131.741 0.592899C129.644 1.2761 127.723 2.29657 125.452 3.14935L125.627 3.31774Z" fill="#202020"/>
<path d="M27.3677 72.4306C25.27 72.9448 23.5198 72.782 21.7732 73.6329C21.7732 73.6329 21.7726 73.4639 21.772 73.295C22.6427 72.1091 23.5133 70.9234 24.384 69.7375C28.0504 67.5282 32.4224 67.006 36.6214 66.9913C42.22 66.9717 45.0334 71.0171 48.0219 75.0619C45.5571 70.6773 43.2673 66.2922 38.0145 65.1278C35.3878 64.4611 30.6635 64.3086 27.1691 65.6726C28.7372 63.8085 30.1303 61.945 31.8734 60.0802C33.2713 59.5684 34.6691 59.0567 36.0676 58.7138C40.0886 57.8549 43.0688 59.5342 46.225 61.5508C46.7511 61.8869 46.9237 61.2104 46.3976 60.8743C43.7668 59.0249 41.136 57.1754 37.8124 57.356C36.4128 57.3609 34.8388 57.5354 33.4409 58.0472C34.1384 57.3689 34.8352 56.5216 35.5327 55.8433C38.6801 55.3254 42.1786 55.1442 45.3284 55.3021C49.5279 55.4564 53.0477 61.358 55.1578 64.392C53.2209 60.8504 50.7544 55.9591 46.7245 54.2835C44.2716 53.2782 40.7713 52.9525 37.4495 53.64C39.7157 51.2665 42.3317 48.8919 44.7734 46.6868C46.1731 46.6819 47.5721 46.508 48.7962 46.3348C52.4697 46.153 55.451 48.1701 58.258 50.3569C58.258 50.3569 58.6079 50.3557 58.4329 50.3563C56.5013 48.3354 54.5709 46.6525 51.9425 45.4789C50.891 44.9757 48.9653 44.6445 47.0413 44.8202C47.7394 44.3109 48.2619 43.6332 48.96 43.1238C51.4099 43.2842 53.8599 43.4446 56.3105 43.774C59.2859 44.1015 61.2163 45.7845 62.9729 47.8059C63.4996 48.311 64.9033 49.4888 65.0813 50.333C65.0818 50.502 65.6079 50.8381 65.6061 50.3312C65.6026 49.3174 65.0765 48.9813 64.3737 48.139C63.1437 46.6226 62.2631 44.936 60.5088 43.5904C58.0535 41.9093 54.3759 40.9083 50.878 41.2585C52.7966 39.5621 54.8907 38.0341 56.9843 36.3371C57.5074 35.8284 58.206 35.488 58.7291 34.9793C60.481 35.649 62.7549 35.4721 64.5062 35.9729C67.4834 36.8073 72.0387 38.65 73.449 41.6865C72.7397 38.9855 69.4067 36.4627 67.1281 35.2878C65.5506 34.4485 63.2732 33.6116 60.9976 33.2817C62.9174 31.9232 65.0122 30.5642 66.9325 29.3747C68.8588 29.8749 70.609 30.0377 72.3632 31.3833C73.5909 32.2239 74.6459 33.7409 75.5248 34.9206C76.5799 36.4376 77.9831 37.4465 78.3395 39.3039C78.3336 37.6142 77.6296 36.4339 76.7501 35.0852C75.87 33.5676 75.1649 32.0494 73.7605 30.7026C72.5317 29.5241 70.778 28.3474 69.0267 27.8467C71.4707 26.3174 74.0903 24.9565 76.5344 23.4273C77.4092 23.4242 78.4613 24.0964 79.1623 24.4319C80.3887 24.9345 82.1419 25.9422 82.6714 27.2921C82.6714 27.2921 83.0225 27.6288 83.0213 27.2909C83.016 25.7702 81.4367 24.424 80.3846 23.7518C79.8586 23.4157 79.157 22.9112 78.2804 22.4074C80.9 21.0465 83.519 19.5166 86.1386 18.1557C86.8402 18.6602 87.7156 18.8261 88.5922 19.3299C89.1182 19.666 89.4717 20.6786 89.8234 21.1843C90.3512 22.0273 91.2283 22.7001 91.4068 23.7132C91.408 24.0512 92.1084 24.2177 92.1066 23.7108C92.1043 23.0349 92.1019 22.3591 91.5747 21.6851C91.2218 20.8415 90.8689 19.9978 90.5161 19.1542C89.9877 18.1423 89.1111 17.6385 88.0596 17.1352C89.4569 16.4545 90.6798 15.9433 92.0783 15.6005C92.2532 15.5999 92.4294 15.9372 92.7799 16.1049C93.131 16.4417 94.1825 16.9449 94.1842 17.4518C94.1854 17.7897 94.7115 18.1258 94.8852 17.7872C95.2328 17.1101 94.8811 16.6045 94.3545 16.0994C94.3533 15.7615 93.8272 15.4254 93.4767 15.2577C94.3503 14.9167 95.3995 14.7441 96.2737 14.572C98.1952 13.7205 100.117 12.8689 102.038 12.0174C101.169 13.7101 100.301 15.4028 99.6067 17.0949C98.2135 18.9584 96.8198 20.6529 95.4261 22.3475C88.2824 30.8208 81.6648 39.6302 75.0472 48.4396C69.1265 56.4017 63.9062 64.5304 58.3354 72.4913C57.9866 72.8305 57.6391 73.5075 57.2915 74.1846C56.5882 73.1733 55.7098 72.1625 54.8321 71.3208C53.4277 69.9739 52.0222 68.2892 50.0941 67.2821C51.4973 68.291 52.553 69.977 53.6074 71.325C54.4869 72.6737 55.5414 74.0217 56.4215 75.5394C55.552 77.0631 54.3332 78.7571 53.115 80.62C53.115 80.62 53.115 80.62 53.1144 80.451C52.5878 79.9459 51.8856 79.2725 51.7089 78.7662C51.7089 78.7662 51.3584 78.5985 51.359 78.7674C51.3613 79.4433 51.8874 79.7794 52.0647 80.4547C52.0659 80.7926 52.4176 81.2983 52.5937 81.6356C52.2456 82.1437 52.0718 82.4822 51.7237 82.9903C50.5049 84.6843 49.461 86.3776 48.4172 88.0709C48.2434 88.4095 47.8935 88.4107 47.5436 88.4119C47.5383 86.8912 46.6565 84.8667 46.3036 84.0231C45.417 80.6468 43.8318 77.611 41.5479 74.9155C39.264 72.22 35.7608 71.0495 32.436 70.8922C30.3366 70.8995 28.24 71.7517 26.3173 72.2653L27.3677 72.4306Z" fill="#F8F7E7"/>
<path d="M9.84336 214.424C10.8901 213.575 12.1119 212.726 12.9849 212.216C14.9047 210.858 18.5776 210.507 20.852 210.499C21.2019 210.498 20.8508 210.161 20.8508 210.161C18.0497 209.664 15.0743 209.337 12.4535 210.36C11.5799 210.701 10.8831 211.548 10.1862 212.395C10.5308 210.873 10.6998 209.183 11.0444 207.661C12.0924 207.15 13.1404 206.64 14.5394 206.466C16.987 205.951 20.6628 206.445 22.7664 207.62C22.9414 207.619 22.9414 207.619 22.7658 207.451C20.135 205.602 15.0572 204.437 11.3873 205.632C12.0753 202.25 12.5883 198.869 12.927 195.658C13.2657 192.446 13.2545 189.236 13.2433 186.026C13.5932 186.024 13.7675 185.855 14.1168 185.685C14.4668 185.683 14.9916 185.681 15.5165 185.68C15.8664 185.678 16.2163 185.677 16.5656 185.507L16.5644 185.169C15.5135 184.835 14.6382 184.669 13.589 184.842C13.5825 182.983 13.2255 180.957 13.0441 179.099C13.5678 178.759 13.9171 178.589 14.4408 178.249C15.4893 177.907 16.5385 177.735 17.7626 177.561C17.9375 177.561 17.7614 177.223 17.7614 177.223C16.1868 177.229 14.4361 176.897 12.8638 177.579C12.8632 177.41 12.8626 177.241 12.8615 176.903C13.5595 176.393 14.2581 176.053 15.1323 175.881C16.1815 175.708 17.5799 175.365 18.6303 175.531C18.8052 175.53 18.6297 175.362 18.6297 175.362C17.5782 174.859 15.8292 175.034 14.7795 175.037C14.0797 175.04 13.2049 175.043 12.6812 175.383C11.9666 171.161 11.252 166.939 10.5368 162.549C9.6414 156.638 8.74652 150.896 8.02603 144.985C10.8206 143.623 13.0891 141.926 16.2371 141.577C16.5871 141.576 16.2348 140.901 16.0598 140.902C14.3103 140.908 12.5619 141.252 10.8141 141.765C9.9405 142.106 8.71699 142.448 7.84398 142.958C7.30671 139.411 6.94381 135.695 6.40654 132.149C6.05191 130.798 5.69787 129.617 5.34324 128.266C6.21565 127.588 6.91192 126.571 7.78433 125.892C9.52857 124.366 11.8012 123.851 13.7216 122.661C14.0709 122.491 13.7186 121.816 13.3693 121.987C11.0973 122.67 8.99723 122.509 7.07803 124.036C6.37998 124.546 5.50696 125.056 4.98505 125.902C4.63159 124.89 4.45311 123.876 4.27461 122.863C4.27166 122.018 4.09374 121.174 3.74088 120.331C4.61329 119.652 5.30956 118.635 6.18197 117.957C7.92739 116.768 10.3738 115.914 12.2972 115.57C10.0221 115.409 7.92388 115.754 5.82795 116.775C4.77999 117.286 3.90814 118.133 3.21127 118.981C3.21127 118.981 3.21009 118.643 3.20891 118.305C3.20891 118.305 3.55824 118.135 3.73261 117.965C4.08134 117.626 4.60502 117.286 5.12871 116.946C5.82617 116.268 6.87412 115.758 7.92208 115.247C8.272 115.246 7.91971 114.571 7.57039 114.741C6.52243 115.252 5.47388 115.594 4.60147 116.272C4.25215 116.443 3.72846 116.782 3.20419 116.953C3.19651 114.757 3.18826 112.391 4.22973 110.022C4.22973 110.022 4.22914 109.853 4.22855 109.684C7.19629 107.815 11.569 107.462 14.8943 107.788C14.8943 107.788 14.8943 107.788 14.8937 107.619C12.7919 106.951 8.41566 106.29 5.26941 107.146C5.61696 106.469 5.79013 105.961 6.13768 105.284C9.98375 104.426 14.3571 104.242 18.7333 104.902C14.905 110.829 17.9282 124.843 18.6487 130.754C17.7757 131.264 17.0794 132.281 16.5563 132.789C15.5101 133.807 13.9373 134.319 13.0667 135.505C12.5442 136.183 13.4213 136.856 13.9468 137.023C14.6466 137.02 15.1715 137.018 15.6963 137.017C16.3961 137.014 17.0959 137.012 17.9707 137.009C18.3206 137.007 18.8455 137.006 19.1954 137.004C19.5619 141.734 20.1039 146.632 20.8202 151.361C21.3533 153.725 21.7121 156.258 22.0709 158.791C22.4261 160.31 22.7819 161.999 23.1372 163.518C24.2028 168.077 25.7934 172.633 27.2084 177.021C27.7392 178.709 28.2693 180.228 28.6246 181.748C28.4543 183.1 28.2841 184.452 28.2882 185.635C28.2977 188.338 21.6482 188.024 20.073 187.86C18.8483 187.865 19.5529 189.214 20.0783 189.381C22.5312 190.386 25.1585 191.222 27.6109 192.058C28.3107 192.056 28.6624 192.561 28.8385 192.899C28.8432 194.25 28.6736 195.772 28.5033 197.124C28.5039 197.293 28.5045 197.462 28.5057 197.8C27.6475 202.534 25.7472 209.468 27.1645 214.532C26.1148 214.536 24.3623 213.697 23.8369 213.53C22.7871 213.534 21.9112 213.199 20.8614 213.203C19.1119 213.209 17.5384 213.552 15.7901 213.896C13.8673 214.41 11.9464 215.43 10.7264 216.786C10.7241 216.11 10.8966 215.434 11.0692 214.758L9.84336 214.424Z" fill="#F8F7E7"/>
<path d="M22.6661 379.122C22.4911 379.123 22.3161 379.124 22.1412 379.124C21.7913 379.125 21.442 379.296 21.0926 379.466C20.7427 379.467 20.5683 379.637 20.219 379.807C20.7386 378.284 21.0838 376.931 21.6033 375.409C24.7466 373.708 28.9379 371.497 32.2697 373.682C29.1122 371.327 25.2662 372.186 21.9473 373.718C22.4651 371.689 22.9829 369.659 23.3257 367.63C24.8991 367.287 26.1179 365.593 27.8663 365.249C29.6147 364.905 32.7615 364.218 34.3391 365.057C32.9353 363.879 30.4865 364.057 28.7375 364.232C26.813 364.239 24.8903 364.752 23.4948 365.94C23.493 365.433 23.4918 365.095 23.49 364.588C24.0137 364.249 24.5374 363.909 25.236 363.568C26.6339 363.057 28.2073 362.713 29.7814 362.539C29.9563 362.538 29.7802 362.201 29.7802 362.201C28.0306 362.207 26.456 362.212 24.8832 362.725C24.5333 362.726 24.1834 362.727 23.8346 363.066C24.1721 359.517 24.1597 355.969 23.7962 352.084C23.256 347.692 22.3665 343.471 21.127 339.252C21.302 339.251 21.6507 338.912 21.8257 338.911C22.6993 338.57 23.7478 338.229 24.6214 337.888C26.0199 337.545 27.5956 337.877 28.9935 337.365L28.9923 337.028C27.069 337.372 25.3165 336.533 23.2188 337.048C22.5196 337.219 21.6454 337.391 20.9468 337.732C20.5933 336.719 20.2399 335.706 19.8858 334.525C20.4095 334.185 21.1081 333.845 21.4563 333.337C22.503 332.488 23.726 331.977 25.125 331.803L25.1244 331.634C23.8997 331.638 22.85 331.642 21.6271 332.153C20.9278 332.325 20.2292 332.665 19.5306 333.005C19.0004 331.487 18.4708 330.137 17.9412 328.787C16.1763 324.4 14.4108 319.844 13.5201 315.285C13.5183 314.778 13.5165 314.271 13.3398 313.765C13.6897 313.764 14.0396 313.762 14.2134 313.424C14.9061 311.394 18.2285 310.875 20.1513 310.362C21.8996 310.018 23.6504 310.349 25.3976 309.667C25.3976 309.667 25.3976 309.667 25.397 309.498C25.397 309.498 25.2214 309.33 25.2208 309.161C25.2214 309.33 22.5965 309.17 22.2466 309.172C20.847 309.176 19.4473 309.181 18.2226 309.186C16.823 309.191 14.9014 310.042 13.8552 311.06C14.0243 309.369 14.7188 307.846 15.5876 306.153C16.6356 305.643 17.6836 305.132 18.5572 304.791C20.3038 303.94 22.405 304.44 24.1522 303.758C24.6765 303.587 24.1493 302.913 23.625 303.084C22.5764 303.426 21.3505 303.092 20.3008 303.096C19.9509 303.097 19.601 303.098 19.0761 303.1C19.0761 303.1 19.2499 302.761 19.4243 302.592C20.821 301.742 22.3926 300.892 23.9643 300.041C26.0614 299.358 28.3346 299.012 30.4329 298.667C27.9929 301.379 27.6584 305.773 28.0195 308.982C28.9197 316.245 29.9954 323.676 32.2946 330.764C33.1789 333.465 33.8917 337.179 35.3002 339.709C37.9416 344.6 31.2916 344.116 30.4268 346.992C30.2554 348.006 30.7827 348.68 31.4848 349.353C32.362 350.026 35.1636 350.692 35.3421 351.705C35.5289 355.084 37.1135 357.951 37.6502 361.328C38.723 367.914 39.4494 375.515 39.298 382.275C38.9481 382.276 38.597 381.939 38.2471 381.94C33.5139 379.253 28.2611 378.089 23.5408 379.119L22.6661 379.122Z" fill="#F8F7E7"/>
<path d="M31.0636 529.135C31.0636 529.135 30.7113 528.46 30.5352 528.123C30.5269 525.757 30.5187 523.392 31.2096 520.855C31.9018 518.656 33.4616 514.426 36.437 514.754C36.437 514.754 36.437 514.754 36.4365 514.585C31.533 513.25 28.9311 519.68 28.5989 524.75C28.2466 524.076 27.8949 523.57 27.7176 522.895C27.8867 521.205 28.0563 519.683 28.2253 517.993C28.5652 515.119 29.0818 512.752 30.6476 510.212C30.647 510.043 30.2959 509.706 30.1215 509.876C28.379 511.91 27.1603 513.604 26.2944 516.141C25.9468 516.818 25.7748 517.664 25.6028 518.509C24.7215 516.654 24.0152 514.797 23.1333 512.773C22.7805 511.929 22.2533 511.255 21.9004 510.412C21.8992 510.074 21.898 509.736 22.2467 509.397C22.5943 508.72 22.9413 507.873 23.1138 507.197C23.6328 505.506 23.9762 503.646 24.6707 502.123C24.6707 502.123 24.6695 501.785 24.4952 501.954C23.4508 503.479 22.5819 505.171 21.5381 506.865C21.3643 507.203 21.0161 507.711 20.8424 508.05C20.3134 506.869 19.785 505.857 19.2559 504.676C19.4285 504 19.6006 503.154 19.7732 502.478C19.7708 501.802 19.7684 501.126 19.941 500.449C19.9393 499.943 20.2874 499.434 20.2856 498.927C20.2856 498.927 20.1095 498.59 19.9357 498.929C19.9369 499.267 19.4132 499.606 19.2394 499.945C18.8919 500.622 18.7187 501.13 18.3711 501.807C18.3723 502.145 18.0236 502.484 18.0248 502.822C17.4958 501.641 16.7918 500.46 16.2622 499.111C16.2622 499.111 16.2622 499.111 16.2616 498.942C16.2616 498.942 16.261 498.773 16.2604 498.604C16.2587 498.097 16.2575 497.759 16.2557 497.252C16.2528 496.407 16.5991 495.392 16.2463 494.548C16.2463 494.548 15.8952 494.212 15.8964 494.55C15.8993 495.395 15.3774 496.241 15.0304 497.087C14.3265 495.907 13.622 494.558 12.9168 493.039C12.9156 492.701 12.9139 492.195 12.9133 492.026C12.908 490.505 12.9027 488.984 12.8973 487.464C12.8967 487.295 12.5456 486.958 12.3719 487.296C12.1999 488.142 11.8529 488.988 11.6809 489.833C11.6792 489.326 11.503 488.989 11.3269 488.652C11.3269 488.652 11.3269 488.652 11.3263 488.483C11.3263 488.483 11.3257 488.314 11.3251 488.145C11.3239 487.807 11.3227 487.469 11.4971 487.3C11.4936 486.286 11.49 485.272 11.4871 484.427C12.7171 485.944 13.7727 487.629 15.0015 488.808C18.6903 493.019 22.5518 496.554 26.9381 500.087C30.4472 502.947 33.9558 505.638 37.6399 508.498C39.7447 510.011 47.9758 512.348 42.7342 514.394C40.4628 515.247 36.9814 520.328 35.9387 522.359C34.0266 525.914 33.1637 529.297 33.8771 533.18C33.8782 533.518 33.8794 533.856 34.2305 534.193C33.0011 532.845 31.9461 531.328 30.8904 529.642L31.0636 529.135Z" fill="#F8F7E7"/>
<path d="M292.867 448.13C292.529 451.679 292.367 455.397 292.03 458.947C291.68 458.948 291.155 458.781 290.804 458.613C290.103 458.278 290.107 459.291 290.632 459.459C290.983 459.626 291.509 459.962 292.034 459.961C292.037 460.974 291.866 461.989 291.694 463.003C291.344 462.835 290.818 462.668 290.293 462.501C289.768 462.503 289.417 462.166 288.891 461.999C288.541 462 288.543 462.338 288.893 462.506C289.77 463.01 290.822 463.682 291.699 464.355C291.528 465.538 291.182 466.722 291.012 468.075C290.662 467.907 290.311 467.739 289.961 467.571C288.909 466.899 287.681 466.059 286.629 465.555C286.279 465.557 286.279 465.557 286.631 465.893C287.508 466.566 288.21 467.24 289.087 467.912C289.614 468.417 290.315 468.922 290.842 469.427C289.977 472.302 288.762 475.01 287.197 477.719C286.67 477.214 286.318 476.708 285.967 476.203C285.265 475.529 284.563 475.025 283.686 474.521C282.283 473.512 281.056 472.671 279.305 472.34C279.13 472.34 279.305 472.509 279.306 472.678C281.234 473.516 282.463 474.863 283.868 476.379C284.746 477.221 285.45 478.401 286.502 479.242C286.329 479.581 285.98 480.089 285.807 480.427C285.455 479.922 284.929 479.586 284.578 479.249C283.876 478.744 283.175 478.24 282.648 477.735C282.648 477.735 282.298 477.736 282.473 477.736C283 478.41 283.527 478.915 284.229 479.588C284.581 480.094 285.107 480.599 285.633 480.935C283.719 483.814 281.454 486.525 279.189 489.237C278.834 487.717 277.603 485.863 276.725 485.021C275.847 484.01 274.795 483.507 273.742 482.666C272.515 481.826 271.286 480.816 269.884 480.145C269.709 480.146 269.535 480.146 269.711 480.484C271.465 481.829 273.571 483.68 274.976 485.365C276.381 486.881 276.565 489.246 277.97 490.762C277.273 491.609 276.401 492.457 275.703 493.135C275.173 491.616 274.12 490.606 273.066 489.258C271.66 487.573 269.903 485.552 267.8 484.545C269.204 485.723 270.259 487.24 271.139 488.589C272.369 490.274 273.425 491.96 273.957 493.986C273.957 493.986 273.957 494.155 274.308 494.323C274.134 494.492 273.785 494.832 273.61 495.001C273.258 494.327 272.732 493.821 272.38 493.316C271.15 491.799 270.096 490.62 268.517 489.274C268.517 489.274 268.167 489.275 268.342 489.444C269.396 490.623 270.45 491.802 270.98 493.321C271.333 494.164 271.862 495.176 272.389 496.019C270.471 497.885 268.728 499.749 266.985 501.445C266.104 499.758 263.997 497.738 263.47 496.895C261.537 494.536 258.727 491.505 255.574 490.502C255.224 490.503 255.225 490.672 255.575 490.84C258.554 492.181 260.841 495.722 262.599 498.081C263.478 499.261 264.71 501.284 265.764 502.463C265.24 502.972 264.892 503.311 264.369 503.82C264.016 503.145 263.489 502.471 262.962 501.966C261.909 500.956 261.206 499.945 259.978 499.104C259.978 499.104 259.628 499.105 259.804 499.274C261.209 500.958 262.441 502.813 263.497 504.668C261.23 506.872 258.789 509.246 256.522 511.451C256.342 510.1 255.639 508.919 255.111 508.076C253.176 505.042 251.066 502.177 247.91 500.329C247.91 500.329 247.735 500.33 247.911 500.498C251.771 503.526 254.062 508.418 255.128 513.145C254.605 513.654 254.082 513.994 253.559 514.502C253.206 513.828 252.854 513.153 252.502 512.479C251.798 511.467 251.619 510.285 250.74 509.105C250.038 508.263 249.16 507.421 248.457 506.579C250.391 509.276 251.277 512.483 252.512 515.52C251.641 516.368 250.594 517.216 249.547 518.065C249.017 516.546 247.612 515.199 246.56 514.358C247.088 515.37 247.617 516.382 247.795 517.395C247.797 518.071 247.8 518.747 248.152 519.421C246.408 520.948 244.664 522.644 242.92 524.171C243.257 520.452 241.488 514.883 240.081 512.86C236.914 507.802 231.129 504.443 225.177 503.45C225.002 503.45 225.177 503.619 225.177 503.619C230.256 505.122 234.292 508.318 237.804 512.192C239.385 514.045 239.923 517.591 240.281 520.125C240.461 521.476 240.995 524.008 240.826 525.699C240.128 526.377 239.256 527.056 238.558 527.734C238.558 527.734 238.384 527.904 238.21 528.073C238.204 526.553 238.198 524.694 237.844 523.513C236.957 519.967 234.847 517.102 232.388 514.407L232.213 514.408C234.678 518.793 236.447 524.193 236.814 529.261C235.244 530.618 233.498 531.638 231.753 532.827C232.767 522.685 226.96 513.075 215.931 511.255C226.79 514.427 229.447 523.88 230.531 533.507C229.658 534.186 228.961 534.864 228.263 535.543C228.951 532.161 228.237 528.108 227.178 525.409C226.117 522.033 223.479 518.325 220.324 516.646C219.974 516.647 219.974 516.647 220.325 516.984C223.658 519.338 224.72 523.052 225.783 526.596C226.315 528.622 226.496 530.48 226.503 532.507C226.508 534.028 227.213 535.377 227.219 537.067C226.696 537.576 226.173 538.085 225.475 538.594C225.986 534.875 224.745 530.148 223.687 527.786C220.864 521.037 216.13 518.182 209.645 514.825C206.841 513.483 202.807 510.456 198.777 508.949C208.391 506.381 228.664 500.058 230.936 499.374C235.48 498.007 241.952 497.477 246.143 495.097C248.412 493.737 250.149 490.183 251.892 488.318C254.332 485.606 256.948 483.063 259.739 480.687C264.622 476.277 272.488 474.222 278.074 470.485C282.787 467.427 286.794 462.513 289.751 457.772C292.71 453.369 293.394 448.635 294.427 443.9C294.43 444.914 294.434 445.928 294.612 446.941L292.867 448.13Z" fill="#F8F7E7"/>
<path d="M276.663 217.209C279.814 217.536 282.443 218.878 285.074 220.728C285.074 220.728 285.249 220.727 285.424 220.895C280.167 218.379 274.043 218.401 269.512 223.317C269.512 223.317 269.513 223.655 269.687 223.485C272.83 221.615 277.201 220.924 280.877 221.418C284.028 221.914 286.31 224.103 289.114 225.445C290.348 227.975 290.708 230.846 290.893 233.718C290.542 233.55 290.192 233.382 289.841 233.215C288.264 232.375 286.513 232.043 284.762 231.712C284.412 231.713 284.763 232.05 284.764 232.219C286.166 232.889 287.567 233.391 288.795 234.232C289.497 234.736 290.198 235.072 290.899 235.576C290.9 235.914 290.901 236.083 290.902 236.421C290.906 237.604 290.911 238.956 290.915 240.138C289.161 238.793 286.708 237.788 284.781 237.118C281.102 235.78 276.737 238.16 273.768 239.86C277.263 238.665 280.934 237.639 284.611 238.64C286.888 239.308 288.817 240.653 290.746 241.829C290.588 246.56 289.904 251.125 289.395 255.858C288.694 255.522 287.994 255.356 287.119 255.19C285.543 254.857 283.968 254.863 282.221 255.545C284.146 255.538 285.896 255.87 287.648 256.54C288.349 256.706 288.875 257.042 289.401 257.378C289.403 258.054 289.405 258.73 289.408 259.406C289.406 258.899 289.404 258.392 289.228 257.886C289.059 259.576 288.89 261.435 288.721 263.126C288.721 263.126 288.721 263.126 288.722 263.295C287.671 262.96 286.62 262.626 285.746 262.798C282.773 263.146 279.979 264.677 277.183 265.7C276.833 265.702 277.185 266.207 277.534 266.206C279.458 265.861 281.206 265.517 283.13 265.342C284.704 265.167 286.454 265.33 288.031 265.832C288.206 265.831 288.381 265.83 288.556 265.83C288.22 270.055 288.06 274.28 288.075 278.504C285.623 277.668 282.472 277.341 280.376 278.193C280.201 278.193 280.377 278.531 280.552 278.53C282.651 278.354 284.403 279.193 286.33 279.693C286.854 279.691 287.556 280.195 288.082 280.531C288.087 281.883 288.266 283.234 288.446 284.585C283.189 282.238 277.418 282.934 272.706 286.33C272.706 286.33 272.707 286.668 273.057 286.667C277.774 284.623 283.896 284.094 288.628 286.612C288.815 289.991 289.002 293.539 289.014 296.918C289.014 296.918 287.085 295.573 286.384 295.406C283.582 294.571 281.136 295.425 278.338 295.941C277.988 295.943 278.34 296.448 278.515 296.448C280.964 296.439 283.237 295.924 285.515 296.93C286.741 297.433 287.794 298.274 288.847 299.115C288.852 300.636 288.858 302.325 288.863 303.846C285.525 299.803 278.355 300.841 274.34 303.39C274.165 303.391 274.341 303.728 274.516 303.727C277.487 302.703 280.811 302.692 283.788 303.357C285.539 303.858 286.942 304.698 288.693 305.198C288.695 305.705 288.696 306.043 288.698 306.55C288.172 306.214 287.646 306.047 286.946 305.88C285.719 305.378 284.32 305.383 282.921 305.557L282.921 305.726C284.672 306.057 286.249 306.728 287.652 307.737C287.827 307.736 288.178 308.073 288.354 308.241C288.36 310.1 288.018 312.128 287.849 313.988C286.096 312.98 283.819 312.312 281.893 311.981C278.917 311.484 275.775 313.354 273.33 314.714L273.331 314.883C275.953 314.198 278.575 313.513 281.2 313.842C283.3 314.004 285.404 315.179 287.506 315.848C287.51 317.03 287.34 318.383 287.169 319.566C286.468 319.23 285.592 318.896 284.891 318.729C283.491 318.396 282.09 318.232 280.691 318.406C280.516 318.406 280.692 318.744 280.692 318.744C282.268 319.076 283.67 319.747 285.247 320.249C285.772 320.416 286.474 321.089 287 321.425C286.834 323.791 286.667 326.326 286.501 328.693C285.624 328.02 284.748 327.685 283.872 327.35C279.493 326.014 275.996 326.702 272.507 329.586C275.825 327.716 278.799 327.537 282.477 328.707C283.528 329.041 284.929 329.543 286.156 330.214C286.156 330.214 286.157 330.383 286.157 330.552C286.159 331.059 286.161 331.566 286.162 331.904C285.812 331.736 285.461 331.569 285.111 331.401C283.534 330.73 282.13 329.722 280.381 329.897L280.383 330.235C282.307 330.228 283.712 331.575 285.115 332.584C285.465 332.751 285.817 333.257 286.168 333.594C286.173 334.945 286.352 336.297 286.707 337.647C283.723 334.954 280.043 333.108 275.67 333.292C271.82 333.306 269.028 335.343 268.163 338.05C266.923 333.83 268.13 328.588 267.766 324.534C267.571 318.79 268.776 313.21 268.407 307.635C267.837 294.964 270.944 282.788 270.2 270.118C270.198 269.442 270.196 268.935 270.193 268.259C270.714 266.906 271.584 265.72 272.456 264.872C272.631 264.872 272.805 264.533 272.98 264.532C272.98 264.532 273.154 264.363 273.329 264.193C274.375 263.345 275.598 262.665 277.17 262.152C278.219 261.811 276.815 260.464 276.289 260.297C274.363 259.965 269.991 260.319 269.986 258.967C269.972 255.081 269.433 250.858 268.545 247.144C268.367 246.131 268.188 245.118 267.834 243.936C267.654 242.585 267.475 241.234 267.119 239.715C266.764 238.026 266.408 236.338 266.052 234.649C266.05 234.143 266.049 233.805 265.873 233.467C265.872 233.129 265.518 232.117 265.339 230.935C264.984 229.415 264.628 227.727 264.447 226.038C264.094 225.194 263.917 224.35 263.564 223.506C263.562 222.999 263.56 222.493 263.383 221.986C263.382 221.648 263.381 221.31 263.555 220.972C263.555 220.972 263.554 220.803 263.554 220.634C263.902 220.126 265.65 219.782 266.349 219.441C267.571 218.761 268.97 218.587 270.367 217.907C270.891 217.567 271.24 217.397 271.765 217.226C273.164 217.052 274.563 216.878 275.962 216.873L276.663 217.209Z" fill="#F8F7E7"/>
<path d="M260.704 5.88687C264.908 7.39288 268.59 9.57656 272.098 12.0988C272.099 12.4367 271.574 12.4386 271.4 12.7771C271.051 13.1162 270.703 13.4554 270.354 13.7946C270.354 13.7946 270.355 14.1325 270.705 14.1313C271.054 13.9611 271.578 13.6213 271.927 13.4511C272.277 13.4499 272.627 13.4487 272.976 13.1095C272.976 13.1095 272.975 12.9406 273.15 12.771C274.202 13.6121 275.256 14.6223 276.308 15.4634C275.783 15.4653 275.435 15.8044 275.085 15.9746C274.038 16.6541 273.167 17.671 272.471 18.6872C272.471 18.6872 272.472 19.0251 272.646 18.8556C273.518 18.1766 274.566 17.4971 275.789 16.9859C276.314 16.9841 277.188 16.981 277.888 16.9786C278.766 17.9893 279.644 18.8311 280.523 19.8418C279.998 19.8437 279.649 20.1828 279.3 20.353C278.251 20.6946 277.379 21.3735 276.682 22.2208L276.682 22.3898C277.555 21.7109 278.604 21.5382 279.653 21.3656C280.178 21.3637 281.053 21.3607 281.578 21.3588C281.929 21.6955 282.28 22.0323 282.456 22.3696C283.158 23.043 283.685 23.717 284.213 24.391C283.338 24.3941 282.288 24.3978 281.59 24.9071C280.019 25.9264 279.149 27.2812 278.105 28.9745C278.105 28.9745 278.106 29.1435 278.28 28.9739C279.85 27.7856 281.247 26.9359 283.171 26.5913C283.87 26.5888 284.92 26.5852 285.62 26.5827C286.323 27.594 287.026 28.4364 287.729 29.4478C288.081 29.7845 288.257 30.1218 288.608 30.6275C287.732 30.2926 286.683 30.2963 285.983 30.4677C284.76 30.8099 283.189 31.8292 282.317 32.677C282.317 32.677 282.318 33.015 282.493 32.8454C283.715 32.1653 285.638 31.6516 286.862 31.6474C287.912 31.6437 288.789 32.3165 289.838 32.1439C290.014 32.4812 290.366 32.8179 290.717 33.3236C291.244 33.9976 291.596 34.5032 291.948 35.1779C290.022 34.5087 288.096 34.1776 285.823 34.6924C282.851 35.3787 281.636 38.0864 280.42 40.4562C282.163 38.7604 283.734 37.5721 286.181 36.8877C288.278 36.2045 290.378 36.3662 292.478 36.5278C293.006 37.5397 293.535 38.5517 293.888 39.5642C291.088 39.2361 287.939 39.4161 285.671 41.2826C284.451 42.4697 278.171 47.8986 278.528 49.7559C276.934 44.1856 276.913 38.4408 276.194 32.6984C275.653 28.3072 273.367 24.7669 270.904 21.0582C267.563 16.1699 264.57 10.9423 260.706 6.56269C260.354 6.05701 259.828 5.72092 259.302 5.38483C259.477 5.38422 259.827 5.38303 260.003 5.55138L260.704 5.88687Z" fill="#F8F7E7"/>
<path d="M136.482 5.47627C138.757 5.63728 141.032 5.7983 143.307 5.79035C154.155 5.9214 165.001 5.71452 175.849 5.67661C183.372 5.65031 191.07 5.62341 198.593 5.59711C200.007 9.64738 201.595 13.5281 203.009 17.5783C203.891 19.7718 203.724 21.969 205.479 23.6525C206.006 24.1576 207.407 24.6596 207.754 23.6446C209.312 18.9081 209.119 13.8397 209.627 8.9379C209.62 7.07928 210.317 6.23201 212.941 6.22284C219.94 6.19838 226.935 5.3291 233.932 4.96671C237.955 4.78368 241.978 4.43167 246.002 4.24864L246.876 4.24558C246.876 4.24558 247.401 4.24375 247.576 4.24314C247.577 4.4121 247.928 4.74882 248.103 4.91718C248.279 5.08553 248.63 5.42225 248.806 5.59061C248.279 5.25451 249.158 6.26526 249.158 6.26526C250.038 7.78288 250.744 9.47007 251.099 11.1585C251.101 11.6654 251.803 12.3388 252.503 12.1674C253.202 12.1649 253.55 11.4879 253.373 10.8126C253.373 10.8126 253.372 10.4747 253.371 10.3057C253.72 9.96655 253.893 9.45902 254.067 9.28944C254.938 8.10363 256.858 6.91416 256.678 5.39409C260.181 6.39564 261.593 10.108 263.352 12.8053C266.87 18.031 270.562 23.2561 273.556 28.8215C274.964 31.3511 274.631 36.0833 274.992 39.2925C275.352 42.1636 276.412 45.2013 277.122 48.0713C277.476 49.2528 278.009 51.4475 279.41 51.9495C279.41 51.9495 279.76 51.9483 279.935 51.9477C281.676 49.5761 282.542 47.0385 284.985 45.0024C287.951 42.6265 290.922 41.9402 294.597 42.0964C294.599 42.6033 294.601 43.1101 294.427 43.6176C294.429 44.1245 294.432 44.8004 294.258 45.3079C293.741 47.3373 293.222 49.1978 292.705 51.3962C291.844 55.4544 293.258 59.3357 294.496 63.2176C296.618 69.7999 297.342 76.556 298.066 83.4811C298.429 87.3661 298.793 91.2511 298.807 95.3062C298.814 97.3338 299.701 100.71 298.483 102.573C297.961 103.42 296.736 103.424 295.512 103.597C294.638 103.938 293.414 104.111 292.015 104.285C289.568 104.97 287.12 105.485 284.498 106.001C284.499 106.339 284.675 106.676 285.026 106.844C287.658 109.032 290.986 110.203 294.139 111.374C295.366 111.877 296.244 112.719 296.773 113.9C296.119 127.25 295.642 140.769 296.214 154.285C296.964 168.813 293.335 181.498 293.035 195.862C293.04 197.382 293.044 198.565 292.698 199.58C290.614 203.981 288.166 204.496 285.368 204.844C283.268 204.682 281.169 204.858 279.247 205.372C277.673 205.715 276.453 206.903 274.702 206.571C273.827 206.574 273.126 206.238 272.251 206.241C270.852 206.415 271.733 208.102 272.434 208.437C274.012 209.446 275.938 209.946 277.517 210.954C278.394 211.627 279.27 212.131 280.322 212.634C279.272 212.638 278.223 212.81 277.349 212.982C276.125 213.155 275.075 213.159 273.851 213.501C273.676 213.502 273.327 213.503 273.152 213.673C271.752 213.678 270.179 214.021 268.781 214.364C267.908 214.874 266.859 215.215 265.986 215.725C265.636 215.727 265.112 215.897 264.763 216.237C263.366 216.917 261.617 217.092 260.22 217.942C259.87 217.943 259.872 218.45 259.873 218.788C260.405 220.645 261.285 222.332 262.167 224.187C262.167 224.187 262.168 224.525 262.168 224.694C262.882 228.578 263.421 232.631 264.134 236.515C264.137 237.191 264.139 237.866 264.316 238.373C264.675 241.075 265.384 243.607 265.918 246.309C266.099 247.998 266.455 249.686 266.636 251.375C266.996 254.415 267.357 257.624 267.543 260.665C268.945 261.336 270.521 261.837 272.271 262C272.796 261.998 272.972 262.336 272.973 262.674C271.053 263.694 269.483 265.051 267.562 266.241C266.34 266.921 267.222 268.946 267.928 270.633C267.937 273.336 267.947 276.209 267.957 279.081C267.303 292.263 266.3 305.615 265.297 318.798C264.794 325.051 264.116 331.474 265.363 337.722C265.365 338.398 265.717 339.072 265.895 339.747C266.422 340.59 267.125 341.433 267.827 342.106C269.057 343.454 270.636 344.8 272.389 345.639C274.842 346.644 276.764 346.13 278.862 345.616C278.861 345.278 278.86 345.109 278.509 344.772C276.752 342.582 276.389 338.866 276.379 335.993C277.954 335.988 279.705 336.658 281.81 338.002C285.14 339.68 285.68 344.071 286.565 347.11C287.632 352.006 287.3 357.076 287.142 361.977C286.988 367.891 286.658 373.637 286.679 379.551C286.686 381.747 286.692 383.437 287.05 385.632C287.05 385.632 287.05 385.632 287.051 385.801C286.701 385.972 286.178 386.311 285.829 386.651C282.338 389.028 277.612 388.369 273.763 388.382C271.838 388.389 273.071 390.581 274.296 390.746C278.847 391.406 282.356 394.097 286.212 396.111C287.439 396.783 288.315 397.118 288.84 397.285C289.552 400.662 289.739 404.209 290.101 407.587C290.106 409.108 290.462 410.797 290.642 412.317C290.666 419.075 290.864 425.664 291.237 432.422C290.749 442.899 287.814 454.061 281.194 462.195C273.18 472.023 260.591 474.264 251.873 482.742C250.652 483.929 249.259 485.793 247.691 487.657C247.344 488.334 246.821 489.012 246.474 489.858C243.345 495.614 236.174 496.315 230.232 498.194C218.347 501.615 204.18 503.016 193.004 508.969C192.655 509.139 192.306 509.478 192.132 509.648C192.132 509.648 191.957 509.649 191.782 509.649C191.432 509.819 191.083 509.99 190.909 510.328C191.274 514.551 192.339 518.94 193.752 522.822C195.167 527.21 199.027 530.238 201.664 533.777C202.015 534.283 203.067 534.786 203.414 533.94C204.108 532.248 203.561 525.998 205.309 525.654C208.107 525.137 210.726 523.607 212.468 521.574C214.574 523.256 216.155 525.278 217.215 527.978C219.156 532.871 220.404 539.625 216.916 542.679C216.566 542.68 216.216 542.681 215.693 543.021C212.194 543.202 208.871 543.552 205.372 543.564C199.074 543.586 192.945 542.256 186.47 541.603C184.02 541.442 181.212 538.917 178.77 541.292C178.77 541.292 178.77 541.292 178.595 541.292C177.712 538.761 177.003 536.06 176.12 533.697C174.707 530.154 174.331 522.552 170.998 520.029C170.296 519.524 169.071 519.191 168.9 520.374C168.387 523.755 168.103 542.85 166.353 542.687C164.428 542.524 162.677 542.193 160.753 542.199C156.556 542.721 152.359 543.242 147.984 543.089C142.56 542.939 137.839 543.8 133.125 546.52C132.776 546.859 132.25 546.523 132.074 546.186C130.659 541.967 131.169 537.572 129.755 533.352C128.694 530.315 127.634 527.277 126.224 524.41C126.224 524.41 126.224 524.41 126.225 524.747C124.839 528.47 124.497 530.836 124.512 535.229C124.541 543.34 122.262 541.996 118.066 543.024C113.347 544.224 108.097 543.904 103.373 544.09C98.8252 544.274 94.0961 542.77 89.5484 543.124C87.449 543.131 68.3871 545.564 68.3912 546.746C68.0148 539.144 65.7137 531.549 64.4643 524.456C63.5718 519.391 63.3791 514.322 62.3122 509.426C62.3099 508.75 61.4333 508.246 61.2619 509.261C60.247 519.233 58.5335 529.546 58.2184 539.516C58.2202 540.023 55.246 540.034 52.2717 540.044C48.7703 539.38 45.0944 538.886 41.4192 538.561C37.5607 535.871 35.2739 532.331 37.7014 526.071C38.7423 523.533 40.6585 521.16 42.2249 518.789C43.9644 515.911 45.5378 515.567 48.5079 514.374C48.8578 514.373 48.6811 513.867 48.5055 513.698C47.2731 511.506 44.8208 510.67 42.5423 509.495C37.6346 506.978 33.5906 501.247 29.3798 497.882C26.2218 495.359 23.0632 492.666 19.7307 490.313C16.3983 487.959 14.2882 484.925 11.6539 482.061C11.8188 479.188 12.158 476.146 11.9724 473.105C11.5924 464.489 8.5928 457.234 8.38654 448.279C8.37709 445.576 9.30692 411.272 8.9576 411.443C12.6281 410.416 17.5239 409.554 21.5391 407.006C24.508 405.474 28.1844 406.137 30.9772 404.269C31.5009 403.929 30.7987 403.256 30.4482 403.088C24.8419 400.911 21.678 396.698 16.768 393.505C16.4146 392.492 16.7603 391.308 17.6298 389.785C18.1523 389.107 18.4998 388.43 19.0229 387.921C20.5916 386.226 22.5114 384.867 22.8602 384.528C24.2574 383.848 25.6553 383.336 27.0544 383.162C27.0567 383.838 27.5845 384.681 27.7612 385.187C28.1153 386.369 27.7713 388.059 28.9983 388.731C30.7514 389.739 32.6724 388.718 34.4208 388.374C35.9936 387.862 38.9655 387.175 40.0105 385.82L40.0099 385.651C40.0093 385.482 40.0081 385.144 40.0075 384.975C40.0034 383.792 39.9993 382.61 39.9951 381.427C40.3315 377.54 40.6684 373.821 40.6548 369.935C40.6536 369.597 40.653 369.428 40.6518 369.09C40.2919 366.219 39.7576 363.517 39.3982 360.815C39.0418 358.958 37.985 356.934 37.4536 355.077C37.0996 353.896 37.4442 352.374 36.9152 351.193C35.1645 350.861 33.7613 349.852 32.0099 349.351C31.1346 349.185 31.3054 348.002 32.0052 347.999C33.5798 347.994 35.3258 346.974 36.7225 346.124C38.2871 343.246 35.9985 339.199 34.762 335.824C32.4669 329.918 31.0471 324.178 30.1505 317.93C29.2509 310.836 26.6036 304.256 34.2863 299.836C33.408 298.825 32.5296 297.814 31.4769 296.973C28.3206 294.957 24.12 294.465 20.9767 296.165C20.2739 295.323 19.5711 294.48 18.8683 293.638C18.8683 293.638 18.6922 293.301 18.5172 293.301C18.5172 293.301 17.99 292.627 17.6389 292.291C17.1117 291.617 16.4089 290.774 15.8817 290.1C15.8817 290.1 15.8811 289.931 15.7055 289.763C17.0857 284.182 18.233 262.043 18.5747 259.677C19.427 253.253 19.5795 246.832 19.7308 240.073C22.8741 238.372 26.0169 236.502 29.3381 235.646C29.8629 235.644 30.0367 235.305 30.2105 234.967C26.3479 231.094 19.1782 232.133 14.2759 231.136C10.249 230.306 9.7141 227.435 10.051 223.717C10.7184 214.421 19.647 216.079 27.1766 217.912C27.1583 212.674 27.14 207.436 27.997 202.364C28.5119 199.49 30.4251 196.273 30.2401 193.401C30.2401 193.401 30.2395 193.232 30.239 193.063C28.3121 192.394 26.5596 191.555 24.6333 191.055C23.9335 191.057 23.9293 189.875 24.6286 189.703C26.0264 189.191 27.4243 188.68 28.8216 187.999C28.6378 185.465 28.454 182.931 27.7447 180.23C27.0354 177.529 26.3267 174.997 25.6181 172.465C24.0234 166.726 22.6042 161.155 21.3595 155.414C20.2908 150.011 19.7471 144.606 19.3783 139.2C19.3759 138.525 19.3736 137.849 19.1962 137.174C18.6714 137.175 17.9716 137.178 17.4467 137.18C17.4467 137.18 17.2717 137.18 17.0968 137.181C16.222 137.184 15.3472 137.187 14.2975 137.191C13.5977 137.193 13.5941 136.179 14.1178 135.84C15.6889 134.82 17.2605 133.97 18.8316 132.951C18.8286 132.106 18.8262 131.43 18.8239 130.754C18.6407 128.389 17.932 125.857 17.7487 123.492C17.3852 119.607 17.1967 115.722 17.5331 111.834C17.7003 109.637 18.3948 108.114 20.1397 106.756C20.6634 106.416 21.0115 105.908 21.3596 105.4C20.3081 104.897 19.2572 104.563 18.2063 104.228C17.1566 104.232 15.9319 104.236 14.8815 104.071C14.3531 103.059 14.1729 101.539 14.3419 99.8488C14.3325 97.1454 15.0228 94.4395 15.3633 91.7348C15.8764 88.3537 16.2139 84.8042 18.1283 81.9251C18.8246 80.9089 19.697 80.23 20.5694 79.551C20.5694 79.551 20.5694 79.551 20.7444 79.5504C20.9193 79.5498 21.2681 79.2107 21.443 79.21C22.8403 78.5293 24.4132 78.0169 26.1604 77.3349C29.3054 76.1411 32.9807 76.4662 36.3084 77.4684C36.8332 77.4666 37.0111 78.3108 36.6624 78.6499C34.395 80.6855 32.3027 82.7204 29.6831 84.0813C32.1448 87.621 35.6546 90.6501 39.6845 92.3257C42.8384 93.6664 47.9156 94.6625 50.3544 91.6125C50.8769 90.9348 51.4 90.4261 51.9231 89.9174C52.6176 88.3942 53.4876 87.0395 54.3577 85.6847C55.5765 83.9908 56.9702 82.2962 58.3646 80.7707C62.5422 74.6733 66.7205 68.7448 70.8981 62.6474C78.2097 52.1459 86.0478 42.1494 93.3593 31.6479C93.5337 31.4783 93.7075 31.1398 93.8818 30.9702C94.5781 29.954 95.2738 28.7688 95.9701 27.7526C98.5808 23.8572 101.192 20.1308 103.979 16.5728C106.243 13.6924 108.332 10.6437 111.475 8.77409C111.475 8.77409 111.475 8.77409 111.65 8.77348C111.65 8.77348 111.999 8.43432 112.174 8.4337C112.522 8.09455 113.048 8.43063 113.225 8.93691C115.526 16.3634 115.553 24.3048 117.154 31.9027C117.67 29.3664 117.836 26.6623 118.177 24.1266C118.859 18.8863 118.488 12.9737 120.57 8.06641C120.743 7.55891 121.443 7.38749 121.794 7.7242C122.145 8.0609 124.253 10.4191 125.834 12.2722C126.531 11.5939 127.227 10.5776 127.751 10.0689C128.797 9.05144 129.843 8.20296 131.241 7.69117C132.464 7.18 133.865 7.34407 135.09 7.67772L136.482 5.47627Z" fill="#F8F7E7"/>
<path d="M125.627 3.31774C123.181 4.17112 121.952 2.9926 120.896 1.30662C119.681 3.84538 118.464 6.21518 117.949 8.92045C117.952 9.76528 116.552 9.77017 116.549 8.92534C116.367 6.89838 116.185 4.8714 115.828 2.84504C113.033 4.03758 110.063 5.23078 107.268 6.42332C107.268 6.42332 107.269 6.76123 107.094 6.93081C106.919 6.93142 106.57 7.10161 106.396 7.27119C104.997 7.61401 103.599 7.95686 102.2 8.29968C100.453 8.98165 98.706 9.66361 96.9588 10.3456C92.9407 12.0493 89.0988 14.0903 85.4312 15.9618C81.0644 18.0046 76.8737 20.3848 72.6831 22.765C67.4462 26.1626 62.5593 29.559 57.1469 32.7883C52.6098 36.1835 48.6 40.2527 44.2391 43.9853C43.5411 44.4946 42.8436 45.1729 42.3205 45.6816C41.6231 46.36 40.925 46.8693 40.4025 47.547C35.8691 51.9559 31.6861 56.5327 27.8542 61.4461C23.4998 67.0372 20.7206 72.7918 17.5932 79.0545C16.5511 81.2548 15.6846 83.6233 14.9925 85.8223C14.1284 88.8667 13.4398 92.0795 12.9261 95.2917C12.9309 96.6434 12.9362 98.1641 12.9403 99.3469C12.9427 100.023 13.1194 100.529 13.2967 101.204C13.2973 101.373 13.299 101.88 13.299 101.88C13.299 101.88 5.95094 101.906 4.20552 103.095C2.45951 104.115 2.64096 105.973 1.24663 107.498C0.725902 108.683 0.380105 109.867 0.38424 111.049C0.404319 116.794 1.99783 122.196 2.54278 127.939C3.07709 130.64 3.61141 133.342 3.97018 135.875C5.39994 144.487 6.13049 153.271 7.56025 161.883C8.81329 169.989 11.476 180.963 9.58041 189.249C8.03062 196.351 7.00805 204.127 6.68354 211.394C6.51862 214.267 6.35196 216.633 6.36023 218.998C6.36318 219.843 6.54107 220.687 6.89452 221.7C7.60615 225.077 8.66949 228.959 12.1739 230.468C13.2248 230.802 14.2757 231.136 15.3272 231.64C18.3021 231.798 24.9575 233.802 24.4332 233.973C21.2869 234.829 16.0465 237.213 13.0829 240.265C14.4914 242.794 16.0755 245.492 16.0849 248.196C16.105 253.941 15.4253 259.688 15.271 265.602C15.2905 271.178 13.7342 276.421 13.4038 281.998C13.4091 283.519 13.4156 285.378 12.7205 286.732C13.4226 287.405 13.9493 287.91 14.4771 288.753C16.2349 291.113 17.8178 293.473 19.5751 295.663C19.7512 296.001 19.578 296.508 19.4036 296.678C19.0543 296.848 18.705 297.018 18.3557 297.188C15.2177 300.41 11.731 303.97 10.696 308.198C9.66047 312.257 10.8999 316.476 12.3131 320.358C13.7258 324.07 15.139 327.951 16.2017 331.665C18.3225 337.74 20.2682 343.816 21.1655 350.234C22.2471 359.354 21.7541 368.48 19.336 377.444C18.4713 380.319 17.7839 383.87 16.7459 387.253C15.7015 388.778 14.1316 390.135 13.2622 391.658C13.2634 391.996 13.2651 392.503 13.79 392.501C15.5431 393.509 16.7743 395.363 18.1793 396.879C19.4087 398.227 20.8113 399.067 22.215 400.245C23.7938 401.422 25.1976 402.6 26.9489 403.1C26.9489 403.1 26.9489 403.1 26.7739 403.101C24.3245 403.11 21.702 403.626 19.2544 404.141C15.9349 405.504 12.6155 406.868 9.29609 408.231C8.42308 408.741 7.72445 409.081 6.85145 409.591C5.82652 416.692 7.08369 425.98 6.93295 432.909C6.6108 440.851 6.63501 447.779 7.00914 454.705C7.36613 456.731 7.54757 458.589 7.90398 460.447C8.43948 463.486 9.14993 466.525 9.33551 469.566C9.52051 472.438 9.0057 475.312 8.49087 478.186C7.11839 485.963 9.4182 493.221 12.7666 500.137C15.7621 506.209 18.757 512.113 21.7525 518.185C24.9241 524.595 28.4445 530.665 32.4885 536.396C35.6531 540.778 38.635 542.964 44.408 542.775C48.257 542.762 52.2792 542.241 56.3049 542.733C57.7052 542.897 59.8052 543.059 60.8591 544.238C60.8591 544.238 61.0341 544.238 61.2084 544.068C61.7321 543.728 61.7291 542.883 61.7268 542.208C61.1694 532.916 62.1855 523.282 62.5029 513.987C62.1802 521.761 63.9557 529.189 65.0314 536.62C66.1036 543.037 64.7453 554.87 71.2057 551.13C83.6027 543.99 97.9668 549.009 110.907 547.105C114.754 546.584 122.633 548.246 126.123 545.7C126.647 545.36 127.167 544.006 127.165 543.331C127.148 538.431 126.782 533.87 127.641 529.305C129.065 536.396 129.445 545.012 133.309 549.223C138.376 547.178 143.443 545.301 149.216 545.112C156.039 545.088 162.691 546.248 169.512 545.379C169.508 544.365 169.505 543.521 169.502 542.507C169.844 540.309 170.186 538.111 170.528 535.744C171.038 531.519 171.531 522.393 171.883 522.898C173.113 524.415 173.12 526.611 173.302 528.469C173.663 531.678 174.724 534.885 175.785 538.092C176.493 540.455 177.551 542.817 178.434 545.179C184.373 542.624 192.25 543.61 198.201 544.434C205.553 545.422 213.079 546.241 220.599 545.37C227.753 539.769 235.082 534.336 241.709 528.23C249.732 521.105 257.58 513.812 265.077 506.352C272.4 499.229 279.548 491.939 285.819 483.976C287.735 481.603 289.476 479.063 291.216 476.353C293.474 471.783 294.509 467.386 295.018 462.823C296.225 457.918 296.732 452.679 296.715 447.948C296.689 440.513 295.089 433.084 294.538 425.651C294.536 425.145 294.535 424.807 294.533 424.3C294.51 417.541 295.349 407.569 292.525 400.313C292.521 399.3 292.518 398.286 292.69 397.44C292.688 396.934 292.686 396.427 292.161 396.26C290.406 394.914 288.128 393.908 286.026 393.071C285.676 392.903 285.325 392.735 284.974 392.567C284.098 392.064 283.222 391.729 282.52 391.224C282.519 390.886 282.693 390.548 283.043 390.547C287.413 389.517 290.905 387.478 294.396 385.1C291.415 383.083 292.451 379.193 292.614 375.813C292.767 369.392 293.269 362.969 292.722 356.719C292.176 350.469 290.404 344.224 290.557 337.972C290.548 335.268 290.713 332.564 290.879 329.86C290.868 326.65 291.031 323.27 291.369 319.889C291.673 306.709 291.277 293.531 291.231 280.52L291.229 280.014C291.568 276.802 292.082 273.59 292.246 270.379C292.738 261.084 293.23 251.789 293.898 242.494C294.398 235.395 294.901 229.311 290.508 223.75C289.802 221.894 288.571 220.209 287.341 218.692C286.638 217.681 285.758 216.163 285.578 214.981C286.103 214.979 286.803 214.808 287.326 214.468C288.375 214.126 287.32 212.609 286.619 212.443C284.518 211.774 282.765 210.936 281.185 209.252C281.184 209.083 281.183 208.745 281.532 208.574C281.707 208.574 282.057 208.573 282.232 208.572C286.953 207.88 291.675 207.356 296.396 206.495C297.265 204.802 297.431 202.267 296.717 198.214C296.714 197.37 296.712 196.694 296.711 196.525C296.688 189.935 298.587 182.494 300.14 176.406C302.21 167.95 301.479 158.997 300.748 150.045C299.829 137.544 300.31 125.039 300.617 112.535C296.937 111.027 293.605 108.842 290.1 107.164C289.575 106.997 289.572 106.152 290.096 105.982C292.192 104.96 294.642 104.952 296.915 104.775C298.315 104.77 299.888 104.427 301.463 104.252C302.155 102.053 301.268 98.677 301.435 96.3109C302.112 89.8877 300.513 82.9657 300.491 76.545C300.464 68.9416 296.767 62.3648 296.566 54.931C296.557 52.3965 296.899 50.0298 297.415 47.4935C297.415 47.4935 297.414 47.1555 297.588 46.986C297.587 46.648 297.761 46.3095 297.935 45.971C298.456 44.9553 299.152 43.9391 300.025 43.2602C300.374 43.09 300.022 42.5843 300.021 42.2464C297.036 39.0464 295.445 34.4899 292.983 30.9502C292.807 30.6129 292.456 30.2762 292.28 29.9389C291.928 29.4332 291.752 29.0959 291.4 28.5902C289.115 25.3878 286.655 22.524 284.198 20.167C279.983 15.7886 275.247 12.088 270.161 8.55742C267.355 6.7086 264.373 4.6914 261.046 3.68923C259.469 3.18784 257.717 2.3491 255.967 2.35521C255.267 2.35766 254.743 2.35949 254.218 2.36133C253.52 3.03963 252.999 4.05525 252.828 5.06966C252.297 3.55081 251.593 2.20158 250.54 1.36042C244.245 2.22726 237.949 3.09408 231.652 3.45403C226.929 3.80847 222.206 3.99395 217.482 3.8415C214.508 3.85189 211.357 3.35604 208.209 3.70497C207.865 5.56481 207.522 7.59358 207.354 9.62177C207.015 12.4954 205.975 15.3714 206.16 18.2432C206.163 19.0881 204.938 19.0923 204.76 18.2481C203.699 14.8725 203.161 11.3261 202.1 7.9505C201.569 6.26268 200.688 4.57608 199.983 3.05784C194.037 3.58553 187.559 2.42537 181.783 1.76969C177.932 1.27625 173.733 1.12196 169.707 0.629135C157.11 0.673164 144.514 0.886188 131.741 0.592899C129.644 1.2761 127.723 2.29657 125.452 3.14935L125.627 3.31774Z" fill="#202020"/>
<path d="M27.3677 72.4306C25.27 72.9448 23.5198 72.782 21.7732 73.6329C21.7732 73.6329 21.7726 73.4639 21.772 73.295C22.6427 72.1091 23.5133 70.9234 24.384 69.7375C28.0504 67.5282 32.4224 67.006 36.6214 66.9913C42.22 66.9717 45.0334 71.0171 48.0219 75.0619C45.5571 70.6773 43.2673 66.2922 38.0145 65.1278C35.3878 64.4611 30.6635 64.3086 27.1691 65.6726C28.7372 63.8085 30.1303 61.945 31.8734 60.0802C33.2713 59.5684 34.6691 59.0567 36.0676 58.7138C40.0886 57.8549 43.0688 59.5342 46.225 61.5508C46.7511 61.8869 46.9237 61.2104 46.3976 60.8743C43.7668 59.0249 41.136 57.1754 37.8124 57.356C36.4128 57.3609 34.8388 57.5354 33.4409 58.0472C34.1384 57.3689 34.8352 56.5216 35.5327 55.8433C38.6801 55.3254 42.1786 55.1442 45.3284 55.3021C49.5279 55.4564 53.0477 61.358 55.1578 64.392C53.2209 60.8504 50.7544 55.9591 46.7245 54.2835C44.2716 53.2782 40.7713 52.9525 37.4495 53.64C39.7157 51.2665 42.3317 48.8919 44.7734 46.6868C46.1731 46.6819 47.5721 46.508 48.7962 46.3348C52.4697 46.153 55.451 48.1701 58.258 50.3569C58.258 50.3569 58.6079 50.3557 58.4329 50.3563C56.5013 48.3354 54.5709 46.6525 51.9425 45.4789C50.891 44.9757 48.9653 44.6445 47.0413 44.8202C47.7394 44.3109 48.2619 43.6332 48.96 43.1238C51.4099 43.2842 53.8599 43.4446 56.3105 43.774C59.2859 44.1015 61.2163 45.7845 62.9729 47.8059C63.4996 48.311 64.9033 49.4888 65.0813 50.333C65.0818 50.502 65.6079 50.8381 65.6061 50.3312C65.6026 49.3174 65.0765 48.9813 64.3737 48.139C63.1437 46.6226 62.2631 44.936 60.5088 43.5904C58.0535 41.9093 54.3759 40.9083 50.878 41.2585C52.7966 39.5621 54.8907 38.0341 56.9843 36.3371C57.5074 35.8284 58.206 35.488 58.7291 34.9793C60.481 35.649 62.7549 35.4721 64.5062 35.9729C67.4834 36.8073 72.0387 38.65 73.449 41.6865C72.7397 38.9855 69.4067 36.4627 67.1281 35.2878C65.5506 34.4485 63.2732 33.6116 60.9976 33.2817C62.9174 31.9232 65.0122 30.5642 66.9325 29.3747C68.8588 29.8749 70.609 30.0377 72.3632 31.3833C73.5909 32.2239 74.6459 33.7409 75.5248 34.9206C76.5799 36.4376 77.9831 37.4465 78.3395 39.3039C78.3336 37.6142 77.6296 36.4339 76.7501 35.0852C75.87 33.5676 75.1649 32.0494 73.7605 30.7026C72.5317 29.5241 70.778 28.3474 69.0267 27.8467C71.4707 26.3174 74.0903 24.9565 76.5344 23.4273C77.4092 23.4242 78.4613 24.0964 79.1623 24.4319C80.3887 24.9345 82.1419 25.9422 82.6714 27.2921C82.6714 27.2921 83.0225 27.6288 83.0213 27.2909C83.016 25.7702 81.4367 24.424 80.3846 23.7518C79.8586 23.4157 79.157 22.9112 78.2804 22.4074C80.9 21.0465 83.519 19.5166 86.1386 18.1557C86.8402 18.6602 87.7156 18.8261 88.5922 19.3299C89.1182 19.666 89.4717 20.6786 89.8234 21.1843C90.3512 22.0273 91.2283 22.7001 91.4068 23.7132C91.408 24.0512 92.1084 24.2177 92.1066 23.7108C92.1043 23.0349 92.1019 22.3591 91.5747 21.6851C91.2218 20.8415 90.8689 19.9978 90.5161 19.1542C89.9877 18.1423 89.1111 17.6385 88.0596 17.1352C89.4569 16.4545 90.6798 15.9433 92.0783 15.6005C92.2532 15.5999 92.4294 15.9372 92.7799 16.1049C93.131 16.4417 94.1825 16.9449 94.1842 17.4518C94.1854 17.7897 94.7115 18.1258 94.8852 17.7872C95.2328 17.1101 94.8811 16.6045 94.3545 16.0994C94.3533 15.7615 93.8272 15.4254 93.4767 15.2577C94.3503 14.9167 95.3995 14.7441 96.2737 14.572C98.1952 13.7205 100.117 12.8689 102.038 12.0174C101.169 13.7101 100.301 15.4028 99.6067 17.0949C98.2135 18.9584 96.8198 20.6529 95.4261 22.3475C88.2824 30.8208 81.6648 39.6302 75.0472 48.4396C69.1265 56.4017 63.9062 64.5304 58.3354 72.4913C57.9866 72.8305 57.6391 73.5075 57.2915 74.1846C56.5882 73.1733 55.7098 72.1625 54.8321 71.3208C53.4277 69.9739 52.0222 68.2892 50.0941 67.2821C51.4973 68.291 52.553 69.977 53.6074 71.325C54.4869 72.6737 55.5414 74.0217 56.4215 75.5394C55.552 77.0631 54.3332 78.7571 53.115 80.62C53.115 80.62 53.115 80.62 53.1144 80.451C52.5878 79.9459 51.8856 79.2725 51.7089 78.7662C51.7089 78.7662 51.3584 78.5985 51.359 78.7674C51.3613 79.4433 51.8874 79.7794 52.0647 80.4547C52.0659 80.7926 52.4176 81.2983 52.5937 81.6356C52.2456 82.1437 52.0718 82.4822 51.7237 82.9903C50.5049 84.6843 49.461 86.3776 48.4172 88.0709C48.2434 88.4095 47.8935 88.4107 47.5436 88.4119C47.5383 86.8912 46.6565 84.8667 46.3036 84.0231C45.417 80.6468 43.8318 77.611 41.5479 74.9155C39.264 72.22 35.7608 71.0495 32.436 70.8922C30.3366 70.8995 28.24 71.7517 26.3173 72.2653L27.3677 72.4306Z" fill="#F8F7E7"/>
<path d="M9.84336 214.424C10.8901 213.575 12.1119 212.726 12.9849 212.216C14.9047 210.858 18.5776 210.507 20.852 210.499C21.2019 210.498 20.8508 210.161 20.8508 210.161C18.0497 209.664 15.0743 209.337 12.4535 210.36C11.5799 210.701 10.8831 211.548 10.1862 212.395C10.5308 210.873 10.6998 209.183 11.0444 207.661C12.0924 207.15 13.1404 206.64 14.5394 206.466C16.987 205.951 20.6628 206.445 22.7664 207.62C22.9414 207.619 22.9414 207.619 22.7658 207.451C20.135 205.602 15.0572 204.437 11.3873 205.632C12.0753 202.25 12.5883 198.869 12.927 195.658C13.2657 192.446 13.2545 189.236 13.2433 186.026C13.5932 186.024 13.7675 185.855 14.1168 185.685C14.4668 185.683 14.9916 185.681 15.5165 185.68C15.8664 185.678 16.2163 185.677 16.5656 185.507L16.5644 185.169C15.5135 184.835 14.6382 184.669 13.589 184.842C13.5825 182.983 13.2255 180.957 13.0441 179.099C13.5678 178.759 13.9171 178.589 14.4408 178.249C15.4893 177.907 16.5385 177.735 17.7626 177.561C17.9375 177.561 17.7614 177.223 17.7614 177.223C16.1868 177.229 14.4361 176.897 12.8638 177.579C12.8632 177.41 12.8626 177.241 12.8615 176.903C13.5595 176.393 14.2581 176.053 15.1323 175.881C16.1815 175.708 17.5799 175.365 18.6303 175.531C18.8052 175.53 18.6297 175.362 18.6297 175.362C17.5782 174.859 15.8292 175.034 14.7795 175.037C14.0797 175.04 13.2049 175.043 12.6812 175.383C11.9666 171.161 11.252 166.939 10.5368 162.549C9.6414 156.638 8.74652 150.896 8.02603 144.985C10.8206 143.623 13.0891 141.926 16.2371 141.577C16.5871 141.576 16.2348 140.901 16.0598 140.902C14.3103 140.908 12.5619 141.252 10.8141 141.765C9.9405 142.106 8.71699 142.448 7.84398 142.958C7.30671 139.411 6.94381 135.695 6.40654 132.149C6.05191 130.798 5.69787 129.617 5.34324 128.266C6.21565 127.588 6.91192 126.571 7.78433 125.892C9.52857 124.366 11.8012 123.851 13.7216 122.661C14.0709 122.491 13.7186 121.816 13.3693 121.987C11.0973 122.67 8.99723 122.509 7.07803 124.036C6.37998 124.546 5.50696 125.056 4.98505 125.902C4.63159 124.89 4.45311 123.876 4.27461 122.863C4.27166 122.018 4.09374 121.174 3.74088 120.331C4.61329 119.652 5.30956 118.635 6.18197 117.957C7.92739 116.768 10.3738 115.914 12.2972 115.57C10.0221 115.409 7.92388 115.754 5.82795 116.775C4.77999 117.286 3.90814 118.133 3.21127 118.981C3.21127 118.981 3.21009 118.643 3.20891 118.305C3.20891 118.305 3.55824 118.135 3.73261 117.965C4.08134 117.626 4.60502 117.286 5.12871 116.946C5.82617 116.268 6.87412 115.758 7.92208 115.247C8.272 115.246 7.91971 114.571 7.57039 114.741C6.52243 115.252 5.47388 115.594 4.60147 116.272C4.25215 116.443 3.72846 116.782 3.20419 116.953C3.19651 114.757 3.18826 112.391 4.22973 110.022C4.22973 110.022 4.22914 109.853 4.22855 109.684C7.19629 107.815 11.569 107.462 14.8943 107.788C14.8943 107.788 14.8943 107.788 14.8937 107.619C12.7919 106.951 8.41566 106.29 5.26941 107.146C5.61696 106.469 5.79013 105.961 6.13768 105.284C9.98375 104.426 14.3571 104.242 18.7333 104.902C14.905 110.829 17.9282 124.843 18.6487 130.754C17.7757 131.264 17.0794 132.281 16.5563 132.789C15.5101 133.807 13.9373 134.319 13.0667 135.505C12.5442 136.183 13.4213 136.856 13.9468 137.023C14.6466 137.02 15.1715 137.018 15.6963 137.017C16.3961 137.014 17.0959 137.012 17.9707 137.009C18.3206 137.007 18.8455 137.006 19.1954 137.004C19.5619 141.734 20.1039 146.632 20.8202 151.361C21.3533 153.725 21.7121 156.258 22.0709 158.791C22.4261 160.31 22.7819 161.999 23.1372 163.518C24.2028 168.077 25.7934 172.633 27.2084 177.021C27.7392 178.709 28.2693 180.228 28.6246 181.748C28.4543 183.1 28.2841 184.452 28.2882 185.635C28.2977 188.338 21.6482 188.024 20.073 187.86C18.8483 187.865 19.5529 189.214 20.0783 189.381C22.5312 190.386 25.1585 191.222 27.6109 192.058C28.3107 192.056 28.6624 192.561 28.8385 192.899C28.8432 194.25 28.6736 195.772 28.5033 197.124C28.5039 197.293 28.5045 197.462 28.5057 197.8C27.6475 202.534 25.7472 209.468 27.1645 214.532C26.1148 214.536 24.3623 213.697 23.8369 213.53C22.7871 213.534 21.9112 213.199 20.8614 213.203C19.1119 213.209 17.5384 213.552 15.7901 213.896C13.8673 214.41 11.9464 215.43 10.7264 216.786C10.7241 216.11 10.8966 215.434 11.0692 214.758L9.84336 214.424Z" fill="#F8F7E7"/>
<path d="M22.6661 379.122C22.4911 379.123 22.3161 379.124 22.1412 379.124C21.7913 379.125 21.442 379.296 21.0926 379.466C20.7427 379.467 20.5683 379.637 20.219 379.807C20.7386 378.284 21.0838 376.931 21.6033 375.409C24.7466 373.708 28.9379 371.497 32.2697 373.682C29.1122 371.327 25.2662 372.186 21.9473 373.718C22.4651 371.689 22.9829 369.659 23.3257 367.63C24.8991 367.287 26.1179 365.593 27.8663 365.249C29.6147 364.905 32.7615 364.218 34.3391 365.057C32.9353 363.879 30.4865 364.057 28.7375 364.232C26.813 364.239 24.8903 364.752 23.4948 365.94C23.493 365.433 23.4918 365.095 23.49 364.588C24.0137 364.249 24.5374 363.909 25.236 363.568C26.6339 363.057 28.2073 362.713 29.7814 362.539C29.9563 362.538 29.7802 362.201 29.7802 362.201C28.0306 362.207 26.456 362.212 24.8832 362.725C24.5333 362.726 24.1834 362.727 23.8346 363.066C24.1721 359.517 24.1597 355.969 23.7962 352.084C23.256 347.692 22.3665 343.471 21.127 339.252C21.302 339.251 21.6507 338.912 21.8257 338.911C22.6993 338.57 23.7478 338.229 24.6214 337.888C26.0199 337.545 27.5956 337.877 28.9935 337.365L28.9923 337.028C27.069 337.372 25.3165 336.533 23.2188 337.048C22.5196 337.219 21.6454 337.391 20.9468 337.732C20.5933 336.719 20.2399 335.706 19.8858 334.525C20.4095 334.185 21.1081 333.845 21.4563 333.337C22.503 332.488 23.726 331.977 25.125 331.803L25.1244 331.634C23.8997 331.638 22.85 331.642 21.6271 332.153C20.9278 332.325 20.2292 332.665 19.5306 333.005C19.0004 331.487 18.4708 330.137 17.9412 328.787C16.1763 324.4 14.4108 319.844 13.5201 315.285C13.5183 314.778 13.5165 314.271 13.3398 313.765C13.6897 313.764 14.0396 313.762 14.2134 313.424C14.9061 311.394 18.2285 310.875 20.1513 310.362C21.8996 310.018 23.6504 310.349 25.3976 309.667C25.3976 309.667 25.3976 309.667 25.397 309.498C25.397 309.498 25.2214 309.33 25.2208 309.161C25.2214 309.33 22.5965 309.17 22.2466 309.172C20.847 309.176 19.4473 309.181 18.2226 309.186C16.823 309.191 14.9014 310.042 13.8552 311.06C14.0243 309.369 14.7188 307.846 15.5876 306.153C16.6356 305.643 17.6836 305.132 18.5572 304.791C20.3038 303.94 22.405 304.44 24.1522 303.758C24.6765 303.587 24.1493 302.913 23.625 303.084C22.5764 303.426 21.3505 303.092 20.3008 303.096C19.9509 303.097 19.601 303.098 19.0761 303.1C19.0761 303.1 19.2499 302.761 19.4243 302.592C20.821 301.742 22.3926 300.892 23.9643 300.041C26.0614 299.358 28.3346 299.012 30.4329 298.667C27.9929 301.379 27.6584 305.773 28.0195 308.982C28.9197 316.245 29.9954 323.676 32.2946 330.764C33.1789 333.465 33.8917 337.179 35.3002 339.709C37.9416 344.6 31.2916 344.116 30.4268 346.992C30.2554 348.006 30.7827 348.68 31.4848 349.353C32.362 350.026 35.1636 350.692 35.3421 351.705C35.5289 355.084 37.1135 357.951 37.6502 361.328C38.723 367.914 39.4494 375.515 39.298 382.275C38.9481 382.276 38.597 381.939 38.2471 381.94C33.5139 379.253 28.2611 378.089 23.5408 379.119L22.6661 379.122Z" fill="#F8F7E7"/>
<path d="M31.0636 529.135C31.0636 529.135 30.7113 528.46 30.5352 528.123C30.5269 525.757 30.5187 523.392 31.2096 520.855C31.9018 518.656 33.4616 514.426 36.437 514.754C36.437 514.754 36.437 514.754 36.4365 514.585C31.533 513.25 28.9311 519.68 28.5989 524.75C28.2466 524.076 27.8949 523.57 27.7176 522.895C27.8867 521.205 28.0563 519.683 28.2253 517.993C28.5652 515.119 29.0818 512.752 30.6476 510.212C30.647 510.043 30.2959 509.706 30.1215 509.876C28.379 511.91 27.1603 513.604 26.2944 516.141C25.9468 516.818 25.7748 517.664 25.6028 518.509C24.7215 516.654 24.0152 514.797 23.1333 512.773C22.7805 511.929 22.2533 511.255 21.9004 510.412C21.8992 510.074 21.898 509.736 22.2467 509.397C22.5943 508.72 22.9413 507.873 23.1138 507.197C23.6328 505.506 23.9762 503.646 24.6707 502.123C24.6707 502.123 24.6695 501.785 24.4952 501.954C23.4508 503.479 22.5819 505.171 21.5381 506.865C21.3643 507.203 21.0161 507.711 20.8424 508.05C20.3134 506.869 19.785 505.857 19.2559 504.676C19.4285 504 19.6006 503.154 19.7732 502.478C19.7708 501.802 19.7684 501.126 19.941 500.449C19.9393 499.943 20.2874 499.434 20.2856 498.927C20.2856 498.927 20.1095 498.59 19.9357 498.929C19.9369 499.267 19.4132 499.606 19.2394 499.945C18.8919 500.622 18.7187 501.13 18.3711 501.807C18.3723 502.145 18.0236 502.484 18.0248 502.822C17.4958 501.641 16.7918 500.46 16.2622 499.111C16.2622 499.111 16.2622 499.111 16.2616 498.942C16.2616 498.942 16.261 498.773 16.2604 498.604C16.2587 498.097 16.2575 497.759 16.2557 497.252C16.2528 496.407 16.5991 495.392 16.2463 494.548C16.2463 494.548 15.8952 494.212 15.8964 494.55C15.8993 495.395 15.3774 496.241 15.0304 497.087C14.3265 495.907 13.622 494.558 12.9168 493.039C12.9156 492.701 12.9139 492.195 12.9133 492.026C12.908 490.505 12.9027 488.984 12.8973 487.464C12.8967 487.295 12.5456 486.958 12.3719 487.296C12.1999 488.142 11.8529 488.988 11.6809 489.833C11.6792 489.326 11.503 488.989 11.3269 488.652C11.3269 488.652 11.3269 488.652 11.3263 488.483C11.3263 488.483 11.3257 488.314 11.3251 488.145C11.3239 487.807 11.3227 487.469 11.4971 487.3C11.4936 486.286 11.49 485.272 11.4871 484.427C12.7171 485.944 13.7727 487.629 15.0015 488.808C18.6903 493.019 22.5518 496.554 26.9381 500.087C30.4472 502.947 33.9558 505.638 37.6399 508.498C39.7447 510.011 47.9758 512.348 42.7342 514.394C40.4628 515.247 36.9814 520.328 35.9387 522.359C34.0266 525.914 33.1637 529.297 33.8771 533.18C33.8782 533.518 33.8794 533.856 34.2305 534.193C33.0011 532.845 31.9461 531.328 30.8904 529.642L31.0636 529.135Z" fill="#F8F7E7"/>
<path d="M292.867 448.13C292.529 451.679 292.367 455.397 292.03 458.947C291.68 458.948 291.155 458.781 290.804 458.613C290.103 458.278 290.107 459.291 290.632 459.459C290.983 459.626 291.509 459.962 292.034 459.961C292.037 460.974 291.866 461.989 291.694 463.003C291.344 462.835 290.818 462.668 290.293 462.501C289.768 462.503 289.417 462.166 288.891 461.999C288.541 462 288.543 462.338 288.893 462.506C289.77 463.01 290.822 463.682 291.699 464.355C291.528 465.538 291.182 466.722 291.012 468.075C290.662 467.907 290.311 467.739 289.961 467.571C288.909 466.899 287.681 466.059 286.629 465.555C286.279 465.557 286.279 465.557 286.631 465.893C287.508 466.566 288.21 467.24 289.087 467.912C289.614 468.417 290.315 468.922 290.842 469.427C289.977 472.302 288.762 475.01 287.197 477.719C286.67 477.214 286.318 476.708 285.967 476.203C285.265 475.529 284.563 475.025 283.686 474.521C282.283 473.512 281.056 472.671 279.305 472.34C279.13 472.34 279.305 472.509 279.306 472.678C281.234 473.516 282.463 474.863 283.868 476.379C284.746 477.221 285.45 478.401 286.502 479.242C286.329 479.581 285.98 480.089 285.807 480.427C285.455 479.922 284.929 479.586 284.578 479.249C283.876 478.744 283.175 478.24 282.648 477.735C282.648 477.735 282.298 477.736 282.473 477.736C283 478.41 283.527 478.915 284.229 479.588C284.581 480.094 285.107 480.599 285.633 480.935C283.719 483.814 281.454 486.525 279.189 489.237C278.834 487.717 277.603 485.863 276.725 485.021C275.847 484.01 274.795 483.507 273.742 482.666C272.515 481.826 271.286 480.816 269.884 480.145C269.709 480.146 269.535 480.146 269.711 480.484C271.465 481.829 273.571 483.68 274.976 485.365C276.381 486.881 276.565 489.246 277.97 490.762C277.273 491.609 276.401 492.457 275.703 493.135C275.173 491.616 274.12 490.606 273.066 489.258C271.66 487.573 269.903 485.552 267.8 484.545C269.204 485.723 270.259 487.24 271.139 488.589C272.369 490.274 273.425 491.96 273.957 493.986C273.957 493.986 273.957 494.155 274.308 494.323C274.134 494.492 273.785 494.832 273.61 495.001C273.258 494.327 272.732 493.821 272.38 493.316C271.15 491.799 270.096 490.62 268.517 489.274C268.517 489.274 268.167 489.275 268.342 489.444C269.396 490.623 270.45 491.802 270.98 493.321C271.333 494.164 271.862 495.176 272.389 496.019C270.471 497.885 268.728 499.749 266.985 501.445C266.104 499.758 263.997 497.738 263.47 496.895C261.537 494.536 258.727 491.505 255.574 490.502C255.224 490.503 255.225 490.672 255.575 490.84C258.554 492.181 260.841 495.722 262.599 498.081C263.478 499.261 264.71 501.284 265.764 502.463C265.24 502.972 264.892 503.311 264.369 503.82C264.016 503.145 263.489 502.471 262.962 501.966C261.909 500.956 261.206 499.945 259.978 499.104C259.978 499.104 259.628 499.105 259.804 499.274C261.209 500.958 262.441 502.813 263.497 504.668C261.23 506.872 258.789 509.246 256.522 511.451C256.342 510.1 255.639 508.919 255.111 508.076C253.176 505.042 251.066 502.177 247.91 500.329C247.91 500.329 247.735 500.33 247.911 500.498C251.771 503.526 254.062 508.418 255.128 513.145C254.605 513.654 254.082 513.994 253.559 514.502C253.206 513.828 252.854 513.153 252.502 512.479C251.798 511.467 251.619 510.285 250.74 509.105C250.038 508.263 249.16 507.421 248.457 506.579C250.391 509.276 251.277 512.483 252.512 515.52C251.641 516.368 250.594 517.216 249.547 518.065C249.017 516.546 247.612 515.199 246.56 514.358C247.088 515.37 247.617 516.382 247.795 517.395C247.797 518.071 247.8 518.747 248.152 519.421C246.408 520.948 244.664 522.644 242.92 524.171C243.257 520.452 241.488 514.883 240.081 512.86C236.914 507.802 231.129 504.443 225.177 503.45C225.002 503.45 225.177 503.619 225.177 503.619C230.256 505.122 234.292 508.318 237.804 512.192C239.385 514.045 239.923 517.591 240.281 520.125C240.461 521.476 240.995 524.008 240.826 525.699C240.128 526.377 239.256 527.056 238.558 527.734C238.558 527.734 238.384 527.904 238.21 528.073C238.204 526.553 238.198 524.694 237.844 523.513C236.957 519.967 234.847 517.102 232.388 514.407L232.213 514.408C234.678 518.793 236.447 524.193 236.814 529.261C235.244 530.618 233.498 531.638 231.753 532.827C232.767 522.685 226.96 513.075 215.931 511.255C226.79 514.427 229.447 523.88 230.531 533.507C229.658 534.186 228.961 534.864 228.263 535.543C228.951 532.161 228.237 528.108 227.178 525.409C226.117 522.033 223.479 518.325 220.324 516.646C219.974 516.647 219.974 516.647 220.325 516.984C223.658 519.338 224.72 523.052 225.783 526.596C226.315 528.622 226.496 530.48 226.503 532.507C226.508 534.028 227.213 535.377 227.219 537.067C226.696 537.576 226.173 538.085 225.475 538.594C225.986 534.875 224.745 530.148 223.687 527.786C220.864 521.037 216.13 518.182 209.645 514.825C206.841 513.483 202.807 510.456 198.777 508.949C208.391 506.381 228.664 500.058 230.936 499.374C235.48 498.007 241.952 497.477 246.143 495.097C248.412 493.737 250.149 490.183 251.892 488.318C254.332 485.606 256.948 483.063 259.739 480.687C264.622 476.277 272.488 474.222 278.074 470.485C282.787 467.427 286.794 462.513 289.751 457.772C292.71 453.369 293.394 448.635 294.427 443.9C294.43 444.914 294.434 445.928 294.612 446.941L292.867 448.13Z" fill="#F8F7E7"/>
<path d="M276.663 217.209C279.814 217.536 282.443 218.878 285.074 220.728C285.074 220.728 285.249 220.727 285.424 220.895C280.167 218.379 274.043 218.401 269.512 223.317C269.512 223.317 269.513 223.655 269.687 223.485C272.83 221.615 277.201 220.924 280.877 221.418C284.028 221.914 286.31 224.103 289.114 225.445C290.348 227.975 290.708 230.846 290.893 233.718C290.542 233.55 290.192 233.382 289.841 233.215C288.264 232.375 286.513 232.043 284.762 231.712C284.412 231.713 284.763 232.05 284.764 232.219C286.166 232.889 287.567 233.391 288.795 234.232C289.497 234.736 290.198 235.072 290.899 235.576C290.9 235.914 290.901 236.083 290.902 236.421C290.906 237.604 290.911 238.956 290.915 240.138C289.161 238.793 286.708 237.788 284.781 237.118C281.102 235.78 276.737 238.16 273.768 239.86C277.263 238.665 280.934 237.639 284.611 238.64C286.888 239.308 288.817 240.653 290.746 241.829C290.588 246.56 289.904 251.125 289.395 255.858C288.694 255.522 287.994 255.356 287.119 255.19C285.543 254.857 283.968 254.863 282.221 255.545C284.146 255.538 285.896 255.87 287.648 256.54C288.349 256.706 288.875 257.042 289.401 257.378C289.403 258.054 289.405 258.73 289.408 259.406C289.406 258.899 289.404 258.392 289.228 257.886C289.059 259.576 288.89 261.435 288.721 263.126C288.721 263.126 288.721 263.126 288.722 263.295C287.671 262.96 286.62 262.626 285.746 262.798C282.773 263.146 279.979 264.677 277.183 265.7C276.833 265.702 277.185 266.207 277.534 266.206C279.458 265.861 281.206 265.517 283.13 265.342C284.704 265.167 286.454 265.33 288.031 265.832C288.206 265.831 288.381 265.83 288.556 265.83C288.22 270.055 288.06 274.28 288.075 278.504C285.623 277.668 282.472 277.341 280.376 278.193C280.201 278.193 280.377 278.531 280.552 278.53C282.651 278.354 284.403 279.193 286.33 279.693C286.854 279.691 287.556 280.195 288.082 280.531C288.087 281.883 288.266 283.234 288.446 284.585C283.189 282.238 277.418 282.934 272.706 286.33C272.706 286.33 272.707 286.668 273.057 286.667C277.774 284.623 283.896 284.094 288.628 286.612C288.815 289.991 289.002 293.539 289.014 296.918C289.014 296.918 287.085 295.573 286.384 295.406C283.582 294.571 281.136 295.425 278.338 295.941C277.988 295.943 278.34 296.448 278.515 296.448C280.964 296.439 283.237 295.924 285.515 296.93C286.741 297.433 287.794 298.274 288.847 299.115C288.852 300.636 288.858 302.325 288.863 303.846C285.525 299.803 278.355 300.841 274.34 303.39C274.165 303.391 274.341 303.728 274.516 303.727C277.487 302.703 280.811 302.692 283.788 303.357C285.539 303.858 286.942 304.698 288.693 305.198C288.695 305.705 288.696 306.043 288.698 306.55C288.172 306.214 287.646 306.047 286.946 305.88C285.719 305.378 284.32 305.383 282.921 305.557L282.921 305.726C284.672 306.057 286.249 306.728 287.652 307.737C287.827 307.736 288.178 308.073 288.354 308.241C288.36 310.1 288.018 312.128 287.849 313.988C286.096 312.98 283.819 312.312 281.893 311.981C278.917 311.484 275.775 313.354 273.33 314.714L273.331 314.883C275.953 314.198 278.575 313.513 281.2 313.842C283.3 314.004 285.404 315.179 287.506 315.848C287.51 317.03 287.34 318.383 287.169 319.566C286.468 319.23 285.592 318.896 284.891 318.729C283.491 318.396 282.09 318.232 280.691 318.406C280.516 318.406 280.692 318.744 280.692 318.744C282.268 319.076 283.67 319.747 285.247 320.249C285.772 320.416 286.474 321.089 287 321.425C286.834 323.791 286.667 326.326 286.501 328.693C285.624 328.02 284.748 327.685 283.872 327.35C279.493 326.014 275.996 326.702 272.507 329.586C275.825 327.716 278.799 327.537 282.477 328.707C283.528 329.041 284.929 329.543 286.156 330.214C286.156 330.214 286.157 330.383 286.157 330.552C286.159 331.059 286.161 331.566 286.162 331.904C285.812 331.736 285.461 331.569 285.111 331.401C283.534 330.73 282.13 329.722 280.381 329.897L280.383 330.235C282.307 330.228 283.712 331.575 285.115 332.584C285.465 332.751 285.817 333.257 286.168 333.594C286.173 334.945 286.352 336.297 286.707 337.647C283.723 334.954 280.043 333.108 275.67 333.292C271.82 333.306 269.028 335.343 268.163 338.05C266.923 333.83 268.13 328.588 267.766 324.534C267.571 318.79 268.776 313.21 268.407 307.635C267.837 294.964 270.944 282.788 270.2 270.118C270.198 269.442 270.196 268.935 270.193 268.259C270.714 266.906 271.584 265.72 272.456 264.872C272.631 264.872 272.805 264.533 272.98 264.532C272.98 264.532 273.154 264.363 273.329 264.193C274.375 263.345 275.598 262.665 277.17 262.152C278.219 261.811 276.815 260.464 276.289 260.297C274.363 259.965 269.991 260.319 269.986 258.967C269.972 255.081 269.433 250.858 268.545 247.144C268.367 246.131 268.188 245.118 267.834 243.936C267.654 242.585 267.475 241.234 267.119 239.715C266.764 238.026 266.408 236.338 266.052 234.649C266.05 234.143 266.049 233.805 265.873 233.467C265.872 233.129 265.518 232.117 265.339 230.935C264.984 229.415 264.628 227.727 264.447 226.038C264.094 225.194 263.917 224.35 263.564 223.506C263.562 222.999 263.56 222.493 263.383 221.986C263.382 221.648 263.381 221.31 263.555 220.972C263.555 220.972 263.554 220.803 263.554 220.634C263.902 220.126 265.65 219.782 266.349 219.441C267.571 218.761 268.97 218.587 270.367 217.907C270.891 217.567 271.24 217.397 271.765 217.226C273.164 217.052 274.563 216.878 275.962 216.873L276.663 217.209Z" fill="#F8F7E7"/>
<path d="M260.704 5.88687C264.908 7.39288 268.59 9.57656 272.098 12.0988C272.099 12.4367 271.574 12.4386 271.4 12.7771C271.051 13.1162 270.703 13.4554 270.354 13.7946C270.354 13.7946 270.355 14.1325 270.705 14.1313C271.054 13.9611 271.578 13.6213 271.927 13.4511C272.277 13.4499 272.627 13.4487 272.976 13.1095C272.976 13.1095 272.975 12.9406 273.15 12.771C274.202 13.6121 275.256 14.6223 276.308 15.4634C275.783 15.4653 275.435 15.8044 275.085 15.9746C274.038 16.6541 273.167 17.671 272.471 18.6872C272.471 18.6872 272.472 19.0251 272.646 18.8556C273.518 18.1766 274.566 17.4971 275.789 16.9859C276.314 16.9841 277.188 16.981 277.888 16.9786C278.766 17.9893 279.644 18.8311 280.523 19.8418C279.998 19.8437 279.649 20.1828 279.3 20.353C278.251 20.6946 277.379 21.3735 276.682 22.2208L276.682 22.3898C277.555 21.7109 278.604 21.5382 279.653 21.3656C280.178 21.3637 281.053 21.3607 281.578 21.3588C281.929 21.6955 282.28 22.0323 282.456 22.3696C283.158 23.043 283.685 23.717 284.213 24.391C283.338 24.3941 282.288 24.3978 281.59 24.9071C280.019 25.9264 279.149 27.2812 278.105 28.9745C278.105 28.9745 278.106 29.1435 278.28 28.9739C279.85 27.7856 281.247 26.9359 283.171 26.5913C283.87 26.5888 284.92 26.5852 285.62 26.5827C286.323 27.594 287.026 28.4364 287.729 29.4478C288.081 29.7845 288.257 30.1218 288.608 30.6275C287.732 30.2926 286.683 30.2963 285.983 30.4677C284.76 30.8099 283.189 31.8292 282.317 32.677C282.317 32.677 282.318 33.015 282.493 32.8454C283.715 32.1653 285.638 31.6516 286.862 31.6474C287.912 31.6437 288.789 32.3165 289.838 32.1439C290.014 32.4812 290.366 32.8179 290.717 33.3236C291.244 33.9976 291.596 34.5032 291.948 35.1779C290.022 34.5087 288.096 34.1776 285.823 34.6924C282.851 35.3787 281.636 38.0864 280.42 40.4562C282.163 38.7604 283.734 37.5721 286.181 36.8877C288.278 36.2045 290.378 36.3662 292.478 36.5278C293.006 37.5397 293.535 38.5517 293.888 39.5642C291.088 39.2361 287.939 39.4161 285.671 41.2826C284.451 42.4697 278.171 47.8986 278.528 49.7559C276.934 44.1856 276.913 38.4408 276.194 32.6984C275.653 28.3072 273.367 24.7669 270.904 21.0582C267.563 16.1699 264.57 10.9423 260.706 6.56269C260.354 6.05701 259.828 5.72092 259.302 5.38483C259.477 5.38422 259.827 5.38303 260.003 5.55138L260.704 5.88687Z" fill="#F8F7E7"/>
<path d="M136.482 5.47625C138.757 5.63726 141.032 5.79829 143.307 5.79034C154.155 5.92139 165.001 5.71451 175.849 5.6766C183.372 5.6503 191.07 5.6234 198.593 5.5971C200.007 9.64737 201.595 13.5281 203.009 17.5783C203.891 19.7718 203.724 21.969 205.479 23.6525C206.006 24.1576 207.407 24.6596 207.754 23.6446C209.312 18.908 209.119 13.8397 209.627 8.93787C209.62 7.07926 210.317 6.23202 212.941 6.22285C219.94 6.19838 226.935 5.32907 233.932 4.96668C237.955 4.78365 241.978 4.43168 246.002 4.24865L246.876 4.24559C246.876 4.24559 247.401 4.24376 247.576 4.24314C247.577 4.41211 247.928 4.74879 248.103 4.91715C248.279 5.0855 248.63 5.42224 248.806 5.59059C248.279 5.2545 249.158 6.26526 249.158 6.26526C250.038 7.78288 250.744 9.47007 251.099 11.1585C251.101 11.6654 251.803 12.3388 252.503 12.1674C253.202 12.1649 253.55 11.4879 253.373 10.8126C253.373 10.8126 253.372 10.4747 253.371 10.3057C253.72 9.96656 253.893 9.45901 254.067 9.28943C254.938 8.10362 256.858 6.91415 256.678 5.39408C260.181 6.39563 261.593 10.108 263.352 12.8053C266.87 18.031 270.562 23.2561 273.556 28.8215C274.964 31.3511 274.631 36.0834 274.992 39.2925C275.352 42.1636 276.412 45.2013 277.122 48.0713C277.476 49.2528 278.009 51.4475 279.41 51.9495C279.41 51.9495 279.76 51.9483 279.935 51.9477C281.676 49.5761 282.542 47.0386 284.985 45.0024C287.951 42.6265 290.922 41.9403 294.597 42.0964C294.599 42.6033 294.601 43.1101 294.427 43.6176C294.429 44.1245 294.432 44.8004 294.258 45.3079C293.741 47.3373 293.222 49.1978 292.705 51.3962C291.844 55.4544 293.258 59.3357 294.496 63.2176C296.618 69.7999 297.342 76.556 298.066 83.4811C298.429 87.3661 298.793 91.2511 298.807 95.3062C298.814 97.3338 299.701 100.71 298.483 102.573C297.961 103.42 296.736 103.424 295.512 103.597C294.638 103.938 293.414 104.111 292.015 104.285C289.568 104.97 287.12 105.485 284.498 106.001C284.499 106.339 284.675 106.676 285.026 106.844C287.658 109.032 290.986 110.203 294.139 111.374C295.366 111.877 296.244 112.719 296.773 113.9C296.119 127.25 295.642 140.769 296.214 154.285C296.965 168.813 293.335 181.498 293.035 195.862C293.04 197.382 293.044 198.565 292.698 199.58C290.614 203.981 288.166 204.496 285.368 204.844C283.268 204.682 281.169 204.858 279.247 205.372C277.673 205.715 276.453 206.903 274.702 206.571C273.827 206.574 273.126 206.238 272.251 206.241C270.852 206.415 271.733 208.102 272.434 208.437C274.012 209.446 275.938 209.946 277.517 210.954C278.394 211.627 279.27 212.131 280.322 212.634C279.272 212.638 278.223 212.81 277.349 212.982C276.125 213.155 275.075 213.159 273.851 213.501C273.676 213.502 273.326 213.503 273.152 213.673C271.752 213.678 270.179 214.021 268.781 214.364C267.908 214.874 266.859 215.215 265.986 215.725C265.636 215.727 265.112 215.897 264.763 216.237C263.366 216.917 261.617 217.092 260.22 217.942C259.87 217.943 259.872 218.45 259.873 218.788C260.405 220.645 261.285 222.332 262.167 224.187C262.167 224.187 262.168 224.525 262.168 224.694C262.882 228.578 263.421 232.631 264.134 236.515C264.137 237.191 264.139 237.866 264.316 238.373C264.675 241.075 265.384 243.607 265.918 246.309C266.099 247.998 266.455 249.686 266.636 251.375C266.996 254.415 267.357 257.624 267.543 260.665C268.945 261.336 270.521 261.837 272.271 262C272.796 261.998 272.972 262.336 272.974 262.674C271.053 263.694 269.483 265.051 267.562 266.241C266.34 266.921 267.222 268.946 267.928 270.633C267.937 273.336 267.947 276.209 267.957 279.081C267.303 292.263 266.3 305.615 265.297 318.798C264.794 325.051 264.116 331.474 265.363 337.722C265.365 338.398 265.717 339.072 265.895 339.747C266.422 340.59 267.125 341.433 267.827 342.106C269.057 343.454 270.636 344.8 272.389 345.639C274.842 346.644 276.764 346.13 278.862 345.616C278.861 345.278 278.86 345.109 278.509 344.772C276.752 342.582 276.389 338.866 276.379 335.993C277.954 335.988 279.705 336.658 281.81 338.002C285.14 339.68 285.68 344.071 286.565 347.11C287.632 352.006 287.3 357.076 287.142 361.977C286.988 367.891 286.658 373.637 286.679 379.551C286.686 381.748 286.692 383.437 287.05 385.632C287.05 385.632 287.05 385.632 287.051 385.801C286.701 385.972 286.178 386.311 285.829 386.651C282.338 389.028 277.612 388.369 273.763 388.382C271.838 388.389 273.071 390.581 274.296 390.746C278.847 391.406 282.356 394.097 286.212 396.111C287.439 396.783 288.315 397.118 288.84 397.285C289.552 400.662 289.739 404.209 290.101 407.587C290.106 409.108 290.462 410.797 290.642 412.317C290.666 419.075 290.864 425.664 291.238 432.422C290.749 442.899 287.814 454.061 281.194 462.195C273.18 472.023 260.591 474.264 251.873 482.742C250.652 483.929 249.259 485.793 247.691 487.657C247.344 488.334 246.821 489.012 246.474 489.858C243.345 495.614 236.174 496.315 230.232 498.194C218.347 501.615 204.18 503.016 193.004 508.969C192.655 509.139 192.306 509.478 192.132 509.648C192.132 509.648 191.957 509.649 191.782 509.649C191.432 509.819 191.083 509.99 190.909 510.328C191.274 514.551 192.339 518.94 193.752 522.822C195.167 527.21 199.027 530.238 201.664 533.777C202.015 534.283 203.067 534.786 203.414 533.94C204.108 532.248 203.561 525.998 205.309 525.654C208.107 525.137 210.726 523.607 212.468 521.574C214.574 523.256 216.155 525.278 217.215 527.978C219.156 532.871 220.405 539.625 216.916 542.679C216.566 542.68 216.216 542.681 215.693 543.021C212.194 543.202 208.871 543.552 205.372 543.564C199.074 543.586 192.945 542.256 186.47 541.603C184.02 541.442 181.212 538.917 178.77 541.292C178.77 541.292 178.77 541.292 178.595 541.292C177.712 538.761 177.003 536.06 176.12 533.697C174.707 530.154 174.331 522.552 170.998 520.029C170.296 519.524 169.071 519.191 168.9 520.374C168.387 523.755 168.103 542.85 166.353 542.687C164.428 542.524 162.677 542.193 160.753 542.199C156.556 542.721 152.359 543.242 147.984 543.089C142.56 542.939 137.839 543.8 133.125 546.52C132.776 546.859 132.25 546.523 132.074 546.186C130.659 541.967 131.169 537.572 129.755 533.352C128.694 530.315 127.634 527.277 126.224 524.41C126.224 524.41 126.224 524.41 126.225 524.747C124.839 528.47 124.497 530.836 124.512 535.229C124.541 543.34 122.262 541.996 118.066 543.024C113.347 544.224 108.097 543.904 103.373 544.09C98.8252 544.274 94.0961 542.77 89.5484 543.124C87.449 543.131 68.3871 545.564 68.3912 546.746C68.0148 539.144 65.7137 531.549 64.4643 524.456C63.5718 519.391 63.3791 514.322 62.3122 509.426C62.3099 508.75 61.4333 508.246 61.2619 509.261C60.247 519.233 58.5335 529.546 58.2184 539.516C58.2202 540.023 55.246 540.034 52.2717 540.044C48.7703 539.38 45.0944 538.886 41.4192 538.561C37.5607 535.871 35.2739 532.331 37.7014 526.071C38.7423 523.533 40.6585 521.16 42.2249 518.789C43.9644 515.911 45.5378 515.567 48.5079 514.374C48.8578 514.373 48.6811 513.867 48.5055 513.698C47.2731 511.506 44.8208 510.67 42.5423 509.495C37.6346 506.978 33.5906 501.247 29.3798 497.882C26.2218 495.359 23.0632 492.666 19.7307 490.313C16.3983 487.959 14.2882 484.925 11.6539 482.061C11.8188 479.188 12.158 476.146 11.9724 473.105C11.5924 464.489 8.5928 457.234 8.38654 448.279C8.37709 445.576 9.30692 411.272 8.9576 411.443C12.6281 410.416 17.5239 409.554 21.5391 407.006C24.508 405.474 28.1844 406.137 30.9772 404.269C31.5009 403.929 30.7987 403.256 30.4482 403.088C24.8419 400.911 21.678 396.698 16.768 393.505C16.4146 392.492 16.7603 391.308 17.6298 389.785C18.1523 389.107 18.4998 388.43 19.0229 387.921C20.5916 386.226 22.5114 384.867 22.8602 384.528C24.2574 383.848 25.6553 383.336 27.0544 383.162C27.0567 383.838 27.5845 384.681 27.7612 385.187C28.1153 386.369 27.7713 388.059 28.9983 388.731C30.7514 389.739 32.6724 388.718 34.4208 388.374C35.9936 387.862 38.9655 387.175 40.0105 385.82L40.0099 385.651C40.0093 385.482 40.0081 385.144 40.0076 384.975C40.0034 383.792 39.9993 382.61 39.9951 381.427C40.3315 377.54 40.6684 373.821 40.6548 369.935C40.6536 369.597 40.653 369.428 40.6518 369.09C40.2919 366.219 39.7576 363.517 39.3982 360.815C39.0418 358.958 37.985 356.934 37.4537 355.077C37.0996 353.896 37.4442 352.374 36.9152 351.193C35.1645 350.861 33.7613 349.852 32.0099 349.351C31.1346 349.185 31.3054 348.002 32.0052 347.999C33.5798 347.994 35.3258 346.974 36.7225 346.124C38.2871 343.246 35.9985 339.199 34.762 335.824C32.4669 329.918 31.0471 324.178 30.1505 317.93C29.2509 310.836 26.6036 304.256 34.2863 299.836C33.408 298.825 32.5296 297.814 31.4769 296.973C28.3206 294.957 24.12 294.465 20.9767 296.165C20.2739 295.323 19.5711 294.48 18.8683 293.638C18.8683 293.638 18.6922 293.301 18.5172 293.301C18.5172 293.301 17.99 292.627 17.6389 292.291C17.1117 291.617 16.4089 290.774 15.8817 290.1C15.8817 290.1 15.8811 289.931 15.7055 289.763C17.0857 284.182 18.233 262.043 18.5747 259.677C19.427 253.253 19.5795 246.832 19.7308 240.073C22.8741 238.372 26.0169 236.502 29.3381 235.646C29.8629 235.644 30.0367 235.305 30.2105 234.967C26.3479 231.094 19.1782 232.133 14.2759 231.136C10.249 230.306 9.7141 227.435 10.051 223.717C10.7184 214.421 19.647 216.079 27.1766 217.912C27.1583 212.674 27.14 207.436 27.997 202.364C28.5119 199.49 30.4251 196.273 30.2401 193.401C30.2401 193.401 30.2395 193.232 30.239 193.063C28.3121 192.394 26.5596 191.555 24.6333 191.055C23.9335 191.057 23.9293 189.875 24.6286 189.703C26.0264 189.191 27.4243 188.68 28.8216 187.999C28.6378 185.465 28.454 182.931 27.7447 180.23C27.0354 177.529 26.3267 174.997 25.6181 172.465C24.0234 166.726 22.6042 161.155 21.3595 155.414C20.2908 150.011 19.7471 144.606 19.3783 139.201C19.3759 138.525 19.3736 137.849 19.1962 137.174C18.6714 137.175 17.9716 137.178 17.4467 137.18C17.4467 137.18 17.2717 137.18 17.0968 137.181C16.222 137.184 15.3472 137.187 14.2975 137.191C13.5977 137.193 13.5941 136.179 14.1178 135.84C15.6889 134.82 17.2605 133.97 18.8316 132.951C18.8286 132.106 18.8262 131.43 18.8239 130.754C18.6407 128.389 17.932 125.857 17.7487 123.492C17.3852 119.607 17.1967 115.722 17.5331 111.834C17.7003 109.637 18.3948 108.114 20.1397 106.756C20.6634 106.416 21.0115 105.908 21.3596 105.4C20.3081 104.897 19.2572 104.563 18.2063 104.228C17.1566 104.232 15.9319 104.236 14.8815 104.071C14.3531 103.059 14.1729 101.539 14.3419 99.8488C14.3325 97.1454 15.0228 94.4395 15.3633 91.7348C15.8764 88.3537 16.2139 84.8042 18.1283 81.9251C18.8246 80.9088 19.697 80.23 20.5694 79.551C20.5694 79.551 20.5694 79.551 20.7444 79.5504C20.9193 79.5498 21.2681 79.2107 21.443 79.21C22.8403 78.5293 24.4132 78.0169 26.1604 77.3349C29.3054 76.1411 32.9807 76.4662 36.3084 77.4684C36.8332 77.4666 37.0111 78.3108 36.6624 78.6499C34.395 80.6855 32.3027 82.7204 29.6831 84.0813C32.1448 87.621 35.6546 90.6501 39.6845 92.3257C42.8384 93.6664 47.9156 94.6625 50.3544 91.6125C50.8769 90.9348 51.4 90.4261 51.9231 89.9174C52.6176 88.3942 53.4876 87.0394 54.3577 85.6847C55.5765 83.9907 56.9702 82.2963 58.3646 80.7707C62.5422 74.6733 66.7205 68.7448 70.8981 62.6474C78.2097 52.1459 86.0478 42.1494 93.3593 31.6479C93.5337 31.4783 93.7075 31.1398 93.8818 30.9702C94.5781 29.954 95.2738 28.7688 95.9701 27.7526C98.5808 23.8572 101.192 20.1308 103.979 16.5728C106.243 13.6924 108.332 10.6437 111.475 8.77409C111.475 8.77409 111.475 8.77409 111.65 8.77348C111.65 8.77348 111.999 8.43431 112.174 8.4337C112.522 8.09455 113.048 8.43064 113.225 8.93693C115.526 16.3634 115.553 24.3048 117.154 31.9027C117.67 29.3664 117.836 26.6623 118.177 24.1267C118.859 18.8863 118.488 12.9737 120.57 8.06641C120.743 7.5589 121.443 7.38747 121.794 7.72418C122.145 8.06089 124.253 10.4191 125.834 12.2722C126.531 11.5939 127.227 10.5776 127.751 10.0689C128.797 9.05144 129.843 8.20295 131.241 7.69116C132.464 7.17998 133.865 7.34406 135.09 7.6777L136.482 5.47625Z" fill="#F8F7E7"/>
</svg>
