<svg width="104" height="38" viewBox="0 0 104 38" fill="none" xmlns="http://www.w3.org/2000/svg">
<path d="M0.120856 26.6526C-0.415246 31.0324 0.84298 34.7139 3.68045 34.8679C35.6134 36.4505 67.5464 37.3272 99.4793 37.5C102.323 37.5159 104.209 33.7405 103.567 28.4755C102.979 23.5972 102.095 18.2326 102.569 13.3543L94.48 14.6347C98.4865 13.6622 102.542 10.0042 103.921 9.00729C104.317 4.2144 102.14 2.26852 99.4793 2.28354C67.5464 2.45626 36.1437 1.90807 4.21074 3.49068C1.37328 3.64462 -0.415246 8.75104 0.120856 13.1309C0.305585 14.6647 0.427017 16.1995 0.485794 17.7333H9.3528L1.59353 20.1475C1.6129 19.7786 1.62646 19.2614 1.60386 18.6963L0.523903 20.4798C0.502588 22.5374 0.368238 24.595 0.120856 26.6526Z" fill="#202020"/>
<path d="M1.20079 24.8691C0.664686 29.249 1.92292 32.9305 4.76038 33.0844C36.6933 34.667 68.6263 35.5437 100.559 35.7165C103.403 35.7324 104.461 31.4708 103.818 26.2058C103.231 21.3274 103.175 16.4491 103.649 11.5708L95.5599 12.8512C99.5665 11.8787 102.542 10.0042 103.921 9.00729C104.317 4.2144 103.22 0.485026 100.559 0.500045C68.6263 0.672762 36.6933 1.54949 4.76038 3.1321C1.92292 3.28604 0.664686 6.96754 1.20079 11.3474C1.38552 12.8812 1.50695 14.416 1.56573 15.9498H10.4327L1.60386 18.6963C1.58254 20.7539 1.44817 22.8115 1.20079 24.8691Z" fill="#B77537"/>
<path d="M84.9568 0.640851C86.7937 1.57014 88.6823 2.40932 90.6433 2.9331C90.9475 3.00257 91.2582 3.08799 91.5857 3.17716C92.3194 3.37804 93.0771 3.58549 93.8031 3.62585C96.5443 4.53543 99.7732 5.46848 102.946 5.49851C103.276 5.50133 103.601 5.49476 103.921 5.4788C103.909 5.36428 103.897 5.2507 103.883 5.139C100.614 5.2967 97.1889 4.41622 93.8418 3.30482L93.8218 3.30107C93.1094 3.26258 92.355 3.05607 91.6264 2.85707C91.2963 2.76696 90.985 2.68154 90.6795 2.61208C88.9459 2.14837 87.2665 1.43591 85.6285 0.632403C85.4044 0.635219 85.1802 0.638035 84.9568 0.640851Z" fill="#804520"/>
<path d="M82.3072 0.675582C85.1499 1.86113 88.0003 3.21659 90.8765 4.61616L90.8913 4.62179C91.886 4.89588 92.8581 5.12774 94.199 5.43562C94.52 5.52761 94.8456 5.62242 95.173 5.71816C98.1016 6.57236 101.083 7.44064 103.997 7.4857C103.999 7.37493 104 7.26604 104 7.1581C101.104 7.11398 98.1332 6.24852 95.215 5.39807C94.8882 5.30327 94.5614 5.20752 94.2371 5.11459C92.8962 4.80671 91.928 4.57579 90.9385 4.30358C88.3045 3.02134 85.6918 1.77665 83.0868 0.665257C82.8272 0.668073 82.5675 0.671827 82.3072 0.675582Z" fill="#804520"/>
<path d="M78.0197 0.739412C81.943 2.07234 85.8093 3.90839 89.5085 5.78575C90.3074 6.10772 91.3318 6.42593 92.0075 6.56204C93.4155 6.86992 94.8798 7.30359 96.2963 7.72224C98.6558 8.42062 101.053 9.13026 103.426 9.35461C103.577 9.25135 103.716 9.15373 103.843 9.06268C101.35 8.8862 98.8237 8.13808 96.3389 7.40309C94.9199 6.98256 93.4536 6.54889 92.0385 6.23913C91.37 6.1049 90.3572 5.7895 89.5737 5.47411C86.1459 3.73474 82.5721 2.02916 78.9395 0.725332C78.6327 0.729087 78.3265 0.73378 78.0197 0.739412Z" fill="#804520"/>
<path d="M40.8265 1.6443C40.9286 1.68372 41.0306 1.72502 41.1327 1.76727C41.7928 2.09299 42.5427 2.21032 43.2958 2.10519C44.2627 2.09956 45.3395 1.90431 46.495 1.52696C46.5615 1.50537 46.628 1.48285 46.6952 1.45938C46.2715 1.47252 45.8484 1.48566 45.4254 1.4988C44.6671 1.68091 43.952 1.77571 43.29 1.77947H43.2797C42.6996 1.86207 42.1228 1.80669 41.5893 1.61989C41.3355 1.62834 41.081 1.63679 40.8265 1.6443Z" fill="#804520"/>
<path d="M64.2503 1.00036C64.7767 1.06607 65.3251 1.13366 66.0498 1.13366H66.0659C72.4895 0.943105 79.495 2.7097 88.1139 6.69063C88.9045 7.05672 89.7552 7.46974 90.5051 7.83488C90.7331 7.94471 90.9521 8.05172 91.1594 8.15216L91.1755 8.15779C92.4066 8.4638 93.6733 8.83082 94.8985 9.18752C96.9422 9.78077 99.0117 10.3815 101.083 10.7551C101.243 10.6716 101.397 10.588 101.547 10.5054C99.3359 10.144 97.1237 9.50104 94.9412 8.86743C93.7172 8.51167 92.4518 8.14465 91.2207 7.8377C91.0153 7.73914 90.799 7.63401 90.5748 7.52512C89.8237 7.15997 88.9723 6.74696 88.1798 6.37993C81.0548 3.08892 75.0266 1.30731 69.5183 0.89054C67.7627 0.924332 66.0065 0.96094 64.2503 1.00036Z" fill="#804520"/>
<path d="M32.5053 1.93529C35.0902 2.42997 37.7191 2.96784 40.335 3.6343C41.329 3.93843 42.5672 4.10458 43.7563 4.23787C46.546 4.51666 49.4959 3.99569 52.5239 2.68717C53.4346 2.30231 54.3686 1.84048 55.2993 1.31482C55.4111 1.27821 55.5209 1.24254 55.6287 1.20875C55.3613 1.21532 55.0933 1.22189 54.8252 1.2294C54.0314 1.66213 53.2382 2.04605 52.4625 2.37459C49.4577 3.67184 46.5337 4.18906 43.7705 3.91308C42.5898 3.77979 41.36 3.61552 40.375 3.31421C38.2229 2.76602 36.0649 2.30513 33.9295 1.88366C33.4541 1.89962 32.9794 1.91745 32.504 1.93529H32.5053Z" fill="#804520"/>
<path d="M100.422 12.0815L99.5252 12.2232C100.86 12.5189 102.199 12.747 103.537 12.8493C103.545 12.7404 103.554 12.6325 103.563 12.5245C102.515 12.4447 101.468 12.288 100.422 12.0815Z" fill="#804520"/>
<path d="M26.6321 2.15963C31.4576 3.05419 36.291 4.28386 40.9079 6.52731C41.4737 7.13181 42.6706 7.59177 43.6071 7.82268C45.9944 8.3765 48.797 7.64621 51.9387 5.65246C52.7112 5.29576 53.7291 4.85364 54.7652 4.58424C55.8419 4.22379 56.7319 3.9619 57.4935 3.78073C59.4344 3.31796 61.19 3.15557 62.8603 3.28417C64.0184 3.40901 65.225 3.56765 66.5471 3.77041H66.5594C67.631 3.76571 68.7271 3.80044 69.818 3.8746C75.77 4.28105 81.9113 5.83362 88.5926 8.6215C89.905 9.17532 91.1536 9.73383 92.4092 10.329L92.4241 10.3336C93.2108 10.543 94.0175 10.7701 94.7978 10.9898C95.994 11.3258 97.1986 11.6647 98.4084 11.9623C98.5847 11.8956 98.7591 11.8271 98.9283 11.7576C97.5577 11.4338 96.1929 11.0499 94.8385 10.6688C94.0602 10.45 93.2554 10.2238 92.4693 10.0145C91.2136 9.42031 89.9658 8.8618 88.6526 8.30798C81.9546 5.51259 75.7978 3.95626 69.8283 3.54888C68.7361 3.47472 67.6381 3.43905 66.5646 3.44468C65.2418 3.24287 64.0346 3.08329 62.8745 2.95845C61.1861 2.82891 59.4157 2.99318 57.4586 3.45876C56.6932 3.64087 55.7986 3.90464 54.7225 4.26415C53.6768 4.53637 52.6479 4.98412 51.8689 5.34363L51.8579 5.34926C48.7524 7.32143 45.9892 8.04515 43.6433 7.50072C42.7248 7.27449 41.5538 6.82768 41.0261 6.24946L41.0119 6.2335L40.9944 6.22599C36.798 4.18436 32.4278 2.98004 28.0485 2.10331C27.5764 2.12115 27.1042 2.13992 26.6321 2.15963Z" fill="#804520"/>
<path d="M1.51731 6.21285C3.78896 4.5833 6.14911 3.17247 8.71594 3.14712H8.7282C9.45162 3.02509 10.186 2.9209 10.923 2.83548H10.9288C11.43 2.77728 11.9319 2.72753 12.4338 2.68623C14.0395 2.55482 15.6562 2.50882 17.2774 2.54731C17.2819 2.54637 17.2865 2.54731 17.291 2.54731C25.5231 2.74161 33.8992 5.09958 41.7792 9.47382C42.4523 10.022 43.2028 10.3994 44.0095 10.5965C46.4181 11.1822 49.0463 10.0999 51.0667 9.09178C51.533 8.89184 52.0117 8.67782 52.5187 8.45066C52.9263 8.26855 53.3409 8.0827 53.7543 7.90341C54.7813 7.46317 55.5609 7.16655 56.2817 6.94126C57.5116 6.49351 58.5993 6.18938 59.612 6.01009C60.8121 5.79795 61.9263 5.7529 63.0198 5.87398C63.9629 5.99977 64.8801 6.15934 65.98 6.35553H65.9917C66.9696 6.37806 68.1354 6.40809 69.3639 6.46911C75.4122 6.77042 81.3649 8.09959 87.0579 10.42L87.2368 10.4791C88.2812 10.8255 89.4645 11.2188 90.5329 11.4854C95.0671 13.2905 99.3831 14.2451 103.439 14.3446C103.445 14.2357 103.451 14.1268 103.457 14.018C100.94 13.9579 98.3199 13.5665 95.609 12.8437C95.609 12.8437 95.6032 12.8427 95.6006 12.8418C93.9613 12.4053 92.2891 11.8477 90.5845 11.1691L90.5742 11.1653C89.5104 10.8997 88.3277 10.5073 87.2846 10.1609L87.1108 10.1037C81.4062 7.77856 75.4367 6.44564 69.3704 6.14339C68.1432 6.08237 66.9786 6.05233 66.0007 6.03074C64.9007 5.8355 63.9842 5.67592 63.0379 5.5492C61.9283 5.42624 60.7999 5.47129 59.5849 5.68625C58.5637 5.86741 57.4663 6.17436 56.2327 6.62399C55.5099 6.84927 54.7251 7.14777 53.6917 7.58989C53.2776 7.77105 52.8636 7.95597 52.4541 8.13902C51.9477 8.36524 51.4697 8.57926 51.0002 8.78013C48.9992 9.77889 46.4052 10.849 44.0444 10.2745C43.2603 10.083 42.5317 9.716 41.8787 9.18283L41.8638 9.17344C34.9914 5.35583 27.7424 3.06827 20.5373 2.40838C17.818 2.15869 15.1052 2.14086 12.4215 2.36051C11.1788 2.46189 9.92959 2.61771 8.70947 2.8214C8.15141 2.82703 7.60368 2.89743 7.06499 3.01946C5.18024 3.44656 3.40658 4.51478 1.68653 5.73131C1.62582 5.88619 1.56898 6.0467 1.51731 6.21285Z" fill="#804520"/>
<path d="M1.08132 9.22413C5.59685 6.99007 10.5193 5.21128 15.6452 4.8818C16.9506 4.76353 18.2689 4.71002 19.5652 4.72035C27.6139 4.787 35.4726 7.37024 42.2908 12.1894C43.3139 12.9957 44.5269 13.4247 45.8917 13.4594C47.0007 13.4895 48.2215 13.2661 49.6244 12.7817C50.6979 12.4776 51.7662 12.1059 52.7079 11.7773C53.5431 11.4751 54.3718 11.1484 55.143 10.8396C56.2708 10.405 57.4605 9.99666 58.4914 9.69159C60.9936 8.95003 63.0463 8.85523 64.9517 9.39309L64.9634 9.39591C66.1932 9.54328 67.4372 9.63621 68.6599 9.67094C69.8174 9.73383 70.9625 9.81456 72.0606 9.9103C76.9617 10.3374 81.3978 11.0987 85.6233 12.2382C86.7504 12.5414 87.8801 12.8793 88.9833 13.2398C93.973 15.0552 98.7843 15.9714 103.364 15.9807C103.368 15.8719 103.372 15.7639 103.375 15.655C98.8095 15.6456 94.0124 14.7342 89.0337 12.9225C87.9253 12.5602 86.7924 12.2223 85.6627 11.9172C81.4288 10.7758 76.983 10.0126 72.0742 9.58458C70.9742 9.48884 69.8277 9.40811 68.6664 9.34522C67.4475 9.31049 66.2106 9.2185 64.9873 9.07112C63.0547 8.52763 60.9762 8.62337 58.4481 9.3715C57.4134 9.67845 56.2191 10.0877 55.0862 10.5251C54.315 10.833 53.4882 11.1597 52.6563 11.4601C51.7171 11.7877 50.6514 12.1594 49.5785 12.4626C48.1892 12.9432 46.9852 13.1609 45.8949 13.1337C44.5657 13.0999 43.3869 12.6841 42.3902 11.8984C38.8978 9.43064 35.1535 7.54202 31.2561 6.28231C27.4814 5.06297 23.5485 4.42748 19.5659 4.39463C18.2644 4.3843 16.9409 4.43781 15.6323 4.55608C10.5135 4.88556 5.60008 6.65309 1.09036 8.87588C1.08584 8.9904 1.08326 9.10679 1.08132 9.22413Z" fill="#804520"/>
<path d="M1.27121 11.9557C1.28284 12.0636 1.29382 12.1706 1.30481 12.2786C2.85627 11.7933 4.39998 11.3052 5.92238 10.8236C9.47681 9.70098 13.1527 8.53983 16.7646 7.4566C17.7037 7.25103 18.6816 7.07831 19.6647 6.94502C20.6574 6.81079 21.6321 6.71598 22.5635 6.66341C27.6261 6.40528 32.65 8.83833 37.5091 11.1907C38.757 11.7952 40.0482 12.4203 41.3109 12.9845C42.5026 13.6181 43.7014 14.3033 44.8705 15.0186C45.8433 15.6344 46.8173 15.5865 47.8488 15.5349L48.1039 15.5227C48.8764 15.4279 49.6877 15.2448 50.663 14.9454C51.6157 14.6891 52.593 14.3634 53.6264 14.018L54.1916 13.8302C55.2024 13.4745 56.3457 13.0718 57.4541 12.7752C59.1128 12.3096 60.5951 12.0223 61.9877 11.8965C63.1988 11.8196 64.145 11.9613 65.0544 12.3546L65.0732 12.3603C65.7042 12.4691 66.4386 12.5771 67.5328 12.6353C68.8646 12.7357 70.2101 12.8559 71.5277 12.992C77.2046 13.5796 82.7826 14.508 88.1055 15.7526C89.1351 15.9873 90.1918 16.2436 91.5327 16.5824C94.1835 17.3193 96.8666 17.5774 99.5478 17.5774C100.812 17.5774 102.075 17.5202 103.335 17.4291C103.335 17.3193 103.337 17.2104 103.339 17.1015C99.4154 17.3859 95.4553 17.3418 91.5715 16.2614C90.228 15.9216 89.17 15.6653 88.1398 15.4307C82.811 14.185 77.2272 13.2548 71.5432 12.6672C70.2236 12.5302 68.8769 12.41 67.5418 12.3096C66.4593 12.2523 65.732 12.1453 65.1081 12.0383C64.1773 11.6365 63.211 11.4929 61.9767 11.5718C60.5725 11.6975 59.0811 11.9867 57.4134 12.4551C56.3005 12.7526 55.154 13.1563 54.1425 13.513L53.578 13.7007C52.5465 14.0442 51.5718 14.369 50.621 14.6253C49.6515 14.9228 48.8487 15.104 48.091 15.1979L47.841 15.2091C46.8347 15.2589 45.8839 15.3058 44.9558 14.7182C43.7835 14.0001 42.5801 13.313 41.3807 12.6747C40.1147 12.1087 38.8255 11.4845 37.5789 10.8809C32.7017 8.51918 27.6584 6.07674 22.5564 6.33769C21.6218 6.39026 20.6419 6.48506 19.6453 6.62023C18.6584 6.75447 17.6766 6.92812 16.7271 7.13557C13.1081 8.22068 9.43158 9.38183 5.87716 10.5054C4.35863 10.9851 2.8188 11.4713 1.27121 11.9557Z" fill="#804520"/>
<path d="M1.55282 15.6325C1.55798 15.7376 1.56185 15.8437 1.56573 15.9498L3.40205 15.9498C3.76118 15.9394 4.11901 15.9244 4.47684 15.9C4.63961 15.9 4.8069 15.9019 4.97483 15.9047C5.97534 15.9178 7.00944 15.931 8.03449 15.4579C9.49424 14.7511 10.9178 13.9081 12.2942 13.0943C15.0303 11.4741 17.6152 9.94409 20.4908 9.36587C21.5049 9.10679 22.4001 8.93408 23.2307 8.83645C26.7684 8.41874 30.1729 10.2022 33.4651 11.9285C35.2904 12.885 37.1784 13.8753 39.0897 14.4976C39.8854 14.7633 40.7483 15.1012 41.5829 15.4279C42.0285 15.6025 42.4497 15.7677 42.8598 15.9216C43.9998 16.4022 45.1735 16.9391 46.3451 17.5155L46.3613 17.5239H46.3794C46.6661 17.5286 46.9794 17.5483 47.3114 17.569C48.0671 17.6159 48.9242 17.6694 49.6961 17.5511C50.8968 17.3662 52.0659 17.0114 52.9508 16.7232C53.8202 16.4398 54.6631 16.1187 55.4518 15.8137C56.5672 15.4072 57.6834 15.0984 58.6787 14.921C60.4937 14.6112 62.4334 14.3643 64.4131 15.027C64.6973 15.1031 64.9634 15.181 65.2456 15.2636C65.7727 15.4166 66.3714 15.5912 67.1885 15.7855C67.4495 15.8474 67.7111 15.9103 67.972 15.9732C68.9396 16.2041 69.9394 16.4444 70.9283 16.6585C75.0137 17.4498 79.0674 17.7708 82.9874 18.0806C84.0124 18.1622 85.073 18.2458 86.1174 18.3368C87.242 18.4354 88.2302 18.5311 89.1396 18.6316C91.3544 19.3102 93.588 19.5505 95.8144 19.5505C98.3406 19.5505 100.86 19.2417 103.339 18.915C103.337 18.8062 103.336 18.6982 103.335 18.5893C98.6797 19.2023 93.8812 19.7552 89.1771 18.3096L89.1629 18.3068C88.2502 18.2063 87.2588 18.1106 86.1304 18.012C85.0846 17.921 84.0241 17.8365 82.9984 17.7558C79.0829 17.4451 75.0337 17.125 70.958 16.3356C69.973 16.1215 68.9738 15.8822 68.0069 15.6513C67.7453 15.5884 67.4843 15.5255 67.2227 15.4635C66.4089 15.2702 65.8134 15.0965 65.2876 14.9435C65.0041 14.8609 64.7373 14.783 64.4563 14.7079C62.4482 14.0349 60.4872 14.2836 58.6522 14.5971C57.6478 14.7764 56.5227 15.0881 55.3969 15.4983C54.6095 15.8024 53.7692 16.1225 52.903 16.405C52.0239 16.6913 50.8626 17.0433 49.6735 17.2264C48.9178 17.3428 48.0697 17.2902 47.3217 17.2433C46.9949 17.2226 46.6862 17.2029 46.4 17.1982C45.2309 16.6228 44.0599 16.0877 42.9186 15.6062C42.5071 15.4513 42.0867 15.2871 41.641 15.1125C40.8045 14.7858 39.9397 14.4469 39.1394 14.1794C37.2411 13.5608 35.3602 12.5752 33.5413 11.6215C30.2272 9.88402 26.7994 8.08739 23.2146 8.51167C22.3775 8.61023 21.4758 8.78389 20.4585 9.04296C17.5597 9.62682 14.9625 11.1634 12.2135 12.7911C10.8403 13.604 9.4206 14.4441 7.96861 15.1472C6.97779 15.6053 5.96178 15.5912 4.97871 15.578C4.81013 15.5762 4.64155 15.5743 4.47297 15.5743C3.50282 15.6391 2.52298 15.6456 1.55412 15.6325H1.55282Z" fill="#804520"/>
<path d="M1.58577 19.6444C3.06942 20.1494 4.59699 20.6563 6.14652 21.0055C7.74836 21.3012 9.33342 20.8478 11.1368 19.5787C11.6167 19.2314 12.094 18.8822 12.5688 18.5349C15.4198 16.4473 18.1132 14.476 21.1367 13.1938C22.2935 12.7001 23.3438 12.3049 24.3475 11.9848C25.0147 11.7867 25.6135 12.0542 26.3065 12.3631L26.4325 12.4185C28.252 13.0211 30.0127 13.8124 31.716 14.5774C34.0774 15.6381 36.3078 16.6397 38.7079 17.2001C39.7582 17.3672 40.8091 17.5971 41.7121 17.8008C42.679 18.0186 43.642 18.2786 44.576 18.5734L44.5947 18.5771C45.5804 18.625 46.639 18.7996 47.6628 18.9695L48.0878 19.039C49.0941 19.145 50.1766 19.2624 51.5014 19.4088H51.513C52.3353 19.3712 53.0955 19.2671 54.003 19.1347C55.2812 18.9319 56.5227 18.6344 57.569 18.3706C58.7058 18.0083 59.8258 17.5774 60.9019 17.0874C61.4064 16.8837 61.9631 17.0931 62.5018 17.2949C62.7802 17.4 63.067 17.507 63.3441 17.5558C63.7071 17.7107 64.1482 17.905 64.6152 18.1106C64.9621 18.2627 65.316 18.4185 65.6467 18.5621C66.2894 18.8409 67.1362 19.1713 67.9875 19.2595C69.1986 19.5233 70.4542 19.7664 71.7195 19.9833C77.1206 20.9069 82.3589 21.3021 87.2148 21.5903C87.5656 21.61 87.9324 21.625 88.2993 21.641C89.0298 21.6719 89.7855 21.7039 90.3572 21.7649C91.2162 21.9404 92.1237 22.0277 93.0693 22.0277C93.7889 22.0277 94.531 21.977 95.2912 21.8747C97.4105 21.7039 99.5445 21.2186 101.608 20.7502C102.192 20.6169 102.78 20.4836 103.371 20.3569C103.367 20.247 103.363 20.1381 103.361 20.0283C102.762 20.1579 102.166 20.293 101.575 20.4273C99.5161 20.8947 97.3879 21.3791 95.2751 21.5499C93.5299 21.7846 91.8841 21.747 90.3804 21.4401C89.7965 21.3781 89.0389 21.3462 88.3058 21.3153C87.9402 21.2993 87.5733 21.2843 87.2239 21.2646C82.3718 20.9764 77.1381 20.5821 71.7447 19.6594C70.4801 19.4426 69.2257 19.1995 68.0153 18.9366H68.0069C67.175 18.8493 66.3417 18.5236 65.7087 18.2495C65.378 18.1059 65.0241 17.9501 64.6779 17.798C64.207 17.5906 63.7626 17.3944 63.3964 17.2395L63.3783 17.2339C63.1135 17.1888 62.8429 17.0865 62.5567 16.9795C61.9903 16.7664 61.4038 16.5468 60.8406 16.7739C59.7671 17.263 58.6535 17.692 57.5277 18.0505C56.4897 18.3124 55.2522 18.609 53.981 18.8109C53.0813 18.9413 52.3262 19.0446 51.5137 19.0821C50.1921 18.9357 49.1103 18.8184 48.1097 18.7142L47.6886 18.6447C46.6642 18.4748 45.6056 18.3002 44.6135 18.2514C43.6788 17.9557 42.7145 17.6957 41.7463 17.4779C40.8414 17.2733 39.7872 17.0424 38.7376 16.8762C36.3581 16.3205 34.1349 15.3218 31.7812 14.2648C30.076 13.4979 28.3127 12.7066 26.4861 12.1012L26.3724 12.0505C25.6807 11.7417 25.027 11.4507 24.3042 11.6647C23.2934 11.9867 22.2386 12.3837 21.0773 12.8793C18.0351 14.17 15.3326 16.1478 12.4725 18.242C11.9971 18.5893 11.5211 18.9376 11.0418 19.2839C9.27852 20.5249 7.73286 20.9689 6.17688 20.6816C4.62476 20.3315 3.08751 19.8199 1.59482 19.3121C1.59289 19.4229 1.5903 19.5327 1.58642 19.6435L1.58577 19.6444Z" fill="#804520"/>
<path d="M1.42752 22.6003C1.90743 22.8688 2.38476 23.1391 2.8595 23.4076C3.80769 23.9445 4.78882 24.5002 5.75703 25.0183C6.76788 25.5421 7.74255 25.7646 8.69461 25.7646C11.3118 25.7646 13.7585 24.0797 16.3105 22.3234C18.0247 21.1425 19.7977 19.9223 21.6295 19.2642C22.8923 18.8249 24.0872 18.9545 25.1911 19.16C25.6316 19.2548 26.0934 19.3487 26.541 19.4379C26.9221 19.5149 27.3038 19.5918 27.6804 19.6716L27.7663 19.6895C31.9582 20.5765 35.9176 21.4147 40.0579 20.7558C41.318 20.6037 42.4684 20.5427 43.5723 20.5709C44.8156 20.6009 45.9737 20.7417 47.1105 21.0008L47.1202 21.0027C47.8449 21.0778 48.5968 21.1172 49.3247 21.1557L49.7671 21.1791C50.727 21.2308 51.5899 21.2383 52.407 21.2017C53.4159 21.1716 54.3098 21.1078 55.1411 21.0064C55.2916 20.9783 55.4427 20.9501 55.5984 20.921C56.3153 20.7877 57.1292 20.6356 57.8726 20.4338C58.1555 20.3578 58.4371 20.278 58.7207 20.1982C59.3304 20.0274 59.9615 19.85 60.5906 19.7007C61.5575 19.3957 62.5051 19.7664 63.4216 20.125L63.5385 20.171C63.9312 20.3353 64.3659 20.5418 64.8271 20.7596C65.7456 21.1942 66.7868 21.687 67.6807 21.9254C68.8944 22.3591 70.2127 22.8124 71.5826 23.1776C75.5194 24.1585 79.4045 24.1585 83.1618 24.1585C84.6189 24.1585 86.1258 24.1585 87.6121 24.2158L87.6805 24.2186C88.7631 24.2533 89.8818 24.2899 90.8151 24.441L90.8255 24.4429C91.0186 24.4486 91.2117 24.4551 91.4042 24.4617C92.6708 24.5068 93.867 24.5499 95.1485 24.2655C96.5617 23.9079 97.9647 23.4845 99.3223 23.0743C100.715 22.6538 102.081 22.2408 103.438 21.9019C103.432 21.793 103.426 21.6842 103.42 21.5753C102.054 21.9169 100.679 22.3318 99.2771 22.7552C97.922 23.1644 96.5204 23.5878 95.113 23.9435C93.8522 24.2233 92.6656 24.181 91.4087 24.136C91.2175 24.1294 91.0263 24.1219 90.8338 24.1163C89.8928 23.9642 88.7702 23.9276 87.6851 23.8929L87.6166 23.89C86.1284 23.8328 84.6202 23.8328 83.1618 23.8328C79.4136 23.8328 75.5382 23.8328 71.6207 22.8566C70.2572 22.4933 68.9428 22.0408 67.7266 21.6062C66.8397 21.3706 65.8063 20.8806 64.8943 20.4488C64.4311 20.2301 63.9945 20.0236 63.5966 19.8565L63.4778 19.8105C62.58 19.4585 61.562 19.0605 60.5499 19.3806C59.9227 19.5289 59.291 19.7064 58.6794 19.8781C58.3965 19.9579 58.1148 20.0368 57.8326 20.1137C57.0949 20.3137 56.285 20.4648 55.57 20.5972C55.4143 20.6263 55.2632 20.6544 55.1178 20.6826C54.2956 20.7821 53.4055 20.8459 52.4005 20.8759C51.588 20.9126 50.7295 20.905 49.7742 20.8534L49.3318 20.83C48.6077 20.7915 47.8591 20.752 47.139 20.6779C45.9931 20.4169 44.8279 20.2752 43.5748 20.2442C42.4632 20.217 41.3058 20.278 40.0359 20.431C35.9209 21.0862 31.9744 20.2508 27.796 19.3666L27.7101 19.3487C27.3329 19.2689 26.9505 19.192 26.5694 19.115C26.1231 19.0258 25.6613 18.9329 25.2195 18.8371C24.093 18.6269 22.8742 18.4955 21.5766 18.947C19.7228 19.6134 17.9401 20.8412 16.2155 22.0277C12.7787 24.3941 9.53235 26.63 5.82937 24.7114C4.86374 24.1942 3.88455 23.6394 2.93701 23.1034C2.44483 22.8246 1.94941 22.544 1.45142 22.2671C1.44367 22.3778 1.43462 22.4895 1.42623 22.6003H1.42752Z" fill="#804520"/>
<path d="M1.16463 25.1901C3.16306 26.5512 5.22869 27.9498 7.37632 29.0396C8.15658 29.3945 8.95621 29.7577 9.79718 29.7577C9.98578 29.7577 10.1763 29.7399 10.3695 29.6986C11.8996 29.4911 13.4524 29.2039 14.9547 28.9261C18.9057 28.1958 22.9917 27.4411 27.0332 28.069C27.776 28.1976 28.595 28.2136 29.4663 28.116C31.0481 27.9386 32.6306 27.4073 34.1607 26.8929C34.9578 26.6254 35.7826 26.3484 36.5881 26.1288C37.5983 25.7777 38.5251 25.4755 39.4301 25.2042C42.5608 24.2655 45.3698 23.7192 48.018 23.5333C48.6168 23.4977 49.2084 23.4761 49.7801 23.4554C50.2354 23.4385 50.7063 23.4216 51.1662 23.3982C52.2481 23.3972 53.3719 23.3982 54.4777 23.2884C55.4795 23.125 56.2888 22.942 56.9574 22.7289L57.1324 22.6726C57.8681 22.437 58.629 22.1929 59.406 22.0934C60.5221 21.8681 61.5446 22.2126 62.6271 22.5759C63.0818 22.7289 63.5521 22.8866 64.0242 22.9964C64.5448 23.1644 65.0551 23.37 65.6461 23.6084C66.0698 23.7802 66.5084 23.9576 67.0128 24.1454C68.2065 24.5894 69.4408 25.0493 70.6964 25.4586C75.4154 26.9605 80.0259 27.4223 84.7908 26.8713C84.9994 26.8675 85.2119 26.86 85.4244 26.8535C86.0858 26.83 86.7698 26.8065 87.5514 26.8966C88.6197 27.0215 89.6725 27.0919 90.6814 27.106C93.8302 27.2468 96.7394 25.9917 99.8197 24.6645C101.023 24.1463 102.261 23.6131 103.521 23.1663C103.512 23.0574 103.504 22.9485 103.497 22.8397C102.221 23.2902 100.972 23.829 99.7583 24.3519C96.6954 25.6717 93.8031 26.9182 90.6866 26.7802C89.6803 26.7662 88.6326 26.6958 87.5694 26.5718C86.7763 26.4799 86.0864 26.5043 85.4192 26.5268C85.208 26.5343 84.9955 26.5418 84.7811 26.5456C80.0304 27.0956 75.4413 26.6357 70.7442 25.1404C69.4925 24.732 68.2594 24.273 67.0671 23.829C66.5646 23.6422 66.1273 23.4648 65.7042 23.294C65.1113 23.0546 64.5984 22.8481 64.0656 22.6763C63.5934 22.5665 63.1277 22.4097 62.6762 22.2586C61.6227 21.9038 60.5324 21.5377 59.3821 21.7696C58.596 21.87 57.828 22.1159 57.0853 22.3544L56.9109 22.4097C56.2495 22.621 55.4472 22.8021 54.4577 22.9636C53.3642 23.0715 52.2442 23.0715 51.1616 23.0715C50.6992 23.0959 50.2283 23.1128 49.7736 23.1297C49.2013 23.1504 48.6084 23.172 48.0077 23.2076C45.3478 23.3944 42.5272 23.9426 39.3855 24.885C38.4793 25.1573 37.5492 25.4595 36.5422 25.8096C35.7368 26.0293 34.9106 26.3071 34.111 26.5756C32.5886 27.0872 31.0139 27.6157 29.4489 27.7912C28.5911 27.8869 27.787 27.8719 27.0564 27.7452C22.9885 27.1125 18.8902 27.87 14.927 28.6022C13.4265 28.8801 11.8751 29.1664 10.343 29.3747C9.33277 29.5888 8.37295 29.1513 7.44478 28.7299C5.29004 27.6363 3.21215 26.2264 1.20145 24.8559C1.20145 24.8606 1.20208 24.8644 1.20079 24.8691C1.18722 24.9761 1.17561 25.084 1.16463 25.1901Z" fill="#804520"/>
<path d="M1.08196 27.0271C1.0839 27.152 1.08778 27.2759 1.0936 27.3979C2.30144 28.2671 3.5461 29.1589 4.7927 30.0112C9.305 33.0731 14.2294 33.0825 18.9917 33.0919C21.8601 33.0975 24.8255 33.1032 27.6604 33.779L27.67 33.7809H27.6791C28.5614 33.7687 29.3371 33.6814 30.0489 33.5153C30.8763 33.321 31.6378 33.03 32.3774 32.6245C38.4612 29.2255 44.4403 26.11 50.705 25.3272L51.4219 25.2389C52.3798 25.1216 53.37 24.9996 54.3363 24.8616C55.5499 24.6757 56.7584 24.5603 57.9262 24.5152C59.1528 24.4683 60.3787 24.4992 61.5704 24.6063C62.3701 24.7349 63.16 24.9376 64.0533 25.2436C64.8406 25.513 65.5789 25.805 66.4335 26.1429C66.7157 26.2536 67.007 26.3691 67.3132 26.4883C68.0405 26.7727 68.7826 27.0712 69.5002 27.3603C69.9943 27.5593 70.4904 27.7593 70.9871 27.9564C75.5414 29.7512 80.1247 29.6977 84.5576 29.647C85.5103 29.6357 86.4959 29.6244 87.4674 29.6319C88.526 29.6779 89.5789 29.6629 90.5942 29.5869C93.5331 29.3682 96.2433 28.0803 99.1118 26.7173C100.433 26.0894 101.799 25.4398 103.176 24.9141C103.337 24.8475 103.497 24.7846 103.658 24.7273C103.647 24.6194 103.637 24.5115 103.627 24.4035C103.457 24.4636 103.288 24.5293 103.118 24.5997C101.737 25.1272 100.368 25.7777 99.0446 26.4066C96.1903 27.763 93.493 29.0453 90.5826 29.2612C89.573 29.3363 88.526 29.3513 87.4706 29.3053C86.4959 29.2978 85.509 29.31 84.555 29.3212C80.137 29.3719 75.5685 29.4245 71.0439 27.641C70.5472 27.4439 70.0518 27.2449 69.5577 27.0459C68.8401 26.7568 68.0973 26.4573 67.3687 26.1739C67.0632 26.0537 66.7719 25.9392 66.4903 25.8275C65.6332 25.4886 64.8943 25.1967 64.103 24.9254C63.202 24.6166 62.403 24.412 61.5898 24.2815C60.3865 24.1735 59.1534 24.1425 57.9211 24.1895C56.7474 24.2345 55.5331 24.3509 54.3143 24.5368C53.3506 24.6757 52.3611 24.7968 51.4039 24.9141L50.6869 25.0024C44.3938 25.7881 38.3985 28.912 32.2999 32.3184C31.5752 32.7164 30.8272 33.0027 30.0147 33.1933C29.3158 33.3566 28.5536 33.442 27.6868 33.4542C24.8377 32.7765 21.8659 32.7709 18.9923 32.7662C14.2539 32.7568 9.35343 32.7474 4.8857 29.7155C3.60422 28.8388 2.32275 27.9198 1.08196 27.0271Z" fill="#804520"/>
<path d="M36.4867 34.4239C36.672 34.4314 36.8574 34.437 37.0428 34.4436C37.896 33.9339 38.7402 33.4064 39.5702 32.8882C43.5458 30.4054 47.6557 27.8391 52.0762 27.5678H52.0853C53.131 27.3716 54.189 27.2346 55.0862 27.1257C57.0413 26.8882 59.0566 26.8356 61.0757 26.967C61.874 27.0121 62.5632 27.0515 63.3247 27.258C64.0371 27.4702 64.7515 27.7161 65.4413 27.9536L65.6319 28.0184C66.4851 28.3037 67.4288 28.6454 68.6922 29.1251C69.2761 29.3466 69.86 29.5728 70.4465 29.799C70.9193 29.9821 71.3934 30.1651 71.8694 30.3472C75.8159 31.882 79.6158 31.8801 83.641 31.8791H84.4181L84.4891 31.8829C85.2093 31.9176 85.9547 31.9542 86.6981 31.9627C87.8691 31.9777 89.0356 31.9167 90.1634 31.7834C91.4507 31.6313 92.5881 31.392 93.7404 31.0306C95.6794 30.3528 97.5803 29.3278 99.4192 28.3356C100.333 27.8428 101.278 27.3331 102.226 26.8666C102.754 26.6122 103.288 26.4142 103.824 26.264C103.822 26.2442 103.82 26.2255 103.817 26.2058C103.806 26.1185 103.797 26.0302 103.787 25.9429C103.24 26.095 102.696 26.2968 102.157 26.5568C101.206 27.0252 100.26 27.5359 99.3437 28.0296C97.5112 29.018 95.6168 30.0403 93.6926 30.7124C92.5513 31.07 91.4236 31.3075 90.1466 31.4586C89.024 31.591 87.8653 31.651 86.6994 31.637C85.9586 31.6276 85.2158 31.5919 84.4969 31.5572L84.4219 31.5534C84.1591 31.5534 83.9 31.5534 83.641 31.5534C79.6313 31.5553 75.8443 31.5572 71.9249 30.0328C71.4489 29.8507 70.9755 29.6676 70.5027 29.4846C69.9155 29.2583 69.3316 29.0321 68.7477 28.8106C67.4818 28.33 66.5362 27.9883 65.681 27.702L65.4917 27.6373C64.8 27.3988 64.0849 27.1529 63.3673 26.9389C62.5877 26.7277 61.8921 26.6882 61.086 26.6423C59.0578 26.5099 57.0329 26.5634 55.0694 26.8018C54.1709 26.9107 53.111 27.0478 52.0633 27.243C47.6053 27.518 43.4779 30.0957 39.4856 32.5888C38.5019 33.2036 37.4994 33.8288 36.4867 34.4239Z" fill="#804520"/>
<path d="M1.34549 29.3635C1.37907 29.5118 1.41589 29.6554 1.45594 29.7962C3.30065 31.0522 5.18863 32.2189 7.13604 33.2008C7.39569 33.213 7.6547 33.2261 7.915 33.2383C5.65304 32.1607 3.47116 30.8184 1.34549 29.3635Z" fill="#804520"/>
<path d="M42.1655 34.6144C42.3612 34.622 42.5569 34.6276 42.752 34.6332C44.5618 33.5988 46.3774 32.4198 48.1957 31.0963C49.3828 30.2712 50.7625 29.8103 52.1848 29.7652L52.2009 29.7624C53.1414 29.5287 54.1322 29.356 55.1475 29.2518C56.8883 29.0716 58.7678 29.0753 61.0615 29.264H61.0763L61.0905 29.2602C61.7442 29.0547 62.9133 29.3898 63.9448 29.6845C64.1185 29.7343 64.289 29.7831 64.4525 29.8281C65.6358 30.1529 66.8081 30.5547 67.8151 30.9067C68.1819 31.0325 68.5494 31.1592 68.9176 31.2859C69.5112 31.4905 70.1255 31.7027 70.7345 31.9073C71.8927 32.2969 72.8396 32.5963 73.7148 32.8488C76.153 33.6373 78.4835 33.7218 80.6615 33.7415C81.2195 33.7621 81.7886 33.7725 82.3376 33.7818C82.8169 33.7903 83.3123 33.7987 83.8096 33.8147C85.613 33.9104 87.4338 33.8626 89.2217 33.672C90.1427 33.5744 91.0509 33.4392 91.9209 33.2703C94.4697 33.0065 96.8937 31.5487 99.2371 30.1388C99.6647 29.8816 100.106 29.616 100.54 29.3625C101.613 28.7721 102.752 28.3628 103.979 28.1357C103.974 28.0277 103.968 27.9179 103.962 27.809C102.714 28.0399 101.554 28.4567 100.46 29.0584C100.024 29.3137 99.582 29.5794 99.1538 29.8366C96.8259 31.2371 94.4186 32.6845 91.8983 32.9455C91.0257 33.1154 90.1214 33.2496 89.2055 33.3472C87.426 33.5368 85.6123 33.5838 83.8154 33.489C83.3155 33.473 82.8194 33.4646 82.3402 33.4561C81.7905 33.4467 81.2228 33.4364 80.6647 33.4158C78.4964 33.396 76.1782 33.3116 73.7587 32.5296C72.8835 32.2771 71.9392 31.9786 70.7836 31.59C70.1745 31.3854 69.5603 31.1733 68.9667 30.9686C68.5992 30.841 68.231 30.7142 67.8648 30.5894C66.8559 30.2365 65.6803 29.8338 64.4925 29.508C64.3291 29.463 64.1599 29.4142 63.9861 29.3644C62.941 29.0659 61.7571 28.728 61.0589 28.9364C58.7627 28.7486 56.8786 28.7458 55.1314 28.9261C54.1128 29.0312 53.1175 29.2039 52.1718 29.4395C50.7218 29.4864 49.3144 29.9577 48.1007 30.8025C46.1171 32.2452 44.1374 33.5171 42.1655 34.6144Z" fill="#804520"/>
<path d="M2.53589 31.9542C3.01193 32.5109 3.601 32.8854 4.30117 33.0262C3.71339 32.6827 3.12561 32.325 2.53589 31.9542Z" fill="#804520"/>
<path d="M90.4211 35.1298C89.4962 35.3466 88.5512 35.5062 87.5882 35.6076C88.2677 35.6151 88.9465 35.6226 89.6267 35.6292H89.6286C89.9063 35.5757 90.1815 35.5156 90.4553 35.4518C91.4462 35.218 92.4351 34.9148 93.3942 34.5497L93.402 34.5459L94.0569 34.2193C97.1954 32.6498 100.563 30.9649 103.96 30.2656C103.968 30.1557 103.974 30.045 103.979 29.9323C100.548 30.6288 97.1515 32.3269 93.9865 33.9104L93.3361 34.2352C92.3853 34.5976 91.4042 34.8989 90.4211 35.1298Z" fill="#804520"/>
<path d="M45.5616 34.7215C45.7502 34.728 45.9389 34.7337 46.1275 34.7393C46.526 34.5037 46.9187 34.269 47.3069 34.0353C49.2356 32.8948 51.1927 32.3626 52.8533 31.9927C53.9442 31.7383 55.0487 31.5694 56.1345 31.4896C57.2467 31.4089 58.3719 31.4192 59.4803 31.5215H59.4913L59.5022 31.5206C60.1249 31.3967 60.8593 31.3741 61.7487 31.4502C62.56 31.5206 63.4126 31.6764 64.0979 31.8012C65.4271 32.0443 66.861 32.4217 68.6108 32.9887C68.9751 33.1004 69.3394 33.2121 69.7037 33.3247C70.3476 33.5228 71.0149 33.7274 71.6763 33.9255C72.8873 34.2878 73.8859 34.5675 74.8193 34.805L75.0705 34.867C76.0904 35.1195 77.0644 35.3598 78.074 35.478C79.2825 35.4977 80.4922 35.5156 81.7007 35.5325C81.6775 35.5297 81.6529 35.5268 81.6297 35.524C81.1336 35.4602 80.6402 35.4114 80.1628 35.3645C79.7004 35.3185 79.2224 35.2715 78.7502 35.2114C77.5062 35.1392 76.3404 34.851 75.106 34.5459L74.8548 34.484C73.9247 34.2465 72.9274 33.9677 71.7189 33.6063C71.0569 33.4082 70.3916 33.2036 69.7476 33.0056C69.3827 32.8929 69.0184 32.7812 68.6554 32.6704C66.9004 32.1016 65.4601 31.7224 64.1237 31.4783C63.4352 31.3525 62.5787 31.1958 61.7603 31.1254C60.8625 31.0475 60.1171 31.0709 59.4822 31.1948C58.37 31.0935 57.2396 31.0822 56.1229 31.1639C55.0287 31.2437 53.9171 31.4145 52.8184 31.6708C51.1461 32.0434 49.1729 32.5794 47.2229 33.733C46.6784 34.0606 46.1242 34.391 45.5604 34.7215H45.5616Z" fill="#804520"/>
<path d="M93.9762 35.6705C94.2927 35.6733 94.6092 35.6761 94.9257 35.6789C95.0058 35.6517 95.0865 35.6235 95.1685 35.5944C95.4166 35.5081 95.6717 35.4189 95.9378 35.3269L95.9546 35.3185C98.4872 33.7771 101.08 32.8178 103.634 32.4517C103.662 32.3419 103.688 32.2283 103.711 32.1138C101.107 32.4724 98.4614 33.442 95.879 35.0125C95.6161 35.1026 95.3629 35.1917 95.1181 35.2772C94.7183 35.417 94.3418 35.5484 93.9762 35.6705Z" fill="#804520"/>
<path d="M49.8285 34.8491C50.0804 34.8566 50.3336 34.8641 50.5855 34.8707H50.5868C51.0208 34.7102 51.4297 34.6022 51.8347 34.5412L51.8444 34.5394C52.56 34.3328 53.9584 33.9724 55.2858 33.871C56.4161 33.7837 57.5426 33.8353 58.6316 34.0221L58.6483 34.025L58.6645 34.0212C59.4887 33.8072 60.4 33.7584 61.2804 33.7105L61.449 33.7021C63.4636 33.5913 65.2547 33.8654 66.9256 34.5394L66.9347 34.5422C67.8112 34.7815 68.7012 35.0387 69.5616 35.2865L69.6682 35.3175C69.683 35.3213 69.6972 35.326 69.7121 35.3307H69.714C70.1255 35.3391 70.5375 35.3466 70.9496 35.3541C70.535 35.2359 70.1222 35.1166 69.7101 34.9974L69.6036 34.9665C68.7445 34.7186 67.8557 34.4624 66.9792 34.223C65.2883 33.5415 63.4771 33.2646 61.4419 33.3763L61.2727 33.3848C60.3904 33.4326 59.477 33.4815 58.6419 33.6964C57.5458 33.5087 56.4122 33.458 55.2748 33.5453C53.9365 33.6476 52.5303 34.0099 51.8082 34.2174C51.1797 34.3131 50.5448 34.5149 49.8285 34.8491Z" fill="#804520"/>
<path d="M98.0305 35.7014C98.3173 35.7033 98.6041 35.7052 98.8902 35.7061H98.8915C100.073 35.2781 101.283 34.9815 102.511 34.8163C102.613 34.7008 102.711 34.575 102.802 34.4389C101.174 34.6295 99.5781 35.0519 98.0305 35.7014Z" fill="#804520"/>
</svg>
