<svg width="102" height="99" viewBox="0 0 102 99" fill="none" xmlns="http://www.w3.org/2000/svg">
<path fill-rule="evenodd" clip-rule="evenodd" d="M13.2761 62.6741C-3.94607 117.36 148.823 41.4226 78.2258 17.8721C79.7131 12.808 49.861 45.9676 25.9331 38.9398C18.1968 36.6676 10.6907 38.9479 9.20342 44.0119C7.7161 49.076 5.53976 60.4019 13.2761 62.6741Z" fill="#542B11"/>
<path fill-rule="evenodd" clip-rule="evenodd" d="M32.6342 44.2297C32.6342 44.2297 39.0229 44.8709 41.2062 43.8429C43.3896 42.815 59.99 36.8407 63.7352 34.1015C67.4805 31.3623 69.4286 28.7129 70.1504 27.4393C70.8723 26.1658 73.7729 19.0889 79.3056 19.8459C84.8382 20.6028 84.1066 25.4623 81.9718 27.9401C79.8369 30.4178 77.0189 34.4142 79.1883 35.8024C81.3576 37.1907 88.5364 33.9577 90.8612 39.2308C93.186 44.5039 90.0656 49.5298 84.0432 48.8794C78.0208 48.229 66.3192 48.8817 59.6459 50.3937C52.9725 51.9057 37.8594 57.0148 32.9872 60.7918C28.1151 64.5687 27.9038 71.3171 24.6912 72.243C21.483 73.1536 14.5822 71.5107 16.5478 66.3793C18.5279 61.2522 23.166 59.0256 20.8914 56.004C18.6168 52.9824 14.2502 55.0383 13.3528 48.0812C12.4554 41.1241 15.864 39.154 21.2467 40.3677C26.6293 41.5814 32.606 44.2715 32.606 44.2715L32.6342 44.2297Z" fill="#F5E1C7"/>
</svg>
