<svg width="309" height="226" viewBox="0 0 309 226" fill="none" xmlns="http://www.w3.org/2000/svg">
<path fill-rule="evenodd" clip-rule="evenodd" d="M236.209 168.801C238.114 169.153 238.076 171.772 235.523 173.663C232.96 175.551 230.014 179.117 228.24 182.295C226.466 185.473 222.216 197.418 223.747 200.825C225.279 204.232 228.612 199.722 229.845 196.603C231.077 193.484 236.729 182.158 239.723 181.662C242.717 181.167 234.136 193.848 231.013 202.326C227.889 210.804 227.959 212.724 229.386 213.252C230.814 213.78 241.402 193.559 244.468 193.194C247.533 192.828 240.818 201.31 238.433 206.197C236.045 211.094 234.964 212.991 236.4 214.57C237.835 216.148 252.299 194.959 254.133 195.181C255.967 195.403 252.9 203.691 250.642 207.775C248.384 211.858 247.687 219.991 249.556 221.173C251.424 222.354 256.306 213.65 259.333 206.203C262.361 198.755 266.918 187.216 266.728 184.629C266.539 182.041 266.136 179.806 266.364 179.033C266.591 178.259 280.012 162.777 281.486 158.463C282.961 154.149 287.78 149.966 289.607 143.748C291.433 137.529 293.987 133.849 289.104 131.782C284.221 129.715 273.363 130.749 270.713 135.46C268.063 140.171 266.414 144.335 259.794 148.927C253.16 153.526 248.6 156.825 242.108 158.083C235.615 159.34 229.798 159.749 224.454 162.817C219.117 165.898 211.092 178.099 213.052 180.791C215.004 183.471 225.736 173.539 236.209 168.801Z" fill="#542B11"/>
<path fill-rule="evenodd" clip-rule="evenodd" d="M284.435 144.529C284.435 144.529 285.976 139.546 286.594 138.344C287.212 137.141 288.677 135.763 287.294 135.357C285.912 134.951 280.529 138.045 274.597 138.912C268.675 139.782 269.589 142.274 268.935 144.612C268.292 146.953 267.651 148.722 269.883 148.943C272.106 149.161 280.113 149.615 281.508 148.364C282.903 147.113 284.427 144.517 284.427 144.517L284.435 144.529Z" fill="#F0D1AD"/>
<path fill-rule="evenodd" clip-rule="evenodd" d="M274.865 163.463C274.865 163.463 276.288 160.747 277.328 158.626C278.368 156.506 280.011 154.073 279.092 153.793C278.17 153.522 272.856 154.856 270.139 153.776C267.418 152.707 267.004 149.253 265.502 150.176C263.991 151.096 259.571 152.796 258.691 154.017C257.808 155.246 259.158 160.734 260.048 161.433C260.938 162.131 263.003 160.603 264.876 161.435C266.749 162.266 269.316 165.633 270.895 165.972C272.474 166.311 274.858 163.45 274.858 163.45L274.865 163.463Z" fill="#F0D1AD"/>
<path fill-rule="evenodd" clip-rule="evenodd" d="M266.063 174.113C267.285 172.497 270.171 167.948 268.447 166.684C266.724 165.42 263.234 162.386 261.858 164.703C260.483 167.02 255.555 169.465 257.19 172.047C258.826 174.628 261.501 178.984 262.659 179.187C263.818 179.39 264.52 175.474 266.063 174.113Z" fill="#F0D1AD"/>
<path fill-rule="evenodd" clip-rule="evenodd" d="M266.454 165.304C264.774 164.099 262.752 162.999 261.772 164.675C260.415 166.999 255.6 169.477 257.171 172.04C258.742 174.603 261.311 178.929 262.437 179.122C264.354 177.962 260.385 172.823 260.635 171.197C260.884 169.571 263.818 167.389 266.463 165.307L266.454 165.304Z" fill="#E6C197"/>
<path fill-rule="evenodd" clip-rule="evenodd" d="M258.998 162.677C257.434 161.816 256.412 158.621 255.81 157.032C255.212 155.435 254.142 155.862 250.884 157.904C247.625 159.945 242.327 161.243 242.646 162.532C242.966 163.821 249.602 170.902 250.919 171.556C252.235 172.211 253.231 169.659 254.988 167.486C256.745 165.313 259.992 162.578 258.986 162.684L258.998 162.677Z" fill="#F0D1AD"/>
<path fill-rule="evenodd" clip-rule="evenodd" d="M239.225 166.819C239.379 165.007 240.545 163.142 238.187 162.635C235.829 162.127 231.182 162.866 224.454 167.263C217.725 171.66 215.462 176.794 215.462 176.794C215.462 176.794 224.454 167.263 239.235 166.822L239.225 166.819Z" fill="#F0D1AD"/>
<path fill-rule="evenodd" clip-rule="evenodd" d="M243.423 176.74C244.208 175.248 245.087 172.188 244.048 171.659C243.008 171.13 238.536 171.529 233.13 179.567C227.724 187.605 226.189 198.705 226.189 198.705C226.189 198.705 234.031 173.546 243.42 176.75L243.423 176.74Z" fill="#F0D1AD"/>
<path fill-rule="evenodd" clip-rule="evenodd" d="M251.497 181.746C252.072 180.527 251.766 178.324 250.685 177.765C249.604 177.206 244.085 182.733 238.831 190.534C233.578 198.336 230.629 209.822 230.936 210.511C231.243 211.2 239.979 188.874 251.497 181.746Z" fill="#F0D1AD"/>
<path fill-rule="evenodd" clip-rule="evenodd" d="M257.534 181.883C256.296 181.343 253.473 182.221 252.448 184.397C251.422 186.574 242.32 203.436 240.539 206.161C238.758 208.887 237.348 211.699 237.37 212.366C237.392 213.033 242.26 207.79 247.829 198.436C253.399 189.082 258.652 181.616 257.534 181.883Z" fill="#F0D1AD"/>
<path fill-rule="evenodd" clip-rule="evenodd" d="M264.213 183.876C263.231 183.749 261.171 185.396 260.586 187.681C260.002 189.965 254.598 208.019 253.492 211.024C252.385 214.028 251.565 217.019 251.636 217.611C251.708 218.203 254.937 211.987 258.328 201.821C261.718 191.655 265.04 183.3 264.216 183.866L264.213 183.876Z" fill="#F0D1AD"/>
<path fill-rule="evenodd" clip-rule="evenodd" d="M263.826 185.787C263.281 185.605 261.697 186.579 261.252 189.047C260.806 191.515 256.392 204.642 255.088 208.743C253.783 212.845 251.363 216.361 251.826 216.654C252.289 216.946 254.848 211.428 257.025 205.955C259.192 200.478 263.824 186.679 263.826 185.787Z" fill="#FBE1C1"/>
<path fill-rule="evenodd" clip-rule="evenodd" d="M257.168 183.832C256.36 183.683 255.271 184.151 254.015 186.2C252.744 188.256 244.315 201.053 241.879 204.553C239.443 208.052 237.878 210.476 237.878 210.476C237.878 210.476 254.695 189.395 257.168 183.832Z" fill="#FBE1C1"/>
<path fill-rule="evenodd" clip-rule="evenodd" d="M38.1558 135.134C24.7044 177.718 254.676 172.435 124.64 27.3332C81.1298 5.53137 67.6653 122.419 48.1962 116.701C41.9015 114.852 35.8363 116.564 34.6779 120.508C33.5194 124.453 34.6779 120.508 38.1558 135.134Z" fill="#542B11"/>
<path d="M99.272 31.4636C97.0149 29.2822 94.3344 28.1009 91.5558 27.2844C79.2937 23.6801 67.9825 25.8187 57.8241 33.4939C55.4344 35.2997 52.8029 36.298 50.1655 37.4955C47.1127 38.8837 44.2056 40.639 41.367 42.4408C39.6267 43.5449 38.73 45.4261 38.0704 47.3736C37.7288 48.3832 37.3567 49.3884 36.9048 50.3531C36.2207 51.8162 35.607 53.2248 36.4842 54.8643C36.7082 55.282 36.5888 55.966 36.4478 56.4804C35.4808 59.996 34.5256 63.503 34.607 67.2024C34.615 67.5699 34.2928 68.1147 33.9644 68.2974C30.3082 70.3395 30.3299 72.8269 30.7442 75.3827C30.9561 76.6899 31.2011 78.002 31.5939 79.2633C31.9158 80.3009 32.3803 81.3233 32.9529 82.2473C33.7136 83.4798 33.982 84.6161 33.2167 85.9606C32.1394 87.8515 31.1964 89.7648 29.4488 91.2343C27.1792 93.1411 26.2307 95.5135 27.9279 98.3891C28.0858 98.6567 27.9039 99.3418 27.6441 99.6048C26.1949 101.077 25.727 102.993 26.3905 104.707C28.6462 110.516 29.6671 116.787 32.9901 122.195C36.7548 128.323 41.7231 133.234 47.683 137.22C60.8154 146.005 75.344 150.288 91.0462 150.992C100.387 151.41 109.569 150.367 118.362 147.336C128.286 143.914 137.335 138.785 144.552 130.94C149.029 126.07 151.858 120.192 153.968 114.003C155.442 109.678 157.052 105.296 157.684 100.811C159.035 91.2383 157.794 81.8377 153.944 72.9009C152.268 69.0152 150.202 65.2976 148.546 61.4044C147.383 58.6623 146.597 55.7578 145.674 52.9137C143.286 45.5574 139.253 39.4181 132.632 35.18C127.116 31.6487 121.098 29.5293 114.562 29.1054C109.274 28.7623 104.037 29.0919 99.2669 31.4629L99.272 31.4636ZM79.5464 108.13C79.3686 109.525 79.2136 110.924 79.0079 112.315C78.8499 113.383 78.2142 113.956 77.1149 114.064C74.7029 114.3 72.5702 113.402 70.482 112.397C70.2151 112.269 70.0557 111.591 70.1056 111.2C70.2401 110.186 70.4824 109.18 70.7462 108.187C71.6334 104.842 74.9563 103.665 77.6501 105.81C78.4263 106.429 78.9381 107.378 79.5712 108.173C79.7606 105.259 75.6737 102.89 73.015 104.108C72.0733 104.538 71.2744 104.828 70.7005 103.228C70.5436 104.288 70.5342 105.001 70.3245 105.646C69.6782 107.627 69.0043 109.6 68.2226 111.53C68.0585 111.937 67.2823 112.477 66.9641 112.38C65.0889 111.815 63.2129 111.184 61.4521 110.336C60.8749 110.058 60.3219 109.072 60.3049 108.397C60.2236 104.819 63.777 102.523 67.0448 103.932C67.1867 103.992 67.3568 103.983 67.9365 104.069C67.4733 103.371 67.2459 102.906 66.9097 102.545C65.2697 100.793 63.3802 102.15 61.5671 102.253C61.4591 101.824 61.3678 101.476 61.2794 101.125C61.1677 101.072 61.0535 101.018 60.9414 100.968C60.3524 101.876 59.766 102.785 59.1092 103.8C58.8736 103.461 58.7631 103.153 58.5429 103.009C57.5691 102.374 56.6167 101.435 55.5587 101.281C54.4194 101.115 53.1403 101.911 52.1625 100.548C53.1601 102.322 53.0898 102.27 51.8129 103.965C51.0273 105.008 50.3846 106.191 49.8766 107.394C49.4602 108.383 48.9031 108.742 47.907 108.485C47.4514 108.369 46.9896 108.259 46.5488 108.095C43.5649 106.98 43.042 104.772 45.3872 102.653C46.8086 101.369 48.4685 100.352 50.0711 99.1781C49.4533 97.6991 49.4717 97.733 47.8875 98.5718C47.6113 98.718 46.8354 98.5539 46.7607 98.3558C46.11 96.6432 44.4677 96.2418 43.1047 95.5152C41.9294 94.8892 41.0554 95.3706 40.304 96.4105C39.1347 98.0279 37.8121 99.5395 36.4979 101.047C36.2698 101.307 35.5802 101.543 35.4057 101.405C34.4336 100.635 33.2135 99.909 32.7157 98.8661C31.8165 96.9713 32.8855 95.365 34.374 94.1717C35.6918 93.1141 37.1185 92.1455 38.9063 93.3194C39.0933 93.4432 39.3608 93.4438 39.6465 93.5147C39.2643 92.2342 37.9164 91.2475 36.3772 90.9574C35.7177 90.8313 34.9211 90.7368 34.4896 90.317C34.1673 90.0017 34.0882 88.8154 34.3238 88.6632C35.2241 88.074 35.2318 86.108 36.955 86.8229C37.5426 87.0657 38.0402 87.5135 38.6108 87.8006C39.3214 88.1604 40.0625 88.4545 40.7918 88.7755C40.8695 88.6545 40.945 88.5305 41.0226 88.4095C38.7618 86.3236 37.1158 83.822 35.7802 81.1013C36.6487 81.5 37.3972 81.9901 38.1588 82.4614C38.8991 82.9191 39.6525 83.358 40.3998 83.8037C40.4766 83.706 40.5505 83.6104 40.6273 83.5126C40.2149 83.0514 39.7788 82.6101 39.393 82.1269C38.0879 80.4994 36.5704 78.9913 35.5522 77.1984C33.621 73.7971 34.3335 71.2286 37.7071 68.7082C37.8477 69.5137 38.0385 70.1916 38.0696 70.877C38.1742 73.2078 38.7808 75.3243 40.8083 76.6871C42.5076 77.8272 44.2259 79.0324 46.1015 79.8062C54.1549 83.1284 62.3039 83.9259 70.4883 80.1632C71.3412 79.7722 71.7609 80.0786 71.6868 80.9485C71.4529 83.6709 72.1168 86.2429 73.1189 88.7065C73.6374 89.9785 74.4415 91.181 75.3205 92.2465C76.1005 93.1908 77.1557 93.9082 78.1022 94.7108C80.6708 96.8942 83.5939 98.1738 87.0103 98.1387C87.6479 98.1317 88.2829 97.9839 88.9212 97.9017C88.9346 97.7581 88.9477 97.6172 88.9611 97.4736C84.8352 97.5804 81.2093 96.6958 78.2163 93.5532C76.4421 91.6901 73.0558 84.6019 73.7976 82.8017C75.1368 85.445 77.1327 87.1799 79.7011 88.1705C82.2277 89.1445 84.8364 89.7929 87.6116 89.5434C87.2076 89.2186 86.7549 89.0295 86.3085 88.8335C83.7299 87.7011 81.1036 86.6629 78.5882 85.4021C76.0441 84.1241 74.1216 82.122 73.597 79.2406C72.9103 75.47 72.9777 71.6601 73.7188 67.8798C74.5028 63.8797 73.6295 60.44 70.4266 57.6977C64.3211 52.4653 57.1359 51.036 49.4106 51.8706C46.6279 52.1709 43.9192 53.1474 41.1636 53.7558C39.8988 54.0338 39.4492 53.5957 39.6383 52.3348C39.8896 50.6362 41.2491 49.946 42.6392 49.5592C44.281 49.1031 46.0032 48.9473 47.6908 48.6565C48.104 48.5851 48.5141 48.5002 48.9234 48.4204C48.9125 48.2655 48.8995 48.1077 48.8887 47.9528C48.0664 47.8909 47.2405 47.7661 46.4201 47.7799C45.2664 47.7989 44.1167 47.9484 42.9625 47.9882C42.0017 48.0201 41.6357 47.5086 42.2035 46.7091C43.0402 45.5311 43.8661 44.2864 44.9397 43.3513C48.0616 40.6351 51.9121 39.4222 55.85 38.4612C57.3271 38.1003 58.8164 37.7801 60.0128 37.5076C60.1377 36.6633 60.0201 35.8248 60.3319 35.6137C62.7558 33.9636 65.1282 32.1344 67.7759 30.9384C72.1361 28.9667 76.8542 28.6149 81.6138 28.9657C86.7691 29.3463 91.7162 30.5199 96.4083 32.768C96.3472 32.8473 96.2946 32.9746 96.1947 33.0352C93.1816 34.9099 90.5191 37.1899 88.4692 40.088C87.7762 41.0665 87.4686 42.3203 86.9876 43.447C87.1354 43.5364 87.2858 43.6262 87.4337 43.7157C88.0107 43.3099 88.6279 42.9491 89.1583 42.4897C90.8397 41.0286 92.4612 39.4989 94.1556 38.0553C97.8332 34.9199 102.046 32.9107 106.88 32.4203C112.327 31.867 117.589 32.7365 122.846 34.2573C127.498 35.6029 131.526 37.9294 135.136 40.9737C139.093 44.3108 141.08 48.9546 142.731 53.736C143.553 56.1183 144.198 58.5757 145.209 60.8742C147.338 65.7288 149.731 70.4665 151.86 75.3211C152.668 77.1661 153.051 79.195 153.623 81.1271C147.872 83.0334 144.696 80.4249 143.225 76.0055C141.858 71.8977 141.132 67.5314 140.556 63.221C140.273 61.1002 140.966 58.8512 141.21 56.6578C141.28 56.0314 141.321 55.4034 141.377 54.7751C140.815 55.4663 140.625 56.2437 140.195 56.8505C138.045 59.8925 137.857 63.0295 139.646 66.2644C141.047 68.792 141.724 71.4673 141.829 74.3594C141.894 76.1854 142.04 78.0961 142.641 79.7935C143.724 82.8511 147.826 84.4844 150.887 83.3209C151.815 82.9696 152.692 82.4836 153.79 81.9677C153.929 82.8172 154.136 83.6664 154.193 84.5246C154.474 88.7913 154.939 93.0593 154.918 97.3281C154.885 104.186 152.582 110.539 149.807 116.705C147.604 121.6 145.161 126.438 141.421 130.328C133.152 138.932 122.779 143.894 111.317 146.593C102.811 148.595 94.1414 148.456 85.5047 147.514C72.143 146.057 59.6225 142.162 48.5662 134.235C43.9011 130.892 39.7839 127.006 36.6322 122.162C36.1939 121.489 36.2579 121.127 37.1144 121.097C38.0861 121.062 38.9268 121.21 39.567 122.133C40.9177 124.085 42.6582 125.42 45.204 125.405C45.6928 125.402 46.2231 125.769 46.6676 126.066C47.9409 126.924 49.1377 127.897 50.4351 128.715C52.196 129.825 54.0139 129.865 55.7048 128.551C56.4415 127.979 56.9305 128.01 57.5233 128.745C57.9445 129.27 58.5093 129.701 59.0712 130.083C60.2633 130.894 61.5625 131.156 62.9875 130.603C62.2699 130.115 61.5145 129.777 60.7221 129.566C59.5322 129.25 58.783 128.466 58.3603 127.39C57.875 126.157 57.5056 124.878 57.0892 123.619C56.7966 122.733 57.1321 122.31 58.0524 122.306C58.9055 122.3 59.7729 122.178 60.6128 122.279C62.2035 122.468 63.7912 122.729 65.3579 123.062C66.2976 123.261 66.6064 123.93 66.4267 124.917C66.0257 127.118 66.0946 129.48 63.9099 131.059C65.6469 131.997 66.1732 130.406 66.9743 129.891C68.7645 129.924 68.8202 132.534 70.7639 132.198C70.7715 132.058 70.8098 131.958 70.7745 131.898C70.6692 131.713 70.5469 131.539 70.4158 131.372C69.1053 129.676 68.7028 127.743 69.0529 125.674C69.1323 125.208 69.5735 124.491 69.9384 124.431C72.0264 124.085 74.2416 123.389 76.2235 123.778C79.258 124.375 79.6554 124.34 78.4778 127.383C78.448 127.462 78.4421 127.554 78.405 127.629C77.3361 129.797 76.2393 131.942 73.6586 132.686C73.3765 132.766 73.0712 132.775 72.7766 132.818C72.8913 133.061 73.0056 133.306 73.1204 133.549C73.6682 133.534 74.3114 133.699 74.748 133.47C75.9364 132.848 77.0788 132.116 78.1536 131.313C78.8106 130.823 79.0849 130.479 79.6563 131.499C80.0853 132.27 80.9871 132.988 81.8308 133.274C84.763 134.263 87.6262 133.138 89.3151 130.556C89.503 130.269 89.7122 129.996 90.004 129.587C90.23 131.853 90.8313 132.547 92.6527 132.827C96.6379 133.442 100.12 131.806 102.023 128.229C102.689 126.976 103.216 126.152 104.708 127.132C105.028 127.343 105.539 127.291 105.966 127.307C109.504 127.451 113.34 124.877 114.627 121.513C115.166 120.101 115.253 120.078 116.665 120.7C118.238 121.392 119.818 121.286 121.408 120.705C123.408 119.974 124.454 118.401 125.056 116.505C125.848 114.018 126.771 111.468 125.402 108.919C124.805 107.807 124.043 106.652 123.056 105.916C121.441 104.713 119.674 103.592 117.8 102.894C116.037 102.235 114.825 103.163 114.197 104.983C114.107 105.242 113.954 105.482 113.877 105.637C112.337 104.26 110.841 102.922 109.348 101.584C109.252 101.686 109.153 101.791 109.058 101.894C110.334 103.717 112.08 105.228 112.81 107.475C112.072 107.191 111.442 106.797 110.976 106.26C109.273 104.303 106.537 103.548 104.188 104.572C103.246 104.981 102.567 104.832 101.882 104.143C101.561 103.82 101.149 103.582 100.779 103.307C100.694 103.39 100.609 103.476 100.523 103.56C100.803 104.061 101.101 104.552 101.358 105.066C101.624 105.602 101.851 106.157 102.098 106.706C101.999 106.759 101.9 106.812 101.799 106.864C101.442 106.515 101.065 106.187 100.736 105.813C99.2915 104.178 97.5478 103.829 95.8682 105.226C94.728 106.172 93.91 107.521 93.0199 108.744C92.6448 109.26 92.4572 109.913 92.132 110.618C91.4382 109.531 90.9647 108.551 90.2796 107.756C87.4075 104.41 84.0872 104.481 81.2 107.577C80.6628 108.152 80.2168 108.305 79.5467 108.128L79.5464 108.13ZM80.8811 110.874C80.9048 110.714 80.9424 110.46 80.98 110.205C81.3156 107.867 83.7976 105.56 86.4376 106.471C89.4187 107.499 91.8671 111.548 91.0697 114.603C90.9974 114.881 90.5984 115.243 90.3183 115.274C88.1796 115.506 86.0974 115.777 83.8757 115.306C81.1704 114.732 80.3926 113.122 80.8786 110.874L80.8811 110.874ZM91.9952 127.665L92.0282 127.67C92.0659 127.416 92.1031 127.164 92.1407 126.91C92.5989 124.023 93.9104 122.692 96.779 122.321C97.6584 122.207 98.5672 122.245 99.4575 122.286C102.68 122.44 102.678 122.45 101.515 125.467C100.507 128.085 98.8455 130.128 96.2283 131.259C95.0296 131.775 93.6952 132.085 92.5519 131.242C91.404 130.397 91.7674 129.1 91.9554 127.916C91.9678 127.833 91.9802 127.749 91.993 127.662L91.9952 127.665ZM93.9911 112.083C94.4083 110.651 94.7152 109.174 95.2651 107.792C96.1043 105.684 98.3607 105.254 100.057 106.731C102.142 108.544 102.569 111.125 103.258 113.576C103.323 113.807 102.915 114.407 102.652 114.459C100.733 114.84 98.8017 115.339 96.8634 115.393C94.1894 115.467 93.6746 114.697 93.9886 112.083L93.9911 112.083ZM80.6235 126.77C80.8991 124.714 80.9009 124.719 82.9715 124.509C83.3938 124.465 83.8248 124.396 84.2282 124.268C86.0913 123.686 87.8635 124.071 89.5819 124.8C89.8655 124.92 90.2627 125.449 90.1917 125.631C89.2892 127.956 88.2553 130.238 86.1087 131.7C84.0058 133.13 80.925 131.687 80.6648 129.195C80.5805 128.396 80.6336 127.58 80.6235 126.77ZM49.4633 118.741C51.0067 119.442 52.589 120.074 54.0723 120.883C54.5457 121.143 54.9238 121.835 55.0562 122.398C55.2894 123.386 55.3307 124.424 55.3979 125.445C55.4903 126.822 54.6819 127.984 53.4894 128.265C51.1554 128.816 48.4055 126.98 48.0259 124.611C47.8232 123.347 47.6311 122.082 47.4415 120.817C47.1803 119.053 47.6255 118.625 49.4641 118.736L49.4633 118.741ZM37.4532 101.246C38.2133 100.269 38.8704 99.4986 39.4473 98.6718C40.7865 96.7496 43.5699 96.6728 45.4278 97.8649C46.9372 98.8314 47.0439 99.5852 45.8715 100.942C44.9001 102.064 43.9799 103.227 43.027 104.365C42.5191 104.97 41.9548 105.588 41.0836 105.137C40.2948 104.727 39.4548 104.294 38.863 103.658C38.2621 103.013 37.941 102.11 37.4532 101.246ZM112.578 120.846C111.968 124.331 108.493 125.678 105.743 125.494C105.481 125.476 105.027 125.243 105.014 125.083C104.893 123.513 104.306 121.686 104.902 120.428C105.785 118.555 107.893 117.845 110.038 117.994C111.779 118.114 112.784 119.328 112.578 120.846ZM106.376 113.679C106.241 113.628 105.664 113.574 105.331 113.262C103.477 111.535 103.888 108 106.106 106.758C106.582 106.494 107.329 106.414 107.845 106.579C110.264 107.35 111.585 109.292 112.623 111.443C112.752 111.712 112.573 112.449 112.405 112.495C110.538 112.998 108.792 114.107 106.374 113.679L106.376 113.679ZM55.6496 110.52C54.9175 110.235 53.5071 109.828 52.2435 109.15C50.8645 108.408 50.715 107.347 51.7933 106.205C52.7817 105.161 53.8753 104.161 55.0883 103.408C55.6859 103.039 56.7498 103.03 57.4358 103.292C58.4044 103.664 58.7951 104.606 58.6361 105.733C58.4983 106.7 58.4166 107.691 58.4597 108.664C58.5286 110.218 57.8708 110.872 55.6525 110.517L55.6496 110.52ZM45.4517 122.817C45.4484 124.051 44.8499 124.391 43.5885 123.926C41.1171 123.017 38.9843 119.152 39.5513 116.549C39.6253 116.207 39.8361 115.783 40.1161 115.612C41.2419 114.921 45.4627 117.052 45.5032 118.342C45.5502 119.833 45.4748 121.326 45.4513 122.819L45.4517 122.817ZM35.1877 110.993C37.0614 111.779 38.0152 113.077 38.9555 114.377C39.0764 114.543 39.0446 114.882 38.982 115.111C38.681 116.215 38.3473 117.312 38.0161 118.409C37.7582 119.257 37.2303 119.366 36.5567 118.879C35.5781 118.17 34.8771 117.272 34.9231 115.995C34.9786 114.426 35.0856 112.859 35.1877 110.993ZM34.5762 106.064L34.4139 105.598C33.8211 105.742 33.2049 105.832 32.638 106.047C32.1318 106.237 31.6754 106.565 31.1994 106.832C31.0555 106.242 30.8742 105.659 30.7808 105.061C30.7305 104.734 30.7915 104.374 30.8688 104.045C31.1604 102.794 31.8191 102.468 33.0333 102.936C33.7117 103.197 34.4838 103.316 35.0521 103.725C35.5707 104.101 35.8675 104.781 36.2624 105.326C35.7011 105.573 35.1401 105.817 34.5788 106.064L34.5762 106.064ZM33.2578 112.131C33.0621 112.084 32.8635 112.039 32.6678 111.992C32.6287 111.097 32.4399 110.178 32.5856 109.316C32.8193 107.929 34.1116 107.606 35.2158 107.465C35.8356 107.386 36.6084 107.869 37.1759 108.283C37.4294 108.466 37.3503 109.106 37.4241 109.538C37.0345 109.52 36.5895 109.612 36.2672 109.456C35.5108 109.089 35.1665 109.256 34.7981 110.026C34.4268 110.797 33.7817 111.434 33.2578 112.131ZM39.045 61.1573C38.8662 61.0841 38.6873 61.0109 38.5085 60.9377C38.3919 59.2496 38.7076 57.6254 39.5057 56.1116C39.6862 55.7693 40.1146 55.5079 40.4887 55.332C40.7514 55.2071 41.2555 55.1544 41.3968 55.3052C41.6029 55.528 41.7497 56.046 41.6249 56.2926C40.8076 57.9361 39.9131 59.5396 39.045 61.1573ZM33.6783 91.4105C33.9673 91.6169 34.3207 91.7394 34.3949 91.9582C34.4651 92.1687 34.3167 92.5391 34.1431 92.7291C33.3023 93.6363 32.4451 94.5307 31.5388 95.3711C31.3098 95.5841 30.8813 95.583 30.5446 95.6814C30.5355 95.3214 30.3793 94.867 30.5412 94.6155C31.1387 93.6852 31.8039 92.7884 32.5278 91.9522C32.7724 91.6688 33.2638 91.596 33.6809 91.4108L33.6783 91.4105Z" fill="#542B11"/>
<path d="M79.5485 108.133C80.2219 108.305 80.665 108.155 81.2022 107.58C84.0894 104.483 87.4093 104.416 90.2818 107.759C90.9665 108.557 91.4403 109.534 92.1342 110.621C92.4594 109.916 92.647 109.263 93.0221 108.746C93.9121 107.524 94.7302 106.175 95.8704 105.229C97.55 103.832 99.2911 104.181 100.738 105.816C101.067 106.19 101.445 106.518 101.801 106.867C101.9 106.814 101.998 106.761 102.1 106.709C101.856 106.161 101.629 105.605 101.36 105.069C101.104 104.555 100.805 104.064 100.526 103.563C100.611 103.479 100.696 103.393 100.781 103.31C101.151 103.585 101.56 103.823 101.884 104.146C102.569 104.835 103.251 104.985 104.19 104.575C106.539 103.551 109.275 104.306 110.978 106.263C111.444 106.8 112.077 107.195 112.812 107.478C112.082 105.231 110.336 103.72 109.06 101.897C109.156 101.794 109.254 101.689 109.35 101.586C110.846 102.925 112.34 104.261 113.879 105.64C113.956 105.485 114.109 105.245 114.199 104.985C114.827 103.166 116.04 102.236 117.802 102.897C119.676 103.597 121.443 104.716 123.058 105.919C124.043 106.655 124.807 107.81 125.404 108.922C126.77 111.471 125.847 114.021 125.058 116.508C124.456 118.404 123.41 119.977 121.41 120.708C119.82 121.289 118.24 121.395 116.667 120.703C115.255 120.083 115.168 120.104 114.63 121.516C113.345 124.881 109.506 127.454 105.968 127.31C105.542 127.294 105.03 127.346 104.71 127.135C103.221 126.156 102.694 126.979 102.025 128.232C100.122 131.811 96.6397 133.448 92.6549 132.83C90.8338 132.547 90.2321 131.856 90.0061 129.59C89.7144 129.999 89.5051 130.272 89.3172 130.559C87.6255 133.143 84.7626 134.266 81.8329 133.276C80.9893 132.991 80.0875 132.272 79.6585 131.502C79.0871 130.482 78.8102 130.826 78.1557 131.316C77.081 132.119 75.936 132.851 74.7502 133.473C74.3136 133.702 73.6704 133.537 73.1225 133.552C73.0078 133.309 72.8935 133.064 72.7787 132.82C73.0733 132.778 73.3758 132.771 73.6608 132.689C76.2415 131.945 77.3379 129.802 78.4071 127.632C78.4442 127.557 78.4476 127.464 78.48 127.386C79.6576 124.343 79.2601 124.378 76.2256 123.781C74.2438 123.392 72.029 124.085 69.9405 124.434C69.5757 124.494 69.1349 125.208 69.0551 125.677C68.7075 127.746 69.1071 129.681 70.418 131.375C70.5465 131.542 70.6714 131.716 70.7766 131.901C70.8119 131.96 70.7736 132.061 70.766 132.201C68.822 132.539 68.7667 129.927 66.9764 129.894C66.1728 130.409 65.6491 132 63.912 131.062C66.0967 129.483 66.0278 127.121 66.4288 124.92C66.6086 123.933 66.2972 123.263 65.3601 123.065C63.7934 122.732 62.2052 122.473 60.6149 122.282C59.7751 122.181 58.9098 122.305 58.0545 122.309C57.1339 122.316 56.7988 122.736 57.0913 123.621C57.5077 124.881 57.8772 126.16 58.3624 127.393C58.7856 128.466 59.5344 129.253 60.7243 129.569C61.5141 129.779 62.2721 130.118 62.9896 130.606C61.5621 131.159 60.2655 130.897 59.0733 130.086C58.5115 129.704 57.9467 129.272 57.5255 128.748C56.9327 128.013 56.444 127.98 55.7069 128.554C54.0135 129.868 52.1982 129.828 50.4373 128.718C49.1398 127.899 47.9405 126.927 46.6698 126.068C46.2282 125.769 45.695 125.405 45.2061 125.408C42.6578 125.423 40.9177 124.085 39.5691 122.136C38.929 121.213 38.0883 121.065 37.1165 121.1C36.2626 121.13 36.1986 121.492 36.6344 122.165C39.7861 127.009 43.9037 130.893 48.5684 134.238C59.625 142.163 72.143 146.057 85.5069 147.517C94.1411 148.459 102.811 148.598 111.319 146.596C122.784 143.898 133.154 138.935 141.423 130.331C145.161 126.441 147.606 121.603 149.809 116.708C152.583 110.544 154.888 104.189 154.92 97.3311C154.941 93.0647 154.476 88.7942 154.195 84.5275C154.138 83.6693 153.931 82.8227 153.792 81.9706C152.694 82.489 151.817 82.9725 150.89 83.3239C147.828 84.4873 143.726 82.854 142.643 79.7964C142.042 78.099 141.896 76.1883 141.831 74.3623C141.726 71.4703 141.049 68.795 139.648 66.2673C137.859 63.0325 138.048 59.8954 140.197 56.8534C140.627 56.2466 140.817 55.4693 141.379 54.7781C141.325 55.4067 141.284 56.0347 141.213 56.6607C140.969 58.8541 140.275 61.1032 140.559 63.2239C141.137 67.5347 141.86 71.9006 143.227 76.0084C144.698 80.4279 147.874 83.0363 153.625 81.13C153.053 79.2005 152.67 77.169 151.863 75.3241C149.733 70.4695 147.343 65.7295 145.211 60.8771C144.202 58.5789 143.558 56.1216 142.733 53.7389C141.081 48.9601 139.095 44.3138 135.139 40.9766C131.528 37.9323 127.5 35.6058 122.848 34.2602C117.589 32.739 112.329 31.8699 106.883 32.4232C102.045 32.9133 97.8357 34.9202 94.1578 38.0582C92.4633 39.5018 90.8419 41.0315 89.1604 42.4926C88.63 42.952 88.0129 43.3128 87.4358 43.7186C87.288 43.6292 87.1376 43.5394 86.9898 43.4499C87.4734 42.3236 87.7809 41.0698 88.4713 40.091C90.5212 37.1928 93.1841 34.9103 96.1968 33.0381C96.2942 32.9772 96.3497 32.8477 96.4104 32.7709C91.7209 30.5232 86.7709 29.3518 81.616 28.9686C76.8542 28.6149 72.1382 28.9697 67.778 30.9413C65.1304 32.1373 62.7601 33.9694 60.3341 35.6166C60.0248 35.8281 60.1399 36.6662 60.015 37.5105C58.8185 37.783 57.3293 38.1032 55.8521 38.4641C51.9168 39.4255 48.0642 40.6355 44.9419 43.3542C43.8682 44.2893 43.042 45.5365 42.2056 46.712C41.6379 47.5116 42.0039 48.023 42.9647 47.9911C44.1185 47.9539 45.2686 47.8018 46.4223 47.7828C47.2452 47.7694 48.0686 47.8938 48.8908 47.9557C48.9017 48.1106 48.9147 48.2684 48.9256 48.4234C48.5137 48.5028 48.1037 48.5876 47.6929 48.6594C46.0054 48.9502 44.2832 49.106 42.6413 49.5621C41.2513 49.9489 39.8918 50.6391 39.6405 52.3377C39.4535 53.6015 39.9031 54.0396 41.1657 53.7587C43.9213 53.1503 46.63 52.1738 49.4128 51.8735C57.1381 51.0389 64.3232 52.4682 70.4287 57.7006C73.6313 60.4455 74.505 63.8826 73.721 67.8827C72.9799 71.663 72.9129 75.4703 73.5991 79.2435C74.1237 82.125 76.0463 84.127 78.5903 85.405C81.1057 86.6658 83.7321 87.704 86.3106 88.8364C86.7571 89.0324 87.2076 89.2186 87.6138 89.5463C84.8385 89.7958 82.2299 89.1474 79.7032 88.1734C77.1323 87.1824 75.1365 85.4476 73.7998 82.8046C73.0576 84.6073 76.4417 91.6926 78.2184 93.5561C81.2115 96.6988 84.837 97.5859 88.9633 97.4765C88.9498 97.6201 88.9368 97.7611 88.9233 97.9046C88.2876 97.9872 87.65 98.1346 87.0125 98.1416C83.5957 98.1792 80.6729 96.8971 78.1043 94.7138C77.1583 93.9086 76.1027 93.1938 75.3227 92.2494C74.4437 91.1839 73.637 89.981 73.1211 88.7094C72.1193 86.2433 71.455 83.6738 71.6889 80.9514C71.7634 80.079 71.3437 79.7726 70.4905 80.1661C62.306 83.9289 54.16 83.1291 46.1037 79.8091C44.228 79.0353 42.5094 77.8326 40.8105 76.69C38.7804 75.3269 38.1764 73.2107 38.0717 70.8799C38.0406 70.1945 37.8499 69.5167 37.7093 68.7111C34.3332 71.2311 33.6228 73.8025 35.5544 77.2013C36.5725 78.9942 38.0897 80.5049 39.3952 82.1298C39.7813 82.6105 40.2171 83.0543 40.6295 83.5155C40.5527 83.6133 40.4788 83.7089 40.402 83.8066C39.6547 83.3609 38.9013 82.922 38.161 82.4643C37.3993 81.993 36.6483 81.5026 35.7824 81.1042C37.1179 83.8249 38.7639 86.3266 41.0248 88.4124C40.9471 88.5335 40.8716 88.6574 40.794 88.7784C40.0647 88.4575 39.321 88.163 38.613 87.8036C38.0427 87.5139 37.5423 87.0683 36.9572 86.8258C35.2336 86.1135 35.2263 88.0769 34.3259 88.6661C34.0904 88.8183 34.1695 90.0046 34.4918 90.3199C34.9233 90.7397 35.7199 90.8342 36.3793 90.9603C37.9182 91.2529 39.269 92.2375 39.6486 93.5176C39.3629 93.4467 39.0984 93.444 38.9085 93.3223C37.1207 92.1484 35.6939 93.117 34.3762 94.1746C32.8876 95.368 31.8165 96.9713 32.7178 98.869C33.2127 99.9141 34.4329 100.64 35.4079 101.408C35.5798 101.545 36.2719 101.31 36.5001 101.05C37.8139 99.545 39.1365 98.0334 40.3062 96.4135C41.0576 95.3735 41.9316 94.8921 43.1068 95.5181C44.4698 96.2447 46.1125 96.6436 46.7629 98.3587C46.8375 98.5568 47.6134 98.721 47.8897 98.5747C49.4713 97.7355 49.4555 97.702 50.0733 99.181C48.4707 100.355 46.8107 101.372 45.3893 102.656C43.0438 104.778 43.5667 106.986 46.551 108.098C46.9918 108.262 47.4536 108.372 47.9092 108.488C48.9052 108.745 49.4624 108.386 49.8788 107.397C50.3867 106.194 51.0298 105.008 51.815 103.968C53.0946 102.273 53.1623 102.325 52.1647 100.551C53.1451 101.914 54.4215 101.118 55.5609 101.284C56.6189 101.438 57.5708 102.379 58.545 103.012C58.7631 103.153 58.8757 103.464 59.1114 103.803C59.7681 102.788 60.3546 101.879 60.9436 100.971C61.0553 101.024 61.1695 101.077 61.2816 101.128C61.3699 101.478 61.4587 101.827 61.5692 102.256C63.3824 102.153 65.2694 100.795 66.9118 102.548C67.2506 102.91 67.478 103.375 67.9386 104.072C67.3615 103.986 67.1888 103.995 67.047 103.935C63.7792 102.526 60.2232 104.822 60.3071 108.4C60.3215 109.075 60.8771 110.061 61.4543 110.339C63.2151 111.187 65.091 111.818 66.9662 112.383C67.287 112.48 68.0603 111.942 68.2248 111.533C69.0065 109.603 69.6829 107.63 70.3267 105.649C70.5368 105.002 70.5458 104.291 70.7026 103.231C71.2765 104.831 72.078 104.541 73.0172 104.111C75.6758 102.893 79.7624 105.265 79.5734 108.176L79.5485 108.133ZM96.5905 55.9997L96.6847 55.6264C100.159 56.6731 103.695 57.5522 107.095 58.8061C111.44 60.4104 115.653 62.4213 119.149 65.5188C121.664 67.7488 123.888 70.3099 126.201 72.7647C126.967 73.577 127.607 74.3992 128.84 74.6336C129.729 74.8041 130.585 75.3387 131.367 75.8468C133.064 76.9502 132.898 79.1266 131.055 79.9452C130.168 80.3389 129.217 80.6893 128.261 80.8129C126.051 81.1045 123.989 81.5556 122.034 82.8255C120.088 84.0915 117.897 85.0484 115.709 85.8603C109.871 88.0213 103.846 89.1439 97.5865 88.5349C94.7768 88.2622 91.9616 88.0094 89.1637 87.6396C83.5089 86.894 80.0448 83.2478 77.6091 78.4803C76.8132 76.923 76.15 75.0839 76.1509 73.3742C76.1557 69.1446 77.1121 65.0505 79.0072 61.2148C80.3393 58.5145 82.3452 56.8624 85.3915 56.1853C89.1467 55.3532 92.8381 55.1275 96.593 56L96.5905 55.9997ZM150.458 90.5098C150.624 90.5812 150.787 90.6522 150.954 90.721C150.77 91.333 150.696 92.008 150.387 92.5496C147.07 98.3941 142.318 102.192 135.456 103.016C134.806 103.094 133.991 103.475 133.624 103.985C131.626 106.763 130.579 109.784 131.722 113.245C131.973 114.005 132.066 114.819 132.232 115.607C132.114 115.637 131.995 115.666 131.879 115.695C130.747 114.405 130.038 112.929 129.79 111.182C129.63 110.054 129.454 108.856 128.945 107.866C128.013 106.055 126.857 104.353 125.74 102.644C124.62 100.927 123.017 99.9807 120.944 99.8534C120.519 99.827 120.102 99.6639 119.577 99.5395C121.004 98.0433 123.06 97.9837 124.765 99.2649C125.616 99.9027 126.425 100.594 127.277 101.229C127.523 101.411 127.864 101.615 128.137 101.583C129.85 101.384 131.549 100.994 133.267 100.902C139.209 100.583 143.967 97.9428 147.899 93.6315C148.805 92.6378 149.61 91.5537 150.46 90.5128L150.458 90.5098ZM91.6259 49.9746C91.641 50.1536 91.6586 50.3329 91.6737 50.5118C89.9214 51.0295 88.1719 51.5633 86.4142 52.0646C81.8087 53.3763 78.1131 55.8257 75.937 60.2617C75.699 60.7462 75.1152 61.0574 74.6909 61.4493C74.5054 60.8242 74.2748 60.2055 74.1562 59.5669C74.1092 59.3053 74.2907 58.9917 74.3942 58.7134C75.4414 55.9372 77.735 54.377 80.052 52.7994C80.896 52.2227 81.7118 51.4495 82.2301 50.5803C84.3069 47.0963 87.0129 44.4876 91.0624 43.4574C95.3655 42.3633 99.628 42.6327 103.878 43.7033C104.219 43.79 104.526 43.9991 104.848 44.1534C104.832 44.2627 104.816 44.3721 104.8 44.4814C104.24 44.4896 103.676 44.5438 103.121 44.5007C98.7912 44.1616 94.48 43.9759 90.3477 45.7241C88.5101 46.502 86.8187 47.4861 85.6082 49.1182C85.3488 49.467 85.2697 49.949 85.1087 50.3695C85.5336 50.448 85.9721 50.6272 86.3838 50.5841C87.318 50.4859 88.2348 50.2421 89.1688 50.1282C89.9813 50.0276 90.8053 50.0247 91.6255 49.9772L91.6259 49.9746ZM130.783 84.1666C130.843 84.3105 130.904 84.4573 130.963 84.6012C130.38 86.191 126.133 88.6289 118.951 91.4434C113.92 93.4172 109.615 93.5781 105.296 92.7755C106.925 92.5669 108.761 92.428 110.559 92.0806C116.506 90.9337 121.87 88.2762 127.211 85.5584C128.343 84.9801 129.588 84.6239 130.781 84.1637L130.783 84.1666ZM65.0272 91.1395C64.6368 91.443 64.2287 91.7256 63.8607 92.0531C62.776 93.01 61.7676 94.0665 60.61 94.9191C59.7297 95.5658 58.7737 95.0736 58.8976 94.0084C58.9934 93.1676 59.4883 92.2456 60.0755 91.6127C61.6301 89.938 63.9436 89.9996 65.9517 89.369C66.1559 89.3056 66.6302 89.7344 66.8141 90.037C67.4501 91.077 68.0036 92.1645 68.6028 93.225C69.0207 93.965 69.6083 94.647 69.8391 95.4399C69.9749 95.9096 69.7222 96.7219 69.3506 97.0385C69.0473 97.2977 68.1238 97.2702 67.7988 96.9908C66.1026 95.5316 64.4875 93.9622 65.0265 91.1446L65.0272 91.1395ZM124.421 63.1597C124.535 63.0414 124.648 62.9256 124.764 62.8077C125.062 63.0284 125.392 63.2176 125.653 63.4745C127.594 65.3857 129.551 67.2785 131.441 69.2367C132.944 70.7921 134.389 72.4064 135.792 74.0536C136 74.2975 135.828 74.8645 135.831 75.2833C135.469 75.1648 134.995 75.157 134.761 74.9144C132.996 73.076 131.238 71.2257 129.56 69.3092C127.799 67.3 126.131 65.2109 124.422 63.1572L124.421 63.1597ZM69.2445 82.6348C68.7424 83.0439 68.4023 83.5159 67.9623 83.6457C64.636 84.6347 61.9891 86.6858 59.4406 88.9151C59.0259 89.2773 58.5313 89.5471 57.9507 89.9419C57.9278 86.9009 66.3283 81.4317 69.2424 82.6319L69.2445 82.6348ZM117.146 48.1164C120.844 48.6193 128.502 56.9112 129.187 61.0454C126.86 56.0524 123.328 52.565 118.986 49.8177C118.377 49.4341 117.908 48.832 117.146 48.1139L117.146 48.1164ZM129.019 117.995C129.77 120.1 128.28 121.334 127.214 122.66C126.026 124.137 123.378 125.164 121.846 124.756C125.331 123.484 127.767 121.378 129.019 117.995ZM92.464 107.619L91.8775 107.948C91.2118 106.829 90.5461 105.709 89.8803 104.589C90.0229 104.504 90.1629 104.418 90.3054 104.332C91.0269 105.427 92.8287 105.839 92.464 107.619ZM104.288 129.481C104.377 129.549 104.468 129.619 104.556 129.687C103.663 130.862 102.769 132.037 101.876 133.214C101.775 133.137 101.672 133.062 101.572 132.985C102.477 131.817 103.383 130.649 104.288 129.484L104.288 129.481Z" fill="#F0D1AD"/>
<path d="M80.8811 110.874C80.3955 113.12 81.1704 114.732 83.8783 115.306C86.1 115.778 88.1822 115.506 90.3209 115.275C90.6009 115.243 90.9996 114.884 91.0722 114.604C91.8668 111.551 89.4213 107.499 86.4402 106.471C83.7976 105.56 81.3156 107.867 80.9826 110.206C80.945 110.46 80.9077 110.712 80.8836 110.875L80.8811 110.874Z" fill="#E5C096"/>
<path d="M91.9952 127.665C91.9828 127.749 91.9704 127.833 91.9576 127.919C91.7721 129.103 91.4061 130.4 92.5541 131.245C93.6974 132.087 95.0317 131.778 96.2305 131.262C98.8473 130.134 100.506 128.09 101.517 125.47C102.68 122.453 102.682 122.443 99.4597 122.289C98.5698 122.245 97.6606 122.21 96.7811 122.324C93.913 122.692 92.6011 124.026 92.1429 126.913C92.1027 127.166 92.068 127.419 92.0304 127.673L91.9974 127.668L91.9952 127.665Z" fill="#E5C096"/>
<path d="M79.5709 108.175C78.9381 107.378 78.4263 106.429 77.6498 105.812C74.9559 103.668 71.633 104.844 70.7458 108.19C70.4821 109.182 70.2397 110.189 70.1052 111.203C70.0527 111.593 70.2147 112.271 70.4816 112.399C72.5672 113.404 74.7003 114.299 77.1145 114.067C78.2138 113.959 78.852 113.386 79.0075 112.317C79.2133 110.926 79.3682 109.528 79.546 108.133L79.5705 108.178L79.5709 108.175Z" fill="#E5C096"/>
<path d="M93.9915 112.081C93.6749 114.695 94.1919 115.468 96.8663 115.391C98.805 115.334 100.739 114.838 102.655 114.457C102.918 114.404 103.325 113.807 103.261 113.574C102.572 111.123 102.145 108.542 100.06 106.729C98.3632 105.254 96.1072 105.682 95.268 107.79C94.7181 109.171 94.409 110.646 93.994 112.081L93.9915 112.081Z" fill="#E5C096"/>
<path d="M80.6235 126.77C80.6336 127.58 80.5834 128.393 80.6648 129.195C80.925 131.687 84.0054 133.133 86.1087 131.7C88.2553 130.238 89.2917 127.956 90.1917 125.631C90.2623 125.452 89.8652 124.923 89.5819 124.8C87.8635 124.071 86.0913 123.686 84.2282 124.268C83.8223 124.395 83.3938 124.465 82.9715 124.509C80.9005 124.722 80.8991 124.714 80.6235 126.77Z" fill="#E5C096"/>
<path d="M49.4637 118.738C47.6255 118.625 47.1803 119.053 47.4411 120.819C47.6278 122.086 47.8228 123.349 48.0255 124.614C48.4055 126.98 51.1554 128.816 53.4891 128.267C54.6815 127.986 55.4899 126.825 55.3975 125.447C55.3303 124.426 55.2894 123.386 55.0559 122.4C54.9235 121.838 54.5457 121.143 54.0719 120.885C52.5886 120.076 51.0067 119.442 49.4629 118.743L49.4637 118.738Z" fill="#E5C096"/>
<path d="M37.4536 101.243C37.9388 102.107 38.2625 103.01 38.8634 103.655C39.4552 104.291 40.2952 104.724 41.084 105.135C41.9552 105.586 42.5216 104.971 43.0273 104.362C43.9777 103.224 44.9005 102.061 45.8719 100.94C47.0443 99.5826 46.9372 98.8314 45.4282 97.8624C43.5703 96.6703 40.7869 96.747 39.4477 98.6693C38.8704 99.4986 38.2133 100.269 37.4536 101.243Z" fill="#E5C096"/>
<path d="M112.578 120.843C112.784 119.325 111.779 118.114 110.038 117.991C107.893 117.843 105.785 118.552 104.903 120.425C104.308 121.686 104.893 123.513 105.014 125.08C105.027 125.24 105.481 125.474 105.743 125.492C108.493 125.675 111.969 124.329 112.578 120.843Z" fill="#E5C096"/>
<path d="M106.379 113.677C108.797 114.105 110.543 112.996 112.41 112.493C112.576 112.447 112.757 111.71 112.628 111.442C111.591 109.287 110.27 107.346 107.85 106.577C107.334 106.413 106.585 106.491 106.112 106.757C103.894 107.995 103.483 111.533 105.337 113.26C105.672 113.572 106.246 113.626 106.382 113.677L106.379 113.677Z" fill="#E5C096"/>
<path d="M55.6525 110.517C57.8711 110.869 58.5261 110.217 58.4597 108.664C58.4166 107.691 58.4983 106.7 58.6361 105.733C58.7951 104.606 58.4069 103.665 57.4358 103.292C56.7498 103.03 55.6859 103.039 55.0883 103.408C53.8753 104.161 52.7821 105.158 51.7933 106.205C50.715 107.347 50.8645 108.408 52.2435 109.15C53.5067 109.831 54.9201 110.235 55.6496 110.52L55.6525 110.517Z" fill="#E5C096"/>
<path d="M45.4546 122.815C45.4781 121.321 45.5535 119.828 45.5065 118.337C45.4635 117.047 41.2423 114.918 40.1193 115.607C39.8393 115.779 39.629 116.2 39.5546 116.545C38.9872 119.15 41.1204 123.013 43.5918 123.921C44.8532 124.386 45.4514 124.048 45.455 122.812L45.4546 122.815Z" fill="#E5C096"/>
<path d="M35.1906 110.991C35.0886 112.857 34.9815 114.423 34.926 115.992C34.88 117.269 35.581 118.168 36.5596 118.877C37.2332 119.364 37.7611 119.255 38.0191 118.407C38.3502 117.31 38.6839 116.213 38.9849 115.109C39.0475 114.879 39.0794 114.541 38.9584 114.375C38.0181 113.074 37.0643 111.777 35.1906 110.991Z" fill="#E5C096"/>
<path d="M34.5792 106.062C35.1405 105.815 35.7015 105.57 36.2628 105.323C35.8683 104.776 35.5711 104.098 35.0524 103.723C34.4871 103.312 33.7125 103.192 33.0337 102.933C31.8195 102.465 31.1607 102.791 30.8692 104.042C30.7919 104.371 30.7309 104.731 30.7812 105.058C30.8745 105.656 31.0559 106.239 31.1998 106.83C31.6784 106.563 32.1318 106.237 32.6383 106.045C33.2053 105.83 33.8215 105.739 34.4143 105.595L34.5766 106.061L34.5792 106.062Z" fill="#E5C096"/>
<path d="M33.2603 112.132C33.7843 111.435 34.4297 110.795 34.8007 110.026C35.1716 109.257 35.5134 109.089 36.2698 109.456C36.5921 109.613 37.0374 109.518 37.4266 109.539C37.3528 109.107 37.432 108.466 37.1785 108.283C36.6084 107.869 35.8381 107.386 35.2184 107.466C34.1138 107.609 32.8241 107.933 32.5882 109.317C32.4425 110.179 32.6312 111.098 32.6704 111.992C32.866 112.039 33.0646 112.084 33.2603 112.132Z" fill="#E5C096"/>
<path d="M39.0479 61.1552C39.9185 59.5378 40.813 57.9343 41.6278 56.2904C41.75 56.0435 41.6032 55.5254 41.3997 55.303C41.2584 55.1522 40.7569 55.2053 40.4917 55.3298C40.12 55.5061 39.6891 55.7672 39.5086 56.1095C38.7079 57.6229 38.3949 59.2474 38.5115 60.9355C38.6903 61.0087 38.8691 61.082 39.0479 61.1552Z" fill="#E5C096"/>
<path d="M33.6809 91.4108C33.2638 91.596 32.7724 91.6688 32.5278 91.9522C31.8039 92.7884 31.1412 93.6856 30.5412 94.6155C30.3797 94.8644 30.5359 95.3189 30.5446 95.6814C30.8813 95.583 31.3098 95.5841 31.5388 95.3711C32.4451 94.5307 33.3048 93.6367 34.1431 92.7291C34.3164 92.5417 34.4651 92.1687 34.3949 91.9582C34.3207 91.7394 33.9673 91.6169 33.6783 91.4105L33.6809 91.4108Z" fill="#E5C096"/>
<path d="M96.588 55.9993C92.8334 55.1242 89.142 55.3499 85.3864 56.1845C82.3405 56.8591 80.3342 58.5138 79.0021 61.214C77.107 65.0497 76.1503 69.1464 76.1459 73.3735C76.1449 75.0832 76.8081 76.9223 77.604 78.4796C80.0397 83.247 83.5039 86.8933 89.1586 87.6389C91.9565 88.0086 94.7718 88.2614 97.5814 88.5341C103.841 89.1431 109.866 88.0205 115.703 85.8595C117.891 85.0502 120.083 84.0908 122.029 82.8248C123.984 81.5548 126.046 81.1037 128.256 80.8122C129.21 80.6857 130.163 80.3381 131.05 79.9444C132.893 79.1258 133.057 76.9491 131.362 75.8461C130.58 75.338 129.724 74.8034 128.835 74.6328C127.599 74.3955 126.96 73.5733 126.196 72.7639C123.883 70.3092 121.659 67.748 119.144 65.518C115.648 62.4205 111.432 60.4119 107.09 58.8054C103.693 57.5493 100.155 56.6698 96.6796 55.6257L96.5854 55.9989L96.588 55.9993Z" fill="#542B11"/>
<path d="M150.458 90.5098C149.607 91.5533 148.802 92.6374 147.897 93.6286C143.965 97.9399 139.207 100.583 133.265 100.899C131.547 100.991 129.85 101.381 128.135 101.58C127.862 101.612 127.521 101.408 127.275 101.227C126.423 100.591 125.614 99.8998 124.762 99.262C123.058 97.9833 121.001 98.043 119.575 99.5366C120.1 99.6609 120.517 99.8266 120.942 99.8505C123.017 99.9782 124.618 100.924 125.738 102.641C126.857 104.353 128.011 106.052 128.943 107.863C129.454 108.853 129.628 110.051 129.788 111.179C130.036 112.926 130.743 114.402 131.877 115.692C131.995 115.663 132.114 115.634 132.23 115.604C132.064 114.816 131.971 114.002 131.72 113.242C130.577 109.781 131.626 106.761 133.622 103.982C133.989 103.472 134.803 103.094 135.454 103.013C142.316 102.189 147.068 98.3912 150.385 92.5467C150.694 92.0051 150.768 91.33 150.952 90.718C150.786 90.6467 150.622 90.5757 150.456 90.5069L150.458 90.5098Z" fill="#552800"/>
<path d="M91.6259 49.9746C90.8056 50.0222 89.9816 50.025 89.1692 50.1257C88.2377 50.24 87.318 50.4859 86.3842 50.5816C85.97 50.6243 85.534 50.4454 85.1091 50.367C85.2701 49.9465 85.3492 49.4644 85.6086 49.1156C86.8191 47.4836 88.5105 46.4995 90.3481 45.7215C94.4807 43.9709 98.792 44.1565 103.122 44.4982C103.677 44.5413 104.241 44.487 104.8 44.4789C104.816 44.3695 104.833 44.2602 104.849 44.1508C104.526 43.9991 104.217 43.7871 103.879 43.7007C99.6283 42.6302 95.3658 42.3608 91.0627 43.4548C87.0158 44.4854 84.3099 47.0942 82.2305 50.5778C81.7122 51.447 80.8964 52.2202 80.0524 52.7969C77.735 54.377 75.4439 55.9376 74.3946 58.7108C74.2885 58.9888 74.107 59.3023 74.1566 59.5643C74.2751 60.2029 74.5058 60.8217 74.6913 61.4468C75.1156 61.0548 75.7023 60.7415 75.9374 60.2591C78.1113 55.8202 81.8091 53.3738 86.4146 52.0621C88.1723 51.5607 89.9214 51.0295 91.6741 50.5093C91.659 50.3303 91.6413 50.151 91.6262 49.9721L91.6259 49.9746Z" fill="#552800"/>
<path d="M130.786 84.167C129.593 84.6272 128.348 84.9834 127.215 85.5617C121.874 88.2795 116.511 90.9395 110.563 92.0839C108.766 92.4313 106.93 92.5676 105.301 92.7788C109.62 93.5788 113.923 93.4176 118.956 91.4467C126.137 88.6322 130.385 86.1943 130.968 84.6045C130.909 84.4606 130.847 84.3138 130.788 84.1699L130.786 84.167Z" fill="#552800"/>
<path d="M65.0298 91.1399C64.4905 93.9601 66.1059 95.5269 67.8021 96.9861C68.1271 97.2655 69.0506 97.2929 69.3539 97.0338C69.7255 96.7172 69.9782 95.9048 69.8424 95.4352C69.6137 94.6452 69.024 93.9603 68.6061 93.2203C68.0069 92.1598 67.4508 91.0719 66.8174 90.0323C66.6335 89.7297 66.1592 89.3009 65.9549 89.3643C63.9495 89.9953 61.6356 89.9362 60.0788 91.608C59.4916 92.2409 58.9967 93.1629 58.9009 94.0037C58.777 95.0689 59.7352 95.5641 60.6133 94.9144C61.7709 94.0618 62.7797 93.0028 63.864 92.0484C64.2345 91.7213 64.6426 91.4386 65.0305 91.1348L65.0298 91.1399Z" fill="#552800"/>
<path d="M124.423 63.1626C126.133 65.2163 127.801 67.3054 129.562 69.3147C131.24 71.2312 132.998 73.079 134.762 74.9199C134.994 75.1621 135.468 75.1724 135.833 75.2887C135.83 74.8699 136.002 74.3029 135.794 74.0591C134.393 72.4122 132.946 70.7975 131.443 69.2422C129.55 67.2861 127.593 65.3908 125.655 63.4799C125.394 63.2231 125.063 63.0338 124.766 62.8132C124.653 62.9315 124.539 63.0472 124.423 63.1652L124.423 63.1626Z" fill="#552800"/>
<path d="M69.2467 82.6378C66.3301 81.4371 57.9295 86.9063 57.955 89.9478C58.5357 89.5529 59.0302 89.2831 59.4449 88.9209C61.996 86.692 64.6432 84.6384 67.9666 83.6515C68.4067 83.5217 68.7442 83.0493 69.2489 82.6407L69.2467 82.6378Z" fill="#552800"/>
<path d="M117.146 48.1164C117.908 48.832 118.379 49.437 118.985 49.8203C123.328 52.5675 126.857 56.0545 129.187 61.0479C128.5 56.9108 120.844 48.6193 117.145 48.1189L117.146 48.1164Z" fill="#552800"/>
<path d="M129.016 117.995C127.765 121.378 125.328 123.483 121.843 124.755C123.375 125.164 126.024 124.137 127.211 122.66C128.278 121.334 129.767 120.099 129.016 117.995Z" fill="#552800"/>
<path d="M92.464 107.619C92.8287 105.839 91.0269 105.427 90.3054 104.332C90.1629 104.418 90.0229 104.504 89.8803 104.589C90.5461 105.709 91.2118 106.829 91.8775 107.948L92.464 107.619Z" fill="#552800"/>
<path d="M104.288 129.481C103.383 130.649 102.477 131.817 101.572 132.982C101.672 133.059 101.776 133.134 101.876 133.212C102.769 132.037 103.663 130.862 104.557 129.684C104.468 129.617 104.377 129.546 104.288 129.478L104.288 129.481Z" fill="#552800"/>
</svg>
