<svg width="881" height="725" viewBox="0 0 881 725" fill="none" xmlns="http://www.w3.org/2000/svg">
<g opacity="0.8">
<path d="M534.459 78.891C526.25 80.2404 520.145 83.7224 516.313 88.4308C513.547 87.0689 510.593 85.8989 507.585 84.965C494.653 81.0803 477.061 82.2329 467.821 89.9313C467.603 89.6861 467.43 89.4423 467.211 89.1971C463.152 84.4611 457.562 80.7441 450.564 78.4468C441.591 75.5279 432.442 76.4889 424.76 79.6799C422.797 73.3095 418.103 67.2436 412.418 62.2943C404.222 55.159 392.704 49.6962 380.004 48.3569C373.857 47.7139 367.665 48.4175 362.115 50.2529C361.748 50.3595 361.38 50.5057 361.013 50.6519C351.188 44.7306 338.948 40.5123 327.008 39.4761C289.518 36.1924 242.02 72.8565 274.472 97.8179C278.54 100.929 283.364 103.153 288.576 104.637C262.807 112.889 239.909 127.503 234.285 147.733C230.056 162.856 237.653 179.725 255.069 189.193C261.929 192.913 269.741 195.277 277.907 196.583C275.719 198.254 274.353 199.754 273.547 200.798C273.897 201.167 273.515 201.748 272.834 201.765C272.69 201.998 272.595 202.114 272.595 202.114C272.595 202.114 272.51 201.953 272.293 201.668C270.431 199.028 259.837 202.517 257.812 203.361C247.828 207.585 238.136 216.577 237.436 225.276C237.424 225.632 236.917 225.853 236.465 225.798C221.62 224.863 203.769 237.743 213.706 248.426C216.114 251.005 221.139 253.989 225.231 255.039C240.387 258.88 247.57 255.672 250.824 253.323C250.824 253.323 241.198 261.722 248.356 270.052C255.513 278.421 263.363 278.328 263.363 278.328C263.363 278.328 262.152 284.671 247.945 284.986C233.736 285.34 226.631 290.256 226.627 299.811C226.623 309.367 242.758 323.193 269.483 313.466C267.061 320.759 275.194 327.06 284.095 329.421C292.906 331.779 302.973 331.841 311.668 329.556C316.152 328.398 320.48 326.482 323.473 323.808C326.839 320.828 330.564 317.94 332.11 313.789C332.11 313.789 353.937 329.67 380.764 319.59C380.764 319.59 370.401 336.409 397.879 339.356C397.879 339.356 378.817 361.276 416.875 373.302C416.875 373.302 413.282 374.925 413.418 376.278C413.418 376.278 389.087 372.842 383.09 383.901C376.418 396.166 393.925 405.637 405.873 407.744C405.873 407.744 393.537 406.378 387.766 414.787C381.995 423.197 390.246 428.709 390.246 428.709L373.777 431.525C329.231 435.735 382.209 439.739 409.578 436.496C434.261 433.521 436.916 420.684 432.255 410.932C432.255 410.932 429.038 405.431 439.384 403.955C449.729 402.48 443.548 413.651 460.76 415.697C477.972 417.744 485.067 409.061 484.877 403.94C484.877 403.94 507.496 411.085 515.803 396.059C515.803 396.059 530.532 393.74 532.693 382.076C534.854 370.412 519.778 364.195 512.788 363.009C512.788 363.009 524.537 357.575 527.41 347.68C531.778 348.62 536.254 349.048 540.433 348.872C548.472 348.548 556.488 346.2 560.607 341.065C563.78 337.088 562.155 332.791 558.876 329.152C563.219 328.148 567.306 326.66 570.723 324.832C579.081 320.435 584.308 313.355 586.142 306.041C587.818 299.357 585.748 292.151 579.991 286.644C578.629 285.329 577.034 284.205 575.298 283.234C578.883 281.848 582.117 280.094 584.674 278.237C593.37 271.868 597.987 262.706 598.244 253.714C598.541 244.882 594.5 235.587 584.532 229.899C573.494 223.619 558.969 223.963 546.187 226.388C548.519 223.136 548.361 219.76 546.788 216.614C547.901 215.898 548.926 215.1 549.865 214.141C550.289 213.679 550.667 213.216 551.048 212.674C551.994 212.864 552.898 212.974 553.756 213.082C560.712 213.951 567.754 212.245 573.468 209.582C584.112 204.627 587.315 195.695 582.73 187.729C590.4 186.243 597.539 183.034 603.12 178.9C650.561 143.938 609.625 66.4723 534.55 78.894L534.459 78.891Z" fill="#E5E5E5"/>
<path d="M230.208 269.059C223.67 270.623 209.313 263.281 218.011 260.877C226.709 258.474 236.447 261.577 236.447 261.577C236.447 261.577 241.457 266.345 230.208 269.059Z" fill="url(#paint0_linear_33_3437)"/>
<path d="M376.364 343.906C375.298 349.976 365.82 353.979 355.153 352.866C344.488 351.715 336.656 345.9 337.723 339.79C338.744 333.719 348.267 329.718 358.934 330.83C369.599 331.982 377.431 337.796 376.364 343.906Z" fill="url(#paint1_linear_33_3437)"/>
<path d="M330.116 351.682C329.611 354.56 324.785 356.42 319.36 355.841C313.89 355.26 309.901 352.469 310.361 349.589C310.866 346.711 315.692 344.851 321.117 345.43C326.586 346.011 330.575 348.802 330.116 351.682Z" fill="url(#paint2_linear_33_3437)"/>
<path d="M594.311 218.263C593.806 221.141 588.98 223.001 583.555 222.422C578.085 221.841 574.096 219.05 574.556 216.17C575.061 213.292 579.886 211.472 585.312 212.011C590.782 212.592 594.771 215.383 594.311 218.263Z" fill="url(#paint3_linear_33_3437)"/>
<path d="M463.525 426.739C463.02 429.617 458.194 431.477 452.77 430.898C447.3 430.317 443.311 427.526 443.771 424.646C444.276 421.768 449.102 419.908 454.526 420.487C459.996 421.068 463.985 423.859 463.525 426.739Z" fill="url(#paint4_linear_33_3437)"/>
<path d="M542.57 360.89C542.34 362.311 539.95 363.222 537.237 362.932C534.524 362.643 532.529 361.266 532.758 359.846C532.987 358.426 535.378 357.514 538.09 357.804C540.803 358.094 542.799 359.47 542.57 360.89Z" fill="url(#paint5_linear_33_3437)"/>
<path d="M486.049 420.444C485.819 421.865 483.429 422.776 480.716 422.486C478.003 422.197 476.007 420.82 476.237 419.4C476.466 417.98 478.856 417.068 481.569 417.358C484.282 417.648 486.278 419.024 486.049 420.444Z" fill="url(#paint6_linear_33_3437)"/>
<path d="M341.35 325.005C341.121 326.426 338.686 327.335 335.973 327.046C333.26 326.756 331.264 325.38 331.493 323.96C331.723 322.539 334.113 321.628 336.826 321.918C339.539 322.207 341.534 323.583 341.305 325.004L341.35 325.005Z" fill="url(#paint7_linear_33_3437)"/>
<path d="M604.748 227.817C604.519 229.237 602.129 230.148 599.416 229.859C596.703 229.569 594.707 228.193 594.936 226.773C595.166 225.352 597.556 224.441 600.269 224.731C602.982 225.02 604.978 226.396 604.748 227.817Z" fill="url(#paint8_linear_33_3437)"/>
<path d="M614.748 189.408C614.519 190.828 612.129 191.739 609.416 191.45C606.703 191.16 604.707 189.784 604.936 188.364C605.166 186.943 607.556 186.032 610.269 186.322C612.982 186.611 614.978 187.988 614.748 189.408Z" fill="url(#paint9_linear_33_3437)"/>
<path d="M242.835 277.88C242.605 279.3 240.215 280.212 237.502 279.922C234.789 279.632 232.794 278.256 233.023 276.836C233.252 275.415 235.642 274.504 238.355 274.794C241.068 275.083 243.064 276.46 242.835 277.88Z" fill="url(#paint10_linear_33_3437)"/>
<path d="M251.824 198.212C251.595 199.632 249.205 200.543 246.492 200.254C243.779 199.964 241.783 198.588 242.013 197.167C242.242 195.747 244.632 194.836 247.345 195.125C250.058 195.415 252.054 196.791 251.824 198.212Z" fill="url(#paint11_linear_33_3437)"/>
<g style="mix-blend-mode:multiply" opacity="0.5">
<path d="M534.459 78.891C526.25 80.2404 520.145 83.7224 516.313 88.4308C513.547 87.0689 510.593 85.8989 507.585 84.965C494.653 81.0803 477.061 82.2329 467.821 89.9313C467.603 89.6861 467.43 89.4423 467.211 89.1971C463.152 84.4611 457.562 80.7441 450.564 78.4468C441.591 75.5279 432.442 76.4889 424.76 79.6799C422.797 73.3095 418.103 67.2436 412.418 62.2943C404.222 55.159 392.704 49.6962 380.004 48.3569C373.857 47.7139 367.665 48.4175 362.115 50.2529C361.748 50.3595 361.38 50.5057 361.013 50.6519C351.188 44.7306 338.948 40.5123 327.008 39.4761C289.518 36.1924 242.02 72.8565 274.472 97.8179C278.54 100.929 283.364 103.153 288.576 104.637C262.807 112.889 239.909 127.503 234.285 147.733C230.056 162.856 237.653 179.725 255.069 189.193C261.929 192.913 269.741 195.277 277.907 196.583C275.719 198.254 274.353 199.754 273.547 200.798C273.897 201.167 273.515 201.748 272.834 201.765C272.69 201.998 272.595 202.114 272.595 202.114C272.595 202.114 272.51 201.953 272.293 201.668C270.431 199.028 259.837 202.517 257.812 203.361C247.828 207.585 238.136 216.577 237.436 225.276C237.424 225.632 236.917 225.853 236.465 225.798C221.62 224.863 203.769 237.743 213.706 248.426C216.114 251.005 221.139 253.989 225.231 255.039C240.387 258.88 247.57 255.672 250.824 253.323C250.824 253.323 241.198 261.722 248.356 270.052C255.513 278.421 263.363 278.328 263.363 278.328C263.363 278.328 262.152 284.671 247.945 284.986C233.736 285.34 226.631 290.256 226.627 299.811C226.623 309.367 242.758 323.193 269.483 313.466C267.061 320.759 275.194 327.06 284.095 329.421C292.906 331.779 302.973 331.841 311.668 329.556C316.152 328.398 320.48 326.482 323.473 323.808C326.839 320.828 330.564 317.94 332.11 313.789C332.11 313.789 353.937 329.67 380.764 319.59C380.764 319.59 370.401 336.409 397.879 339.356C397.879 339.356 378.817 361.276 416.875 373.302C416.875 373.302 413.282 374.925 413.418 376.278C413.418 376.278 389.087 372.842 383.09 383.901C376.418 396.166 393.925 405.637 405.873 407.744C405.873 407.744 393.537 406.378 387.766 414.787C381.995 423.197 390.246 428.709 390.246 428.709L373.777 431.525C329.231 435.735 382.209 439.739 409.578 436.496C434.261 433.521 436.916 420.684 432.255 410.932C432.255 410.932 429.038 405.431 439.384 403.955C449.729 402.48 443.548 413.651 460.76 415.697C477.972 417.744 485.067 409.061 484.877 403.94C484.877 403.94 507.496 411.085 515.803 396.059C515.803 396.059 530.532 393.74 532.693 382.076C534.854 370.412 519.778 364.195 512.788 363.009C512.788 363.009 524.537 357.575 527.41 347.68C531.778 348.62 536.254 349.048 540.433 348.872C548.472 348.548 556.488 346.2 560.607 341.065C563.78 337.088 562.155 332.791 558.876 329.152C563.219 328.148 567.306 326.66 570.723 324.832C579.081 320.435 584.308 313.355 586.142 306.041C587.818 299.357 585.748 292.151 579.991 286.644C578.629 285.329 577.034 284.205 575.298 283.234C578.883 281.848 582.117 280.094 584.674 278.237C593.37 271.868 597.987 262.706 598.244 253.714C598.541 244.882 594.5 235.587 584.532 229.899C573.494 223.619 558.969 223.963 546.187 226.388C548.519 223.136 548.361 219.76 546.788 216.614C547.901 215.898 548.926 215.1 549.865 214.141C550.289 213.679 550.667 213.216 551.048 212.674C551.994 212.864 552.898 212.974 553.756 213.082C560.712 213.951 567.754 212.245 573.468 209.582C584.112 204.627 587.315 195.695 582.73 187.729C590.4 186.243 597.539 183.034 603.12 178.9C650.561 143.938 609.625 66.4723 534.55 78.894L534.459 78.891ZM547.272 168.535C548.836 177.311 549.152 185.45 540.612 192.577C533.053 198.865 520.659 201.897 509.194 200.243C516.965 202.487 524.503 206.269 527.9 211.816C531.295 217.401 529.183 224.904 521.746 227.548C532.158 232.18 543.875 238.483 543.579 247.275C543.454 250.998 539.596 255.111 534.535 254.544C542.159 259.836 547.258 267.343 546.551 274.892C545.843 282.442 538.525 289.649 528.403 291.212C538.013 299.466 543.897 307.911 534.71 318.109C529.196 324.267 518.866 327.964 508.632 327.461C513.153 334.631 509.906 343.523 502.109 348.772C494.313 354.021 482.779 355.774 472.166 354.386C473.544 363.314 461.887 371.406 449.503 371.466C437.164 371.526 425.682 364.994 420.517 356.731C417.244 351.546 416.28 345.17 420.518 340.515C412.603 342.548 402.817 339.522 399.103 333.965C395.435 328.41 398.359 321.054 405.584 317.967C399.157 316.204 392.596 314.397 387.212 311.282C381.784 308.165 377.632 303.505 377.753 298.553C372.307 304.04 363.907 308.356 354.511 308.556C345.115 308.755 335.208 303.941 333.712 297.19C332.001 302.208 330.294 307.106 324.909 310.771C320.545 313.757 314.686 315.344 308.804 316.256C301.783 317.328 294.293 317.512 287.459 315.736C280.624 313.96 274.544 309.988 272.628 304.928C270.712 299.868 273.682 293.822 280.195 291.662C274.447 289.962 270.523 285.27 271.172 280.811C271.775 276.351 276.895 272.479 282.994 271.852C276.51 269.096 271.129 264.553 269.903 259.199C268.677 253.845 272.598 247.87 279.593 246.203C269.641 246.78 257.787 245.905 249.932 240.764C247.713 239.301 245.733 237.49 245.305 235.374C244.564 231.781 248.301 228.576 252.273 226.449C262.342 221.079 275.832 219.154 288.142 221.312C285.005 216.132 288.527 209.866 294.67 206.584C300.814 203.262 308.87 202.423 316.58 202.444C312.805 198.709 311.889 193.603 314.207 189.399C316.571 185.196 322.074 182.051 328.309 181.428C315.946 179.505 304.467 178.286 292.761 174.363C283.162 171.146 273.728 167.101 267.543 160.866C256.05 149.259 259.245 132.475 271.004 121.372C282.762 110.269 301.297 103.994 320.018 100.302C312.094 95.8326 304.039 91.2397 298.16 85.3322C292.283 79.3852 288.865 71.7763 291.366 64.8424C294.12 57.124 303.97 51.5079 314.686 49.8067C326.269 47.976 346.23 47.8548 352.034 57.3282C359.3 51.6649 373.458 52.8154 380.699 58.6893C387.939 64.6029 388.63 73.7061 384.22 80.774C392.485 79.1093 401.917 80.5369 408.768 84.4946C415.62 88.4522 419.67 94.8136 419.369 101.068C424.21 93.3407 437.239 88.9418 448.637 91.2286C460.081 93.5169 468.544 102.168 467.712 110.704C468.049 107.425 484.189 102.258 488.201 101.64C496.5 100.333 505.934 104.378 511.176 108.995C512.806 110.438 514.244 112.191 514.045 114.048C520.025 110.205 528.913 108.918 536.652 110.764C544.392 112.611 550.668 117.501 552.608 123.196C553.559 125.924 553.506 128.857 551.835 131.338C550.164 133.819 546.565 135.641 542.715 135.472C555.846 137.5 570.142 139.924 570.958 152.084C571.628 161.821 559.902 169.277 547.224 168.613L547.272 168.535Z" fill="#9E9E9E"/>
</g>
<path opacity="0.4" d="M405.541 107.538C405.76 105.087 404.805 102.478 403.004 100.712C399.841 97.6718 394.619 96.5049 389.746 97.0942C389.63 93.7994 387.379 90.5913 383.542 88.7175C381.98 87.9513 373.635 85.2518 372.121 87.104C376.188 82.1657 374.526 73.585 365.17 72.5961C361.238 72.1862 357.439 73.2082 354.612 75.0163C351.909 73.1014 348.37 71.7928 344.82 70.8011C337.767 68.7795 329.59 69.1783 325.695 74.4C322.655 78.461 323.842 83.6158 325.877 87.8476C327.787 91.7579 331.206 95.2829 335.467 98.0432C333.039 98.7545 330.738 99.7476 329.128 100.407C323.932 102.532 319.077 105.263 315.825 108.92C312.996 112.116 311.591 116.113 312.052 119.935C303.803 118.428 295.067 119.245 288.428 123.779C279.188 130.13 278.746 140.582 289.943 146.153C298.24 150.279 307.171 150.42 316.581 149.786C313.652 153.255 319.366 158.682 323.105 160.79C331.782 165.761 346.247 164.542 352.71 158.495C355.996 163.284 362.324 166.63 370.084 166.494C377.164 166.376 383.247 163.527 386.877 159.447C395.05 161.863 405.57 156.547 409.238 151.357C412.619 146.554 412.481 141.237 409.548 136.737C411.644 136.45 413.7 136.004 415.539 135.273C422.111 132.719 425.858 127.849 425.724 122.412C425.522 113.563 416.082 108.369 405.588 107.5L405.541 107.538Z" fill="white"/>
<path opacity="0.4" d="M494.159 327.732C497.097 329.377 503.169 325.497 504.401 323.953C506.671 321.174 506.14 318.103 503.964 315.373C511.356 315.384 514.423 307.835 508.965 304.241C506.923 302.904 504.146 303.207 501.865 303.606C502.171 298.541 496.05 293.101 488.593 294.992C491.594 292.079 496.021 285.884 489.946 283.102C485.792 281.178 482.955 283.264 479.595 284.737C482.06 281.568 472.612 277.92 469.45 277.536C463.307 276.774 455.135 279.711 453.304 284.248C451.015 279.493 437.811 278.295 432.544 279.823C429.062 280.855 425.745 282.369 425.152 285.165C424.562 287.881 426.888 288.831 428.404 290.984C423.247 290.572 418.431 293.503 416.864 296.939C414.413 302.368 422.995 304.798 429.047 305.557C426.034 307.478 423.836 309.465 423.052 312.532C421.794 317.565 427.056 318.892 432.477 320.898C427.821 321.772 424.133 323.551 423.316 327.608C422.059 333.949 434.138 337.567 441.29 336.658C436.522 339.511 434.161 343.634 440.084 346.887C446.275 350.267 458.294 350.275 461.224 344.069C461.371 347.801 468.718 347.811 471.924 346.888C476.412 345.611 481.471 340.865 478.059 337.102C480.29 339.556 491.259 338.419 494.129 336.692C497.461 334.742 497.766 329.717 494.204 327.733L494.159 327.732Z" fill="white"/>
<path opacity="0.4" d="M421.962 254.724C421.096 246.764 405.427 241.995 396.503 245.699C409.957 236.755 384.941 225.366 374 229.716C377.331 227.766 380.071 224.528 380.269 221.323C380.554 216.892 378.67 216.273 373.665 214.043C382.212 213.458 388.928 216.063 395.914 210.628C399.36 207.969 402.112 203.026 399.965 199.425C393.876 188.99 371.933 187.34 362.783 195.081C363.081 186.209 341.073 186.499 335.963 192.79C332.652 196.842 333.08 203.002 332.908 208.112C332.52 208.852 332.176 209.633 331.831 210.454C329.88 210.468 327.976 210.444 326.205 210.503C316.498 209.185 302.185 212.629 299.525 218.883C295.193 229.007 319.208 229.736 327.82 231.255C321.592 231.679 317.502 237.291 317.09 241.441C316.409 248.198 323.629 250.661 330.086 254.209C325.76 256.086 322.027 259.172 322.658 263.356C323.704 270.013 333.664 270.546 341.315 270.962C338.648 274.758 338.698 278.646 343.738 281.194C355.424 287.059 363.534 276.547 364.532 269.801C369.986 277.558 392.491 284.064 402.92 278.745C409.472 275.437 411.175 267.961 402.828 265.301C412.203 267.083 422.784 262.642 421.963 254.684L421.962 254.724ZM331.331 211.825C330.796 211.569 330.212 211.391 329.628 211.213L331.827 210.573C331.676 211.004 331.482 211.394 331.331 211.825ZM332.285 210.43L332.789 210.288C332.789 210.288 332.785 210.407 332.784 210.447C332.602 210.441 332.421 210.435 332.285 210.43Z" fill="white"/>
<path opacity="0.4" d="M509.639 149.232C520.886 139.857 497.386 131.929 487.125 137.611C484.873 135.79 483.627 133.726 481.783 131.92C481.753 127.438 473.145 121.756 468.506 120.767C455.945 118.005 446.674 122.57 446.099 131.591C440.309 131.119 435.441 135.594 436.755 139.682C439.136 147.098 451.927 145.744 459.216 144.8C462.378 155.969 478.765 154.22 490.784 154.228C477.908 155.421 482.028 171.816 491.53 175.189C486.066 174.489 478.428 175.025 474.906 177.246C471.71 179.2 472.093 181.315 472.045 184.089C469.514 181.109 460.309 182.385 456.989 184.018C452.746 186.096 452.789 188.873 454.396 192.337C454.757 192.389 455.303 192.328 455.619 192.378C437.254 203.021 468.268 212.748 475.047 205.403C478.896 210.964 486.377 212.405 493.494 208.482C498.9 205.531 500.25 200.462 499.764 196.044C510.998 199.158 519.409 190.48 519.516 183.267C519.602 176.649 516.538 170.677 511.405 165.509C538.296 165.66 523.062 143.935 509.686 149.194L509.639 149.232Z" fill="white"/>
<g style="mix-blend-mode:screen">
<path d="M340.447 10.6687L340.398 10.7296C340.398 10.7296 340.373 10.7705 340.447 10.6687Z" fill="#E5E5E5"/>
</g>
<g style="mix-blend-mode:screen">
<path d="M638.515 222.791L638.466 222.852C638.466 222.852 638.44 222.893 638.515 222.791Z" fill="#E5E5E5"/>
</g>
<g style="mix-blend-mode:screen">
<path d="M663.116 211.731C662.333 210.713 660.729 211.174 659.756 211.776C658.182 212.715 657.774 214.05 658.226 215.454C658.511 216.415 659.576 217.126 660.886 217.289C661.565 217.351 662.309 216.821 662.28 216.344C662.214 215.588 662.556 214.885 662.806 214.18C663.055 213.514 663.769 212.546 663.116 211.731Z" fill="#E5E5E5"/>
</g>
</g>
<path d="M5.26199e-05 695.775C5.26199e-05 695.775 84.5807 688.269 163.6 630.022C242.62 571.774 281.179 524.468 281.179 524.468C281.179 524.468 361.523 451.302 431.925 459.546C502.294 467.789 543.549 483.06 598.596 541.024C653.643 598.962 728.765 634.077 760.787 660.813C792.811 687.523 812.809 717.78 857.472 724.63L5.26199e-05 695.775Z" fill="url(#paint12_linear_33_3437)"/>
<g style="mix-blend-mode:multiply" opacity="0.44">
<path d="M372.825 414.733C385.281 398.398 379.387 386.872 391.907 384.263C407.805 380.952 403.767 384.663 424.564 389.209C445.394 393.756 445.634 386.625 462.418 388.27C479.234 389.942 472.433 377.042 483.706 376.315C494.978 375.588 496.384 381.694 503.209 392.935C510.066 404.177 531.135 445.614 550.708 461.13C570.249 476.645 599.781 530.484 619.942 550.999C640.137 571.489 737.745 646.981 764.653 665.405C770.151 669.173 751.547 664.912 751.547 664.912C751.547 664.912 749.823 664.353 741.487 661.86C733.151 659.366 694.432 628.348 684.166 623.603C673.899 618.858 642.232 593.293 622.734 588.238C603.237 583.182 600.582 566.286 581.042 550.77C561.501 535.255 564.636 525.166 540.146 513.066C515.656 500.967 521.333 488.645 511.935 492.307C507.336 494.101 532.107 521.305 541.446 530.154C550.785 539.004 555.054 546.998 546.315 552.579C541.407 555.733 530.496 549.649 530.496 549.649C530.496 549.649 541.317 585.788 557.671 601.196C574.024 616.604 604.816 643.773 604.468 661.912C604.327 669.046 588.632 659.482 588.632 659.482C588.632 659.482 603.931 683.732 615.219 694.281C626.507 704.829 618.038 716.056 598.415 703.015C578.791 689.973 577.467 668.722 557.058 643.825C536.618 618.901 518.854 598.493 512.761 576.265C506.668 554.037 494.893 546.212 494.893 546.212C494.893 546.212 477.267 545.171 476.092 532.196C474.917 519.222 477.341 506.817 475.008 504.789C475.008 504.789 472.727 512.958 466.751 511.677C460.776 510.369 463.516 500.293 458.158 492.394C452.799 484.521 448.196 478.597 448.532 492.096C448.867 505.595 463.19 533.448 453.885 548.019C444.582 562.564 443.451 572.694 444.371 581.524C445.291 590.354 432.296 606.091 434.414 626.237C436.498 646.407 421.216 664.623 421.102 679.74C420.987 694.884 412.408 707.451 406.039 706.13C399.67 704.809 402.34 704.636 403.522 693.927C404.671 683.244 409.869 670.484 415.617 658.007C421.333 645.528 420.6 626.246 417.024 616.22C413.447 606.195 423.542 586.724 418.153 582.67C412.763 578.643 408.026 599.189 403.243 598.633C393.644 597.494 399.498 586.758 407.629 571.884C415.76 557.01 413.959 548.941 419.642 538.411C425.292 527.879 417.707 526.517 412.754 531.013C407.767 535.535 401.94 529.833 404.148 523.848C406.355 517.863 407.055 508.798 410.864 503.131C414.671 497.49 402.091 500.913 392.119 511.852C382.115 522.791 382.33 535.943 377.333 541.729C372.337 547.514 354.858 573.349 353.33 586.522C351.801 599.695 321.051 607.459 316.439 616.471C311.861 625.484 300.064 633.965 294.016 638.741C287.968 643.516 276.568 635.335 284.879 626.816C293.191 618.297 298.884 613.325 305.643 604.016C312.37 594.706 312.906 594.408 321.203 587.311C329.467 580.213 336.665 573.5 338.559 565.108C340.452 556.742 340.104 550.486 345.118 545.149C350.132 539.812 344.765 540.001 336.502 547.072C328.239 554.144 307.919 585.257 300.972 584.496C286.62 582.907 297.67 578.036 301.198 568.988C304.726 559.939 302.812 562.087 291.744 572.357C280.709 582.629 279.514 585.882 271.276 592.217C263.038 598.552 245.004 609.615 238.175 605.355C231.346 601.094 244.294 592.6 253.045 586.677C261.796 580.728 277.835 572.258 287.47 555.696C297.138 539.135 310.891 528.218 319.641 522.295C328.393 516.346 328.639 509.031 319.486 511.278C310.299 513.551 294.604 528.407 284.353 536.888C272.513 546.684 258.564 547.769 271.393 532.052C284.223 516.335 291.5 515.105 301.471 505.166C311.442 495.228 336.192 467.346 346.262 454.461C356.332 441.602 364.087 426.162 372.895 414.63L372.825 414.733Z" fill="#5D2810"/>
</g>
<g style="mix-blend-mode:multiply" opacity="0.25">
<path d="M760.79 660.819C753.752 654.945 744.591 648.63 734.033 641.794C734.374 642.412 734.747 643.057 735.088 643.674C741.829 655.439 749.426 666.206 757.661 677.547C763.383 685.406 769.083 690.945 768.495 699.645C756.589 700.615 750.727 688.141 740.047 688.836C741.303 691.591 745.187 694.435 744.988 697.432C734.266 693.515 725.877 685.751 716.618 680.408C708.843 675.905 701.708 671.95 695.782 666.245C685.108 656.033 672.852 645.926 660.84 636.355C654.915 631.624 648.412 627.427 641.95 623.021C638.606 620.749 634.502 618.582 633.226 615.457C637.928 625.257 645.036 635.902 652.593 644.902C656.642 649.701 679.234 665.425 674.329 670.449C665.281 664.665 655.13 659.45 646.25 653.566C649.264 662.73 648.74 671.458 654.463 680.239C658.153 685.895 663.393 692.421 665.132 698.433C668.02 708.382 647.298 697.674 644.511 694.498C645.399 694.502 646.287 694.506 647.143 694.482C645.809 692.092 640.773 689.262 638.291 686.781C634.028 682.502 626.717 673.009 618.807 671.558C610.569 670.069 614.233 679.438 615.009 682.784C616.097 687.589 619.87 692.747 617.018 697.34C600.426 692.936 585.757 678.296 577.305 668.501C573.126 663.672 570.782 658.061 567.269 653.016C562.561 646.298 556.567 640.696 550.229 634.529C544.847 629.29 539.115 624.698 531.952 620.584C530.274 619.606 528.626 618.734 527.316 617.583C528.997 619.457 529.866 621.963 530.65 624.07C532.735 629.567 536.713 634.496 538.468 640.008C541.713 650.101 545.859 658.829 551.125 668.516C554.718 675.091 559.923 681.694 560.179 688.736C560.325 692.219 559.301 695.293 558.662 698.643C555.234 697.896 553.174 694.612 551.036 692.644C545.838 687.806 537.567 679.493 528.858 677.329C524.674 681.456 524.389 688.928 524.092 693.845C523.949 696.158 524.67 701.108 522.222 702.501C516.105 699.556 510.987 702.123 503.069 695.034C498.886 691.31 495.553 690.671 492.226 686.898C489.153 683.422 479.82 673.414 477.308 681.601C474.118 679.65 473.11 676.375 471.783 673.776C469.382 668.9 466.513 663.245 461.009 659.688C455.172 666.999 459.424 679.419 449.979 685.45C446.022 681.865 444.146 676.033 442.251 671.754C439.072 664.587 439.612 657.335 438.871 650.013C437.66 638.117 437.639 626.025 429.198 614.94C426.602 616.828 425.838 619.99 424.312 622.336C421.328 626.951 418.31 631.591 415.359 636.234C410.082 644.486 407.876 653.343 404.85 662.145C401.462 671.936 398.101 684.837 387.295 692.218C380.26 697.013 380.114 691.555 377.069 687.264C375.527 688.108 373.667 688.651 371.72 688.849C370.414 686.618 371.898 683.56 371.98 681.113C372.201 676.51 373.104 671.192 371.508 666.818C370.317 669.94 366.514 672.525 363.503 675.005C356.501 680.776 346.993 686.726 341.613 693.157C336.046 691.468 340.776 675.031 340.655 671.786C329.494 672.122 322.211 684.285 309.486 683.198C313.233 672.523 324.136 663.248 331.009 653.496C339.057 642.07 353.196 628.478 352.264 615.117C345.131 614.034 336.761 624.263 332.78 627.264C326.67 631.906 320.884 636.743 315.097 641.58C306.737 648.596 298.388 656.27 288.288 662.227C280.604 666.763 271.468 670.459 262.855 674.226C249.769 679.977 236.308 689.06 219.554 689.445C214.255 689.556 209.321 689.575 210.618 685.245C202.353 684.572 192.852 687.387 184.795 685.404C184.787 683.665 186.383 682.19 187.874 680.871C191.127 678.03 195.711 676.682 199.735 674.394C204.933 671.434 209.73 667.67 214.154 664.21C222.194 657.921 229.425 651.21 237.108 644.751C242.05 640.597 250.444 635.505 248.736 629.573C240.858 632.021 234.344 635.991 228.837 640.337C215.798 650.567 196.556 657.454 180.086 665.04C168.929 670.17 158.329 675.319 145.435 678.31C137.843 680.083 127.321 682.943 119.162 682.036C125.909 677.021 141.709 671.757 143.864 664.4C140.168 664.75 137.322 667.236 134.381 668.612C128.7 671.292 122.353 672.264 115.755 673.834C105.842 676.187 97.8074 678.419 87.1074 677.77C90.956 672.867 99.4644 670.23 106.149 667.056C119.852 660.563 132.903 652.914 146.453 646.1C155.252 641.654 163.674 637.696 170.579 631.869C179.853 624.068 188.936 616.101 198.307 608.356C207.205 600.989 214.29 594.694 219.685 585.866C220.101 585.222 220.552 584.552 221.035 583.857C205.075 597.809 185.901 613.444 163.439 629.996C84.5832 688.275 0.00249139 695.781 0.00249139 695.781L857.474 724.636C812.811 717.786 792.813 687.529 760.79 660.819Z" fill="#5D2810"/>
</g>
<g style="mix-blend-mode:screen" opacity="0.25">
<path d="M254.74 606.638C251.366 611.134 244.884 613.156 239.132 615.992C232.444 619.27 225.338 622.245 218.523 625.388C217.542 621.298 230.659 617.577 230.047 613.289C226.997 613.028 220.963 617.382 218.623 618.515C213.005 621.25 201.344 631.553 198.43 634.116C188.703 642.667 178.451 651.173 171.171 655.433C167.044 657.849 164.23 660.363 160.553 663.084C158.461 664.647 153.892 666.548 153.879 668.866C161.177 669.954 166.767 666.085 172.145 663.606C180.162 659.95 190.146 656.466 196.592 651.599C205.805 644.638 217.579 639.766 226.658 632.853C230.068 630.254 234.271 628.499 238.512 626.587C250.201 621.317 261.859 615.966 273.483 610.667C279.461 607.97 285.948 604.817 290.675 601.156C293.31 599.111 299.972 594.646 300.393 591.894C291.079 594.057 284.947 599.356 276.242 601.987C275.708 599.282 278.421 596.845 279.72 594.412C273.801 597.295 269.643 601.634 262.855 603.961L254.741 606.612L254.74 606.638Z" fill="#5D2810"/>
</g>
<g style="mix-blend-mode:screen" opacity="0.25">
<path d="M357.192 596.841C372.244 587.389 365.366 567.98 379.289 557.884C379.229 563.573 381.379 571.021 383.536 576.336C386.499 571.351 388.093 566.005 391.122 561.022C394.498 555.498 398.132 550.141 401.346 544.533C402.603 549.212 401.341 554.464 401.247 559.203C401.123 563.888 398.706 567.284 396.978 571.73C396.04 574.175 394.231 576.143 393.23 578.533C391.509 582.742 391.718 587.307 389.734 591.534C386.97 597.421 384.39 602.735 383.127 609.015C381.943 614.849 376.798 624.081 382.398 629.696C386.941 627.61 388.668 621.24 392.131 618.037C395.865 614.58 400.485 610.205 404.332 607.305C408.776 614.04 405.711 624 403.666 630.991C400.994 640.043 397.799 648.971 394.771 657.826C387.585 655.371 389.249 642.097 387.301 637.422C379.502 637.554 372.183 649.795 366.021 653.091C361.683 650.048 365.776 637.883 365.509 633.106C360.012 634.238 355.472 640.118 351.817 643.182C352.02 639.106 355.467 635.376 356.165 631.263C356.986 626.417 357.577 621.564 358.66 616.753C359.317 613.825 361.529 606.734 358.419 604.363C353.286 605.402 348.806 608.545 344.332 610.528C344.112 605.331 350.028 595.677 354.58 591.379C354.869 592.574 355.222 593.797 355.643 594.971L357.193 596.814L357.192 596.841Z" fill="#5D2810"/>
</g>
<g style="mix-blend-mode:screen" opacity="0.25">
<path d="M460.754 557.939C460.298 565.616 463.799 573.004 463.805 580.644C463.798 583.779 463.593 586.959 463.423 590.062C460.017 589.605 456.635 586.515 453.953 585.107C449.067 592.477 447.797 602.866 446.34 610.957C445.039 618.369 444.019 629.109 448.388 636.132C452.983 631.518 454.118 626.13 455.974 620.818C456.666 618.813 456.194 616.242 459.277 615.529C466.862 621.738 470.571 630.766 476.089 637.828C478.044 640.344 481.043 646.029 485.494 646.653C488.935 637.259 481.842 626.167 486.684 617.162C497.804 621.962 504.816 632.498 513.672 639.092C518.998 643.065 524.164 650.8 532.459 652.554C532.816 649.774 531.114 646.608 529.59 644.001C526.356 638.439 523.056 632.901 519.957 627.265C516.423 620.876 513.348 614.503 510.011 608.121C508.498 605.199 505.23 601.638 505.496 598.617C507.954 600.834 512.979 603.005 516.545 604.547C516.381 599.642 510.243 593.403 507.568 588.861C504.673 583.969 501.85 578.948 499.155 573.983C497.947 571.756 494.308 559.7 490.696 559.526C486.065 559.317 485.1 569.427 483.453 571.453C471.7 562.048 471.459 549.658 467.82 538.551C467.82 538.551 463.243 515.241 460.755 557.912L460.754 557.939Z" fill="#5D2810"/>
</g>
<g style="mix-blend-mode:screen" opacity="0.25">
<path d="M604.824 586.654C594.637 577.592 588.55 566.929 580.423 557.251C574.953 550.718 564.597 544.732 560.517 537.929C559.805 540.54 561.472 542.782 562.606 545.244C564.232 548.75 564.771 552.272 565.735 555.887C568.394 565.803 574.758 575.079 580.196 584.508C574.165 583.91 570.547 577.071 564.012 576.772C563.663 580.317 568.955 584.315 571.282 587.475C575.213 592.85 579.214 598.069 582.979 603.464C587.121 609.399 589.885 616.21 595.027 621.73C598.391 625.347 602.584 628.781 606.35 632.201C607.469 627.286 604.101 621.825 605.646 616.977C611.678 616.574 618.598 623.999 623.157 626.312C627.814 628.682 632.665 631.137 637.288 633.506C635.329 629.172 630.89 624.254 628.276 619.82C625.257 614.739 622.417 610.192 617.729 605.845C613.647 602.046 610.797 597.788 606.776 594.149C606.776 594.149 601.6 588.627 611.07 593.582C620.54 598.537 611.852 592.818 604.892 586.604L604.824 586.654Z" fill="#5D2810"/>
</g>
<g style="mix-blend-mode:screen" opacity="0.25">
<path d="M733.309 666.478C714.717 658.924 703.308 647.107 690.595 635.905C684.589 630.618 677.578 624.929 670.467 620.238C666.188 617.407 661.363 616.164 657.024 614.122C663.402 620.053 669.778 626.063 675.956 632.093C675.332 632.072 674.605 632.153 674.014 632.133C688.359 643.706 698.621 656.38 716.686 665.892C723.053 669.241 728.08 672.335 735.267 674.737C738.845 675.937 742.782 678.177 746.24 679.005C744.612 676.579 741.823 674.43 738.987 672.702L733.31 666.452L733.309 666.478Z" fill="#5D2810"/>
</g>
<g style="mix-blend-mode:screen" opacity="0.25">
<path d="M278.705 542.539C272.363 547.278 266.527 551.613 259.352 555.665C259.422 554.561 259.225 553.58 260.087 552.397C255.62 560.045 249.457 565.29 241.81 571.671C236.496 576.129 229.219 582.233 227.421 587.784C229.253 588.082 231.164 587.962 232.828 587.386C225.831 593.974 217.799 600.052 211.157 606.862C223.033 604.812 227.096 598.416 234.394 592.655C237.604 590.128 240.423 587.457 243.537 584.849C248.242 580.897 250.25 576.934 254.142 572.692C257.999 568.502 263.648 563.871 268.58 560.006C272.835 556.699 275.356 553.122 278.991 549.688C278.991 549.688 304.955 522.874 278.704 542.565L278.705 542.539Z" fill="#5D2810"/>
</g>
<g style="mix-blend-mode:multiply" opacity="0.2">
<path d="M439.16 594.591C438.995 584.839 437.653 571.938 442.995 562.713C446.914 571.354 461.655 586.813 461.703 578.543C462.218 572.027 458.313 565.916 458.562 559.47C458.732 554.444 460.733 549.69 461.195 544.78C461.561 540.735 462.537 537.133 463.197 533.177C464.182 527.335 460.477 518.201 463.884 515.682C466.522 522.33 471.844 532.282 474.321 536.844C475.778 539.501 476.954 542.676 478.311 545.356C479.638 547.929 479.233 550.181 480.201 552.716C480.987 554.771 481.845 557.619 483.462 559.412C486.679 554.699 491.15 545.946 492.408 540.825C493.136 537.767 492.336 531.233 496.444 529.369C505.803 536.639 509.983 531.669 518.675 539.232C525.161 544.877 541.534 558.732 550.005 563.074C551.944 564.087 560.606 575.47 564.015 573.846C567.491 572.198 558.44 555.771 558.369 553.002C557.881 532.332 541.808 530.079 535.6 517.12C530.008 505.42 525.677 493.393 520.647 481.58C520.647 481.58 496.808 442.316 466.498 452.677C436.187 463.037 422.166 524.894 428.005 562.498C433.844 600.103 439.452 607.404 439.226 594.567L439.16 594.591Z" fill="#5D2810"/>
</g>
<g style="mix-blend-mode:multiply" opacity="0.22">
<path d="M356.29 548.363C356.29 548.363 359.31 589.586 362.423 581.156C365.536 572.699 374.144 555.365 380.551 543.831C386.958 532.298 384.199 566.399 391.392 544.196C398.586 521.993 400.567 521.744 399.5 530.006C398.433 538.269 399.366 545.703 403.252 537.746C407.138 529.763 410.784 544.585 408.74 555.475C406.696 566.365 405.681 596.521 416.036 563.466C426.389 530.437 437.618 498.755 428.348 491.752C419.078 484.775 391.567 474.497 379.524 495.193C367.447 515.888 373.696 462.146 345.674 483.648C317.653 505.15 271.988 533.908 265.735 544.788C259.449 555.668 290.643 532.745 300.483 526.701C310.323 520.657 281.091 554.657 273.648 560.808C266.205 566.986 238.426 593.975 260.101 582.217C281.777 570.434 291.869 568.639 291.869 568.639C291.869 568.639 281.589 587.735 285.686 585.239C289.783 582.716 292.686 580.522 288.872 586.347C285.058 592.172 280.297 598.782 305.332 585.9C330.366 573.017 326.334 569.694 319.078 582.99C311.823 596.287 342.897 578.892 356.389 548.366L356.29 548.363Z" fill="#5D2810"/>
</g>
<path d="M372.861 413.486C385.3 397.651 379.394 386.467 391.912 383.938C407.806 380.732 403.771 384.337 424.572 388.778C445.406 393.22 445.64 386.273 462.424 387.918C479.241 389.564 472.427 377.032 483.698 376.357C494.97 375.657 496.381 381.605 503.217 392.504C510.085 403.431 531.195 443.657 550.782 458.752C570.337 473.846 599.921 526.133 620.104 546.016C640.318 565.927 737.997 639.315 764.923 657.212C770.424 660.875 766.768 665.915 766.768 665.915C766.768 665.915 750.091 656.186 741.753 653.772C733.415 651.357 694.666 621.207 684.395 616.594C674.125 611.981 642.433 587.126 622.931 582.202C603.429 577.278 600.758 560.882 581.202 545.814C561.648 530.719 564.772 520.946 540.271 509.189C515.77 497.405 522.159 486.398 512.04 489.008C501.921 491.618 524.73 517.491 534.078 526.077C543.426 534.664 550.76 543.472 545.855 546.521C540.918 549.569 530.657 544.666 530.657 544.666C530.657 544.666 541.514 579.752 557.882 594.739C574.25 609.726 603.883 647.841 599.659 654.127C595.436 660.386 588.898 651.368 588.898 651.368C588.898 651.368 598.842 678.415 610.139 688.674C621.437 698.933 618.393 706.312 598.724 693.637C579.088 680.964 577.743 660.344 557.311 636.132C536.846 611.945 519.062 592.116 512.948 570.519C506.833 548.949 495.051 541.334 495.051 541.334C495.051 541.334 480.247 539.492 479.092 526.914C477.904 514.308 477.492 503.098 475.157 501.149C475.157 501.149 472.884 509.081 466.908 507.8C460.932 506.545 463.663 496.732 458.297 489.07C452.93 481.408 445.48 476.072 445.861 489.178C446.209 502.283 460.509 530.82 451.221 544.917C441.898 559.039 440.859 566.46 441.754 575.052C442.683 583.618 429.758 599.226 431.895 618.793C434.033 638.359 419.352 656.305 419.253 670.975C419.153 685.671 413.361 703.364 406.958 702.095C400.588 700.8 405.554 695.909 406.726 685.517C407.864 675.149 410.153 661.87 415.889 649.761C421.59 637.676 420.839 618.947 417.253 609.211C413.667 599.475 423.742 580.583 418.348 576.661C412.955 572.739 407.408 593.917 402.611 593.755C397.815 593.594 402.235 581.467 410.351 567.04C418.467 552.613 414.155 543.933 419.827 533.692C425.466 523.476 417.881 522.141 412.932 526.505C407.951 530.869 405.722 525.736 407.924 519.935C410.125 514.135 407.244 504.949 411.014 499.465C414.816 493.982 402.239 497.299 392.278 507.923C382.284 518.545 382.513 531.277 377.522 536.905C372.532 542.506 355.079 567.577 353.564 580.356C352.048 593.134 321.307 600.635 316.705 609.384C312.134 618.134 296.281 627.928 294.468 633.926C292.654 639.924 277.315 634.428 285.619 626.146C293.923 617.864 299.114 606.289 305.864 597.27C312.582 588.223 313.117 587.951 321.407 581.065C329.663 574.204 336.855 567.675 338.74 559.546C340.625 551.417 340.27 545.346 345.279 540.166C350.288 534.987 344.921 535.175 336.666 542.01C328.41 548.872 311.3 580.382 300.579 580.364C289.857 580.346 299.743 573.908 303.229 565.121C306.748 556.336 302.991 556.552 291.935 566.506C280.911 576.462 279.718 579.636 271.487 585.76C263.255 591.911 248.334 605.292 241.534 601.138C234.701 596.983 249.431 589.286 258.176 583.547C266.921 577.783 278.026 566.407 287.644 550.345C297.295 534.284 311.036 523.709 319.782 517.944C328.527 512.179 328.766 505.074 319.615 507.243C310.431 509.436 294.752 523.845 284.51 532.062C272.679 541.543 259.484 543.681 272.298 528.438C285.144 513.195 291.635 510.911 301.595 501.289C311.556 491.64 336.278 464.6 346.334 452.135C356.391 439.645 364.13 424.678 372.927 413.489L372.861 413.486Z" fill="url(#paint13_linear_33_3437)"/>
<g style="mix-blend-mode:multiply" opacity="0.48">
<path d="M359.037 526.304C365.722 515.306 363.925 500.283 366.288 489.693C368.651 479.077 359.06 501.199 357.222 508.882C355.352 516.564 347.802 525.926 342.231 532.166C336.628 538.379 322.596 547.786 314.05 563.278C305.504 578.744 297.63 580.138 297.63 580.138C298.348 580.294 299.298 580.405 300.516 580.393C311.237 580.412 328.347 548.901 336.603 542.04C344.858 535.205 350.225 535.017 345.216 540.196C341.57 543.972 340.769 548.239 339.87 553.451C341.063 547.327 355.657 531.933 359.069 526.331L359.037 526.304Z" fill="#FF0000"/>
</g>
<g style="mix-blend-mode:multiply" opacity="0.48">
<path d="M412.667 507.168C413.477 499.713 421.601 496.773 419.29 485.315C417.012 473.831 420.64 476.456 422.859 439.834C425.078 403.238 414.215 444.548 415.06 451.69C416.306 462.559 403.025 469.225 399.163 477.445C396.932 482.165 392.992 496.627 383.631 497.234C383.202 495.323 390.746 484.222 384.819 483.443C379.869 488.809 378.403 495.24 376.357 501.309C373.945 508.473 377.122 515.719 374.288 522.71C371.956 528.506 370.156 534.083 366.615 539.627C361.929 546.951 356.486 554.276 352.451 561.78C346.207 573.345 343.142 588.205 327.101 595.753C321.554 598.359 315.259 600.702 312.055 605.02C309.195 608.875 306.731 612.718 303.545 616.483C301.044 619.455 297.505 622.022 295.036 625.022C293.492 626.919 292.254 630.46 288.997 631.483C286.702 632.223 284.74 631.893 283.094 630.968C283.213 636.215 292.968 638.572 294.376 633.877C296.189 627.879 312.043 618.086 316.613 609.336C321.183 600.585 351.957 593.059 353.472 580.307C354.987 567.529 372.406 542.483 377.43 536.856C382.421 531.229 382.192 518.497 392.186 507.875C402.18 497.252 414.724 493.933 410.922 499.417C407.119 504.9 410.033 514.086 407.832 519.887C406.389 523.658 406.864 527.151 408.713 527.925C407.692 522.095 411.989 513.625 412.668 507.141L412.667 507.168Z" fill="#FF0000"/>
</g>
<g style="mix-blend-mode:multiply" opacity="0.48">
<path d="M334.97 501.471C340.13 491.818 343.355 490.768 350.646 480.344C357.936 469.92 363.586 462.312 367.971 448.313C372.356 434.315 357.672 459.189 353.127 463.304C348.581 467.419 339.384 477.805 333.922 485.708C328.426 493.637 325.174 495.477 315.357 500.811C305.541 506.144 303.056 508.642 288.902 523.656C274.748 538.67 267.16 538.388 267.16 538.388C268.31 541.351 276.7 538.314 284.475 532.069C294.717 523.852 310.398 509.416 319.581 507.249C328.765 505.055 328.525 512.186 319.747 517.95C317.695 519.303 315.372 520.911 312.941 522.779C323.539 518.631 329.875 511.152 335.035 501.499L334.97 501.471Z" fill="#FF0000"/>
</g>
<g style="mix-blend-mode:multiply" opacity="0.48">
<path d="M335.428 523.083C341.333 514.746 334.356 518.779 321.157 529.847C307.925 540.914 306.11 546.938 299.121 552.314C292.099 557.689 280.376 572.785 269.964 583.13C259.585 593.45 241.402 601.136 241.402 601.136C248.235 605.291 263.124 591.883 271.355 585.758C279.587 579.634 280.779 576.46 291.803 566.504C302.826 556.575 306.583 556.333 303.133 565.042C305.423 562.484 307.315 560.019 308.163 558.256C310.319 553.798 329.523 531.446 335.427 523.109L335.428 523.083Z" fill="#FF0000"/>
</g>
<g style="mix-blend-mode:multiply" opacity="0.48">
<path d="M745.866 650.78C738.494 647.002 729.992 643.581 724.059 639.088C716.778 633.6 712.106 626.804 705.26 621.095C698.732 615.685 688.525 611.153 680.147 606.972C672.189 603.016 667.255 598.161 661.111 593.081C655 588.002 647.983 583.472 638.94 580.48C632.174 578.25 625.508 575.998 620.439 572.192C609.821 564.221 601.803 554.257 592.065 545.526C575.112 530.334 569.114 512.114 556.383 495.589C555.407 494.292 552.731 490.751 550.273 490.484C546.964 490.109 547.68 492.293 545.513 493.142C538.017 495.999 534.146 483.013 531.807 479.193C526.602 470.667 521.727 462.1 515.923 453.738C511.343 447.156 501.159 437.04 488.899 437.786C481.385 438.245 490.424 448.164 498.662 470.175C504.606 486.102 507.459 495.128 513.577 501.973C509.453 495.512 507.727 490.106 512.073 488.988C522.191 486.404 515.803 497.385 540.304 509.168C564.804 520.952 561.647 530.724 581.235 545.793C600.79 560.888 603.462 577.258 622.964 582.182C642.467 587.106 674.158 611.96 684.428 616.574C694.699 621.187 733.448 651.337 741.786 653.752C750.125 656.166 766.801 665.895 766.801 665.895C766.801 665.895 766.973 665.663 767.185 665.249C764.233 664.017 761.519 662.582 759.163 661.238C753.612 658.101 751.267 653.491 745.9 650.729L745.866 650.78Z" fill="#FF0000"/>
</g>
<g style="mix-blend-mode:multiply" opacity="0.48">
<path d="M412.565 665.666C417.198 655.048 425.774 630.863 423.989 620.371C422.204 609.879 423.623 598.994 424.986 590.742C426.349 582.489 432.081 574.41 425.659 570.743C419.238 567.05 412.63 579.683 412.63 579.683C414.499 576.927 416.396 575.279 418.258 576.632C423.652 580.555 413.577 599.446 417.163 609.182C420.749 618.919 421.5 637.648 415.798 649.732C410.095 661.842 407.808 675.095 406.636 685.488C405.464 695.881 400.497 700.771 406.867 702.066C410.591 702.823 414.106 697.093 416.44 689.295C406.008 710.019 407.9 676.258 412.532 665.665L412.565 665.666Z" fill="#FF0000"/>
</g>
<g style="mix-blend-mode:multiply" opacity="0.48">
<path d="M570.131 648.154C565.913 640.583 562.763 632.521 558.112 625.12C553.429 617.692 544.546 611.913 539.997 604.384C536.011 597.743 530.613 592.003 528.42 584.843C526.141 577.311 522.756 570.374 519.059 562.979C516.099 557.11 512.851 550.994 507.297 545.986C504.679 543.633 500.584 542.178 497.329 540.198C486.534 533.565 487.128 521.783 484.602 512.794C483.016 507.129 483.019 501.202 479.944 495.804C474.201 485.652 465.388 475.846 461.695 465.369C458.273 455.638 455.533 441.294 455.318 447.688C455.102 454.082 460.42 471.016 469.531 486.628C473.076 492.701 474.272 498.221 474.451 502.679C474.877 501.745 475.064 501.066 475.064 501.066C477.399 503.015 477.843 514.252 478.999 526.831C480.186 539.437 494.958 541.251 494.958 541.251C494.958 541.251 506.739 548.865 512.855 570.436C518.97 592.006 536.753 611.835 557.218 636.049C577.683 660.262 578.996 680.854 598.631 693.554C609.415 700.503 615.173 701.408 616.334 699.155C593.351 693.113 578.467 663.344 570.031 648.177L570.131 648.154Z" fill="#FF0000"/>
</g>
<g style="mix-blend-mode:multiply" opacity="0.48">
<path d="M441.765 477.238C442.612 488.225 447.131 497.623 447.131 497.623C446.384 494.41 445.856 491.521 445.772 489.121C445.391 476.016 452.875 481.352 458.208 489.013C459.902 491.441 460.799 494.105 461.405 496.628C461.438 490.755 448.503 467.586 445.06 462.412C441.617 457.212 440.917 466.277 441.732 477.263L441.765 477.238Z" fill="#FF0000"/>
</g>
<g style="mix-blend-mode:multiply" opacity="0.48">
<path d="M411.235 573.183C418.09 560.057 419.58 555.84 423.781 542.44C427.981 529.041 431.227 527.385 429.547 513.788C427.867 500.191 425.074 504.022 423.26 510.02C421.447 516.018 412.806 526.502 412.806 526.502C417.755 522.138 425.341 523.447 419.701 533.689C414.062 543.905 418.341 552.61 410.225 567.037C402.109 581.464 397.688 593.591 402.485 593.752C402.485 593.752 402.551 593.754 402.583 593.756C401.543 589.479 406.067 583.072 411.2 573.234L411.235 573.183Z" fill="#FF0000"/>
</g>
<g style="mix-blend-mode:screen" opacity="0.5">
<path d="M426.166 392.309C426.166 392.309 437.269 395.633 444.005 392.909C450.739 390.212 455.601 390.375 464.997 390.691C474.393 391.008 476.477 388.681 479.404 384.775C482.364 380.87 488.627 373.599 494.702 383.683C500.776 393.766 513.288 415.815 517.098 421.844C520.908 427.847 535.362 451.832 542.804 457.43C550.246 463.028 561.624 470.893 568.877 482.096C576.131 493.272 610.307 545.95 634.432 562.041C658.591 578.134 688.603 603.037 688.603 603.037C688.603 603.037 649.573 577.33 635.659 569.564C621.745 561.799 607.291 545.638 598.395 531.456C589.499 517.273 563.844 485.061 555.795 476.966C547.78 468.872 538.859 463.225 531.281 449.956C523.701 436.713 493.101 391.163 489.429 388.879C485.755 386.622 481.962 387.917 478.324 392.431C474.686 396.945 464.852 395.007 458.989 394.283C453.126 393.559 450.708 395.031 441.263 396.189C436.673 396.746 429.971 395.545 426.056 394.597C416.725 392.36 418.123 390.879 426.131 392.36L426.166 392.309Z" fill="#FFE088"/>
</g>
<g style="mix-blend-mode:screen" opacity="0.5">
<path d="M470.807 413.601C470.807 413.601 475.657 424.881 477.713 435.119C479.771 445.33 482.243 455.925 488.577 470.021C494.91 484.117 503.133 506.575 510.046 516.16C516.96 525.744 528.22 533.21 530.902 536.566C533.585 539.923 545.057 544.999 539.312 536.849C533.568 528.7 512.473 514.424 505.078 499.607C497.717 484.765 493.349 470.893 487.658 461.139C481.968 451.384 475.487 417.236 470.774 413.626L470.807 413.601Z" fill="#FFC81F"/>
</g>
<g style="mix-blend-mode:multiply" opacity="0.48">
<path d="M484.701 480.581C484.701 480.581 494.636 504.939 497.281 510.376C499.894 515.812 508.114 522.7 513.573 527.599C519.032 532.498 537.79 547.802 545.86 546.467C545.86 546.467 538.459 551.381 525.168 540.739C511.878 530.097 501.072 528.68 496.931 520.796C492.789 512.912 484.7 480.607 484.7 480.607L484.701 480.581Z" fill="#FF0000"/>
</g>
<g style="mix-blend-mode:screen" opacity="0.5">
<path d="M446.981 406.104C446.981 406.104 442.23 445.643 452.209 459.915C459.05 469.681 476.359 499.69 469.364 504.275C462.369 508.861 465.207 489.014 451.988 466.467C439.981 446.015 446.981 406.104 446.981 406.104Z" fill="#FFC81F"/>
</g>
<g style="mix-blend-mode:screen" opacity="0.5">
<path d="M528.021 550.931C528.021 550.931 534.601 582.132 547.123 592.169C559.612 602.205 592.868 640.178 591.936 644.415C591.004 648.651 555.563 604.281 550.664 600.323C545.764 596.391 528.913 577.199 528.054 550.906L528.021 550.931Z" fill="#FFC81F"/>
</g>
<g style="mix-blend-mode:screen" opacity="0.5">
<path d="M409.457 387.562C409.457 387.562 403.619 381.201 388.596 386.86C386.43 387.683 382.875 405.371 376.486 412.454C370.098 419.536 359.528 442.389 351.444 449.019C343.36 455.649 314.671 492.117 309.41 496.946C304.151 501.748 280.345 522.1 276.796 525.906C273.247 529.738 269.579 535.121 282.276 524.325C294.94 513.529 313.828 495.645 317.938 491.779C322.048 487.914 350.348 453.249 355.954 447.932C361.56 442.589 368.946 430.298 373.458 423.284C377.97 416.271 385.114 411.163 386.734 402.129C388.386 393.096 390.904 389.625 397.095 388.41C403.286 387.196 414.665 391.136 409.424 387.561L409.457 387.562Z" fill="#FFC81F"/>
</g>
<g style="mix-blend-mode:screen" opacity="0.5">
<path d="M407.002 397.804C407.002 397.804 403.211 441.064 395.165 453.412C387.118 465.786 388.851 473.905 388.735 477.352C388.619 480.799 390.345 487.18 388.111 489.054C385.877 490.929 387.901 502.14 393.798 482.291C399.696 462.442 394.37 465.319 400.388 453.588C406.407 441.856 407.002 397.804 407.002 397.804Z" fill="#FFC81F"/>
</g>
<g style="mix-blend-mode:screen" opacity="0.5">
<path d="M432.817 438.054C432.817 438.054 423.836 465.466 426.091 478.608C428.346 491.75 419.639 519.829 415.315 521.264C410.991 522.699 414.468 516.125 416.816 510.856C419.164 505.588 423.726 487.327 422.917 483.006C422.075 478.71 427.463 447.595 432.849 438.056L432.817 438.054Z" fill="#FFC81F"/>
</g>
<g style="mix-blend-mode:screen" opacity="0.5">
<path d="M437.8 487.274C437.8 487.274 453.91 525.567 447.995 538.144C442.079 550.722 437.694 561.796 438.051 568.763C438.409 575.73 429.421 596.529 428.306 604.236C427.159 611.942 429.421 596.529 429.421 596.529C429.421 596.529 434.932 573.479 433.478 567.819C432.024 562.159 438.561 544.808 441.249 537.259C443.97 529.71 448 516.49 437.767 487.299L437.8 487.274Z" fill="#FFC81F"/>
</g>
<g style="mix-blend-mode:screen" opacity="0.5">
<path d="M358.709 476.344C358.709 476.344 343.196 494.579 338.159 501.575C333.122 508.57 323.191 517.325 313.277 525.553C303.365 533.755 298.078 535.447 289.989 549.084C281.901 562.695 282.581 565.932 293.531 551.337C304.448 536.741 322.539 523.994 327.557 518.552C332.575 513.109 341.729 503.012 345.504 498.318C349.28 493.624 358.709 476.344 358.709 476.344Z" fill="#FFC81F"/>
</g>
<g style="mix-blend-mode:screen" opacity="0.5">
<path d="M358.028 496.601C358.028 496.601 357.374 515.046 337.078 533.725C316.815 552.38 313.276 561.77 309.902 566.241C306.528 570.737 300.292 577.192 304.981 568.815C309.671 560.411 316.518 548.497 327.715 537.309C338.944 526.148 347.811 524.576 357.995 496.6L358.028 496.601Z" fill="#FFC81F"/>
</g>
<g style="mix-blend-mode:screen" opacity="0.5">
<path d="M366.448 514.248C366.448 514.248 363.664 530.514 352.972 537.451C342.247 544.387 341.726 554.012 341.397 556.951C341.068 559.864 332.224 577.375 322.224 583.282C312.224 589.189 298.407 610.8 304.151 607.252C309.894 603.704 321.256 588.597 326.581 584.772C331.939 580.948 343.591 567.984 346.178 556.585C348.798 545.187 354.493 543.087 358.665 538.354C362.836 533.621 368.267 524.715 366.481 514.249L366.448 514.248Z" fill="#FFC81F"/>
</g>
<g style="mix-blend-mode:screen" opacity="0.5">
<path d="M507.606 405.747C502.195 396.476 492.273 380.547 488.129 378.563C483.986 376.58 478.661 383.329 474.853 386.046C471.046 388.763 470.884 391.603 463.17 390.184C455.456 388.765 448.174 390.154 441.463 391.166C434.719 392.177 431.801 391.921 424.61 390.599C417.418 389.303 414.828 387.108 407.473 385.754C402.799 384.886 396.65 386.813 392.304 387.905C387.991 389.024 382.606 405.387 388.279 396.094C392.283 389.511 396.678 390.871 398.357 392.771C396.053 393.8 393.029 396.675 390.177 404.219C384.549 418.993 384.2 429.36 379.165 436.277C374.098 443.193 373.541 453.87 367.592 458.648C361.643 463.427 358.755 473.973 358.755 473.973C358.755 473.973 364.9 465.328 368.161 462.25C371.423 459.146 375.868 450.207 380.037 443.604C384.207 436.974 386.109 438.118 389.273 431.085C392.403 424.078 398.034 412.149 398.009 418.734C397.985 425.319 395.843 433.256 393.743 439.955C391.643 446.655 386.725 457.922 392.416 448.13C398.106 438.337 401.697 427.394 401.074 421.498C400.849 419.383 401.107 417.574 401.561 415.824C401.701 415.566 401.847 415.123 401.935 414.467C402.488 412.694 403.139 410.951 403.634 408.939C405.035 406.405 406.602 407.722 406.172 423.435C405.534 447.28 410.817 417.348 413.978 403.571C417.138 389.794 425.763 395.432 427.522 406.687C429.28 417.969 432.273 409.165 439.113 401.387C445.985 393.61 440.88 407.506 444.782 433.269C448.684 459.033 449.418 432.345 450.013 411.712C450.609 391.079 458.091 428.712 457.662 410.178C457.234 391.644 464.823 420.219 476.32 444.104C487.817 467.989 481.069 442.762 479.145 431.501C477.222 420.241 477.2 417.948 475.896 408.816C474.592 399.683 488.963 402.67 510.703 425.135C532.443 447.6 512.985 414.99 507.574 405.719L507.606 405.747Z" fill="#FFC81F"/>
</g>
<path d="M338.523 420.606C334.509 425.529 341.693 429.011 347.865 424.45C354.037 419.89 360.325 406.035 360.325 406.035C360.325 406.035 342.536 415.683 338.523 420.58L338.523 420.606Z" fill="url(#paint14_linear_33_3437)"/>
<g style="mix-blend-mode:screen" opacity="0.5">
<path d="M341.866 425.59C339.879 425.997 336.749 424.206 339.449 421.189C343.243 416.917 358.516 407.737 358.516 407.737C358.516 407.737 342.805 420.169 341.832 421.717C340.859 423.264 344.383 425.069 341.866 425.59Z" fill="#FFC81F"/>
</g>
<path d="M314.762 456.948C311.743 460.64 317.148 463.245 321.769 459.818C326.39 456.391 331.113 446.013 331.113 446.013C331.113 446.013 317.781 453.23 314.763 456.922L314.762 456.948Z" fill="url(#paint15_linear_33_3437)"/>
<g style="mix-blend-mode:screen" opacity="0.5">
<path d="M317.307 460.693C315.816 461.012 313.493 459.669 315.478 457.392C318.315 454.194 329.794 447.31 329.794 447.31C329.794 447.31 318.003 456.634 317.273 457.794C316.543 458.955 319.194 460.309 317.307 460.693Z" fill="#FFC81F"/>
</g>
<path d="M292.751 484.768C290.247 487.845 294.744 490.051 298.59 487.178C302.468 484.331 306.411 475.639 306.411 475.639C306.411 475.639 295.255 481.691 292.751 484.768Z" fill="url(#paint16_linear_33_3437)"/>
<g style="mix-blend-mode:screen" opacity="0.5">
<path d="M294.842 487.916C293.584 488.164 291.649 487.045 293.324 485.152C295.716 482.466 305.283 476.729 305.283 476.729C305.283 476.729 295.416 484.537 294.825 485.492C294.233 486.473 296.432 487.601 294.875 487.917L294.842 487.916Z" fill="#FFC81F"/>
</g>
<path d="M409.096 374.718C409.096 374.718 405.657 359.639 391.692 360.249C377.727 360.859 382.343 368.312 391.434 367.906C400.525 367.501 406.853 370.032 409.096 374.718Z" fill="url(#paint17_linear_33_3437)"/>
<g style="mix-blend-mode:screen" opacity="0.5">
<path d="M405.408 369.093C405.408 369.093 399.257 357.4 385.399 362.624C385.399 362.624 397.131 359.989 405.408 369.093Z" fill="#FFC81F"/>
</g>
<path d="M262.292 318.893C262.292 318.893 247.361 303.397 236.129 311.989C224.91 320.557 234.756 326.585 242.022 320.977C249.274 315.392 256.61 314.737 262.292 318.893Z" fill="url(#paint18_linear_33_3437)"/>
<path d="M455.334 373.015C455.334 373.015 461.924 362.884 472.987 365.442C484.083 368.002 478.437 372.554 471.258 370.89C464.078 369.226 458.328 370.033 455.334 373.015Z" fill="url(#paint19_linear_33_3437)"/>
<g style="mix-blend-mode:screen" opacity="0.5">
<path d="M459.724 369.575C459.724 369.575 467.634 362.228 477.436 368.064C477.436 368.064 468.68 364.397 459.724 369.575Z" fill="#FFC81F"/>
</g>
<path d="M572.606 336.61C572.606 336.61 579.558 333.575 585.09 338.275C590.621 342.974 585.964 343.53 582.377 340.451C578.77 337.392 575.253 336.034 572.581 336.593L572.606 336.61Z" fill="url(#paint20_linear_33_3437)"/>
<g style="mix-blend-mode:screen" opacity="0.5">
<path d="M576.22 336.253C576.22 336.253 583.066 335.028 586.82 340.963C586.82 340.963 582.947 336.426 576.22 336.253Z" fill="#FFC81F"/>
</g>
<path d="M461.934 346.916C461.934 346.916 465.187 341.125 473.074 342.286C480.961 343.447 477.681 346.129 472.544 345.35C467.405 344.598 463.604 345.181 461.901 346.915L461.934 346.916Z" fill="url(#paint21_linear_33_3437)"/>
<g style="mix-blend-mode:screen" opacity="0.5">
<path d="M464.536 344.892C464.536 344.892 469.054 340.618 476.452 343.633C476.452 343.633 470.001 341.809 464.536 344.892Z" fill="#FFC81F"/>
</g>
<path d="M238.537 262.058C238.537 262.058 235.68 256.061 227.733 256.69C219.785 257.318 222.878 260.214 228.056 259.783C233.233 259.377 236.987 260.215 238.57 262.059L238.537 262.058Z" fill="url(#paint22_linear_33_3437)"/>
<g style="mix-blend-mode:screen" opacity="0.5">
<path d="M236.065 259.865C236.065 259.865 231.844 255.297 224.261 257.808C224.261 257.808 230.82 256.422 236.065 259.865Z" fill="#FFC81F"/>
</g>
<path d="M544.879 438.935C549.451 443.804 557.392 441.41 554.237 435.482C551.115 429.556 535.888 418.796 535.888 418.796C535.888 418.796 540.307 434.065 544.879 438.935Z" fill="url(#paint23_linear_33_3437)"/>
<g style="mix-blend-mode:screen" opacity="0.5">
<path d="M552.972 439.545C552.597 440.902 548.785 441.801 546.094 438.707C542.262 434.311 537.292 420.735 537.292 420.735C537.292 420.735 546.308 436.238 547.907 437.583C549.506 438.927 553.491 437.797 553.005 439.546L552.972 439.545Z" fill="#FFC81F"/>
</g>
<path d="M564.202 456.836C566.433 458.94 571.683 457.352 570.491 454.651C569.299 451.95 561.158 447.593 561.158 447.593C561.158 447.593 561.937 454.732 564.169 456.835L564.202 456.836Z" fill="url(#paint24_linear_33_3437)"/>
<g style="mix-blend-mode:screen" opacity="0.5">
<path d="M569.175 456.684C568.758 457.355 566.269 458.009 564.967 456.648C563.123 454.742 561.79 448.428 561.79 448.428C561.79 448.428 565.435 455.426 566.238 456.006C567.041 456.586 569.698 455.806 569.175 456.684Z" fill="#FFC81F"/>
</g>
<path d="M594.974 498.123C598.803 500.649 603.088 498.423 599.878 495.101C596.702 491.754 585.1 486.622 585.1 486.622C585.1 486.622 591.113 495.596 594.942 498.122L594.974 498.123Z" fill="url(#paint25_linear_33_3437)"/>
<g style="mix-blend-mode:screen" opacity="0.5">
<path d="M600.027 497.708C600.097 498.579 597.994 499.509 595.681 497.851C592.372 495.527 586.421 487.661 586.421 487.661C586.421 487.661 595.273 496.309 596.533 496.984C597.793 497.659 599.967 496.573 600.061 497.682L600.027 497.708Z" fill="#FFC81F"/>
</g>
<defs>
<linearGradient id="paint0_linear_33_3437" x1="226.077" y1="259.468" x2="226.65" y2="271.217" gradientUnits="userSpaceOnUse">
<stop stop-color="#DEDEDE"/>
<stop offset="0.59" stop-color="#CDD1D2"/>
<stop offset="0.8" stop-color="#CBCFD0"/>
<stop offset="0.87" stop-color="#C4C8C9"/>
<stop offset="0.92" stop-color="#B9BCBD"/>
<stop offset="0.97" stop-color="#A9ACAC"/>
<stop offset="1" stop-color="#969898"/>
</linearGradient>
<linearGradient id="paint1_linear_33_3437" x1="355.59" y1="328.132" x2="357.525" y2="356.147" gradientUnits="userSpaceOnUse">
<stop offset="0.05" stop-color="#DEDEDE"/>
<stop offset="0.5" stop-color="#CDD1D2"/>
<stop offset="0.75" stop-color="#CBCFD0"/>
<stop offset="0.84" stop-color="#C4C8C9"/>
<stop offset="0.91" stop-color="#B9BCBD"/>
<stop offset="0.96" stop-color="#A9ACAC"/>
<stop offset="1" stop-color="#969898"/>
</linearGradient>
<linearGradient id="paint2_linear_33_3437" x1="319.503" y1="344.115" x2="320.416" y2="357.415" gradientUnits="userSpaceOnUse">
<stop offset="0.05" stop-color="#DEDEDE"/>
<stop offset="0.5" stop-color="#CDD1D2"/>
<stop offset="0.75" stop-color="#CBCFD0"/>
<stop offset="0.84" stop-color="#C4C8C9"/>
<stop offset="0.91" stop-color="#B9BCBD"/>
<stop offset="0.96" stop-color="#A9ACAC"/>
<stop offset="1" stop-color="#969898"/>
</linearGradient>
<linearGradient id="paint3_linear_33_3437" x1="583.694" y1="210.737" x2="584.607" y2="224.037" gradientUnits="userSpaceOnUse">
<stop offset="0.05" stop-color="#DEDEDE"/>
<stop offset="0.5" stop-color="#CDD1D2"/>
<stop offset="0.75" stop-color="#CBCFD0"/>
<stop offset="0.84" stop-color="#C4C8C9"/>
<stop offset="0.91" stop-color="#B9BCBD"/>
<stop offset="0.96" stop-color="#A9ACAC"/>
<stop offset="1" stop-color="#969898"/>
</linearGradient>
<linearGradient id="paint4_linear_33_3437" x1="452.881" y1="419.164" x2="453.824" y2="432.511" gradientUnits="userSpaceOnUse">
<stop offset="0.05" stop-color="#DEDEDE"/>
<stop offset="0.5" stop-color="#CDD1D2"/>
<stop offset="0.75" stop-color="#CBCFD0"/>
<stop offset="0.84" stop-color="#C4C8C9"/>
<stop offset="0.91" stop-color="#B9BCBD"/>
<stop offset="0.96" stop-color="#A9ACAC"/>
<stop offset="1" stop-color="#969898"/>
</linearGradient>
<linearGradient id="paint5_linear_33_3437" x1="537.241" y1="357.174" x2="537.702" y2="363.787" gradientUnits="userSpaceOnUse">
<stop offset="0.05" stop-color="#DEDEDE"/>
<stop offset="0.5" stop-color="#CDD1D2"/>
<stop offset="0.75" stop-color="#CBCFD0"/>
<stop offset="0.84" stop-color="#C4C8C9"/>
<stop offset="0.91" stop-color="#B9BCBD"/>
<stop offset="0.96" stop-color="#A9ACAC"/>
<stop offset="1" stop-color="#969898"/>
</linearGradient>
<linearGradient id="paint6_linear_33_3437" x1="480.741" y1="416.709" x2="481.202" y2="423.322" gradientUnits="userSpaceOnUse">
<stop offset="0.05" stop-color="#DEDEDE"/>
<stop offset="0.5" stop-color="#CDD1D2"/>
<stop offset="0.75" stop-color="#CBCFD0"/>
<stop offset="0.84" stop-color="#C4C8C9"/>
<stop offset="0.91" stop-color="#B9BCBD"/>
<stop offset="0.96" stop-color="#A9ACAC"/>
<stop offset="1" stop-color="#969898"/>
</linearGradient>
<linearGradient id="paint7_linear_33_3437" x1="336.018" y1="321.245" x2="336.475" y2="327.897" gradientUnits="userSpaceOnUse">
<stop offset="0.05" stop-color="#DEDEDE"/>
<stop offset="0.5" stop-color="#CDD1D2"/>
<stop offset="0.75" stop-color="#CBCFD0"/>
<stop offset="0.84" stop-color="#C4C8C9"/>
<stop offset="0.91" stop-color="#B9BCBD"/>
<stop offset="0.96" stop-color="#A9ACAC"/>
<stop offset="1" stop-color="#969898"/>
</linearGradient>
<linearGradient id="paint8_linear_33_3437" x1="599.429" y1="224.115" x2="599.891" y2="230.728" gradientUnits="userSpaceOnUse">
<stop offset="0.05" stop-color="#DEDEDE"/>
<stop offset="0.5" stop-color="#CDD1D2"/>
<stop offset="0.75" stop-color="#CBCFD0"/>
<stop offset="0.84" stop-color="#C4C8C9"/>
<stop offset="0.91" stop-color="#B9BCBD"/>
<stop offset="0.96" stop-color="#A9ACAC"/>
<stop offset="1" stop-color="#969898"/>
</linearGradient>
<linearGradient id="paint9_linear_33_3437" x1="609.425" y1="185.674" x2="609.887" y2="192.287" gradientUnits="userSpaceOnUse">
<stop offset="0.05" stop-color="#DEDEDE"/>
<stop offset="0.5" stop-color="#CDD1D2"/>
<stop offset="0.75" stop-color="#CBCFD0"/>
<stop offset="0.84" stop-color="#C4C8C9"/>
<stop offset="0.91" stop-color="#B9BCBD"/>
<stop offset="0.96" stop-color="#A9ACAC"/>
<stop offset="1" stop-color="#969898"/>
</linearGradient>
<linearGradient id="paint10_linear_33_3437" x1="237.529" y1="274.152" x2="237.99" y2="280.765" gradientUnits="userSpaceOnUse">
<stop offset="0.05" stop-color="#DEDEDE"/>
<stop offset="0.5" stop-color="#CDD1D2"/>
<stop offset="0.75" stop-color="#CBCFD0"/>
<stop offset="0.84" stop-color="#C4C8C9"/>
<stop offset="0.91" stop-color="#B9BCBD"/>
<stop offset="0.96" stop-color="#A9ACAC"/>
<stop offset="1" stop-color="#969898"/>
</linearGradient>
<linearGradient id="paint11_linear_33_3437" x1="246.504" y1="194.476" x2="246.966" y2="201.089" gradientUnits="userSpaceOnUse">
<stop offset="0.05" stop-color="#DEDEDE"/>
<stop offset="0.5" stop-color="#CDD1D2"/>
<stop offset="0.75" stop-color="#CBCFD0"/>
<stop offset="0.84" stop-color="#C4C8C9"/>
<stop offset="0.91" stop-color="#B9BCBD"/>
<stop offset="0.96" stop-color="#A9ACAC"/>
<stop offset="1" stop-color="#969898"/>
</linearGradient>
<linearGradient id="paint12_linear_33_3437" x1="437.69" y1="444.619" x2="426.159" y2="787.276" gradientUnits="userSpaceOnUse">
<stop stop-color="#FFBB45"/>
<stop offset="0.48" stop-color="#7E421C"/>
<stop offset="1"/>
</linearGradient>
<linearGradient id="paint13_linear_33_3437" x1="514.156" y1="323.51" x2="504.693" y2="604.699" gradientUnits="userSpaceOnUse">
<stop stop-color="#FFE300"/>
<stop offset="0.12" stop-color="#FFD300"/>
<stop offset="0.99" stop-color="#FF5700"/>
</linearGradient>
<linearGradient id="paint14_linear_33_3437" x1="353.756" y1="418.32" x2="346.4" y2="411.747" gradientUnits="userSpaceOnUse">
<stop stop-color="#FFE300"/>
<stop offset="0.12" stop-color="#FFD300"/>
<stop offset="0.99" stop-color="#FF5700"/>
</linearGradient>
<linearGradient id="paint15_linear_33_3437" x1="326.204" y1="455.245" x2="320.681" y2="450.31" gradientUnits="userSpaceOnUse">
<stop stop-color="#FFE300"/>
<stop offset="0.12" stop-color="#FFD300"/>
<stop offset="0.99" stop-color="#FF5700"/>
</linearGradient>
<linearGradient id="paint16_linear_33_3437" x1="302.319" y1="483.353" x2="297.702" y2="479.227" gradientUnits="userSpaceOnUse">
<stop stop-color="#FFE300"/>
<stop offset="0.12" stop-color="#FFD300"/>
<stop offset="0.99" stop-color="#FF5700"/>
</linearGradient>
<linearGradient id="paint17_linear_33_3437" x1="382.72" y1="366.875" x2="409.33" y2="367.771" gradientUnits="userSpaceOnUse">
<stop stop-color="#FFE300"/>
<stop offset="0.12" stop-color="#FFD300"/>
<stop offset="0.99" stop-color="#FF5700"/>
</linearGradient>
<linearGradient id="paint18_linear_33_3437" x1="234.978" y1="323.045" x2="254.827" y2="307.127" gradientUnits="userSpaceOnUse">
<stop stop-color="#FFE300"/>
<stop offset="0.12" stop-color="#FFD300"/>
<stop offset="0.99" stop-color="#FF5700"/>
</linearGradient>
<linearGradient id="paint19_linear_33_3437" x1="476.052" y1="371.383" x2="454.635" y2="365.618" gradientUnits="userSpaceOnUse">
<stop stop-color="#FFE300"/>
<stop offset="0.12" stop-color="#FFD300"/>
<stop offset="0.99" stop-color="#FF5700"/>
</linearGradient>
<linearGradient id="paint20_linear_33_3437" x1="588.441" y1="343.47" x2="579.626" y2="332.987" gradientUnits="userSpaceOnUse">
<stop stop-color="#FFE300"/>
<stop offset="0.12" stop-color="#FFD300"/>
<stop offset="0.99" stop-color="#FF5700"/>
</linearGradient>
<linearGradient id="paint21_linear_33_3437" x1="479.601" y1="344.894" x2="464.501" y2="342.721" gradientUnits="userSpaceOnUse">
<stop stop-color="#FFE300"/>
<stop offset="0.12" stop-color="#FFD300"/>
<stop offset="0.99" stop-color="#FF5700"/>
</linearGradient>
<linearGradient id="paint22_linear_33_3437" x1="221.046" y1="258.853" x2="236.258" y2="257.701" gradientUnits="userSpaceOnUse">
<stop stop-color="#FFE300"/>
<stop offset="0.12" stop-color="#FFD300"/>
<stop offset="0.99" stop-color="#FF5700"/>
</linearGradient>
<linearGradient id="paint23_linear_33_3437" x1="549.793" y1="427.926" x2="541.033" y2="433.105" gradientUnits="userSpaceOnUse">
<stop stop-color="#FFE300"/>
<stop offset="0.12" stop-color="#FFD300"/>
<stop offset="0.99" stop-color="#FF5700"/>
</linearGradient>
<linearGradient id="paint24_linear_33_3437" x1="570.912" y1="452.02" x2="565.093" y2="455.458" gradientUnits="userSpaceOnUse">
<stop stop-color="#FFE300"/>
<stop offset="0.12" stop-color="#FFD300"/>
<stop offset="0.99" stop-color="#FF5700"/>
</linearGradient>
<linearGradient id="paint25_linear_33_3437" x1="595.61" y1="490.792" x2="591.458" y2="494.921" gradientUnits="userSpaceOnUse">
<stop stop-color="#FFE300"/>
<stop offset="0.12" stop-color="#FFD300"/>
<stop offset="0.99" stop-color="#FF5700"/>
</linearGradient>
</defs>
</svg>
