<svg width="146" height="173" viewBox="0 0 146 173" fill="none" xmlns="http://www.w3.org/2000/svg">
<path d="M70.1456 45.0698L62.6045 45.5522L69.7931 162.862L77.3342 162.38L70.1456 45.0698Z" fill="url(#paint0_linear_146_1071)"/>
<path d="M8.47104 54.2404L126.814 46.6376L124.748 12.771L6.40531 20.3738L7.406 36.7796L8.47104 54.2404Z" fill="#631818"/>
<path d="M5.5402 52.373L123.871 44.7709L121.806 10.9043L3.47447 18.5063L5.5402 52.373Z" fill="#AD6332"/>
<path d="M110.075 18.1797L7.0127 22.0894L7.55004 22.8502L110.075 18.1797Z" fill="#631818" fill-opacity="0.21"/>
<path d="M66.5125 45.0023L11.1338 46.3613L11.5431 47.1196L66.5125 45.0023Z" fill="#631818" fill-opacity="0.21"/>
<path d="M65.2362 25.3361L120.514 21.7246L120.174 22.5165L65.2362 25.3361Z" fill="#631818" fill-opacity="0.21"/>
<path d="M87.8772 172.512C87.2964 173.254 103.886 166.331 95.7504 156.739C87.6153 147.146 96.5383 148.213 96.5383 148.213C96.5383 148.213 95.2265 145.016 91.5529 146.083C87.8793 147.148 87.3533 152.051 87.3533 152.051C87.3533 152.051 86.0415 148.641 82.8918 147.575C79.7421 146.51 76.5924 144.377 83.1537 143.099C89.715 141.821 93.9146 139.688 91.0269 134.574C88.1412 129.458 84.7276 135.852 82.1039 134.149C79.4802 132.443 75.5426 130.951 79.7421 127.542C83.9417 124.131 82.1039 122 82.1039 122C82.1039 122 80.792 124.771 77.9043 125.836C75.0166 126.902 70.8191 129.885 72.9168 132.443C75.0166 135.001 79.4781 136.279 77.9043 137.985C76.3285 139.69 73.9667 137.558 72.1309 140.543C70.2951 143.526 70.0311 144.593 66.6195 143.101C63.2079 141.608 63.4699 137.985 65.8316 137.559C68.7518 137.031 70.2931 134.361 67.4054 133.083C64.8609 131.955 62.4179 132.018 62.4179 132.018L63.6892 133.05C64.7979 133.951 64.6172 135.455 63.3094 136.159C61.8107 136.965 60.5801 137.487 61.1061 139.052C61.894 141.397 59.7942 141.823 59.7942 141.823C59.7942 141.823 55.5743 141.79 55.3327 143.953L55.0707 146.299C55.0707 146.299 62.4199 142.462 61.37 147.364C61.37 147.364 56.6465 159.514 52.447 154.186C48.2474 148.857 51.6591 147.791 51.6591 147.791C51.6591 147.791 46.9356 146.939 47.7235 150.775C48.5114 154.611 50.3472 157.382 47.1996 156.744C44.0499 156.104 43 159.089 43 159.089C43 159.089 45.9324 159.161 46.6736 160.367C48.2474 162.925 44.5738 168.679 55.0727 171.45C65.5696 174.221 60.3222 168.467 67.6694 167.614C75.0186 166.761 76.0685 171.45 76.0685 171.45C76.0685 171.45 78.6922 169.745 76.8564 167.399C75.0186 165.054 73.0813 164.637 73.0813 164.637C73.0813 164.637 77.3824 162.711 80.0061 166.334C82.6298 169.957 83.6797 169.532 86.0414 169.532C88.4032 169.532 89.715 170.172 87.8793 172.515L87.8772 172.512Z" fill="#F24A27"/>
<path d="M69.004 140.863C69.004 140.863 71.3759 139.738 70.586 138.921C70.586 138.921 69.664 139.228 68.872 139.024C68.0821 138.819 67.0281 139.433 67.818 139.739C68.608 140.046 69.004 140.864 69.004 140.864V140.863Z" fill="#F24A27"/>
<path d="M86.0399 167.396C86.0399 167.396 82.1956 167.327 80.9183 164.53C78.985 160.289 68.0658 163.59 68.0658 163.59C68.0658 163.59 68.9654 164.53 71.7922 165.051C73.7904 165.42 73.9671 166.331 73.9671 166.331C73.9671 166.331 67.6678 164.838 65.0441 166.543C62.4203 168.249 62.4203 170.807 58.4827 170.592C54.5472 170.38 49.5597 169.314 49.2977 165.264C49.0358 161.213 52.9713 158.229 51.3975 156.099C51.3975 156.099 54.2832 157.377 54.5472 159.509C54.8092 161.64 61.1085 160.362 61.1085 157.164C61.1085 153.966 62.4183 148.761 64.5201 147.786C68.1937 146.081 71.6053 145.868 72.3933 143.95C73.1812 142.032 73.4432 140.752 78.1667 139.901C82.8902 139.048 80.2664 135.425 80.2664 135.425C80.2664 135.425 85.0935 134.808 84.2041 137.343C83.4913 139.373 83.4161 139.901 83.4161 139.901C83.4161 139.901 86.3038 138.409 86.8278 136.703C86.8278 136.703 88.9275 138.409 86.8278 139.901C84.728 141.394 78.6926 140.754 77.3787 142.885C76.0669 145.015 76.5908 148.426 80.2664 149.919C83.94 151.411 85.7779 152.477 86.0399 154.82C86.3018 157.166 90.0261 158.22 89.1895 155.886C88.2452 153.255 89.4515 150.132 89.4515 150.132C89.4515 150.132 89.9774 156.313 92.0752 157.378C94.175 158.444 94.9629 161.215 92.0752 161.215C89.1875 161.215 88.1396 164.413 90.5014 164.413C92.8631 164.413 93.913 164.625 93.1251 166.543C92.3371 168.462 90.5014 169.954 90.5014 169.954C90.5014 169.954 93.1251 167.396 86.0399 167.396Z" fill="#FDAC3A"/>
<path d="M55.3347 166.756C55.3347 166.756 60.5842 169.74 65.8337 163.133C71.0831 156.526 75.2826 161.002 75.2826 161.002C75.2826 161.002 77.3824 159.724 75.2826 158.019C75.2826 158.019 81.582 158.444 81.844 161.429C82.1059 164.413 82.1059 165.053 84.9936 165.265L87.8813 165.478C87.8813 165.478 83.6818 163.986 85.2576 162.28C86.8315 160.575 85.5196 159.082 85.5196 159.082C85.5196 159.082 84.9957 160.575 88.4053 160.148C88.4053 160.148 86.0435 159.082 84.4697 156.099C82.8959 153.115 80.0082 156.312 80.0082 156.312C80.0082 156.312 82.8959 152.901 78.4343 151.623C73.9728 150.345 72.9229 147.572 73.7108 146.294C73.7108 146.294 69.7733 147.147 70.0373 149.705C70.2992 152.263 72.925 153.968 71.0872 154.181C69.2493 154.394 66.3637 152.475 66.8876 150.557C66.8876 150.557 63.476 152.475 65.0498 154.608C66.6236 156.739 63.9999 162.068 60.5883 161.642C57.1766 161.215 59.5384 155.888 59.5384 155.888C59.5384 155.888 55.8648 157.593 56.3887 159.938C56.9126 162.284 55.0768 165.054 53.765 162.922C53.765 162.922 51.6652 165.267 55.3388 166.758L55.3347 166.756Z" fill="#FFE663"/>
<g filter="url(#filter0_i_146_1071)">
<path d="M27.7275 27.9262C27.7475 28.0278 27.6357 28.1339 27.3921 28.2444C27.0622 28.3887 26.8902 28.4661 26.8761 28.4766C26.6273 28.6754 26.4584 28.9996 26.3694 29.4492C26.2517 29.7242 26.1224 30.1515 25.9815 30.7309C25.9671 30.9223 25.8994 31.1727 25.7787 31.4822C25.6016 31.9315 25.5112 32.166 25.5073 32.1858C25.5065 32.264 25.5072 32.3716 25.5095 32.5083C25.5069 32.5525 25.5016 32.5919 25.4936 32.6265C25.1114 34.0155 24.5556 36.1103 23.8264 38.9108C23.7637 39.2075 23.6984 39.5018 23.6305 39.7938C23.5217 40.1466 23.3625 40.3285 23.1529 40.3394C23.0797 40.3433 22.9957 40.3256 22.9007 40.2866C22.8995 40.2622 22.913 40.193 22.9413 40.0791C22.9654 39.9801 22.9734 39.899 22.9652 39.8358C22.9542 39.812 22.9003 39.7634 22.8036 39.6902C22.7323 39.6353 22.694 39.5566 22.6886 39.4542C22.6848 39.3811 22.6719 39.2742 22.6499 39.1335C22.552 38.9431 22.4212 38.6394 22.2577 38.2225C22.2355 38.077 22.2156 37.9314 22.1983 37.7856C22.1573 37.5628 22.07 37.3889 21.9364 37.2639C21.9243 37.2205 21.9065 37.1603 21.8829 37.0833C21.9122 36.9889 21.9245 36.8953 21.9196 36.8027C21.911 36.6369 21.8411 36.4694 21.7101 36.3002C21.5908 36.1695 21.4715 36.0388 21.3523 35.9081C21.4067 35.8271 21.4741 35.7136 21.5545 35.5676C21.4671 35.4841 21.3727 35.3619 21.2714 35.201C21.2661 35.0986 21.2478 34.9357 21.2166 34.7124C21.1422 34.599 21.0353 34.4236 20.8958 34.1864C20.8637 34.1343 20.8565 34.0418 20.874 33.9089C20.8984 33.7218 20.9089 33.5941 20.9053 33.5258C20.8451 33.4948 20.7881 33.4806 20.7344 33.4834C20.6174 33.4895 20.5333 33.5648 20.4822 33.7093C20.4071 34.0506 20.2938 34.5503 20.1423 35.2085C20.1297 35.2483 20.0089 35.6042 19.7799 36.2762C19.6062 36.7888 19.5099 37.1924 19.491 37.4867C19.427 37.6661 19.3439 37.9467 19.2416 38.3285C19.1672 38.7773 19.1043 39.1179 19.0528 39.3504C18.9574 39.771 18.841 40.1169 18.7035 40.3881C18.5565 40.474 18.3905 40.4802 18.2058 40.4067C18.092 40.1926 17.9941 39.9093 17.9121 39.5566C17.8168 39.1362 17.744 38.8637 17.6935 38.7392C17.6025 38.4946 17.4775 38.3007 17.3184 38.1574C17.3617 37.7689 17.3343 37.4769 17.2361 37.2816C17.1342 37.2038 16.9926 37.0669 16.8113 36.871C16.8023 36.7933 16.7897 36.6912 16.7733 36.565C16.7715 36.5308 16.7653 36.5043 16.7545 36.4853C16.6524 36.3097 16.5211 36.0403 16.3603 35.6771C16.3711 35.6032 16.3604 35.4913 16.3281 35.3414L16.4603 35.2025C16.608 35.317 16.8269 35.4352 17.1168 35.5569C17.1338 35.4143 17.0726 35.2708 16.933 35.1265C16.7776 34.9586 16.6903 34.8311 16.671 34.7441C15.9755 34.4381 15.6172 34.0852 15.5964 33.6853C15.5916 33.5927 15.6062 33.499 15.6404 33.4043C15.5409 33.2775 15.4209 33.0857 15.2804 32.829C15.2248 32.607 15.1249 32.2846 14.9806 31.8619C14.8929 31.7736 14.7853 31.6325 14.6578 31.4387C14.6656 31.3063 14.6623 31.1035 14.6481 30.8304C14.5689 30.7172 14.444 30.5257 14.2734 30.2559C14.1865 30.0893 14.0973 29.9253 14.0057 29.7638C13.8878 29.5646 13.758 29.4198 13.6164 29.3294C13.505 29.257 13.2255 29.1933 12.7777 29.1384C12.7923 29.1377 12.7509 29.0934 12.6534 29.0056C12.6755 28.9604 12.714 28.9022 12.769 28.8309C13.021 28.7884 13.466 28.7896 14.104 28.8346C14.2023 28.8441 14.3552 28.8239 14.5629 28.774C14.79 28.723 14.9085 28.6973 14.9182 28.6968L16.6005 28.6091C16.6346 28.6073 16.6917 28.5774 16.7718 28.5195C16.8519 28.4615 16.9091 28.4316 16.9432 28.4298C16.9704 28.4822 16.985 28.5279 16.987 28.5669C16.9926 28.6742 16.8624 28.8032 16.5965 28.954C16.3305 29.1048 16.2003 29.2802 16.2059 29.4804C16.2073 29.7884 16.3203 30.1272 16.5449 30.4968C16.5872 30.5582 16.6128 30.6742 16.6217 30.8449C16.637 31.0446 16.6565 31.1829 16.6801 31.2599C16.7451 31.4765 16.9998 32.0475 17.4441 32.9729C17.4605 33.0992 17.4822 33.2814 17.5093 33.5196C17.5462 33.5714 17.5939 33.6423 17.6524 33.7321C17.6518 33.9082 17.7189 34.1174 17.8538 34.3597C18.031 34.6634 18.1311 34.8489 18.1542 34.9161C18.238 35.21 18.324 35.5013 18.4124 35.7901C18.5342 36.1553 18.6644 36.4492 18.8031 36.6718C18.9348 36.6649 19.019 36.5921 19.0558 36.4533C19.2604 35.6896 19.4185 34.97 19.5299 34.2943C19.5761 34.243 19.6324 34.1496 19.6987 34.0141C19.726 33.7878 19.794 33.4518 19.9028 33.0061C20.0706 32.567 20.1495 32.2524 20.1396 32.0623C20.134 31.955 20.1116 31.8535 20.0724 31.7577C19.8314 31.1689 19.4753 30.2927 19.0039 29.1292C18.9115 29.046 18.7254 28.9456 18.4455 28.8282C18.2004 28.7237 18.0539 28.6335 18.006 28.5578C18.1461 28.526 18.3585 28.4734 18.6432 28.3999C18.649 28.512 18.6696 28.5794 18.705 28.602C18.8282 28.62 18.9654 28.6251 19.1165 28.6172C19.2921 28.6081 19.5299 28.5737 19.8299 28.514C20.2413 28.4339 20.498 28.3863 20.5999 28.3712C20.6774 28.3574 20.9265 28.3517 21.3471 28.3542C21.6504 28.358 21.8975 28.3133 22.0882 28.2202C22.1213 28.2919 22.1391 28.352 22.1416 28.4008C22.1464 28.4935 22.0525 28.5668 21.8597 28.6209C21.609 28.6877 21.4305 28.7826 21.3245 28.9055C21.2598 28.9773 21.232 29.101 21.2412 29.2765C21.247 29.3887 21.2876 29.5577 21.3629 29.7836C21.4565 30.0769 21.5128 30.2671 21.532 30.3541C21.5153 30.5017 21.5217 30.7189 21.5514 31.0059C21.6701 31.1268 21.8138 31.3027 21.9823 31.5335C22.0224 31.7416 22.084 32.0318 22.167 32.4039C22.1721 32.4086 22.2666 32.6726 22.4503 33.1959C22.5708 33.5368 22.6358 33.7999 22.6455 33.9852C22.6483 34.0388 22.6484 34.0877 22.6458 34.1318C22.7425 34.205 22.8458 34.3097 22.9555 34.4457C22.9699 34.533 23.0344 34.8328 23.1491 35.3451C23.2393 35.7609 23.2899 36.076 23.3011 36.2906C23.3375 36.3327 23.384 36.3792 23.4404 36.43C23.5166 36.3918 23.6057 36.3187 23.7076 36.2107C23.8158 35.941 23.9768 35.5122 24.1906 34.9241C24.2329 34.516 24.3059 33.9475 24.4097 33.2184C24.4167 33.1643 24.5259 33.0095 24.7375 32.754C24.7219 32.2658 24.823 31.7667 25.0408 31.2566C25.0399 31.1442 25.0606 30.9794 25.1031 30.762C25.1539 30.7056 25.2101 30.6122 25.2718 30.4818C25.2986 30.2457 25.3722 29.8752 25.4925 29.3702C25.5984 29.0566 25.5516 28.8146 25.352 28.6441C25.2753 28.5797 25.1333 28.5284 24.9259 28.4903C24.6786 28.4348 24.5074 28.3875 24.4125 28.3484C24.5111 28.177 24.7738 28.1046 25.2006 28.1313C25.2103 28.1308 25.2475 28.1411 25.3122 28.1621C25.3769 28.1832 25.4311 28.1926 25.475 28.1903C25.514 28.1883 25.591 28.1647 25.706 28.1196C25.8259 28.0742 25.9465 28.0435 26.0679 28.0274C26.1359 28.0189 26.2463 28.0254 26.399 28.0468C26.5514 28.0633 26.6618 28.0698 26.73 28.0662C27.0372 28.0502 27.3697 28.0035 27.7275 27.9262ZM16.31 34.7116L16.1194 34.8535L16.0717 34.7827L16.255 34.6411L16.31 34.7116ZM38.7911 28.8748C38.7939 28.9284 38.7672 28.9787 38.711 29.0256C38.509 29.09 38.3372 29.1723 38.1958 29.2725C38.1157 29.3305 38.0216 29.4479 37.9135 29.6246C37.8102 29.8011 37.7609 29.9333 37.7654 30.0211C37.7883 30.4599 37.8022 30.6328 37.8071 30.5396C37.7742 30.6587 37.7393 30.8316 37.7022 31.0585C37.7052 31.117 37.75 31.3665 37.8366 31.8069C37.8639 31.957 37.884 32.154 37.8967 32.3978C37.9117 32.6855 37.9129 33.0375 37.9004 33.4537C37.8925 33.8649 37.8878 34.0558 37.8863 34.0265L37.9427 35.1091C38.0002 36.2111 38.1692 36.9675 38.4498 37.3782C38.5029 37.4586 38.6146 37.5383 38.785 37.6174C38.9553 37.6966 39.0993 37.7379 39.2168 37.7416C39.1901 37.7919 39.1403 37.8678 39.0673 37.9694L35.6516 38.1475C35.65 38.1183 35.6404 38.0748 35.6228 38.017C35.6048 37.9544 35.5952 37.9109 35.5939 37.8865C35.6987 37.8321 35.8485 37.751 36.0433 37.643C36.1907 37.562 36.3204 37.3303 36.4324 36.948C36.5276 36.6155 36.5703 36.3565 36.5606 36.1712L36.5049 35.1034C36.5011 35.0302 36.4736 34.8312 36.4225 34.5063C36.3851 34.2588 36.3747 34.0589 36.3912 33.9065C36.4049 33.7933 36.3535 33.6053 36.2371 33.3425C36.0073 33.5305 35.6534 33.6809 35.1752 33.7939C34.9242 33.8559 34.7052 33.877 34.5184 33.8575C34.2626 33.8268 34.1273 33.8118 34.1127 33.8126L32.2695 33.9087C32.1607 33.978 32.0229 34.1025 31.8563 34.2823C31.7892 34.4031 31.7735 34.5702 31.8091 34.7835C31.8524 34.8643 31.9025 34.9815 31.9594 35.135C31.9412 35.0675 31.9311 35.2025 31.9292 35.54C31.9256 35.5646 31.9626 35.9465 32.0403 36.6857C32.121 37.4833 32.4199 37.9176 32.937 37.9884C32.9567 37.9922 33.0636 38.0258 33.2576 38.089C33.1012 38.2781 32.9182 38.3781 32.7085 38.389C32.65 38.3921 32.5789 38.3884 32.4952 38.3781C32.3969 38.3686 32.3356 38.3644 32.3112 38.3657L29.4271 38.4721C29.4274 38.3841 29.535 38.2905 29.7498 38.1912C30.0027 38.0705 30.1919 37.9017 30.3175 37.6849C30.4115 37.5187 30.464 37.2128 30.475 36.7673C30.4899 36.302 30.4741 35.9068 30.4279 35.5816C30.4063 35.5436 30.3743 35.4915 30.3317 35.4253C30.3072 35.05 30.3001 34.4906 30.3102 33.7469C30.3138 33.7222 30.3365 33.6428 30.3784 33.5086C30.4165 33.3942 30.4311 33.3005 30.4225 33.2276C30.3645 33.1475 30.2887 33.0072 30.1952 32.8067C30.2128 32.8645 30.2215 32.7027 30.2212 32.3213C30.222 32.2431 30.2063 32.129 30.174 31.9791C30.1466 31.8289 30.1324 31.7441 30.1314 31.7246L30.07 30.547C30.0618 30.391 29.9423 30.209 29.7115 30.001C29.4806 29.793 29.2561 29.6605 29.038 29.6034C29.0424 29.5934 29.0917 29.5077 29.1859 29.3463C29.3612 29.3323 29.6334 29.301 30.0025 29.2524C30.352 29.2048 30.5341 29.1807 30.5488 29.1799L31.9385 29.1074C32.0019 29.1041 32.0673 29.0934 32.1348 29.0752C32.2023 29.057 32.2483 29.0473 32.2726 29.046C32.3702 29.0409 32.5458 29.1271 32.7995 29.3046C32.6332 29.3964 32.467 29.4906 32.3009 29.5873C32.097 29.7103 31.9499 29.8427 31.8595 29.9843C31.7147 30.207 31.6576 30.6134 31.6884 31.2034L31.77 32.7686C31.7715 32.7979 31.7805 32.8292 31.7969 32.8626C31.8133 32.8959 31.822 32.9224 31.823 32.9419C32.0576 33.0323 32.2553 33.0734 32.4162 33.065L35.32 32.9136C35.4231 32.9228 35.5759 32.9467 35.7784 32.985C35.7833 32.9847 35.8506 33.0106 35.9805 33.0625C36.0803 33.1013 36.157 33.1193 36.2107 33.1165C36.2448 33.1147 36.2738 33.1083 36.2977 33.0973C36.444 32.9038 36.5104 32.6755 36.4966 32.4121C36.4898 32.2805 36.453 32.0917 36.3864 31.8458C36.3198 31.5999 36.2864 31.4281 36.2862 31.3303C36.2821 31.2523 36.2595 31.0995 36.2183 30.8718C36.1702 30.6054 36.1407 30.4163 36.13 30.3044C36.081 29.8326 35.6981 29.4297 34.9815 29.0954C35.0691 28.9931 35.1373 28.9406 35.186 28.9381L36.2758 28.8813C36.2125 28.8846 36.4146 28.8691 36.8822 28.835C37.291 28.799 37.6054 28.7801 37.8253 28.7785C38.0465 28.8011 38.3685 28.8333 38.7911 28.8748ZM45.4812 29.2153C45.4655 29.2895 45.4392 29.3936 45.4022 29.5275C45.4022 29.5275 45.2575 29.5668 44.9683 29.6455C44.7852 29.699 44.6725 29.788 44.6301 29.9125C44.5942 29.973 44.5497 30.0584 44.4968 30.1688C44.4888 30.2034 44.4402 30.4895 44.3509 31.0271L44.4818 34.1007C44.4543 34.2292 44.4408 34.2984 44.4413 34.3081C44.4413 34.3081 44.461 34.3585 44.5005 34.4591L44.545 35.5935C44.519 35.7514 44.5302 35.9659 44.5786 36.2372C44.6292 36.5524 44.711 36.8073 44.8238 37.0018C44.8615 37.0683 44.9508 37.1395 45.0916 37.2152C45.3528 37.3483 45.61 37.4058 45.8634 37.3877C45.8618 37.4513 45.8398 37.5454 45.7974 37.6698L44.9489 37.7141C44.9343 37.7148 44.8487 37.7144 44.6922 37.7128C44.5405 37.7109 44.4598 37.7102 44.45 37.7107C44.4354 37.7115 44.3698 37.7198 44.2533 37.7357C44.1368 37.7515 44.0737 37.7597 44.0639 37.7602C44.0542 37.7607 44.0076 37.7583 43.9242 37.7528C43.8456 37.7471 43.7991 37.7447 43.7844 37.7454C43.7698 37.7462 43.7359 37.7529 43.6828 37.7654C43.6345 37.7777 43.6031 37.7842 43.5885 37.785L42.0617 37.9013C41.93 37.9082 41.8617 37.8628 41.8566 37.7653C41.8507 37.6531 41.8814 37.5855 41.9487 37.5625C42.1032 37.5251 42.2578 37.4901 42.4126 37.4576C42.591 37.4092 42.7046 37.3373 42.7534 37.2418C42.7698 37.1823 42.7944 37.0905 42.8271 36.9666C42.8956 36.9679 43.0012 36.9771 43.1439 36.9941C43.1822 36.7916 43.1998 36.6611 43.1968 36.6026C43.194 36.549 43.1658 36.4771 43.1122 36.387C43.1461 36.2875 43.1491 36.2042 43.1212 36.1372C43.0991 36.0894 43.0485 36.009 42.9692 35.8957C42.9005 35.7966 42.8658 35.7398 42.865 35.7252C42.8668 35.7593 42.9006 35.6108 42.9665 35.2798C42.9742 35.2403 42.9566 35.185 42.9138 35.1139C42.9896 34.973 43.0262 34.8782 43.0236 34.8294C43.0231 34.8197 43.0027 34.6619 42.9623 34.3559C42.961 34.3315 42.9415 34.2861 42.9038 34.2196C42.8661 34.1531 42.8469 34.1126 42.8462 34.098C42.8451 34.0784 42.8629 34.0433 42.8993 33.9925C42.8906 34.0125 42.8843 33.986 42.8805 33.9128L42.8344 33.0278C42.8336 33.0132 42.8411 32.9688 42.8567 32.8946C42.8773 32.8202 42.8872 32.7757 42.8865 32.761C42.8859 32.7513 42.8777 32.7346 42.8618 32.711C42.8457 32.6825 42.8372 32.6609 42.8365 32.6463C42.8375 32.6658 42.8391 32.5557 42.8412 32.316C42.8387 32.2672 42.8296 32.187 42.814 32.0754C42.7984 31.9638 42.7906 31.9079 42.7906 31.9079L42.7605 31.3301C42.7577 31.2765 42.7195 31.2002 42.6459 31.1014C42.6626 31.0467 42.6428 30.9475 42.5864 30.8038C42.5779 30.7358 42.5531 30.6344 42.5118 30.4996C42.4705 30.4578 42.4185 30.3969 42.3556 30.3171C42.3336 30.2694 42.2956 30.198 42.2418 30.103C42.1364 29.9569 42.0387 29.8642 41.9486 29.8249C41.8349 29.8015 41.6639 29.7567 41.4355 29.6903C41.4466 29.6213 41.4688 29.5321 41.5022 29.4228L41.5681 29.4194C41.5827 29.4186 41.6268 29.4212 41.7005 29.4272C41.779 29.4328 41.8256 29.4353 41.8402 29.4345L45.4812 29.2153ZM55.0469 28.0198C55.0273 28.2066 55.0047 28.4303 54.9792 28.6907L55.0677 30.3877C55.0433 30.3889 54.9998 30.3985 54.9372 30.4165C54.8745 30.4344 54.831 30.444 54.8066 30.4453C54.7949 30.4068 54.7407 30.1187 54.6442 29.581C54.589 29.2709 54.4326 29.0395 54.1753 28.8867C54.064 28.8143 53.8107 28.8323 53.4154 28.941C53.2165 28.9709 52.9312 29.0322 52.5596 29.1249C52.4302 29.1757 52.3516 29.2629 52.3238 29.3866C52.2572 29.703 52.271 30.1546 52.3651 30.7413C52.4642 31.3277 52.4894 32.1405 52.4409 33.1796C52.4407 33.1747 52.4899 33.5095 52.5887 34.184C52.5814 34.4191 52.5948 34.7704 52.629 35.238C52.6956 35.4839 52.7933 35.8577 52.9221 36.3595C52.9836 36.6008 53.1551 36.7483 53.4366 36.8021C53.6637 36.844 53.8907 36.8835 54.1175 36.9206C54.1213 36.9937 54.0708 37.1039 53.9661 37.2512L49.8189 37.4675C49.7799 37.4695 49.7588 37.4413 49.7558 37.3827C49.755 37.3681 49.7554 37.329 49.757 37.2653C49.9064 37.2233 50.1246 37.141 50.4115 37.0185C50.658 36.8688 50.8372 36.6956 50.9492 36.4991C50.9805 36.4437 51.0032 36.2225 51.0173 35.8355C51.0017 35.1615 50.9893 34.4556 50.9802 33.7178L50.8429 31.0847L51.0404 31.0744C51.0499 31.069 51.0658 31.0462 51.0881 31.0059C51.0115 30.8485 50.9165 30.6212 50.8032 30.324C50.7904 30.266 50.7319 29.895 50.6278 29.211L49.2747 29.2816C49.1333 29.2889 48.9618 29.3761 48.7603 29.5431C48.5587 29.7101 48.4507 29.8428 48.4363 29.9414C48.3565 30.3807 48.2722 30.6858 48.1833 30.8566C48.1389 30.9421 48.0313 30.9893 47.8607 30.9982C47.8597 30.9786 47.8467 30.9182 47.8219 30.8168C47.8027 30.7298 47.7969 30.6665 47.8047 30.627C47.8527 30.4241 47.8927 30.1115 47.9245 29.6893C47.9614 29.1789 47.9924 28.835 48.0173 28.6577C48.0173 28.6577 48.09 28.5512 48.2354 28.3383C48.0883 28.3313 48.5341 28.3007 49.5727 28.2466C49.8751 28.2308 50.3348 28.2337 50.952 28.2553C51.5741 28.2767 51.8729 28.288 51.8486 28.2893L53.0554 28.2263C53.0505 28.2266 53.1956 28.1946 53.4905 28.1303C53.8098 28.0648 54.1177 28.0169 54.4144 27.9868C54.5258 27.9663 54.6372 27.9458 54.7486 27.9253C54.8941 27.9031 54.9935 27.9346 55.0469 28.0198ZM64.9038 34.2386C64.9024 34.4929 64.8894 34.853 64.8648 35.3187C64.8129 35.4486 64.749 35.6304 64.6732 35.8641C64.6588 35.9627 64.6293 36.1011 64.5849 36.2794C64.5681 36.3341 64.5095 36.4276 64.4088 36.56C64.2902 36.7226 64.1918 36.806 64.1138 36.8101L62.2487 36.9073C62.2145 36.9091 61.9947 36.9132 61.5892 36.9197C61.1837 36.9262 60.9639 36.9303 60.9298 36.9321L59.8034 36.9908C59.7741 36.9924 59.6222 36.9856 59.3476 36.9706C59.0782 36.9602 58.9264 36.9559 58.8922 36.9577L57.7878 37.0153L57.6874 36.9178C57.7374 36.8467 57.9419 36.6894 58.3008 36.4458C58.546 36.2716 58.6626 36.07 58.6506 35.8408L58.5301 33.5295C58.5105 33.154 58.5427 32.6463 58.6267 32.0063C58.5532 31.8145 58.5282 31.5714 58.552 31.2768C58.4604 31.2082 58.4112 31.1081 58.4043 30.9764C58.4038 30.9667 58.4422 30.7642 58.5193 30.369C58.5224 30.3346 58.4945 30.2676 58.4355 30.168C58.3609 30.0497 58.321 29.9882 58.3159 29.9836C58.2764 29.883 58.2534 29.7228 58.2468 29.5031C58.2311 29.2008 58.2224 29.035 58.2209 29.0058C58.1976 28.8407 58.1565 28.7084 58.0975 28.6088C58.017 28.4712 57.8917 28.3653 57.7216 28.291C57.572 28.2353 57.4223 28.1771 57.2724 28.1164C57.3323 27.952 57.401 27.8628 57.4785 27.849C57.6307 27.8606 57.8479 27.8542 58.1302 27.8297C58.4385 27.7403 58.5877 27.6958 58.578 27.6963L59.8726 27.6288C59.8921 27.6278 60.0393 27.6372 60.3141 27.6571C60.5939 27.6768 60.8046 27.6853 60.9462 27.6828C61.0047 27.6798 61.4907 27.6227 62.4041 27.5115C62.613 27.4859 63.1624 27.4719 64.0521 27.4696C64.1329 27.5191 64.1754 27.5829 64.1795 27.6609C64.1817 27.7048 64.168 27.7691 64.1382 27.8538C64.1132 27.9382 64.1018 27.9999 64.1038 28.0389C64.1073 28.2001 64.0838 28.7343 64.0334 29.6414C64.0203 29.6715 63.952 29.7215 63.8285 29.7915C63.7967 29.7442 63.6929 29.4881 63.5171 29.023C63.4035 28.7208 63.2143 28.562 62.9495 28.5465C62.8409 28.5277 62.73 28.5091 62.6165 28.4905C62.4636 28.4643 62.3463 28.4655 62.2647 28.4942C62.0534 28.5688 61.5881 28.6004 60.8688 28.589C60.4723 28.5803 60.1752 28.6032 59.9776 28.6575C59.9198 28.6751 59.8838 28.7333 59.8693 28.8318C60.0746 29.3932 60.1083 29.8975 59.9702 30.3447C59.9785 30.3149 59.9897 30.4366 60.0039 30.7097C60.0075 30.7779 60.0027 30.92 59.9895 31.1358C59.9743 31.3126 59.9768 31.4543 59.997 31.5608C60.0044 31.6093 60.054 31.6703 60.1459 31.7437L62.9033 31.5999C62.9896 31.5661 63.0734 31.5324 63.1548 31.4988C63.2888 31.4429 63.3799 31.3624 63.4282 31.2572C63.4704 31.1279 63.5514 30.9476 63.6714 30.7164C63.8274 30.7083 63.9302 30.7567 63.9796 30.8617C63.9746 31.1407 63.9737 31.4977 63.9768 31.9327C63.9869 32.2206 63.9748 32.6442 63.9404 33.2034C63.9252 33.2873 63.8291 33.3192 63.652 33.2991C63.5825 33.1854 63.4624 33.0376 63.2915 32.8558C62.9824 32.647 62.7059 32.549 62.4621 32.5617L61.4527 32.6143C61.3893 32.6176 61.2644 32.6119 61.0778 32.5972C60.8912 32.5825 60.7516 32.5776 60.659 32.5824C60.4005 32.5959 60.2411 32.68 60.1807 32.8347C60.1116 33.0094 60.0795 33.1431 60.0843 33.2358C60.0889 33.3235 60.1146 33.4884 60.1614 33.7305C60.2083 33.9725 60.2327 34.1595 60.2347 34.2914C60.2334 34.3599 60.2157 34.4904 60.1818 34.6828C60.1524 34.8702 60.1405 35.0175 60.1461 35.1247C60.1505 35.2076 60.1642 35.2827 60.1872 35.35C60.2275 35.4652 60.3665 35.5998 60.6043 35.7536C60.847 35.9072 61.0519 35.9918 61.219 36.0076C61.2439 36.0161 61.2687 36.0245 61.2936 36.033C61.3432 36.0451 61.3874 36.0501 61.4264 36.0481L62.6406 35.9848C62.9137 35.9705 63.1406 35.9147 63.3213 35.8173C63.5736 35.6868 63.8146 35.4786 64.0441 35.1929C64.2966 34.8765 64.4254 34.5813 64.4307 34.3073C64.5531 34.2178 64.7108 34.1949 64.9038 34.2386ZM73.6789 28.8525C73.7335 29.055 73.7303 29.5098 73.6694 30.2171C73.648 30.4627 73.5218 30.7626 73.2909 31.1169C73.0598 31.4664 72.8218 31.7306 72.5768 31.9096C72.3558 32.0776 72.0398 32.2065 71.6289 32.2964C71.5288 32.3456 71.3802 32.4023 71.183 32.4663C70.7996 32.5205 70.3129 32.563 69.7228 32.5938C69.6887 32.5956 69.6488 32.627 69.6031 32.6881C69.6323 32.8723 69.685 33.4612 69.7612 34.4547C69.7811 34.6492 69.8334 34.9008 69.9179 35.2093C69.9225 35.297 69.9536 35.425 70.0113 35.5931C70.1179 35.7636 70.2878 35.8794 70.5208 35.9406C70.704 35.9848 70.8872 36.029 71.0704 36.0733C71.0781 36.1267 71.079 36.1902 71.073 36.2638C70.9347 36.3297 70.7923 36.3665 70.6461 36.3741L69.8927 36.4134C69.8829 36.4139 69.8165 36.4051 69.6933 36.3871C69.575 36.3688 69.489 36.3611 69.4354 36.3639C69.2891 36.3715 69.0581 36.3958 68.7424 36.4367C68.4316 36.4774 68.2787 36.4976 68.2835 36.4973L67.5594 36.5351C67.4863 36.5389 67.3972 36.5191 67.2923 36.4756C67.2918 36.4659 67.2831 36.4395 67.2662 36.3963C67.2541 36.353 67.2476 36.3215 67.2466 36.302C67.4966 36.2205 67.6476 36.1637 67.6997 36.1317C67.871 36.0396 68.0076 35.8932 68.1095 35.6923C68.1537 35.602 68.1739 35.3784 68.1699 35.0217C68.1718 34.963 68.1809 34.8109 68.1975 34.5656C68.2153 34.3446 68.2212 34.1756 68.215 34.0586C68.1835 33.4539 68.1678 33.1516 68.1678 33.1516C68.1512 32.9276 68.1322 32.7036 68.1107 32.4798C68.1024 32.226 68.1496 32.006 68.2523 31.8197C68.2115 31.7876 68.1643 31.7265 68.1107 31.6364C68.058 31.3751 68.0243 31.1031 68.0095 30.8203C68.0093 30.8154 68.0244 30.7315 68.0551 30.5685C68.0823 30.4351 68.0793 30.3301 68.046 30.2536C67.957 30.048 67.9335 29.7852 67.9755 29.4652C67.9902 29.3716 67.9434 29.0831 67.8351 28.5998C67.8269 28.4437 67.7748 28.2411 67.6787 27.9919C67.5697 27.8704 67.4288 27.7946 67.2561 27.7645C67.1132 27.7427 66.9702 27.7208 66.8273 27.6989C66.8128 27.4209 66.8024 27.3628 66.7962 27.5245C66.8019 27.446 66.8485 27.402 66.936 27.3925C67.1306 27.3726 67.4415 27.3344 67.8688 27.2779C68.262 27.2231 68.4659 27.1954 68.4805 27.1946L69.4021 27.1466C69.5777 27.1374 69.7549 27.1135 69.9338 27.0748C70.1173 27.0311 70.2725 27.0058 70.3992 26.9992C70.5601 26.9908 70.7657 26.9948 71.0159 27.0111C71.1689 27.0373 71.3957 27.0744 71.6965 27.1223C71.7267 27.1403 71.7742 27.1598 71.8389 27.1809C72.3057 27.225 72.7243 27.4232 73.0947 27.7755C73.362 28.0255 73.5567 28.3845 73.6789 28.8525ZM72.171 29.7525C72.1629 29.5965 72.1501 29.492 72.1326 29.4391C71.8555 28.8131 71.6292 28.4117 71.4538 28.2351C71.2116 27.9983 70.9475 27.8556 70.6614 27.807C70.4738 27.7728 70.1708 27.7763 69.7525 27.8177C69.7086 27.82 69.6442 27.8503 69.5592 27.9085C69.5242 28.7366 69.5102 29.4072 69.5174 29.9202C69.5438 29.958 69.5687 30.0129 69.592 30.085C69.5956 30.1533 69.5881 30.4324 69.5697 30.9223C69.5616 31.2356 69.5879 31.5521 69.6485 31.8716C69.6639 31.8855 69.6844 31.904 69.7101 31.9271L70.4196 31.8901C70.4989 31.9104 70.5848 31.9181 70.6775 31.9133C70.9603 31.8985 71.2262 31.7942 71.4753 31.6003C71.7243 31.4064 71.8774 31.2493 71.9347 31.129C72.1187 30.7185 72.1974 30.2596 72.171 29.7525ZM83.7931 35.6446C83.7074 35.6881 83.5788 35.7071 83.4073 35.7013C83.1233 35.6917 82.991 35.6864 83.0105 35.6854L82.4253 35.7159C81.7183 35.7527 81.1692 35.8181 80.778 35.9118C80.5606 35.9622 80.4132 35.9479 80.3357 35.8688C80.3183 35.7231 80.3192 35.5983 80.3382 35.4947C80.4352 35.4798 80.57 35.4386 80.7425 35.3709C80.8133 35.3232 80.8656 35.2471 80.8993 35.1427C80.9329 35.0383 80.9361 34.9574 80.9086 34.9002C80.8305 34.6207 80.7108 34.2015 80.5497 33.6428C80.5382 33.6091 80.4773 33.473 80.367 33.2342C80.2788 33.0433 80.2321 32.8966 80.2267 32.7942C80.2203 32.7652 80.1879 32.7522 80.1294 32.7552C80.0465 32.7596 79.6476 32.7999 78.9329 32.8763L77.3907 32.9787C77.2783 32.9797 77.1788 33.0876 77.0922 33.3023C77.049 33.4121 76.989 33.5742 76.9122 33.7884C76.8178 34.1356 76.7748 34.3408 76.7829 34.4039C76.7812 34.3698 76.7644 34.5173 76.7327 34.8466C76.7105 35.0775 76.7186 35.2336 76.7571 35.3147C76.7791 35.3624 76.8563 35.4366 76.9887 35.5373C77.126 35.6377 77.2418 35.7026 77.3362 35.7319C77.3611 35.7404 77.4008 35.7505 77.4552 35.7624C77.4977 35.8286 77.5322 35.8806 77.5587 35.9183C77.4578 35.9529 77.318 35.992 77.1394 36.0355C76.8553 36.0259 76.4471 36.0276 75.9148 36.0407C75.8045 36.0807 75.6331 36.1238 75.4009 36.1702C75.3911 36.1707 75.212 36.158 74.8635 36.1322C74.8525 36.1083 74.8465 36.0866 74.8454 36.0671C74.8424 36.0086 74.9112 35.9219 75.0519 35.807C75.1017 35.7311 75.187 35.6313 75.3077 35.5076C75.416 35.4286 75.507 35.2992 75.5808 35.1193C75.6543 34.9346 75.7665 34.65 75.9176 34.2657C75.9786 34.0278 76.0699 33.6686 76.1915 33.1879C76.2773 32.9586 76.3838 32.6107 76.5111 32.1445C76.6057 31.8022 76.743 31.2939 76.923 30.6195C76.9415 30.599 76.9643 30.5685 76.9915 30.5279C77.0102 30.6052 77.0318 30.6432 77.0562 30.6419C77.0903 30.6401 77.1287 30.533 77.1714 30.3205C77.2103 30.1278 77.2275 29.99 77.2232 29.9071C77.2224 29.8925 77.2196 29.8853 77.2147 29.8856C77.2058 29.9007 77.191 29.9455 77.1704 30.0199C77.1679 29.9711 77.1692 29.9026 77.1744 29.8143C77.2417 29.6054 77.3356 29.2974 77.4562 28.8902C77.4804 28.6982 77.5705 28.4099 77.7265 28.0253C77.7465 27.9412 77.7765 27.8125 77.8164 27.6393C77.8526 27.4907 77.9265 27.2668 78.038 26.9676C78.0494 26.9035 78.0812 26.8114 78.1336 26.6913C78.1611 26.6556 78.2752 26.6399 78.4759 26.6441C78.6663 26.6391 78.9549 26.6411 79.3416 26.6503C79.4875 27.0094 79.7446 27.5803 80.113 28.3629C80.1276 28.4551 80.1615 28.5902 80.2148 28.7683C80.3048 28.9934 80.4183 29.2002 80.5552 29.3887C80.5326 29.4241 80.5587 29.5498 80.6336 29.766C80.7207 29.9374 80.8488 30.1899 81.0178 30.5233C81.1377 30.8545 81.3206 31.3143 81.5664 31.9029C81.5882 32.0387 81.6447 32.2313 81.7359 32.4808C81.7379 32.5198 81.7533 32.5801 81.782 32.6617C81.8471 32.7855 81.9647 33.0238 82.1347 33.3768C82.1924 33.452 82.2717 33.5676 82.3728 33.7237C82.3699 33.763 82.3776 33.8164 82.3958 33.8839C82.4745 34.0802 82.5939 34.3552 82.7542 34.7086C82.8073 34.789 82.898 34.9358 83.0265 35.1491C83.0588 35.2061 83.2017 35.2745 83.4552 35.3541C83.5297 35.3747 83.6388 35.4057 83.7828 35.4471L83.7931 35.6446ZM79.8337 32.0079C79.8286 32.0033 79.6253 31.5274 79.2239 30.5802C79.1552 30.3882 79.0498 30.1028 78.9078 29.7239C78.8432 29.6099 78.7564 29.4458 78.6475 29.2314C78.6129 29.1306 78.554 28.987 78.471 28.8006C78.3163 29.2096 78.1423 29.6245 77.9492 30.0453C77.9214 30.0761 77.8897 30.1242 77.854 30.1896C77.8432 30.2635 77.8222 30.377 77.7911 30.5302C77.7605 30.6003 77.7242 30.7 77.682 30.8293C77.6814 30.9124 77.6749 31.0204 77.6622 31.153C77.6306 31.2036 77.5952 31.2739 77.5559 31.3639C77.5373 31.4774 77.509 31.6377 77.4709 31.8451C77.4486 31.8854 77.4197 31.9407 77.3842 32.011C77.3912 31.9568 77.3982 31.998 77.4054 32.1345L79.8337 32.0079ZM91.6393 27.9159C91.6938 28.1184 91.6907 28.5733 91.6297 29.2806C91.6083 29.5262 91.4822 29.8261 91.2513 30.1804C91.0201 30.5298 90.7821 30.7941 90.5372 30.9731C90.3162 31.1411 90.0002 31.27 89.5893 31.3599C89.4891 31.4091 89.3405 31.4657 89.1434 31.5298C88.76 31.584 88.2732 31.6265 87.6832 31.6573C87.6491 31.6591 87.6092 31.6905 87.5634 31.7515C87.5926 31.9358 87.6453 32.5247 87.7216 33.5182C87.7415 33.7127 87.7937 33.9642 87.8783 34.2727C87.8828 34.3605 87.914 34.4885 87.9716 34.6566C88.0783 34.827 88.2481 34.9429 88.4811 35.0041C88.6643 35.0483 88.8476 35.0925 89.0308 35.1367C89.0385 35.1901 89.0393 35.2536 89.0334 35.3273C88.895 35.3932 88.7527 35.4299 88.6064 35.4376L87.853 35.4769C87.8433 35.4774 87.7768 35.4686 87.6537 35.4506C87.5354 35.4323 87.4494 35.4246 87.3957 35.4274C87.2495 35.435 87.0185 35.4593 86.7028 35.5002C86.392 35.5408 86.239 35.561 86.2439 35.5608L85.5198 35.5985C85.4466 35.6023 85.3576 35.5825 85.2527 35.5391C85.2522 35.5294 85.2434 35.5029 85.2265 35.4598C85.2145 35.4164 85.208 35.385 85.2069 35.3655C85.4569 35.284 85.608 35.2272 85.6601 35.1952C85.8313 35.1031 85.9679 34.9566 86.0699 34.7557C86.1141 34.6654 86.1342 34.4419 86.1303 34.0852C86.1321 34.0264 86.1413 33.8744 86.1578 33.629C86.1757 33.4081 86.1815 33.2391 86.1754 33.1221C86.1439 32.5174 86.1281 32.2151 86.1281 32.2151C86.1115 31.991 86.0925 31.7671 86.0711 31.5433C86.0627 31.2895 86.1099 31.0695 86.2127 30.8832C86.1719 30.8511 86.1247 30.79 86.0711 30.6999C86.0184 30.4386 85.9846 30.1666 85.9699 29.8837C85.9696 29.8789 85.9848 29.795 86.0154 29.632C86.0427 29.4986 86.0397 29.3936 86.0063 29.3171C85.9174 29.1115 85.8939 28.8487 85.9359 28.5287C85.9506 28.435 85.9037 28.1465 85.7954 27.6632C85.7873 27.5072 85.7352 27.3046 85.639 27.0553C85.53 26.9339 85.3892 26.8581 85.2165 26.828C85.0735 26.8061 84.9306 26.7842 84.7877 26.7624C84.7732 26.4844 84.7628 26.4263 84.7566 26.588C84.7623 26.5094 84.8089 26.4654 84.8964 26.456C85.0909 26.4361 85.4018 26.3978 85.8292 26.3413C86.2224 26.2866 86.4263 26.2589 86.4409 26.2581L87.3625 26.21C87.538 26.2009 87.7153 26.177 87.8942 26.1383C88.0777 26.0945 88.2328 26.0693 88.3596 26.0627C88.5205 26.0543 88.7261 26.0583 88.9763 26.0746C89.1292 26.1008 89.3561 26.1379 89.6568 26.1858C89.6871 26.2037 89.7346 26.2233 89.7992 26.2443C90.266 26.2884 90.6846 26.4866 91.055 26.8389C91.3223 27.089 91.5171 27.448 91.6393 27.9159ZM90.1314 28.816C90.1232 28.6599 90.1104 28.5555 90.093 28.5026C89.8159 27.8765 89.5896 27.4752 89.4142 27.2985C89.172 27.0618 88.9079 26.9191 88.6217 26.8705C88.4342 26.8362 88.1312 26.8398 87.7129 26.8812C87.669 26.8835 87.6045 26.9137 87.5196 26.9719C87.4845 27.8001 87.4706 28.4707 87.4778 28.9837C87.5042 29.0214 87.5291 29.0764 87.5524 29.1485C87.556 29.2167 87.5485 29.4958 87.53 29.9857C87.5219 30.2991 87.5482 30.6155 87.6089 30.9351C87.6243 30.9489 87.6448 30.9674 87.6704 30.9905L88.3799 30.9535C88.4592 30.9739 88.5452 30.9816 88.6378 30.9768C88.9207 30.962 89.1866 30.8577 89.4356 30.6638C89.6846 30.4699 89.8378 30.3128 89.8951 30.1925C90.079 29.7819 90.1578 29.3231 90.1314 28.816ZM101.732 32.3182C101.73 32.5726 101.717 32.9326 101.692 33.3984C101.641 33.5282 101.577 33.71 101.501 33.9438C101.486 34.0423 101.457 34.1808 101.413 34.3591C101.396 34.4137 101.337 34.5073 101.236 34.6396C101.118 34.8023 101.02 34.8856 100.942 34.8897L99.0764 34.987C99.0422 34.9888 98.8224 34.9929 98.4169 34.9994C98.0114 35.0058 97.7916 35.01 97.7575 35.0117L96.6311 35.0705C96.6018 35.072 96.4499 35.0653 96.1753 35.0502C95.9059 35.0398 95.7541 35.0355 95.7199 35.0373L94.6155 35.0949L94.5151 34.9975C94.5651 34.9264 94.7696 34.769 95.1285 34.5254C95.3737 34.3513 95.4903 34.1496 95.4783 33.9204L95.3578 31.6091C95.3382 31.2337 95.3704 30.7259 95.4544 30.0859C95.3809 29.8942 95.3559 29.651 95.3797 29.3564C95.2881 29.2878 95.2389 29.1877 95.232 29.0561C95.2315 29.0463 95.2699 28.8438 95.347 28.4487C95.3501 28.4143 95.3222 28.3473 95.2632 28.2477C95.1886 28.1293 95.1487 28.0679 95.1436 28.0632C95.1041 27.9626 95.0811 27.8025 95.0745 27.5828C95.0588 27.2805 95.0501 27.1147 95.0486 27.0854C95.0253 26.9204 94.9842 26.7881 94.9252 26.6885C94.8447 26.5509 94.7194 26.4449 94.5493 26.3707C94.3997 26.3149 94.25 26.2567 94.1001 26.1961C94.16 26.0316 94.2287 25.9425 94.3062 25.9286C94.4584 25.9403 94.6756 25.9338 94.9579 25.9093C95.2662 25.8199 95.4154 25.7755 95.4057 25.776L96.7003 25.7085C96.7198 25.7074 96.867 25.7169 97.1418 25.7368C97.4216 25.7564 97.6323 25.765 97.7739 25.7625C97.8324 25.7594 98.3184 25.7023 99.2318 25.5911C99.4407 25.5656 99.9901 25.5516 100.88 25.5492C100.961 25.5988 101.003 25.6626 101.007 25.7406C101.009 25.7845 100.996 25.8487 100.966 25.9334C100.941 26.0178 100.929 26.0796 100.932 26.1186C100.935 26.2797 100.912 26.8139 100.861 27.7211C100.848 27.7511 100.78 27.8011 100.656 27.8711C100.624 27.8239 100.521 27.5677 100.345 27.1026C100.231 26.8005 100.042 26.6417 99.7772 26.6261C99.6686 26.6074 99.5577 26.5887 99.4442 26.5702C99.2913 26.5439 99.174 26.5451 99.0924 26.5738C98.8811 26.6484 98.4158 26.68 97.6965 26.6686C97.3 26.66 97.0029 26.6828 96.8053 26.7371C96.7475 26.7548 96.7115 26.8129 96.697 26.9114C96.9023 27.4728 96.936 27.9771 96.7979 28.4243C96.8062 28.3946 96.8174 28.5162 96.8316 28.7893C96.8352 28.8576 96.8304 28.9996 96.8172 29.2154C96.802 29.3922 96.8045 29.5339 96.8247 29.6404C96.8321 29.6889 96.8817 29.7499 96.9736 29.8234L99.731 29.6796C99.8173 29.6457 99.9011 29.612 99.9825 29.5784C100.116 29.5226 100.208 29.442 100.256 29.3368C100.298 29.2075 100.379 29.0273 100.499 28.7961C100.655 28.7879 100.758 28.8364 100.807 28.9414C100.802 29.2203 100.801 29.5773 100.805 30.0123C100.815 30.3002 100.803 30.7238 100.768 31.283C100.753 31.3669 100.657 31.3988 100.48 31.3787C100.41 31.265 100.29 31.1172 100.119 30.9355C99.8101 30.7267 99.5336 30.6286 99.2898 30.6413L98.2804 30.694C98.217 30.6973 98.0921 30.6916 97.9055 30.6769C97.7189 30.6621 97.5793 30.6572 97.4867 30.662C97.2282 30.6755 97.0688 30.7596 97.0084 30.9143C96.9393 31.0891 96.9072 31.2227 96.912 31.3154C96.9166 31.4032 96.9423 31.5681 96.9892 31.8101C97.036 32.0521 97.0604 32.2391 97.0624 32.371C97.0611 32.4395 97.0434 32.57 97.0095 32.7625C96.9801 32.9498 96.9683 33.0971 96.9738 33.2044C96.9782 33.2873 96.9919 33.3624 97.0149 33.4296C97.0552 33.5449 97.1942 33.6794 97.432 33.8332C97.6747 33.9868 97.8796 34.0715 98.0467 34.0872C98.0716 34.0957 98.0964 34.1042 98.1213 34.1127C98.1709 34.1248 98.2151 34.1298 98.2541 34.1277L99.4683 34.0644C99.7414 34.0502 99.9683 33.9944 100.149 33.8969C100.401 33.7664 100.642 33.5583 100.872 33.2725C101.124 32.9562 101.253 32.661 101.258 32.3869C101.381 32.2974 101.539 32.2745 101.732 32.3182ZM113.261 33.9026C113.225 33.9583 113.165 34.0274 113.081 34.11C112.868 34.2434 112.713 34.3126 112.615 34.3177L111.738 34.3634C111.44 34.3789 111.218 34.3783 111.07 34.3616C110.961 34.3282 110.794 34.2806 110.571 34.2189C110.383 34.17 110.043 33.8944 109.553 33.3919C109.511 33.3501 109.305 33.0455 108.933 32.4781C108.598 31.9626 108.333 31.529 108.139 31.1774C108.088 31.0431 108.001 30.8716 107.877 30.6629C107.826 30.6118 107.703 30.5987 107.509 30.6235C107.388 30.6445 107.264 30.6656 107.138 30.6868C106.977 30.6855 106.737 30.6955 106.421 30.7169C106.387 30.7187 106.347 30.7501 106.301 30.8111C106.33 31.0003 106.386 31.5964 106.468 32.5993C106.483 32.7941 106.535 33.0481 106.625 33.3612C106.629 33.449 106.66 33.5769 106.718 33.7451C106.83 33.9153 107.002 34.0334 107.235 34.0995C107.423 34.1435 107.611 34.1874 107.8 34.2314C107.807 34.2848 107.806 34.3484 107.795 34.4223C107.656 34.4882 107.514 34.525 107.368 34.5326L106.6 34.5727C106.59 34.5732 106.524 34.5644 106.4 34.5464C106.277 34.5284 106.189 34.5207 106.135 34.5235C105.984 34.5314 105.748 34.556 105.428 34.5971C105.112 34.638 104.954 34.6585 104.954 34.6585L104.215 34.697C104.142 34.7008 104.053 34.6834 103.949 34.6449C103.948 34.6303 103.939 34.6014 103.922 34.5583C103.91 34.5149 103.904 34.4835 103.903 34.4639C104.153 34.3825 104.306 34.3256 104.363 34.2933C104.539 34.2009 104.678 34.0519 104.78 33.8461C104.824 33.7558 104.846 33.5297 104.847 33.1679C104.844 33.1094 104.853 32.9573 104.875 32.7117C104.892 32.4859 104.898 32.3145 104.892 32.1974C104.857 31.5343 104.843 31.1756 104.85 31.1215C104.862 31.0671 104.904 30.9769 104.976 30.8509C104.94 30.8186 104.892 30.755 104.834 30.6603C104.805 30.5738 104.786 30.4501 104.778 30.2892L104.739 29.5504C104.739 29.5456 104.728 29.4704 104.705 29.3248C104.713 29.3831 104.718 29.0601 104.721 28.3559C104.715 28.3464 104.702 28.33 104.682 28.3066C104.618 28.1193 104.607 27.868 104.65 27.5529C104.665 27.4641 104.618 27.1732 104.509 26.6801C104.496 26.5243 104.441 26.3218 104.345 26.0726C104.231 25.9465 104.088 25.8709 103.915 25.8456C103.767 25.8191 103.622 25.7949 103.479 25.7731C103.464 25.4951 103.454 25.437 103.448 25.5987C103.453 25.5201 103.5 25.4761 103.587 25.4667C103.787 25.4465 104.105 25.4079 104.542 25.3509C104.945 25.2908 105.151 25.2605 105.161 25.26L106.104 25.2108C106.28 25.2016 106.46 25.1776 106.643 25.1387C106.827 25.0997 106.985 25.0768 107.116 25.07C107.282 25.0613 107.49 25.0652 107.74 25.0814C107.898 25.1074 108.13 25.1443 108.436 25.1919C108.466 25.2099 108.516 25.2293 108.585 25.2501C109.057 25.2988 109.483 25.4991 109.863 25.8508C110.074 26.0501 110.272 26.4114 110.455 26.9348C110.464 27.0125 110.478 27.1267 110.495 27.2774C110.511 27.3988 110.511 27.5822 110.495 27.8275C110.458 28.3477 110.357 28.7441 110.19 29.0168C110.037 29.2693 109.735 29.6273 109.285 30.0908C109.286 30.1935 109.31 30.2827 109.358 30.3584C109.696 30.9324 110.034 31.5064 110.372 32.0804C110.771 32.7001 111.243 33.2207 111.788 33.6421C111.834 33.6788 112.018 33.7328 112.339 33.804C112.532 33.8429 112.693 33.8466 112.824 33.8154C113.017 33.7662 113.155 33.7443 113.238 33.7498C113.25 33.7834 113.257 33.8343 113.261 33.9026ZM108.926 27.8506C108.918 27.6897 108.9 27.583 108.873 27.5307C108.595 26.8949 108.366 26.4912 108.186 26.3197C107.939 26.0783 107.67 25.931 107.379 25.8777C107.186 25.8438 106.878 25.8476 106.455 25.8892C106.411 25.8964 106.345 25.9268 106.254 25.9804C106.22 26.8231 106.207 27.5035 106.214 28.0214C106.241 28.0591 106.268 28.1139 106.296 28.1858C106.3 28.254 106.292 28.5331 106.274 29.023C106.261 29.3464 106.285 29.6678 106.346 29.9874C106.361 30.0012 106.382 30.0222 106.408 30.0501L107.132 30.0124C107.216 30.0276 107.304 30.0327 107.397 30.0279C107.685 30.0129 107.955 29.9083 108.209 29.7142C108.468 29.5149 108.623 29.3552 108.676 29.2351C108.87 28.8241 108.953 28.3626 108.926 27.8506Z" fill="#F8F7E7"/>
</g>
<defs>
<filter id="filter0_i_146_1071" x="12.6348" y="23.436" width="100.717" height="17.4185" filterUnits="userSpaceOnUse" color-interpolation-filters="sRGB">
<feFlood flood-opacity="0" result="BackgroundImageFix"/>
<feBlend mode="normal" in="SourceGraphic" in2="BackgroundImageFix" result="shape"/>
<feColorMatrix in="SourceAlpha" type="matrix" values="0 0 0 0 0 0 0 0 0 0 0 0 0 0 0 0 0 0 127 0" result="hardAlpha"/>
<feOffset dx="0.2" dy="0.2"/>
<feComposite in2="hardAlpha" operator="arithmetic" k2="-1" k3="1"/>
<feColorMatrix type="matrix" values="0 0 0 0 0.12549 0 0 0 0 0.12549 0 0 0 0 0.12549 0 0 0 1 0"/>
<feBlend mode="normal" in2="shape" result="effect1_innerShadow_146_1071"/>
</filter>
<linearGradient id="paint0_linear_146_1071" x1="66.3751" y1="45.311" x2="73.8779" y2="162.601" gradientUnits="userSpaceOnUse">
<stop stop-color="#AD6332"/>
<stop offset="0.573608" stop-color="#202020"/>
</linearGradient>
</defs>
</svg>
